M48
; DRILL file {KiCad 9.0.5} date 2026-02-08T11:36:30+0100
; FORMAT={-:-/ absolute / metric / decimal}
; #@! TF.CreationDate,2026-02-08T11:36:30+01:00
; #@! TF.GenerationSoftware,Kicad,Pcbnew,9.0.5
; #@! TF.FileFunction,Plated,1,4,PTH
FMAT,2
METRIC
; #@! TA.AperFunction,Plated,PTH,ViaDrill
T1C0.300
; #@! TA.AperFunction,Plated,PTH,ComponentDrill
T2C0.762
; #@! TA.AperFunction,Plated,PTH,ComponentDrill
T3C0.800
; #@! TA.AperFunction,Plated,PTH,ComponentDrill
T4C0.950
; #@! TA.AperFunction,Plated,PTH,ComponentDrill
T5C1.000
%
G90
G05
T1
X205.7Y-128.2
X207.6Y-137.1
X207.6Y-141.4
X209.0Y-108.3
X210.1Y-133.1
X210.3Y-145.2
X210.5Y-89.3
X211.5Y-108.1
X211.53Y-84.3
X212.8Y-149.4
X213.28Y-88.2
X215.2Y-149.9
X216.6Y-98.7
X217.7Y-128.2
X217.8Y-150.5
X219.0Y-123.0
X219.1Y-95.1
X219.4Y-149.7
X220.2Y-150.7
X221.6Y-89.3
X221.7Y-101.4
X222.9Y-151.3
X223.2Y-137.5
X225.044Y-135.89
X225.3Y-149.8
X225.552Y-143.002
X225.8Y-101.3
X227.0Y-123.4
X227.4Y-151.0
X228.0Y-150.2
X230.6Y-140.5
X231.14Y-131.064
X233.2Y-123.4
X236.6Y-111.0
X241.554Y-115.316
X245.9Y-96.5
X246.8Y-137.5
X249.515Y-140.485
X252.2Y-104.0
X256.5Y-96.4
X259.5Y-91.5
X259.5Y-104.0
X260.1Y-148.6
T2
X210.566Y-82.804
X213.106Y-82.804
X215.646Y-82.804
X218.186Y-82.804
X246.21Y-84.565
X246.21Y-87.105
X246.38Y-91.33
X246.38Y-93.87
X256.37Y-84.565
X256.37Y-87.105
X256.54Y-91.33
X256.54Y-93.87
T3
X200.54Y-100.9
X200.54Y-111.06
X204.94Y-100.8
X204.94Y-110.96
X207.645Y-125.476
X207.648Y-147.316
X208.915Y-100.775
X208.915Y-104.775
X210.185Y-125.476
X210.188Y-147.316
X212.725Y-125.476
X212.725Y-147.32
X215.265Y-125.476
X215.265Y-147.32
X217.805Y-125.476
X217.805Y-147.32
X219.075Y-100.775
X219.075Y-104.775
X220.345Y-125.476
X220.345Y-147.32
X222.885Y-125.476
X222.885Y-147.32
X225.425Y-125.476
X225.425Y-147.32
X227.965Y-125.476
X227.965Y-147.32
X230.505Y-125.476
X230.505Y-147.32
X233.045Y-125.476
X233.045Y-147.32
X235.585Y-125.476
X235.585Y-147.32
X238.125Y-125.476
X238.125Y-147.32
X240.665Y-125.476
X240.665Y-147.32
X243.205Y-125.476
X243.205Y-147.32
X245.745Y-99.06
X245.745Y-125.476
X245.745Y-147.32
X246.38Y-80.01
X248.285Y-125.476
X248.285Y-147.32
X250.825Y-125.476
X250.825Y-147.32
X253.365Y-125.476
X253.365Y-147.32
X255.905Y-99.06
X256.54Y-80.01
T4
X209.55Y-114.3
X211.415Y-94.775
X212.05Y-114.3
X213.915Y-94.775
X214.55Y-114.3
X216.415Y-94.775
X217.05Y-114.3
X223.45Y-114.3
X225.95Y-114.3
X228.45Y-114.3
X230.95Y-114.3
X233.45Y-114.3
X247.015Y-106.68
X248.285Y-114.3
X249.515Y-106.68
X250.785Y-114.3
X252.015Y-106.68
X253.285Y-114.3
X254.515Y-106.68
T5
X202.925Y-120.886
X202.946Y-129.032
X202.946Y-133.096
X202.946Y-137.16
X202.946Y-141.224
X202.946Y-145.288
X202.946Y-149.352
X202.946Y-153.416
X202.985Y-124.968
X205.3Y-88.2
X205.5Y-84.3
X206.925Y-120.886
X207.394Y-153.67
X210.925Y-120.886
X211.394Y-153.67
X214.925Y-120.886
X215.394Y-153.67
X218.925Y-120.886
X219.394Y-153.67
X222.925Y-120.886
X223.394Y-153.67
X225.725Y-105.43
X225.725Y-107.93
X226.06Y-85.09
X226.06Y-87.63
X226.06Y-90.17
X226.06Y-92.71
X226.06Y-95.25
X226.925Y-120.886
X227.394Y-153.67
X228.6Y-85.09
X228.6Y-87.63
X228.6Y-90.17
X228.6Y-92.71
X228.6Y-95.25
X230.925Y-120.886
X231.394Y-153.67
X232.41Y-105.45
X232.41Y-107.95
X234.95Y-120.904
X235.394Y-153.67
X237.49Y-85.09
X237.49Y-87.63
X237.49Y-90.17
X237.49Y-92.71
X237.49Y-95.25
X239.268Y-120.904
X239.394Y-153.67
X239.695Y-105.43
X239.695Y-107.93
X240.03Y-85.09
X240.03Y-87.63
X240.03Y-90.17
X240.03Y-92.71
X240.03Y-95.25
X243.332Y-120.904
X243.394Y-153.67
X247.394Y-153.67
X247.904Y-120.904
X251.394Y-153.67
X252.222Y-120.904
X255.394Y-153.67
M30
