G04 #@! TF.GenerationSoftware,KiCad,Pcbnew,8.0.3*
G04 #@! TF.CreationDate,2025-07-28T20:13:40+02:00*
G04 #@! TF.ProjectId,DC_minni,44435f6d-696e-46e6-992e-6b696361645f,rev?*
G04 #@! TF.SameCoordinates,Original*
G04 #@! TF.FileFunction,Copper,L4,Bot*
G04 #@! TF.FilePolarity,Positive*
%FSLAX46Y46*%
G04 Gerber Fmt 4.6, Leading zero omitted, Abs format (unit mm)*
G04 Created by KiCad (PCBNEW 8.0.3) date 2025-07-28 20:13:40*
%MOMM*%
%LPD*%
G01*
G04 APERTURE LIST*
G04 Aperture macros list*
%AMRoundRect*
0 Rectangle with rounded corners*
0 $1 Rounding radius*
0 $2 $3 $4 $5 $6 $7 $8 $9 X,Y pos of 4 corners*
0 Add a 4 corners polygon primitive as box body*
4,1,4,$2,$3,$4,$5,$6,$7,$8,$9,$2,$3,0*
0 Add four circle primitives for the rounded corners*
1,1,$1+$1,$2,$3*
1,1,$1+$1,$4,$5*
1,1,$1+$1,$6,$7*
1,1,$1+$1,$8,$9*
0 Add four rect primitives between the rounded corners*
20,1,$1+$1,$2,$3,$4,$5,0*
20,1,$1+$1,$4,$5,$6,$7,0*
20,1,$1+$1,$6,$7,$8,$9,0*
20,1,$1+$1,$8,$9,$2,$3,0*%
G04 Aperture macros list end*
G04 #@! TA.AperFunction,ComponentPad*
%ADD10R,1.524000X1.524000*%
G04 #@! TD*
G04 #@! TA.AperFunction,ComponentPad*
%ADD11C,1.524000*%
G04 #@! TD*
G04 #@! TA.AperFunction,ComponentPad*
%ADD12R,2.000000X1.200000*%
G04 #@! TD*
G04 #@! TA.AperFunction,ComponentPad*
%ADD13O,2.000000X1.200000*%
G04 #@! TD*
G04 #@! TA.AperFunction,ComponentPad*
%ADD14C,1.700000*%
G04 #@! TD*
G04 #@! TA.AperFunction,ComponentPad*
%ADD15RoundRect,0.250000X0.600000X-0.600000X0.600000X0.600000X-0.600000X0.600000X-0.600000X-0.600000X0*%
G04 #@! TD*
G04 #@! TA.AperFunction,ComponentPad*
%ADD16C,1.600000*%
G04 #@! TD*
G04 #@! TA.AperFunction,ComponentPad*
%ADD17O,1.600000X1.600000*%
G04 #@! TD*
G04 #@! TA.AperFunction,ComponentPad*
%ADD18O,1.700000X1.950000*%
G04 #@! TD*
G04 #@! TA.AperFunction,ComponentPad*
%ADD19RoundRect,0.250000X0.600000X0.725000X-0.600000X0.725000X-0.600000X-0.725000X0.600000X-0.725000X0*%
G04 #@! TD*
G04 #@! TA.AperFunction,ComponentPad*
%ADD20R,1.700000X1.700000*%
G04 #@! TD*
G04 #@! TA.AperFunction,ComponentPad*
%ADD21RoundRect,0.250000X-0.600000X-0.725000X0.600000X-0.725000X0.600000X0.725000X-0.600000X0.725000X0*%
G04 #@! TD*
G04 #@! TA.AperFunction,ViaPad*
%ADD22C,0.600000*%
G04 #@! TD*
G04 #@! TA.AperFunction,Conductor*
%ADD23C,0.400000*%
G04 #@! TD*
G04 #@! TA.AperFunction,Conductor*
%ADD24C,0.200000*%
G04 #@! TD*
G04 APERTURE END LIST*
D10*
X217170000Y-96520000D03*
D11*
X214630000Y-96520000D03*
X212090000Y-96520000D03*
X209550000Y-96520000D03*
D12*
X217000000Y-126900000D03*
D13*
X217000000Y-129440000D03*
X217000000Y-131980000D03*
X217000000Y-134520000D03*
X217000000Y-137060000D03*
X217000000Y-139600000D03*
X217000000Y-142140000D03*
X217000000Y-144680000D03*
X217000000Y-147220000D03*
X217000000Y-149760000D03*
X217000000Y-152300000D03*
X217000000Y-154840000D03*
X217000000Y-157380000D03*
X217000000Y-159920000D03*
X217000000Y-162460000D03*
X217000000Y-165000000D03*
X217000000Y-167540000D03*
X217000000Y-170080000D03*
X217000000Y-172620000D03*
X242396320Y-172617280D03*
X242396320Y-170077280D03*
X242400000Y-167540000D03*
X242400000Y-165000000D03*
X242400000Y-162460000D03*
X242400000Y-159920000D03*
X242400000Y-157380000D03*
X242400000Y-154840000D03*
X242400000Y-152300000D03*
X242400000Y-149760000D03*
X242400000Y-147220000D03*
X242400000Y-144680000D03*
X242400000Y-142140000D03*
X242400000Y-139600000D03*
X242400000Y-137060000D03*
X242400000Y-134520000D03*
X242400000Y-131980000D03*
X242400000Y-129440000D03*
X242400000Y-126900000D03*
D14*
X252730000Y-96520000D03*
X252730000Y-99060000D03*
X250190000Y-96520000D03*
X250190000Y-99060000D03*
X247650000Y-96520000D03*
X247650000Y-99060000D03*
X245110000Y-96520000D03*
X245110000Y-99060000D03*
X242570000Y-96520000D03*
D15*
X242570000Y-99060000D03*
D16*
X253800000Y-124400000D03*
D17*
X253800000Y-114240000D03*
D16*
X258500000Y-128500000D03*
D17*
X268660000Y-128500000D03*
X200400000Y-102420000D03*
D16*
X200400000Y-112580000D03*
X204800000Y-102320000D03*
D17*
X204800000Y-112480000D03*
D16*
X218080000Y-111440000D03*
D17*
X207920000Y-111440000D03*
D10*
X258340000Y-119460000D03*
D11*
X258340000Y-122000000D03*
X268500000Y-119460000D03*
X268500000Y-122000000D03*
D18*
X210420000Y-105440000D03*
X212920000Y-105440000D03*
D19*
X215420000Y-105440000D03*
D20*
X207500000Y-127500000D03*
X207500000Y-123500000D03*
X207500000Y-135500000D03*
X207500000Y-131500000D03*
X207500000Y-143500000D03*
X207500000Y-139500000D03*
X207500000Y-155500000D03*
X207500000Y-151500000D03*
X207500000Y-147500000D03*
X248500000Y-125000000D03*
X248500000Y-129000000D03*
X248500000Y-145000000D03*
X248500000Y-149000000D03*
X248500000Y-157000000D03*
X248500000Y-161000000D03*
X248500000Y-177000000D03*
X207500000Y-159500000D03*
X207500000Y-171500000D03*
X207500000Y-163500000D03*
X213500000Y-177000000D03*
X207500000Y-175500000D03*
X237000000Y-177000000D03*
X232000000Y-177000000D03*
X248500000Y-153000000D03*
X248500000Y-165000000D03*
X248500000Y-137000000D03*
X248500000Y-173000000D03*
X248500000Y-133000000D03*
X207500000Y-167500000D03*
D14*
X252730000Y-83820000D03*
X252730000Y-86360000D03*
X250190000Y-83820000D03*
X250190000Y-86360000D03*
X247650000Y-83820000D03*
X247650000Y-86360000D03*
X245110000Y-83820000D03*
X245110000Y-86360000D03*
X242570000Y-83820000D03*
D15*
X242570000Y-86360000D03*
D21*
X239800000Y-111800000D03*
D18*
X242300000Y-111800000D03*
X244800000Y-111800000D03*
X247300000Y-111800000D03*
D10*
X267910000Y-114380000D03*
D11*
X267910000Y-111840000D03*
X257750000Y-114380000D03*
X257750000Y-111840000D03*
D20*
X204360000Y-96940000D03*
X222360000Y-96940000D03*
X218500000Y-177000000D03*
X212500000Y-121500000D03*
X248500000Y-169000000D03*
X223500000Y-177000000D03*
X217500000Y-121500000D03*
X242000000Y-177000000D03*
D16*
X218080000Y-115440000D03*
D17*
X207920000Y-115440000D03*
D20*
X248500000Y-141000000D03*
D22*
X265500000Y-101900000D03*
X242500000Y-102000000D03*
X251100000Y-119500000D03*
X267900000Y-100500000D03*
X225200000Y-162400000D03*
X225200000Y-114400000D03*
X242400000Y-121300000D03*
X223800000Y-104100000D03*
D23*
X223800000Y-102400000D02*
X223800000Y-104100000D01*
X210400000Y-102400000D02*
X223800000Y-102400000D01*
X210420000Y-105440000D02*
X210400000Y-102400000D01*
D24*
X265500000Y-101900000D02*
X242600000Y-101900000D01*
X242600000Y-101900000D02*
X242500000Y-102000000D01*
X211800000Y-131500000D02*
X217000000Y-136700000D01*
X207500000Y-131500000D02*
X211800000Y-131500000D01*
X217000000Y-136700000D02*
X217000000Y-137060000D01*
X215287000Y-137887000D02*
X217000000Y-139600000D01*
X209887000Y-137887000D02*
X215287000Y-137887000D01*
X207500000Y-135500000D02*
X209887000Y-137887000D01*
X214360000Y-139500000D02*
X217000000Y-142140000D01*
X207500000Y-139500000D02*
X214360000Y-139500000D01*
X215820000Y-143500000D02*
X217000000Y-144680000D01*
X207500000Y-143500000D02*
X215820000Y-143500000D01*
X207880000Y-147220000D02*
X217000000Y-147220000D01*
X207600000Y-147500000D02*
X207880000Y-147220000D01*
X207500000Y-147500000D02*
X207600000Y-147500000D01*
X215260000Y-151500000D02*
X217000000Y-149760000D01*
X207500000Y-151500000D02*
X215260000Y-151500000D01*
X213800000Y-155500000D02*
X217000000Y-152300000D01*
X207500000Y-155500000D02*
X213800000Y-155500000D01*
X212340000Y-159500000D02*
X217000000Y-154840000D01*
X207500000Y-159500000D02*
X212340000Y-159500000D01*
X237000000Y-177000000D02*
X237000000Y-175473600D01*
X237000000Y-175473600D02*
X242396320Y-170077280D01*
X244100000Y-169240000D02*
X242400000Y-167540000D01*
X244100000Y-174900000D02*
X244100000Y-169240000D01*
X242000000Y-177000000D02*
X244100000Y-174900000D01*
X242500000Y-165000000D02*
X242400000Y-165000000D01*
X244800000Y-167300000D02*
X242500000Y-165000000D01*
X244800000Y-173300000D02*
X244800000Y-167300000D01*
X248500000Y-177000000D02*
X244800000Y-173300000D01*
X244160000Y-162460000D02*
X242400000Y-162460000D01*
X245000000Y-166700000D02*
X245000000Y-163300000D01*
X245400000Y-167100000D02*
X245000000Y-166700000D01*
X245400000Y-169900000D02*
X245400000Y-167100000D01*
X248500000Y-173000000D02*
X245400000Y-169900000D01*
X245000000Y-163300000D02*
X244160000Y-162460000D01*
X245700000Y-162100000D02*
X243520000Y-159920000D01*
X245700000Y-166200000D02*
X245700000Y-162100000D01*
X243520000Y-159920000D02*
X242400000Y-159920000D01*
X248500000Y-169000000D02*
X245700000Y-166200000D01*
X248500000Y-163480000D02*
X242400000Y-157380000D01*
X248500000Y-165000000D02*
X248500000Y-163480000D01*
X242400000Y-154900000D02*
X242400000Y-154840000D01*
X248500000Y-161000000D02*
X242400000Y-154900000D01*
X247100000Y-157000000D02*
X242400000Y-152300000D01*
X248500000Y-157000000D02*
X247100000Y-157000000D01*
X245640000Y-153000000D02*
X242400000Y-149760000D01*
X248500000Y-153000000D02*
X245640000Y-153000000D01*
X248500000Y-149000000D02*
X244180000Y-149000000D01*
X244180000Y-149000000D02*
X242400000Y-147220000D01*
X243690445Y-145000000D02*
X243370445Y-144680000D01*
X248500000Y-145000000D02*
X243690445Y-145000000D01*
X243370445Y-144680000D02*
X242400000Y-144680000D01*
X243800000Y-141000000D02*
X242400000Y-139600000D01*
X248500000Y-141000000D02*
X243800000Y-141000000D01*
X242460000Y-137000000D02*
X242400000Y-137060000D01*
X248500000Y-137000000D02*
X242460000Y-137000000D01*
X243920000Y-133000000D02*
X242400000Y-134520000D01*
X248500000Y-133000000D02*
X243920000Y-133000000D01*
X248500000Y-125000000D02*
X246840000Y-125000000D01*
X246840000Y-125000000D02*
X242400000Y-129440000D01*
X248500000Y-129000000D02*
X245380000Y-129000000D01*
X245380000Y-129000000D02*
X242400000Y-131980000D01*
X257247602Y-119500000D02*
X251100000Y-119500000D01*
X257287602Y-119460000D02*
X257247602Y-119500000D01*
X258340000Y-119460000D02*
X257287602Y-119460000D01*
X246550000Y-100500000D02*
X267900000Y-100500000D01*
X245110000Y-99060000D02*
X246550000Y-100500000D01*
X246573000Y-84897000D02*
X247650000Y-83820000D01*
X246573000Y-95443000D02*
X246573000Y-84897000D01*
X247650000Y-96520000D02*
X246573000Y-95443000D01*
X244033000Y-95443000D02*
X244033000Y-84897000D01*
X244033000Y-84897000D02*
X245110000Y-83820000D01*
X245110000Y-96520000D02*
X244033000Y-95443000D01*
X241493000Y-84897000D02*
X242570000Y-83820000D01*
X241493000Y-95443000D02*
X241493000Y-84897000D01*
X242570000Y-96520000D02*
X241493000Y-95443000D01*
X205420000Y-98000000D02*
X204360000Y-96940000D01*
X210610000Y-98000000D02*
X205420000Y-98000000D01*
X212090000Y-96520000D02*
X210610000Y-98000000D01*
X220951000Y-95531000D02*
X222360000Y-96940000D01*
X215619000Y-95531000D02*
X220951000Y-95531000D01*
X214630000Y-96520000D02*
X215619000Y-95531000D01*
X224640000Y-162460000D02*
X217000000Y-162460000D01*
X225200000Y-162400000D02*
X224700000Y-162400000D01*
X225360000Y-114240000D02*
X225200000Y-114400000D01*
X253800000Y-114240000D02*
X225360000Y-114240000D01*
X224700000Y-162400000D02*
X224640000Y-162460000D01*
D23*
X256408000Y-110498000D02*
X257750000Y-111840000D01*
X242300000Y-111800000D02*
X243602000Y-110498000D01*
X243602000Y-110498000D02*
X256408000Y-110498000D01*
X242200000Y-121500000D02*
X242400000Y-121300000D01*
X217500000Y-121500000D02*
X242200000Y-121500000D01*
D24*
X200680000Y-112480000D02*
X200400000Y-112200000D01*
X204800000Y-112480000D02*
X200680000Y-112480000D01*
X249113000Y-84897000D02*
X250190000Y-83820000D01*
X250190000Y-96520000D02*
X249113000Y-95443000D01*
X249113000Y-95443000D02*
X249113000Y-84897000D01*
X251653000Y-84897000D02*
X252730000Y-83820000D01*
X251653000Y-95443000D02*
X251653000Y-84897000D01*
X252730000Y-96520000D02*
X251653000Y-95443000D01*
G04 #@! TA.AperFunction,Conductor*
G36*
X272092539Y-75420185D02*
G01*
X272138294Y-75472989D01*
X272149500Y-75524500D01*
X272149500Y-180175500D01*
X272129815Y-180242539D01*
X272077011Y-180288294D01*
X272025500Y-180299500D01*
X198249500Y-180299500D01*
X198182461Y-180279815D01*
X198136706Y-180227011D01*
X198125500Y-180175500D01*
X198125500Y-176423713D01*
X200579500Y-176423713D01*
X200579500Y-176636286D01*
X200612753Y-176846239D01*
X200678444Y-177048414D01*
X200774951Y-177237820D01*
X200899890Y-177409786D01*
X201050213Y-177560109D01*
X201222179Y-177685048D01*
X201222181Y-177685049D01*
X201222184Y-177685051D01*
X201411588Y-177781557D01*
X201613757Y-177847246D01*
X201823713Y-177880500D01*
X201823714Y-177880500D01*
X202036286Y-177880500D01*
X202036287Y-177880500D01*
X202246243Y-177847246D01*
X202448412Y-177781557D01*
X202637816Y-177685051D01*
X202659789Y-177669086D01*
X202809786Y-177560109D01*
X202809788Y-177560106D01*
X202809792Y-177560104D01*
X202960104Y-177409792D01*
X202960106Y-177409788D01*
X202960109Y-177409786D01*
X203085048Y-177237820D01*
X203085047Y-177237820D01*
X203085051Y-177237816D01*
X203181557Y-177048412D01*
X203247246Y-176846243D01*
X203280500Y-176636287D01*
X203280500Y-176423713D01*
X203247246Y-176213757D01*
X203181557Y-176011588D01*
X203085051Y-175822184D01*
X203085049Y-175822181D01*
X203085048Y-175822179D01*
X202960109Y-175650213D01*
X202809786Y-175499890D01*
X202637820Y-175374951D01*
X202448414Y-175278444D01*
X202448413Y-175278443D01*
X202448412Y-175278443D01*
X202246243Y-175212754D01*
X202246241Y-175212753D01*
X202246240Y-175212753D01*
X202084957Y-175187208D01*
X202036287Y-175179500D01*
X201823713Y-175179500D01*
X201775042Y-175187208D01*
X201613760Y-175212753D01*
X201613757Y-175212754D01*
X201441525Y-175268716D01*
X201411585Y-175278444D01*
X201222179Y-175374951D01*
X201050213Y-175499890D01*
X200899890Y-175650213D01*
X200774951Y-175822179D01*
X200678444Y-176011585D01*
X200612753Y-176213760D01*
X200579500Y-176423713D01*
X198125500Y-176423713D01*
X198125500Y-174602135D01*
X206149500Y-174602135D01*
X206149500Y-176397870D01*
X206149501Y-176397876D01*
X206155908Y-176457483D01*
X206206202Y-176592328D01*
X206206206Y-176592335D01*
X206292452Y-176707544D01*
X206292455Y-176707547D01*
X206407664Y-176793793D01*
X206407671Y-176793797D01*
X206542517Y-176844091D01*
X206542516Y-176844091D01*
X206549444Y-176844835D01*
X206602127Y-176850500D01*
X208397872Y-176850499D01*
X208457483Y-176844091D01*
X208592331Y-176793796D01*
X208707546Y-176707546D01*
X208793796Y-176592331D01*
X208844091Y-176457483D01*
X208850500Y-176397873D01*
X208850500Y-176102135D01*
X212149500Y-176102135D01*
X212149500Y-177897870D01*
X212149501Y-177897876D01*
X212155908Y-177957483D01*
X212206202Y-178092328D01*
X212206206Y-178092335D01*
X212292452Y-178207544D01*
X212292455Y-178207547D01*
X212407664Y-178293793D01*
X212407671Y-178293797D01*
X212542517Y-178344091D01*
X212542516Y-178344091D01*
X212549444Y-178344835D01*
X212602127Y-178350500D01*
X214397872Y-178350499D01*
X214457483Y-178344091D01*
X214592331Y-178293796D01*
X214707546Y-178207546D01*
X214793796Y-178092331D01*
X214844091Y-177957483D01*
X214850500Y-177897873D01*
X214850499Y-176102135D01*
X217149500Y-176102135D01*
X217149500Y-177897870D01*
X217149501Y-177897876D01*
X217155908Y-177957483D01*
X217206202Y-178092328D01*
X217206206Y-178092335D01*
X217292452Y-178207544D01*
X217292455Y-178207547D01*
X217407664Y-178293793D01*
X217407671Y-178293797D01*
X217542517Y-178344091D01*
X217542516Y-178344091D01*
X217549444Y-178344835D01*
X217602127Y-178350500D01*
X219397872Y-178350499D01*
X219457483Y-178344091D01*
X219592331Y-178293796D01*
X219707546Y-178207546D01*
X219793796Y-178092331D01*
X219844091Y-177957483D01*
X219850500Y-177897873D01*
X219850499Y-176102135D01*
X222149500Y-176102135D01*
X222149500Y-177897870D01*
X222149501Y-177897876D01*
X222155908Y-177957483D01*
X222206202Y-178092328D01*
X222206206Y-178092335D01*
X222292452Y-178207544D01*
X222292455Y-178207547D01*
X222407664Y-178293793D01*
X222407671Y-178293797D01*
X222542517Y-178344091D01*
X222542516Y-178344091D01*
X222549444Y-178344835D01*
X222602127Y-178350500D01*
X224397872Y-178350499D01*
X224457483Y-178344091D01*
X224592331Y-178293796D01*
X224707546Y-178207546D01*
X224793796Y-178092331D01*
X224844091Y-177957483D01*
X224850500Y-177897873D01*
X224850499Y-176102135D01*
X230649500Y-176102135D01*
X230649500Y-177897870D01*
X230649501Y-177897876D01*
X230655908Y-177957483D01*
X230706202Y-178092328D01*
X230706206Y-178092335D01*
X230792452Y-178207544D01*
X230792455Y-178207547D01*
X230907664Y-178293793D01*
X230907671Y-178293797D01*
X231042517Y-178344091D01*
X231042516Y-178344091D01*
X231049444Y-178344835D01*
X231102127Y-178350500D01*
X232897872Y-178350499D01*
X232957483Y-178344091D01*
X233092331Y-178293796D01*
X233207546Y-178207546D01*
X233293796Y-178092331D01*
X233344091Y-177957483D01*
X233350500Y-177897873D01*
X233350499Y-176102135D01*
X235649500Y-176102135D01*
X235649500Y-177897870D01*
X235649501Y-177897876D01*
X235655908Y-177957483D01*
X235706202Y-178092328D01*
X235706206Y-178092335D01*
X235792452Y-178207544D01*
X235792455Y-178207547D01*
X235907664Y-178293793D01*
X235907671Y-178293797D01*
X236042517Y-178344091D01*
X236042516Y-178344091D01*
X236049444Y-178344835D01*
X236102127Y-178350500D01*
X237897872Y-178350499D01*
X237957483Y-178344091D01*
X238092331Y-178293796D01*
X238207546Y-178207546D01*
X238293796Y-178092331D01*
X238344091Y-177957483D01*
X238350500Y-177897873D01*
X238350499Y-176102128D01*
X238344091Y-176042517D01*
X238332555Y-176011588D01*
X238293797Y-175907671D01*
X238293793Y-175907664D01*
X238207547Y-175792455D01*
X238207544Y-175792452D01*
X238092335Y-175706206D01*
X238092328Y-175706202D01*
X237957483Y-175655909D01*
X237952816Y-175655407D01*
X237888266Y-175628665D01*
X237848421Y-175571271D01*
X237845930Y-175501446D01*
X237878394Y-175444439D01*
X240685881Y-172636952D01*
X240747202Y-172603469D01*
X240816894Y-172608453D01*
X240872827Y-172650325D01*
X240896033Y-172705237D01*
X240919040Y-172850500D01*
X240922918Y-172874981D01*
X240976447Y-173039725D01*
X241055088Y-173194068D01*
X241156906Y-173334208D01*
X241279392Y-173456694D01*
X241419532Y-173558512D01*
X241573875Y-173637153D01*
X241738619Y-173690682D01*
X241909709Y-173717780D01*
X241909710Y-173717780D01*
X242882930Y-173717780D01*
X242882931Y-173717780D01*
X243054021Y-173690682D01*
X243218765Y-173637153D01*
X243319207Y-173585975D01*
X243387874Y-173573080D01*
X243452614Y-173599356D01*
X243492872Y-173656462D01*
X243499500Y-173696461D01*
X243499500Y-174599902D01*
X243479815Y-174666941D01*
X243463181Y-174687583D01*
X242537582Y-175613181D01*
X242476259Y-175646666D01*
X242449901Y-175649500D01*
X241102129Y-175649500D01*
X241102123Y-175649501D01*
X241042516Y-175655908D01*
X240907671Y-175706202D01*
X240907664Y-175706206D01*
X240792455Y-175792452D01*
X240792452Y-175792455D01*
X240706206Y-175907664D01*
X240706202Y-175907671D01*
X240655908Y-176042517D01*
X240649501Y-176102116D01*
X240649501Y-176102123D01*
X240649500Y-176102135D01*
X240649500Y-177897870D01*
X240649501Y-177897876D01*
X240655908Y-177957483D01*
X240706202Y-178092328D01*
X240706206Y-178092335D01*
X240792452Y-178207544D01*
X240792455Y-178207547D01*
X240907664Y-178293793D01*
X240907671Y-178293797D01*
X241042517Y-178344091D01*
X241042516Y-178344091D01*
X241049444Y-178344835D01*
X241102127Y-178350500D01*
X242897872Y-178350499D01*
X242957483Y-178344091D01*
X243092331Y-178293796D01*
X243207546Y-178207546D01*
X243293796Y-178092331D01*
X243344091Y-177957483D01*
X243350500Y-177897873D01*
X243350499Y-176550095D01*
X243370184Y-176483057D01*
X243386813Y-176462420D01*
X244458506Y-175390728D01*
X244458511Y-175390724D01*
X244468714Y-175380520D01*
X244468716Y-175380520D01*
X244580520Y-175268716D01*
X244659577Y-175131784D01*
X244700500Y-174979057D01*
X244700500Y-174349097D01*
X244720185Y-174282058D01*
X244772989Y-174236303D01*
X244842147Y-174226359D01*
X244905703Y-174255384D01*
X244912181Y-174261416D01*
X247113181Y-176462416D01*
X247146666Y-176523739D01*
X247149500Y-176550097D01*
X247149500Y-177897870D01*
X247149501Y-177897876D01*
X247155908Y-177957483D01*
X247206202Y-178092328D01*
X247206206Y-178092335D01*
X247292452Y-178207544D01*
X247292455Y-178207547D01*
X247407664Y-178293793D01*
X247407671Y-178293797D01*
X247542517Y-178344091D01*
X247542516Y-178344091D01*
X247549444Y-178344835D01*
X247602127Y-178350500D01*
X249397872Y-178350499D01*
X249457483Y-178344091D01*
X249592331Y-178293796D01*
X249707546Y-178207546D01*
X249793796Y-178092331D01*
X249844091Y-177957483D01*
X249850500Y-177897873D01*
X249850499Y-176102128D01*
X249844091Y-176042517D01*
X249832555Y-176011588D01*
X249793797Y-175907671D01*
X249793793Y-175907664D01*
X249707547Y-175792455D01*
X249707544Y-175792452D01*
X249592335Y-175706206D01*
X249592328Y-175706202D01*
X249457482Y-175655908D01*
X249457483Y-175655908D01*
X249397883Y-175649501D01*
X249397881Y-175649500D01*
X249397873Y-175649500D01*
X249397865Y-175649500D01*
X248050097Y-175649500D01*
X247983058Y-175629815D01*
X247962416Y-175613181D01*
X247502948Y-175153713D01*
X265349500Y-175153713D01*
X265349500Y-175366287D01*
X265353372Y-175390732D01*
X265381966Y-175571271D01*
X265382754Y-175576243D01*
X265424980Y-175706202D01*
X265448444Y-175778414D01*
X265544951Y-175967820D01*
X265669890Y-176139786D01*
X265820213Y-176290109D01*
X265992179Y-176415048D01*
X265992181Y-176415049D01*
X265992184Y-176415051D01*
X266181588Y-176511557D01*
X266383757Y-176577246D01*
X266593713Y-176610500D01*
X266593714Y-176610500D01*
X266806286Y-176610500D01*
X266806287Y-176610500D01*
X267016243Y-176577246D01*
X267218412Y-176511557D01*
X267407816Y-176415051D01*
X267431472Y-176397864D01*
X267579786Y-176290109D01*
X267579788Y-176290106D01*
X267579792Y-176290104D01*
X267730104Y-176139792D01*
X267730106Y-176139788D01*
X267730109Y-176139786D01*
X267855048Y-175967820D01*
X267855047Y-175967820D01*
X267855051Y-175967816D01*
X267951557Y-175778412D01*
X268017246Y-175576243D01*
X268050500Y-175366287D01*
X268050500Y-175153713D01*
X268017246Y-174943757D01*
X267951557Y-174741588D01*
X267855051Y-174552184D01*
X267855049Y-174552181D01*
X267855048Y-174552179D01*
X267730109Y-174380213D01*
X267579786Y-174229890D01*
X267407820Y-174104951D01*
X267218414Y-174008444D01*
X267218413Y-174008443D01*
X267218412Y-174008443D01*
X267016243Y-173942754D01*
X267016241Y-173942753D01*
X267016240Y-173942753D01*
X266854957Y-173917208D01*
X266806287Y-173909500D01*
X266593713Y-173909500D01*
X266545042Y-173917208D01*
X266383760Y-173942753D01*
X266181585Y-174008444D01*
X265992179Y-174104951D01*
X265820213Y-174229890D01*
X265669890Y-174380213D01*
X265544951Y-174552179D01*
X265448444Y-174741585D01*
X265382753Y-174943760D01*
X265377163Y-174979055D01*
X265349500Y-175153713D01*
X247502948Y-175153713D01*
X245436819Y-173087584D01*
X245403334Y-173026261D01*
X245400500Y-172999903D01*
X245400500Y-171049097D01*
X245420185Y-170982058D01*
X245472989Y-170936303D01*
X245542147Y-170926359D01*
X245605703Y-170955384D01*
X245612181Y-170961416D01*
X247113181Y-172462416D01*
X247146666Y-172523739D01*
X247149500Y-172550097D01*
X247149500Y-173897870D01*
X247149501Y-173897876D01*
X247155908Y-173957483D01*
X247206202Y-174092328D01*
X247206206Y-174092335D01*
X247292452Y-174207544D01*
X247292455Y-174207547D01*
X247407664Y-174293793D01*
X247407671Y-174293797D01*
X247542517Y-174344091D01*
X247542516Y-174344091D01*
X247549444Y-174344835D01*
X247602127Y-174350500D01*
X249397872Y-174350499D01*
X249457483Y-174344091D01*
X249592331Y-174293796D01*
X249707546Y-174207546D01*
X249793796Y-174092331D01*
X249844091Y-173957483D01*
X249850500Y-173897873D01*
X249850499Y-172102128D01*
X249844091Y-172042517D01*
X249793796Y-171907669D01*
X249793795Y-171907668D01*
X249793793Y-171907664D01*
X249707547Y-171792455D01*
X249707544Y-171792452D01*
X249592335Y-171706206D01*
X249592328Y-171706202D01*
X249457482Y-171655908D01*
X249457483Y-171655908D01*
X249397883Y-171649501D01*
X249397881Y-171649500D01*
X249397873Y-171649500D01*
X249397865Y-171649500D01*
X248050097Y-171649500D01*
X247983058Y-171629815D01*
X247962416Y-171613181D01*
X246036819Y-169687584D01*
X246003334Y-169626261D01*
X246000500Y-169599903D01*
X246000500Y-167649097D01*
X246020185Y-167582058D01*
X246072989Y-167536303D01*
X246142147Y-167526359D01*
X246205703Y-167555384D01*
X246212181Y-167561416D01*
X247113181Y-168462416D01*
X247146666Y-168523739D01*
X247149500Y-168550097D01*
X247149500Y-169897870D01*
X247149501Y-169897876D01*
X247155908Y-169957483D01*
X247206202Y-170092328D01*
X247206206Y-170092335D01*
X247292452Y-170207544D01*
X247292455Y-170207547D01*
X247407664Y-170293793D01*
X247407671Y-170293797D01*
X247542517Y-170344091D01*
X247542516Y-170344091D01*
X247549444Y-170344835D01*
X247602127Y-170350500D01*
X249397872Y-170350499D01*
X249457483Y-170344091D01*
X249592331Y-170293796D01*
X249707546Y-170207546D01*
X249793796Y-170092331D01*
X249844091Y-169957483D01*
X249850500Y-169897873D01*
X249850499Y-168102128D01*
X249844091Y-168042517D01*
X249828233Y-168000000D01*
X249793797Y-167907671D01*
X249793793Y-167907664D01*
X249707547Y-167792455D01*
X249707544Y-167792452D01*
X249592335Y-167706206D01*
X249592328Y-167706202D01*
X249457482Y-167655908D01*
X249457483Y-167655908D01*
X249397883Y-167649501D01*
X249397881Y-167649500D01*
X249397873Y-167649500D01*
X249397865Y-167649500D01*
X248050097Y-167649500D01*
X247983058Y-167629815D01*
X247962416Y-167613181D01*
X246336819Y-165987584D01*
X246303334Y-165926261D01*
X246300500Y-165899903D01*
X246300500Y-162429097D01*
X246320185Y-162362058D01*
X246372989Y-162316303D01*
X246442147Y-162306359D01*
X246505703Y-162335384D01*
X246512181Y-162341416D01*
X247615822Y-163445058D01*
X247649307Y-163506381D01*
X247644323Y-163576073D01*
X247602451Y-163632006D01*
X247549742Y-163652747D01*
X247550068Y-163654124D01*
X247542520Y-163655907D01*
X247407671Y-163706202D01*
X247407664Y-163706206D01*
X247292455Y-163792452D01*
X247292452Y-163792455D01*
X247206206Y-163907664D01*
X247206202Y-163907671D01*
X247155908Y-164042517D01*
X247149501Y-164102116D01*
X247149501Y-164102123D01*
X247149500Y-164102135D01*
X247149500Y-165897870D01*
X247149501Y-165897876D01*
X247155908Y-165957483D01*
X247206202Y-166092328D01*
X247206206Y-166092335D01*
X247292452Y-166207544D01*
X247292455Y-166207547D01*
X247407664Y-166293793D01*
X247407671Y-166293797D01*
X247542517Y-166344091D01*
X247542516Y-166344091D01*
X247549444Y-166344835D01*
X247602127Y-166350500D01*
X249397872Y-166350499D01*
X249457483Y-166344091D01*
X249592331Y-166293796D01*
X249707546Y-166207546D01*
X249793796Y-166092331D01*
X249844091Y-165957483D01*
X249850500Y-165897873D01*
X249850499Y-164102128D01*
X249844091Y-164042517D01*
X249820821Y-163980128D01*
X249793797Y-163907671D01*
X249793793Y-163907664D01*
X249707547Y-163792455D01*
X249707544Y-163792452D01*
X249592335Y-163706206D01*
X249592328Y-163706202D01*
X249457482Y-163655908D01*
X249457483Y-163655908D01*
X249397883Y-163649501D01*
X249397881Y-163649500D01*
X249397873Y-163649500D01*
X249397865Y-163649500D01*
X249224501Y-163649500D01*
X249157462Y-163629815D01*
X249111707Y-163577011D01*
X249100501Y-163525500D01*
X249100501Y-163400944D01*
X249100501Y-163400943D01*
X249059577Y-163248216D01*
X249023291Y-163185366D01*
X248980524Y-163111290D01*
X248980518Y-163111282D01*
X248431416Y-162562180D01*
X248397931Y-162500857D01*
X248402915Y-162431165D01*
X248444787Y-162375232D01*
X248510251Y-162350815D01*
X248519097Y-162350499D01*
X249397871Y-162350499D01*
X249397872Y-162350499D01*
X249457483Y-162344091D01*
X249592331Y-162293796D01*
X249707546Y-162207546D01*
X249793796Y-162092331D01*
X249844091Y-161957483D01*
X249850500Y-161897873D01*
X249850499Y-160102128D01*
X249844091Y-160042517D01*
X249820967Y-159980519D01*
X249793797Y-159907671D01*
X249793793Y-159907664D01*
X249707547Y-159792455D01*
X249707544Y-159792452D01*
X249592335Y-159706206D01*
X249592328Y-159706202D01*
X249457482Y-159655908D01*
X249457483Y-159655908D01*
X249397883Y-159649501D01*
X249397881Y-159649500D01*
X249397873Y-159649500D01*
X249397865Y-159649500D01*
X248050098Y-159649500D01*
X247983059Y-159629815D01*
X247962417Y-159613181D01*
X243813303Y-155464068D01*
X243779818Y-155402745D01*
X243784802Y-155333053D01*
X243790496Y-155320099D01*
X243819873Y-155262445D01*
X243873402Y-155097701D01*
X243900286Y-154927957D01*
X243930215Y-154864824D01*
X243989526Y-154827892D01*
X244059389Y-154828890D01*
X244110439Y-154859674D01*
X246731284Y-157480520D01*
X246731286Y-157480521D01*
X246731290Y-157480524D01*
X246799243Y-157519756D01*
X246868216Y-157559577D01*
X247020943Y-157600501D01*
X247025501Y-157600501D01*
X247092540Y-157620186D01*
X247138295Y-157672990D01*
X247149501Y-157724501D01*
X247149501Y-157897876D01*
X247155908Y-157957483D01*
X247206202Y-158092328D01*
X247206206Y-158092335D01*
X247292452Y-158207544D01*
X247292455Y-158207547D01*
X247407664Y-158293793D01*
X247407671Y-158293797D01*
X247542517Y-158344091D01*
X247542516Y-158344091D01*
X247549444Y-158344835D01*
X247602127Y-158350500D01*
X249397872Y-158350499D01*
X249457483Y-158344091D01*
X249592331Y-158293796D01*
X249707546Y-158207546D01*
X249793796Y-158092331D01*
X249844091Y-157957483D01*
X249850500Y-157897873D01*
X249850499Y-156102128D01*
X249844091Y-156042517D01*
X249837797Y-156025643D01*
X249793797Y-155907671D01*
X249793793Y-155907664D01*
X249707547Y-155792455D01*
X249707544Y-155792452D01*
X249592335Y-155706206D01*
X249592328Y-155706202D01*
X249457482Y-155655908D01*
X249457483Y-155655908D01*
X249397883Y-155649501D01*
X249397881Y-155649500D01*
X249397873Y-155649500D01*
X249397864Y-155649500D01*
X247602129Y-155649500D01*
X247602123Y-155649501D01*
X247542516Y-155655908D01*
X247407671Y-155706202D01*
X247407664Y-155706206D01*
X247292455Y-155792452D01*
X247292452Y-155792455D01*
X247206206Y-155907664D01*
X247206203Y-155907670D01*
X247178742Y-155981296D01*
X247136870Y-156037229D01*
X247071405Y-156061646D01*
X247003133Y-156046794D01*
X246974879Y-156025643D01*
X243833556Y-152884321D01*
X243800071Y-152822998D01*
X243805055Y-152753306D01*
X243810752Y-152740346D01*
X243819873Y-152722445D01*
X243873402Y-152557701D01*
X243900286Y-152387957D01*
X243930215Y-152324824D01*
X243989526Y-152287892D01*
X244059389Y-152288890D01*
X244110440Y-152319675D01*
X245155139Y-153364374D01*
X245155149Y-153364385D01*
X245159479Y-153368715D01*
X245159480Y-153368716D01*
X245271284Y-153480520D01*
X245358095Y-153530639D01*
X245358097Y-153530641D01*
X245396151Y-153552611D01*
X245408215Y-153559577D01*
X245560943Y-153600501D01*
X245560946Y-153600501D01*
X245726653Y-153600501D01*
X245726669Y-153600500D01*
X247025501Y-153600500D01*
X247092540Y-153620185D01*
X247138295Y-153672989D01*
X247149501Y-153724500D01*
X247149501Y-153897876D01*
X247155908Y-153957483D01*
X247206202Y-154092328D01*
X247206206Y-154092335D01*
X247292452Y-154207544D01*
X247292455Y-154207547D01*
X247407664Y-154293793D01*
X247407671Y-154293797D01*
X247542517Y-154344091D01*
X247542516Y-154344091D01*
X247549444Y-154344835D01*
X247602127Y-154350500D01*
X249397872Y-154350499D01*
X249457483Y-154344091D01*
X249592331Y-154293796D01*
X249707546Y-154207546D01*
X249793796Y-154092331D01*
X249844091Y-153957483D01*
X249850500Y-153897873D01*
X249850499Y-152102128D01*
X249844091Y-152042517D01*
X249793796Y-151907669D01*
X249793795Y-151907668D01*
X249793793Y-151907664D01*
X249707547Y-151792455D01*
X249707544Y-151792452D01*
X249592335Y-151706206D01*
X249592328Y-151706202D01*
X249457482Y-151655908D01*
X249457483Y-151655908D01*
X249397883Y-151649501D01*
X249397881Y-151649500D01*
X249397873Y-151649500D01*
X249397864Y-151649500D01*
X247602129Y-151649500D01*
X247602123Y-151649501D01*
X247542516Y-151655908D01*
X247407671Y-151706202D01*
X247407664Y-151706206D01*
X247292455Y-151792452D01*
X247292452Y-151792455D01*
X247206206Y-151907664D01*
X247206202Y-151907671D01*
X247155908Y-152042517D01*
X247150779Y-152090228D01*
X247149501Y-152102123D01*
X247149500Y-152102135D01*
X247149500Y-152275500D01*
X247129815Y-152342539D01*
X247077011Y-152388294D01*
X247025500Y-152399500D01*
X245940097Y-152399500D01*
X245873058Y-152379815D01*
X245852416Y-152363181D01*
X243833556Y-150344321D01*
X243800071Y-150282998D01*
X243805055Y-150213306D01*
X243810749Y-150200350D01*
X243819873Y-150182445D01*
X243873402Y-150017701D01*
X243900500Y-149846611D01*
X243900500Y-149708391D01*
X243920185Y-149641352D01*
X243972989Y-149595597D01*
X244042147Y-149585653D01*
X244056580Y-149588613D01*
X244100943Y-149600500D01*
X244259057Y-149600500D01*
X247025501Y-149600500D01*
X247092540Y-149620185D01*
X247138295Y-149672989D01*
X247149501Y-149724500D01*
X247149501Y-149897876D01*
X247155908Y-149957483D01*
X247206202Y-150092328D01*
X247206206Y-150092335D01*
X247292452Y-150207544D01*
X247292455Y-150207547D01*
X247407664Y-150293793D01*
X247407671Y-150293797D01*
X247542517Y-150344091D01*
X247542516Y-150344091D01*
X247544656Y-150344321D01*
X247602127Y-150350500D01*
X249397872Y-150350499D01*
X249457483Y-150344091D01*
X249592331Y-150293796D01*
X249707546Y-150207546D01*
X249793796Y-150092331D01*
X249844091Y-149957483D01*
X249850500Y-149897873D01*
X249850499Y-148102128D01*
X249844091Y-148042517D01*
X249804709Y-147936929D01*
X249793797Y-147907671D01*
X249793793Y-147907664D01*
X249707547Y-147792455D01*
X249707544Y-147792452D01*
X249592335Y-147706206D01*
X249592328Y-147706202D01*
X249457482Y-147655908D01*
X249457483Y-147655908D01*
X249397883Y-147649501D01*
X249397881Y-147649500D01*
X249397873Y-147649500D01*
X249397864Y-147649500D01*
X247602129Y-147649500D01*
X247602123Y-147649501D01*
X247542516Y-147655908D01*
X247407671Y-147706202D01*
X247407664Y-147706206D01*
X247292455Y-147792452D01*
X247292452Y-147792455D01*
X247206206Y-147907664D01*
X247206202Y-147907671D01*
X247155908Y-148042517D01*
X247154092Y-148059414D01*
X247149501Y-148102123D01*
X247149500Y-148102135D01*
X247149500Y-148275500D01*
X247129815Y-148342539D01*
X247077011Y-148388294D01*
X247025500Y-148399500D01*
X244480097Y-148399500D01*
X244413058Y-148379815D01*
X244392416Y-148363181D01*
X243833556Y-147804321D01*
X243800071Y-147742998D01*
X243805055Y-147673306D01*
X243810749Y-147660350D01*
X243819873Y-147642445D01*
X243873402Y-147477701D01*
X243900500Y-147306611D01*
X243900500Y-147133389D01*
X243873402Y-146962299D01*
X243819873Y-146797555D01*
X243741232Y-146643212D01*
X243639414Y-146503072D01*
X243516928Y-146380586D01*
X243376788Y-146278768D01*
X243222445Y-146200127D01*
X243057701Y-146146598D01*
X243057699Y-146146597D01*
X243057698Y-146146597D01*
X242926271Y-146125781D01*
X242886611Y-146119500D01*
X241913389Y-146119500D01*
X241873728Y-146125781D01*
X241742302Y-146146597D01*
X241577552Y-146200128D01*
X241423211Y-146278768D01*
X241402526Y-146293797D01*
X241283072Y-146380586D01*
X241283070Y-146380588D01*
X241283069Y-146380588D01*
X241160588Y-146503069D01*
X241160588Y-146503070D01*
X241160586Y-146503072D01*
X241128662Y-146547011D01*
X241058768Y-146643211D01*
X240980128Y-146797552D01*
X240926597Y-146962302D01*
X240899500Y-147133389D01*
X240899500Y-147306611D01*
X240926598Y-147477701D01*
X240980127Y-147642445D01*
X241058768Y-147796788D01*
X241160586Y-147936928D01*
X241283072Y-148059414D01*
X241423212Y-148161232D01*
X241577555Y-148239873D01*
X241742299Y-148293402D01*
X241913389Y-148320500D01*
X242599903Y-148320500D01*
X242666942Y-148340185D01*
X242687584Y-148356819D01*
X242778584Y-148447819D01*
X242812069Y-148509142D01*
X242807085Y-148578834D01*
X242765213Y-148634767D01*
X242699749Y-148659184D01*
X242690903Y-148659500D01*
X241913389Y-148659500D01*
X241873728Y-148665781D01*
X241742302Y-148686597D01*
X241577552Y-148740128D01*
X241423211Y-148818768D01*
X241343256Y-148876859D01*
X241283072Y-148920586D01*
X241283070Y-148920588D01*
X241283069Y-148920588D01*
X241160588Y-149043069D01*
X241160588Y-149043070D01*
X241160586Y-149043072D01*
X241116859Y-149103256D01*
X241058768Y-149183211D01*
X240980128Y-149337552D01*
X240926597Y-149502302D01*
X240911821Y-149595597D01*
X240899500Y-149673389D01*
X240899500Y-149846611D01*
X240926598Y-150017701D01*
X240980127Y-150182445D01*
X241058768Y-150336788D01*
X241160586Y-150476928D01*
X241283072Y-150599414D01*
X241423212Y-150701232D01*
X241577555Y-150779873D01*
X241742299Y-150833402D01*
X241913389Y-150860500D01*
X242599903Y-150860500D01*
X242666942Y-150880185D01*
X242687584Y-150896819D01*
X242778584Y-150987819D01*
X242812069Y-151049142D01*
X242807085Y-151118834D01*
X242765213Y-151174767D01*
X242699749Y-151199184D01*
X242690903Y-151199500D01*
X241913389Y-151199500D01*
X241873728Y-151205781D01*
X241742302Y-151226597D01*
X241577552Y-151280128D01*
X241423211Y-151358768D01*
X241343256Y-151416859D01*
X241283072Y-151460586D01*
X241283070Y-151460588D01*
X241283069Y-151460588D01*
X241160588Y-151583069D01*
X241160588Y-151583070D01*
X241160586Y-151583072D01*
X241116859Y-151643256D01*
X241058768Y-151723211D01*
X240980128Y-151877552D01*
X240926597Y-152042302D01*
X240908358Y-152157461D01*
X240899500Y-152213389D01*
X240899500Y-152386611D01*
X240926598Y-152557701D01*
X240980127Y-152722445D01*
X241058768Y-152876788D01*
X241160586Y-153016928D01*
X241283072Y-153139414D01*
X241423212Y-153241232D01*
X241577555Y-153319873D01*
X241742299Y-153373402D01*
X241913389Y-153400500D01*
X242599903Y-153400500D01*
X242666942Y-153420185D01*
X242687584Y-153436819D01*
X242778584Y-153527819D01*
X242812069Y-153589142D01*
X242807085Y-153658834D01*
X242765213Y-153714767D01*
X242699749Y-153739184D01*
X242690903Y-153739500D01*
X241913389Y-153739500D01*
X241873728Y-153745781D01*
X241742302Y-153766597D01*
X241577552Y-153820128D01*
X241423211Y-153898768D01*
X241343256Y-153956859D01*
X241283072Y-154000586D01*
X241283070Y-154000588D01*
X241283069Y-154000588D01*
X241160588Y-154123069D01*
X241160588Y-154123070D01*
X241160586Y-154123072D01*
X241116859Y-154183256D01*
X241058768Y-154263211D01*
X240980128Y-154417552D01*
X240926597Y-154582302D01*
X240899500Y-154753389D01*
X240899500Y-154926611D01*
X240926598Y-155097701D01*
X240980127Y-155262445D01*
X241058768Y-155416788D01*
X241160586Y-155556928D01*
X241283072Y-155679414D01*
X241423212Y-155781232D01*
X241577555Y-155859873D01*
X241742299Y-155913402D01*
X241913389Y-155940500D01*
X242539903Y-155940500D01*
X242606942Y-155960185D01*
X242627584Y-155976819D01*
X242718584Y-156067819D01*
X242752069Y-156129142D01*
X242747085Y-156198834D01*
X242705213Y-156254767D01*
X242639749Y-156279184D01*
X242630903Y-156279500D01*
X241913389Y-156279500D01*
X241873728Y-156285781D01*
X241742302Y-156306597D01*
X241577552Y-156360128D01*
X241423211Y-156438768D01*
X241343256Y-156496859D01*
X241283072Y-156540586D01*
X241283070Y-156540588D01*
X241283069Y-156540588D01*
X241160588Y-156663069D01*
X241160588Y-156663070D01*
X241160586Y-156663072D01*
X241128275Y-156707544D01*
X241058768Y-156803211D01*
X240980128Y-156957552D01*
X240926597Y-157122302D01*
X240907715Y-157241520D01*
X240899500Y-157293389D01*
X240899500Y-157466611D01*
X240926598Y-157637701D01*
X240980127Y-157802445D01*
X241058768Y-157956788D01*
X241160586Y-158096928D01*
X241283072Y-158219414D01*
X241423212Y-158321232D01*
X241577555Y-158399873D01*
X241742299Y-158453402D01*
X241913389Y-158480500D01*
X242599903Y-158480500D01*
X242666942Y-158500185D01*
X242687584Y-158516819D01*
X242778584Y-158607819D01*
X242812069Y-158669142D01*
X242807085Y-158738834D01*
X242765213Y-158794767D01*
X242699749Y-158819184D01*
X242690903Y-158819500D01*
X241913389Y-158819500D01*
X241873728Y-158825781D01*
X241742302Y-158846597D01*
X241577552Y-158900128D01*
X241423211Y-158978768D01*
X241343256Y-159036859D01*
X241283072Y-159080586D01*
X241283070Y-159080588D01*
X241283069Y-159080588D01*
X241160588Y-159203069D01*
X241160588Y-159203070D01*
X241160586Y-159203072D01*
X241160350Y-159203397D01*
X241058768Y-159343211D01*
X240980128Y-159497552D01*
X240926597Y-159662302D01*
X240899500Y-159833389D01*
X240899500Y-160006610D01*
X240914628Y-160102129D01*
X240926598Y-160177701D01*
X240980127Y-160342445D01*
X241058768Y-160496788D01*
X241160586Y-160636928D01*
X241283072Y-160759414D01*
X241423212Y-160861232D01*
X241577555Y-160939873D01*
X241742299Y-160993402D01*
X241913389Y-161020500D01*
X241913390Y-161020500D01*
X242886610Y-161020500D01*
X242886611Y-161020500D01*
X243057701Y-160993402D01*
X243222445Y-160939873D01*
X243376788Y-160861232D01*
X243427338Y-160824504D01*
X243493143Y-160801024D01*
X243561197Y-160816849D01*
X243587905Y-160837141D01*
X244418904Y-161668140D01*
X244452389Y-161729463D01*
X244447405Y-161799155D01*
X244405533Y-161855088D01*
X244340069Y-161879505D01*
X244299131Y-161875596D01*
X244239057Y-161859499D01*
X244080943Y-161859499D01*
X244073347Y-161859499D01*
X244073331Y-161859500D01*
X243787185Y-161859500D01*
X243720146Y-161839815D01*
X243686867Y-161808386D01*
X243639414Y-161743072D01*
X243516928Y-161620586D01*
X243376788Y-161518768D01*
X243222445Y-161440127D01*
X243057701Y-161386598D01*
X243057699Y-161386597D01*
X243057698Y-161386597D01*
X242926271Y-161365781D01*
X242886611Y-161359500D01*
X241913389Y-161359500D01*
X241873728Y-161365781D01*
X241742302Y-161386597D01*
X241577552Y-161440128D01*
X241423211Y-161518768D01*
X241343256Y-161576859D01*
X241283072Y-161620586D01*
X241283070Y-161620588D01*
X241283069Y-161620588D01*
X241160588Y-161743069D01*
X241160588Y-161743070D01*
X241160586Y-161743072D01*
X241138309Y-161773734D01*
X241058768Y-161883211D01*
X240980128Y-162037552D01*
X240926597Y-162202302D01*
X240905519Y-162335384D01*
X240899500Y-162373389D01*
X240899500Y-162546611D01*
X240926598Y-162717701D01*
X240980127Y-162882445D01*
X241058768Y-163036788D01*
X241160586Y-163176928D01*
X241283072Y-163299414D01*
X241423212Y-163401232D01*
X241577555Y-163479873D01*
X241742299Y-163533402D01*
X241913389Y-163560500D01*
X241913390Y-163560500D01*
X242886610Y-163560500D01*
X242886611Y-163560500D01*
X243057701Y-163533402D01*
X243222445Y-163479873D01*
X243376788Y-163401232D01*
X243516928Y-163299414D01*
X243639414Y-163176928D01*
X243686868Y-163111613D01*
X243742197Y-163068949D01*
X243787185Y-163060500D01*
X243859903Y-163060500D01*
X243926942Y-163080185D01*
X243947584Y-163096819D01*
X244363181Y-163512416D01*
X244396666Y-163573739D01*
X244399500Y-163600097D01*
X244399500Y-165750903D01*
X244379815Y-165817942D01*
X244327011Y-165863697D01*
X244257853Y-165873641D01*
X244194297Y-165844616D01*
X244187819Y-165838584D01*
X243861785Y-165512550D01*
X243828300Y-165451227D01*
X243831534Y-165386553D01*
X243873402Y-165257701D01*
X243900500Y-165086611D01*
X243900500Y-164913389D01*
X243873402Y-164742299D01*
X243819873Y-164577555D01*
X243741232Y-164423212D01*
X243639414Y-164283072D01*
X243516928Y-164160586D01*
X243376788Y-164058768D01*
X243222445Y-163980127D01*
X243057701Y-163926598D01*
X243057699Y-163926597D01*
X243057698Y-163926597D01*
X242926271Y-163905781D01*
X242886611Y-163899500D01*
X241913389Y-163899500D01*
X241873728Y-163905781D01*
X241742302Y-163926597D01*
X241577552Y-163980128D01*
X241423211Y-164058768D01*
X241343256Y-164116859D01*
X241283072Y-164160586D01*
X241283070Y-164160588D01*
X241283069Y-164160588D01*
X241160588Y-164283069D01*
X241160588Y-164283070D01*
X241160586Y-164283072D01*
X241116859Y-164343256D01*
X241058768Y-164423211D01*
X240980128Y-164577552D01*
X240926597Y-164742302D01*
X240899500Y-164913389D01*
X240899500Y-165086611D01*
X240926598Y-165257701D01*
X240980127Y-165422445D01*
X241058768Y-165576788D01*
X241160586Y-165716928D01*
X241283072Y-165839414D01*
X241423212Y-165941232D01*
X241577555Y-166019873D01*
X241742299Y-166073402D01*
X241913389Y-166100500D01*
X242699903Y-166100500D01*
X242766942Y-166120185D01*
X242787584Y-166136819D01*
X242878584Y-166227819D01*
X242912069Y-166289142D01*
X242907085Y-166358834D01*
X242865213Y-166414767D01*
X242799749Y-166439184D01*
X242790903Y-166439500D01*
X241913389Y-166439500D01*
X241873728Y-166445781D01*
X241742302Y-166466597D01*
X241577552Y-166520128D01*
X241423211Y-166598768D01*
X241343256Y-166656859D01*
X241283072Y-166700586D01*
X241283070Y-166700588D01*
X241283069Y-166700588D01*
X241160588Y-166823069D01*
X241160588Y-166823070D01*
X241160586Y-166823072D01*
X241116859Y-166883256D01*
X241058768Y-166963211D01*
X240980128Y-167117552D01*
X240926597Y-167282302D01*
X240915917Y-167349735D01*
X240899500Y-167453389D01*
X240899500Y-167626611D01*
X240904140Y-167655908D01*
X240925766Y-167792452D01*
X240926598Y-167797701D01*
X240980127Y-167962445D01*
X241058768Y-168116788D01*
X241160586Y-168256928D01*
X241283072Y-168379414D01*
X241423212Y-168481232D01*
X241577555Y-168559873D01*
X241742299Y-168613402D01*
X241913389Y-168640500D01*
X242599903Y-168640500D01*
X242666942Y-168660185D01*
X242687584Y-168676819D01*
X242775864Y-168765099D01*
X242809349Y-168826422D01*
X242804365Y-168896114D01*
X242762493Y-168952047D01*
X242697029Y-168976464D01*
X242688183Y-168976780D01*
X241909709Y-168976780D01*
X241892536Y-168979500D01*
X241738622Y-169003877D01*
X241573872Y-169057408D01*
X241419531Y-169136048D01*
X241339576Y-169194139D01*
X241279392Y-169237866D01*
X241279390Y-169237868D01*
X241279389Y-169237868D01*
X241156908Y-169360349D01*
X241156908Y-169360350D01*
X241156906Y-169360352D01*
X241154930Y-169363072D01*
X241055088Y-169500491D01*
X240976448Y-169654832D01*
X240922917Y-169819582D01*
X240895820Y-169990669D01*
X240895820Y-170163890D01*
X240916182Y-170292455D01*
X240922918Y-170334981D01*
X240946534Y-170407664D01*
X240976446Y-170499722D01*
X240976448Y-170499727D01*
X240985568Y-170517626D01*
X240998463Y-170586295D01*
X240972186Y-170651035D01*
X240962763Y-170661600D01*
X236631286Y-174993078D01*
X236519481Y-175104882D01*
X236519479Y-175104884D01*
X236503946Y-175131790D01*
X236491289Y-175153713D01*
X236440423Y-175241815D01*
X236399499Y-175394543D01*
X236399499Y-175394545D01*
X236399499Y-175525500D01*
X236379814Y-175592539D01*
X236327010Y-175638294D01*
X236275500Y-175649500D01*
X236102130Y-175649500D01*
X236102123Y-175649501D01*
X236042516Y-175655908D01*
X235907671Y-175706202D01*
X235907664Y-175706206D01*
X235792455Y-175792452D01*
X235792452Y-175792455D01*
X235706206Y-175907664D01*
X235706202Y-175907671D01*
X235655908Y-176042517D01*
X235649501Y-176102116D01*
X235649501Y-176102123D01*
X235649500Y-176102135D01*
X233350499Y-176102135D01*
X233350499Y-176102128D01*
X233344091Y-176042517D01*
X233332555Y-176011588D01*
X233293797Y-175907671D01*
X233293793Y-175907664D01*
X233207547Y-175792455D01*
X233207544Y-175792452D01*
X233092335Y-175706206D01*
X233092328Y-175706202D01*
X232957482Y-175655908D01*
X232957483Y-175655908D01*
X232897883Y-175649501D01*
X232897881Y-175649500D01*
X232897873Y-175649500D01*
X232897864Y-175649500D01*
X231102129Y-175649500D01*
X231102123Y-175649501D01*
X231042516Y-175655908D01*
X230907671Y-175706202D01*
X230907664Y-175706206D01*
X230792455Y-175792452D01*
X230792452Y-175792455D01*
X230706206Y-175907664D01*
X230706202Y-175907671D01*
X230655908Y-176042517D01*
X230649501Y-176102116D01*
X230649501Y-176102123D01*
X230649500Y-176102135D01*
X224850499Y-176102135D01*
X224850499Y-176102128D01*
X224844091Y-176042517D01*
X224832555Y-176011588D01*
X224793797Y-175907671D01*
X224793793Y-175907664D01*
X224707547Y-175792455D01*
X224707544Y-175792452D01*
X224592335Y-175706206D01*
X224592328Y-175706202D01*
X224457482Y-175655908D01*
X224457483Y-175655908D01*
X224397883Y-175649501D01*
X224397881Y-175649500D01*
X224397873Y-175649500D01*
X224397864Y-175649500D01*
X222602129Y-175649500D01*
X222602123Y-175649501D01*
X222542516Y-175655908D01*
X222407671Y-175706202D01*
X222407664Y-175706206D01*
X222292455Y-175792452D01*
X222292452Y-175792455D01*
X222206206Y-175907664D01*
X222206202Y-175907671D01*
X222155908Y-176042517D01*
X222149501Y-176102116D01*
X222149501Y-176102123D01*
X222149500Y-176102135D01*
X219850499Y-176102135D01*
X219850499Y-176102128D01*
X219844091Y-176042517D01*
X219832555Y-176011588D01*
X219793797Y-175907671D01*
X219793793Y-175907664D01*
X219707547Y-175792455D01*
X219707544Y-175792452D01*
X219592335Y-175706206D01*
X219592328Y-175706202D01*
X219457482Y-175655908D01*
X219457483Y-175655908D01*
X219397883Y-175649501D01*
X219397881Y-175649500D01*
X219397873Y-175649500D01*
X219397864Y-175649500D01*
X217602129Y-175649500D01*
X217602123Y-175649501D01*
X217542516Y-175655908D01*
X217407671Y-175706202D01*
X217407664Y-175706206D01*
X217292455Y-175792452D01*
X217292452Y-175792455D01*
X217206206Y-175907664D01*
X217206202Y-175907671D01*
X217155908Y-176042517D01*
X217149501Y-176102116D01*
X217149501Y-176102123D01*
X217149500Y-176102135D01*
X214850499Y-176102135D01*
X214850499Y-176102128D01*
X214844091Y-176042517D01*
X214832555Y-176011588D01*
X214793797Y-175907671D01*
X214793793Y-175907664D01*
X214707547Y-175792455D01*
X214707544Y-175792452D01*
X214592335Y-175706206D01*
X214592328Y-175706202D01*
X214457482Y-175655908D01*
X214457483Y-175655908D01*
X214397883Y-175649501D01*
X214397881Y-175649500D01*
X214397873Y-175649500D01*
X214397864Y-175649500D01*
X212602129Y-175649500D01*
X212602123Y-175649501D01*
X212542516Y-175655908D01*
X212407671Y-175706202D01*
X212407664Y-175706206D01*
X212292455Y-175792452D01*
X212292452Y-175792455D01*
X212206206Y-175907664D01*
X212206202Y-175907671D01*
X212155908Y-176042517D01*
X212149501Y-176102116D01*
X212149501Y-176102123D01*
X212149500Y-176102135D01*
X208850500Y-176102135D01*
X208850499Y-174602128D01*
X208844091Y-174542517D01*
X208793796Y-174407669D01*
X208793795Y-174407668D01*
X208793793Y-174407664D01*
X208707547Y-174292455D01*
X208707544Y-174292452D01*
X208592335Y-174206206D01*
X208592328Y-174206202D01*
X208457482Y-174155908D01*
X208457483Y-174155908D01*
X208397883Y-174149501D01*
X208397881Y-174149500D01*
X208397873Y-174149500D01*
X208397864Y-174149500D01*
X206602129Y-174149500D01*
X206602123Y-174149501D01*
X206542516Y-174155908D01*
X206407671Y-174206202D01*
X206407664Y-174206206D01*
X206292455Y-174292452D01*
X206292452Y-174292455D01*
X206206206Y-174407664D01*
X206206202Y-174407671D01*
X206155908Y-174542517D01*
X206149739Y-174599902D01*
X206149501Y-174602123D01*
X206149500Y-174602135D01*
X198125500Y-174602135D01*
X198125500Y-170602135D01*
X206149500Y-170602135D01*
X206149500Y-172397870D01*
X206149501Y-172397876D01*
X206155908Y-172457483D01*
X206206202Y-172592328D01*
X206206206Y-172592335D01*
X206292452Y-172707544D01*
X206292455Y-172707547D01*
X206407664Y-172793793D01*
X206407671Y-172793797D01*
X206542517Y-172844091D01*
X206542516Y-172844091D01*
X206549444Y-172844835D01*
X206602127Y-172850500D01*
X208397872Y-172850499D01*
X208457483Y-172844091D01*
X208592331Y-172793796D01*
X208707546Y-172707546D01*
X208793796Y-172592331D01*
X208815780Y-172533389D01*
X215499500Y-172533389D01*
X215499500Y-172706610D01*
X215526166Y-172874977D01*
X215526598Y-172877701D01*
X215580127Y-173042445D01*
X215658768Y-173196788D01*
X215760586Y-173336928D01*
X215883072Y-173459414D01*
X216023212Y-173561232D01*
X216177555Y-173639873D01*
X216342299Y-173693402D01*
X216513389Y-173720500D01*
X216513390Y-173720500D01*
X217486610Y-173720500D01*
X217486611Y-173720500D01*
X217657701Y-173693402D01*
X217822445Y-173639873D01*
X217976788Y-173561232D01*
X218116928Y-173459414D01*
X218239414Y-173336928D01*
X218341232Y-173196788D01*
X218419873Y-173042445D01*
X218473402Y-172877701D01*
X218500500Y-172706611D01*
X218500500Y-172533389D01*
X218473402Y-172362299D01*
X218419873Y-172197555D01*
X218341232Y-172043212D01*
X218239414Y-171903072D01*
X218116928Y-171780586D01*
X217976788Y-171678768D01*
X217917546Y-171648583D01*
X217822447Y-171600128D01*
X217822446Y-171600127D01*
X217822445Y-171600127D01*
X217657701Y-171546598D01*
X217657699Y-171546597D01*
X217657698Y-171546597D01*
X217526271Y-171525781D01*
X217486611Y-171519500D01*
X216513389Y-171519500D01*
X216473728Y-171525781D01*
X216342302Y-171546597D01*
X216177552Y-171600128D01*
X216023211Y-171678768D01*
X215943256Y-171736859D01*
X215883072Y-171780586D01*
X215883070Y-171780588D01*
X215883069Y-171780588D01*
X215760588Y-171903069D01*
X215760588Y-171903070D01*
X215760586Y-171903072D01*
X215757245Y-171907671D01*
X215658768Y-172043211D01*
X215580128Y-172197552D01*
X215526597Y-172362302D01*
X215499500Y-172533389D01*
X208815780Y-172533389D01*
X208844091Y-172457483D01*
X208850500Y-172397873D01*
X208850499Y-170602128D01*
X208844091Y-170542517D01*
X208834807Y-170517626D01*
X208793797Y-170407671D01*
X208793793Y-170407664D01*
X208707547Y-170292455D01*
X208707544Y-170292452D01*
X208592335Y-170206206D01*
X208592328Y-170206202D01*
X208457482Y-170155908D01*
X208457483Y-170155908D01*
X208397883Y-170149501D01*
X208397881Y-170149500D01*
X208397873Y-170149500D01*
X208397864Y-170149500D01*
X206602129Y-170149500D01*
X206602123Y-170149501D01*
X206542516Y-170155908D01*
X206407671Y-170206202D01*
X206407664Y-170206206D01*
X206292455Y-170292452D01*
X206292452Y-170292455D01*
X206206206Y-170407664D01*
X206206202Y-170407671D01*
X206155908Y-170542517D01*
X206151202Y-170586295D01*
X206149501Y-170602123D01*
X206149500Y-170602135D01*
X198125500Y-170602135D01*
X198125500Y-169993389D01*
X215499500Y-169993389D01*
X215499500Y-170166611D01*
X215505984Y-170207547D01*
X215526166Y-170334977D01*
X215526598Y-170337701D01*
X215580127Y-170502445D01*
X215658768Y-170656788D01*
X215760586Y-170796928D01*
X215883072Y-170919414D01*
X216023212Y-171021232D01*
X216177555Y-171099873D01*
X216342299Y-171153402D01*
X216513389Y-171180500D01*
X216513390Y-171180500D01*
X217486610Y-171180500D01*
X217486611Y-171180500D01*
X217657701Y-171153402D01*
X217822445Y-171099873D01*
X217976788Y-171021232D01*
X218116928Y-170919414D01*
X218239414Y-170796928D01*
X218341232Y-170656788D01*
X218419873Y-170502445D01*
X218473402Y-170337701D01*
X218500500Y-170166611D01*
X218500500Y-169993389D01*
X218473402Y-169822299D01*
X218419873Y-169657555D01*
X218341232Y-169503212D01*
X218239414Y-169363072D01*
X218116928Y-169240586D01*
X217976788Y-169138768D01*
X217822445Y-169060127D01*
X217657701Y-169006598D01*
X217657699Y-169006597D01*
X217657698Y-169006597D01*
X217526271Y-168985781D01*
X217486611Y-168979500D01*
X216513389Y-168979500D01*
X216473728Y-168985781D01*
X216342302Y-169006597D01*
X216177552Y-169060128D01*
X216023211Y-169138768D01*
X215943256Y-169196859D01*
X215883072Y-169240586D01*
X215883070Y-169240588D01*
X215883069Y-169240588D01*
X215760588Y-169363069D01*
X215760588Y-169363070D01*
X215760586Y-169363072D01*
X215716859Y-169423256D01*
X215658768Y-169503211D01*
X215580128Y-169657552D01*
X215526597Y-169822302D01*
X215505187Y-169957482D01*
X215499500Y-169993389D01*
X198125500Y-169993389D01*
X198125500Y-166602155D01*
X206150000Y-166602155D01*
X206150000Y-167250000D01*
X207066988Y-167250000D01*
X207034075Y-167307007D01*
X207000000Y-167434174D01*
X207000000Y-167565826D01*
X207034075Y-167692993D01*
X207066988Y-167750000D01*
X206150000Y-167750000D01*
X206150000Y-168397844D01*
X206156401Y-168457372D01*
X206156403Y-168457379D01*
X206206645Y-168592086D01*
X206206649Y-168592093D01*
X206292809Y-168707187D01*
X206292812Y-168707190D01*
X206407906Y-168793350D01*
X206407913Y-168793354D01*
X206542620Y-168843596D01*
X206542627Y-168843598D01*
X206602155Y-168849999D01*
X206602172Y-168850000D01*
X207250000Y-168850000D01*
X207250000Y-167933012D01*
X207307007Y-167965925D01*
X207434174Y-168000000D01*
X207565826Y-168000000D01*
X207692993Y-167965925D01*
X207750000Y-167933012D01*
X207750000Y-168850000D01*
X208397828Y-168850000D01*
X208397844Y-168849999D01*
X208457372Y-168843598D01*
X208457379Y-168843596D01*
X208592086Y-168793354D01*
X208592093Y-168793350D01*
X208707187Y-168707190D01*
X208707190Y-168707187D01*
X208793350Y-168592093D01*
X208793354Y-168592086D01*
X208843596Y-168457379D01*
X208843598Y-168457372D01*
X208849999Y-168397844D01*
X208850000Y-168397827D01*
X208850000Y-167750000D01*
X207933012Y-167750000D01*
X207965925Y-167692993D01*
X208000000Y-167565826D01*
X208000000Y-167453389D01*
X215499500Y-167453389D01*
X215499500Y-167626611D01*
X215504140Y-167655908D01*
X215525766Y-167792452D01*
X215526598Y-167797701D01*
X215580127Y-167962445D01*
X215658768Y-168116788D01*
X215760586Y-168256928D01*
X215883072Y-168379414D01*
X216023212Y-168481232D01*
X216177555Y-168559873D01*
X216342299Y-168613402D01*
X216513389Y-168640500D01*
X216513390Y-168640500D01*
X217486610Y-168640500D01*
X217486611Y-168640500D01*
X217657701Y-168613402D01*
X217822445Y-168559873D01*
X217976788Y-168481232D01*
X218116928Y-168379414D01*
X218239414Y-168256928D01*
X218341232Y-168116788D01*
X218419873Y-167962445D01*
X218473402Y-167797701D01*
X218500500Y-167626611D01*
X218500500Y-167453389D01*
X218473402Y-167282299D01*
X218419873Y-167117555D01*
X218341232Y-166963212D01*
X218239414Y-166823072D01*
X218116928Y-166700586D01*
X217976788Y-166598768D01*
X217822445Y-166520127D01*
X217657701Y-166466598D01*
X217657699Y-166466597D01*
X217657698Y-166466597D01*
X217526271Y-166445781D01*
X217486611Y-166439500D01*
X216513389Y-166439500D01*
X216473728Y-166445781D01*
X216342302Y-166466597D01*
X216177552Y-166520128D01*
X216023211Y-166598768D01*
X215943256Y-166656859D01*
X215883072Y-166700586D01*
X215883070Y-166700588D01*
X215883069Y-166700588D01*
X215760588Y-166823069D01*
X215760588Y-166823070D01*
X215760586Y-166823072D01*
X215716859Y-166883256D01*
X215658768Y-166963211D01*
X215580128Y-167117552D01*
X215526597Y-167282302D01*
X215515917Y-167349735D01*
X215499500Y-167453389D01*
X208000000Y-167453389D01*
X208000000Y-167434174D01*
X207965925Y-167307007D01*
X207933012Y-167250000D01*
X208850000Y-167250000D01*
X208850000Y-166602172D01*
X208849999Y-166602155D01*
X208843598Y-166542627D01*
X208843596Y-166542620D01*
X208793354Y-166407913D01*
X208793350Y-166407906D01*
X208707190Y-166292812D01*
X208707187Y-166292809D01*
X208592093Y-166206649D01*
X208592086Y-166206645D01*
X208457379Y-166156403D01*
X208457372Y-166156401D01*
X208397844Y-166150000D01*
X207750000Y-166150000D01*
X207750000Y-167066988D01*
X207692993Y-167034075D01*
X207565826Y-167000000D01*
X207434174Y-167000000D01*
X207307007Y-167034075D01*
X207250000Y-167066988D01*
X207250000Y-166150000D01*
X206602155Y-166150000D01*
X206542627Y-166156401D01*
X206542620Y-166156403D01*
X206407913Y-166206645D01*
X206407906Y-166206649D01*
X206292812Y-166292809D01*
X206292809Y-166292812D01*
X206206649Y-166407906D01*
X206206645Y-166407913D01*
X206156403Y-166542620D01*
X206156401Y-166542627D01*
X206150000Y-166602155D01*
X198125500Y-166602155D01*
X198125500Y-164913389D01*
X215499500Y-164913389D01*
X215499500Y-165086611D01*
X215526598Y-165257701D01*
X215580127Y-165422445D01*
X215658768Y-165576788D01*
X215760586Y-165716928D01*
X215883072Y-165839414D01*
X216023212Y-165941232D01*
X216177555Y-166019873D01*
X216342299Y-166073402D01*
X216513389Y-166100500D01*
X216513390Y-166100500D01*
X217486610Y-166100500D01*
X217486611Y-166100500D01*
X217657701Y-166073402D01*
X217822445Y-166019873D01*
X217976788Y-165941232D01*
X218116928Y-165839414D01*
X218239414Y-165716928D01*
X218341232Y-165576788D01*
X218419873Y-165422445D01*
X218473402Y-165257701D01*
X218500500Y-165086611D01*
X218500500Y-164913389D01*
X218473402Y-164742299D01*
X218419873Y-164577555D01*
X218341232Y-164423212D01*
X218239414Y-164283072D01*
X218116928Y-164160586D01*
X217976788Y-164058768D01*
X217822445Y-163980127D01*
X217657701Y-163926598D01*
X217657699Y-163926597D01*
X217657698Y-163926597D01*
X217526271Y-163905781D01*
X217486611Y-163899500D01*
X216513389Y-163899500D01*
X216473728Y-163905781D01*
X216342302Y-163926597D01*
X216177552Y-163980128D01*
X216023211Y-164058768D01*
X215943256Y-164116859D01*
X215883072Y-164160586D01*
X215883070Y-164160588D01*
X215883069Y-164160588D01*
X215760588Y-164283069D01*
X215760588Y-164283070D01*
X215760586Y-164283072D01*
X215716859Y-164343256D01*
X215658768Y-164423211D01*
X215580128Y-164577552D01*
X215526597Y-164742302D01*
X215499500Y-164913389D01*
X198125500Y-164913389D01*
X198125500Y-162602135D01*
X206149500Y-162602135D01*
X206149500Y-164397870D01*
X206149501Y-164397876D01*
X206155908Y-164457483D01*
X206206202Y-164592328D01*
X206206206Y-164592335D01*
X206292452Y-164707544D01*
X206292455Y-164707547D01*
X206407664Y-164793793D01*
X206407671Y-164793797D01*
X206542517Y-164844091D01*
X206542516Y-164844091D01*
X206549444Y-164844835D01*
X206602127Y-164850500D01*
X208397872Y-164850499D01*
X208457483Y-164844091D01*
X208592331Y-164793796D01*
X208707546Y-164707546D01*
X208793796Y-164592331D01*
X208844091Y-164457483D01*
X208850500Y-164397873D01*
X208850499Y-162602128D01*
X208844091Y-162542517D01*
X208802559Y-162431165D01*
X208793797Y-162407671D01*
X208793793Y-162407664D01*
X208768135Y-162373389D01*
X215499500Y-162373389D01*
X215499500Y-162546611D01*
X215526598Y-162717701D01*
X215580127Y-162882445D01*
X215658768Y-163036788D01*
X215760586Y-163176928D01*
X215883072Y-163299414D01*
X216023212Y-163401232D01*
X216177555Y-163479873D01*
X216342299Y-163533402D01*
X216513389Y-163560500D01*
X216513390Y-163560500D01*
X217486610Y-163560500D01*
X217486611Y-163560500D01*
X217657701Y-163533402D01*
X217822445Y-163479873D01*
X217976788Y-163401232D01*
X218116928Y-163299414D01*
X218239414Y-163176928D01*
X218286868Y-163111613D01*
X218342197Y-163068949D01*
X218387185Y-163060500D01*
X224553331Y-163060500D01*
X224553347Y-163060501D01*
X224710848Y-163060501D01*
X224776820Y-163079507D01*
X224850478Y-163125789D01*
X224850481Y-163125790D01*
X225020737Y-163185366D01*
X225020743Y-163185367D01*
X225020745Y-163185368D01*
X225020746Y-163185368D01*
X225020750Y-163185369D01*
X225199996Y-163205565D01*
X225200000Y-163205565D01*
X225200004Y-163205565D01*
X225379249Y-163185369D01*
X225379252Y-163185368D01*
X225379255Y-163185368D01*
X225549522Y-163125789D01*
X225702262Y-163029816D01*
X225829816Y-162902262D01*
X225925789Y-162749522D01*
X225985368Y-162579255D01*
X225987292Y-162562180D01*
X226005565Y-162400003D01*
X226005565Y-162399996D01*
X225985369Y-162220750D01*
X225985368Y-162220745D01*
X225980279Y-162206202D01*
X225925789Y-162050478D01*
X225829816Y-161897738D01*
X225702262Y-161770184D01*
X225659114Y-161743072D01*
X225549523Y-161674211D01*
X225379254Y-161614631D01*
X225379249Y-161614630D01*
X225200004Y-161594435D01*
X225199996Y-161594435D01*
X225020750Y-161614630D01*
X225020745Y-161614631D01*
X224850476Y-161674211D01*
X224697737Y-161770184D01*
X224694903Y-161772445D01*
X224692724Y-161773334D01*
X224691842Y-161773889D01*
X224691744Y-161773734D01*
X224630216Y-161798854D01*
X224623072Y-161799218D01*
X224620945Y-161799498D01*
X224470484Y-161839815D01*
X224468215Y-161840423D01*
X224463946Y-161842887D01*
X224401948Y-161859500D01*
X218387185Y-161859500D01*
X218320146Y-161839815D01*
X218286867Y-161808386D01*
X218239414Y-161743072D01*
X218116928Y-161620586D01*
X217976788Y-161518768D01*
X217822445Y-161440127D01*
X217657701Y-161386598D01*
X217657699Y-161386597D01*
X217657698Y-161386597D01*
X217526271Y-161365781D01*
X217486611Y-161359500D01*
X216513389Y-161359500D01*
X216473728Y-161365781D01*
X216342302Y-161386597D01*
X216177552Y-161440128D01*
X216023211Y-161518768D01*
X215943256Y-161576859D01*
X215883072Y-161620586D01*
X215883070Y-161620588D01*
X215883069Y-161620588D01*
X215760588Y-161743069D01*
X215760588Y-161743070D01*
X215760586Y-161743072D01*
X215738309Y-161773734D01*
X215658768Y-161883211D01*
X215580128Y-162037552D01*
X215526597Y-162202302D01*
X215505519Y-162335384D01*
X215499500Y-162373389D01*
X208768135Y-162373389D01*
X208707547Y-162292455D01*
X208707544Y-162292452D01*
X208592335Y-162206206D01*
X208592328Y-162206202D01*
X208457482Y-162155908D01*
X208457483Y-162155908D01*
X208397883Y-162149501D01*
X208397881Y-162149500D01*
X208397873Y-162149500D01*
X208397864Y-162149500D01*
X206602129Y-162149500D01*
X206602123Y-162149501D01*
X206542516Y-162155908D01*
X206407671Y-162206202D01*
X206407664Y-162206206D01*
X206292455Y-162292452D01*
X206292452Y-162292455D01*
X206206206Y-162407664D01*
X206206202Y-162407671D01*
X206155908Y-162542517D01*
X206151959Y-162579254D01*
X206149501Y-162602123D01*
X206149500Y-162602135D01*
X198125500Y-162602135D01*
X198125500Y-150602135D01*
X206149500Y-150602135D01*
X206149500Y-152397870D01*
X206149501Y-152397876D01*
X206155908Y-152457483D01*
X206206202Y-152592328D01*
X206206206Y-152592335D01*
X206292452Y-152707544D01*
X206292455Y-152707547D01*
X206407664Y-152793793D01*
X206407671Y-152793797D01*
X206542517Y-152844091D01*
X206542516Y-152844091D01*
X206549444Y-152844835D01*
X206602127Y-152850500D01*
X208397872Y-152850499D01*
X208457483Y-152844091D01*
X208592331Y-152793796D01*
X208707546Y-152707546D01*
X208793796Y-152592331D01*
X208844091Y-152457483D01*
X208850500Y-152397873D01*
X208850500Y-152224500D01*
X208870185Y-152157461D01*
X208922989Y-152111706D01*
X208974500Y-152100500D01*
X215173331Y-152100500D01*
X215173347Y-152100501D01*
X215180943Y-152100501D01*
X215339054Y-152100501D01*
X215339057Y-152100501D01*
X215343400Y-152099337D01*
X215413247Y-152100994D01*
X215471113Y-152140152D01*
X215498622Y-152204378D01*
X215499500Y-152219109D01*
X215499500Y-152386611D01*
X215526598Y-152557701D01*
X215575285Y-152707544D01*
X215580126Y-152722442D01*
X215580128Y-152722447D01*
X215589248Y-152740346D01*
X215602143Y-152809015D01*
X215575866Y-152873755D01*
X215566443Y-152884320D01*
X213587584Y-154863181D01*
X213526261Y-154896666D01*
X213499903Y-154899500D01*
X208974499Y-154899500D01*
X208907460Y-154879815D01*
X208861705Y-154827011D01*
X208850499Y-154775500D01*
X208850499Y-154602129D01*
X208850498Y-154602123D01*
X208850497Y-154602116D01*
X208844091Y-154542517D01*
X208793796Y-154407669D01*
X208793795Y-154407668D01*
X208793793Y-154407664D01*
X208707547Y-154292455D01*
X208707544Y-154292452D01*
X208592335Y-154206206D01*
X208592328Y-154206202D01*
X208457482Y-154155908D01*
X208457483Y-154155908D01*
X208397883Y-154149501D01*
X208397881Y-154149500D01*
X208397873Y-154149500D01*
X208397864Y-154149500D01*
X206602129Y-154149500D01*
X206602123Y-154149501D01*
X206542516Y-154155908D01*
X206407671Y-154206202D01*
X206407664Y-154206206D01*
X206292455Y-154292452D01*
X206292452Y-154292455D01*
X206206206Y-154407664D01*
X206206202Y-154407671D01*
X206155908Y-154542517D01*
X206151631Y-154582302D01*
X206149501Y-154602123D01*
X206149500Y-154602135D01*
X206149500Y-156397870D01*
X206149501Y-156397876D01*
X206155908Y-156457483D01*
X206206202Y-156592328D01*
X206206206Y-156592335D01*
X206292452Y-156707544D01*
X206292455Y-156707547D01*
X206407664Y-156793793D01*
X206407671Y-156793797D01*
X206542517Y-156844091D01*
X206542516Y-156844091D01*
X206549444Y-156844835D01*
X206602127Y-156850500D01*
X208397872Y-156850499D01*
X208457483Y-156844091D01*
X208592331Y-156793796D01*
X208707546Y-156707546D01*
X208793796Y-156592331D01*
X208844091Y-156457483D01*
X208850500Y-156397873D01*
X208850500Y-156224500D01*
X208870185Y-156157461D01*
X208922989Y-156111706D01*
X208974500Y-156100500D01*
X213713331Y-156100500D01*
X213713347Y-156100501D01*
X213720943Y-156100501D01*
X213879054Y-156100501D01*
X213879057Y-156100501D01*
X214031785Y-156059577D01*
X214081904Y-156030639D01*
X214168716Y-155980520D01*
X214280520Y-155868716D01*
X214280520Y-155868714D01*
X214290728Y-155858507D01*
X214290730Y-155858504D01*
X215289561Y-154859672D01*
X215350882Y-154826189D01*
X215420574Y-154831173D01*
X215476507Y-154873045D01*
X215499713Y-154927957D01*
X215526597Y-155097697D01*
X215580126Y-155262442D01*
X215580128Y-155262447D01*
X215589248Y-155280346D01*
X215602143Y-155349015D01*
X215575866Y-155413755D01*
X215566443Y-155424320D01*
X212127584Y-158863181D01*
X212066261Y-158896666D01*
X212039903Y-158899500D01*
X208974499Y-158899500D01*
X208907460Y-158879815D01*
X208861705Y-158827011D01*
X208850499Y-158775500D01*
X208850499Y-158602129D01*
X208850498Y-158602123D01*
X208850497Y-158602116D01*
X208844091Y-158542517D01*
X208834506Y-158516819D01*
X208793797Y-158407671D01*
X208793793Y-158407664D01*
X208707547Y-158292455D01*
X208707544Y-158292452D01*
X208592335Y-158206206D01*
X208592328Y-158206202D01*
X208457482Y-158155908D01*
X208457483Y-158155908D01*
X208397883Y-158149501D01*
X208397881Y-158149500D01*
X208397873Y-158149500D01*
X208397864Y-158149500D01*
X206602129Y-158149500D01*
X206602123Y-158149501D01*
X206542516Y-158155908D01*
X206407671Y-158206202D01*
X206407664Y-158206206D01*
X206292455Y-158292452D01*
X206292452Y-158292455D01*
X206206206Y-158407664D01*
X206206202Y-158407671D01*
X206155908Y-158542517D01*
X206149501Y-158602116D01*
X206149501Y-158602123D01*
X206149500Y-158602135D01*
X206149500Y-160397870D01*
X206149501Y-160397876D01*
X206155908Y-160457483D01*
X206206202Y-160592328D01*
X206206206Y-160592335D01*
X206292452Y-160707544D01*
X206292455Y-160707547D01*
X206407664Y-160793793D01*
X206407671Y-160793797D01*
X206542517Y-160844091D01*
X206542516Y-160844091D01*
X206549444Y-160844835D01*
X206602127Y-160850500D01*
X208397872Y-160850499D01*
X208457483Y-160844091D01*
X208592331Y-160793796D01*
X208707546Y-160707546D01*
X208793796Y-160592331D01*
X208844091Y-160457483D01*
X208850500Y-160397873D01*
X208850500Y-160224500D01*
X208870185Y-160157461D01*
X208922989Y-160111706D01*
X208974500Y-160100500D01*
X212253331Y-160100500D01*
X212253347Y-160100501D01*
X212260943Y-160100501D01*
X212419054Y-160100501D01*
X212419057Y-160100501D01*
X212571785Y-160059577D01*
X212621904Y-160030639D01*
X212708716Y-159980520D01*
X212820520Y-159868716D01*
X212820520Y-159868714D01*
X212830728Y-159858507D01*
X212830730Y-159858504D01*
X213019235Y-159669999D01*
X215525884Y-159669999D01*
X215525885Y-159670000D01*
X216684314Y-159670000D01*
X216679920Y-159674394D01*
X216627259Y-159765606D01*
X216600000Y-159867339D01*
X216600000Y-159972661D01*
X216627259Y-160074394D01*
X216679920Y-160165606D01*
X216684314Y-160170000D01*
X215525885Y-160170000D01*
X215527085Y-160177584D01*
X215580591Y-160342255D01*
X215659195Y-160496524D01*
X215760967Y-160636602D01*
X215883397Y-160759032D01*
X216023475Y-160860804D01*
X216177742Y-160939408D01*
X216342415Y-160992914D01*
X216513429Y-161020000D01*
X216750000Y-161020000D01*
X216750000Y-160235686D01*
X216754394Y-160240080D01*
X216845606Y-160292741D01*
X216947339Y-160320000D01*
X217052661Y-160320000D01*
X217154394Y-160292741D01*
X217245606Y-160240080D01*
X217250000Y-160235686D01*
X217250000Y-161020000D01*
X217486571Y-161020000D01*
X217657584Y-160992914D01*
X217822257Y-160939408D01*
X217976524Y-160860804D01*
X218116602Y-160759032D01*
X218239032Y-160636602D01*
X218340804Y-160496524D01*
X218419408Y-160342255D01*
X218472914Y-160177584D01*
X218474115Y-160170000D01*
X217315686Y-160170000D01*
X217320080Y-160165606D01*
X217372741Y-160074394D01*
X217400000Y-159972661D01*
X217400000Y-159867339D01*
X217372741Y-159765606D01*
X217320080Y-159674394D01*
X217315686Y-159670000D01*
X218474115Y-159670000D01*
X218474115Y-159669999D01*
X218472914Y-159662415D01*
X218419408Y-159497744D01*
X218340804Y-159343475D01*
X218239032Y-159203397D01*
X218116602Y-159080967D01*
X217976524Y-158979195D01*
X217822257Y-158900591D01*
X217657584Y-158847085D01*
X217486571Y-158820000D01*
X217250000Y-158820000D01*
X217250000Y-159604314D01*
X217245606Y-159599920D01*
X217154394Y-159547259D01*
X217052661Y-159520000D01*
X216947339Y-159520000D01*
X216845606Y-159547259D01*
X216754394Y-159599920D01*
X216750000Y-159604314D01*
X216750000Y-158820000D01*
X216513429Y-158820000D01*
X216342415Y-158847085D01*
X216177742Y-158900591D01*
X216023475Y-158979195D01*
X215883397Y-159080967D01*
X215760967Y-159203397D01*
X215659195Y-159343475D01*
X215580591Y-159497744D01*
X215527085Y-159662415D01*
X215525884Y-159669999D01*
X213019235Y-159669999D01*
X215289561Y-157399672D01*
X215350882Y-157366189D01*
X215420574Y-157371173D01*
X215476507Y-157413045D01*
X215499713Y-157467957D01*
X215514223Y-157559573D01*
X215526598Y-157637701D01*
X215580127Y-157802445D01*
X215658768Y-157956788D01*
X215760586Y-158096928D01*
X215883072Y-158219414D01*
X216023212Y-158321232D01*
X216177555Y-158399873D01*
X216342299Y-158453402D01*
X216513389Y-158480500D01*
X216513390Y-158480500D01*
X217486610Y-158480500D01*
X217486611Y-158480500D01*
X217657701Y-158453402D01*
X217822445Y-158399873D01*
X217976788Y-158321232D01*
X218116928Y-158219414D01*
X218239414Y-158096928D01*
X218341232Y-157956788D01*
X218419873Y-157802445D01*
X218473402Y-157637701D01*
X218500500Y-157466611D01*
X218500500Y-157293389D01*
X218473402Y-157122299D01*
X218419873Y-156957555D01*
X218341232Y-156803212D01*
X218239414Y-156663072D01*
X218116928Y-156540586D01*
X217976788Y-156438768D01*
X217822445Y-156360127D01*
X217657701Y-156306598D01*
X217657699Y-156306597D01*
X217657698Y-156306597D01*
X217526271Y-156285781D01*
X217486611Y-156279500D01*
X216709097Y-156279500D01*
X216642058Y-156259815D01*
X216596303Y-156207011D01*
X216586359Y-156137853D01*
X216615384Y-156074297D01*
X216621416Y-156067819D01*
X216712416Y-155976819D01*
X216773739Y-155943334D01*
X216800097Y-155940500D01*
X217486610Y-155940500D01*
X217486611Y-155940500D01*
X217657701Y-155913402D01*
X217822445Y-155859873D01*
X217976788Y-155781232D01*
X218116928Y-155679414D01*
X218239414Y-155556928D01*
X218341232Y-155416788D01*
X218419873Y-155262445D01*
X218473402Y-155097701D01*
X218500500Y-154926611D01*
X218500500Y-154753389D01*
X218473402Y-154582299D01*
X218419873Y-154417555D01*
X218341232Y-154263212D01*
X218239414Y-154123072D01*
X218116928Y-154000586D01*
X217976788Y-153898768D01*
X217822445Y-153820127D01*
X217657701Y-153766598D01*
X217657699Y-153766597D01*
X217657698Y-153766597D01*
X217526271Y-153745781D01*
X217486611Y-153739500D01*
X216709097Y-153739500D01*
X216642058Y-153719815D01*
X216596303Y-153667011D01*
X216586359Y-153597853D01*
X216615384Y-153534297D01*
X216621416Y-153527819D01*
X216712416Y-153436819D01*
X216773739Y-153403334D01*
X216800097Y-153400500D01*
X217486610Y-153400500D01*
X217486611Y-153400500D01*
X217657701Y-153373402D01*
X217822445Y-153319873D01*
X217976788Y-153241232D01*
X218116928Y-153139414D01*
X218239414Y-153016928D01*
X218341232Y-152876788D01*
X218419873Y-152722445D01*
X218473402Y-152557701D01*
X218500500Y-152386611D01*
X218500500Y-152213389D01*
X218473402Y-152042299D01*
X218419873Y-151877555D01*
X218341232Y-151723212D01*
X218239414Y-151583072D01*
X218116928Y-151460586D01*
X217976788Y-151358768D01*
X217822445Y-151280127D01*
X217657701Y-151226598D01*
X217657699Y-151226597D01*
X217657698Y-151226597D01*
X217526271Y-151205781D01*
X217486611Y-151199500D01*
X216709097Y-151199500D01*
X216642058Y-151179815D01*
X216596303Y-151127011D01*
X216586359Y-151057853D01*
X216615384Y-150994297D01*
X216621398Y-150987836D01*
X216712418Y-150896817D01*
X216773741Y-150863334D01*
X216800098Y-150860500D01*
X217486610Y-150860500D01*
X217486611Y-150860500D01*
X217657701Y-150833402D01*
X217822445Y-150779873D01*
X217976788Y-150701232D01*
X218116928Y-150599414D01*
X218239414Y-150476928D01*
X218341232Y-150336788D01*
X218419873Y-150182445D01*
X218473402Y-150017701D01*
X218500500Y-149846611D01*
X218500500Y-149673389D01*
X218473402Y-149502299D01*
X218419873Y-149337555D01*
X218341232Y-149183212D01*
X218239414Y-149043072D01*
X218116928Y-148920586D01*
X217976788Y-148818768D01*
X217822445Y-148740127D01*
X217657701Y-148686598D01*
X217657699Y-148686597D01*
X217657698Y-148686597D01*
X217526271Y-148665781D01*
X217486611Y-148659500D01*
X216513389Y-148659500D01*
X216473728Y-148665781D01*
X216342302Y-148686597D01*
X216177552Y-148740128D01*
X216023211Y-148818768D01*
X215943256Y-148876859D01*
X215883072Y-148920586D01*
X215883070Y-148920588D01*
X215883069Y-148920588D01*
X215760588Y-149043069D01*
X215760588Y-149043070D01*
X215760586Y-149043072D01*
X215716859Y-149103256D01*
X215658768Y-149183211D01*
X215580128Y-149337552D01*
X215526597Y-149502302D01*
X215499500Y-149673389D01*
X215499500Y-149846610D01*
X215526597Y-150017697D01*
X215580126Y-150182442D01*
X215580132Y-150182457D01*
X215589246Y-150200343D01*
X215602143Y-150269012D01*
X215575867Y-150333752D01*
X215566443Y-150344319D01*
X215047584Y-150863181D01*
X214986261Y-150896666D01*
X214959903Y-150899500D01*
X208974499Y-150899500D01*
X208907460Y-150879815D01*
X208861705Y-150827011D01*
X208850499Y-150775500D01*
X208850499Y-150602129D01*
X208850498Y-150602123D01*
X208850497Y-150602116D01*
X208844091Y-150542517D01*
X208819628Y-150476929D01*
X208793797Y-150407671D01*
X208793793Y-150407664D01*
X208707547Y-150292455D01*
X208707544Y-150292452D01*
X208592335Y-150206206D01*
X208592328Y-150206202D01*
X208457482Y-150155908D01*
X208457483Y-150155908D01*
X208397883Y-150149501D01*
X208397881Y-150149500D01*
X208397873Y-150149500D01*
X208397864Y-150149500D01*
X206602129Y-150149500D01*
X206602123Y-150149501D01*
X206542516Y-150155908D01*
X206407671Y-150206202D01*
X206407664Y-150206206D01*
X206292455Y-150292452D01*
X206292452Y-150292455D01*
X206206206Y-150407664D01*
X206206202Y-150407671D01*
X206155908Y-150542517D01*
X206149501Y-150602116D01*
X206149501Y-150602123D01*
X206149500Y-150602135D01*
X198125500Y-150602135D01*
X198125500Y-146602135D01*
X206149500Y-146602135D01*
X206149500Y-148397870D01*
X206149501Y-148397876D01*
X206155908Y-148457483D01*
X206206202Y-148592328D01*
X206206206Y-148592335D01*
X206292452Y-148707544D01*
X206292455Y-148707547D01*
X206407664Y-148793793D01*
X206407671Y-148793797D01*
X206542517Y-148844091D01*
X206542516Y-148844091D01*
X206549444Y-148844835D01*
X206602127Y-148850500D01*
X208397872Y-148850499D01*
X208457483Y-148844091D01*
X208592331Y-148793796D01*
X208707546Y-148707546D01*
X208793796Y-148592331D01*
X208844091Y-148457483D01*
X208850500Y-148397873D01*
X208850500Y-147944500D01*
X208870185Y-147877461D01*
X208922989Y-147831706D01*
X208974500Y-147820500D01*
X215612815Y-147820500D01*
X215679854Y-147840185D01*
X215713131Y-147871612D01*
X215760586Y-147936928D01*
X215883072Y-148059414D01*
X216023212Y-148161232D01*
X216177555Y-148239873D01*
X216342299Y-148293402D01*
X216513389Y-148320500D01*
X216513390Y-148320500D01*
X217486610Y-148320500D01*
X217486611Y-148320500D01*
X217657701Y-148293402D01*
X217822445Y-148239873D01*
X217976788Y-148161232D01*
X218116928Y-148059414D01*
X218239414Y-147936928D01*
X218341232Y-147796788D01*
X218419873Y-147642445D01*
X218473402Y-147477701D01*
X218500500Y-147306611D01*
X218500500Y-147133389D01*
X218473402Y-146962299D01*
X218419873Y-146797555D01*
X218341232Y-146643212D01*
X218239414Y-146503072D01*
X218116928Y-146380586D01*
X217976788Y-146278768D01*
X217822445Y-146200127D01*
X217657701Y-146146598D01*
X217657699Y-146146597D01*
X217657698Y-146146597D01*
X217526271Y-146125781D01*
X217486611Y-146119500D01*
X216513389Y-146119500D01*
X216473728Y-146125781D01*
X216342302Y-146146597D01*
X216177552Y-146200128D01*
X216023211Y-146278768D01*
X216002526Y-146293797D01*
X215883072Y-146380586D01*
X215883070Y-146380588D01*
X215883069Y-146380588D01*
X215760588Y-146503069D01*
X215760588Y-146503070D01*
X215760586Y-146503072D01*
X215713133Y-146568386D01*
X215657803Y-146611051D01*
X215612815Y-146619500D01*
X208958899Y-146619500D01*
X208891860Y-146599815D01*
X208846105Y-146547011D01*
X208842717Y-146538833D01*
X208793797Y-146407671D01*
X208793793Y-146407664D01*
X208707547Y-146292455D01*
X208707544Y-146292452D01*
X208592335Y-146206206D01*
X208592328Y-146206202D01*
X208457482Y-146155908D01*
X208457483Y-146155908D01*
X208397883Y-146149501D01*
X208397881Y-146149500D01*
X208397873Y-146149500D01*
X208397864Y-146149500D01*
X206602129Y-146149500D01*
X206602123Y-146149501D01*
X206542516Y-146155908D01*
X206407671Y-146206202D01*
X206407664Y-146206206D01*
X206292455Y-146292452D01*
X206292452Y-146292455D01*
X206206206Y-146407664D01*
X206206202Y-146407671D01*
X206155908Y-146542517D01*
X206149501Y-146602116D01*
X206149500Y-146602135D01*
X198125500Y-146602135D01*
X198125500Y-130602135D01*
X206149500Y-130602135D01*
X206149500Y-132397870D01*
X206149501Y-132397876D01*
X206155908Y-132457483D01*
X206206202Y-132592328D01*
X206206206Y-132592335D01*
X206292452Y-132707544D01*
X206292455Y-132707547D01*
X206407664Y-132793793D01*
X206407671Y-132793797D01*
X206542517Y-132844091D01*
X206542516Y-132844091D01*
X206549444Y-132844835D01*
X206602127Y-132850500D01*
X208397872Y-132850499D01*
X208457483Y-132844091D01*
X208592331Y-132793796D01*
X208707546Y-132707546D01*
X208793796Y-132592331D01*
X208844091Y-132457483D01*
X208850500Y-132397873D01*
X208850500Y-132224500D01*
X208870185Y-132157461D01*
X208922989Y-132111706D01*
X208974500Y-132100500D01*
X211499903Y-132100500D01*
X211566942Y-132120185D01*
X211587584Y-132136819D01*
X215699691Y-136248926D01*
X215733176Y-136310249D01*
X215728192Y-136379941D01*
X215712328Y-136409492D01*
X215658770Y-136483208D01*
X215580128Y-136637552D01*
X215526597Y-136802302D01*
X215499500Y-136973389D01*
X215499500Y-137146611D01*
X215499882Y-137151462D01*
X215497945Y-137151614D01*
X215490012Y-137212759D01*
X215444989Y-137266188D01*
X215378226Y-137286794D01*
X215373189Y-137286499D01*
X215366057Y-137286499D01*
X215207943Y-137286499D01*
X215200347Y-137286499D01*
X215200331Y-137286500D01*
X210187098Y-137286500D01*
X210120059Y-137266815D01*
X210099417Y-137250181D01*
X208886818Y-136037582D01*
X208853333Y-135976259D01*
X208850499Y-135949901D01*
X208850499Y-134602129D01*
X208850498Y-134602123D01*
X208850497Y-134602116D01*
X208844091Y-134542517D01*
X208793796Y-134407669D01*
X208793795Y-134407668D01*
X208793793Y-134407664D01*
X208707547Y-134292455D01*
X208707544Y-134292452D01*
X208592335Y-134206206D01*
X208592328Y-134206202D01*
X208457482Y-134155908D01*
X208457483Y-134155908D01*
X208397883Y-134149501D01*
X208397881Y-134149500D01*
X208397873Y-134149500D01*
X208397864Y-134149500D01*
X206602129Y-134149500D01*
X206602123Y-134149501D01*
X206542516Y-134155908D01*
X206407671Y-134206202D01*
X206407664Y-134206206D01*
X206292455Y-134292452D01*
X206292452Y-134292455D01*
X206206206Y-134407664D01*
X206206202Y-134407671D01*
X206155908Y-134542517D01*
X206149501Y-134602116D01*
X206149501Y-134602123D01*
X206149500Y-134602135D01*
X206149500Y-136397870D01*
X206149501Y-136397876D01*
X206155908Y-136457483D01*
X206206202Y-136592328D01*
X206206206Y-136592335D01*
X206292452Y-136707544D01*
X206292455Y-136707547D01*
X206407664Y-136793793D01*
X206407671Y-136793797D01*
X206542517Y-136844091D01*
X206542516Y-136844091D01*
X206549444Y-136844835D01*
X206602127Y-136850500D01*
X207949901Y-136850499D01*
X208016940Y-136870184D01*
X208037582Y-136886818D01*
X209518284Y-138367520D01*
X209518286Y-138367521D01*
X209518290Y-138367524D01*
X209587828Y-138407671D01*
X209655216Y-138446577D01*
X209807943Y-138487501D01*
X209807945Y-138487501D01*
X209973654Y-138487501D01*
X209973670Y-138487500D01*
X214986903Y-138487500D01*
X215053942Y-138507185D01*
X215074584Y-138523819D01*
X215566443Y-139015678D01*
X215599928Y-139077001D01*
X215594944Y-139146693D01*
X215589250Y-139159648D01*
X215580125Y-139177557D01*
X215526597Y-139342301D01*
X215526597Y-139342302D01*
X215499713Y-139512041D01*
X215469784Y-139575176D01*
X215410472Y-139612107D01*
X215340610Y-139611109D01*
X215289559Y-139580324D01*
X214847590Y-139138355D01*
X214847588Y-139138352D01*
X214728717Y-139019481D01*
X214728716Y-139019480D01*
X214641904Y-138969360D01*
X214641904Y-138969359D01*
X214641900Y-138969358D01*
X214591785Y-138940423D01*
X214439057Y-138899499D01*
X214280943Y-138899499D01*
X214273347Y-138899499D01*
X214273331Y-138899500D01*
X208974499Y-138899500D01*
X208907460Y-138879815D01*
X208861705Y-138827011D01*
X208850499Y-138775500D01*
X208850499Y-138602129D01*
X208850498Y-138602123D01*
X208850497Y-138602116D01*
X208844091Y-138542517D01*
X208838153Y-138526597D01*
X208793797Y-138407671D01*
X208793793Y-138407664D01*
X208707547Y-138292455D01*
X208707544Y-138292452D01*
X208592335Y-138206206D01*
X208592328Y-138206202D01*
X208457482Y-138155908D01*
X208457483Y-138155908D01*
X208397883Y-138149501D01*
X208397881Y-138149500D01*
X208397873Y-138149500D01*
X208397864Y-138149500D01*
X206602129Y-138149500D01*
X206602123Y-138149501D01*
X206542516Y-138155908D01*
X206407671Y-138206202D01*
X206407664Y-138206206D01*
X206292455Y-138292452D01*
X206292452Y-138292455D01*
X206206206Y-138407664D01*
X206206202Y-138407671D01*
X206155908Y-138542517D01*
X206151865Y-138580127D01*
X206149501Y-138602123D01*
X206149500Y-138602135D01*
X206149500Y-140397870D01*
X206149501Y-140397876D01*
X206155908Y-140457483D01*
X206206202Y-140592328D01*
X206206206Y-140592335D01*
X206292452Y-140707544D01*
X206292455Y-140707547D01*
X206407664Y-140793793D01*
X206407671Y-140793797D01*
X206542517Y-140844091D01*
X206542516Y-140844091D01*
X206549444Y-140844835D01*
X206602127Y-140850500D01*
X208397872Y-140850499D01*
X208457483Y-140844091D01*
X208592331Y-140793796D01*
X208707546Y-140707546D01*
X208793796Y-140592331D01*
X208844091Y-140457483D01*
X208850500Y-140397873D01*
X208850500Y-140224500D01*
X208870185Y-140157461D01*
X208922989Y-140111706D01*
X208974500Y-140100500D01*
X214059903Y-140100500D01*
X214126942Y-140120185D01*
X214147584Y-140136819D01*
X215566443Y-141555679D01*
X215599928Y-141617002D01*
X215594944Y-141686694D01*
X215589249Y-141699651D01*
X215580129Y-141717550D01*
X215580126Y-141717557D01*
X215526597Y-141882302D01*
X215499500Y-142053389D01*
X215499500Y-142226610D01*
X215509928Y-142292454D01*
X215526598Y-142397701D01*
X215580127Y-142562445D01*
X215658633Y-142716524D01*
X215660000Y-142719205D01*
X215672896Y-142787874D01*
X215646620Y-142852615D01*
X215589513Y-142892872D01*
X215549515Y-142899500D01*
X208974499Y-142899500D01*
X208907460Y-142879815D01*
X208861705Y-142827011D01*
X208850499Y-142775500D01*
X208850499Y-142602129D01*
X208850498Y-142602123D01*
X208850497Y-142602116D01*
X208844091Y-142542517D01*
X208843152Y-142540000D01*
X208793797Y-142407671D01*
X208793793Y-142407664D01*
X208707547Y-142292455D01*
X208707544Y-142292452D01*
X208592335Y-142206206D01*
X208592328Y-142206202D01*
X208457482Y-142155908D01*
X208457483Y-142155908D01*
X208397883Y-142149501D01*
X208397881Y-142149500D01*
X208397873Y-142149500D01*
X208397864Y-142149500D01*
X206602129Y-142149500D01*
X206602123Y-142149501D01*
X206542516Y-142155908D01*
X206407671Y-142206202D01*
X206407664Y-142206206D01*
X206292455Y-142292452D01*
X206292452Y-142292455D01*
X206206206Y-142407664D01*
X206206202Y-142407671D01*
X206155908Y-142542517D01*
X206149501Y-142602116D01*
X206149501Y-142602123D01*
X206149500Y-142602135D01*
X206149500Y-144397870D01*
X206149501Y-144397876D01*
X206155908Y-144457483D01*
X206206202Y-144592328D01*
X206206206Y-144592335D01*
X206292452Y-144707544D01*
X206292455Y-144707547D01*
X206407664Y-144793793D01*
X206407671Y-144793797D01*
X206542517Y-144844091D01*
X206542516Y-144844091D01*
X206549444Y-144844835D01*
X206602127Y-144850500D01*
X208397872Y-144850499D01*
X208457483Y-144844091D01*
X208592331Y-144793796D01*
X208707546Y-144707546D01*
X208793796Y-144592331D01*
X208844091Y-144457483D01*
X208850500Y-144397873D01*
X208850500Y-144224500D01*
X208870185Y-144157461D01*
X208922989Y-144111706D01*
X208974500Y-144100500D01*
X215460486Y-144100500D01*
X215527525Y-144120185D01*
X215573280Y-144172989D01*
X215583224Y-144242147D01*
X215578417Y-144262818D01*
X215526597Y-144422301D01*
X215499500Y-144593389D01*
X215499500Y-144766610D01*
X215512786Y-144850499D01*
X215526598Y-144937701D01*
X215580127Y-145102445D01*
X215658768Y-145256788D01*
X215760586Y-145396928D01*
X215883072Y-145519414D01*
X216023212Y-145621232D01*
X216177555Y-145699873D01*
X216342299Y-145753402D01*
X216513389Y-145780500D01*
X216513390Y-145780500D01*
X217486610Y-145780500D01*
X217486611Y-145780500D01*
X217657701Y-145753402D01*
X217822445Y-145699873D01*
X217976788Y-145621232D01*
X218116928Y-145519414D01*
X218239414Y-145396928D01*
X218341232Y-145256788D01*
X218419873Y-145102445D01*
X218473402Y-144937701D01*
X218500500Y-144766611D01*
X218500500Y-144593389D01*
X240899500Y-144593389D01*
X240899500Y-144766610D01*
X240912786Y-144850499D01*
X240926598Y-144937701D01*
X240980127Y-145102445D01*
X241058768Y-145256788D01*
X241160586Y-145396928D01*
X241283072Y-145519414D01*
X241423212Y-145621232D01*
X241577555Y-145699873D01*
X241742299Y-145753402D01*
X241913389Y-145780500D01*
X241913390Y-145780500D01*
X242886610Y-145780500D01*
X242886611Y-145780500D01*
X243057701Y-145753402D01*
X243222445Y-145699873D01*
X243376788Y-145621232D01*
X243412993Y-145594926D01*
X243478798Y-145571446D01*
X243517972Y-145575468D01*
X243570464Y-145589534D01*
X243611387Y-145600500D01*
X243611388Y-145600500D01*
X247025501Y-145600500D01*
X247092540Y-145620185D01*
X247138295Y-145672989D01*
X247149501Y-145724500D01*
X247149501Y-145897876D01*
X247155908Y-145957483D01*
X247206202Y-146092328D01*
X247206206Y-146092335D01*
X247292452Y-146207544D01*
X247292455Y-146207547D01*
X247407664Y-146293793D01*
X247407671Y-146293797D01*
X247542517Y-146344091D01*
X247542516Y-146344091D01*
X247549444Y-146344835D01*
X247602127Y-146350500D01*
X249397872Y-146350499D01*
X249457483Y-146344091D01*
X249592331Y-146293796D01*
X249707546Y-146207546D01*
X249793796Y-146092331D01*
X249844091Y-145957483D01*
X249850500Y-145897873D01*
X249850499Y-144102128D01*
X249844091Y-144042517D01*
X249814459Y-143963070D01*
X249793797Y-143907671D01*
X249793793Y-143907664D01*
X249707547Y-143792455D01*
X249707544Y-143792452D01*
X249592335Y-143706206D01*
X249592328Y-143706202D01*
X249457482Y-143655908D01*
X249457483Y-143655908D01*
X249397883Y-143649501D01*
X249397881Y-143649500D01*
X249397873Y-143649500D01*
X249397864Y-143649500D01*
X247602129Y-143649500D01*
X247602123Y-143649501D01*
X247542516Y-143655908D01*
X247407671Y-143706202D01*
X247407664Y-143706206D01*
X247292455Y-143792452D01*
X247292452Y-143792455D01*
X247206206Y-143907664D01*
X247206202Y-143907671D01*
X247155908Y-144042517D01*
X247149675Y-144100500D01*
X247149501Y-144102123D01*
X247149500Y-144102135D01*
X247149500Y-144275500D01*
X247129815Y-144342539D01*
X247077011Y-144388294D01*
X247025500Y-144399500D01*
X243990542Y-144399500D01*
X243923503Y-144379815D01*
X243902861Y-144363181D01*
X243858035Y-144318355D01*
X243858033Y-144318352D01*
X243851819Y-144312138D01*
X243848506Y-144306732D01*
X243842542Y-144299457D01*
X243842540Y-144299454D01*
X243843609Y-144298740D01*
X243821567Y-144262770D01*
X243819872Y-144257552D01*
X243741233Y-144103213D01*
X243697134Y-144042517D01*
X243639414Y-143963072D01*
X243516928Y-143840586D01*
X243376788Y-143738768D01*
X243222445Y-143660127D01*
X243057701Y-143606598D01*
X243057699Y-143606597D01*
X243057698Y-143606597D01*
X242926271Y-143585781D01*
X242886611Y-143579500D01*
X241913389Y-143579500D01*
X241873728Y-143585781D01*
X241742302Y-143606597D01*
X241577552Y-143660128D01*
X241423211Y-143738768D01*
X241349320Y-143792454D01*
X241283072Y-143840586D01*
X241283070Y-143840588D01*
X241283069Y-143840588D01*
X241160588Y-143963069D01*
X241160588Y-143963070D01*
X241160586Y-143963072D01*
X241116859Y-144023256D01*
X241058768Y-144103211D01*
X240980128Y-144257552D01*
X240926597Y-144422302D01*
X240899500Y-144593389D01*
X218500500Y-144593389D01*
X218473402Y-144422299D01*
X218419873Y-144257555D01*
X218341232Y-144103212D01*
X218239414Y-143963072D01*
X218116928Y-143840586D01*
X217976788Y-143738768D01*
X217822445Y-143660127D01*
X217657701Y-143606598D01*
X217657699Y-143606597D01*
X217657698Y-143606597D01*
X217526271Y-143585781D01*
X217486611Y-143579500D01*
X217486610Y-143579500D01*
X216800097Y-143579500D01*
X216733058Y-143559815D01*
X216712416Y-143543181D01*
X216621416Y-143452181D01*
X216587931Y-143390858D01*
X216592915Y-143321166D01*
X216634787Y-143265233D01*
X216700251Y-143240816D01*
X216709097Y-143240500D01*
X217486610Y-143240500D01*
X217486611Y-143240500D01*
X217657701Y-143213402D01*
X217822445Y-143159873D01*
X217976788Y-143081232D01*
X218116928Y-142979414D01*
X218239414Y-142856928D01*
X218341232Y-142716788D01*
X218419873Y-142562445D01*
X218473402Y-142397701D01*
X218500500Y-142226611D01*
X218500500Y-142053389D01*
X218473402Y-141882299D01*
X218419873Y-141717555D01*
X218341232Y-141563212D01*
X218239414Y-141423072D01*
X218116928Y-141300586D01*
X217976788Y-141198768D01*
X217822445Y-141120127D01*
X217657701Y-141066598D01*
X217657699Y-141066597D01*
X217657698Y-141066597D01*
X217526271Y-141045781D01*
X217486611Y-141039500D01*
X217486610Y-141039500D01*
X216800098Y-141039500D01*
X216733059Y-141019815D01*
X216712417Y-141003181D01*
X216621417Y-140912181D01*
X216587932Y-140850858D01*
X216592916Y-140781166D01*
X216634788Y-140725233D01*
X216700252Y-140700816D01*
X216709098Y-140700500D01*
X217486610Y-140700500D01*
X217486611Y-140700500D01*
X217657701Y-140673402D01*
X217822445Y-140619873D01*
X217976788Y-140541232D01*
X218116928Y-140439414D01*
X218239414Y-140316928D01*
X218341232Y-140176788D01*
X218419873Y-140022445D01*
X218473402Y-139857701D01*
X218500500Y-139686611D01*
X218500500Y-139513389D01*
X240899500Y-139513389D01*
X240899500Y-139686610D01*
X240919006Y-139809771D01*
X240926598Y-139857701D01*
X240980127Y-140022445D01*
X241058768Y-140176788D01*
X241160586Y-140316928D01*
X241283072Y-140439414D01*
X241423212Y-140541232D01*
X241577555Y-140619873D01*
X241742299Y-140673402D01*
X241913389Y-140700500D01*
X242599903Y-140700500D01*
X242666942Y-140720185D01*
X242687584Y-140736819D01*
X242779084Y-140828319D01*
X242812569Y-140889642D01*
X242807585Y-140959334D01*
X242765713Y-141015267D01*
X242700249Y-141039684D01*
X242691403Y-141040000D01*
X242650000Y-141040000D01*
X242650000Y-141824314D01*
X242645606Y-141819920D01*
X242554394Y-141767259D01*
X242452661Y-141740000D01*
X242347339Y-141740000D01*
X242245606Y-141767259D01*
X242154394Y-141819920D01*
X242150000Y-141824314D01*
X242150000Y-141040000D01*
X241913429Y-141040000D01*
X241742415Y-141067085D01*
X241577742Y-141120591D01*
X241423475Y-141199195D01*
X241283397Y-141300967D01*
X241160967Y-141423397D01*
X241059195Y-141563475D01*
X240980591Y-141717744D01*
X240927085Y-141882415D01*
X240925884Y-141889999D01*
X240925885Y-141890000D01*
X242084314Y-141890000D01*
X242079920Y-141894394D01*
X242027259Y-141985606D01*
X242000000Y-142087339D01*
X242000000Y-142192661D01*
X242027259Y-142294394D01*
X242079920Y-142385606D01*
X242084314Y-142390000D01*
X240925885Y-142390000D01*
X240927085Y-142397584D01*
X240980591Y-142562255D01*
X241059195Y-142716524D01*
X241160967Y-142856602D01*
X241283397Y-142979032D01*
X241423475Y-143080804D01*
X241577742Y-143159408D01*
X241742415Y-143212914D01*
X241913429Y-143240000D01*
X242150000Y-143240000D01*
X242150000Y-142455686D01*
X242154394Y-142460080D01*
X242245606Y-142512741D01*
X242347339Y-142540000D01*
X242452661Y-142540000D01*
X242554394Y-142512741D01*
X242645606Y-142460080D01*
X242650000Y-142455686D01*
X242650000Y-143240000D01*
X242886571Y-143240000D01*
X243057584Y-143212914D01*
X243222257Y-143159408D01*
X243376524Y-143080804D01*
X243516602Y-142979032D01*
X243639032Y-142856602D01*
X243740804Y-142716524D01*
X243819408Y-142562255D01*
X243872914Y-142397584D01*
X243874115Y-142390000D01*
X242715686Y-142390000D01*
X242720080Y-142385606D01*
X242772741Y-142294394D01*
X242800000Y-142192661D01*
X242800000Y-142087339D01*
X242772741Y-141985606D01*
X242720080Y-141894394D01*
X242715686Y-141890000D01*
X243874115Y-141890000D01*
X243874115Y-141889999D01*
X243872914Y-141882415D01*
X243834055Y-141762818D01*
X243832060Y-141692977D01*
X243868141Y-141633144D01*
X243930842Y-141602316D01*
X243951986Y-141600500D01*
X247025501Y-141600500D01*
X247092540Y-141620185D01*
X247138295Y-141672989D01*
X247149501Y-141724500D01*
X247149501Y-141897876D01*
X247155908Y-141957483D01*
X247206202Y-142092328D01*
X247206206Y-142092335D01*
X247292452Y-142207544D01*
X247292455Y-142207547D01*
X247407664Y-142293793D01*
X247407671Y-142293797D01*
X247542517Y-142344091D01*
X247542516Y-142344091D01*
X247549444Y-142344835D01*
X247602127Y-142350500D01*
X249397872Y-142350499D01*
X249457483Y-142344091D01*
X249592331Y-142293796D01*
X249707546Y-142207546D01*
X249793796Y-142092331D01*
X249844091Y-141957483D01*
X249850500Y-141897873D01*
X249850499Y-140102128D01*
X249844091Y-140042517D01*
X249843280Y-140040343D01*
X249793797Y-139907671D01*
X249793793Y-139907664D01*
X249707547Y-139792455D01*
X249707544Y-139792452D01*
X249592335Y-139706206D01*
X249592328Y-139706202D01*
X249457482Y-139655908D01*
X249457483Y-139655908D01*
X249397883Y-139649501D01*
X249397881Y-139649500D01*
X249397873Y-139649500D01*
X249397864Y-139649500D01*
X247602129Y-139649500D01*
X247602123Y-139649501D01*
X247542516Y-139655908D01*
X247407671Y-139706202D01*
X247407664Y-139706206D01*
X247292455Y-139792452D01*
X247292452Y-139792455D01*
X247206206Y-139907664D01*
X247206202Y-139907671D01*
X247155908Y-140042517D01*
X247149675Y-140100500D01*
X247149501Y-140102123D01*
X247149500Y-140102135D01*
X247149500Y-140275500D01*
X247129815Y-140342539D01*
X247077011Y-140388294D01*
X247025500Y-140399500D01*
X244100097Y-140399500D01*
X244033058Y-140379815D01*
X244012416Y-140363181D01*
X243833556Y-140184321D01*
X243800071Y-140122998D01*
X243805055Y-140053306D01*
X243810749Y-140040350D01*
X243819873Y-140022445D01*
X243873402Y-139857701D01*
X243900500Y-139686611D01*
X243900500Y-139513389D01*
X243873402Y-139342299D01*
X243819873Y-139177555D01*
X243741232Y-139023212D01*
X243639414Y-138883072D01*
X243516928Y-138760586D01*
X243376788Y-138658768D01*
X243222445Y-138580127D01*
X243057701Y-138526598D01*
X243057699Y-138526597D01*
X243057698Y-138526597D01*
X242926271Y-138505781D01*
X242886611Y-138499500D01*
X241913389Y-138499500D01*
X241873728Y-138505781D01*
X241742302Y-138526597D01*
X241577552Y-138580128D01*
X241423211Y-138658768D01*
X241343256Y-138716859D01*
X241283072Y-138760586D01*
X241283070Y-138760588D01*
X241283069Y-138760588D01*
X241160588Y-138883069D01*
X241160588Y-138883070D01*
X241160586Y-138883072D01*
X241118918Y-138940423D01*
X241058768Y-139023211D01*
X240980128Y-139177552D01*
X240926597Y-139342302D01*
X240899500Y-139513389D01*
X218500500Y-139513389D01*
X218473402Y-139342299D01*
X218419873Y-139177555D01*
X218341232Y-139023212D01*
X218239414Y-138883072D01*
X218116928Y-138760586D01*
X217976788Y-138658768D01*
X217822445Y-138580127D01*
X217657701Y-138526598D01*
X217657699Y-138526597D01*
X217657698Y-138526597D01*
X217526271Y-138505781D01*
X217486611Y-138499500D01*
X217486610Y-138499500D01*
X216800097Y-138499500D01*
X216733058Y-138479815D01*
X216712416Y-138463181D01*
X216621416Y-138372181D01*
X216587931Y-138310858D01*
X216592915Y-138241166D01*
X216634787Y-138185233D01*
X216700251Y-138160816D01*
X216709097Y-138160500D01*
X217486610Y-138160500D01*
X217486611Y-138160500D01*
X217657701Y-138133402D01*
X217822445Y-138079873D01*
X217976788Y-138001232D01*
X218116928Y-137899414D01*
X218239414Y-137776928D01*
X218341232Y-137636788D01*
X218419873Y-137482445D01*
X218473402Y-137317701D01*
X218500500Y-137146611D01*
X218500500Y-136973389D01*
X240899500Y-136973389D01*
X240899500Y-137146611D01*
X240926598Y-137317701D01*
X240932290Y-137335220D01*
X240980128Y-137482447D01*
X241044583Y-137608949D01*
X241058768Y-137636788D01*
X241160586Y-137776928D01*
X241283072Y-137899414D01*
X241423212Y-138001232D01*
X241577555Y-138079873D01*
X241742299Y-138133402D01*
X241913389Y-138160500D01*
X241913390Y-138160500D01*
X242886610Y-138160500D01*
X242886611Y-138160500D01*
X243057701Y-138133402D01*
X243222445Y-138079873D01*
X243376788Y-138001232D01*
X243516928Y-137899414D01*
X243639414Y-137776928D01*
X243730460Y-137651613D01*
X243785790Y-137608949D01*
X243830778Y-137600500D01*
X247025501Y-137600500D01*
X247092540Y-137620185D01*
X247138295Y-137672989D01*
X247149501Y-137724500D01*
X247149501Y-137897876D01*
X247155908Y-137957483D01*
X247206202Y-138092328D01*
X247206206Y-138092335D01*
X247292452Y-138207544D01*
X247292455Y-138207547D01*
X247407664Y-138293793D01*
X247407671Y-138293797D01*
X247542517Y-138344091D01*
X247542516Y-138344091D01*
X247549444Y-138344835D01*
X247602127Y-138350500D01*
X249397872Y-138350499D01*
X249457483Y-138344091D01*
X249592331Y-138293796D01*
X249707546Y-138207546D01*
X249793796Y-138092331D01*
X249844091Y-137957483D01*
X249850500Y-137897873D01*
X249850499Y-136102128D01*
X249844091Y-136042517D01*
X249842250Y-136037582D01*
X249793797Y-135907671D01*
X249793793Y-135907664D01*
X249707547Y-135792455D01*
X249707544Y-135792452D01*
X249592335Y-135706206D01*
X249592328Y-135706202D01*
X249457482Y-135655908D01*
X249457483Y-135655908D01*
X249397883Y-135649501D01*
X249397881Y-135649500D01*
X249397873Y-135649500D01*
X249397864Y-135649500D01*
X247602129Y-135649500D01*
X247602123Y-135649501D01*
X247542516Y-135655908D01*
X247407671Y-135706202D01*
X247407664Y-135706206D01*
X247292455Y-135792452D01*
X247292452Y-135792455D01*
X247206206Y-135907664D01*
X247206202Y-135907671D01*
X247155908Y-136042517D01*
X247149501Y-136102116D01*
X247149501Y-136102123D01*
X247149500Y-136102135D01*
X247149500Y-136275500D01*
X247129815Y-136342539D01*
X247077011Y-136388294D01*
X247025500Y-136399500D01*
X243743593Y-136399500D01*
X243676554Y-136379815D01*
X243643274Y-136348384D01*
X243639417Y-136343075D01*
X243516930Y-136220588D01*
X243516928Y-136220586D01*
X243376788Y-136118768D01*
X243222445Y-136040127D01*
X243057701Y-135986598D01*
X243057699Y-135986597D01*
X243057698Y-135986597D01*
X242926271Y-135965781D01*
X242886611Y-135959500D01*
X241913389Y-135959500D01*
X241873728Y-135965781D01*
X241742302Y-135986597D01*
X241577552Y-136040128D01*
X241423211Y-136118768D01*
X241343256Y-136176859D01*
X241283072Y-136220586D01*
X241283070Y-136220588D01*
X241283069Y-136220588D01*
X241160588Y-136343069D01*
X241160588Y-136343070D01*
X241160586Y-136343072D01*
X241160584Y-136343075D01*
X241058768Y-136483211D01*
X240980128Y-136637552D01*
X240926597Y-136802302D01*
X240899500Y-136973389D01*
X218500500Y-136973389D01*
X218473402Y-136802299D01*
X218419873Y-136637555D01*
X218341232Y-136483212D01*
X218239414Y-136343072D01*
X218116928Y-136220586D01*
X217976788Y-136118768D01*
X217822445Y-136040127D01*
X217657701Y-135986598D01*
X217657699Y-135986597D01*
X217657698Y-135986597D01*
X217526271Y-135965781D01*
X217486611Y-135959500D01*
X217486610Y-135959500D01*
X217160098Y-135959500D01*
X217093059Y-135939815D01*
X217072417Y-135923181D01*
X216981417Y-135832181D01*
X216947932Y-135770858D01*
X216952916Y-135701166D01*
X216994788Y-135645233D01*
X217060252Y-135620816D01*
X217069098Y-135620500D01*
X217486610Y-135620500D01*
X217486611Y-135620500D01*
X217657701Y-135593402D01*
X217822445Y-135539873D01*
X217976788Y-135461232D01*
X218116928Y-135359414D01*
X218239414Y-135236928D01*
X218341232Y-135096788D01*
X218419873Y-134942445D01*
X218473402Y-134777701D01*
X218500500Y-134606611D01*
X218500500Y-134433389D01*
X218473402Y-134262299D01*
X218419873Y-134097555D01*
X218341232Y-133943212D01*
X218239414Y-133803072D01*
X218116928Y-133680586D01*
X217976788Y-133578768D01*
X217822445Y-133500127D01*
X217657701Y-133446598D01*
X217657699Y-133446597D01*
X217657698Y-133446597D01*
X217526271Y-133425781D01*
X217486611Y-133419500D01*
X216513389Y-133419500D01*
X216473728Y-133425781D01*
X216342302Y-133446597D01*
X216177552Y-133500128D01*
X216023211Y-133578768D01*
X215943313Y-133636818D01*
X215883072Y-133680586D01*
X215883070Y-133680588D01*
X215883069Y-133680588D01*
X215760588Y-133803069D01*
X215760588Y-133803070D01*
X215760586Y-133803072D01*
X215716859Y-133863256D01*
X215658768Y-133943211D01*
X215580129Y-134097550D01*
X215580128Y-134097552D01*
X215580127Y-134097555D01*
X215560908Y-134156701D01*
X215521472Y-134214375D01*
X215457113Y-134241573D01*
X215388267Y-134229658D01*
X215355298Y-134206062D01*
X213042624Y-131893389D01*
X215499500Y-131893389D01*
X215499500Y-132066611D01*
X215505126Y-132102135D01*
X215526597Y-132237697D01*
X215526597Y-132237699D01*
X215526598Y-132237701D01*
X215578642Y-132397876D01*
X215580128Y-132402447D01*
X215608170Y-132457483D01*
X215658768Y-132556788D01*
X215760586Y-132696928D01*
X215883072Y-132819414D01*
X216023212Y-132921232D01*
X216177555Y-132999873D01*
X216342299Y-133053402D01*
X216513389Y-133080500D01*
X216513390Y-133080500D01*
X217486610Y-133080500D01*
X217486611Y-133080500D01*
X217657701Y-133053402D01*
X217822445Y-132999873D01*
X217976788Y-132921232D01*
X218116928Y-132819414D01*
X218239414Y-132696928D01*
X218341232Y-132556788D01*
X218419873Y-132402445D01*
X218473402Y-132237701D01*
X218500500Y-132066611D01*
X218500500Y-131893389D01*
X218473402Y-131722299D01*
X218419873Y-131557555D01*
X218341232Y-131403212D01*
X218239414Y-131263072D01*
X218116928Y-131140586D01*
X217976788Y-131038768D01*
X217822445Y-130960127D01*
X217657701Y-130906598D01*
X217657699Y-130906597D01*
X217657698Y-130906597D01*
X217526271Y-130885781D01*
X217486611Y-130879500D01*
X216513389Y-130879500D01*
X216473728Y-130885781D01*
X216342302Y-130906597D01*
X216177552Y-130960128D01*
X216023211Y-131038768D01*
X215943256Y-131096859D01*
X215883072Y-131140586D01*
X215883070Y-131140588D01*
X215883069Y-131140588D01*
X215760588Y-131263069D01*
X215760588Y-131263070D01*
X215760586Y-131263072D01*
X215716859Y-131323256D01*
X215658768Y-131403211D01*
X215580128Y-131557552D01*
X215526597Y-131722302D01*
X215515486Y-131792455D01*
X215499500Y-131893389D01*
X213042624Y-131893389D01*
X212287590Y-131138355D01*
X212287588Y-131138352D01*
X212168717Y-131019481D01*
X212168709Y-131019475D01*
X212065914Y-130960127D01*
X212065911Y-130960126D01*
X212031787Y-130940424D01*
X212031786Y-130940423D01*
X212031785Y-130940423D01*
X211879057Y-130899499D01*
X211720943Y-130899499D01*
X211713347Y-130899499D01*
X211713331Y-130899500D01*
X208974499Y-130899500D01*
X208907460Y-130879815D01*
X208861705Y-130827011D01*
X208850499Y-130775500D01*
X208850499Y-130602129D01*
X208850498Y-130602123D01*
X208850497Y-130602116D01*
X208844091Y-130542517D01*
X208793796Y-130407669D01*
X208793795Y-130407668D01*
X208793793Y-130407664D01*
X208707547Y-130292455D01*
X208707544Y-130292452D01*
X208592335Y-130206206D01*
X208592328Y-130206202D01*
X208457482Y-130155908D01*
X208457483Y-130155908D01*
X208397883Y-130149501D01*
X208397881Y-130149500D01*
X208397873Y-130149500D01*
X208397864Y-130149500D01*
X206602129Y-130149500D01*
X206602123Y-130149501D01*
X206542516Y-130155908D01*
X206407671Y-130206202D01*
X206407664Y-130206206D01*
X206292455Y-130292452D01*
X206292452Y-130292455D01*
X206206206Y-130407664D01*
X206206202Y-130407671D01*
X206155908Y-130542517D01*
X206154009Y-130560185D01*
X206149501Y-130602123D01*
X206149500Y-130602135D01*
X198125500Y-130602135D01*
X198125500Y-129353389D01*
X215499500Y-129353389D01*
X215499500Y-129526610D01*
X215519006Y-129649771D01*
X215526598Y-129697701D01*
X215580127Y-129862445D01*
X215658768Y-130016788D01*
X215760586Y-130156928D01*
X215883072Y-130279414D01*
X216023212Y-130381232D01*
X216177555Y-130459873D01*
X216342299Y-130513402D01*
X216513389Y-130540500D01*
X216513390Y-130540500D01*
X217486610Y-130540500D01*
X217486611Y-130540500D01*
X217657701Y-130513402D01*
X217822445Y-130459873D01*
X217976788Y-130381232D01*
X218116928Y-130279414D01*
X218239414Y-130156928D01*
X218341232Y-130016788D01*
X218419873Y-129862445D01*
X218473402Y-129697701D01*
X218500500Y-129526611D01*
X218500500Y-129353389D01*
X240899500Y-129353389D01*
X240899500Y-129526610D01*
X240919006Y-129649771D01*
X240926598Y-129697701D01*
X240980127Y-129862445D01*
X241058768Y-130016788D01*
X241160586Y-130156928D01*
X241283072Y-130279414D01*
X241423212Y-130381232D01*
X241577555Y-130459873D01*
X241742299Y-130513402D01*
X241913389Y-130540500D01*
X241913390Y-130540500D01*
X242690903Y-130540500D01*
X242757942Y-130560185D01*
X242803697Y-130612989D01*
X242813641Y-130682147D01*
X242784616Y-130745703D01*
X242778584Y-130752181D01*
X242687584Y-130843181D01*
X242626261Y-130876666D01*
X242599903Y-130879500D01*
X241913389Y-130879500D01*
X241873728Y-130885781D01*
X241742302Y-130906597D01*
X241577552Y-130960128D01*
X241423211Y-131038768D01*
X241343256Y-131096859D01*
X241283072Y-131140586D01*
X241283070Y-131140588D01*
X241283069Y-131140588D01*
X241160588Y-131263069D01*
X241160588Y-131263070D01*
X241160586Y-131263072D01*
X241116859Y-131323256D01*
X241058768Y-131403211D01*
X240980128Y-131557552D01*
X240926597Y-131722302D01*
X240915486Y-131792455D01*
X240899500Y-131893389D01*
X240899500Y-132066611D01*
X240905126Y-132102135D01*
X240926597Y-132237697D01*
X240926597Y-132237699D01*
X240926598Y-132237701D01*
X240978642Y-132397876D01*
X240980128Y-132402447D01*
X241008170Y-132457483D01*
X241058768Y-132556788D01*
X241160586Y-132696928D01*
X241283072Y-132819414D01*
X241423212Y-132921232D01*
X241577555Y-132999873D01*
X241742299Y-133053402D01*
X241913389Y-133080500D01*
X241913390Y-133080500D01*
X242690902Y-133080500D01*
X242757941Y-133100185D01*
X242803696Y-133152989D01*
X242813640Y-133222147D01*
X242784615Y-133285703D01*
X242778593Y-133292170D01*
X242687582Y-133383182D01*
X242626262Y-133416666D01*
X242599903Y-133419500D01*
X241913389Y-133419500D01*
X241873728Y-133425781D01*
X241742302Y-133446597D01*
X241577552Y-133500128D01*
X241423211Y-133578768D01*
X241343313Y-133636818D01*
X241283072Y-133680586D01*
X241283070Y-133680588D01*
X241283069Y-133680588D01*
X241160588Y-133803069D01*
X241160588Y-133803070D01*
X241160586Y-133803072D01*
X241116859Y-133863256D01*
X241058768Y-133943211D01*
X240980128Y-134097552D01*
X240926597Y-134262302D01*
X240903574Y-134407664D01*
X240899500Y-134433389D01*
X240899500Y-134606611D01*
X240926598Y-134777701D01*
X240980127Y-134942445D01*
X241058768Y-135096788D01*
X241160586Y-135236928D01*
X241283072Y-135359414D01*
X241423212Y-135461232D01*
X241577555Y-135539873D01*
X241742299Y-135593402D01*
X241913389Y-135620500D01*
X241913390Y-135620500D01*
X242886610Y-135620500D01*
X242886611Y-135620500D01*
X243057701Y-135593402D01*
X243222445Y-135539873D01*
X243376788Y-135461232D01*
X243516928Y-135359414D01*
X243639414Y-135236928D01*
X243741232Y-135096788D01*
X243819873Y-134942445D01*
X243873402Y-134777701D01*
X243900500Y-134606611D01*
X243900500Y-134433389D01*
X243873402Y-134262299D01*
X243819873Y-134097555D01*
X243810751Y-134079653D01*
X243797856Y-134010985D01*
X243824132Y-133946245D01*
X243833538Y-133935696D01*
X244132419Y-133636816D01*
X244193740Y-133603334D01*
X244220098Y-133600500D01*
X247025501Y-133600500D01*
X247092540Y-133620185D01*
X247138295Y-133672989D01*
X247149501Y-133724500D01*
X247149501Y-133897876D01*
X247155908Y-133957483D01*
X247206202Y-134092328D01*
X247206206Y-134092335D01*
X247292452Y-134207544D01*
X247292455Y-134207547D01*
X247407664Y-134293793D01*
X247407671Y-134293797D01*
X247542517Y-134344091D01*
X247542516Y-134344091D01*
X247549444Y-134344835D01*
X247602127Y-134350500D01*
X249397872Y-134350499D01*
X249457483Y-134344091D01*
X249592331Y-134293796D01*
X249707546Y-134207546D01*
X249793796Y-134092331D01*
X249844091Y-133957483D01*
X249850500Y-133897873D01*
X249850499Y-132102128D01*
X249844091Y-132042517D01*
X249793796Y-131907669D01*
X249793795Y-131907668D01*
X249793793Y-131907664D01*
X249707547Y-131792455D01*
X249707544Y-131792452D01*
X249592335Y-131706206D01*
X249592328Y-131706202D01*
X249457482Y-131655908D01*
X249457483Y-131655908D01*
X249397883Y-131649501D01*
X249397881Y-131649500D01*
X249397873Y-131649500D01*
X249397864Y-131649500D01*
X247602129Y-131649500D01*
X247602123Y-131649501D01*
X247542516Y-131655908D01*
X247407671Y-131706202D01*
X247407664Y-131706206D01*
X247292455Y-131792452D01*
X247292452Y-131792455D01*
X247206206Y-131907664D01*
X247206202Y-131907671D01*
X247155908Y-132042517D01*
X247149675Y-132100500D01*
X247149501Y-132102123D01*
X247149500Y-132102135D01*
X247149500Y-132275500D01*
X247129815Y-132342539D01*
X247077011Y-132388294D01*
X247025500Y-132399500D01*
X244006670Y-132399500D01*
X244006654Y-132399499D01*
X243999058Y-132399499D01*
X243991502Y-132399499D01*
X243924463Y-132379814D01*
X243878708Y-132327010D01*
X243868764Y-132257852D01*
X243872344Y-132242454D01*
X243872265Y-132242436D01*
X243873399Y-132237709D01*
X243873402Y-132237701D01*
X243900500Y-132066611D01*
X243900500Y-131893389D01*
X243873402Y-131722299D01*
X243819873Y-131557555D01*
X243810751Y-131539652D01*
X243797855Y-131470987D01*
X243824130Y-131406246D01*
X243833546Y-131395687D01*
X245592416Y-129636819D01*
X245653739Y-129603334D01*
X245680097Y-129600500D01*
X247025501Y-129600500D01*
X247092540Y-129620185D01*
X247138295Y-129672989D01*
X247149501Y-129724500D01*
X247149501Y-129897876D01*
X247155908Y-129957483D01*
X247206202Y-130092328D01*
X247206206Y-130092335D01*
X247292452Y-130207544D01*
X247292455Y-130207547D01*
X247407664Y-130293793D01*
X247407671Y-130293797D01*
X247542517Y-130344091D01*
X247542516Y-130344091D01*
X247549444Y-130344835D01*
X247602127Y-130350500D01*
X249397872Y-130350499D01*
X249457483Y-130344091D01*
X249592331Y-130293796D01*
X249707546Y-130207546D01*
X249793796Y-130092331D01*
X249844091Y-129957483D01*
X249850500Y-129897873D01*
X249850499Y-128499998D01*
X257194532Y-128499998D01*
X257194532Y-128500001D01*
X257214364Y-128726686D01*
X257214366Y-128726697D01*
X257273258Y-128946488D01*
X257273261Y-128946497D01*
X257369431Y-129152732D01*
X257369432Y-129152734D01*
X257499954Y-129339141D01*
X257660858Y-129500045D01*
X257660861Y-129500047D01*
X257847266Y-129630568D01*
X258053504Y-129726739D01*
X258273308Y-129785635D01*
X258435230Y-129799801D01*
X258499998Y-129805468D01*
X258500000Y-129805468D01*
X258500002Y-129805468D01*
X258556673Y-129800509D01*
X258726692Y-129785635D01*
X258946496Y-129726739D01*
X259152734Y-129630568D01*
X259339139Y-129500047D01*
X259500047Y-129339139D01*
X259630568Y-129152734D01*
X259726739Y-128946496D01*
X259785635Y-128726692D01*
X259805468Y-128500000D01*
X259785635Y-128273308D01*
X259779389Y-128249999D01*
X267381127Y-128249999D01*
X267381128Y-128250000D01*
X268344314Y-128250000D01*
X268339920Y-128254394D01*
X268287259Y-128345606D01*
X268260000Y-128447339D01*
X268260000Y-128552661D01*
X268287259Y-128654394D01*
X268339920Y-128745606D01*
X268344314Y-128750000D01*
X267381128Y-128750000D01*
X267433730Y-128946317D01*
X267433734Y-128946326D01*
X267529865Y-129152482D01*
X267660342Y-129338820D01*
X267821179Y-129499657D01*
X268007517Y-129630134D01*
X268213673Y-129726265D01*
X268213682Y-129726269D01*
X268409999Y-129778872D01*
X268410000Y-129778871D01*
X268410000Y-128815686D01*
X268414394Y-128820080D01*
X268505606Y-128872741D01*
X268607339Y-128900000D01*
X268712661Y-128900000D01*
X268814394Y-128872741D01*
X268905606Y-128820080D01*
X268910000Y-128815686D01*
X268910000Y-129778872D01*
X269106317Y-129726269D01*
X269106326Y-129726265D01*
X269312482Y-129630134D01*
X269498820Y-129499657D01*
X269659657Y-129338820D01*
X269790134Y-129152482D01*
X269886265Y-128946326D01*
X269886269Y-128946317D01*
X269938872Y-128750000D01*
X268975686Y-128750000D01*
X268980080Y-128745606D01*
X269032741Y-128654394D01*
X269060000Y-128552661D01*
X269060000Y-128447339D01*
X269032741Y-128345606D01*
X268980080Y-128254394D01*
X268975686Y-128250000D01*
X269938872Y-128250000D01*
X269938872Y-128249999D01*
X269886269Y-128053682D01*
X269886265Y-128053673D01*
X269790134Y-127847517D01*
X269659657Y-127661179D01*
X269498820Y-127500342D01*
X269312482Y-127369865D01*
X269106328Y-127273734D01*
X268910000Y-127221127D01*
X268910000Y-128184314D01*
X268905606Y-128179920D01*
X268814394Y-128127259D01*
X268712661Y-128100000D01*
X268607339Y-128100000D01*
X268505606Y-128127259D01*
X268414394Y-128179920D01*
X268410000Y-128184314D01*
X268410000Y-127221127D01*
X268213671Y-127273734D01*
X268007517Y-127369865D01*
X267821179Y-127500342D01*
X267660342Y-127661179D01*
X267529865Y-127847517D01*
X267433734Y-128053673D01*
X267433730Y-128053682D01*
X267381127Y-128249999D01*
X259779389Y-128249999D01*
X259726739Y-128053504D01*
X259630568Y-127847266D01*
X259500047Y-127660861D01*
X259500045Y-127660858D01*
X259339141Y-127499954D01*
X259152734Y-127369432D01*
X259152732Y-127369431D01*
X258946497Y-127273261D01*
X258946488Y-127273258D01*
X258726697Y-127214366D01*
X258726693Y-127214365D01*
X258726692Y-127214365D01*
X258726691Y-127214364D01*
X258726686Y-127214364D01*
X258500002Y-127194532D01*
X258499998Y-127194532D01*
X258273313Y-127214364D01*
X258273302Y-127214366D01*
X258053511Y-127273258D01*
X258053502Y-127273261D01*
X257847267Y-127369431D01*
X257847265Y-127369432D01*
X257660858Y-127499954D01*
X257499954Y-127660858D01*
X257369432Y-127847265D01*
X257369431Y-127847267D01*
X257273261Y-128053502D01*
X257273258Y-128053511D01*
X257214366Y-128273302D01*
X257214364Y-128273313D01*
X257194532Y-128499998D01*
X249850499Y-128499998D01*
X249850499Y-128102128D01*
X249844091Y-128042517D01*
X249835575Y-128019685D01*
X249793797Y-127907671D01*
X249793793Y-127907664D01*
X249707547Y-127792455D01*
X249707544Y-127792452D01*
X249592335Y-127706206D01*
X249592328Y-127706202D01*
X249457482Y-127655908D01*
X249457483Y-127655908D01*
X249397883Y-127649501D01*
X249397881Y-127649500D01*
X249397873Y-127649500D01*
X249397864Y-127649500D01*
X247602129Y-127649500D01*
X247602123Y-127649501D01*
X247542516Y-127655908D01*
X247407671Y-127706202D01*
X247407664Y-127706206D01*
X247292455Y-127792452D01*
X247292452Y-127792455D01*
X247206206Y-127907664D01*
X247206202Y-127907671D01*
X247155908Y-128042517D01*
X247149501Y-128102116D01*
X247149501Y-128102123D01*
X247149500Y-128102135D01*
X247149500Y-128275500D01*
X247129815Y-128342539D01*
X247077011Y-128388294D01*
X247025500Y-128399500D01*
X245300940Y-128399500D01*
X245260019Y-128410464D01*
X245260019Y-128410465D01*
X245223957Y-128420128D01*
X245148214Y-128440423D01*
X245148209Y-128440426D01*
X245011290Y-128519475D01*
X245011282Y-128519481D01*
X244899478Y-128631286D01*
X244110440Y-129420323D01*
X244049117Y-129453808D01*
X243979425Y-129448824D01*
X243923492Y-129406952D01*
X243900286Y-129352040D01*
X243873402Y-129182301D01*
X243873402Y-129182299D01*
X243819873Y-129017555D01*
X243810751Y-128999652D01*
X243797855Y-128930987D01*
X243824130Y-128866246D01*
X243833546Y-128855687D01*
X246937822Y-125751412D01*
X246999143Y-125717929D01*
X247068835Y-125722913D01*
X247124768Y-125764785D01*
X247149185Y-125830249D01*
X247149501Y-125839095D01*
X247149501Y-125897876D01*
X247155908Y-125957483D01*
X247206202Y-126092328D01*
X247206206Y-126092335D01*
X247292452Y-126207544D01*
X247292455Y-126207547D01*
X247407664Y-126293793D01*
X247407671Y-126293797D01*
X247542517Y-126344091D01*
X247542516Y-126344091D01*
X247549444Y-126344835D01*
X247602127Y-126350500D01*
X249397872Y-126350499D01*
X249457483Y-126344091D01*
X249592331Y-126293796D01*
X249707546Y-126207546D01*
X249793796Y-126092331D01*
X249844091Y-125957483D01*
X249850500Y-125897873D01*
X249850499Y-124399997D01*
X252495034Y-124399997D01*
X252495034Y-124400002D01*
X252514858Y-124626599D01*
X252514860Y-124626610D01*
X252573730Y-124846317D01*
X252573735Y-124846331D01*
X252669863Y-125052478D01*
X252720974Y-125125472D01*
X253400000Y-124446446D01*
X253400000Y-124452661D01*
X253427259Y-124554394D01*
X253479920Y-124645606D01*
X253554394Y-124720080D01*
X253645606Y-124772741D01*
X253747339Y-124800000D01*
X253753553Y-124800000D01*
X253074526Y-125479025D01*
X253147513Y-125530132D01*
X253147521Y-125530136D01*
X253353668Y-125626264D01*
X253353682Y-125626269D01*
X253573389Y-125685139D01*
X253573400Y-125685141D01*
X253799998Y-125704966D01*
X253800002Y-125704966D01*
X254026599Y-125685141D01*
X254026610Y-125685139D01*
X254246317Y-125626269D01*
X254246331Y-125626264D01*
X254452478Y-125530136D01*
X254525471Y-125479024D01*
X253846447Y-124800000D01*
X253852661Y-124800000D01*
X253954394Y-124772741D01*
X254045606Y-124720080D01*
X254120080Y-124645606D01*
X254172741Y-124554394D01*
X254200000Y-124452661D01*
X254200000Y-124446447D01*
X254879024Y-125125471D01*
X254930136Y-125052478D01*
X255026264Y-124846331D01*
X255026269Y-124846317D01*
X255085139Y-124626610D01*
X255085141Y-124626599D01*
X255104966Y-124400002D01*
X255104966Y-124399997D01*
X255085141Y-124173400D01*
X255085139Y-124173389D01*
X255026269Y-123953682D01*
X255026264Y-123953668D01*
X254930136Y-123747521D01*
X254930132Y-123747513D01*
X254879025Y-123674526D01*
X254200000Y-124353551D01*
X254200000Y-124347339D01*
X254172741Y-124245606D01*
X254120080Y-124154394D01*
X254045606Y-124079920D01*
X253954394Y-124027259D01*
X253852661Y-124000000D01*
X253846448Y-124000000D01*
X254525472Y-123320974D01*
X254452478Y-123269863D01*
X254246331Y-123173735D01*
X254246317Y-123173730D01*
X254026610Y-123114860D01*
X254026599Y-123114858D01*
X253800002Y-123095034D01*
X253799998Y-123095034D01*
X253573400Y-123114858D01*
X253573389Y-123114860D01*
X253353682Y-123173730D01*
X253353673Y-123173734D01*
X253147516Y-123269866D01*
X253147512Y-123269868D01*
X253074526Y-123320973D01*
X253074526Y-123320974D01*
X253753553Y-124000000D01*
X253747339Y-124000000D01*
X253645606Y-124027259D01*
X253554394Y-124079920D01*
X253479920Y-124154394D01*
X253427259Y-124245606D01*
X253400000Y-124347339D01*
X253400000Y-124353552D01*
X252720974Y-123674526D01*
X252720973Y-123674526D01*
X252669868Y-123747512D01*
X252669866Y-123747516D01*
X252573734Y-123953673D01*
X252573730Y-123953682D01*
X252514860Y-124173389D01*
X252514858Y-124173400D01*
X252495034Y-124399997D01*
X249850499Y-124399997D01*
X249850499Y-124102128D01*
X249845299Y-124053757D01*
X249844091Y-124042516D01*
X249793797Y-123907671D01*
X249793793Y-123907664D01*
X249707547Y-123792455D01*
X249707544Y-123792452D01*
X249592335Y-123706206D01*
X249592328Y-123706202D01*
X249457482Y-123655908D01*
X249457483Y-123655908D01*
X249397883Y-123649501D01*
X249397881Y-123649500D01*
X249397873Y-123649500D01*
X249397864Y-123649500D01*
X247602129Y-123649500D01*
X247602123Y-123649501D01*
X247542516Y-123655908D01*
X247407671Y-123706202D01*
X247407664Y-123706206D01*
X247292455Y-123792452D01*
X247292452Y-123792455D01*
X247206206Y-123907664D01*
X247206202Y-123907671D01*
X247155908Y-124042517D01*
X247149501Y-124102116D01*
X247149501Y-124102123D01*
X247149500Y-124102135D01*
X247149500Y-124275500D01*
X247129815Y-124342539D01*
X247077011Y-124388294D01*
X247025500Y-124399500D01*
X246919057Y-124399500D01*
X246760942Y-124399500D01*
X246608215Y-124440423D01*
X246578667Y-124457483D01*
X246524975Y-124488481D01*
X246471285Y-124519479D01*
X246471282Y-124519481D01*
X246359478Y-124631286D01*
X244110003Y-126880760D01*
X244048680Y-126914245D01*
X243978988Y-126909261D01*
X243923055Y-126867389D01*
X243899849Y-126812477D01*
X243872913Y-126642415D01*
X243819408Y-126477742D01*
X243740804Y-126323475D01*
X243639032Y-126183397D01*
X243516602Y-126060967D01*
X243376524Y-125959195D01*
X243222257Y-125880591D01*
X243057584Y-125827085D01*
X242886571Y-125800000D01*
X242650000Y-125800000D01*
X242650000Y-126584314D01*
X242645606Y-126579920D01*
X242554394Y-126527259D01*
X242452661Y-126500000D01*
X242347339Y-126500000D01*
X242245606Y-126527259D01*
X242154394Y-126579920D01*
X242150000Y-126584314D01*
X242150000Y-125800000D01*
X241913429Y-125800000D01*
X241742415Y-125827085D01*
X241577742Y-125880591D01*
X241423475Y-125959195D01*
X241283397Y-126060967D01*
X241160967Y-126183397D01*
X241059195Y-126323475D01*
X240980591Y-126477744D01*
X240927085Y-126642415D01*
X240925884Y-126649999D01*
X240925885Y-126650000D01*
X242084314Y-126650000D01*
X242079920Y-126654394D01*
X242027259Y-126745606D01*
X242000000Y-126847339D01*
X242000000Y-126952661D01*
X242027259Y-127054394D01*
X242079920Y-127145606D01*
X242084314Y-127150000D01*
X240925885Y-127150000D01*
X240927085Y-127157584D01*
X240980591Y-127322255D01*
X241059195Y-127476524D01*
X241160967Y-127616602D01*
X241283397Y-127739032D01*
X241423475Y-127840804D01*
X241577742Y-127919408D01*
X241742415Y-127972914D01*
X241913429Y-128000000D01*
X242150000Y-128000000D01*
X242150000Y-127215686D01*
X242154394Y-127220080D01*
X242245606Y-127272741D01*
X242347339Y-127300000D01*
X242452661Y-127300000D01*
X242554394Y-127272741D01*
X242645606Y-127220080D01*
X242650000Y-127215686D01*
X242650000Y-128000000D01*
X242691403Y-128000000D01*
X242758442Y-128019685D01*
X242804197Y-128072489D01*
X242814141Y-128141647D01*
X242785116Y-128205203D01*
X242779084Y-128211681D01*
X242687584Y-128303181D01*
X242626261Y-128336666D01*
X242599903Y-128339500D01*
X241913389Y-128339500D01*
X241894202Y-128342539D01*
X241742302Y-128366597D01*
X241577552Y-128420128D01*
X241423211Y-128498768D01*
X241349035Y-128552661D01*
X241283072Y-128600586D01*
X241283070Y-128600588D01*
X241283069Y-128600588D01*
X241160588Y-128723069D01*
X241160588Y-128723070D01*
X241160586Y-128723072D01*
X241144214Y-128745606D01*
X241058768Y-128863211D01*
X240980128Y-129017552D01*
X240926597Y-129182302D01*
X240899500Y-129353389D01*
X218500500Y-129353389D01*
X218473402Y-129182299D01*
X218419873Y-129017555D01*
X218341232Y-128863212D01*
X218239414Y-128723072D01*
X218116928Y-128600586D01*
X217976788Y-128498768D01*
X217862284Y-128440426D01*
X217822447Y-128420128D01*
X217822446Y-128420127D01*
X217822445Y-128420127D01*
X217657701Y-128366598D01*
X217657699Y-128366597D01*
X217657698Y-128366597D01*
X217505798Y-128342539D01*
X217486611Y-128339500D01*
X216513389Y-128339500D01*
X216494202Y-128342539D01*
X216342302Y-128366597D01*
X216177552Y-128420128D01*
X216023211Y-128498768D01*
X215949035Y-128552661D01*
X215883072Y-128600586D01*
X215883070Y-128600588D01*
X215883069Y-128600588D01*
X215760588Y-128723069D01*
X215760588Y-128723070D01*
X215760586Y-128723072D01*
X215744214Y-128745606D01*
X215658768Y-128863211D01*
X215580128Y-129017552D01*
X215526597Y-129182302D01*
X215499500Y-129353389D01*
X198125500Y-129353389D01*
X198125500Y-126602135D01*
X206149500Y-126602135D01*
X206149500Y-128397870D01*
X206149501Y-128397876D01*
X206155908Y-128457483D01*
X206206202Y-128592328D01*
X206206206Y-128592335D01*
X206292452Y-128707544D01*
X206292455Y-128707547D01*
X206407664Y-128793793D01*
X206407671Y-128793797D01*
X206542517Y-128844091D01*
X206542516Y-128844091D01*
X206549444Y-128844835D01*
X206602127Y-128850500D01*
X208397872Y-128850499D01*
X208457483Y-128844091D01*
X208592331Y-128793796D01*
X208707546Y-128707546D01*
X208793796Y-128592331D01*
X208844091Y-128457483D01*
X208850500Y-128397873D01*
X208850499Y-126602128D01*
X208844091Y-126542517D01*
X208828233Y-126500000D01*
X208793797Y-126407671D01*
X208793793Y-126407664D01*
X208707547Y-126292455D01*
X208707544Y-126292452D01*
X208653688Y-126252135D01*
X215499500Y-126252135D01*
X215499500Y-127547870D01*
X215499501Y-127547876D01*
X215505908Y-127607483D01*
X215556202Y-127742328D01*
X215556206Y-127742335D01*
X215642452Y-127857544D01*
X215642455Y-127857547D01*
X215757664Y-127943793D01*
X215757671Y-127943797D01*
X215892517Y-127994091D01*
X215892516Y-127994091D01*
X215899444Y-127994835D01*
X215952127Y-128000500D01*
X218047872Y-128000499D01*
X218107483Y-127994091D01*
X218242331Y-127943796D01*
X218357546Y-127857546D01*
X218443796Y-127742331D01*
X218494091Y-127607483D01*
X218500500Y-127547873D01*
X218500499Y-126252128D01*
X218494091Y-126192517D01*
X218490689Y-126183397D01*
X218443797Y-126057671D01*
X218443793Y-126057664D01*
X218357547Y-125942455D01*
X218357544Y-125942452D01*
X218242335Y-125856206D01*
X218242328Y-125856202D01*
X218107482Y-125805908D01*
X218107483Y-125805908D01*
X218047883Y-125799501D01*
X218047881Y-125799500D01*
X218047873Y-125799500D01*
X218047864Y-125799500D01*
X215952129Y-125799500D01*
X215952123Y-125799501D01*
X215892516Y-125805908D01*
X215757671Y-125856202D01*
X215757664Y-125856206D01*
X215642455Y-125942452D01*
X215642452Y-125942455D01*
X215556206Y-126057664D01*
X215556202Y-126057671D01*
X215505908Y-126192517D01*
X215499501Y-126252116D01*
X215499501Y-126252123D01*
X215499500Y-126252135D01*
X208653688Y-126252135D01*
X208592335Y-126206206D01*
X208592328Y-126206202D01*
X208457482Y-126155908D01*
X208457483Y-126155908D01*
X208397883Y-126149501D01*
X208397881Y-126149500D01*
X208397873Y-126149500D01*
X208397864Y-126149500D01*
X206602129Y-126149500D01*
X206602123Y-126149501D01*
X206542516Y-126155908D01*
X206407671Y-126206202D01*
X206407664Y-126206206D01*
X206292455Y-126292452D01*
X206292452Y-126292455D01*
X206206206Y-126407664D01*
X206206202Y-126407671D01*
X206155908Y-126542517D01*
X206149501Y-126602116D01*
X206149501Y-126602123D01*
X206149500Y-126602135D01*
X198125500Y-126602135D01*
X198125500Y-122602135D01*
X206149500Y-122602135D01*
X206149500Y-124397870D01*
X206149501Y-124397876D01*
X206155908Y-124457483D01*
X206206202Y-124592328D01*
X206206206Y-124592335D01*
X206292452Y-124707544D01*
X206292455Y-124707547D01*
X206407664Y-124793793D01*
X206407671Y-124793797D01*
X206542517Y-124844091D01*
X206542516Y-124844091D01*
X206549444Y-124844835D01*
X206602127Y-124850500D01*
X208397872Y-124850499D01*
X208457483Y-124844091D01*
X208592331Y-124793796D01*
X208707546Y-124707546D01*
X208793796Y-124592331D01*
X208844091Y-124457483D01*
X208850500Y-124397873D01*
X208850499Y-122602128D01*
X208844091Y-122542517D01*
X208812375Y-122457483D01*
X208793797Y-122407671D01*
X208793793Y-122407664D01*
X208707547Y-122292455D01*
X208707544Y-122292452D01*
X208592335Y-122206206D01*
X208592328Y-122206202D01*
X208457482Y-122155908D01*
X208457483Y-122155908D01*
X208397883Y-122149501D01*
X208397881Y-122149500D01*
X208397873Y-122149500D01*
X208397864Y-122149500D01*
X206602129Y-122149500D01*
X206602123Y-122149501D01*
X206542516Y-122155908D01*
X206407671Y-122206202D01*
X206407664Y-122206206D01*
X206292455Y-122292452D01*
X206292452Y-122292455D01*
X206206206Y-122407664D01*
X206206202Y-122407671D01*
X206155908Y-122542517D01*
X206149501Y-122602116D01*
X206149501Y-122602123D01*
X206149500Y-122602135D01*
X198125500Y-122602135D01*
X198125500Y-120602135D01*
X211149500Y-120602135D01*
X211149500Y-122397870D01*
X211149501Y-122397876D01*
X211155908Y-122457483D01*
X211206202Y-122592328D01*
X211206206Y-122592335D01*
X211292452Y-122707544D01*
X211292455Y-122707547D01*
X211407664Y-122793793D01*
X211407671Y-122793797D01*
X211542517Y-122844091D01*
X211542516Y-122844091D01*
X211549444Y-122844835D01*
X211602127Y-122850500D01*
X213397872Y-122850499D01*
X213457483Y-122844091D01*
X213592331Y-122793796D01*
X213707546Y-122707546D01*
X213793796Y-122592331D01*
X213844091Y-122457483D01*
X213850500Y-122397873D01*
X213850499Y-120602135D01*
X216149500Y-120602135D01*
X216149500Y-122397870D01*
X216149501Y-122397876D01*
X216155908Y-122457483D01*
X216206202Y-122592328D01*
X216206206Y-122592335D01*
X216292452Y-122707544D01*
X216292455Y-122707547D01*
X216407664Y-122793793D01*
X216407671Y-122793797D01*
X216542517Y-122844091D01*
X216542516Y-122844091D01*
X216549444Y-122844835D01*
X216602127Y-122850500D01*
X218397872Y-122850499D01*
X218457483Y-122844091D01*
X218592331Y-122793796D01*
X218707546Y-122707546D01*
X218793796Y-122592331D01*
X218844091Y-122457483D01*
X218850500Y-122397873D01*
X218850500Y-122324500D01*
X218870185Y-122257461D01*
X218922989Y-122211706D01*
X218974500Y-122200500D01*
X242268996Y-122200500D01*
X242360040Y-122182389D01*
X242404328Y-122173580D01*
X242531811Y-122120775D01*
X242577815Y-122090035D01*
X242605746Y-122076097D01*
X242749522Y-122025789D01*
X242902262Y-121929816D01*
X243029816Y-121802262D01*
X243125789Y-121649522D01*
X243185368Y-121479255D01*
X243185369Y-121479249D01*
X243205565Y-121300003D01*
X243205565Y-121299996D01*
X243185369Y-121120750D01*
X243185368Y-121120745D01*
X243153326Y-121029174D01*
X243125789Y-120950478D01*
X243124278Y-120948074D01*
X243030923Y-120799500D01*
X243029816Y-120797738D01*
X242902262Y-120670184D01*
X242793963Y-120602135D01*
X242749523Y-120574211D01*
X242579254Y-120514631D01*
X242579249Y-120514630D01*
X242400004Y-120494435D01*
X242399996Y-120494435D01*
X242220750Y-120514630D01*
X242220745Y-120514631D01*
X242050476Y-120574211D01*
X241897739Y-120670183D01*
X241804740Y-120763182D01*
X241743416Y-120796666D01*
X241717059Y-120799500D01*
X218974499Y-120799500D01*
X218907460Y-120779815D01*
X218861705Y-120727011D01*
X218850499Y-120675500D01*
X218850499Y-120602129D01*
X218850498Y-120602123D01*
X218850497Y-120602116D01*
X218844091Y-120542517D01*
X218833690Y-120514631D01*
X218793797Y-120407671D01*
X218793793Y-120407664D01*
X218707547Y-120292455D01*
X218707544Y-120292452D01*
X218592335Y-120206206D01*
X218592328Y-120206202D01*
X218457482Y-120155908D01*
X218457483Y-120155908D01*
X218397883Y-120149501D01*
X218397881Y-120149500D01*
X218397873Y-120149500D01*
X218397864Y-120149500D01*
X216602129Y-120149500D01*
X216602123Y-120149501D01*
X216542516Y-120155908D01*
X216407671Y-120206202D01*
X216407664Y-120206206D01*
X216292455Y-120292452D01*
X216292452Y-120292455D01*
X216206206Y-120407664D01*
X216206202Y-120407671D01*
X216155908Y-120542517D01*
X216149501Y-120602116D01*
X216149501Y-120602123D01*
X216149500Y-120602135D01*
X213850499Y-120602135D01*
X213850499Y-120602128D01*
X213844091Y-120542517D01*
X213833690Y-120514631D01*
X213793797Y-120407671D01*
X213793793Y-120407664D01*
X213707547Y-120292455D01*
X213707544Y-120292452D01*
X213592335Y-120206206D01*
X213592328Y-120206202D01*
X213457482Y-120155908D01*
X213457483Y-120155908D01*
X213397883Y-120149501D01*
X213397881Y-120149500D01*
X213397873Y-120149500D01*
X213397864Y-120149500D01*
X211602129Y-120149500D01*
X211602123Y-120149501D01*
X211542516Y-120155908D01*
X211407671Y-120206202D01*
X211407664Y-120206206D01*
X211292455Y-120292452D01*
X211292452Y-120292455D01*
X211206206Y-120407664D01*
X211206202Y-120407671D01*
X211155908Y-120542517D01*
X211149501Y-120602116D01*
X211149501Y-120602123D01*
X211149500Y-120602135D01*
X198125500Y-120602135D01*
X198125500Y-119499996D01*
X250294435Y-119499996D01*
X250294435Y-119500003D01*
X250314630Y-119679249D01*
X250314631Y-119679254D01*
X250374211Y-119849523D01*
X250401813Y-119893451D01*
X250470184Y-120002262D01*
X250597738Y-120129816D01*
X250688080Y-120186582D01*
X250748426Y-120224500D01*
X250750478Y-120225789D01*
X250890015Y-120274615D01*
X250920745Y-120285368D01*
X250920750Y-120285369D01*
X251099996Y-120305565D01*
X251100000Y-120305565D01*
X251100004Y-120305565D01*
X251279249Y-120285369D01*
X251279252Y-120285368D01*
X251279255Y-120285368D01*
X251449522Y-120225789D01*
X251602262Y-120129816D01*
X251602267Y-120129810D01*
X251605097Y-120127555D01*
X251607275Y-120126665D01*
X251608158Y-120126111D01*
X251608255Y-120126265D01*
X251669783Y-120101145D01*
X251682412Y-120100500D01*
X256953501Y-120100500D01*
X257020540Y-120120185D01*
X257066295Y-120172989D01*
X257077501Y-120224500D01*
X257077501Y-120269876D01*
X257083908Y-120329483D01*
X257134202Y-120464328D01*
X257134206Y-120464335D01*
X257220452Y-120579544D01*
X257220455Y-120579547D01*
X257335664Y-120665793D01*
X257335671Y-120665797D01*
X257470517Y-120716091D01*
X257470516Y-120716091D01*
X257477444Y-120716835D01*
X257530127Y-120722500D01*
X257570079Y-120722499D01*
X257637116Y-120742182D01*
X257682872Y-120794985D01*
X257692817Y-120864143D01*
X257663794Y-120927700D01*
X257641203Y-120948074D01*
X257525375Y-121029177D01*
X257369175Y-121185377D01*
X257242466Y-121366338D01*
X257242465Y-121366340D01*
X257149107Y-121566548D01*
X257149104Y-121566554D01*
X257091930Y-121779929D01*
X257091929Y-121779937D01*
X257072677Y-121999997D01*
X257072677Y-122000002D01*
X257091929Y-122220062D01*
X257091930Y-122220070D01*
X257149104Y-122433445D01*
X257149105Y-122433447D01*
X257149106Y-122433450D01*
X257160313Y-122457483D01*
X257242466Y-122633662D01*
X257242468Y-122633666D01*
X257369170Y-122814615D01*
X257369175Y-122814621D01*
X257525378Y-122970824D01*
X257525384Y-122970829D01*
X257706333Y-123097531D01*
X257706335Y-123097532D01*
X257706338Y-123097534D01*
X257906550Y-123190894D01*
X258119932Y-123248070D01*
X258277123Y-123261822D01*
X258339998Y-123267323D01*
X258340000Y-123267323D01*
X258340002Y-123267323D01*
X258395017Y-123262509D01*
X258560068Y-123248070D01*
X258773450Y-123190894D01*
X258973662Y-123097534D01*
X259154620Y-122970826D01*
X259310826Y-122814620D01*
X259437534Y-122633662D01*
X259530894Y-122433450D01*
X259588070Y-122220068D01*
X259607323Y-122000000D01*
X259588070Y-121779932D01*
X259530894Y-121566550D01*
X259437534Y-121366339D01*
X259310826Y-121185380D01*
X259154620Y-121029174D01*
X259154616Y-121029171D01*
X259154615Y-121029170D01*
X259038797Y-120948074D01*
X258995172Y-120893497D01*
X258987978Y-120823999D01*
X259019501Y-120761644D01*
X259079730Y-120726230D01*
X259109919Y-120722499D01*
X259149872Y-120722499D01*
X259209483Y-120716091D01*
X259344331Y-120665796D01*
X259459546Y-120579546D01*
X259545796Y-120464331D01*
X259596091Y-120329483D01*
X259602500Y-120269873D01*
X259602499Y-119459997D01*
X267232677Y-119459997D01*
X267232677Y-119460002D01*
X267251929Y-119680062D01*
X267251930Y-119680070D01*
X267309104Y-119893445D01*
X267309105Y-119893447D01*
X267309106Y-119893450D01*
X267359846Y-120002262D01*
X267402466Y-120093662D01*
X267402468Y-120093666D01*
X267529170Y-120274615D01*
X267529175Y-120274621D01*
X267685378Y-120430824D01*
X267685384Y-120430829D01*
X267866333Y-120557531D01*
X267866335Y-120557532D01*
X267866338Y-120557534D01*
X267961971Y-120602128D01*
X267995189Y-120617618D01*
X268047628Y-120663790D01*
X268066780Y-120730984D01*
X268046564Y-120797865D01*
X267995189Y-120842382D01*
X267866340Y-120902465D01*
X267866338Y-120902466D01*
X267685377Y-121029175D01*
X267529175Y-121185377D01*
X267402466Y-121366338D01*
X267402465Y-121366340D01*
X267309107Y-121566548D01*
X267309104Y-121566554D01*
X267251930Y-121779929D01*
X267251929Y-121779937D01*
X267232677Y-121999997D01*
X267232677Y-122000002D01*
X267251929Y-122220062D01*
X267251930Y-122220070D01*
X267309104Y-122433445D01*
X267309105Y-122433447D01*
X267309106Y-122433450D01*
X267320313Y-122457483D01*
X267402466Y-122633662D01*
X267402468Y-122633666D01*
X267529170Y-122814615D01*
X267529175Y-122814621D01*
X267685378Y-122970824D01*
X267685384Y-122970829D01*
X267866333Y-123097531D01*
X267866335Y-123097532D01*
X267866338Y-123097534D01*
X268066550Y-123190894D01*
X268279932Y-123248070D01*
X268437123Y-123261822D01*
X268499998Y-123267323D01*
X268500000Y-123267323D01*
X268500002Y-123267323D01*
X268555017Y-123262509D01*
X268720068Y-123248070D01*
X268933450Y-123190894D01*
X269133662Y-123097534D01*
X269314620Y-122970826D01*
X269470826Y-122814620D01*
X269597534Y-122633662D01*
X269690894Y-122433450D01*
X269748070Y-122220068D01*
X269767323Y-122000000D01*
X269748070Y-121779932D01*
X269690894Y-121566550D01*
X269597534Y-121366339D01*
X269470826Y-121185380D01*
X269314620Y-121029174D01*
X269314616Y-121029171D01*
X269314615Y-121029170D01*
X269133666Y-120902468D01*
X269133658Y-120902464D01*
X269004811Y-120842382D01*
X268952371Y-120796210D01*
X268933219Y-120729017D01*
X268953435Y-120662135D01*
X269004811Y-120617618D01*
X269038029Y-120602128D01*
X269133662Y-120557534D01*
X269314620Y-120430826D01*
X269470826Y-120274620D01*
X269597534Y-120093662D01*
X269690894Y-119893450D01*
X269748070Y-119680068D01*
X269767323Y-119460000D01*
X269748070Y-119239932D01*
X269690894Y-119026550D01*
X269597534Y-118826339D01*
X269534180Y-118735859D01*
X269470827Y-118645381D01*
X269415962Y-118590516D01*
X269314620Y-118489174D01*
X269314616Y-118489171D01*
X269314615Y-118489170D01*
X269133666Y-118362468D01*
X269133662Y-118362466D01*
X269086457Y-118340454D01*
X268933450Y-118269106D01*
X268933447Y-118269105D01*
X268933445Y-118269104D01*
X268720070Y-118211930D01*
X268720062Y-118211929D01*
X268500002Y-118192677D01*
X268499998Y-118192677D01*
X268279937Y-118211929D01*
X268279929Y-118211930D01*
X268066554Y-118269104D01*
X268066548Y-118269107D01*
X267866340Y-118362465D01*
X267866338Y-118362466D01*
X267685377Y-118489175D01*
X267529175Y-118645377D01*
X267402466Y-118826338D01*
X267402465Y-118826340D01*
X267309107Y-119026548D01*
X267309104Y-119026554D01*
X267251930Y-119239929D01*
X267251929Y-119239937D01*
X267232677Y-119459997D01*
X259602499Y-119459997D01*
X259602499Y-118650128D01*
X259596091Y-118590517D01*
X259545796Y-118455669D01*
X259545795Y-118455668D01*
X259545793Y-118455664D01*
X259459547Y-118340455D01*
X259459544Y-118340452D01*
X259344335Y-118254206D01*
X259344328Y-118254202D01*
X259209482Y-118203908D01*
X259209483Y-118203908D01*
X259149883Y-118197501D01*
X259149881Y-118197500D01*
X259149873Y-118197500D01*
X259149864Y-118197500D01*
X257530129Y-118197500D01*
X257530123Y-118197501D01*
X257470516Y-118203908D01*
X257335671Y-118254202D01*
X257335664Y-118254206D01*
X257220455Y-118340452D01*
X257220452Y-118340455D01*
X257134206Y-118455664D01*
X257134202Y-118455671D01*
X257083908Y-118590517D01*
X257078010Y-118645380D01*
X257077501Y-118650123D01*
X257077500Y-118650135D01*
X257077500Y-118775500D01*
X257057815Y-118842539D01*
X257005011Y-118888294D01*
X256953500Y-118899500D01*
X251682412Y-118899500D01*
X251615373Y-118879815D01*
X251605097Y-118872445D01*
X251602263Y-118870185D01*
X251602262Y-118870184D01*
X251532482Y-118826338D01*
X251449523Y-118774211D01*
X251279254Y-118714631D01*
X251279249Y-118714630D01*
X251100004Y-118694435D01*
X251099996Y-118694435D01*
X250920750Y-118714630D01*
X250920745Y-118714631D01*
X250750476Y-118774211D01*
X250597737Y-118870184D01*
X250470184Y-118997737D01*
X250374211Y-119150476D01*
X250314631Y-119320745D01*
X250314630Y-119320750D01*
X250294435Y-119499996D01*
X198125500Y-119499996D01*
X198125500Y-115439998D01*
X206614532Y-115439998D01*
X206614532Y-115440001D01*
X206634364Y-115666686D01*
X206634366Y-115666697D01*
X206693258Y-115886488D01*
X206693261Y-115886497D01*
X206789431Y-116092732D01*
X206789432Y-116092734D01*
X206919954Y-116279141D01*
X207080858Y-116440045D01*
X207080861Y-116440047D01*
X207267266Y-116570568D01*
X207473504Y-116666739D01*
X207693308Y-116725635D01*
X207855230Y-116739801D01*
X207919998Y-116745468D01*
X207920000Y-116745468D01*
X207920002Y-116745468D01*
X207976673Y-116740509D01*
X208146692Y-116725635D01*
X208366496Y-116666739D01*
X208572734Y-116570568D01*
X208759139Y-116440047D01*
X208920047Y-116279139D01*
X209050568Y-116092734D01*
X209146739Y-115886496D01*
X209205635Y-115666692D01*
X209225468Y-115440000D01*
X209225468Y-115439998D01*
X216774532Y-115439998D01*
X216774532Y-115440001D01*
X216794364Y-115666686D01*
X216794366Y-115666697D01*
X216853258Y-115886488D01*
X216853261Y-115886497D01*
X216949431Y-116092732D01*
X216949432Y-116092734D01*
X217079954Y-116279141D01*
X217240858Y-116440045D01*
X217240861Y-116440047D01*
X217427266Y-116570568D01*
X217633504Y-116666739D01*
X217853308Y-116725635D01*
X218015230Y-116739801D01*
X218079998Y-116745468D01*
X218080000Y-116745468D01*
X218080002Y-116745468D01*
X218136673Y-116740509D01*
X218306692Y-116725635D01*
X218526496Y-116666739D01*
X218732734Y-116570568D01*
X218919139Y-116440047D01*
X219080047Y-116279139D01*
X219210568Y-116092734D01*
X219306739Y-115886496D01*
X219365635Y-115666692D01*
X219385468Y-115440000D01*
X219365635Y-115213308D01*
X219306739Y-114993504D01*
X219210568Y-114787266D01*
X219080047Y-114600861D01*
X219080045Y-114600858D01*
X218919141Y-114439954D01*
X218862074Y-114399996D01*
X224394435Y-114399996D01*
X224394435Y-114400003D01*
X224414630Y-114579249D01*
X224414631Y-114579254D01*
X224474211Y-114749523D01*
X224514380Y-114813451D01*
X224570184Y-114902262D01*
X224697738Y-115029816D01*
X224850478Y-115125789D01*
X225020745Y-115185368D01*
X225020750Y-115185369D01*
X225199996Y-115205565D01*
X225200000Y-115205565D01*
X225200004Y-115205565D01*
X225379249Y-115185369D01*
X225379252Y-115185368D01*
X225379255Y-115185368D01*
X225549522Y-115125789D01*
X225702262Y-115029816D01*
X225829816Y-114902262D01*
X225829818Y-114902259D01*
X225832165Y-114898525D01*
X225884501Y-114852235D01*
X225937157Y-114840500D01*
X252568308Y-114840500D01*
X252635347Y-114860185D01*
X252669880Y-114893374D01*
X252676104Y-114902262D01*
X252799954Y-115079141D01*
X252960858Y-115240045D01*
X252960861Y-115240047D01*
X253147266Y-115370568D01*
X253353504Y-115466739D01*
X253353509Y-115466740D01*
X253353511Y-115466741D01*
X253393788Y-115477533D01*
X253573308Y-115525635D01*
X253735230Y-115539801D01*
X253799998Y-115545468D01*
X253800000Y-115545468D01*
X253800002Y-115545468D01*
X253856673Y-115540509D01*
X254026692Y-115525635D01*
X254246496Y-115466739D01*
X254452734Y-115370568D01*
X254639139Y-115240047D01*
X254800047Y-115079139D01*
X254930568Y-114892734D01*
X255026739Y-114686496D01*
X255085635Y-114466692D01*
X255105468Y-114240000D01*
X255103783Y-114220745D01*
X255088887Y-114050478D01*
X255085635Y-114013308D01*
X255026739Y-113793504D01*
X254930568Y-113587266D01*
X254812845Y-113419139D01*
X254800045Y-113400858D01*
X254639141Y-113239954D01*
X254452734Y-113109432D01*
X254452732Y-113109431D01*
X254246497Y-113013261D01*
X254246488Y-113013258D01*
X254026697Y-112954366D01*
X254026693Y-112954365D01*
X254026692Y-112954365D01*
X254026691Y-112954364D01*
X254026686Y-112954364D01*
X253800002Y-112934532D01*
X253799998Y-112934532D01*
X253573313Y-112954364D01*
X253573302Y-112954366D01*
X253353511Y-113013258D01*
X253353502Y-113013261D01*
X253147267Y-113109431D01*
X253147265Y-113109432D01*
X252960858Y-113239954D01*
X252799954Y-113400858D01*
X252744508Y-113480045D01*
X252669881Y-113586624D01*
X252615307Y-113630248D01*
X252568308Y-113639500D01*
X225471393Y-113639500D01*
X225430438Y-113632541D01*
X225379262Y-113614633D01*
X225379249Y-113614630D01*
X225200004Y-113594435D01*
X225199996Y-113594435D01*
X225020750Y-113614630D01*
X225020745Y-113614631D01*
X224850476Y-113674211D01*
X224697737Y-113770184D01*
X224570184Y-113897737D01*
X224474211Y-114050476D01*
X224414631Y-114220745D01*
X224414630Y-114220750D01*
X224394435Y-114399996D01*
X218862074Y-114399996D01*
X218732734Y-114309432D01*
X218732732Y-114309431D01*
X218526497Y-114213261D01*
X218526488Y-114213258D01*
X218306697Y-114154366D01*
X218306693Y-114154365D01*
X218306692Y-114154365D01*
X218306691Y-114154364D01*
X218306686Y-114154364D01*
X218080002Y-114134532D01*
X218079998Y-114134532D01*
X217853313Y-114154364D01*
X217853302Y-114154366D01*
X217633511Y-114213258D01*
X217633502Y-114213261D01*
X217427267Y-114309431D01*
X217427265Y-114309432D01*
X217240858Y-114439954D01*
X217079954Y-114600858D01*
X216949432Y-114787265D01*
X216949431Y-114787267D01*
X216853261Y-114993502D01*
X216853258Y-114993511D01*
X216794366Y-115213302D01*
X216794364Y-115213313D01*
X216774532Y-115439998D01*
X209225468Y-115439998D01*
X209205635Y-115213308D01*
X209146739Y-114993504D01*
X209050568Y-114787266D01*
X208920047Y-114600861D01*
X208920045Y-114600858D01*
X208759141Y-114439954D01*
X208572734Y-114309432D01*
X208572732Y-114309431D01*
X208366497Y-114213261D01*
X208366488Y-114213258D01*
X208146697Y-114154366D01*
X208146693Y-114154365D01*
X208146692Y-114154365D01*
X208146691Y-114154364D01*
X208146686Y-114154364D01*
X207920002Y-114134532D01*
X207919998Y-114134532D01*
X207693313Y-114154364D01*
X207693302Y-114154366D01*
X207473511Y-114213258D01*
X207473502Y-114213261D01*
X207267267Y-114309431D01*
X207267265Y-114309432D01*
X207080858Y-114439954D01*
X206919954Y-114600858D01*
X206789432Y-114787265D01*
X206789431Y-114787267D01*
X206693261Y-114993502D01*
X206693258Y-114993511D01*
X206634366Y-115213302D01*
X206634364Y-115213313D01*
X206614532Y-115439998D01*
X198125500Y-115439998D01*
X198125500Y-112579998D01*
X199094532Y-112579998D01*
X199094532Y-112580001D01*
X199114364Y-112806686D01*
X199114366Y-112806697D01*
X199173258Y-113026488D01*
X199173261Y-113026497D01*
X199269431Y-113232732D01*
X199269432Y-113232734D01*
X199399954Y-113419141D01*
X199560858Y-113580045D01*
X199571169Y-113587265D01*
X199747266Y-113710568D01*
X199953504Y-113806739D01*
X200173308Y-113865635D01*
X200335230Y-113879801D01*
X200399998Y-113885468D01*
X200400000Y-113885468D01*
X200400002Y-113885468D01*
X200456673Y-113880509D01*
X200626692Y-113865635D01*
X200846496Y-113806739D01*
X201052734Y-113710568D01*
X201239139Y-113580047D01*
X201400047Y-113419139D01*
X201530568Y-113232734D01*
X201568171Y-113152095D01*
X201614344Y-113099656D01*
X201680553Y-113080500D01*
X203568308Y-113080500D01*
X203635347Y-113100185D01*
X203669880Y-113133374D01*
X203755480Y-113255624D01*
X203799954Y-113319141D01*
X203960858Y-113480045D01*
X203960861Y-113480047D01*
X204147266Y-113610568D01*
X204353504Y-113706739D01*
X204573308Y-113765635D01*
X204735230Y-113779801D01*
X204799998Y-113785468D01*
X204800000Y-113785468D01*
X204800002Y-113785468D01*
X204856673Y-113780509D01*
X205026692Y-113765635D01*
X205246496Y-113706739D01*
X205452734Y-113610568D01*
X205639139Y-113480047D01*
X205800047Y-113319139D01*
X205930568Y-113132734D01*
X206026739Y-112926496D01*
X206085635Y-112706692D01*
X206105468Y-112480000D01*
X206104913Y-112473662D01*
X206087895Y-112279139D01*
X206085635Y-112253308D01*
X206026739Y-112033504D01*
X205930568Y-111827266D01*
X205800047Y-111640861D01*
X205800045Y-111640858D01*
X205639141Y-111479954D01*
X205582077Y-111439998D01*
X206614532Y-111439998D01*
X206614532Y-111440001D01*
X206634364Y-111666686D01*
X206634366Y-111666697D01*
X206693258Y-111886488D01*
X206693261Y-111886497D01*
X206789431Y-112092732D01*
X206789432Y-112092734D01*
X206919954Y-112279141D01*
X207080858Y-112440045D01*
X207090030Y-112446467D01*
X207267266Y-112570568D01*
X207473504Y-112666739D01*
X207693308Y-112725635D01*
X207855230Y-112739801D01*
X207919998Y-112745468D01*
X207920000Y-112745468D01*
X207920002Y-112745468D01*
X207976673Y-112740509D01*
X208146692Y-112725635D01*
X208366496Y-112666739D01*
X208572734Y-112570568D01*
X208759139Y-112440047D01*
X208920047Y-112279139D01*
X209050568Y-112092734D01*
X209146739Y-111886496D01*
X209205635Y-111666692D01*
X209225468Y-111440000D01*
X209225468Y-111439998D01*
X216774532Y-111439998D01*
X216774532Y-111440001D01*
X216794364Y-111666686D01*
X216794366Y-111666697D01*
X216853258Y-111886488D01*
X216853261Y-111886497D01*
X216949431Y-112092732D01*
X216949432Y-112092734D01*
X217079954Y-112279141D01*
X217240858Y-112440045D01*
X217250030Y-112446467D01*
X217427266Y-112570568D01*
X217633504Y-112666739D01*
X217853308Y-112725635D01*
X218015230Y-112739801D01*
X218079998Y-112745468D01*
X218080000Y-112745468D01*
X218080002Y-112745468D01*
X218136673Y-112740509D01*
X218306692Y-112725635D01*
X218526496Y-112666739D01*
X218732734Y-112570568D01*
X218919139Y-112440047D01*
X219080047Y-112279139D01*
X219210568Y-112092734D01*
X219306739Y-111886496D01*
X219365635Y-111666692D01*
X219385468Y-111440000D01*
X219365635Y-111213308D01*
X219315182Y-111025013D01*
X238450000Y-111025013D01*
X238450000Y-111550000D01*
X239395854Y-111550000D01*
X239357370Y-111616657D01*
X239325000Y-111737465D01*
X239325000Y-111862535D01*
X239357370Y-111983343D01*
X239395854Y-112050000D01*
X238450001Y-112050000D01*
X238450001Y-112574986D01*
X238460494Y-112677697D01*
X238515641Y-112844119D01*
X238515643Y-112844124D01*
X238607684Y-112993345D01*
X238731654Y-113117315D01*
X238880875Y-113209356D01*
X238880880Y-113209358D01*
X239047302Y-113264505D01*
X239047309Y-113264506D01*
X239150019Y-113274999D01*
X239549999Y-113274999D01*
X239550000Y-113274998D01*
X239550000Y-112204145D01*
X239616657Y-112242630D01*
X239737465Y-112275000D01*
X239862535Y-112275000D01*
X239983343Y-112242630D01*
X240050000Y-112204145D01*
X240050000Y-113274999D01*
X240449972Y-113274999D01*
X240449986Y-113274998D01*
X240552697Y-113264505D01*
X240719119Y-113209358D01*
X240719124Y-113209356D01*
X240868345Y-113117315D01*
X240992317Y-112993343D01*
X241087815Y-112838516D01*
X241139763Y-112791791D01*
X241208725Y-112780568D01*
X241272808Y-112808412D01*
X241281035Y-112815931D01*
X241420213Y-112955109D01*
X241592179Y-113080048D01*
X241592181Y-113080049D01*
X241592184Y-113080051D01*
X241781588Y-113176557D01*
X241983757Y-113242246D01*
X242193713Y-113275500D01*
X242193714Y-113275500D01*
X242406286Y-113275500D01*
X242406287Y-113275500D01*
X242616243Y-113242246D01*
X242818412Y-113176557D01*
X243007816Y-113080051D01*
X243060003Y-113042135D01*
X243179786Y-112955109D01*
X243179788Y-112955106D01*
X243179792Y-112955104D01*
X243330104Y-112804792D01*
X243449683Y-112640204D01*
X243505011Y-112597540D01*
X243574624Y-112591561D01*
X243636420Y-112624166D01*
X243650313Y-112640199D01*
X243726795Y-112745468D01*
X243769896Y-112804792D01*
X243920213Y-112955109D01*
X244092179Y-113080048D01*
X244092181Y-113080049D01*
X244092184Y-113080051D01*
X244281588Y-113176557D01*
X244483757Y-113242246D01*
X244693713Y-113275500D01*
X244693714Y-113275500D01*
X244906286Y-113275500D01*
X244906287Y-113275500D01*
X245116243Y-113242246D01*
X245318412Y-113176557D01*
X245507816Y-113080051D01*
X245560003Y-113042135D01*
X245679786Y-112955109D01*
X245679788Y-112955106D01*
X245679792Y-112955104D01*
X245830104Y-112804792D01*
X245949683Y-112640204D01*
X246005011Y-112597540D01*
X246074624Y-112591561D01*
X246136420Y-112624166D01*
X246150313Y-112640199D01*
X246226795Y-112745468D01*
X246269896Y-112804792D01*
X246420213Y-112955109D01*
X246592179Y-113080048D01*
X246592181Y-113080049D01*
X246592184Y-113080051D01*
X246781588Y-113176557D01*
X246983757Y-113242246D01*
X247193713Y-113275500D01*
X247193714Y-113275500D01*
X247406286Y-113275500D01*
X247406287Y-113275500D01*
X247616243Y-113242246D01*
X247818412Y-113176557D01*
X248007816Y-113080051D01*
X248060003Y-113042135D01*
X248179786Y-112955109D01*
X248179788Y-112955106D01*
X248179792Y-112955104D01*
X248330104Y-112804792D01*
X248330106Y-112804788D01*
X248330109Y-112804786D01*
X248455048Y-112632820D01*
X248455047Y-112632820D01*
X248455051Y-112632816D01*
X248551557Y-112443412D01*
X248617246Y-112241243D01*
X248650500Y-112031287D01*
X248650500Y-111568713D01*
X248617246Y-111358757D01*
X248617244Y-111358751D01*
X248616109Y-111354022D01*
X248617712Y-111353636D01*
X248615916Y-111290990D01*
X248651990Y-111231153D01*
X248714688Y-111200318D01*
X248735846Y-111198500D01*
X256066481Y-111198500D01*
X256133520Y-111218185D01*
X256154162Y-111234819D01*
X256464048Y-111544705D01*
X256497533Y-111606028D01*
X256499895Y-111643193D01*
X256482677Y-111839997D01*
X256482677Y-111840002D01*
X256501929Y-112060062D01*
X256501930Y-112060070D01*
X256559104Y-112273445D01*
X256559105Y-112273447D01*
X256559106Y-112273450D01*
X256596347Y-112353313D01*
X256652466Y-112473662D01*
X256652468Y-112473666D01*
X256779170Y-112654615D01*
X256779175Y-112654621D01*
X256935378Y-112810824D01*
X256935384Y-112810829D01*
X257116333Y-112937531D01*
X257116335Y-112937532D01*
X257116338Y-112937534D01*
X257198514Y-112975853D01*
X257245189Y-112997618D01*
X257297628Y-113043790D01*
X257316780Y-113110984D01*
X257296564Y-113177865D01*
X257245189Y-113222382D01*
X257116340Y-113282465D01*
X257116338Y-113282466D01*
X256935377Y-113409175D01*
X256779175Y-113565377D01*
X256652466Y-113746338D01*
X256652465Y-113746340D01*
X256559107Y-113946548D01*
X256559104Y-113946554D01*
X256501930Y-114159929D01*
X256501929Y-114159937D01*
X256482677Y-114379997D01*
X256482677Y-114380002D01*
X256501929Y-114600058D01*
X256501930Y-114600070D01*
X256559104Y-114813445D01*
X256559105Y-114813447D01*
X256559106Y-114813450D01*
X256652466Y-115013662D01*
X256652468Y-115013666D01*
X256779170Y-115194615D01*
X256779175Y-115194621D01*
X256935378Y-115350824D01*
X256935384Y-115350829D01*
X257116333Y-115477531D01*
X257116335Y-115477532D01*
X257116338Y-115477534D01*
X257316550Y-115570894D01*
X257529932Y-115628070D01*
X257687123Y-115641822D01*
X257749998Y-115647323D01*
X257750000Y-115647323D01*
X257750002Y-115647323D01*
X257805151Y-115642498D01*
X257970068Y-115628070D01*
X258183450Y-115570894D01*
X258383662Y-115477534D01*
X258564620Y-115350826D01*
X258720826Y-115194620D01*
X258847534Y-115013662D01*
X258940894Y-114813450D01*
X258998070Y-114600068D01*
X258999891Y-114579254D01*
X259017323Y-114380002D01*
X259017323Y-114379997D01*
X259003390Y-114220745D01*
X258998070Y-114159932D01*
X258940894Y-113946550D01*
X258847534Y-113746339D01*
X258755313Y-113614633D01*
X258720827Y-113565381D01*
X258665962Y-113510516D01*
X258564620Y-113409174D01*
X258564616Y-113409171D01*
X258564615Y-113409170D01*
X258383666Y-113282468D01*
X258383658Y-113282464D01*
X258254811Y-113222382D01*
X258202371Y-113176210D01*
X258183219Y-113109017D01*
X258203435Y-113042135D01*
X258254811Y-112997618D01*
X258301486Y-112975853D01*
X258383662Y-112937534D01*
X258564620Y-112810826D01*
X258720826Y-112654620D01*
X258847534Y-112473662D01*
X258940894Y-112273450D01*
X258998070Y-112060068D01*
X259014677Y-111870248D01*
X259017323Y-111840002D01*
X259017323Y-111839997D01*
X266642677Y-111839997D01*
X266642677Y-111840002D01*
X266661929Y-112060062D01*
X266661930Y-112060070D01*
X266719104Y-112273445D01*
X266719105Y-112273447D01*
X266719106Y-112273450D01*
X266756347Y-112353313D01*
X266812466Y-112473662D01*
X266812468Y-112473666D01*
X266939170Y-112654615D01*
X266939175Y-112654621D01*
X267095378Y-112810824D01*
X267095384Y-112810829D01*
X267211202Y-112891925D01*
X267254827Y-112946502D01*
X267262021Y-113016000D01*
X267230498Y-113078355D01*
X267170269Y-113113769D01*
X267140082Y-113117500D01*
X267100131Y-113117500D01*
X267100123Y-113117501D01*
X267040516Y-113123908D01*
X266905671Y-113174202D01*
X266905664Y-113174206D01*
X266790455Y-113260452D01*
X266790452Y-113260455D01*
X266704206Y-113375664D01*
X266704202Y-113375671D01*
X266653908Y-113510517D01*
X266648010Y-113565380D01*
X266647501Y-113570123D01*
X266647500Y-113570135D01*
X266647500Y-115189870D01*
X266647501Y-115189876D01*
X266653908Y-115249483D01*
X266704202Y-115384328D01*
X266704206Y-115384335D01*
X266790452Y-115499544D01*
X266790455Y-115499547D01*
X266905664Y-115585793D01*
X266905671Y-115585797D01*
X267040517Y-115636091D01*
X267040516Y-115636091D01*
X267047444Y-115636835D01*
X267100127Y-115642500D01*
X268719872Y-115642499D01*
X268779483Y-115636091D01*
X268914331Y-115585796D01*
X269029546Y-115499546D01*
X269115796Y-115384331D01*
X269166091Y-115249483D01*
X269172500Y-115189873D01*
X269172499Y-113570128D01*
X269166091Y-113510517D01*
X269154726Y-113480047D01*
X269115797Y-113375671D01*
X269115793Y-113375664D01*
X269029547Y-113260455D01*
X269029544Y-113260452D01*
X268914335Y-113174206D01*
X268914328Y-113174202D01*
X268779482Y-113123908D01*
X268779483Y-113123908D01*
X268719883Y-113117501D01*
X268719881Y-113117500D01*
X268719873Y-113117500D01*
X268719865Y-113117500D01*
X268679921Y-113117500D01*
X268612882Y-113097815D01*
X268567127Y-113045011D01*
X268557183Y-112975853D01*
X268586208Y-112912297D01*
X268608798Y-112891925D01*
X268677065Y-112844124D01*
X268724620Y-112810826D01*
X268880826Y-112654620D01*
X269007534Y-112473662D01*
X269100894Y-112273450D01*
X269158070Y-112060068D01*
X269174677Y-111870248D01*
X269177323Y-111840002D01*
X269177323Y-111839997D01*
X269168649Y-111740858D01*
X269158070Y-111619932D01*
X269100894Y-111406550D01*
X269007534Y-111206339D01*
X268880826Y-111025380D01*
X268724620Y-110869174D01*
X268724616Y-110869171D01*
X268724615Y-110869170D01*
X268543666Y-110742468D01*
X268543662Y-110742466D01*
X268543660Y-110742465D01*
X268343450Y-110649106D01*
X268343447Y-110649105D01*
X268343445Y-110649104D01*
X268130070Y-110591930D01*
X268130062Y-110591929D01*
X267910002Y-110572677D01*
X267909998Y-110572677D01*
X267689937Y-110591929D01*
X267689929Y-110591930D01*
X267476554Y-110649104D01*
X267476548Y-110649107D01*
X267276340Y-110742465D01*
X267276338Y-110742466D01*
X267095377Y-110869175D01*
X266939175Y-111025377D01*
X266812466Y-111206338D01*
X266812465Y-111206340D01*
X266719107Y-111406548D01*
X266719104Y-111406554D01*
X266661930Y-111619929D01*
X266661929Y-111619937D01*
X266642677Y-111839997D01*
X259017323Y-111839997D01*
X259008649Y-111740858D01*
X258998070Y-111619932D01*
X258940894Y-111406550D01*
X258847534Y-111206339D01*
X258720826Y-111025380D01*
X258564620Y-110869174D01*
X258564616Y-110869171D01*
X258564615Y-110869170D01*
X258383666Y-110742468D01*
X258383662Y-110742466D01*
X258383660Y-110742465D01*
X258183450Y-110649106D01*
X258183447Y-110649105D01*
X258183445Y-110649104D01*
X257970070Y-110591930D01*
X257970062Y-110591929D01*
X257750002Y-110572677D01*
X257749998Y-110572677D01*
X257553193Y-110589895D01*
X257484693Y-110576128D01*
X257454705Y-110554048D01*
X256854546Y-109953888D01*
X256854545Y-109953887D01*
X256739807Y-109877222D01*
X256612332Y-109824421D01*
X256612322Y-109824418D01*
X256476996Y-109797500D01*
X256476994Y-109797500D01*
X256476993Y-109797500D01*
X243670994Y-109797500D01*
X243533006Y-109797500D01*
X243533004Y-109797500D01*
X243397677Y-109824418D01*
X243397667Y-109824421D01*
X243270192Y-109877222D01*
X243155454Y-109953887D01*
X242772127Y-110337214D01*
X242710804Y-110370699D01*
X242646130Y-110367465D01*
X242645434Y-110367238D01*
X242616243Y-110357754D01*
X242616239Y-110357753D01*
X242616238Y-110357753D01*
X242475700Y-110335494D01*
X242406287Y-110324500D01*
X242193713Y-110324500D01*
X242145042Y-110332208D01*
X241983760Y-110357753D01*
X241781585Y-110423444D01*
X241592179Y-110519951D01*
X241420215Y-110644889D01*
X241281035Y-110784069D01*
X241219712Y-110817553D01*
X241150020Y-110812569D01*
X241094087Y-110770697D01*
X241087815Y-110761484D01*
X240992315Y-110606654D01*
X240868345Y-110482684D01*
X240719124Y-110390643D01*
X240719119Y-110390641D01*
X240552697Y-110335494D01*
X240552690Y-110335493D01*
X240449986Y-110325000D01*
X240050000Y-110325000D01*
X240050000Y-111395854D01*
X239983343Y-111357370D01*
X239862535Y-111325000D01*
X239737465Y-111325000D01*
X239616657Y-111357370D01*
X239550000Y-111395854D01*
X239550000Y-110325000D01*
X239150028Y-110325000D01*
X239150012Y-110325001D01*
X239047302Y-110335494D01*
X238880880Y-110390641D01*
X238880875Y-110390643D01*
X238731654Y-110482684D01*
X238607684Y-110606654D01*
X238515643Y-110755875D01*
X238515641Y-110755880D01*
X238460494Y-110922302D01*
X238460493Y-110922309D01*
X238450000Y-111025013D01*
X219315182Y-111025013D01*
X219306739Y-110993504D01*
X219210568Y-110787266D01*
X219080047Y-110600861D01*
X219080045Y-110600858D01*
X218919141Y-110439954D01*
X218732734Y-110309432D01*
X218732732Y-110309431D01*
X218526497Y-110213261D01*
X218526488Y-110213258D01*
X218306697Y-110154366D01*
X218306693Y-110154365D01*
X218306692Y-110154365D01*
X218306691Y-110154364D01*
X218306686Y-110154364D01*
X218080002Y-110134532D01*
X218079998Y-110134532D01*
X217853313Y-110154364D01*
X217853302Y-110154366D01*
X217633511Y-110213258D01*
X217633502Y-110213261D01*
X217427267Y-110309431D01*
X217427265Y-110309432D01*
X217240858Y-110439954D01*
X217079954Y-110600858D01*
X216949432Y-110787265D01*
X216949431Y-110787267D01*
X216853261Y-110993502D01*
X216853258Y-110993511D01*
X216794366Y-111213302D01*
X216794364Y-111213313D01*
X216774532Y-111439998D01*
X209225468Y-111439998D01*
X209205635Y-111213308D01*
X209146739Y-110993504D01*
X209050568Y-110787266D01*
X208920047Y-110600861D01*
X208920045Y-110600858D01*
X208759141Y-110439954D01*
X208572734Y-110309432D01*
X208572732Y-110309431D01*
X208366497Y-110213261D01*
X208366488Y-110213258D01*
X208146697Y-110154366D01*
X208146693Y-110154365D01*
X208146692Y-110154365D01*
X208146691Y-110154364D01*
X208146686Y-110154364D01*
X207920002Y-110134532D01*
X207919998Y-110134532D01*
X207693313Y-110154364D01*
X207693302Y-110154366D01*
X207473511Y-110213258D01*
X207473502Y-110213261D01*
X207267267Y-110309431D01*
X207267265Y-110309432D01*
X207080858Y-110439954D01*
X206919954Y-110600858D01*
X206789432Y-110787265D01*
X206789431Y-110787267D01*
X206693261Y-110993502D01*
X206693258Y-110993511D01*
X206634366Y-111213302D01*
X206634364Y-111213313D01*
X206614532Y-111439998D01*
X205582077Y-111439998D01*
X205452734Y-111349432D01*
X205452732Y-111349431D01*
X205246497Y-111253261D01*
X205246488Y-111253258D01*
X205026697Y-111194366D01*
X205026693Y-111194365D01*
X205026692Y-111194365D01*
X205026691Y-111194364D01*
X205026686Y-111194364D01*
X204800002Y-111174532D01*
X204799998Y-111174532D01*
X204573313Y-111194364D01*
X204573302Y-111194366D01*
X204353511Y-111253258D01*
X204353502Y-111253261D01*
X204147267Y-111349431D01*
X204147265Y-111349432D01*
X203960858Y-111479954D01*
X203799954Y-111640858D01*
X203732311Y-111737465D01*
X203669881Y-111826624D01*
X203615307Y-111870248D01*
X203568308Y-111879500D01*
X201561673Y-111879500D01*
X201494634Y-111859815D01*
X201460098Y-111826623D01*
X201400045Y-111740858D01*
X201239141Y-111579954D01*
X201052734Y-111449432D01*
X201052732Y-111449431D01*
X200846497Y-111353261D01*
X200846488Y-111353258D01*
X200626697Y-111294366D01*
X200626693Y-111294365D01*
X200626692Y-111294365D01*
X200626691Y-111294364D01*
X200626686Y-111294364D01*
X200400002Y-111274532D01*
X200399998Y-111274532D01*
X200173313Y-111294364D01*
X200173302Y-111294366D01*
X199953511Y-111353258D01*
X199953502Y-111353261D01*
X199747267Y-111449431D01*
X199747265Y-111449432D01*
X199560858Y-111579954D01*
X199399954Y-111740858D01*
X199269432Y-111927265D01*
X199269431Y-111927267D01*
X199173261Y-112133502D01*
X199173258Y-112133511D01*
X199114366Y-112353302D01*
X199114364Y-112353313D01*
X199094532Y-112579998D01*
X198125500Y-112579998D01*
X198125500Y-105208713D01*
X209069500Y-105208713D01*
X209069500Y-105671287D01*
X209102754Y-105881243D01*
X209113722Y-105915000D01*
X209168444Y-106083414D01*
X209264951Y-106272820D01*
X209389890Y-106444786D01*
X209540213Y-106595109D01*
X209712179Y-106720048D01*
X209712181Y-106720049D01*
X209712184Y-106720051D01*
X209901588Y-106816557D01*
X210103757Y-106882246D01*
X210313713Y-106915500D01*
X210313714Y-106915500D01*
X210526286Y-106915500D01*
X210526287Y-106915500D01*
X210736243Y-106882246D01*
X210938412Y-106816557D01*
X211127816Y-106720051D01*
X211149789Y-106704086D01*
X211299786Y-106595109D01*
X211299788Y-106595106D01*
X211299792Y-106595104D01*
X211450104Y-106444792D01*
X211569991Y-106279779D01*
X211625320Y-106237115D01*
X211694933Y-106231136D01*
X211756729Y-106263741D01*
X211770627Y-106279781D01*
X211890272Y-106444459D01*
X211890276Y-106444464D01*
X212040535Y-106594723D01*
X212040540Y-106594727D01*
X212212442Y-106719620D01*
X212401782Y-106816095D01*
X212603871Y-106881757D01*
X212670000Y-106892231D01*
X212670000Y-105844145D01*
X212736657Y-105882630D01*
X212857465Y-105915000D01*
X212982535Y-105915000D01*
X213103343Y-105882630D01*
X213170000Y-105844145D01*
X213170000Y-106892230D01*
X213236126Y-106881757D01*
X213236129Y-106881757D01*
X213438217Y-106816095D01*
X213627557Y-106719620D01*
X213799458Y-106594728D01*
X213938330Y-106455856D01*
X213999653Y-106422371D01*
X214069345Y-106427355D01*
X214125279Y-106469226D01*
X214131551Y-106478440D01*
X214135185Y-106484331D01*
X214135186Y-106484334D01*
X214227288Y-106633656D01*
X214351344Y-106757712D01*
X214500666Y-106849814D01*
X214667203Y-106904999D01*
X214769991Y-106915500D01*
X216070008Y-106915499D01*
X216172797Y-106904999D01*
X216339334Y-106849814D01*
X216488656Y-106757712D01*
X216612712Y-106633656D01*
X216704814Y-106484334D01*
X216759999Y-106317797D01*
X216770500Y-106215009D01*
X216770499Y-104664992D01*
X216768851Y-104648863D01*
X216759999Y-104562203D01*
X216759998Y-104562200D01*
X216704814Y-104395666D01*
X216612712Y-104246344D01*
X216488656Y-104122288D01*
X216339334Y-104030186D01*
X216172797Y-103975001D01*
X216172795Y-103975000D01*
X216070010Y-103964500D01*
X214769998Y-103964500D01*
X214769981Y-103964501D01*
X214667203Y-103975000D01*
X214667200Y-103975001D01*
X214500668Y-104030185D01*
X214500663Y-104030187D01*
X214351342Y-104122289D01*
X214227289Y-104246342D01*
X214131551Y-104401559D01*
X214079603Y-104448283D01*
X214010640Y-104459506D01*
X213946558Y-104431662D01*
X213938331Y-104424143D01*
X213799464Y-104285276D01*
X213799459Y-104285272D01*
X213627557Y-104160379D01*
X213438215Y-104063903D01*
X213236124Y-103998241D01*
X213170000Y-103987768D01*
X213170000Y-105035854D01*
X213103343Y-104997370D01*
X212982535Y-104965000D01*
X212857465Y-104965000D01*
X212736657Y-104997370D01*
X212670000Y-105035854D01*
X212670000Y-103987768D01*
X212669999Y-103987768D01*
X212603875Y-103998241D01*
X212401784Y-104063903D01*
X212212442Y-104160379D01*
X212040540Y-104285272D01*
X212040535Y-104285276D01*
X211890276Y-104435535D01*
X211890272Y-104435540D01*
X211770627Y-104600218D01*
X211715297Y-104642884D01*
X211645684Y-104648863D01*
X211583889Y-104616257D01*
X211569991Y-104600218D01*
X211450109Y-104435214D01*
X211450105Y-104435209D01*
X211299790Y-104284894D01*
X211299785Y-104284890D01*
X211162718Y-104185305D01*
X211120052Y-104129975D01*
X211111606Y-104085803D01*
X211109135Y-103710230D01*
X211105945Y-103225315D01*
X211125188Y-103158148D01*
X211177690Y-103112047D01*
X211229942Y-103100500D01*
X222975500Y-103100500D01*
X223042539Y-103120185D01*
X223088294Y-103172989D01*
X223099500Y-103224500D01*
X223099500Y-103674507D01*
X223080494Y-103740478D01*
X223074209Y-103750479D01*
X223014633Y-103920737D01*
X223014630Y-103920750D01*
X222994435Y-104099996D01*
X222994435Y-104100003D01*
X223014630Y-104279249D01*
X223014631Y-104279254D01*
X223074211Y-104449523D01*
X223080484Y-104459506D01*
X223170184Y-104602262D01*
X223297738Y-104729816D01*
X223450478Y-104825789D01*
X223620745Y-104885368D01*
X223620750Y-104885369D01*
X223799996Y-104905565D01*
X223800000Y-104905565D01*
X223800004Y-104905565D01*
X223979249Y-104885369D01*
X223979252Y-104885368D01*
X223979255Y-104885368D01*
X224149522Y-104825789D01*
X224302262Y-104729816D01*
X224429816Y-104602262D01*
X224525789Y-104449522D01*
X224585368Y-104279255D01*
X224589076Y-104246344D01*
X224605565Y-104100003D01*
X224605565Y-104099996D01*
X224585369Y-103920750D01*
X224585366Y-103920737D01*
X224525790Y-103750479D01*
X224519506Y-103740478D01*
X224500500Y-103674507D01*
X224500500Y-102331004D01*
X224473581Y-102195677D01*
X224473580Y-102195676D01*
X224473580Y-102195672D01*
X224466780Y-102179255D01*
X224420778Y-102068195D01*
X224420771Y-102068182D01*
X224344114Y-101953458D01*
X224344111Y-101953454D01*
X224246545Y-101855888D01*
X224246541Y-101855885D01*
X224131817Y-101779228D01*
X224131804Y-101779221D01*
X224004332Y-101726421D01*
X224004322Y-101726418D01*
X223868995Y-101699500D01*
X223868993Y-101699500D01*
X210474845Y-101699500D01*
X210465148Y-101699056D01*
X210464383Y-101699061D01*
X210398127Y-101699497D01*
X210397311Y-101699500D01*
X210330852Y-101699500D01*
X210329114Y-101699683D01*
X210328274Y-101699769D01*
X210326546Y-101699938D01*
X210261385Y-101713345D01*
X210260590Y-101713506D01*
X210195525Y-101726449D01*
X210193837Y-101726973D01*
X210193117Y-101727193D01*
X210191396Y-101727715D01*
X210130214Y-101753529D01*
X210129467Y-101753841D01*
X210068034Y-101779289D01*
X210066428Y-101780162D01*
X210065687Y-101780561D01*
X210064237Y-101781335D01*
X210009199Y-101818637D01*
X210008552Y-101819072D01*
X209995374Y-101827878D01*
X209953324Y-101855975D01*
X209951874Y-101857182D01*
X209951280Y-101857672D01*
X209949994Y-101858727D01*
X209903310Y-101906029D01*
X209902738Y-101906605D01*
X209855769Y-101953574D01*
X209854627Y-101954986D01*
X209854133Y-101955591D01*
X209853044Y-101956917D01*
X209816489Y-102012412D01*
X209816061Y-102013057D01*
X209779225Y-102068189D01*
X209779224Y-102068191D01*
X209779140Y-102068317D01*
X209778352Y-102069815D01*
X209777982Y-102070513D01*
X209777114Y-102072137D01*
X209752106Y-102133647D01*
X209751800Y-102134393D01*
X209726360Y-102195815D01*
X209725855Y-102197523D01*
X209725621Y-102198304D01*
X209725115Y-102199968D01*
X209712577Y-102265240D01*
X209712422Y-102266035D01*
X209699472Y-102331144D01*
X209699312Y-102332890D01*
X209699236Y-102333689D01*
X209699060Y-102335475D01*
X209699497Y-102401887D01*
X209699500Y-102402703D01*
X209699500Y-102469766D01*
X209700006Y-102479441D01*
X209710648Y-104097064D01*
X209691405Y-104164232D01*
X209659537Y-104198198D01*
X209540206Y-104284897D01*
X209389890Y-104435213D01*
X209264951Y-104607179D01*
X209168444Y-104796585D01*
X209102753Y-104998760D01*
X209093069Y-105059905D01*
X209069500Y-105208713D01*
X198125500Y-105208713D01*
X198125500Y-102169999D01*
X199121127Y-102169999D01*
X199121128Y-102170000D01*
X200084314Y-102170000D01*
X200079920Y-102174394D01*
X200027259Y-102265606D01*
X200000000Y-102367339D01*
X200000000Y-102472661D01*
X200027259Y-102574394D01*
X200079920Y-102665606D01*
X200084314Y-102670000D01*
X199121128Y-102670000D01*
X199173730Y-102866317D01*
X199173734Y-102866326D01*
X199269865Y-103072482D01*
X199400342Y-103258820D01*
X199561179Y-103419657D01*
X199747517Y-103550134D01*
X199953673Y-103646265D01*
X199953682Y-103646269D01*
X200149999Y-103698872D01*
X200150000Y-103698871D01*
X200150000Y-102735686D01*
X200154394Y-102740080D01*
X200245606Y-102792741D01*
X200347339Y-102820000D01*
X200452661Y-102820000D01*
X200554394Y-102792741D01*
X200645606Y-102740080D01*
X200650000Y-102735686D01*
X200650000Y-103698872D01*
X200846317Y-103646269D01*
X200846326Y-103646265D01*
X201052482Y-103550134D01*
X201238820Y-103419657D01*
X201399657Y-103258820D01*
X201530134Y-103072482D01*
X201626265Y-102866326D01*
X201626269Y-102866317D01*
X201678872Y-102670000D01*
X200715686Y-102670000D01*
X200720080Y-102665606D01*
X200772741Y-102574394D01*
X200800000Y-102472661D01*
X200800000Y-102367339D01*
X200787315Y-102319998D01*
X203494532Y-102319998D01*
X203494532Y-102320001D01*
X203514364Y-102546686D01*
X203514366Y-102546697D01*
X203573258Y-102766488D01*
X203573261Y-102766497D01*
X203669431Y-102972732D01*
X203669432Y-102972734D01*
X203799954Y-103159141D01*
X203960858Y-103320045D01*
X203960861Y-103320047D01*
X204147266Y-103450568D01*
X204353504Y-103546739D01*
X204573308Y-103605635D01*
X204735230Y-103619801D01*
X204799998Y-103625468D01*
X204800000Y-103625468D01*
X204800002Y-103625468D01*
X204856673Y-103620509D01*
X205026692Y-103605635D01*
X205246496Y-103546739D01*
X205452734Y-103450568D01*
X205639139Y-103320047D01*
X205800047Y-103159139D01*
X205930568Y-102972734D01*
X206026739Y-102766496D01*
X206085635Y-102546692D01*
X206105468Y-102320000D01*
X206085635Y-102093308D01*
X206033839Y-101900000D01*
X206026741Y-101873511D01*
X206026738Y-101873502D01*
X206018524Y-101855888D01*
X205930568Y-101667266D01*
X205800047Y-101480861D01*
X205800045Y-101480858D01*
X205639141Y-101319954D01*
X205452734Y-101189432D01*
X205452732Y-101189431D01*
X205246497Y-101093261D01*
X205246488Y-101093258D01*
X205026697Y-101034366D01*
X205026693Y-101034365D01*
X205026692Y-101034365D01*
X205026691Y-101034364D01*
X205026686Y-101034364D01*
X204800002Y-101014532D01*
X204799998Y-101014532D01*
X204573313Y-101034364D01*
X204573302Y-101034366D01*
X204353511Y-101093258D01*
X204353502Y-101093261D01*
X204147267Y-101189431D01*
X204147265Y-101189432D01*
X203960858Y-101319954D01*
X203799954Y-101480858D01*
X203669432Y-101667265D01*
X203669431Y-101667267D01*
X203573261Y-101873502D01*
X203573258Y-101873511D01*
X203514366Y-102093302D01*
X203514364Y-102093313D01*
X203494532Y-102319998D01*
X200787315Y-102319998D01*
X200772741Y-102265606D01*
X200720080Y-102174394D01*
X200715686Y-102170000D01*
X201678872Y-102170000D01*
X201678872Y-102169999D01*
X201626269Y-101973682D01*
X201626265Y-101973673D01*
X201530134Y-101767517D01*
X201399657Y-101581179D01*
X201238820Y-101420342D01*
X201052482Y-101289865D01*
X200846328Y-101193734D01*
X200650000Y-101141127D01*
X200650000Y-102104314D01*
X200645606Y-102099920D01*
X200554394Y-102047259D01*
X200452661Y-102020000D01*
X200347339Y-102020000D01*
X200245606Y-102047259D01*
X200154394Y-102099920D01*
X200150000Y-102104314D01*
X200150000Y-101141127D01*
X199953671Y-101193734D01*
X199747517Y-101289865D01*
X199561179Y-101420342D01*
X199400342Y-101581179D01*
X199269865Y-101767517D01*
X199173734Y-101973673D01*
X199173730Y-101973682D01*
X199121127Y-102169999D01*
X198125500Y-102169999D01*
X198125500Y-96042135D01*
X203009500Y-96042135D01*
X203009500Y-97837870D01*
X203009501Y-97837876D01*
X203015908Y-97897483D01*
X203066202Y-98032328D01*
X203066206Y-98032335D01*
X203152452Y-98147544D01*
X203152455Y-98147547D01*
X203267664Y-98233793D01*
X203267671Y-98233797D01*
X203402517Y-98284091D01*
X203402516Y-98284091D01*
X203409444Y-98284835D01*
X203462127Y-98290500D01*
X204809902Y-98290499D01*
X204876941Y-98310184D01*
X204897583Y-98326818D01*
X204935139Y-98364374D01*
X204935149Y-98364385D01*
X204939479Y-98368715D01*
X204939480Y-98368716D01*
X205051284Y-98480520D01*
X205051286Y-98480521D01*
X205051290Y-98480524D01*
X205188209Y-98559573D01*
X205188216Y-98559577D01*
X205287149Y-98586086D01*
X205287148Y-98586086D01*
X205294169Y-98587967D01*
X205340942Y-98600500D01*
X205340943Y-98600500D01*
X210523331Y-98600500D01*
X210523347Y-98600501D01*
X210530943Y-98600501D01*
X210689054Y-98600501D01*
X210689057Y-98600501D01*
X210841785Y-98559577D01*
X210891904Y-98530639D01*
X210978716Y-98480520D01*
X211090520Y-98368716D01*
X211090520Y-98368714D01*
X211100728Y-98358507D01*
X211100730Y-98358504D01*
X211678321Y-97780912D01*
X211739642Y-97747429D01*
X211798095Y-97748821D01*
X211869924Y-97768068D01*
X211869925Y-97768068D01*
X211869932Y-97768070D01*
X212057226Y-97784455D01*
X212089998Y-97787323D01*
X212090000Y-97787323D01*
X212090002Y-97787323D01*
X212145017Y-97782509D01*
X212310068Y-97768070D01*
X212523450Y-97710894D01*
X212723662Y-97617534D01*
X212904620Y-97490826D01*
X213060826Y-97334620D01*
X213187534Y-97153662D01*
X213247618Y-97024811D01*
X213293790Y-96972371D01*
X213360983Y-96953219D01*
X213427865Y-96973435D01*
X213472382Y-97024811D01*
X213532464Y-97153658D01*
X213532468Y-97153666D01*
X213659170Y-97334615D01*
X213659175Y-97334621D01*
X213815378Y-97490824D01*
X213815384Y-97490829D01*
X213996333Y-97617531D01*
X213996335Y-97617532D01*
X213996338Y-97617534D01*
X214196550Y-97710894D01*
X214409932Y-97768070D01*
X214556743Y-97780914D01*
X214629998Y-97787323D01*
X214630000Y-97787323D01*
X214630002Y-97787323D01*
X214685017Y-97782509D01*
X214850068Y-97768070D01*
X215063450Y-97710894D01*
X215263662Y-97617534D01*
X215444620Y-97490826D01*
X215600826Y-97334620D01*
X215682425Y-97218083D01*
X215737002Y-97174459D01*
X215806500Y-97167265D01*
X215868855Y-97198788D01*
X215904269Y-97259017D01*
X215908000Y-97289207D01*
X215908000Y-97329844D01*
X215914401Y-97389372D01*
X215914403Y-97389379D01*
X215964645Y-97524086D01*
X215964649Y-97524093D01*
X216050809Y-97639187D01*
X216050812Y-97639190D01*
X216165906Y-97725350D01*
X216165913Y-97725354D01*
X216300620Y-97775596D01*
X216300627Y-97775598D01*
X216360155Y-97781999D01*
X216360172Y-97782000D01*
X216920000Y-97782000D01*
X216920000Y-96808816D01*
X216936060Y-96824876D01*
X217022939Y-96875036D01*
X217119840Y-96901000D01*
X217220160Y-96901000D01*
X217317061Y-96875036D01*
X217403940Y-96824876D01*
X217420000Y-96808816D01*
X217420000Y-97782000D01*
X217979828Y-97782000D01*
X217979844Y-97781999D01*
X218039372Y-97775598D01*
X218039379Y-97775596D01*
X218174086Y-97725354D01*
X218174093Y-97725350D01*
X218289187Y-97639190D01*
X218289190Y-97639187D01*
X218375350Y-97524093D01*
X218375354Y-97524086D01*
X218425596Y-97389379D01*
X218425598Y-97389372D01*
X218431999Y-97329844D01*
X218432000Y-97329827D01*
X218432000Y-96770000D01*
X217458816Y-96770000D01*
X217474876Y-96753940D01*
X217525036Y-96667061D01*
X217551000Y-96570160D01*
X217551000Y-96469840D01*
X217525036Y-96372939D01*
X217474876Y-96286060D01*
X217458816Y-96270000D01*
X218432000Y-96270000D01*
X218432000Y-96255500D01*
X218451685Y-96188461D01*
X218504489Y-96142706D01*
X218556000Y-96131500D01*
X220650903Y-96131500D01*
X220717942Y-96151185D01*
X220738584Y-96167819D01*
X220973181Y-96402416D01*
X221006666Y-96463739D01*
X221009500Y-96490097D01*
X221009500Y-97837870D01*
X221009501Y-97837876D01*
X221015908Y-97897483D01*
X221066202Y-98032328D01*
X221066206Y-98032335D01*
X221152452Y-98147544D01*
X221152455Y-98147547D01*
X221267664Y-98233793D01*
X221267671Y-98233797D01*
X221402517Y-98284091D01*
X221402516Y-98284091D01*
X221409444Y-98284835D01*
X221462127Y-98290500D01*
X223257872Y-98290499D01*
X223317483Y-98284091D01*
X223452331Y-98233796D01*
X223567546Y-98147546D01*
X223653796Y-98032331D01*
X223704091Y-97897483D01*
X223710500Y-97837873D01*
X223710499Y-96042128D01*
X223704091Y-95982517D01*
X223668219Y-95886340D01*
X223653797Y-95847671D01*
X223653793Y-95847664D01*
X223567547Y-95732455D01*
X223567544Y-95732452D01*
X223452335Y-95646206D01*
X223452328Y-95646202D01*
X223317482Y-95595908D01*
X223317483Y-95595908D01*
X223257883Y-95589501D01*
X223257881Y-95589500D01*
X223257873Y-95589500D01*
X223257865Y-95589500D01*
X221910097Y-95589500D01*
X221843058Y-95569815D01*
X221822416Y-95553181D01*
X221791289Y-95522054D01*
X240892498Y-95522054D01*
X240933424Y-95674789D01*
X240933425Y-95674790D01*
X240951086Y-95705379D01*
X240951087Y-95705380D01*
X241012481Y-95811717D01*
X241131349Y-95930585D01*
X241131355Y-95930590D01*
X241237233Y-96036468D01*
X241270718Y-96097791D01*
X241269327Y-96156241D01*
X241234939Y-96284583D01*
X241234936Y-96284596D01*
X241214341Y-96519999D01*
X241214341Y-96520000D01*
X241234936Y-96755403D01*
X241234938Y-96755413D01*
X241296094Y-96983655D01*
X241296096Y-96983659D01*
X241296097Y-96983663D01*
X241300000Y-96992032D01*
X241395965Y-97197830D01*
X241395967Y-97197834D01*
X241488390Y-97329827D01*
X241531505Y-97391401D01*
X241698599Y-97558495D01*
X241698604Y-97558499D01*
X241699968Y-97559643D01*
X241700407Y-97560303D01*
X241702427Y-97562323D01*
X241702021Y-97562728D01*
X241738669Y-97617815D01*
X241739776Y-97687676D01*
X241702937Y-97747046D01*
X241659267Y-97772336D01*
X241650669Y-97775184D01*
X241650663Y-97775187D01*
X241501342Y-97867289D01*
X241377289Y-97991342D01*
X241285187Y-98140663D01*
X241285185Y-98140668D01*
X241268701Y-98190414D01*
X241230001Y-98307203D01*
X241230001Y-98307204D01*
X241230000Y-98307204D01*
X241219500Y-98409983D01*
X241219500Y-99710001D01*
X241219501Y-99710018D01*
X241230000Y-99812796D01*
X241230001Y-99812799D01*
X241285185Y-99979331D01*
X241285187Y-99979336D01*
X241320069Y-100035888D01*
X241377288Y-100128656D01*
X241501344Y-100252712D01*
X241650666Y-100344814D01*
X241817203Y-100399999D01*
X241919991Y-100410500D01*
X243220008Y-100410499D01*
X243322797Y-100399999D01*
X243489334Y-100344814D01*
X243638656Y-100252712D01*
X243762712Y-100128656D01*
X243854814Y-99979334D01*
X243857662Y-99970738D01*
X243897429Y-99913294D01*
X243961944Y-99886468D01*
X244030720Y-99898779D01*
X244067483Y-99927766D01*
X244067677Y-99927573D01*
X244069313Y-99929209D01*
X244070354Y-99930030D01*
X244071501Y-99931397D01*
X244071505Y-99931401D01*
X244238599Y-100098495D01*
X244335384Y-100166265D01*
X244432165Y-100234032D01*
X244432167Y-100234033D01*
X244432170Y-100234035D01*
X244646337Y-100333903D01*
X244874592Y-100395063D01*
X245051034Y-100410500D01*
X245109999Y-100415659D01*
X245110000Y-100415659D01*
X245110001Y-100415659D01*
X245168966Y-100410500D01*
X245345408Y-100395063D01*
X245473757Y-100360672D01*
X245543606Y-100362335D01*
X245593530Y-100392765D01*
X246181284Y-100980520D01*
X246181286Y-100980521D01*
X246181290Y-100980524D01*
X246318211Y-101059575D01*
X246321502Y-101060938D01*
X246323851Y-101062831D01*
X246325254Y-101063641D01*
X246325127Y-101063859D01*
X246375907Y-101104778D01*
X246397973Y-101171072D01*
X246380695Y-101238771D01*
X246329559Y-101286383D01*
X246274052Y-101299500D01*
X242925494Y-101299500D01*
X242859523Y-101280494D01*
X242849525Y-101274212D01*
X242679254Y-101214631D01*
X242679249Y-101214630D01*
X242500004Y-101194435D01*
X242499996Y-101194435D01*
X242320750Y-101214630D01*
X242320745Y-101214631D01*
X242150476Y-101274211D01*
X241997737Y-101370184D01*
X241870184Y-101497737D01*
X241774211Y-101650476D01*
X241714631Y-101820745D01*
X241714630Y-101820750D01*
X241694435Y-101999996D01*
X241694435Y-102000003D01*
X241714630Y-102179249D01*
X241714631Y-102179254D01*
X241774211Y-102349523D01*
X241849280Y-102468993D01*
X241870184Y-102502262D01*
X241997738Y-102629816D01*
X242150478Y-102725789D01*
X242266789Y-102766488D01*
X242320745Y-102785368D01*
X242320750Y-102785369D01*
X242499996Y-102805565D01*
X242500000Y-102805565D01*
X242500004Y-102805565D01*
X242679249Y-102785369D01*
X242679252Y-102785368D01*
X242679255Y-102785368D01*
X242849522Y-102725789D01*
X243002262Y-102629816D01*
X243095260Y-102536818D01*
X243156584Y-102503334D01*
X243182941Y-102500500D01*
X264917588Y-102500500D01*
X264984627Y-102520185D01*
X264994903Y-102527555D01*
X264997736Y-102529814D01*
X264997738Y-102529816D01*
X265150478Y-102625789D01*
X265276826Y-102670000D01*
X265320745Y-102685368D01*
X265320750Y-102685369D01*
X265499996Y-102705565D01*
X265500000Y-102705565D01*
X265500004Y-102705565D01*
X265679249Y-102685369D01*
X265679252Y-102685368D01*
X265679255Y-102685368D01*
X265849522Y-102625789D01*
X266002262Y-102529816D01*
X266129816Y-102402262D01*
X266225789Y-102249522D01*
X266285368Y-102079255D01*
X266286432Y-102069815D01*
X266305565Y-101900003D01*
X266305565Y-101899996D01*
X266285369Y-101720750D01*
X266285368Y-101720745D01*
X266266655Y-101667266D01*
X266225789Y-101550478D01*
X266129816Y-101397738D01*
X266044259Y-101312181D01*
X266010774Y-101250858D01*
X266015758Y-101181166D01*
X266057630Y-101125233D01*
X266123094Y-101100816D01*
X266131940Y-101100500D01*
X267317588Y-101100500D01*
X267384627Y-101120185D01*
X267394903Y-101127555D01*
X267397736Y-101129814D01*
X267397738Y-101129816D01*
X267511270Y-101201152D01*
X267532718Y-101214630D01*
X267550478Y-101225789D01*
X267677352Y-101270184D01*
X267720745Y-101285368D01*
X267720750Y-101285369D01*
X267899996Y-101305565D01*
X267900000Y-101305565D01*
X267900004Y-101305565D01*
X268079249Y-101285369D01*
X268079252Y-101285368D01*
X268079255Y-101285368D01*
X268249522Y-101225789D01*
X268402262Y-101129816D01*
X268529816Y-101002262D01*
X268625789Y-100849522D01*
X268685368Y-100679255D01*
X268705565Y-100500000D01*
X268696062Y-100415659D01*
X268685369Y-100320750D01*
X268685368Y-100320745D01*
X268661562Y-100252712D01*
X268625789Y-100150478D01*
X268529816Y-99997738D01*
X268402262Y-99870184D01*
X268333553Y-99827011D01*
X268249523Y-99774211D01*
X268079254Y-99714631D01*
X268079249Y-99714630D01*
X267900004Y-99694435D01*
X267899996Y-99694435D01*
X267720750Y-99714630D01*
X267720745Y-99714631D01*
X267550476Y-99774211D01*
X267397736Y-99870185D01*
X267394903Y-99872445D01*
X267392724Y-99873334D01*
X267391842Y-99873889D01*
X267391744Y-99873734D01*
X267330217Y-99898855D01*
X267317588Y-99899500D01*
X254023288Y-99899500D01*
X253956249Y-99879815D01*
X253910494Y-99827011D01*
X253900550Y-99757853D01*
X253910906Y-99723095D01*
X253917008Y-99710009D01*
X254003903Y-99523663D01*
X254065063Y-99295408D01*
X254085659Y-99060000D01*
X254065063Y-98824592D01*
X254005019Y-98600501D01*
X254003905Y-98596344D01*
X254003904Y-98596343D01*
X254003903Y-98596337D01*
X253904035Y-98382171D01*
X253898425Y-98374158D01*
X253768494Y-98188597D01*
X253601402Y-98021506D01*
X253601396Y-98021501D01*
X253415842Y-97891575D01*
X253372217Y-97836998D01*
X253365023Y-97767500D01*
X253396546Y-97705145D01*
X253415842Y-97688425D01*
X253444943Y-97668048D01*
X253601401Y-97558495D01*
X253768495Y-97391401D01*
X253904035Y-97197830D01*
X254003903Y-96983663D01*
X254065063Y-96755408D01*
X254085659Y-96520000D01*
X254065063Y-96284592D01*
X254012000Y-96086554D01*
X254003905Y-96056344D01*
X254003904Y-96056343D01*
X254003903Y-96056337D01*
X253904035Y-95842171D01*
X253882711Y-95811716D01*
X253768494Y-95648597D01*
X253601402Y-95481506D01*
X253601395Y-95481501D01*
X253407834Y-95345967D01*
X253407830Y-95345965D01*
X253371676Y-95329106D01*
X253193663Y-95246097D01*
X253193659Y-95246096D01*
X253193655Y-95246094D01*
X252965413Y-95184938D01*
X252965403Y-95184936D01*
X252730001Y-95164341D01*
X252729999Y-95164341D01*
X252494596Y-95184936D01*
X252494583Y-95184939D01*
X252409592Y-95207711D01*
X252339742Y-95206047D01*
X252281880Y-95166884D01*
X252254377Y-95102655D01*
X252253500Y-95087936D01*
X252253500Y-87792062D01*
X252273185Y-87725023D01*
X252325989Y-87679268D01*
X252395147Y-87669324D01*
X252409576Y-87672283D01*
X252494592Y-87695063D01*
X252682918Y-87711539D01*
X252729999Y-87715659D01*
X252730000Y-87715659D01*
X252730001Y-87715659D01*
X252769234Y-87712226D01*
X252965408Y-87695063D01*
X253193663Y-87633903D01*
X253407830Y-87534035D01*
X253601401Y-87398495D01*
X253768495Y-87231401D01*
X253904035Y-87037830D01*
X254003903Y-86823663D01*
X254065063Y-86595408D01*
X254085659Y-86360000D01*
X254065063Y-86124592D01*
X254003903Y-85896337D01*
X253904035Y-85682171D01*
X253768495Y-85488599D01*
X253768494Y-85488597D01*
X253601402Y-85321506D01*
X253601396Y-85321501D01*
X253415842Y-85191575D01*
X253372217Y-85136998D01*
X253365023Y-85067500D01*
X253396546Y-85005145D01*
X253415842Y-84988425D01*
X253592499Y-84864728D01*
X253601401Y-84858495D01*
X253768495Y-84691401D01*
X253904035Y-84497830D01*
X254003903Y-84283663D01*
X254065063Y-84055408D01*
X254085659Y-83820000D01*
X254065063Y-83584592D01*
X254003903Y-83356337D01*
X253904035Y-83142171D01*
X253898425Y-83134158D01*
X253768494Y-82948597D01*
X253601402Y-82781506D01*
X253601395Y-82781501D01*
X253407834Y-82645967D01*
X253407830Y-82645965D01*
X253407828Y-82645964D01*
X253193663Y-82546097D01*
X253193659Y-82546096D01*
X253193655Y-82546094D01*
X252965413Y-82484938D01*
X252965403Y-82484936D01*
X252730001Y-82464341D01*
X252729999Y-82464341D01*
X252494596Y-82484936D01*
X252494586Y-82484938D01*
X252266344Y-82546094D01*
X252266335Y-82546098D01*
X252052171Y-82645964D01*
X252052169Y-82645965D01*
X251858597Y-82781505D01*
X251691505Y-82948597D01*
X251561575Y-83134158D01*
X251506998Y-83177783D01*
X251437500Y-83184977D01*
X251375145Y-83153454D01*
X251358425Y-83134158D01*
X251228494Y-82948597D01*
X251061402Y-82781506D01*
X251061395Y-82781501D01*
X250867834Y-82645967D01*
X250867830Y-82645965D01*
X250867828Y-82645964D01*
X250653663Y-82546097D01*
X250653659Y-82546096D01*
X250653655Y-82546094D01*
X250425413Y-82484938D01*
X250425403Y-82484936D01*
X250190001Y-82464341D01*
X250189999Y-82464341D01*
X249954596Y-82484936D01*
X249954586Y-82484938D01*
X249726344Y-82546094D01*
X249726335Y-82546098D01*
X249512171Y-82645964D01*
X249512169Y-82645965D01*
X249318597Y-82781505D01*
X249151505Y-82948597D01*
X249021575Y-83134158D01*
X248966998Y-83177783D01*
X248897500Y-83184977D01*
X248835145Y-83153454D01*
X248818425Y-83134158D01*
X248688494Y-82948597D01*
X248521402Y-82781506D01*
X248521395Y-82781501D01*
X248327834Y-82645967D01*
X248327830Y-82645965D01*
X248327828Y-82645964D01*
X248113663Y-82546097D01*
X248113659Y-82546096D01*
X248113655Y-82546094D01*
X247885413Y-82484938D01*
X247885403Y-82484936D01*
X247650001Y-82464341D01*
X247649999Y-82464341D01*
X247414596Y-82484936D01*
X247414586Y-82484938D01*
X247186344Y-82546094D01*
X247186335Y-82546098D01*
X246972171Y-82645964D01*
X246972169Y-82645965D01*
X246778597Y-82781505D01*
X246611505Y-82948597D01*
X246481575Y-83134158D01*
X246426998Y-83177783D01*
X246357500Y-83184977D01*
X246295145Y-83153454D01*
X246278425Y-83134158D01*
X246148494Y-82948597D01*
X245981402Y-82781506D01*
X245981395Y-82781501D01*
X245787834Y-82645967D01*
X245787830Y-82645965D01*
X245787828Y-82645964D01*
X245573663Y-82546097D01*
X245573659Y-82546096D01*
X245573655Y-82546094D01*
X245345413Y-82484938D01*
X245345403Y-82484936D01*
X245110001Y-82464341D01*
X245109999Y-82464341D01*
X244874596Y-82484936D01*
X244874586Y-82484938D01*
X244646344Y-82546094D01*
X244646335Y-82546098D01*
X244432171Y-82645964D01*
X244432169Y-82645965D01*
X244238597Y-82781505D01*
X244071505Y-82948597D01*
X243941575Y-83134158D01*
X243886998Y-83177783D01*
X243817500Y-83184977D01*
X243755145Y-83153454D01*
X243738425Y-83134158D01*
X243608494Y-82948597D01*
X243441402Y-82781506D01*
X243441395Y-82781501D01*
X243247834Y-82645967D01*
X243247830Y-82645965D01*
X243247828Y-82645964D01*
X243033663Y-82546097D01*
X243033659Y-82546096D01*
X243033655Y-82546094D01*
X242805413Y-82484938D01*
X242805403Y-82484936D01*
X242570001Y-82464341D01*
X242569999Y-82464341D01*
X242334596Y-82484936D01*
X242334586Y-82484938D01*
X242106344Y-82546094D01*
X242106335Y-82546098D01*
X241892171Y-82645964D01*
X241892169Y-82645965D01*
X241698597Y-82781505D01*
X241531505Y-82948597D01*
X241395965Y-83142169D01*
X241395964Y-83142171D01*
X241296098Y-83356335D01*
X241296094Y-83356344D01*
X241234938Y-83584586D01*
X241234936Y-83584596D01*
X241214341Y-83819999D01*
X241214341Y-83820000D01*
X241234936Y-84055403D01*
X241234938Y-84055413D01*
X241269327Y-84183756D01*
X241267664Y-84253606D01*
X241237234Y-84303530D01*
X241124286Y-84416478D01*
X241012481Y-84528282D01*
X241012480Y-84528284D01*
X240972727Y-84597139D01*
X240933423Y-84665215D01*
X240892499Y-84817943D01*
X240892499Y-84817945D01*
X240892499Y-84986046D01*
X240892500Y-84986059D01*
X240892500Y-95356330D01*
X240892499Y-95356348D01*
X240892499Y-95522054D01*
X240892498Y-95522054D01*
X221791289Y-95522054D01*
X221438590Y-95169355D01*
X221438588Y-95169352D01*
X221319717Y-95050481D01*
X221319716Y-95050480D01*
X221232904Y-95000360D01*
X221232904Y-95000359D01*
X221232900Y-95000358D01*
X221182785Y-94971423D01*
X221030057Y-94930499D01*
X220871943Y-94930499D01*
X220864347Y-94930499D01*
X220864331Y-94930500D01*
X215698057Y-94930500D01*
X215539942Y-94930500D01*
X215387215Y-94971423D01*
X215387214Y-94971423D01*
X215387212Y-94971424D01*
X215387209Y-94971425D01*
X215337096Y-95000359D01*
X215337095Y-95000360D01*
X215293689Y-95025420D01*
X215250285Y-95050479D01*
X215250282Y-95050481D01*
X215138480Y-95162284D01*
X215138478Y-95162286D01*
X215062954Y-95237810D01*
X215041679Y-95259085D01*
X214980355Y-95292569D01*
X214921906Y-95291178D01*
X214850076Y-95271932D01*
X214850073Y-95271931D01*
X214850068Y-95271930D01*
X214850065Y-95271929D01*
X214850062Y-95271929D01*
X214630002Y-95252677D01*
X214629998Y-95252677D01*
X214409937Y-95271929D01*
X214409929Y-95271930D01*
X214196554Y-95329104D01*
X214196548Y-95329107D01*
X213996340Y-95422465D01*
X213996338Y-95422466D01*
X213815377Y-95549175D01*
X213659175Y-95705377D01*
X213532466Y-95886338D01*
X213532465Y-95886340D01*
X213472382Y-96015189D01*
X213426209Y-96067628D01*
X213359016Y-96086780D01*
X213292135Y-96066564D01*
X213247618Y-96015189D01*
X213229059Y-95975390D01*
X213187534Y-95886339D01*
X213060826Y-95705380D01*
X212904620Y-95549174D01*
X212904616Y-95549171D01*
X212904615Y-95549170D01*
X212723666Y-95422468D01*
X212723662Y-95422466D01*
X212598158Y-95363943D01*
X212523450Y-95329106D01*
X212523447Y-95329105D01*
X212523445Y-95329104D01*
X212310070Y-95271930D01*
X212310062Y-95271929D01*
X212090002Y-95252677D01*
X212089998Y-95252677D01*
X211869937Y-95271929D01*
X211869929Y-95271930D01*
X211656554Y-95329104D01*
X211656548Y-95329107D01*
X211456340Y-95422465D01*
X211456338Y-95422466D01*
X211275377Y-95549175D01*
X211119175Y-95705377D01*
X210992466Y-95886338D01*
X210992465Y-95886340D01*
X210932382Y-96015189D01*
X210886209Y-96067628D01*
X210819016Y-96086780D01*
X210752135Y-96066564D01*
X210707618Y-96015189D01*
X210689059Y-95975390D01*
X210647534Y-95886339D01*
X210520826Y-95705380D01*
X210364620Y-95549174D01*
X210364616Y-95549171D01*
X210364615Y-95549170D01*
X210183666Y-95422468D01*
X210183662Y-95422466D01*
X210058158Y-95363943D01*
X209983450Y-95329106D01*
X209983447Y-95329105D01*
X209983445Y-95329104D01*
X209770070Y-95271930D01*
X209770062Y-95271929D01*
X209550002Y-95252677D01*
X209549998Y-95252677D01*
X209329937Y-95271929D01*
X209329929Y-95271930D01*
X209116554Y-95329104D01*
X209116548Y-95329107D01*
X208916340Y-95422465D01*
X208916338Y-95422466D01*
X208735377Y-95549175D01*
X208579175Y-95705377D01*
X208452466Y-95886338D01*
X208452465Y-95886340D01*
X208359107Y-96086548D01*
X208359104Y-96086554D01*
X208301930Y-96299929D01*
X208301929Y-96299937D01*
X208282677Y-96519997D01*
X208282677Y-96520002D01*
X208301929Y-96740062D01*
X208301930Y-96740070D01*
X208359104Y-96953445D01*
X208359105Y-96953447D01*
X208359106Y-96953450D01*
X208452466Y-97153662D01*
X208487977Y-97204377D01*
X208510304Y-97270582D01*
X208493294Y-97338350D01*
X208442346Y-97386163D01*
X208386402Y-97399500D01*
X205834500Y-97399500D01*
X205767461Y-97379815D01*
X205721706Y-97327011D01*
X205710500Y-97275500D01*
X205710499Y-96042129D01*
X205710498Y-96042123D01*
X205710497Y-96042116D01*
X205704091Y-95982517D01*
X205668219Y-95886340D01*
X205653797Y-95847671D01*
X205653793Y-95847664D01*
X205567547Y-95732455D01*
X205567544Y-95732452D01*
X205452335Y-95646206D01*
X205452328Y-95646202D01*
X205317482Y-95595908D01*
X205317483Y-95595908D01*
X205257883Y-95589501D01*
X205257881Y-95589500D01*
X205257873Y-95589500D01*
X205257864Y-95589500D01*
X203462129Y-95589500D01*
X203462123Y-95589501D01*
X203402516Y-95595908D01*
X203267671Y-95646202D01*
X203267664Y-95646206D01*
X203152455Y-95732452D01*
X203152452Y-95732455D01*
X203066206Y-95847664D01*
X203066202Y-95847671D01*
X203015908Y-95982517D01*
X203012396Y-96015189D01*
X203009501Y-96042123D01*
X203009500Y-96042135D01*
X198125500Y-96042135D01*
X198125500Y-79903713D01*
X201849500Y-79903713D01*
X201849500Y-80116286D01*
X201882753Y-80326239D01*
X201948444Y-80528414D01*
X202044951Y-80717820D01*
X202169890Y-80889786D01*
X202320213Y-81040109D01*
X202492179Y-81165048D01*
X202492181Y-81165049D01*
X202492184Y-81165051D01*
X202681588Y-81261557D01*
X202883757Y-81327246D01*
X203093713Y-81360500D01*
X203093714Y-81360500D01*
X203306286Y-81360500D01*
X203306287Y-81360500D01*
X203516243Y-81327246D01*
X203718412Y-81261557D01*
X203907816Y-81165051D01*
X203929789Y-81149086D01*
X204079786Y-81040109D01*
X204079788Y-81040106D01*
X204079792Y-81040104D01*
X204230104Y-80889792D01*
X204230106Y-80889788D01*
X204230109Y-80889786D01*
X204355048Y-80717820D01*
X204355047Y-80717820D01*
X204355051Y-80717816D01*
X204451557Y-80528412D01*
X204517246Y-80326243D01*
X204550500Y-80116287D01*
X204550500Y-79903713D01*
X266619500Y-79903713D01*
X266619500Y-80116286D01*
X266652753Y-80326239D01*
X266718444Y-80528414D01*
X266814951Y-80717820D01*
X266939890Y-80889786D01*
X267090213Y-81040109D01*
X267262179Y-81165048D01*
X267262181Y-81165049D01*
X267262184Y-81165051D01*
X267451588Y-81261557D01*
X267653757Y-81327246D01*
X267863713Y-81360500D01*
X267863714Y-81360500D01*
X268076286Y-81360500D01*
X268076287Y-81360500D01*
X268286243Y-81327246D01*
X268488412Y-81261557D01*
X268677816Y-81165051D01*
X268699789Y-81149086D01*
X268849786Y-81040109D01*
X268849788Y-81040106D01*
X268849792Y-81040104D01*
X269000104Y-80889792D01*
X269000106Y-80889788D01*
X269000109Y-80889786D01*
X269125048Y-80717820D01*
X269125047Y-80717820D01*
X269125051Y-80717816D01*
X269221557Y-80528412D01*
X269287246Y-80326243D01*
X269320500Y-80116287D01*
X269320500Y-79903713D01*
X269287246Y-79693757D01*
X269221557Y-79491588D01*
X269125051Y-79302184D01*
X269125049Y-79302181D01*
X269125048Y-79302179D01*
X269000109Y-79130213D01*
X268849786Y-78979890D01*
X268677820Y-78854951D01*
X268488414Y-78758444D01*
X268488413Y-78758443D01*
X268488412Y-78758443D01*
X268286243Y-78692754D01*
X268286241Y-78692753D01*
X268286240Y-78692753D01*
X268124957Y-78667208D01*
X268076287Y-78659500D01*
X267863713Y-78659500D01*
X267815042Y-78667208D01*
X267653760Y-78692753D01*
X267451585Y-78758444D01*
X267262179Y-78854951D01*
X267090213Y-78979890D01*
X266939890Y-79130213D01*
X266814951Y-79302179D01*
X266718444Y-79491585D01*
X266652753Y-79693760D01*
X266619500Y-79903713D01*
X204550500Y-79903713D01*
X204517246Y-79693757D01*
X204451557Y-79491588D01*
X204355051Y-79302184D01*
X204355049Y-79302181D01*
X204355048Y-79302179D01*
X204230109Y-79130213D01*
X204079786Y-78979890D01*
X203907820Y-78854951D01*
X203718414Y-78758444D01*
X203718413Y-78758443D01*
X203718412Y-78758443D01*
X203516243Y-78692754D01*
X203516241Y-78692753D01*
X203516240Y-78692753D01*
X203354957Y-78667208D01*
X203306287Y-78659500D01*
X203093713Y-78659500D01*
X203045042Y-78667208D01*
X202883760Y-78692753D01*
X202681585Y-78758444D01*
X202492179Y-78854951D01*
X202320213Y-78979890D01*
X202169890Y-79130213D01*
X202044951Y-79302179D01*
X201948444Y-79491585D01*
X201882753Y-79693760D01*
X201849500Y-79903713D01*
X198125500Y-79903713D01*
X198125500Y-75524500D01*
X198145185Y-75457461D01*
X198197989Y-75411706D01*
X198249500Y-75400500D01*
X272025500Y-75400500D01*
X272092539Y-75420185D01*
G37*
G04 #@! TD.AperFunction*
M02*
