G04 #@! TF.GenerationSoftware,KiCad,Pcbnew,8.0.3*
G04 #@! TF.CreationDate,2025-07-28T20:13:40+02:00*
G04 #@! TF.ProjectId,DC_minni,44435f6d-696e-46e6-992e-6b696361645f,rev?*
G04 #@! TF.SameCoordinates,Original*
G04 #@! TF.FileFunction,Soldermask,Bot*
G04 #@! TF.FilePolarity,Negative*
%FSLAX46Y46*%
G04 Gerber Fmt 4.6, Leading zero omitted, Abs format (unit mm)*
G04 Created by KiCad (PCBNEW 8.0.3) date 2025-07-28 20:13:40*
%MOMM*%
%LPD*%
G01*
G04 APERTURE LIST*
G04 APERTURE END LIST*
G36*
X214350000Y-177850000D02*
G01*
X212650000Y-177850000D01*
X212650000Y-176150000D01*
X214350000Y-176150000D01*
X214350000Y-177850000D01*
G37*
G36*
X219350000Y-177850000D02*
G01*
X217650000Y-177850000D01*
X217650000Y-176150000D01*
X219350000Y-176150000D01*
X219350000Y-177850000D01*
G37*
G36*
X224350000Y-177850000D02*
G01*
X222650000Y-177850000D01*
X222650000Y-176150000D01*
X224350000Y-176150000D01*
X224350000Y-177850000D01*
G37*
G36*
X232850000Y-177850000D02*
G01*
X231150000Y-177850000D01*
X231150000Y-176150000D01*
X232850000Y-176150000D01*
X232850000Y-177850000D01*
G37*
G36*
X237850000Y-177850000D02*
G01*
X236150000Y-177850000D01*
X236150000Y-176150000D01*
X237850000Y-176150000D01*
X237850000Y-177850000D01*
G37*
G36*
X242850000Y-177850000D02*
G01*
X241150000Y-177850000D01*
X241150000Y-176150000D01*
X242850000Y-176150000D01*
X242850000Y-177850000D01*
G37*
G36*
X249350000Y-177850000D02*
G01*
X247650000Y-177850000D01*
X247650000Y-176150000D01*
X249350000Y-176150000D01*
X249350000Y-177850000D01*
G37*
G36*
X202231029Y-175471992D02*
G01*
X202420312Y-175545320D01*
X202592898Y-175652181D01*
X202742910Y-175788935D01*
X202865239Y-175950925D01*
X202955719Y-176132634D01*
X203011270Y-176327876D01*
X203030000Y-176530000D01*
X203011270Y-176732124D01*
X202955719Y-176927366D01*
X202865239Y-177109075D01*
X202742910Y-177271065D01*
X202592898Y-177407819D01*
X202420312Y-177514680D01*
X202231029Y-177588008D01*
X202031495Y-177625308D01*
X201828505Y-177625308D01*
X201628971Y-177588008D01*
X201439688Y-177514680D01*
X201267102Y-177407819D01*
X201117090Y-177271065D01*
X200994761Y-177109075D01*
X200904281Y-176927366D01*
X200848730Y-176732124D01*
X200830000Y-176530000D01*
X200848730Y-176327876D01*
X200904281Y-176132634D01*
X200994761Y-175950925D01*
X201117090Y-175788935D01*
X201267102Y-175652181D01*
X201439688Y-175545320D01*
X201628971Y-175471992D01*
X201828505Y-175434692D01*
X202031495Y-175434692D01*
X202231029Y-175471992D01*
G37*
G36*
X267001029Y-174201992D02*
G01*
X267190312Y-174275320D01*
X267362898Y-174382181D01*
X267512910Y-174518935D01*
X267635239Y-174680925D01*
X267725719Y-174862634D01*
X267781270Y-175057876D01*
X267800000Y-175260000D01*
X267781270Y-175462124D01*
X267725719Y-175657366D01*
X267635239Y-175839075D01*
X267512910Y-176001065D01*
X267362898Y-176137819D01*
X267190312Y-176244680D01*
X267001029Y-176318008D01*
X266801495Y-176355308D01*
X266598505Y-176355308D01*
X266398971Y-176318008D01*
X266209688Y-176244680D01*
X266037102Y-176137819D01*
X265887090Y-176001065D01*
X265764761Y-175839075D01*
X265674281Y-175657366D01*
X265618730Y-175462124D01*
X265600000Y-175260000D01*
X265618730Y-175057876D01*
X265674281Y-174862634D01*
X265764761Y-174680925D01*
X265887090Y-174518935D01*
X266037102Y-174382181D01*
X266209688Y-174275320D01*
X266398971Y-174201992D01*
X266598505Y-174164692D01*
X266801495Y-174164692D01*
X267001029Y-174201992D01*
G37*
G36*
X208350000Y-176350000D02*
G01*
X206650000Y-176350000D01*
X206650000Y-174650000D01*
X208350000Y-174650000D01*
X208350000Y-176350000D01*
G37*
G36*
X249350000Y-173850000D02*
G01*
X247650000Y-173850000D01*
X247650000Y-172150000D01*
X249350000Y-172150000D01*
X249350000Y-173850000D01*
G37*
G36*
X217404376Y-172020286D02*
G01*
X217457329Y-172022888D01*
X217463848Y-172024184D01*
X217478316Y-172025133D01*
X217506266Y-172032622D01*
X217574084Y-172046112D01*
X217606091Y-172059370D01*
X217629610Y-172065672D01*
X217650698Y-172077847D01*
X217682702Y-172091104D01*
X217740184Y-172129512D01*
X217765257Y-172143988D01*
X217772119Y-172150850D01*
X217780449Y-172156416D01*
X217863583Y-172239550D01*
X217869148Y-172247879D01*
X217876012Y-172254743D01*
X217890489Y-172279818D01*
X217928895Y-172337297D01*
X217942150Y-172369298D01*
X217954328Y-172390390D01*
X217960630Y-172413912D01*
X217973887Y-172445915D01*
X217987374Y-172513722D01*
X217994867Y-172541684D01*
X217994867Y-172551388D01*
X217996822Y-172561217D01*
X217996822Y-172678782D01*
X217994867Y-172688610D01*
X217994867Y-172698316D01*
X217987373Y-172726280D01*
X217973887Y-172794084D01*
X217960631Y-172826084D01*
X217954328Y-172849610D01*
X217942149Y-172870704D01*
X217928895Y-172902702D01*
X217890493Y-172960173D01*
X217876012Y-172985257D01*
X217869146Y-172992122D01*
X217863583Y-173000449D01*
X217780449Y-173083583D01*
X217772122Y-173089146D01*
X217765257Y-173096012D01*
X217740173Y-173110493D01*
X217682702Y-173148895D01*
X217650704Y-173162149D01*
X217629610Y-173174328D01*
X217606084Y-173180631D01*
X217574084Y-173193887D01*
X217506282Y-173207373D01*
X217478316Y-173214867D01*
X217468315Y-173214925D01*
X217458675Y-173216843D01*
X216601360Y-173219994D01*
X216601324Y-173219992D01*
X216600000Y-173220000D01*
X216595565Y-173219709D01*
X216542670Y-173217111D01*
X216536157Y-173215815D01*
X216521684Y-173214867D01*
X216493722Y-173207374D01*
X216425915Y-173193887D01*
X216393912Y-173180630D01*
X216370390Y-173174328D01*
X216349298Y-173162150D01*
X216317297Y-173148895D01*
X216259818Y-173110489D01*
X216234743Y-173096012D01*
X216227879Y-173089148D01*
X216219550Y-173083583D01*
X216136416Y-173000449D01*
X216130850Y-172992119D01*
X216123988Y-172985257D01*
X216109512Y-172960184D01*
X216071104Y-172902702D01*
X216057847Y-172870698D01*
X216045672Y-172849610D01*
X216039370Y-172826091D01*
X216026112Y-172794084D01*
X216012624Y-172726274D01*
X216005133Y-172698316D01*
X216005133Y-172688610D01*
X216003178Y-172678782D01*
X216003178Y-172561217D01*
X216005133Y-172551388D01*
X216005133Y-172541684D01*
X216012623Y-172513728D01*
X216026112Y-172445915D01*
X216039371Y-172413905D01*
X216045672Y-172390390D01*
X216057845Y-172369304D01*
X216071104Y-172337297D01*
X216109516Y-172279807D01*
X216123988Y-172254743D01*
X216130848Y-172247882D01*
X216136416Y-172239550D01*
X216219550Y-172156416D01*
X216227882Y-172150848D01*
X216234743Y-172143988D01*
X216259807Y-172129516D01*
X216317297Y-172091104D01*
X216349304Y-172077845D01*
X216370390Y-172065672D01*
X216393905Y-172059371D01*
X216425915Y-172046112D01*
X216493734Y-172032622D01*
X216521684Y-172025133D01*
X216531678Y-172025074D01*
X216541324Y-172023156D01*
X217398639Y-172020005D01*
X217398692Y-172020007D01*
X217400000Y-172020000D01*
X217404376Y-172020286D01*
G37*
G36*
X242800696Y-172017566D02*
G01*
X242853649Y-172020168D01*
X242860168Y-172021464D01*
X242874636Y-172022413D01*
X242902586Y-172029902D01*
X242970404Y-172043392D01*
X243002411Y-172056650D01*
X243025930Y-172062952D01*
X243047018Y-172075127D01*
X243079022Y-172088384D01*
X243136504Y-172126792D01*
X243161577Y-172141268D01*
X243168439Y-172148130D01*
X243176769Y-172153696D01*
X243259903Y-172236830D01*
X243265468Y-172245159D01*
X243272332Y-172252023D01*
X243286809Y-172277098D01*
X243325215Y-172334577D01*
X243338470Y-172366578D01*
X243350648Y-172387670D01*
X243356950Y-172411192D01*
X243370207Y-172443195D01*
X243383694Y-172511002D01*
X243391187Y-172538964D01*
X243391187Y-172548668D01*
X243393142Y-172558497D01*
X243393142Y-172676062D01*
X243391187Y-172685890D01*
X243391187Y-172695596D01*
X243383693Y-172723560D01*
X243370207Y-172791364D01*
X243356951Y-172823364D01*
X243350648Y-172846890D01*
X243338469Y-172867984D01*
X243325215Y-172899982D01*
X243286813Y-172957453D01*
X243272332Y-172982537D01*
X243265466Y-172989402D01*
X243259903Y-172997729D01*
X243176769Y-173080863D01*
X243168442Y-173086426D01*
X243161577Y-173093292D01*
X243136493Y-173107773D01*
X243079022Y-173146175D01*
X243047024Y-173159429D01*
X243025930Y-173171608D01*
X243002404Y-173177911D01*
X242970404Y-173191167D01*
X242902602Y-173204653D01*
X242874636Y-173212147D01*
X242864635Y-173212205D01*
X242854995Y-173214123D01*
X241997680Y-173217274D01*
X241997644Y-173217272D01*
X241996320Y-173217280D01*
X241991885Y-173216989D01*
X241938990Y-173214391D01*
X241932477Y-173213095D01*
X241918004Y-173212147D01*
X241890042Y-173204654D01*
X241822235Y-173191167D01*
X241790232Y-173177910D01*
X241766710Y-173171608D01*
X241745618Y-173159430D01*
X241713617Y-173146175D01*
X241656138Y-173107769D01*
X241631063Y-173093292D01*
X241624199Y-173086428D01*
X241615870Y-173080863D01*
X241532736Y-172997729D01*
X241527170Y-172989399D01*
X241520308Y-172982537D01*
X241505832Y-172957464D01*
X241467424Y-172899982D01*
X241454167Y-172867978D01*
X241441992Y-172846890D01*
X241435690Y-172823371D01*
X241422432Y-172791364D01*
X241408944Y-172723554D01*
X241401453Y-172695596D01*
X241401453Y-172685890D01*
X241399498Y-172676062D01*
X241399498Y-172558497D01*
X241401453Y-172548668D01*
X241401453Y-172538964D01*
X241408943Y-172511008D01*
X241422432Y-172443195D01*
X241435691Y-172411185D01*
X241441992Y-172387670D01*
X241454165Y-172366584D01*
X241467424Y-172334577D01*
X241505836Y-172277087D01*
X241520308Y-172252023D01*
X241527168Y-172245162D01*
X241532736Y-172236830D01*
X241615870Y-172153696D01*
X241624202Y-172148128D01*
X241631063Y-172141268D01*
X241656127Y-172126796D01*
X241713617Y-172088384D01*
X241745624Y-172075125D01*
X241766710Y-172062952D01*
X241790225Y-172056651D01*
X241822235Y-172043392D01*
X241890054Y-172029902D01*
X241918004Y-172022413D01*
X241927998Y-172022354D01*
X241937644Y-172020436D01*
X242794959Y-172017285D01*
X242795012Y-172017287D01*
X242796320Y-172017280D01*
X242800696Y-172017566D01*
G37*
G36*
X208350000Y-172350000D02*
G01*
X206650000Y-172350000D01*
X206650000Y-170650000D01*
X208350000Y-170650000D01*
X208350000Y-172350000D01*
G37*
G36*
X217404376Y-169480286D02*
G01*
X217457329Y-169482888D01*
X217463848Y-169484184D01*
X217478316Y-169485133D01*
X217506266Y-169492622D01*
X217574084Y-169506112D01*
X217606091Y-169519370D01*
X217629610Y-169525672D01*
X217650698Y-169537847D01*
X217682702Y-169551104D01*
X217740184Y-169589512D01*
X217765257Y-169603988D01*
X217772119Y-169610850D01*
X217780449Y-169616416D01*
X217863583Y-169699550D01*
X217869148Y-169707879D01*
X217876012Y-169714743D01*
X217890489Y-169739818D01*
X217928895Y-169797297D01*
X217942150Y-169829298D01*
X217954328Y-169850390D01*
X217960630Y-169873912D01*
X217973887Y-169905915D01*
X217987374Y-169973722D01*
X217994867Y-170001684D01*
X217994867Y-170011388D01*
X217996822Y-170021217D01*
X217996822Y-170138782D01*
X217994867Y-170148610D01*
X217994867Y-170158316D01*
X217987373Y-170186280D01*
X217973887Y-170254084D01*
X217960631Y-170286084D01*
X217954328Y-170309610D01*
X217942149Y-170330704D01*
X217928895Y-170362702D01*
X217890493Y-170420173D01*
X217876012Y-170445257D01*
X217869146Y-170452122D01*
X217863583Y-170460449D01*
X217780449Y-170543583D01*
X217772122Y-170549146D01*
X217765257Y-170556012D01*
X217740173Y-170570493D01*
X217682702Y-170608895D01*
X217650704Y-170622149D01*
X217629610Y-170634328D01*
X217606084Y-170640631D01*
X217574084Y-170653887D01*
X217506282Y-170667373D01*
X217478316Y-170674867D01*
X217468315Y-170674925D01*
X217458675Y-170676843D01*
X216601360Y-170679994D01*
X216601324Y-170679992D01*
X216600000Y-170680000D01*
X216595565Y-170679709D01*
X216542670Y-170677111D01*
X216536157Y-170675815D01*
X216521684Y-170674867D01*
X216493722Y-170667374D01*
X216425915Y-170653887D01*
X216393912Y-170640630D01*
X216370390Y-170634328D01*
X216349298Y-170622150D01*
X216317297Y-170608895D01*
X216259818Y-170570489D01*
X216234743Y-170556012D01*
X216227879Y-170549148D01*
X216219550Y-170543583D01*
X216136416Y-170460449D01*
X216130850Y-170452119D01*
X216123988Y-170445257D01*
X216109512Y-170420184D01*
X216071104Y-170362702D01*
X216057847Y-170330698D01*
X216045672Y-170309610D01*
X216039370Y-170286091D01*
X216026112Y-170254084D01*
X216012624Y-170186274D01*
X216005133Y-170158316D01*
X216005133Y-170148610D01*
X216003178Y-170138782D01*
X216003178Y-170021217D01*
X216005133Y-170011388D01*
X216005133Y-170001684D01*
X216012623Y-169973728D01*
X216026112Y-169905915D01*
X216039371Y-169873905D01*
X216045672Y-169850390D01*
X216057845Y-169829304D01*
X216071104Y-169797297D01*
X216109516Y-169739807D01*
X216123988Y-169714743D01*
X216130848Y-169707882D01*
X216136416Y-169699550D01*
X216219550Y-169616416D01*
X216227882Y-169610848D01*
X216234743Y-169603988D01*
X216259807Y-169589516D01*
X216317297Y-169551104D01*
X216349304Y-169537845D01*
X216370390Y-169525672D01*
X216393905Y-169519371D01*
X216425915Y-169506112D01*
X216493734Y-169492622D01*
X216521684Y-169485133D01*
X216531678Y-169485074D01*
X216541324Y-169483156D01*
X217398639Y-169480005D01*
X217398692Y-169480007D01*
X217400000Y-169480000D01*
X217404376Y-169480286D01*
G37*
G36*
X242800696Y-169477566D02*
G01*
X242853649Y-169480168D01*
X242860168Y-169481464D01*
X242874636Y-169482413D01*
X242902586Y-169489902D01*
X242970404Y-169503392D01*
X243002411Y-169516650D01*
X243025930Y-169522952D01*
X243047018Y-169535127D01*
X243079022Y-169548384D01*
X243136504Y-169586792D01*
X243161577Y-169601268D01*
X243168439Y-169608130D01*
X243176769Y-169613696D01*
X243259903Y-169696830D01*
X243265468Y-169705159D01*
X243272332Y-169712023D01*
X243286809Y-169737098D01*
X243325215Y-169794577D01*
X243338470Y-169826578D01*
X243350648Y-169847670D01*
X243356950Y-169871192D01*
X243370207Y-169903195D01*
X243383694Y-169971002D01*
X243391187Y-169998964D01*
X243391187Y-170008668D01*
X243393142Y-170018497D01*
X243393142Y-170136062D01*
X243391187Y-170145890D01*
X243391187Y-170155596D01*
X243383693Y-170183560D01*
X243370207Y-170251364D01*
X243356951Y-170283364D01*
X243350648Y-170306890D01*
X243338469Y-170327984D01*
X243325215Y-170359982D01*
X243286813Y-170417453D01*
X243272332Y-170442537D01*
X243265466Y-170449402D01*
X243259903Y-170457729D01*
X243176769Y-170540863D01*
X243168442Y-170546426D01*
X243161577Y-170553292D01*
X243136493Y-170567773D01*
X243079022Y-170606175D01*
X243047024Y-170619429D01*
X243025930Y-170631608D01*
X243002404Y-170637911D01*
X242970404Y-170651167D01*
X242902602Y-170664653D01*
X242874636Y-170672147D01*
X242864635Y-170672205D01*
X242854995Y-170674123D01*
X241997680Y-170677274D01*
X241997644Y-170677272D01*
X241996320Y-170677280D01*
X241991885Y-170676989D01*
X241938990Y-170674391D01*
X241932477Y-170673095D01*
X241918004Y-170672147D01*
X241890042Y-170664654D01*
X241822235Y-170651167D01*
X241790232Y-170637910D01*
X241766710Y-170631608D01*
X241745618Y-170619430D01*
X241713617Y-170606175D01*
X241656138Y-170567769D01*
X241631063Y-170553292D01*
X241624199Y-170546428D01*
X241615870Y-170540863D01*
X241532736Y-170457729D01*
X241527170Y-170449399D01*
X241520308Y-170442537D01*
X241505832Y-170417464D01*
X241467424Y-170359982D01*
X241454167Y-170327978D01*
X241441992Y-170306890D01*
X241435690Y-170283371D01*
X241422432Y-170251364D01*
X241408944Y-170183554D01*
X241401453Y-170155596D01*
X241401453Y-170145890D01*
X241399498Y-170136062D01*
X241399498Y-170018497D01*
X241401453Y-170008668D01*
X241401453Y-169998964D01*
X241408943Y-169971008D01*
X241422432Y-169903195D01*
X241435691Y-169871185D01*
X241441992Y-169847670D01*
X241454165Y-169826584D01*
X241467424Y-169794577D01*
X241505836Y-169737087D01*
X241520308Y-169712023D01*
X241527168Y-169705162D01*
X241532736Y-169696830D01*
X241615870Y-169613696D01*
X241624202Y-169608128D01*
X241631063Y-169601268D01*
X241656127Y-169586796D01*
X241713617Y-169548384D01*
X241745624Y-169535125D01*
X241766710Y-169522952D01*
X241790225Y-169516651D01*
X241822235Y-169503392D01*
X241890054Y-169489902D01*
X241918004Y-169482413D01*
X241927998Y-169482354D01*
X241937644Y-169480436D01*
X242794959Y-169477285D01*
X242795012Y-169477287D01*
X242796320Y-169477280D01*
X242800696Y-169477566D01*
G37*
G36*
X249350000Y-169850000D02*
G01*
X247650000Y-169850000D01*
X247650000Y-168150000D01*
X249350000Y-168150000D01*
X249350000Y-169850000D01*
G37*
G36*
X208350000Y-168350000D02*
G01*
X206650000Y-168350000D01*
X206650000Y-166650000D01*
X208350000Y-166650000D01*
X208350000Y-168350000D01*
G37*
G36*
X217404376Y-166940286D02*
G01*
X217457329Y-166942888D01*
X217463848Y-166944184D01*
X217478316Y-166945133D01*
X217506266Y-166952622D01*
X217574084Y-166966112D01*
X217606091Y-166979370D01*
X217629610Y-166985672D01*
X217650698Y-166997847D01*
X217682702Y-167011104D01*
X217740184Y-167049512D01*
X217765257Y-167063988D01*
X217772119Y-167070850D01*
X217780449Y-167076416D01*
X217863583Y-167159550D01*
X217869148Y-167167879D01*
X217876012Y-167174743D01*
X217890489Y-167199818D01*
X217928895Y-167257297D01*
X217942150Y-167289298D01*
X217954328Y-167310390D01*
X217960630Y-167333912D01*
X217973887Y-167365915D01*
X217987374Y-167433722D01*
X217994867Y-167461684D01*
X217994867Y-167471388D01*
X217996822Y-167481217D01*
X217996822Y-167598782D01*
X217994867Y-167608610D01*
X217994867Y-167618316D01*
X217987373Y-167646280D01*
X217973887Y-167714084D01*
X217960631Y-167746084D01*
X217954328Y-167769610D01*
X217942149Y-167790704D01*
X217928895Y-167822702D01*
X217890493Y-167880173D01*
X217876012Y-167905257D01*
X217869146Y-167912122D01*
X217863583Y-167920449D01*
X217780449Y-168003583D01*
X217772122Y-168009146D01*
X217765257Y-168016012D01*
X217740173Y-168030493D01*
X217682702Y-168068895D01*
X217650704Y-168082149D01*
X217629610Y-168094328D01*
X217606084Y-168100631D01*
X217574084Y-168113887D01*
X217506282Y-168127373D01*
X217478316Y-168134867D01*
X217468315Y-168134925D01*
X217458675Y-168136843D01*
X216601360Y-168139994D01*
X216601324Y-168139992D01*
X216600000Y-168140000D01*
X216595565Y-168139709D01*
X216542670Y-168137111D01*
X216536157Y-168135815D01*
X216521684Y-168134867D01*
X216493722Y-168127374D01*
X216425915Y-168113887D01*
X216393912Y-168100630D01*
X216370390Y-168094328D01*
X216349298Y-168082150D01*
X216317297Y-168068895D01*
X216259818Y-168030489D01*
X216234743Y-168016012D01*
X216227879Y-168009148D01*
X216219550Y-168003583D01*
X216136416Y-167920449D01*
X216130850Y-167912119D01*
X216123988Y-167905257D01*
X216109512Y-167880184D01*
X216071104Y-167822702D01*
X216057847Y-167790698D01*
X216045672Y-167769610D01*
X216039370Y-167746091D01*
X216026112Y-167714084D01*
X216012624Y-167646274D01*
X216005133Y-167618316D01*
X216005133Y-167608610D01*
X216003178Y-167598782D01*
X216003178Y-167481217D01*
X216005133Y-167471388D01*
X216005133Y-167461684D01*
X216012623Y-167433728D01*
X216026112Y-167365915D01*
X216039371Y-167333905D01*
X216045672Y-167310390D01*
X216057845Y-167289304D01*
X216071104Y-167257297D01*
X216109516Y-167199807D01*
X216123988Y-167174743D01*
X216130848Y-167167882D01*
X216136416Y-167159550D01*
X216219550Y-167076416D01*
X216227882Y-167070848D01*
X216234743Y-167063988D01*
X216259807Y-167049516D01*
X216317297Y-167011104D01*
X216349304Y-166997845D01*
X216370390Y-166985672D01*
X216393905Y-166979371D01*
X216425915Y-166966112D01*
X216493734Y-166952622D01*
X216521684Y-166945133D01*
X216531678Y-166945074D01*
X216541324Y-166943156D01*
X217398639Y-166940005D01*
X217398692Y-166940007D01*
X217400000Y-166940000D01*
X217404376Y-166940286D01*
G37*
G36*
X242804376Y-166940286D02*
G01*
X242857329Y-166942888D01*
X242863848Y-166944184D01*
X242878316Y-166945133D01*
X242906266Y-166952622D01*
X242974084Y-166966112D01*
X243006091Y-166979370D01*
X243029610Y-166985672D01*
X243050698Y-166997847D01*
X243082702Y-167011104D01*
X243140184Y-167049512D01*
X243165257Y-167063988D01*
X243172119Y-167070850D01*
X243180449Y-167076416D01*
X243263583Y-167159550D01*
X243269148Y-167167879D01*
X243276012Y-167174743D01*
X243290489Y-167199818D01*
X243328895Y-167257297D01*
X243342150Y-167289298D01*
X243354328Y-167310390D01*
X243360630Y-167333912D01*
X243373887Y-167365915D01*
X243387374Y-167433722D01*
X243394867Y-167461684D01*
X243394867Y-167471388D01*
X243396822Y-167481217D01*
X243396822Y-167598782D01*
X243394867Y-167608610D01*
X243394867Y-167618316D01*
X243387373Y-167646280D01*
X243373887Y-167714084D01*
X243360631Y-167746084D01*
X243354328Y-167769610D01*
X243342149Y-167790704D01*
X243328895Y-167822702D01*
X243290493Y-167880173D01*
X243276012Y-167905257D01*
X243269146Y-167912122D01*
X243263583Y-167920449D01*
X243180449Y-168003583D01*
X243172122Y-168009146D01*
X243165257Y-168016012D01*
X243140173Y-168030493D01*
X243082702Y-168068895D01*
X243050704Y-168082149D01*
X243029610Y-168094328D01*
X243006084Y-168100631D01*
X242974084Y-168113887D01*
X242906282Y-168127373D01*
X242878316Y-168134867D01*
X242868315Y-168134925D01*
X242858675Y-168136843D01*
X242001360Y-168139994D01*
X242001324Y-168139992D01*
X242000000Y-168140000D01*
X241995565Y-168139709D01*
X241942670Y-168137111D01*
X241936157Y-168135815D01*
X241921684Y-168134867D01*
X241893722Y-168127374D01*
X241825915Y-168113887D01*
X241793912Y-168100630D01*
X241770390Y-168094328D01*
X241749298Y-168082150D01*
X241717297Y-168068895D01*
X241659818Y-168030489D01*
X241634743Y-168016012D01*
X241627879Y-168009148D01*
X241619550Y-168003583D01*
X241536416Y-167920449D01*
X241530850Y-167912119D01*
X241523988Y-167905257D01*
X241509512Y-167880184D01*
X241471104Y-167822702D01*
X241457847Y-167790698D01*
X241445672Y-167769610D01*
X241439370Y-167746091D01*
X241426112Y-167714084D01*
X241412624Y-167646274D01*
X241405133Y-167618316D01*
X241405133Y-167608610D01*
X241403178Y-167598782D01*
X241403178Y-167481217D01*
X241405133Y-167471388D01*
X241405133Y-167461684D01*
X241412623Y-167433728D01*
X241426112Y-167365915D01*
X241439371Y-167333905D01*
X241445672Y-167310390D01*
X241457845Y-167289304D01*
X241471104Y-167257297D01*
X241509516Y-167199807D01*
X241523988Y-167174743D01*
X241530848Y-167167882D01*
X241536416Y-167159550D01*
X241619550Y-167076416D01*
X241627882Y-167070848D01*
X241634743Y-167063988D01*
X241659807Y-167049516D01*
X241717297Y-167011104D01*
X241749304Y-166997845D01*
X241770390Y-166985672D01*
X241793905Y-166979371D01*
X241825915Y-166966112D01*
X241893734Y-166952622D01*
X241921684Y-166945133D01*
X241931678Y-166945074D01*
X241941324Y-166943156D01*
X242798639Y-166940005D01*
X242798692Y-166940007D01*
X242800000Y-166940000D01*
X242804376Y-166940286D01*
G37*
G36*
X249350000Y-165850000D02*
G01*
X247650000Y-165850000D01*
X247650000Y-164150000D01*
X249350000Y-164150000D01*
X249350000Y-165850000D01*
G37*
G36*
X217404376Y-164400286D02*
G01*
X217457329Y-164402888D01*
X217463848Y-164404184D01*
X217478316Y-164405133D01*
X217506266Y-164412622D01*
X217574084Y-164426112D01*
X217606091Y-164439370D01*
X217629610Y-164445672D01*
X217650698Y-164457847D01*
X217682702Y-164471104D01*
X217740184Y-164509512D01*
X217765257Y-164523988D01*
X217772119Y-164530850D01*
X217780449Y-164536416D01*
X217863583Y-164619550D01*
X217869148Y-164627879D01*
X217876012Y-164634743D01*
X217890489Y-164659818D01*
X217928895Y-164717297D01*
X217942150Y-164749298D01*
X217954328Y-164770390D01*
X217960630Y-164793912D01*
X217973887Y-164825915D01*
X217987374Y-164893722D01*
X217994867Y-164921684D01*
X217994867Y-164931388D01*
X217996822Y-164941217D01*
X217996822Y-165058782D01*
X217994867Y-165068610D01*
X217994867Y-165078316D01*
X217987373Y-165106280D01*
X217973887Y-165174084D01*
X217960631Y-165206084D01*
X217954328Y-165229610D01*
X217942149Y-165250704D01*
X217928895Y-165282702D01*
X217890493Y-165340173D01*
X217876012Y-165365257D01*
X217869146Y-165372122D01*
X217863583Y-165380449D01*
X217780449Y-165463583D01*
X217772122Y-165469146D01*
X217765257Y-165476012D01*
X217740173Y-165490493D01*
X217682702Y-165528895D01*
X217650704Y-165542149D01*
X217629610Y-165554328D01*
X217606084Y-165560631D01*
X217574084Y-165573887D01*
X217506282Y-165587373D01*
X217478316Y-165594867D01*
X217468315Y-165594925D01*
X217458675Y-165596843D01*
X216601360Y-165599994D01*
X216601324Y-165599992D01*
X216600000Y-165600000D01*
X216595565Y-165599709D01*
X216542670Y-165597111D01*
X216536157Y-165595815D01*
X216521684Y-165594867D01*
X216493722Y-165587374D01*
X216425915Y-165573887D01*
X216393912Y-165560630D01*
X216370390Y-165554328D01*
X216349298Y-165542150D01*
X216317297Y-165528895D01*
X216259818Y-165490489D01*
X216234743Y-165476012D01*
X216227879Y-165469148D01*
X216219550Y-165463583D01*
X216136416Y-165380449D01*
X216130850Y-165372119D01*
X216123988Y-165365257D01*
X216109512Y-165340184D01*
X216071104Y-165282702D01*
X216057847Y-165250698D01*
X216045672Y-165229610D01*
X216039370Y-165206091D01*
X216026112Y-165174084D01*
X216012624Y-165106274D01*
X216005133Y-165078316D01*
X216005133Y-165068610D01*
X216003178Y-165058782D01*
X216003178Y-164941217D01*
X216005133Y-164931388D01*
X216005133Y-164921684D01*
X216012623Y-164893728D01*
X216026112Y-164825915D01*
X216039371Y-164793905D01*
X216045672Y-164770390D01*
X216057845Y-164749304D01*
X216071104Y-164717297D01*
X216109516Y-164659807D01*
X216123988Y-164634743D01*
X216130848Y-164627882D01*
X216136416Y-164619550D01*
X216219550Y-164536416D01*
X216227882Y-164530848D01*
X216234743Y-164523988D01*
X216259807Y-164509516D01*
X216317297Y-164471104D01*
X216349304Y-164457845D01*
X216370390Y-164445672D01*
X216393905Y-164439371D01*
X216425915Y-164426112D01*
X216493734Y-164412622D01*
X216521684Y-164405133D01*
X216531678Y-164405074D01*
X216541324Y-164403156D01*
X217398639Y-164400005D01*
X217398692Y-164400007D01*
X217400000Y-164400000D01*
X217404376Y-164400286D01*
G37*
G36*
X242804376Y-164400286D02*
G01*
X242857329Y-164402888D01*
X242863848Y-164404184D01*
X242878316Y-164405133D01*
X242906266Y-164412622D01*
X242974084Y-164426112D01*
X243006091Y-164439370D01*
X243029610Y-164445672D01*
X243050698Y-164457847D01*
X243082702Y-164471104D01*
X243140184Y-164509512D01*
X243165257Y-164523988D01*
X243172119Y-164530850D01*
X243180449Y-164536416D01*
X243263583Y-164619550D01*
X243269148Y-164627879D01*
X243276012Y-164634743D01*
X243290489Y-164659818D01*
X243328895Y-164717297D01*
X243342150Y-164749298D01*
X243354328Y-164770390D01*
X243360630Y-164793912D01*
X243373887Y-164825915D01*
X243387374Y-164893722D01*
X243394867Y-164921684D01*
X243394867Y-164931388D01*
X243396822Y-164941217D01*
X243396822Y-165058782D01*
X243394867Y-165068610D01*
X243394867Y-165078316D01*
X243387373Y-165106280D01*
X243373887Y-165174084D01*
X243360631Y-165206084D01*
X243354328Y-165229610D01*
X243342149Y-165250704D01*
X243328895Y-165282702D01*
X243290493Y-165340173D01*
X243276012Y-165365257D01*
X243269146Y-165372122D01*
X243263583Y-165380449D01*
X243180449Y-165463583D01*
X243172122Y-165469146D01*
X243165257Y-165476012D01*
X243140173Y-165490493D01*
X243082702Y-165528895D01*
X243050704Y-165542149D01*
X243029610Y-165554328D01*
X243006084Y-165560631D01*
X242974084Y-165573887D01*
X242906282Y-165587373D01*
X242878316Y-165594867D01*
X242868315Y-165594925D01*
X242858675Y-165596843D01*
X242001360Y-165599994D01*
X242001324Y-165599992D01*
X242000000Y-165600000D01*
X241995565Y-165599709D01*
X241942670Y-165597111D01*
X241936157Y-165595815D01*
X241921684Y-165594867D01*
X241893722Y-165587374D01*
X241825915Y-165573887D01*
X241793912Y-165560630D01*
X241770390Y-165554328D01*
X241749298Y-165542150D01*
X241717297Y-165528895D01*
X241659818Y-165490489D01*
X241634743Y-165476012D01*
X241627879Y-165469148D01*
X241619550Y-165463583D01*
X241536416Y-165380449D01*
X241530850Y-165372119D01*
X241523988Y-165365257D01*
X241509512Y-165340184D01*
X241471104Y-165282702D01*
X241457847Y-165250698D01*
X241445672Y-165229610D01*
X241439370Y-165206091D01*
X241426112Y-165174084D01*
X241412624Y-165106274D01*
X241405133Y-165078316D01*
X241405133Y-165068610D01*
X241403178Y-165058782D01*
X241403178Y-164941217D01*
X241405133Y-164931388D01*
X241405133Y-164921684D01*
X241412623Y-164893728D01*
X241426112Y-164825915D01*
X241439371Y-164793905D01*
X241445672Y-164770390D01*
X241457845Y-164749304D01*
X241471104Y-164717297D01*
X241509516Y-164659807D01*
X241523988Y-164634743D01*
X241530848Y-164627882D01*
X241536416Y-164619550D01*
X241619550Y-164536416D01*
X241627882Y-164530848D01*
X241634743Y-164523988D01*
X241659807Y-164509516D01*
X241717297Y-164471104D01*
X241749304Y-164457845D01*
X241770390Y-164445672D01*
X241793905Y-164439371D01*
X241825915Y-164426112D01*
X241893734Y-164412622D01*
X241921684Y-164405133D01*
X241931678Y-164405074D01*
X241941324Y-164403156D01*
X242798639Y-164400005D01*
X242798692Y-164400007D01*
X242800000Y-164400000D01*
X242804376Y-164400286D01*
G37*
G36*
X208350000Y-164350000D02*
G01*
X206650000Y-164350000D01*
X206650000Y-162650000D01*
X208350000Y-162650000D01*
X208350000Y-164350000D01*
G37*
G36*
X217404376Y-161860286D02*
G01*
X217457329Y-161862888D01*
X217463848Y-161864184D01*
X217478316Y-161865133D01*
X217506266Y-161872622D01*
X217574084Y-161886112D01*
X217606091Y-161899370D01*
X217629610Y-161905672D01*
X217650698Y-161917847D01*
X217682702Y-161931104D01*
X217740184Y-161969512D01*
X217765257Y-161983988D01*
X217772119Y-161990850D01*
X217780449Y-161996416D01*
X217863583Y-162079550D01*
X217869148Y-162087879D01*
X217876012Y-162094743D01*
X217890489Y-162119818D01*
X217928895Y-162177297D01*
X217942150Y-162209298D01*
X217954328Y-162230390D01*
X217960630Y-162253912D01*
X217973887Y-162285915D01*
X217987374Y-162353722D01*
X217994867Y-162381684D01*
X217994867Y-162391388D01*
X217996822Y-162401217D01*
X217996822Y-162518782D01*
X217994867Y-162528610D01*
X217994867Y-162538316D01*
X217987373Y-162566280D01*
X217973887Y-162634084D01*
X217960631Y-162666084D01*
X217954328Y-162689610D01*
X217942149Y-162710704D01*
X217928895Y-162742702D01*
X217890493Y-162800173D01*
X217876012Y-162825257D01*
X217869146Y-162832122D01*
X217863583Y-162840449D01*
X217780449Y-162923583D01*
X217772122Y-162929146D01*
X217765257Y-162936012D01*
X217740173Y-162950493D01*
X217682702Y-162988895D01*
X217650704Y-163002149D01*
X217629610Y-163014328D01*
X217606084Y-163020631D01*
X217574084Y-163033887D01*
X217506282Y-163047373D01*
X217478316Y-163054867D01*
X217468315Y-163054925D01*
X217458675Y-163056843D01*
X216601360Y-163059994D01*
X216601324Y-163059992D01*
X216600000Y-163060000D01*
X216595565Y-163059709D01*
X216542670Y-163057111D01*
X216536157Y-163055815D01*
X216521684Y-163054867D01*
X216493722Y-163047374D01*
X216425915Y-163033887D01*
X216393912Y-163020630D01*
X216370390Y-163014328D01*
X216349298Y-163002150D01*
X216317297Y-162988895D01*
X216259818Y-162950489D01*
X216234743Y-162936012D01*
X216227879Y-162929148D01*
X216219550Y-162923583D01*
X216136416Y-162840449D01*
X216130850Y-162832119D01*
X216123988Y-162825257D01*
X216109512Y-162800184D01*
X216071104Y-162742702D01*
X216057847Y-162710698D01*
X216045672Y-162689610D01*
X216039370Y-162666091D01*
X216026112Y-162634084D01*
X216012624Y-162566274D01*
X216005133Y-162538316D01*
X216005133Y-162528610D01*
X216003178Y-162518782D01*
X216003178Y-162401217D01*
X216005133Y-162391388D01*
X216005133Y-162381684D01*
X216012623Y-162353728D01*
X216026112Y-162285915D01*
X216039371Y-162253905D01*
X216045672Y-162230390D01*
X216057845Y-162209304D01*
X216071104Y-162177297D01*
X216109516Y-162119807D01*
X216123988Y-162094743D01*
X216130848Y-162087882D01*
X216136416Y-162079550D01*
X216219550Y-161996416D01*
X216227882Y-161990848D01*
X216234743Y-161983988D01*
X216259807Y-161969516D01*
X216317297Y-161931104D01*
X216349304Y-161917845D01*
X216370390Y-161905672D01*
X216393905Y-161899371D01*
X216425915Y-161886112D01*
X216493734Y-161872622D01*
X216521684Y-161865133D01*
X216531678Y-161865074D01*
X216541324Y-161863156D01*
X217398639Y-161860005D01*
X217398692Y-161860007D01*
X217400000Y-161860000D01*
X217404376Y-161860286D01*
G37*
G36*
X242804376Y-161860286D02*
G01*
X242857329Y-161862888D01*
X242863848Y-161864184D01*
X242878316Y-161865133D01*
X242906266Y-161872622D01*
X242974084Y-161886112D01*
X243006091Y-161899370D01*
X243029610Y-161905672D01*
X243050698Y-161917847D01*
X243082702Y-161931104D01*
X243140184Y-161969512D01*
X243165257Y-161983988D01*
X243172119Y-161990850D01*
X243180449Y-161996416D01*
X243263583Y-162079550D01*
X243269148Y-162087879D01*
X243276012Y-162094743D01*
X243290489Y-162119818D01*
X243328895Y-162177297D01*
X243342150Y-162209298D01*
X243354328Y-162230390D01*
X243360630Y-162253912D01*
X243373887Y-162285915D01*
X243387374Y-162353722D01*
X243394867Y-162381684D01*
X243394867Y-162391388D01*
X243396822Y-162401217D01*
X243396822Y-162518782D01*
X243394867Y-162528610D01*
X243394867Y-162538316D01*
X243387373Y-162566280D01*
X243373887Y-162634084D01*
X243360631Y-162666084D01*
X243354328Y-162689610D01*
X243342149Y-162710704D01*
X243328895Y-162742702D01*
X243290493Y-162800173D01*
X243276012Y-162825257D01*
X243269146Y-162832122D01*
X243263583Y-162840449D01*
X243180449Y-162923583D01*
X243172122Y-162929146D01*
X243165257Y-162936012D01*
X243140173Y-162950493D01*
X243082702Y-162988895D01*
X243050704Y-163002149D01*
X243029610Y-163014328D01*
X243006084Y-163020631D01*
X242974084Y-163033887D01*
X242906282Y-163047373D01*
X242878316Y-163054867D01*
X242868315Y-163054925D01*
X242858675Y-163056843D01*
X242001360Y-163059994D01*
X242001324Y-163059992D01*
X242000000Y-163060000D01*
X241995565Y-163059709D01*
X241942670Y-163057111D01*
X241936157Y-163055815D01*
X241921684Y-163054867D01*
X241893722Y-163047374D01*
X241825915Y-163033887D01*
X241793912Y-163020630D01*
X241770390Y-163014328D01*
X241749298Y-163002150D01*
X241717297Y-162988895D01*
X241659818Y-162950489D01*
X241634743Y-162936012D01*
X241627879Y-162929148D01*
X241619550Y-162923583D01*
X241536416Y-162840449D01*
X241530850Y-162832119D01*
X241523988Y-162825257D01*
X241509512Y-162800184D01*
X241471104Y-162742702D01*
X241457847Y-162710698D01*
X241445672Y-162689610D01*
X241439370Y-162666091D01*
X241426112Y-162634084D01*
X241412624Y-162566274D01*
X241405133Y-162538316D01*
X241405133Y-162528610D01*
X241403178Y-162518782D01*
X241403178Y-162401217D01*
X241405133Y-162391388D01*
X241405133Y-162381684D01*
X241412623Y-162353728D01*
X241426112Y-162285915D01*
X241439371Y-162253905D01*
X241445672Y-162230390D01*
X241457845Y-162209304D01*
X241471104Y-162177297D01*
X241509516Y-162119807D01*
X241523988Y-162094743D01*
X241530848Y-162087882D01*
X241536416Y-162079550D01*
X241619550Y-161996416D01*
X241627882Y-161990848D01*
X241634743Y-161983988D01*
X241659807Y-161969516D01*
X241717297Y-161931104D01*
X241749304Y-161917845D01*
X241770390Y-161905672D01*
X241793905Y-161899371D01*
X241825915Y-161886112D01*
X241893734Y-161872622D01*
X241921684Y-161865133D01*
X241931678Y-161865074D01*
X241941324Y-161863156D01*
X242798639Y-161860005D01*
X242798692Y-161860007D01*
X242800000Y-161860000D01*
X242804376Y-161860286D01*
G37*
G36*
X249350000Y-161850000D02*
G01*
X247650000Y-161850000D01*
X247650000Y-160150000D01*
X249350000Y-160150000D01*
X249350000Y-161850000D01*
G37*
G36*
X217404376Y-159320286D02*
G01*
X217457329Y-159322888D01*
X217463848Y-159324184D01*
X217478316Y-159325133D01*
X217506266Y-159332622D01*
X217574084Y-159346112D01*
X217606091Y-159359370D01*
X217629610Y-159365672D01*
X217650698Y-159377847D01*
X217682702Y-159391104D01*
X217740184Y-159429512D01*
X217765257Y-159443988D01*
X217772119Y-159450850D01*
X217780449Y-159456416D01*
X217863583Y-159539550D01*
X217869148Y-159547879D01*
X217876012Y-159554743D01*
X217890489Y-159579818D01*
X217928895Y-159637297D01*
X217942150Y-159669298D01*
X217954328Y-159690390D01*
X217960630Y-159713912D01*
X217973887Y-159745915D01*
X217987374Y-159813722D01*
X217994867Y-159841684D01*
X217994867Y-159851388D01*
X217996822Y-159861217D01*
X217996822Y-159978782D01*
X217994867Y-159988610D01*
X217994867Y-159998316D01*
X217987373Y-160026280D01*
X217973887Y-160094084D01*
X217960631Y-160126084D01*
X217954328Y-160149610D01*
X217942149Y-160170704D01*
X217928895Y-160202702D01*
X217890493Y-160260173D01*
X217876012Y-160285257D01*
X217869146Y-160292122D01*
X217863583Y-160300449D01*
X217780449Y-160383583D01*
X217772122Y-160389146D01*
X217765257Y-160396012D01*
X217740173Y-160410493D01*
X217682702Y-160448895D01*
X217650704Y-160462149D01*
X217629610Y-160474328D01*
X217606084Y-160480631D01*
X217574084Y-160493887D01*
X217506282Y-160507373D01*
X217478316Y-160514867D01*
X217468315Y-160514925D01*
X217458675Y-160516843D01*
X216601360Y-160519994D01*
X216601324Y-160519992D01*
X216600000Y-160520000D01*
X216595565Y-160519709D01*
X216542670Y-160517111D01*
X216536157Y-160515815D01*
X216521684Y-160514867D01*
X216493722Y-160507374D01*
X216425915Y-160493887D01*
X216393912Y-160480630D01*
X216370390Y-160474328D01*
X216349298Y-160462150D01*
X216317297Y-160448895D01*
X216259818Y-160410489D01*
X216234743Y-160396012D01*
X216227879Y-160389148D01*
X216219550Y-160383583D01*
X216136416Y-160300449D01*
X216130850Y-160292119D01*
X216123988Y-160285257D01*
X216109512Y-160260184D01*
X216071104Y-160202702D01*
X216057847Y-160170698D01*
X216045672Y-160149610D01*
X216039370Y-160126091D01*
X216026112Y-160094084D01*
X216012624Y-160026274D01*
X216005133Y-159998316D01*
X216005133Y-159988610D01*
X216003178Y-159978782D01*
X216003178Y-159861217D01*
X216005133Y-159851388D01*
X216005133Y-159841684D01*
X216012623Y-159813728D01*
X216026112Y-159745915D01*
X216039371Y-159713905D01*
X216045672Y-159690390D01*
X216057845Y-159669304D01*
X216071104Y-159637297D01*
X216109516Y-159579807D01*
X216123988Y-159554743D01*
X216130848Y-159547882D01*
X216136416Y-159539550D01*
X216219550Y-159456416D01*
X216227882Y-159450848D01*
X216234743Y-159443988D01*
X216259807Y-159429516D01*
X216317297Y-159391104D01*
X216349304Y-159377845D01*
X216370390Y-159365672D01*
X216393905Y-159359371D01*
X216425915Y-159346112D01*
X216493734Y-159332622D01*
X216521684Y-159325133D01*
X216531678Y-159325074D01*
X216541324Y-159323156D01*
X217398639Y-159320005D01*
X217398692Y-159320007D01*
X217400000Y-159320000D01*
X217404376Y-159320286D01*
G37*
G36*
X242804376Y-159320286D02*
G01*
X242857329Y-159322888D01*
X242863848Y-159324184D01*
X242878316Y-159325133D01*
X242906266Y-159332622D01*
X242974084Y-159346112D01*
X243006091Y-159359370D01*
X243029610Y-159365672D01*
X243050698Y-159377847D01*
X243082702Y-159391104D01*
X243140184Y-159429512D01*
X243165257Y-159443988D01*
X243172119Y-159450850D01*
X243180449Y-159456416D01*
X243263583Y-159539550D01*
X243269148Y-159547879D01*
X243276012Y-159554743D01*
X243290489Y-159579818D01*
X243328895Y-159637297D01*
X243342150Y-159669298D01*
X243354328Y-159690390D01*
X243360630Y-159713912D01*
X243373887Y-159745915D01*
X243387374Y-159813722D01*
X243394867Y-159841684D01*
X243394867Y-159851388D01*
X243396822Y-159861217D01*
X243396822Y-159978782D01*
X243394867Y-159988610D01*
X243394867Y-159998316D01*
X243387373Y-160026280D01*
X243373887Y-160094084D01*
X243360631Y-160126084D01*
X243354328Y-160149610D01*
X243342149Y-160170704D01*
X243328895Y-160202702D01*
X243290493Y-160260173D01*
X243276012Y-160285257D01*
X243269146Y-160292122D01*
X243263583Y-160300449D01*
X243180449Y-160383583D01*
X243172122Y-160389146D01*
X243165257Y-160396012D01*
X243140173Y-160410493D01*
X243082702Y-160448895D01*
X243050704Y-160462149D01*
X243029610Y-160474328D01*
X243006084Y-160480631D01*
X242974084Y-160493887D01*
X242906282Y-160507373D01*
X242878316Y-160514867D01*
X242868315Y-160514925D01*
X242858675Y-160516843D01*
X242001360Y-160519994D01*
X242001324Y-160519992D01*
X242000000Y-160520000D01*
X241995565Y-160519709D01*
X241942670Y-160517111D01*
X241936157Y-160515815D01*
X241921684Y-160514867D01*
X241893722Y-160507374D01*
X241825915Y-160493887D01*
X241793912Y-160480630D01*
X241770390Y-160474328D01*
X241749298Y-160462150D01*
X241717297Y-160448895D01*
X241659818Y-160410489D01*
X241634743Y-160396012D01*
X241627879Y-160389148D01*
X241619550Y-160383583D01*
X241536416Y-160300449D01*
X241530850Y-160292119D01*
X241523988Y-160285257D01*
X241509512Y-160260184D01*
X241471104Y-160202702D01*
X241457847Y-160170698D01*
X241445672Y-160149610D01*
X241439370Y-160126091D01*
X241426112Y-160094084D01*
X241412624Y-160026274D01*
X241405133Y-159998316D01*
X241405133Y-159988610D01*
X241403178Y-159978782D01*
X241403178Y-159861217D01*
X241405133Y-159851388D01*
X241405133Y-159841684D01*
X241412623Y-159813728D01*
X241426112Y-159745915D01*
X241439371Y-159713905D01*
X241445672Y-159690390D01*
X241457845Y-159669304D01*
X241471104Y-159637297D01*
X241509516Y-159579807D01*
X241523988Y-159554743D01*
X241530848Y-159547882D01*
X241536416Y-159539550D01*
X241619550Y-159456416D01*
X241627882Y-159450848D01*
X241634743Y-159443988D01*
X241659807Y-159429516D01*
X241717297Y-159391104D01*
X241749304Y-159377845D01*
X241770390Y-159365672D01*
X241793905Y-159359371D01*
X241825915Y-159346112D01*
X241893734Y-159332622D01*
X241921684Y-159325133D01*
X241931678Y-159325074D01*
X241941324Y-159323156D01*
X242798639Y-159320005D01*
X242798692Y-159320007D01*
X242800000Y-159320000D01*
X242804376Y-159320286D01*
G37*
G36*
X208350000Y-160350000D02*
G01*
X206650000Y-160350000D01*
X206650000Y-158650000D01*
X208350000Y-158650000D01*
X208350000Y-160350000D01*
G37*
G36*
X217404376Y-156780286D02*
G01*
X217457329Y-156782888D01*
X217463848Y-156784184D01*
X217478316Y-156785133D01*
X217506266Y-156792622D01*
X217574084Y-156806112D01*
X217606091Y-156819370D01*
X217629610Y-156825672D01*
X217650698Y-156837847D01*
X217682702Y-156851104D01*
X217740184Y-156889512D01*
X217765257Y-156903988D01*
X217772119Y-156910850D01*
X217780449Y-156916416D01*
X217863583Y-156999550D01*
X217869148Y-157007879D01*
X217876012Y-157014743D01*
X217890489Y-157039818D01*
X217928895Y-157097297D01*
X217942150Y-157129298D01*
X217954328Y-157150390D01*
X217960630Y-157173912D01*
X217973887Y-157205915D01*
X217987374Y-157273722D01*
X217994867Y-157301684D01*
X217994867Y-157311388D01*
X217996822Y-157321217D01*
X217996822Y-157438782D01*
X217994867Y-157448610D01*
X217994867Y-157458316D01*
X217987373Y-157486280D01*
X217973887Y-157554084D01*
X217960631Y-157586084D01*
X217954328Y-157609610D01*
X217942149Y-157630704D01*
X217928895Y-157662702D01*
X217890493Y-157720173D01*
X217876012Y-157745257D01*
X217869146Y-157752122D01*
X217863583Y-157760449D01*
X217780449Y-157843583D01*
X217772122Y-157849146D01*
X217765257Y-157856012D01*
X217740173Y-157870493D01*
X217682702Y-157908895D01*
X217650704Y-157922149D01*
X217629610Y-157934328D01*
X217606084Y-157940631D01*
X217574084Y-157953887D01*
X217506282Y-157967373D01*
X217478316Y-157974867D01*
X217468315Y-157974925D01*
X217458675Y-157976843D01*
X216601360Y-157979994D01*
X216601324Y-157979992D01*
X216600000Y-157980000D01*
X216595565Y-157979709D01*
X216542670Y-157977111D01*
X216536157Y-157975815D01*
X216521684Y-157974867D01*
X216493722Y-157967374D01*
X216425915Y-157953887D01*
X216393912Y-157940630D01*
X216370390Y-157934328D01*
X216349298Y-157922150D01*
X216317297Y-157908895D01*
X216259818Y-157870489D01*
X216234743Y-157856012D01*
X216227879Y-157849148D01*
X216219550Y-157843583D01*
X216136416Y-157760449D01*
X216130850Y-157752119D01*
X216123988Y-157745257D01*
X216109512Y-157720184D01*
X216071104Y-157662702D01*
X216057847Y-157630698D01*
X216045672Y-157609610D01*
X216039370Y-157586091D01*
X216026112Y-157554084D01*
X216012624Y-157486274D01*
X216005133Y-157458316D01*
X216005133Y-157448610D01*
X216003178Y-157438782D01*
X216003178Y-157321217D01*
X216005133Y-157311388D01*
X216005133Y-157301684D01*
X216012623Y-157273728D01*
X216026112Y-157205915D01*
X216039371Y-157173905D01*
X216045672Y-157150390D01*
X216057845Y-157129304D01*
X216071104Y-157097297D01*
X216109516Y-157039807D01*
X216123988Y-157014743D01*
X216130848Y-157007882D01*
X216136416Y-156999550D01*
X216219550Y-156916416D01*
X216227882Y-156910848D01*
X216234743Y-156903988D01*
X216259807Y-156889516D01*
X216317297Y-156851104D01*
X216349304Y-156837845D01*
X216370390Y-156825672D01*
X216393905Y-156819371D01*
X216425915Y-156806112D01*
X216493734Y-156792622D01*
X216521684Y-156785133D01*
X216531678Y-156785074D01*
X216541324Y-156783156D01*
X217398639Y-156780005D01*
X217398692Y-156780007D01*
X217400000Y-156780000D01*
X217404376Y-156780286D01*
G37*
G36*
X242804376Y-156780286D02*
G01*
X242857329Y-156782888D01*
X242863848Y-156784184D01*
X242878316Y-156785133D01*
X242906266Y-156792622D01*
X242974084Y-156806112D01*
X243006091Y-156819370D01*
X243029610Y-156825672D01*
X243050698Y-156837847D01*
X243082702Y-156851104D01*
X243140184Y-156889512D01*
X243165257Y-156903988D01*
X243172119Y-156910850D01*
X243180449Y-156916416D01*
X243263583Y-156999550D01*
X243269148Y-157007879D01*
X243276012Y-157014743D01*
X243290489Y-157039818D01*
X243328895Y-157097297D01*
X243342150Y-157129298D01*
X243354328Y-157150390D01*
X243360630Y-157173912D01*
X243373887Y-157205915D01*
X243387374Y-157273722D01*
X243394867Y-157301684D01*
X243394867Y-157311388D01*
X243396822Y-157321217D01*
X243396822Y-157438782D01*
X243394867Y-157448610D01*
X243394867Y-157458316D01*
X243387373Y-157486280D01*
X243373887Y-157554084D01*
X243360631Y-157586084D01*
X243354328Y-157609610D01*
X243342149Y-157630704D01*
X243328895Y-157662702D01*
X243290493Y-157720173D01*
X243276012Y-157745257D01*
X243269146Y-157752122D01*
X243263583Y-157760449D01*
X243180449Y-157843583D01*
X243172122Y-157849146D01*
X243165257Y-157856012D01*
X243140173Y-157870493D01*
X243082702Y-157908895D01*
X243050704Y-157922149D01*
X243029610Y-157934328D01*
X243006084Y-157940631D01*
X242974084Y-157953887D01*
X242906282Y-157967373D01*
X242878316Y-157974867D01*
X242868315Y-157974925D01*
X242858675Y-157976843D01*
X242001360Y-157979994D01*
X242001324Y-157979992D01*
X242000000Y-157980000D01*
X241995565Y-157979709D01*
X241942670Y-157977111D01*
X241936157Y-157975815D01*
X241921684Y-157974867D01*
X241893722Y-157967374D01*
X241825915Y-157953887D01*
X241793912Y-157940630D01*
X241770390Y-157934328D01*
X241749298Y-157922150D01*
X241717297Y-157908895D01*
X241659818Y-157870489D01*
X241634743Y-157856012D01*
X241627879Y-157849148D01*
X241619550Y-157843583D01*
X241536416Y-157760449D01*
X241530850Y-157752119D01*
X241523988Y-157745257D01*
X241509512Y-157720184D01*
X241471104Y-157662702D01*
X241457847Y-157630698D01*
X241445672Y-157609610D01*
X241439370Y-157586091D01*
X241426112Y-157554084D01*
X241412624Y-157486274D01*
X241405133Y-157458316D01*
X241405133Y-157448610D01*
X241403178Y-157438782D01*
X241403178Y-157321217D01*
X241405133Y-157311388D01*
X241405133Y-157301684D01*
X241412623Y-157273728D01*
X241426112Y-157205915D01*
X241439371Y-157173905D01*
X241445672Y-157150390D01*
X241457845Y-157129304D01*
X241471104Y-157097297D01*
X241509516Y-157039807D01*
X241523988Y-157014743D01*
X241530848Y-157007882D01*
X241536416Y-156999550D01*
X241619550Y-156916416D01*
X241627882Y-156910848D01*
X241634743Y-156903988D01*
X241659807Y-156889516D01*
X241717297Y-156851104D01*
X241749304Y-156837845D01*
X241770390Y-156825672D01*
X241793905Y-156819371D01*
X241825915Y-156806112D01*
X241893734Y-156792622D01*
X241921684Y-156785133D01*
X241931678Y-156785074D01*
X241941324Y-156783156D01*
X242798639Y-156780005D01*
X242798692Y-156780007D01*
X242800000Y-156780000D01*
X242804376Y-156780286D01*
G37*
G36*
X249350000Y-157850000D02*
G01*
X247650000Y-157850000D01*
X247650000Y-156150000D01*
X249350000Y-156150000D01*
X249350000Y-157850000D01*
G37*
G36*
X208350000Y-156350000D02*
G01*
X206650000Y-156350000D01*
X206650000Y-154650000D01*
X208350000Y-154650000D01*
X208350000Y-156350000D01*
G37*
G36*
X217404376Y-154240286D02*
G01*
X217457329Y-154242888D01*
X217463848Y-154244184D01*
X217478316Y-154245133D01*
X217506266Y-154252622D01*
X217574084Y-154266112D01*
X217606091Y-154279370D01*
X217629610Y-154285672D01*
X217650698Y-154297847D01*
X217682702Y-154311104D01*
X217740184Y-154349512D01*
X217765257Y-154363988D01*
X217772119Y-154370850D01*
X217780449Y-154376416D01*
X217863583Y-154459550D01*
X217869148Y-154467879D01*
X217876012Y-154474743D01*
X217890489Y-154499818D01*
X217928895Y-154557297D01*
X217942150Y-154589298D01*
X217954328Y-154610390D01*
X217960630Y-154633912D01*
X217973887Y-154665915D01*
X217987374Y-154733722D01*
X217994867Y-154761684D01*
X217994867Y-154771388D01*
X217996822Y-154781217D01*
X217996822Y-154898782D01*
X217994867Y-154908610D01*
X217994867Y-154918316D01*
X217987373Y-154946280D01*
X217973887Y-155014084D01*
X217960631Y-155046084D01*
X217954328Y-155069610D01*
X217942149Y-155090704D01*
X217928895Y-155122702D01*
X217890493Y-155180173D01*
X217876012Y-155205257D01*
X217869146Y-155212122D01*
X217863583Y-155220449D01*
X217780449Y-155303583D01*
X217772122Y-155309146D01*
X217765257Y-155316012D01*
X217740173Y-155330493D01*
X217682702Y-155368895D01*
X217650704Y-155382149D01*
X217629610Y-155394328D01*
X217606084Y-155400631D01*
X217574084Y-155413887D01*
X217506282Y-155427373D01*
X217478316Y-155434867D01*
X217468315Y-155434925D01*
X217458675Y-155436843D01*
X216601360Y-155439994D01*
X216601324Y-155439992D01*
X216600000Y-155440000D01*
X216595565Y-155439709D01*
X216542670Y-155437111D01*
X216536157Y-155435815D01*
X216521684Y-155434867D01*
X216493722Y-155427374D01*
X216425915Y-155413887D01*
X216393912Y-155400630D01*
X216370390Y-155394328D01*
X216349298Y-155382150D01*
X216317297Y-155368895D01*
X216259818Y-155330489D01*
X216234743Y-155316012D01*
X216227879Y-155309148D01*
X216219550Y-155303583D01*
X216136416Y-155220449D01*
X216130850Y-155212119D01*
X216123988Y-155205257D01*
X216109512Y-155180184D01*
X216071104Y-155122702D01*
X216057847Y-155090698D01*
X216045672Y-155069610D01*
X216039370Y-155046091D01*
X216026112Y-155014084D01*
X216012624Y-154946274D01*
X216005133Y-154918316D01*
X216005133Y-154908610D01*
X216003178Y-154898782D01*
X216003178Y-154781217D01*
X216005133Y-154771388D01*
X216005133Y-154761684D01*
X216012623Y-154733728D01*
X216026112Y-154665915D01*
X216039371Y-154633905D01*
X216045672Y-154610390D01*
X216057845Y-154589304D01*
X216071104Y-154557297D01*
X216109516Y-154499807D01*
X216123988Y-154474743D01*
X216130848Y-154467882D01*
X216136416Y-154459550D01*
X216219550Y-154376416D01*
X216227882Y-154370848D01*
X216234743Y-154363988D01*
X216259807Y-154349516D01*
X216317297Y-154311104D01*
X216349304Y-154297845D01*
X216370390Y-154285672D01*
X216393905Y-154279371D01*
X216425915Y-154266112D01*
X216493734Y-154252622D01*
X216521684Y-154245133D01*
X216531678Y-154245074D01*
X216541324Y-154243156D01*
X217398639Y-154240005D01*
X217398692Y-154240007D01*
X217400000Y-154240000D01*
X217404376Y-154240286D01*
G37*
G36*
X242804376Y-154240286D02*
G01*
X242857329Y-154242888D01*
X242863848Y-154244184D01*
X242878316Y-154245133D01*
X242906266Y-154252622D01*
X242974084Y-154266112D01*
X243006091Y-154279370D01*
X243029610Y-154285672D01*
X243050698Y-154297847D01*
X243082702Y-154311104D01*
X243140184Y-154349512D01*
X243165257Y-154363988D01*
X243172119Y-154370850D01*
X243180449Y-154376416D01*
X243263583Y-154459550D01*
X243269148Y-154467879D01*
X243276012Y-154474743D01*
X243290489Y-154499818D01*
X243328895Y-154557297D01*
X243342150Y-154589298D01*
X243354328Y-154610390D01*
X243360630Y-154633912D01*
X243373887Y-154665915D01*
X243387374Y-154733722D01*
X243394867Y-154761684D01*
X243394867Y-154771388D01*
X243396822Y-154781217D01*
X243396822Y-154898782D01*
X243394867Y-154908610D01*
X243394867Y-154918316D01*
X243387373Y-154946280D01*
X243373887Y-155014084D01*
X243360631Y-155046084D01*
X243354328Y-155069610D01*
X243342149Y-155090704D01*
X243328895Y-155122702D01*
X243290493Y-155180173D01*
X243276012Y-155205257D01*
X243269146Y-155212122D01*
X243263583Y-155220449D01*
X243180449Y-155303583D01*
X243172122Y-155309146D01*
X243165257Y-155316012D01*
X243140173Y-155330493D01*
X243082702Y-155368895D01*
X243050704Y-155382149D01*
X243029610Y-155394328D01*
X243006084Y-155400631D01*
X242974084Y-155413887D01*
X242906282Y-155427373D01*
X242878316Y-155434867D01*
X242868315Y-155434925D01*
X242858675Y-155436843D01*
X242001360Y-155439994D01*
X242001324Y-155439992D01*
X242000000Y-155440000D01*
X241995565Y-155439709D01*
X241942670Y-155437111D01*
X241936157Y-155435815D01*
X241921684Y-155434867D01*
X241893722Y-155427374D01*
X241825915Y-155413887D01*
X241793912Y-155400630D01*
X241770390Y-155394328D01*
X241749298Y-155382150D01*
X241717297Y-155368895D01*
X241659818Y-155330489D01*
X241634743Y-155316012D01*
X241627879Y-155309148D01*
X241619550Y-155303583D01*
X241536416Y-155220449D01*
X241530850Y-155212119D01*
X241523988Y-155205257D01*
X241509512Y-155180184D01*
X241471104Y-155122702D01*
X241457847Y-155090698D01*
X241445672Y-155069610D01*
X241439370Y-155046091D01*
X241426112Y-155014084D01*
X241412624Y-154946274D01*
X241405133Y-154918316D01*
X241405133Y-154908610D01*
X241403178Y-154898782D01*
X241403178Y-154781217D01*
X241405133Y-154771388D01*
X241405133Y-154761684D01*
X241412623Y-154733728D01*
X241426112Y-154665915D01*
X241439371Y-154633905D01*
X241445672Y-154610390D01*
X241457845Y-154589304D01*
X241471104Y-154557297D01*
X241509516Y-154499807D01*
X241523988Y-154474743D01*
X241530848Y-154467882D01*
X241536416Y-154459550D01*
X241619550Y-154376416D01*
X241627882Y-154370848D01*
X241634743Y-154363988D01*
X241659807Y-154349516D01*
X241717297Y-154311104D01*
X241749304Y-154297845D01*
X241770390Y-154285672D01*
X241793905Y-154279371D01*
X241825915Y-154266112D01*
X241893734Y-154252622D01*
X241921684Y-154245133D01*
X241931678Y-154245074D01*
X241941324Y-154243156D01*
X242798639Y-154240005D01*
X242798692Y-154240007D01*
X242800000Y-154240000D01*
X242804376Y-154240286D01*
G37*
G36*
X249350000Y-153850000D02*
G01*
X247650000Y-153850000D01*
X247650000Y-152150000D01*
X249350000Y-152150000D01*
X249350000Y-153850000D01*
G37*
G36*
X217404376Y-151700286D02*
G01*
X217457329Y-151702888D01*
X217463848Y-151704184D01*
X217478316Y-151705133D01*
X217506266Y-151712622D01*
X217574084Y-151726112D01*
X217606091Y-151739370D01*
X217629610Y-151745672D01*
X217650698Y-151757847D01*
X217682702Y-151771104D01*
X217740184Y-151809512D01*
X217765257Y-151823988D01*
X217772119Y-151830850D01*
X217780449Y-151836416D01*
X217863583Y-151919550D01*
X217869148Y-151927879D01*
X217876012Y-151934743D01*
X217890489Y-151959818D01*
X217928895Y-152017297D01*
X217942150Y-152049298D01*
X217954328Y-152070390D01*
X217960630Y-152093912D01*
X217973887Y-152125915D01*
X217987374Y-152193722D01*
X217994867Y-152221684D01*
X217994867Y-152231388D01*
X217996822Y-152241217D01*
X217996822Y-152358782D01*
X217994867Y-152368610D01*
X217994867Y-152378316D01*
X217987373Y-152406280D01*
X217973887Y-152474084D01*
X217960631Y-152506084D01*
X217954328Y-152529610D01*
X217942149Y-152550704D01*
X217928895Y-152582702D01*
X217890493Y-152640173D01*
X217876012Y-152665257D01*
X217869146Y-152672122D01*
X217863583Y-152680449D01*
X217780449Y-152763583D01*
X217772122Y-152769146D01*
X217765257Y-152776012D01*
X217740173Y-152790493D01*
X217682702Y-152828895D01*
X217650704Y-152842149D01*
X217629610Y-152854328D01*
X217606084Y-152860631D01*
X217574084Y-152873887D01*
X217506282Y-152887373D01*
X217478316Y-152894867D01*
X217468315Y-152894925D01*
X217458675Y-152896843D01*
X216601360Y-152899994D01*
X216601324Y-152899992D01*
X216600000Y-152900000D01*
X216595565Y-152899709D01*
X216542670Y-152897111D01*
X216536157Y-152895815D01*
X216521684Y-152894867D01*
X216493722Y-152887374D01*
X216425915Y-152873887D01*
X216393912Y-152860630D01*
X216370390Y-152854328D01*
X216349298Y-152842150D01*
X216317297Y-152828895D01*
X216259818Y-152790489D01*
X216234743Y-152776012D01*
X216227879Y-152769148D01*
X216219550Y-152763583D01*
X216136416Y-152680449D01*
X216130850Y-152672119D01*
X216123988Y-152665257D01*
X216109512Y-152640184D01*
X216071104Y-152582702D01*
X216057847Y-152550698D01*
X216045672Y-152529610D01*
X216039370Y-152506091D01*
X216026112Y-152474084D01*
X216012624Y-152406274D01*
X216005133Y-152378316D01*
X216005133Y-152368610D01*
X216003178Y-152358782D01*
X216003178Y-152241217D01*
X216005133Y-152231388D01*
X216005133Y-152221684D01*
X216012623Y-152193728D01*
X216026112Y-152125915D01*
X216039371Y-152093905D01*
X216045672Y-152070390D01*
X216057845Y-152049304D01*
X216071104Y-152017297D01*
X216109516Y-151959807D01*
X216123988Y-151934743D01*
X216130848Y-151927882D01*
X216136416Y-151919550D01*
X216219550Y-151836416D01*
X216227882Y-151830848D01*
X216234743Y-151823988D01*
X216259807Y-151809516D01*
X216317297Y-151771104D01*
X216349304Y-151757845D01*
X216370390Y-151745672D01*
X216393905Y-151739371D01*
X216425915Y-151726112D01*
X216493734Y-151712622D01*
X216521684Y-151705133D01*
X216531678Y-151705074D01*
X216541324Y-151703156D01*
X217398639Y-151700005D01*
X217398692Y-151700007D01*
X217400000Y-151700000D01*
X217404376Y-151700286D01*
G37*
G36*
X242804376Y-151700286D02*
G01*
X242857329Y-151702888D01*
X242863848Y-151704184D01*
X242878316Y-151705133D01*
X242906266Y-151712622D01*
X242974084Y-151726112D01*
X243006091Y-151739370D01*
X243029610Y-151745672D01*
X243050698Y-151757847D01*
X243082702Y-151771104D01*
X243140184Y-151809512D01*
X243165257Y-151823988D01*
X243172119Y-151830850D01*
X243180449Y-151836416D01*
X243263583Y-151919550D01*
X243269148Y-151927879D01*
X243276012Y-151934743D01*
X243290489Y-151959818D01*
X243328895Y-152017297D01*
X243342150Y-152049298D01*
X243354328Y-152070390D01*
X243360630Y-152093912D01*
X243373887Y-152125915D01*
X243387374Y-152193722D01*
X243394867Y-152221684D01*
X243394867Y-152231388D01*
X243396822Y-152241217D01*
X243396822Y-152358782D01*
X243394867Y-152368610D01*
X243394867Y-152378316D01*
X243387373Y-152406280D01*
X243373887Y-152474084D01*
X243360631Y-152506084D01*
X243354328Y-152529610D01*
X243342149Y-152550704D01*
X243328895Y-152582702D01*
X243290493Y-152640173D01*
X243276012Y-152665257D01*
X243269146Y-152672122D01*
X243263583Y-152680449D01*
X243180449Y-152763583D01*
X243172122Y-152769146D01*
X243165257Y-152776012D01*
X243140173Y-152790493D01*
X243082702Y-152828895D01*
X243050704Y-152842149D01*
X243029610Y-152854328D01*
X243006084Y-152860631D01*
X242974084Y-152873887D01*
X242906282Y-152887373D01*
X242878316Y-152894867D01*
X242868315Y-152894925D01*
X242858675Y-152896843D01*
X242001360Y-152899994D01*
X242001324Y-152899992D01*
X242000000Y-152900000D01*
X241995565Y-152899709D01*
X241942670Y-152897111D01*
X241936157Y-152895815D01*
X241921684Y-152894867D01*
X241893722Y-152887374D01*
X241825915Y-152873887D01*
X241793912Y-152860630D01*
X241770390Y-152854328D01*
X241749298Y-152842150D01*
X241717297Y-152828895D01*
X241659818Y-152790489D01*
X241634743Y-152776012D01*
X241627879Y-152769148D01*
X241619550Y-152763583D01*
X241536416Y-152680449D01*
X241530850Y-152672119D01*
X241523988Y-152665257D01*
X241509512Y-152640184D01*
X241471104Y-152582702D01*
X241457847Y-152550698D01*
X241445672Y-152529610D01*
X241439370Y-152506091D01*
X241426112Y-152474084D01*
X241412624Y-152406274D01*
X241405133Y-152378316D01*
X241405133Y-152368610D01*
X241403178Y-152358782D01*
X241403178Y-152241217D01*
X241405133Y-152231388D01*
X241405133Y-152221684D01*
X241412623Y-152193728D01*
X241426112Y-152125915D01*
X241439371Y-152093905D01*
X241445672Y-152070390D01*
X241457845Y-152049304D01*
X241471104Y-152017297D01*
X241509516Y-151959807D01*
X241523988Y-151934743D01*
X241530848Y-151927882D01*
X241536416Y-151919550D01*
X241619550Y-151836416D01*
X241627882Y-151830848D01*
X241634743Y-151823988D01*
X241659807Y-151809516D01*
X241717297Y-151771104D01*
X241749304Y-151757845D01*
X241770390Y-151745672D01*
X241793905Y-151739371D01*
X241825915Y-151726112D01*
X241893734Y-151712622D01*
X241921684Y-151705133D01*
X241931678Y-151705074D01*
X241941324Y-151703156D01*
X242798639Y-151700005D01*
X242798692Y-151700007D01*
X242800000Y-151700000D01*
X242804376Y-151700286D01*
G37*
G36*
X208350000Y-152350000D02*
G01*
X206650000Y-152350000D01*
X206650000Y-150650000D01*
X208350000Y-150650000D01*
X208350000Y-152350000D01*
G37*
G36*
X217404376Y-149160286D02*
G01*
X217457329Y-149162888D01*
X217463848Y-149164184D01*
X217478316Y-149165133D01*
X217506266Y-149172622D01*
X217574084Y-149186112D01*
X217606091Y-149199370D01*
X217629610Y-149205672D01*
X217650698Y-149217847D01*
X217682702Y-149231104D01*
X217740184Y-149269512D01*
X217765257Y-149283988D01*
X217772119Y-149290850D01*
X217780449Y-149296416D01*
X217863583Y-149379550D01*
X217869148Y-149387879D01*
X217876012Y-149394743D01*
X217890489Y-149419818D01*
X217928895Y-149477297D01*
X217942150Y-149509298D01*
X217954328Y-149530390D01*
X217960630Y-149553912D01*
X217973887Y-149585915D01*
X217987374Y-149653722D01*
X217994867Y-149681684D01*
X217994867Y-149691388D01*
X217996822Y-149701217D01*
X217996822Y-149818782D01*
X217994867Y-149828610D01*
X217994867Y-149838316D01*
X217987373Y-149866280D01*
X217973887Y-149934084D01*
X217960631Y-149966084D01*
X217954328Y-149989610D01*
X217942149Y-150010704D01*
X217928895Y-150042702D01*
X217890493Y-150100173D01*
X217876012Y-150125257D01*
X217869146Y-150132122D01*
X217863583Y-150140449D01*
X217780449Y-150223583D01*
X217772122Y-150229146D01*
X217765257Y-150236012D01*
X217740173Y-150250493D01*
X217682702Y-150288895D01*
X217650704Y-150302149D01*
X217629610Y-150314328D01*
X217606084Y-150320631D01*
X217574084Y-150333887D01*
X217506282Y-150347373D01*
X217478316Y-150354867D01*
X217468315Y-150354925D01*
X217458675Y-150356843D01*
X216601360Y-150359994D01*
X216601324Y-150359992D01*
X216600000Y-150360000D01*
X216595565Y-150359709D01*
X216542670Y-150357111D01*
X216536157Y-150355815D01*
X216521684Y-150354867D01*
X216493722Y-150347374D01*
X216425915Y-150333887D01*
X216393912Y-150320630D01*
X216370390Y-150314328D01*
X216349298Y-150302150D01*
X216317297Y-150288895D01*
X216259818Y-150250489D01*
X216234743Y-150236012D01*
X216227879Y-150229148D01*
X216219550Y-150223583D01*
X216136416Y-150140449D01*
X216130850Y-150132119D01*
X216123988Y-150125257D01*
X216109512Y-150100184D01*
X216071104Y-150042702D01*
X216057847Y-150010698D01*
X216045672Y-149989610D01*
X216039370Y-149966091D01*
X216026112Y-149934084D01*
X216012624Y-149866274D01*
X216005133Y-149838316D01*
X216005133Y-149828610D01*
X216003178Y-149818782D01*
X216003178Y-149701217D01*
X216005133Y-149691388D01*
X216005133Y-149681684D01*
X216012623Y-149653728D01*
X216026112Y-149585915D01*
X216039371Y-149553905D01*
X216045672Y-149530390D01*
X216057845Y-149509304D01*
X216071104Y-149477297D01*
X216109516Y-149419807D01*
X216123988Y-149394743D01*
X216130848Y-149387882D01*
X216136416Y-149379550D01*
X216219550Y-149296416D01*
X216227882Y-149290848D01*
X216234743Y-149283988D01*
X216259807Y-149269516D01*
X216317297Y-149231104D01*
X216349304Y-149217845D01*
X216370390Y-149205672D01*
X216393905Y-149199371D01*
X216425915Y-149186112D01*
X216493734Y-149172622D01*
X216521684Y-149165133D01*
X216531678Y-149165074D01*
X216541324Y-149163156D01*
X217398639Y-149160005D01*
X217398692Y-149160007D01*
X217400000Y-149160000D01*
X217404376Y-149160286D01*
G37*
G36*
X242804376Y-149160286D02*
G01*
X242857329Y-149162888D01*
X242863848Y-149164184D01*
X242878316Y-149165133D01*
X242906266Y-149172622D01*
X242974084Y-149186112D01*
X243006091Y-149199370D01*
X243029610Y-149205672D01*
X243050698Y-149217847D01*
X243082702Y-149231104D01*
X243140184Y-149269512D01*
X243165257Y-149283988D01*
X243172119Y-149290850D01*
X243180449Y-149296416D01*
X243263583Y-149379550D01*
X243269148Y-149387879D01*
X243276012Y-149394743D01*
X243290489Y-149419818D01*
X243328895Y-149477297D01*
X243342150Y-149509298D01*
X243354328Y-149530390D01*
X243360630Y-149553912D01*
X243373887Y-149585915D01*
X243387374Y-149653722D01*
X243394867Y-149681684D01*
X243394867Y-149691388D01*
X243396822Y-149701217D01*
X243396822Y-149818782D01*
X243394867Y-149828610D01*
X243394867Y-149838316D01*
X243387373Y-149866280D01*
X243373887Y-149934084D01*
X243360631Y-149966084D01*
X243354328Y-149989610D01*
X243342149Y-150010704D01*
X243328895Y-150042702D01*
X243290493Y-150100173D01*
X243276012Y-150125257D01*
X243269146Y-150132122D01*
X243263583Y-150140449D01*
X243180449Y-150223583D01*
X243172122Y-150229146D01*
X243165257Y-150236012D01*
X243140173Y-150250493D01*
X243082702Y-150288895D01*
X243050704Y-150302149D01*
X243029610Y-150314328D01*
X243006084Y-150320631D01*
X242974084Y-150333887D01*
X242906282Y-150347373D01*
X242878316Y-150354867D01*
X242868315Y-150354925D01*
X242858675Y-150356843D01*
X242001360Y-150359994D01*
X242001324Y-150359992D01*
X242000000Y-150360000D01*
X241995565Y-150359709D01*
X241942670Y-150357111D01*
X241936157Y-150355815D01*
X241921684Y-150354867D01*
X241893722Y-150347374D01*
X241825915Y-150333887D01*
X241793912Y-150320630D01*
X241770390Y-150314328D01*
X241749298Y-150302150D01*
X241717297Y-150288895D01*
X241659818Y-150250489D01*
X241634743Y-150236012D01*
X241627879Y-150229148D01*
X241619550Y-150223583D01*
X241536416Y-150140449D01*
X241530850Y-150132119D01*
X241523988Y-150125257D01*
X241509512Y-150100184D01*
X241471104Y-150042702D01*
X241457847Y-150010698D01*
X241445672Y-149989610D01*
X241439370Y-149966091D01*
X241426112Y-149934084D01*
X241412624Y-149866274D01*
X241405133Y-149838316D01*
X241405133Y-149828610D01*
X241403178Y-149818782D01*
X241403178Y-149701217D01*
X241405133Y-149691388D01*
X241405133Y-149681684D01*
X241412623Y-149653728D01*
X241426112Y-149585915D01*
X241439371Y-149553905D01*
X241445672Y-149530390D01*
X241457845Y-149509304D01*
X241471104Y-149477297D01*
X241509516Y-149419807D01*
X241523988Y-149394743D01*
X241530848Y-149387882D01*
X241536416Y-149379550D01*
X241619550Y-149296416D01*
X241627882Y-149290848D01*
X241634743Y-149283988D01*
X241659807Y-149269516D01*
X241717297Y-149231104D01*
X241749304Y-149217845D01*
X241770390Y-149205672D01*
X241793905Y-149199371D01*
X241825915Y-149186112D01*
X241893734Y-149172622D01*
X241921684Y-149165133D01*
X241931678Y-149165074D01*
X241941324Y-149163156D01*
X242798639Y-149160005D01*
X242798692Y-149160007D01*
X242800000Y-149160000D01*
X242804376Y-149160286D01*
G37*
G36*
X249350000Y-149850000D02*
G01*
X247650000Y-149850000D01*
X247650000Y-148150000D01*
X249350000Y-148150000D01*
X249350000Y-149850000D01*
G37*
G36*
X208350000Y-148350000D02*
G01*
X206650000Y-148350000D01*
X206650000Y-146650000D01*
X208350000Y-146650000D01*
X208350000Y-148350000D01*
G37*
G36*
X217404376Y-146620286D02*
G01*
X217457329Y-146622888D01*
X217463848Y-146624184D01*
X217478316Y-146625133D01*
X217506266Y-146632622D01*
X217574084Y-146646112D01*
X217606091Y-146659370D01*
X217629610Y-146665672D01*
X217650698Y-146677847D01*
X217682702Y-146691104D01*
X217740184Y-146729512D01*
X217765257Y-146743988D01*
X217772119Y-146750850D01*
X217780449Y-146756416D01*
X217863583Y-146839550D01*
X217869148Y-146847879D01*
X217876012Y-146854743D01*
X217890489Y-146879818D01*
X217928895Y-146937297D01*
X217942150Y-146969298D01*
X217954328Y-146990390D01*
X217960630Y-147013912D01*
X217973887Y-147045915D01*
X217987374Y-147113722D01*
X217994867Y-147141684D01*
X217994867Y-147151388D01*
X217996822Y-147161217D01*
X217996822Y-147278782D01*
X217994867Y-147288610D01*
X217994867Y-147298316D01*
X217987373Y-147326280D01*
X217973887Y-147394084D01*
X217960631Y-147426084D01*
X217954328Y-147449610D01*
X217942149Y-147470704D01*
X217928895Y-147502702D01*
X217890493Y-147560173D01*
X217876012Y-147585257D01*
X217869146Y-147592122D01*
X217863583Y-147600449D01*
X217780449Y-147683583D01*
X217772122Y-147689146D01*
X217765257Y-147696012D01*
X217740173Y-147710493D01*
X217682702Y-147748895D01*
X217650704Y-147762149D01*
X217629610Y-147774328D01*
X217606084Y-147780631D01*
X217574084Y-147793887D01*
X217506282Y-147807373D01*
X217478316Y-147814867D01*
X217468315Y-147814925D01*
X217458675Y-147816843D01*
X216601360Y-147819994D01*
X216601324Y-147819992D01*
X216600000Y-147820000D01*
X216595565Y-147819709D01*
X216542670Y-147817111D01*
X216536157Y-147815815D01*
X216521684Y-147814867D01*
X216493722Y-147807374D01*
X216425915Y-147793887D01*
X216393912Y-147780630D01*
X216370390Y-147774328D01*
X216349298Y-147762150D01*
X216317297Y-147748895D01*
X216259818Y-147710489D01*
X216234743Y-147696012D01*
X216227879Y-147689148D01*
X216219550Y-147683583D01*
X216136416Y-147600449D01*
X216130850Y-147592119D01*
X216123988Y-147585257D01*
X216109512Y-147560184D01*
X216071104Y-147502702D01*
X216057847Y-147470698D01*
X216045672Y-147449610D01*
X216039370Y-147426091D01*
X216026112Y-147394084D01*
X216012624Y-147326274D01*
X216005133Y-147298316D01*
X216005133Y-147288610D01*
X216003178Y-147278782D01*
X216003178Y-147161217D01*
X216005133Y-147151388D01*
X216005133Y-147141684D01*
X216012623Y-147113728D01*
X216026112Y-147045915D01*
X216039371Y-147013905D01*
X216045672Y-146990390D01*
X216057845Y-146969304D01*
X216071104Y-146937297D01*
X216109516Y-146879807D01*
X216123988Y-146854743D01*
X216130848Y-146847882D01*
X216136416Y-146839550D01*
X216219550Y-146756416D01*
X216227882Y-146750848D01*
X216234743Y-146743988D01*
X216259807Y-146729516D01*
X216317297Y-146691104D01*
X216349304Y-146677845D01*
X216370390Y-146665672D01*
X216393905Y-146659371D01*
X216425915Y-146646112D01*
X216493734Y-146632622D01*
X216521684Y-146625133D01*
X216531678Y-146625074D01*
X216541324Y-146623156D01*
X217398639Y-146620005D01*
X217398692Y-146620007D01*
X217400000Y-146620000D01*
X217404376Y-146620286D01*
G37*
G36*
X242804376Y-146620286D02*
G01*
X242857329Y-146622888D01*
X242863848Y-146624184D01*
X242878316Y-146625133D01*
X242906266Y-146632622D01*
X242974084Y-146646112D01*
X243006091Y-146659370D01*
X243029610Y-146665672D01*
X243050698Y-146677847D01*
X243082702Y-146691104D01*
X243140184Y-146729512D01*
X243165257Y-146743988D01*
X243172119Y-146750850D01*
X243180449Y-146756416D01*
X243263583Y-146839550D01*
X243269148Y-146847879D01*
X243276012Y-146854743D01*
X243290489Y-146879818D01*
X243328895Y-146937297D01*
X243342150Y-146969298D01*
X243354328Y-146990390D01*
X243360630Y-147013912D01*
X243373887Y-147045915D01*
X243387374Y-147113722D01*
X243394867Y-147141684D01*
X243394867Y-147151388D01*
X243396822Y-147161217D01*
X243396822Y-147278782D01*
X243394867Y-147288610D01*
X243394867Y-147298316D01*
X243387373Y-147326280D01*
X243373887Y-147394084D01*
X243360631Y-147426084D01*
X243354328Y-147449610D01*
X243342149Y-147470704D01*
X243328895Y-147502702D01*
X243290493Y-147560173D01*
X243276012Y-147585257D01*
X243269146Y-147592122D01*
X243263583Y-147600449D01*
X243180449Y-147683583D01*
X243172122Y-147689146D01*
X243165257Y-147696012D01*
X243140173Y-147710493D01*
X243082702Y-147748895D01*
X243050704Y-147762149D01*
X243029610Y-147774328D01*
X243006084Y-147780631D01*
X242974084Y-147793887D01*
X242906282Y-147807373D01*
X242878316Y-147814867D01*
X242868315Y-147814925D01*
X242858675Y-147816843D01*
X242001360Y-147819994D01*
X242001324Y-147819992D01*
X242000000Y-147820000D01*
X241995565Y-147819709D01*
X241942670Y-147817111D01*
X241936157Y-147815815D01*
X241921684Y-147814867D01*
X241893722Y-147807374D01*
X241825915Y-147793887D01*
X241793912Y-147780630D01*
X241770390Y-147774328D01*
X241749298Y-147762150D01*
X241717297Y-147748895D01*
X241659818Y-147710489D01*
X241634743Y-147696012D01*
X241627879Y-147689148D01*
X241619550Y-147683583D01*
X241536416Y-147600449D01*
X241530850Y-147592119D01*
X241523988Y-147585257D01*
X241509512Y-147560184D01*
X241471104Y-147502702D01*
X241457847Y-147470698D01*
X241445672Y-147449610D01*
X241439370Y-147426091D01*
X241426112Y-147394084D01*
X241412624Y-147326274D01*
X241405133Y-147298316D01*
X241405133Y-147288610D01*
X241403178Y-147278782D01*
X241403178Y-147161217D01*
X241405133Y-147151388D01*
X241405133Y-147141684D01*
X241412623Y-147113728D01*
X241426112Y-147045915D01*
X241439371Y-147013905D01*
X241445672Y-146990390D01*
X241457845Y-146969304D01*
X241471104Y-146937297D01*
X241509516Y-146879807D01*
X241523988Y-146854743D01*
X241530848Y-146847882D01*
X241536416Y-146839550D01*
X241619550Y-146756416D01*
X241627882Y-146750848D01*
X241634743Y-146743988D01*
X241659807Y-146729516D01*
X241717297Y-146691104D01*
X241749304Y-146677845D01*
X241770390Y-146665672D01*
X241793905Y-146659371D01*
X241825915Y-146646112D01*
X241893734Y-146632622D01*
X241921684Y-146625133D01*
X241931678Y-146625074D01*
X241941324Y-146623156D01*
X242798639Y-146620005D01*
X242798692Y-146620007D01*
X242800000Y-146620000D01*
X242804376Y-146620286D01*
G37*
G36*
X249350000Y-145850000D02*
G01*
X247650000Y-145850000D01*
X247650000Y-144150000D01*
X249350000Y-144150000D01*
X249350000Y-145850000D01*
G37*
G36*
X217404376Y-144080286D02*
G01*
X217457329Y-144082888D01*
X217463848Y-144084184D01*
X217478316Y-144085133D01*
X217506266Y-144092622D01*
X217574084Y-144106112D01*
X217606091Y-144119370D01*
X217629610Y-144125672D01*
X217650698Y-144137847D01*
X217682702Y-144151104D01*
X217740184Y-144189512D01*
X217765257Y-144203988D01*
X217772119Y-144210850D01*
X217780449Y-144216416D01*
X217863583Y-144299550D01*
X217869148Y-144307879D01*
X217876012Y-144314743D01*
X217890489Y-144339818D01*
X217928895Y-144397297D01*
X217942150Y-144429298D01*
X217954328Y-144450390D01*
X217960630Y-144473912D01*
X217973887Y-144505915D01*
X217987374Y-144573722D01*
X217994867Y-144601684D01*
X217994867Y-144611388D01*
X217996822Y-144621217D01*
X217996822Y-144738782D01*
X217994867Y-144748610D01*
X217994867Y-144758316D01*
X217987373Y-144786280D01*
X217973887Y-144854084D01*
X217960631Y-144886084D01*
X217954328Y-144909610D01*
X217942149Y-144930704D01*
X217928895Y-144962702D01*
X217890493Y-145020173D01*
X217876012Y-145045257D01*
X217869146Y-145052122D01*
X217863583Y-145060449D01*
X217780449Y-145143583D01*
X217772122Y-145149146D01*
X217765257Y-145156012D01*
X217740173Y-145170493D01*
X217682702Y-145208895D01*
X217650704Y-145222149D01*
X217629610Y-145234328D01*
X217606084Y-145240631D01*
X217574084Y-145253887D01*
X217506282Y-145267373D01*
X217478316Y-145274867D01*
X217468315Y-145274925D01*
X217458675Y-145276843D01*
X216601360Y-145279994D01*
X216601324Y-145279992D01*
X216600000Y-145280000D01*
X216595565Y-145279709D01*
X216542670Y-145277111D01*
X216536157Y-145275815D01*
X216521684Y-145274867D01*
X216493722Y-145267374D01*
X216425915Y-145253887D01*
X216393912Y-145240630D01*
X216370390Y-145234328D01*
X216349298Y-145222150D01*
X216317297Y-145208895D01*
X216259818Y-145170489D01*
X216234743Y-145156012D01*
X216227879Y-145149148D01*
X216219550Y-145143583D01*
X216136416Y-145060449D01*
X216130850Y-145052119D01*
X216123988Y-145045257D01*
X216109512Y-145020184D01*
X216071104Y-144962702D01*
X216057847Y-144930698D01*
X216045672Y-144909610D01*
X216039370Y-144886091D01*
X216026112Y-144854084D01*
X216012624Y-144786274D01*
X216005133Y-144758316D01*
X216005133Y-144748610D01*
X216003178Y-144738782D01*
X216003178Y-144621217D01*
X216005133Y-144611388D01*
X216005133Y-144601684D01*
X216012623Y-144573728D01*
X216026112Y-144505915D01*
X216039371Y-144473905D01*
X216045672Y-144450390D01*
X216057845Y-144429304D01*
X216071104Y-144397297D01*
X216109516Y-144339807D01*
X216123988Y-144314743D01*
X216130848Y-144307882D01*
X216136416Y-144299550D01*
X216219550Y-144216416D01*
X216227882Y-144210848D01*
X216234743Y-144203988D01*
X216259807Y-144189516D01*
X216317297Y-144151104D01*
X216349304Y-144137845D01*
X216370390Y-144125672D01*
X216393905Y-144119371D01*
X216425915Y-144106112D01*
X216493734Y-144092622D01*
X216521684Y-144085133D01*
X216531678Y-144085074D01*
X216541324Y-144083156D01*
X217398639Y-144080005D01*
X217398692Y-144080007D01*
X217400000Y-144080000D01*
X217404376Y-144080286D01*
G37*
G36*
X242804376Y-144080286D02*
G01*
X242857329Y-144082888D01*
X242863848Y-144084184D01*
X242878316Y-144085133D01*
X242906266Y-144092622D01*
X242974084Y-144106112D01*
X243006091Y-144119370D01*
X243029610Y-144125672D01*
X243050698Y-144137847D01*
X243082702Y-144151104D01*
X243140184Y-144189512D01*
X243165257Y-144203988D01*
X243172119Y-144210850D01*
X243180449Y-144216416D01*
X243263583Y-144299550D01*
X243269148Y-144307879D01*
X243276012Y-144314743D01*
X243290489Y-144339818D01*
X243328895Y-144397297D01*
X243342150Y-144429298D01*
X243354328Y-144450390D01*
X243360630Y-144473912D01*
X243373887Y-144505915D01*
X243387374Y-144573722D01*
X243394867Y-144601684D01*
X243394867Y-144611388D01*
X243396822Y-144621217D01*
X243396822Y-144738782D01*
X243394867Y-144748610D01*
X243394867Y-144758316D01*
X243387373Y-144786280D01*
X243373887Y-144854084D01*
X243360631Y-144886084D01*
X243354328Y-144909610D01*
X243342149Y-144930704D01*
X243328895Y-144962702D01*
X243290493Y-145020173D01*
X243276012Y-145045257D01*
X243269146Y-145052122D01*
X243263583Y-145060449D01*
X243180449Y-145143583D01*
X243172122Y-145149146D01*
X243165257Y-145156012D01*
X243140173Y-145170493D01*
X243082702Y-145208895D01*
X243050704Y-145222149D01*
X243029610Y-145234328D01*
X243006084Y-145240631D01*
X242974084Y-145253887D01*
X242906282Y-145267373D01*
X242878316Y-145274867D01*
X242868315Y-145274925D01*
X242858675Y-145276843D01*
X242001360Y-145279994D01*
X242001324Y-145279992D01*
X242000000Y-145280000D01*
X241995565Y-145279709D01*
X241942670Y-145277111D01*
X241936157Y-145275815D01*
X241921684Y-145274867D01*
X241893722Y-145267374D01*
X241825915Y-145253887D01*
X241793912Y-145240630D01*
X241770390Y-145234328D01*
X241749298Y-145222150D01*
X241717297Y-145208895D01*
X241659818Y-145170489D01*
X241634743Y-145156012D01*
X241627879Y-145149148D01*
X241619550Y-145143583D01*
X241536416Y-145060449D01*
X241530850Y-145052119D01*
X241523988Y-145045257D01*
X241509512Y-145020184D01*
X241471104Y-144962702D01*
X241457847Y-144930698D01*
X241445672Y-144909610D01*
X241439370Y-144886091D01*
X241426112Y-144854084D01*
X241412624Y-144786274D01*
X241405133Y-144758316D01*
X241405133Y-144748610D01*
X241403178Y-144738782D01*
X241403178Y-144621217D01*
X241405133Y-144611388D01*
X241405133Y-144601684D01*
X241412623Y-144573728D01*
X241426112Y-144505915D01*
X241439371Y-144473905D01*
X241445672Y-144450390D01*
X241457845Y-144429304D01*
X241471104Y-144397297D01*
X241509516Y-144339807D01*
X241523988Y-144314743D01*
X241530848Y-144307882D01*
X241536416Y-144299550D01*
X241619550Y-144216416D01*
X241627882Y-144210848D01*
X241634743Y-144203988D01*
X241659807Y-144189516D01*
X241717297Y-144151104D01*
X241749304Y-144137845D01*
X241770390Y-144125672D01*
X241793905Y-144119371D01*
X241825915Y-144106112D01*
X241893734Y-144092622D01*
X241921684Y-144085133D01*
X241931678Y-144085074D01*
X241941324Y-144083156D01*
X242798639Y-144080005D01*
X242798692Y-144080007D01*
X242800000Y-144080000D01*
X242804376Y-144080286D01*
G37*
G36*
X208350000Y-144350000D02*
G01*
X206650000Y-144350000D01*
X206650000Y-142650000D01*
X208350000Y-142650000D01*
X208350000Y-144350000D01*
G37*
G36*
X217404376Y-141540286D02*
G01*
X217457329Y-141542888D01*
X217463848Y-141544184D01*
X217478316Y-141545133D01*
X217506266Y-141552622D01*
X217574084Y-141566112D01*
X217606091Y-141579370D01*
X217629610Y-141585672D01*
X217650698Y-141597847D01*
X217682702Y-141611104D01*
X217740184Y-141649512D01*
X217765257Y-141663988D01*
X217772119Y-141670850D01*
X217780449Y-141676416D01*
X217863583Y-141759550D01*
X217869148Y-141767879D01*
X217876012Y-141774743D01*
X217890489Y-141799818D01*
X217928895Y-141857297D01*
X217942150Y-141889298D01*
X217954328Y-141910390D01*
X217960630Y-141933912D01*
X217973887Y-141965915D01*
X217987374Y-142033722D01*
X217994867Y-142061684D01*
X217994867Y-142071388D01*
X217996822Y-142081217D01*
X217996822Y-142198782D01*
X217994867Y-142208610D01*
X217994867Y-142218316D01*
X217987373Y-142246280D01*
X217973887Y-142314084D01*
X217960631Y-142346084D01*
X217954328Y-142369610D01*
X217942149Y-142390704D01*
X217928895Y-142422702D01*
X217890493Y-142480173D01*
X217876012Y-142505257D01*
X217869146Y-142512122D01*
X217863583Y-142520449D01*
X217780449Y-142603583D01*
X217772122Y-142609146D01*
X217765257Y-142616012D01*
X217740173Y-142630493D01*
X217682702Y-142668895D01*
X217650704Y-142682149D01*
X217629610Y-142694328D01*
X217606084Y-142700631D01*
X217574084Y-142713887D01*
X217506282Y-142727373D01*
X217478316Y-142734867D01*
X217468315Y-142734925D01*
X217458675Y-142736843D01*
X216601360Y-142739994D01*
X216601324Y-142739992D01*
X216600000Y-142740000D01*
X216595565Y-142739709D01*
X216542670Y-142737111D01*
X216536157Y-142735815D01*
X216521684Y-142734867D01*
X216493722Y-142727374D01*
X216425915Y-142713887D01*
X216393912Y-142700630D01*
X216370390Y-142694328D01*
X216349298Y-142682150D01*
X216317297Y-142668895D01*
X216259818Y-142630489D01*
X216234743Y-142616012D01*
X216227879Y-142609148D01*
X216219550Y-142603583D01*
X216136416Y-142520449D01*
X216130850Y-142512119D01*
X216123988Y-142505257D01*
X216109512Y-142480184D01*
X216071104Y-142422702D01*
X216057847Y-142390698D01*
X216045672Y-142369610D01*
X216039370Y-142346091D01*
X216026112Y-142314084D01*
X216012624Y-142246274D01*
X216005133Y-142218316D01*
X216005133Y-142208610D01*
X216003178Y-142198782D01*
X216003178Y-142081217D01*
X216005133Y-142071388D01*
X216005133Y-142061684D01*
X216012623Y-142033728D01*
X216026112Y-141965915D01*
X216039371Y-141933905D01*
X216045672Y-141910390D01*
X216057845Y-141889304D01*
X216071104Y-141857297D01*
X216109516Y-141799807D01*
X216123988Y-141774743D01*
X216130848Y-141767882D01*
X216136416Y-141759550D01*
X216219550Y-141676416D01*
X216227882Y-141670848D01*
X216234743Y-141663988D01*
X216259807Y-141649516D01*
X216317297Y-141611104D01*
X216349304Y-141597845D01*
X216370390Y-141585672D01*
X216393905Y-141579371D01*
X216425915Y-141566112D01*
X216493734Y-141552622D01*
X216521684Y-141545133D01*
X216531678Y-141545074D01*
X216541324Y-141543156D01*
X217398639Y-141540005D01*
X217398692Y-141540007D01*
X217400000Y-141540000D01*
X217404376Y-141540286D01*
G37*
G36*
X242804376Y-141540286D02*
G01*
X242857329Y-141542888D01*
X242863848Y-141544184D01*
X242878316Y-141545133D01*
X242906266Y-141552622D01*
X242974084Y-141566112D01*
X243006091Y-141579370D01*
X243029610Y-141585672D01*
X243050698Y-141597847D01*
X243082702Y-141611104D01*
X243140184Y-141649512D01*
X243165257Y-141663988D01*
X243172119Y-141670850D01*
X243180449Y-141676416D01*
X243263583Y-141759550D01*
X243269148Y-141767879D01*
X243276012Y-141774743D01*
X243290489Y-141799818D01*
X243328895Y-141857297D01*
X243342150Y-141889298D01*
X243354328Y-141910390D01*
X243360630Y-141933912D01*
X243373887Y-141965915D01*
X243387374Y-142033722D01*
X243394867Y-142061684D01*
X243394867Y-142071388D01*
X243396822Y-142081217D01*
X243396822Y-142198782D01*
X243394867Y-142208610D01*
X243394867Y-142218316D01*
X243387373Y-142246280D01*
X243373887Y-142314084D01*
X243360631Y-142346084D01*
X243354328Y-142369610D01*
X243342149Y-142390704D01*
X243328895Y-142422702D01*
X243290493Y-142480173D01*
X243276012Y-142505257D01*
X243269146Y-142512122D01*
X243263583Y-142520449D01*
X243180449Y-142603583D01*
X243172122Y-142609146D01*
X243165257Y-142616012D01*
X243140173Y-142630493D01*
X243082702Y-142668895D01*
X243050704Y-142682149D01*
X243029610Y-142694328D01*
X243006084Y-142700631D01*
X242974084Y-142713887D01*
X242906282Y-142727373D01*
X242878316Y-142734867D01*
X242868315Y-142734925D01*
X242858675Y-142736843D01*
X242001360Y-142739994D01*
X242001324Y-142739992D01*
X242000000Y-142740000D01*
X241995565Y-142739709D01*
X241942670Y-142737111D01*
X241936157Y-142735815D01*
X241921684Y-142734867D01*
X241893722Y-142727374D01*
X241825915Y-142713887D01*
X241793912Y-142700630D01*
X241770390Y-142694328D01*
X241749298Y-142682150D01*
X241717297Y-142668895D01*
X241659818Y-142630489D01*
X241634743Y-142616012D01*
X241627879Y-142609148D01*
X241619550Y-142603583D01*
X241536416Y-142520449D01*
X241530850Y-142512119D01*
X241523988Y-142505257D01*
X241509512Y-142480184D01*
X241471104Y-142422702D01*
X241457847Y-142390698D01*
X241445672Y-142369610D01*
X241439370Y-142346091D01*
X241426112Y-142314084D01*
X241412624Y-142246274D01*
X241405133Y-142218316D01*
X241405133Y-142208610D01*
X241403178Y-142198782D01*
X241403178Y-142081217D01*
X241405133Y-142071388D01*
X241405133Y-142061684D01*
X241412623Y-142033728D01*
X241426112Y-141965915D01*
X241439371Y-141933905D01*
X241445672Y-141910390D01*
X241457845Y-141889304D01*
X241471104Y-141857297D01*
X241509516Y-141799807D01*
X241523988Y-141774743D01*
X241530848Y-141767882D01*
X241536416Y-141759550D01*
X241619550Y-141676416D01*
X241627882Y-141670848D01*
X241634743Y-141663988D01*
X241659807Y-141649516D01*
X241717297Y-141611104D01*
X241749304Y-141597845D01*
X241770390Y-141585672D01*
X241793905Y-141579371D01*
X241825915Y-141566112D01*
X241893734Y-141552622D01*
X241921684Y-141545133D01*
X241931678Y-141545074D01*
X241941324Y-141543156D01*
X242798639Y-141540005D01*
X242798692Y-141540007D01*
X242800000Y-141540000D01*
X242804376Y-141540286D01*
G37*
G36*
X249350000Y-141850000D02*
G01*
X247650000Y-141850000D01*
X247650000Y-140150000D01*
X249350000Y-140150000D01*
X249350000Y-141850000D01*
G37*
G36*
X208350000Y-140350000D02*
G01*
X206650000Y-140350000D01*
X206650000Y-138650000D01*
X208350000Y-138650000D01*
X208350000Y-140350000D01*
G37*
G36*
X217404376Y-139000286D02*
G01*
X217457329Y-139002888D01*
X217463848Y-139004184D01*
X217478316Y-139005133D01*
X217506266Y-139012622D01*
X217574084Y-139026112D01*
X217606091Y-139039370D01*
X217629610Y-139045672D01*
X217650698Y-139057847D01*
X217682702Y-139071104D01*
X217740184Y-139109512D01*
X217765257Y-139123988D01*
X217772119Y-139130850D01*
X217780449Y-139136416D01*
X217863583Y-139219550D01*
X217869148Y-139227879D01*
X217876012Y-139234743D01*
X217890489Y-139259818D01*
X217928895Y-139317297D01*
X217942150Y-139349298D01*
X217954328Y-139370390D01*
X217960630Y-139393912D01*
X217973887Y-139425915D01*
X217987374Y-139493722D01*
X217994867Y-139521684D01*
X217994867Y-139531388D01*
X217996822Y-139541217D01*
X217996822Y-139658782D01*
X217994867Y-139668610D01*
X217994867Y-139678316D01*
X217987373Y-139706280D01*
X217973887Y-139774084D01*
X217960631Y-139806084D01*
X217954328Y-139829610D01*
X217942149Y-139850704D01*
X217928895Y-139882702D01*
X217890493Y-139940173D01*
X217876012Y-139965257D01*
X217869146Y-139972122D01*
X217863583Y-139980449D01*
X217780449Y-140063583D01*
X217772122Y-140069146D01*
X217765257Y-140076012D01*
X217740173Y-140090493D01*
X217682702Y-140128895D01*
X217650704Y-140142149D01*
X217629610Y-140154328D01*
X217606084Y-140160631D01*
X217574084Y-140173887D01*
X217506282Y-140187373D01*
X217478316Y-140194867D01*
X217468315Y-140194925D01*
X217458675Y-140196843D01*
X216601360Y-140199994D01*
X216601324Y-140199992D01*
X216600000Y-140200000D01*
X216595565Y-140199709D01*
X216542670Y-140197111D01*
X216536157Y-140195815D01*
X216521684Y-140194867D01*
X216493722Y-140187374D01*
X216425915Y-140173887D01*
X216393912Y-140160630D01*
X216370390Y-140154328D01*
X216349298Y-140142150D01*
X216317297Y-140128895D01*
X216259818Y-140090489D01*
X216234743Y-140076012D01*
X216227879Y-140069148D01*
X216219550Y-140063583D01*
X216136416Y-139980449D01*
X216130850Y-139972119D01*
X216123988Y-139965257D01*
X216109512Y-139940184D01*
X216071104Y-139882702D01*
X216057847Y-139850698D01*
X216045672Y-139829610D01*
X216039370Y-139806091D01*
X216026112Y-139774084D01*
X216012624Y-139706274D01*
X216005133Y-139678316D01*
X216005133Y-139668610D01*
X216003178Y-139658782D01*
X216003178Y-139541217D01*
X216005133Y-139531388D01*
X216005133Y-139521684D01*
X216012623Y-139493728D01*
X216026112Y-139425915D01*
X216039371Y-139393905D01*
X216045672Y-139370390D01*
X216057845Y-139349304D01*
X216071104Y-139317297D01*
X216109516Y-139259807D01*
X216123988Y-139234743D01*
X216130848Y-139227882D01*
X216136416Y-139219550D01*
X216219550Y-139136416D01*
X216227882Y-139130848D01*
X216234743Y-139123988D01*
X216259807Y-139109516D01*
X216317297Y-139071104D01*
X216349304Y-139057845D01*
X216370390Y-139045672D01*
X216393905Y-139039371D01*
X216425915Y-139026112D01*
X216493734Y-139012622D01*
X216521684Y-139005133D01*
X216531678Y-139005074D01*
X216541324Y-139003156D01*
X217398639Y-139000005D01*
X217398692Y-139000007D01*
X217400000Y-139000000D01*
X217404376Y-139000286D01*
G37*
G36*
X242804376Y-139000286D02*
G01*
X242857329Y-139002888D01*
X242863848Y-139004184D01*
X242878316Y-139005133D01*
X242906266Y-139012622D01*
X242974084Y-139026112D01*
X243006091Y-139039370D01*
X243029610Y-139045672D01*
X243050698Y-139057847D01*
X243082702Y-139071104D01*
X243140184Y-139109512D01*
X243165257Y-139123988D01*
X243172119Y-139130850D01*
X243180449Y-139136416D01*
X243263583Y-139219550D01*
X243269148Y-139227879D01*
X243276012Y-139234743D01*
X243290489Y-139259818D01*
X243328895Y-139317297D01*
X243342150Y-139349298D01*
X243354328Y-139370390D01*
X243360630Y-139393912D01*
X243373887Y-139425915D01*
X243387374Y-139493722D01*
X243394867Y-139521684D01*
X243394867Y-139531388D01*
X243396822Y-139541217D01*
X243396822Y-139658782D01*
X243394867Y-139668610D01*
X243394867Y-139678316D01*
X243387373Y-139706280D01*
X243373887Y-139774084D01*
X243360631Y-139806084D01*
X243354328Y-139829610D01*
X243342149Y-139850704D01*
X243328895Y-139882702D01*
X243290493Y-139940173D01*
X243276012Y-139965257D01*
X243269146Y-139972122D01*
X243263583Y-139980449D01*
X243180449Y-140063583D01*
X243172122Y-140069146D01*
X243165257Y-140076012D01*
X243140173Y-140090493D01*
X243082702Y-140128895D01*
X243050704Y-140142149D01*
X243029610Y-140154328D01*
X243006084Y-140160631D01*
X242974084Y-140173887D01*
X242906282Y-140187373D01*
X242878316Y-140194867D01*
X242868315Y-140194925D01*
X242858675Y-140196843D01*
X242001360Y-140199994D01*
X242001324Y-140199992D01*
X242000000Y-140200000D01*
X241995565Y-140199709D01*
X241942670Y-140197111D01*
X241936157Y-140195815D01*
X241921684Y-140194867D01*
X241893722Y-140187374D01*
X241825915Y-140173887D01*
X241793912Y-140160630D01*
X241770390Y-140154328D01*
X241749298Y-140142150D01*
X241717297Y-140128895D01*
X241659818Y-140090489D01*
X241634743Y-140076012D01*
X241627879Y-140069148D01*
X241619550Y-140063583D01*
X241536416Y-139980449D01*
X241530850Y-139972119D01*
X241523988Y-139965257D01*
X241509512Y-139940184D01*
X241471104Y-139882702D01*
X241457847Y-139850698D01*
X241445672Y-139829610D01*
X241439370Y-139806091D01*
X241426112Y-139774084D01*
X241412624Y-139706274D01*
X241405133Y-139678316D01*
X241405133Y-139668610D01*
X241403178Y-139658782D01*
X241403178Y-139541217D01*
X241405133Y-139531388D01*
X241405133Y-139521684D01*
X241412623Y-139493728D01*
X241426112Y-139425915D01*
X241439371Y-139393905D01*
X241445672Y-139370390D01*
X241457845Y-139349304D01*
X241471104Y-139317297D01*
X241509516Y-139259807D01*
X241523988Y-139234743D01*
X241530848Y-139227882D01*
X241536416Y-139219550D01*
X241619550Y-139136416D01*
X241627882Y-139130848D01*
X241634743Y-139123988D01*
X241659807Y-139109516D01*
X241717297Y-139071104D01*
X241749304Y-139057845D01*
X241770390Y-139045672D01*
X241793905Y-139039371D01*
X241825915Y-139026112D01*
X241893734Y-139012622D01*
X241921684Y-139005133D01*
X241931678Y-139005074D01*
X241941324Y-139003156D01*
X242798639Y-139000005D01*
X242798692Y-139000007D01*
X242800000Y-139000000D01*
X242804376Y-139000286D01*
G37*
G36*
X249350000Y-137850000D02*
G01*
X247650000Y-137850000D01*
X247650000Y-136150000D01*
X249350000Y-136150000D01*
X249350000Y-137850000D01*
G37*
G36*
X217404376Y-136460286D02*
G01*
X217457329Y-136462888D01*
X217463848Y-136464184D01*
X217478316Y-136465133D01*
X217506266Y-136472622D01*
X217574084Y-136486112D01*
X217606091Y-136499370D01*
X217629610Y-136505672D01*
X217650698Y-136517847D01*
X217682702Y-136531104D01*
X217740184Y-136569512D01*
X217765257Y-136583988D01*
X217772119Y-136590850D01*
X217780449Y-136596416D01*
X217863583Y-136679550D01*
X217869148Y-136687879D01*
X217876012Y-136694743D01*
X217890489Y-136719818D01*
X217928895Y-136777297D01*
X217942150Y-136809298D01*
X217954328Y-136830390D01*
X217960630Y-136853912D01*
X217973887Y-136885915D01*
X217987374Y-136953722D01*
X217994867Y-136981684D01*
X217994867Y-136991388D01*
X217996822Y-137001217D01*
X217996822Y-137118782D01*
X217994867Y-137128610D01*
X217994867Y-137138316D01*
X217987373Y-137166280D01*
X217973887Y-137234084D01*
X217960631Y-137266084D01*
X217954328Y-137289610D01*
X217942149Y-137310704D01*
X217928895Y-137342702D01*
X217890493Y-137400173D01*
X217876012Y-137425257D01*
X217869146Y-137432122D01*
X217863583Y-137440449D01*
X217780449Y-137523583D01*
X217772122Y-137529146D01*
X217765257Y-137536012D01*
X217740173Y-137550493D01*
X217682702Y-137588895D01*
X217650704Y-137602149D01*
X217629610Y-137614328D01*
X217606084Y-137620631D01*
X217574084Y-137633887D01*
X217506282Y-137647373D01*
X217478316Y-137654867D01*
X217468315Y-137654925D01*
X217458675Y-137656843D01*
X216601360Y-137659994D01*
X216601324Y-137659992D01*
X216600000Y-137660000D01*
X216595565Y-137659709D01*
X216542670Y-137657111D01*
X216536157Y-137655815D01*
X216521684Y-137654867D01*
X216493722Y-137647374D01*
X216425915Y-137633887D01*
X216393912Y-137620630D01*
X216370390Y-137614328D01*
X216349298Y-137602150D01*
X216317297Y-137588895D01*
X216259818Y-137550489D01*
X216234743Y-137536012D01*
X216227879Y-137529148D01*
X216219550Y-137523583D01*
X216136416Y-137440449D01*
X216130850Y-137432119D01*
X216123988Y-137425257D01*
X216109512Y-137400184D01*
X216071104Y-137342702D01*
X216057847Y-137310698D01*
X216045672Y-137289610D01*
X216039370Y-137266091D01*
X216026112Y-137234084D01*
X216012624Y-137166274D01*
X216005133Y-137138316D01*
X216005133Y-137128610D01*
X216003178Y-137118782D01*
X216003178Y-137001217D01*
X216005133Y-136991388D01*
X216005133Y-136981684D01*
X216012623Y-136953728D01*
X216026112Y-136885915D01*
X216039371Y-136853905D01*
X216045672Y-136830390D01*
X216057845Y-136809304D01*
X216071104Y-136777297D01*
X216109516Y-136719807D01*
X216123988Y-136694743D01*
X216130848Y-136687882D01*
X216136416Y-136679550D01*
X216219550Y-136596416D01*
X216227882Y-136590848D01*
X216234743Y-136583988D01*
X216259807Y-136569516D01*
X216317297Y-136531104D01*
X216349304Y-136517845D01*
X216370390Y-136505672D01*
X216393905Y-136499371D01*
X216425915Y-136486112D01*
X216493734Y-136472622D01*
X216521684Y-136465133D01*
X216531678Y-136465074D01*
X216541324Y-136463156D01*
X217398639Y-136460005D01*
X217398692Y-136460007D01*
X217400000Y-136460000D01*
X217404376Y-136460286D01*
G37*
G36*
X242804376Y-136460286D02*
G01*
X242857329Y-136462888D01*
X242863848Y-136464184D01*
X242878316Y-136465133D01*
X242906266Y-136472622D01*
X242974084Y-136486112D01*
X243006091Y-136499370D01*
X243029610Y-136505672D01*
X243050698Y-136517847D01*
X243082702Y-136531104D01*
X243140184Y-136569512D01*
X243165257Y-136583988D01*
X243172119Y-136590850D01*
X243180449Y-136596416D01*
X243263583Y-136679550D01*
X243269148Y-136687879D01*
X243276012Y-136694743D01*
X243290489Y-136719818D01*
X243328895Y-136777297D01*
X243342150Y-136809298D01*
X243354328Y-136830390D01*
X243360630Y-136853912D01*
X243373887Y-136885915D01*
X243387374Y-136953722D01*
X243394867Y-136981684D01*
X243394867Y-136991388D01*
X243396822Y-137001217D01*
X243396822Y-137118782D01*
X243394867Y-137128610D01*
X243394867Y-137138316D01*
X243387373Y-137166280D01*
X243373887Y-137234084D01*
X243360631Y-137266084D01*
X243354328Y-137289610D01*
X243342149Y-137310704D01*
X243328895Y-137342702D01*
X243290493Y-137400173D01*
X243276012Y-137425257D01*
X243269146Y-137432122D01*
X243263583Y-137440449D01*
X243180449Y-137523583D01*
X243172122Y-137529146D01*
X243165257Y-137536012D01*
X243140173Y-137550493D01*
X243082702Y-137588895D01*
X243050704Y-137602149D01*
X243029610Y-137614328D01*
X243006084Y-137620631D01*
X242974084Y-137633887D01*
X242906282Y-137647373D01*
X242878316Y-137654867D01*
X242868315Y-137654925D01*
X242858675Y-137656843D01*
X242001360Y-137659994D01*
X242001324Y-137659992D01*
X242000000Y-137660000D01*
X241995565Y-137659709D01*
X241942670Y-137657111D01*
X241936157Y-137655815D01*
X241921684Y-137654867D01*
X241893722Y-137647374D01*
X241825915Y-137633887D01*
X241793912Y-137620630D01*
X241770390Y-137614328D01*
X241749298Y-137602150D01*
X241717297Y-137588895D01*
X241659818Y-137550489D01*
X241634743Y-137536012D01*
X241627879Y-137529148D01*
X241619550Y-137523583D01*
X241536416Y-137440449D01*
X241530850Y-137432119D01*
X241523988Y-137425257D01*
X241509512Y-137400184D01*
X241471104Y-137342702D01*
X241457847Y-137310698D01*
X241445672Y-137289610D01*
X241439370Y-137266091D01*
X241426112Y-137234084D01*
X241412624Y-137166274D01*
X241405133Y-137138316D01*
X241405133Y-137128610D01*
X241403178Y-137118782D01*
X241403178Y-137001217D01*
X241405133Y-136991388D01*
X241405133Y-136981684D01*
X241412623Y-136953728D01*
X241426112Y-136885915D01*
X241439371Y-136853905D01*
X241445672Y-136830390D01*
X241457845Y-136809304D01*
X241471104Y-136777297D01*
X241509516Y-136719807D01*
X241523988Y-136694743D01*
X241530848Y-136687882D01*
X241536416Y-136679550D01*
X241619550Y-136596416D01*
X241627882Y-136590848D01*
X241634743Y-136583988D01*
X241659807Y-136569516D01*
X241717297Y-136531104D01*
X241749304Y-136517845D01*
X241770390Y-136505672D01*
X241793905Y-136499371D01*
X241825915Y-136486112D01*
X241893734Y-136472622D01*
X241921684Y-136465133D01*
X241931678Y-136465074D01*
X241941324Y-136463156D01*
X242798639Y-136460005D01*
X242798692Y-136460007D01*
X242800000Y-136460000D01*
X242804376Y-136460286D01*
G37*
G36*
X208350000Y-136350000D02*
G01*
X206650000Y-136350000D01*
X206650000Y-134650000D01*
X208350000Y-134650000D01*
X208350000Y-136350000D01*
G37*
G36*
X217404376Y-133920286D02*
G01*
X217457329Y-133922888D01*
X217463848Y-133924184D01*
X217478316Y-133925133D01*
X217506266Y-133932622D01*
X217574084Y-133946112D01*
X217606091Y-133959370D01*
X217629610Y-133965672D01*
X217650698Y-133977847D01*
X217682702Y-133991104D01*
X217740184Y-134029512D01*
X217765257Y-134043988D01*
X217772119Y-134050850D01*
X217780449Y-134056416D01*
X217863583Y-134139550D01*
X217869148Y-134147879D01*
X217876012Y-134154743D01*
X217890489Y-134179818D01*
X217928895Y-134237297D01*
X217942150Y-134269298D01*
X217954328Y-134290390D01*
X217960630Y-134313912D01*
X217973887Y-134345915D01*
X217987374Y-134413722D01*
X217994867Y-134441684D01*
X217994867Y-134451388D01*
X217996822Y-134461217D01*
X217996822Y-134578782D01*
X217994867Y-134588610D01*
X217994867Y-134598316D01*
X217987373Y-134626280D01*
X217973887Y-134694084D01*
X217960631Y-134726084D01*
X217954328Y-134749610D01*
X217942149Y-134770704D01*
X217928895Y-134802702D01*
X217890493Y-134860173D01*
X217876012Y-134885257D01*
X217869146Y-134892122D01*
X217863583Y-134900449D01*
X217780449Y-134983583D01*
X217772122Y-134989146D01*
X217765257Y-134996012D01*
X217740173Y-135010493D01*
X217682702Y-135048895D01*
X217650704Y-135062149D01*
X217629610Y-135074328D01*
X217606084Y-135080631D01*
X217574084Y-135093887D01*
X217506282Y-135107373D01*
X217478316Y-135114867D01*
X217468315Y-135114925D01*
X217458675Y-135116843D01*
X216601360Y-135119994D01*
X216601324Y-135119992D01*
X216600000Y-135120000D01*
X216595565Y-135119709D01*
X216542670Y-135117111D01*
X216536157Y-135115815D01*
X216521684Y-135114867D01*
X216493722Y-135107374D01*
X216425915Y-135093887D01*
X216393912Y-135080630D01*
X216370390Y-135074328D01*
X216349298Y-135062150D01*
X216317297Y-135048895D01*
X216259818Y-135010489D01*
X216234743Y-134996012D01*
X216227879Y-134989148D01*
X216219550Y-134983583D01*
X216136416Y-134900449D01*
X216130850Y-134892119D01*
X216123988Y-134885257D01*
X216109512Y-134860184D01*
X216071104Y-134802702D01*
X216057847Y-134770698D01*
X216045672Y-134749610D01*
X216039370Y-134726091D01*
X216026112Y-134694084D01*
X216012624Y-134626274D01*
X216005133Y-134598316D01*
X216005133Y-134588610D01*
X216003178Y-134578782D01*
X216003178Y-134461217D01*
X216005133Y-134451388D01*
X216005133Y-134441684D01*
X216012623Y-134413728D01*
X216026112Y-134345915D01*
X216039371Y-134313905D01*
X216045672Y-134290390D01*
X216057845Y-134269304D01*
X216071104Y-134237297D01*
X216109516Y-134179807D01*
X216123988Y-134154743D01*
X216130848Y-134147882D01*
X216136416Y-134139550D01*
X216219550Y-134056416D01*
X216227882Y-134050848D01*
X216234743Y-134043988D01*
X216259807Y-134029516D01*
X216317297Y-133991104D01*
X216349304Y-133977845D01*
X216370390Y-133965672D01*
X216393905Y-133959371D01*
X216425915Y-133946112D01*
X216493734Y-133932622D01*
X216521684Y-133925133D01*
X216531678Y-133925074D01*
X216541324Y-133923156D01*
X217398639Y-133920005D01*
X217398692Y-133920007D01*
X217400000Y-133920000D01*
X217404376Y-133920286D01*
G37*
G36*
X242804376Y-133920286D02*
G01*
X242857329Y-133922888D01*
X242863848Y-133924184D01*
X242878316Y-133925133D01*
X242906266Y-133932622D01*
X242974084Y-133946112D01*
X243006091Y-133959370D01*
X243029610Y-133965672D01*
X243050698Y-133977847D01*
X243082702Y-133991104D01*
X243140184Y-134029512D01*
X243165257Y-134043988D01*
X243172119Y-134050850D01*
X243180449Y-134056416D01*
X243263583Y-134139550D01*
X243269148Y-134147879D01*
X243276012Y-134154743D01*
X243290489Y-134179818D01*
X243328895Y-134237297D01*
X243342150Y-134269298D01*
X243354328Y-134290390D01*
X243360630Y-134313912D01*
X243373887Y-134345915D01*
X243387374Y-134413722D01*
X243394867Y-134441684D01*
X243394867Y-134451388D01*
X243396822Y-134461217D01*
X243396822Y-134578782D01*
X243394867Y-134588610D01*
X243394867Y-134598316D01*
X243387373Y-134626280D01*
X243373887Y-134694084D01*
X243360631Y-134726084D01*
X243354328Y-134749610D01*
X243342149Y-134770704D01*
X243328895Y-134802702D01*
X243290493Y-134860173D01*
X243276012Y-134885257D01*
X243269146Y-134892122D01*
X243263583Y-134900449D01*
X243180449Y-134983583D01*
X243172122Y-134989146D01*
X243165257Y-134996012D01*
X243140173Y-135010493D01*
X243082702Y-135048895D01*
X243050704Y-135062149D01*
X243029610Y-135074328D01*
X243006084Y-135080631D01*
X242974084Y-135093887D01*
X242906282Y-135107373D01*
X242878316Y-135114867D01*
X242868315Y-135114925D01*
X242858675Y-135116843D01*
X242001360Y-135119994D01*
X242001324Y-135119992D01*
X242000000Y-135120000D01*
X241995565Y-135119709D01*
X241942670Y-135117111D01*
X241936157Y-135115815D01*
X241921684Y-135114867D01*
X241893722Y-135107374D01*
X241825915Y-135093887D01*
X241793912Y-135080630D01*
X241770390Y-135074328D01*
X241749298Y-135062150D01*
X241717297Y-135048895D01*
X241659818Y-135010489D01*
X241634743Y-134996012D01*
X241627879Y-134989148D01*
X241619550Y-134983583D01*
X241536416Y-134900449D01*
X241530850Y-134892119D01*
X241523988Y-134885257D01*
X241509512Y-134860184D01*
X241471104Y-134802702D01*
X241457847Y-134770698D01*
X241445672Y-134749610D01*
X241439370Y-134726091D01*
X241426112Y-134694084D01*
X241412624Y-134626274D01*
X241405133Y-134598316D01*
X241405133Y-134588610D01*
X241403178Y-134578782D01*
X241403178Y-134461217D01*
X241405133Y-134451388D01*
X241405133Y-134441684D01*
X241412623Y-134413728D01*
X241426112Y-134345915D01*
X241439371Y-134313905D01*
X241445672Y-134290390D01*
X241457845Y-134269304D01*
X241471104Y-134237297D01*
X241509516Y-134179807D01*
X241523988Y-134154743D01*
X241530848Y-134147882D01*
X241536416Y-134139550D01*
X241619550Y-134056416D01*
X241627882Y-134050848D01*
X241634743Y-134043988D01*
X241659807Y-134029516D01*
X241717297Y-133991104D01*
X241749304Y-133977845D01*
X241770390Y-133965672D01*
X241793905Y-133959371D01*
X241825915Y-133946112D01*
X241893734Y-133932622D01*
X241921684Y-133925133D01*
X241931678Y-133925074D01*
X241941324Y-133923156D01*
X242798639Y-133920005D01*
X242798692Y-133920007D01*
X242800000Y-133920000D01*
X242804376Y-133920286D01*
G37*
G36*
X249350000Y-133850000D02*
G01*
X247650000Y-133850000D01*
X247650000Y-132150000D01*
X249350000Y-132150000D01*
X249350000Y-133850000D01*
G37*
G36*
X217404376Y-131380286D02*
G01*
X217457329Y-131382888D01*
X217463848Y-131384184D01*
X217478316Y-131385133D01*
X217506266Y-131392622D01*
X217574084Y-131406112D01*
X217606091Y-131419370D01*
X217629610Y-131425672D01*
X217650698Y-131437847D01*
X217682702Y-131451104D01*
X217740184Y-131489512D01*
X217765257Y-131503988D01*
X217772119Y-131510850D01*
X217780449Y-131516416D01*
X217863583Y-131599550D01*
X217869148Y-131607879D01*
X217876012Y-131614743D01*
X217890489Y-131639818D01*
X217928895Y-131697297D01*
X217942150Y-131729298D01*
X217954328Y-131750390D01*
X217960630Y-131773912D01*
X217973887Y-131805915D01*
X217987374Y-131873722D01*
X217994867Y-131901684D01*
X217994867Y-131911388D01*
X217996822Y-131921217D01*
X217996822Y-132038782D01*
X217994867Y-132048610D01*
X217994867Y-132058316D01*
X217987373Y-132086280D01*
X217973887Y-132154084D01*
X217960631Y-132186084D01*
X217954328Y-132209610D01*
X217942149Y-132230704D01*
X217928895Y-132262702D01*
X217890493Y-132320173D01*
X217876012Y-132345257D01*
X217869146Y-132352122D01*
X217863583Y-132360449D01*
X217780449Y-132443583D01*
X217772122Y-132449146D01*
X217765257Y-132456012D01*
X217740173Y-132470493D01*
X217682702Y-132508895D01*
X217650704Y-132522149D01*
X217629610Y-132534328D01*
X217606084Y-132540631D01*
X217574084Y-132553887D01*
X217506282Y-132567373D01*
X217478316Y-132574867D01*
X217468315Y-132574925D01*
X217458675Y-132576843D01*
X216601360Y-132579994D01*
X216601324Y-132579992D01*
X216600000Y-132580000D01*
X216595565Y-132579709D01*
X216542670Y-132577111D01*
X216536157Y-132575815D01*
X216521684Y-132574867D01*
X216493722Y-132567374D01*
X216425915Y-132553887D01*
X216393912Y-132540630D01*
X216370390Y-132534328D01*
X216349298Y-132522150D01*
X216317297Y-132508895D01*
X216259818Y-132470489D01*
X216234743Y-132456012D01*
X216227879Y-132449148D01*
X216219550Y-132443583D01*
X216136416Y-132360449D01*
X216130850Y-132352119D01*
X216123988Y-132345257D01*
X216109512Y-132320184D01*
X216071104Y-132262702D01*
X216057847Y-132230698D01*
X216045672Y-132209610D01*
X216039370Y-132186091D01*
X216026112Y-132154084D01*
X216012624Y-132086274D01*
X216005133Y-132058316D01*
X216005133Y-132048610D01*
X216003178Y-132038782D01*
X216003178Y-131921217D01*
X216005133Y-131911388D01*
X216005133Y-131901684D01*
X216012623Y-131873728D01*
X216026112Y-131805915D01*
X216039371Y-131773905D01*
X216045672Y-131750390D01*
X216057845Y-131729304D01*
X216071104Y-131697297D01*
X216109516Y-131639807D01*
X216123988Y-131614743D01*
X216130848Y-131607882D01*
X216136416Y-131599550D01*
X216219550Y-131516416D01*
X216227882Y-131510848D01*
X216234743Y-131503988D01*
X216259807Y-131489516D01*
X216317297Y-131451104D01*
X216349304Y-131437845D01*
X216370390Y-131425672D01*
X216393905Y-131419371D01*
X216425915Y-131406112D01*
X216493734Y-131392622D01*
X216521684Y-131385133D01*
X216531678Y-131385074D01*
X216541324Y-131383156D01*
X217398639Y-131380005D01*
X217398692Y-131380007D01*
X217400000Y-131380000D01*
X217404376Y-131380286D01*
G37*
G36*
X242804376Y-131380286D02*
G01*
X242857329Y-131382888D01*
X242863848Y-131384184D01*
X242878316Y-131385133D01*
X242906266Y-131392622D01*
X242974084Y-131406112D01*
X243006091Y-131419370D01*
X243029610Y-131425672D01*
X243050698Y-131437847D01*
X243082702Y-131451104D01*
X243140184Y-131489512D01*
X243165257Y-131503988D01*
X243172119Y-131510850D01*
X243180449Y-131516416D01*
X243263583Y-131599550D01*
X243269148Y-131607879D01*
X243276012Y-131614743D01*
X243290489Y-131639818D01*
X243328895Y-131697297D01*
X243342150Y-131729298D01*
X243354328Y-131750390D01*
X243360630Y-131773912D01*
X243373887Y-131805915D01*
X243387374Y-131873722D01*
X243394867Y-131901684D01*
X243394867Y-131911388D01*
X243396822Y-131921217D01*
X243396822Y-132038782D01*
X243394867Y-132048610D01*
X243394867Y-132058316D01*
X243387373Y-132086280D01*
X243373887Y-132154084D01*
X243360631Y-132186084D01*
X243354328Y-132209610D01*
X243342149Y-132230704D01*
X243328895Y-132262702D01*
X243290493Y-132320173D01*
X243276012Y-132345257D01*
X243269146Y-132352122D01*
X243263583Y-132360449D01*
X243180449Y-132443583D01*
X243172122Y-132449146D01*
X243165257Y-132456012D01*
X243140173Y-132470493D01*
X243082702Y-132508895D01*
X243050704Y-132522149D01*
X243029610Y-132534328D01*
X243006084Y-132540631D01*
X242974084Y-132553887D01*
X242906282Y-132567373D01*
X242878316Y-132574867D01*
X242868315Y-132574925D01*
X242858675Y-132576843D01*
X242001360Y-132579994D01*
X242001324Y-132579992D01*
X242000000Y-132580000D01*
X241995565Y-132579709D01*
X241942670Y-132577111D01*
X241936157Y-132575815D01*
X241921684Y-132574867D01*
X241893722Y-132567374D01*
X241825915Y-132553887D01*
X241793912Y-132540630D01*
X241770390Y-132534328D01*
X241749298Y-132522150D01*
X241717297Y-132508895D01*
X241659818Y-132470489D01*
X241634743Y-132456012D01*
X241627879Y-132449148D01*
X241619550Y-132443583D01*
X241536416Y-132360449D01*
X241530850Y-132352119D01*
X241523988Y-132345257D01*
X241509512Y-132320184D01*
X241471104Y-132262702D01*
X241457847Y-132230698D01*
X241445672Y-132209610D01*
X241439370Y-132186091D01*
X241426112Y-132154084D01*
X241412624Y-132086274D01*
X241405133Y-132058316D01*
X241405133Y-132048610D01*
X241403178Y-132038782D01*
X241403178Y-131921217D01*
X241405133Y-131911388D01*
X241405133Y-131901684D01*
X241412623Y-131873728D01*
X241426112Y-131805915D01*
X241439371Y-131773905D01*
X241445672Y-131750390D01*
X241457845Y-131729304D01*
X241471104Y-131697297D01*
X241509516Y-131639807D01*
X241523988Y-131614743D01*
X241530848Y-131607882D01*
X241536416Y-131599550D01*
X241619550Y-131516416D01*
X241627882Y-131510848D01*
X241634743Y-131503988D01*
X241659807Y-131489516D01*
X241717297Y-131451104D01*
X241749304Y-131437845D01*
X241770390Y-131425672D01*
X241793905Y-131419371D01*
X241825915Y-131406112D01*
X241893734Y-131392622D01*
X241921684Y-131385133D01*
X241931678Y-131385074D01*
X241941324Y-131383156D01*
X242798639Y-131380005D01*
X242798692Y-131380007D01*
X242800000Y-131380000D01*
X242804376Y-131380286D01*
G37*
G36*
X208350000Y-132350000D02*
G01*
X206650000Y-132350000D01*
X206650000Y-130650000D01*
X208350000Y-130650000D01*
X208350000Y-132350000D01*
G37*
G36*
X217404376Y-128840286D02*
G01*
X217457329Y-128842888D01*
X217463848Y-128844184D01*
X217478316Y-128845133D01*
X217506266Y-128852622D01*
X217574084Y-128866112D01*
X217606091Y-128879370D01*
X217629610Y-128885672D01*
X217650698Y-128897847D01*
X217682702Y-128911104D01*
X217740184Y-128949512D01*
X217765257Y-128963988D01*
X217772119Y-128970850D01*
X217780449Y-128976416D01*
X217863583Y-129059550D01*
X217869148Y-129067879D01*
X217876012Y-129074743D01*
X217890489Y-129099818D01*
X217928895Y-129157297D01*
X217942150Y-129189298D01*
X217954328Y-129210390D01*
X217960630Y-129233912D01*
X217973887Y-129265915D01*
X217987374Y-129333722D01*
X217994867Y-129361684D01*
X217994867Y-129371388D01*
X217996822Y-129381217D01*
X217996822Y-129498782D01*
X217994867Y-129508610D01*
X217994867Y-129518316D01*
X217987373Y-129546280D01*
X217973887Y-129614084D01*
X217960631Y-129646084D01*
X217954328Y-129669610D01*
X217942149Y-129690704D01*
X217928895Y-129722702D01*
X217890493Y-129780173D01*
X217876012Y-129805257D01*
X217869146Y-129812122D01*
X217863583Y-129820449D01*
X217780449Y-129903583D01*
X217772122Y-129909146D01*
X217765257Y-129916012D01*
X217740173Y-129930493D01*
X217682702Y-129968895D01*
X217650704Y-129982149D01*
X217629610Y-129994328D01*
X217606084Y-130000631D01*
X217574084Y-130013887D01*
X217506282Y-130027373D01*
X217478316Y-130034867D01*
X217468315Y-130034925D01*
X217458675Y-130036843D01*
X216601360Y-130039994D01*
X216601324Y-130039992D01*
X216600000Y-130040000D01*
X216595565Y-130039709D01*
X216542670Y-130037111D01*
X216536157Y-130035815D01*
X216521684Y-130034867D01*
X216493722Y-130027374D01*
X216425915Y-130013887D01*
X216393912Y-130000630D01*
X216370390Y-129994328D01*
X216349298Y-129982150D01*
X216317297Y-129968895D01*
X216259818Y-129930489D01*
X216234743Y-129916012D01*
X216227879Y-129909148D01*
X216219550Y-129903583D01*
X216136416Y-129820449D01*
X216130850Y-129812119D01*
X216123988Y-129805257D01*
X216109512Y-129780184D01*
X216071104Y-129722702D01*
X216057847Y-129690698D01*
X216045672Y-129669610D01*
X216039370Y-129646091D01*
X216026112Y-129614084D01*
X216012624Y-129546274D01*
X216005133Y-129518316D01*
X216005133Y-129508610D01*
X216003178Y-129498782D01*
X216003178Y-129381217D01*
X216005133Y-129371388D01*
X216005133Y-129361684D01*
X216012623Y-129333728D01*
X216026112Y-129265915D01*
X216039371Y-129233905D01*
X216045672Y-129210390D01*
X216057845Y-129189304D01*
X216071104Y-129157297D01*
X216109516Y-129099807D01*
X216123988Y-129074743D01*
X216130848Y-129067882D01*
X216136416Y-129059550D01*
X216219550Y-128976416D01*
X216227882Y-128970848D01*
X216234743Y-128963988D01*
X216259807Y-128949516D01*
X216317297Y-128911104D01*
X216349304Y-128897845D01*
X216370390Y-128885672D01*
X216393905Y-128879371D01*
X216425915Y-128866112D01*
X216493734Y-128852622D01*
X216521684Y-128845133D01*
X216531678Y-128845074D01*
X216541324Y-128843156D01*
X217398639Y-128840005D01*
X217398692Y-128840007D01*
X217400000Y-128840000D01*
X217404376Y-128840286D01*
G37*
G36*
X242804376Y-128840286D02*
G01*
X242857329Y-128842888D01*
X242863848Y-128844184D01*
X242878316Y-128845133D01*
X242906266Y-128852622D01*
X242974084Y-128866112D01*
X243006091Y-128879370D01*
X243029610Y-128885672D01*
X243050698Y-128897847D01*
X243082702Y-128911104D01*
X243140184Y-128949512D01*
X243165257Y-128963988D01*
X243172119Y-128970850D01*
X243180449Y-128976416D01*
X243263583Y-129059550D01*
X243269148Y-129067879D01*
X243276012Y-129074743D01*
X243290489Y-129099818D01*
X243328895Y-129157297D01*
X243342150Y-129189298D01*
X243354328Y-129210390D01*
X243360630Y-129233912D01*
X243373887Y-129265915D01*
X243387374Y-129333722D01*
X243394867Y-129361684D01*
X243394867Y-129371388D01*
X243396822Y-129381217D01*
X243396822Y-129498782D01*
X243394867Y-129508610D01*
X243394867Y-129518316D01*
X243387373Y-129546280D01*
X243373887Y-129614084D01*
X243360631Y-129646084D01*
X243354328Y-129669610D01*
X243342149Y-129690704D01*
X243328895Y-129722702D01*
X243290493Y-129780173D01*
X243276012Y-129805257D01*
X243269146Y-129812122D01*
X243263583Y-129820449D01*
X243180449Y-129903583D01*
X243172122Y-129909146D01*
X243165257Y-129916012D01*
X243140173Y-129930493D01*
X243082702Y-129968895D01*
X243050704Y-129982149D01*
X243029610Y-129994328D01*
X243006084Y-130000631D01*
X242974084Y-130013887D01*
X242906282Y-130027373D01*
X242878316Y-130034867D01*
X242868315Y-130034925D01*
X242858675Y-130036843D01*
X242001360Y-130039994D01*
X242001324Y-130039992D01*
X242000000Y-130040000D01*
X241995565Y-130039709D01*
X241942670Y-130037111D01*
X241936157Y-130035815D01*
X241921684Y-130034867D01*
X241893722Y-130027374D01*
X241825915Y-130013887D01*
X241793912Y-130000630D01*
X241770390Y-129994328D01*
X241749298Y-129982150D01*
X241717297Y-129968895D01*
X241659818Y-129930489D01*
X241634743Y-129916012D01*
X241627879Y-129909148D01*
X241619550Y-129903583D01*
X241536416Y-129820449D01*
X241530850Y-129812119D01*
X241523988Y-129805257D01*
X241509512Y-129780184D01*
X241471104Y-129722702D01*
X241457847Y-129690698D01*
X241445672Y-129669610D01*
X241439370Y-129646091D01*
X241426112Y-129614084D01*
X241412624Y-129546274D01*
X241405133Y-129518316D01*
X241405133Y-129508610D01*
X241403178Y-129498782D01*
X241403178Y-129381217D01*
X241405133Y-129371388D01*
X241405133Y-129361684D01*
X241412623Y-129333728D01*
X241426112Y-129265915D01*
X241439371Y-129233905D01*
X241445672Y-129210390D01*
X241457845Y-129189304D01*
X241471104Y-129157297D01*
X241509516Y-129099807D01*
X241523988Y-129074743D01*
X241530848Y-129067882D01*
X241536416Y-129059550D01*
X241619550Y-128976416D01*
X241627882Y-128970848D01*
X241634743Y-128963988D01*
X241659807Y-128949516D01*
X241717297Y-128911104D01*
X241749304Y-128897845D01*
X241770390Y-128885672D01*
X241793905Y-128879371D01*
X241825915Y-128866112D01*
X241893734Y-128852622D01*
X241921684Y-128845133D01*
X241931678Y-128845074D01*
X241941324Y-128843156D01*
X242798639Y-128840005D01*
X242798692Y-128840007D01*
X242800000Y-128840000D01*
X242804376Y-128840286D01*
G37*
G36*
X249350000Y-129850000D02*
G01*
X247650000Y-129850000D01*
X247650000Y-128150000D01*
X249350000Y-128150000D01*
X249350000Y-129850000D01*
G37*
G36*
X258541811Y-127704711D02*
G01*
X258583588Y-127704711D01*
X258630718Y-127714728D01*
X258678017Y-127720058D01*
X258712408Y-127732092D01*
X258747110Y-127739468D01*
X258797117Y-127761733D01*
X258847107Y-127779225D01*
X258873128Y-127795575D01*
X258899835Y-127807466D01*
X258949633Y-127843646D01*
X258998792Y-127874535D01*
X259016444Y-127892187D01*
X259035084Y-127905730D01*
X259081165Y-127956908D01*
X259125465Y-128001208D01*
X259135654Y-128017424D01*
X259146946Y-128029965D01*
X259185573Y-128096870D01*
X259220775Y-128152893D01*
X259225170Y-128165453D01*
X259230535Y-128174746D01*
X259258010Y-128259305D01*
X259279942Y-128321983D01*
X259280773Y-128329363D01*
X259282195Y-128333738D01*
X259295076Y-128456306D01*
X259300000Y-128500000D01*
X259295076Y-128543697D01*
X259282195Y-128666261D01*
X259280773Y-128670635D01*
X259279942Y-128678017D01*
X259258005Y-128740707D01*
X259230535Y-128825253D01*
X259225171Y-128834543D01*
X259220775Y-128847107D01*
X259185566Y-128903140D01*
X259146946Y-128970034D01*
X259135656Y-128982572D01*
X259125465Y-128998792D01*
X259081155Y-129043101D01*
X259035084Y-129094269D01*
X259016448Y-129107808D01*
X258998792Y-129125465D01*
X258949623Y-129156359D01*
X258899835Y-129192533D01*
X258873134Y-129204421D01*
X258847107Y-129220775D01*
X258797107Y-129238270D01*
X258747110Y-129260531D01*
X258712414Y-129267905D01*
X258678017Y-129279942D01*
X258630715Y-129285271D01*
X258583588Y-129295289D01*
X258541811Y-129295289D01*
X258500000Y-129300000D01*
X258458189Y-129295289D01*
X258416412Y-129295289D01*
X258369284Y-129285271D01*
X258321983Y-129279942D01*
X258287586Y-129267906D01*
X258252889Y-129260531D01*
X258202887Y-129238268D01*
X258152893Y-129220775D01*
X258126868Y-129204422D01*
X258100164Y-129192533D01*
X258050369Y-129156355D01*
X258001208Y-129125465D01*
X257983554Y-129107811D01*
X257964915Y-129094269D01*
X257918833Y-129043090D01*
X257874535Y-128998792D01*
X257864345Y-128982575D01*
X257853053Y-128970034D01*
X257814420Y-128903120D01*
X257779225Y-128847107D01*
X257774830Y-128834547D01*
X257769464Y-128825253D01*
X257741980Y-128740667D01*
X257720058Y-128678017D01*
X257719226Y-128670639D01*
X257717804Y-128666261D01*
X257704908Y-128543565D01*
X257700000Y-128500000D01*
X257704908Y-128456438D01*
X257717804Y-128333738D01*
X257719226Y-128329358D01*
X257720058Y-128321983D01*
X257741975Y-128259345D01*
X257769464Y-128174746D01*
X257774831Y-128165449D01*
X257779225Y-128152893D01*
X257814413Y-128096890D01*
X257853053Y-128029965D01*
X257864347Y-128017421D01*
X257874535Y-128001208D01*
X257918826Y-127956916D01*
X257964917Y-127905728D01*
X257983559Y-127892183D01*
X258001208Y-127874535D01*
X258050354Y-127843654D01*
X258100162Y-127807467D01*
X258126873Y-127795574D01*
X258152893Y-127779225D01*
X258202877Y-127761734D01*
X258252889Y-127739468D01*
X258287592Y-127732091D01*
X258321983Y-127720058D01*
X258369281Y-127714728D01*
X258416412Y-127704711D01*
X258458189Y-127704711D01*
X258500000Y-127700000D01*
X258541811Y-127704711D01*
G37*
G36*
X268701811Y-127704711D02*
G01*
X268743588Y-127704711D01*
X268790718Y-127714728D01*
X268838017Y-127720058D01*
X268872408Y-127732092D01*
X268907110Y-127739468D01*
X268957117Y-127761733D01*
X269007107Y-127779225D01*
X269033128Y-127795575D01*
X269059835Y-127807466D01*
X269109633Y-127843646D01*
X269158792Y-127874535D01*
X269176444Y-127892187D01*
X269195084Y-127905730D01*
X269241165Y-127956908D01*
X269285465Y-128001208D01*
X269295654Y-128017424D01*
X269306946Y-128029965D01*
X269345573Y-128096870D01*
X269380775Y-128152893D01*
X269385170Y-128165453D01*
X269390535Y-128174746D01*
X269418010Y-128259305D01*
X269439942Y-128321983D01*
X269440773Y-128329363D01*
X269442195Y-128333738D01*
X269455076Y-128456306D01*
X269460000Y-128500000D01*
X269455076Y-128543697D01*
X269442195Y-128666261D01*
X269440773Y-128670635D01*
X269439942Y-128678017D01*
X269418005Y-128740707D01*
X269390535Y-128825253D01*
X269385171Y-128834543D01*
X269380775Y-128847107D01*
X269345566Y-128903140D01*
X269306946Y-128970034D01*
X269295656Y-128982572D01*
X269285465Y-128998792D01*
X269241155Y-129043101D01*
X269195084Y-129094269D01*
X269176448Y-129107808D01*
X269158792Y-129125465D01*
X269109623Y-129156359D01*
X269059835Y-129192533D01*
X269033134Y-129204421D01*
X269007107Y-129220775D01*
X268957107Y-129238270D01*
X268907110Y-129260531D01*
X268872414Y-129267905D01*
X268838017Y-129279942D01*
X268790715Y-129285271D01*
X268743588Y-129295289D01*
X268701811Y-129295289D01*
X268660000Y-129300000D01*
X268618189Y-129295289D01*
X268576412Y-129295289D01*
X268529284Y-129285271D01*
X268481983Y-129279942D01*
X268447586Y-129267906D01*
X268412889Y-129260531D01*
X268362887Y-129238268D01*
X268312893Y-129220775D01*
X268286868Y-129204422D01*
X268260164Y-129192533D01*
X268210369Y-129156355D01*
X268161208Y-129125465D01*
X268143554Y-129107811D01*
X268124915Y-129094269D01*
X268078833Y-129043090D01*
X268034535Y-128998792D01*
X268024345Y-128982575D01*
X268013053Y-128970034D01*
X267974420Y-128903120D01*
X267939225Y-128847107D01*
X267934830Y-128834547D01*
X267929464Y-128825253D01*
X267901980Y-128740667D01*
X267880058Y-128678017D01*
X267879226Y-128670639D01*
X267877804Y-128666261D01*
X267864908Y-128543565D01*
X267860000Y-128500000D01*
X267864908Y-128456438D01*
X267877804Y-128333738D01*
X267879226Y-128329358D01*
X267880058Y-128321983D01*
X267901975Y-128259345D01*
X267929464Y-128174746D01*
X267934831Y-128165449D01*
X267939225Y-128152893D01*
X267974413Y-128096890D01*
X268013053Y-128029965D01*
X268024347Y-128017421D01*
X268034535Y-128001208D01*
X268078826Y-127956916D01*
X268124917Y-127905728D01*
X268143559Y-127892183D01*
X268161208Y-127874535D01*
X268210354Y-127843654D01*
X268260162Y-127807467D01*
X268286873Y-127795574D01*
X268312893Y-127779225D01*
X268362877Y-127761734D01*
X268412889Y-127739468D01*
X268447592Y-127732091D01*
X268481983Y-127720058D01*
X268529281Y-127714728D01*
X268576412Y-127704711D01*
X268618189Y-127704711D01*
X268660000Y-127700000D01*
X268701811Y-127704711D01*
G37*
G36*
X208350000Y-128350000D02*
G01*
X206650000Y-128350000D01*
X206650000Y-126650000D01*
X208350000Y-126650000D01*
X208350000Y-128350000D01*
G37*
G36*
X218000000Y-127500000D02*
G01*
X216000000Y-127500000D01*
X216000000Y-126300000D01*
X218000000Y-126300000D01*
X218000000Y-127500000D01*
G37*
G36*
X242804376Y-126300286D02*
G01*
X242857329Y-126302888D01*
X242863848Y-126304184D01*
X242878316Y-126305133D01*
X242906266Y-126312622D01*
X242974084Y-126326112D01*
X243006091Y-126339370D01*
X243029610Y-126345672D01*
X243050698Y-126357847D01*
X243082702Y-126371104D01*
X243140184Y-126409512D01*
X243165257Y-126423988D01*
X243172119Y-126430850D01*
X243180449Y-126436416D01*
X243263583Y-126519550D01*
X243269148Y-126527879D01*
X243276012Y-126534743D01*
X243290489Y-126559818D01*
X243328895Y-126617297D01*
X243342150Y-126649298D01*
X243354328Y-126670390D01*
X243360630Y-126693912D01*
X243373887Y-126725915D01*
X243387374Y-126793722D01*
X243394867Y-126821684D01*
X243394867Y-126831388D01*
X243396822Y-126841217D01*
X243396822Y-126958782D01*
X243394867Y-126968610D01*
X243394867Y-126978316D01*
X243387373Y-127006280D01*
X243373887Y-127074084D01*
X243360631Y-127106084D01*
X243354328Y-127129610D01*
X243342149Y-127150704D01*
X243328895Y-127182702D01*
X243290493Y-127240173D01*
X243276012Y-127265257D01*
X243269146Y-127272122D01*
X243263583Y-127280449D01*
X243180449Y-127363583D01*
X243172122Y-127369146D01*
X243165257Y-127376012D01*
X243140173Y-127390493D01*
X243082702Y-127428895D01*
X243050704Y-127442149D01*
X243029610Y-127454328D01*
X243006084Y-127460631D01*
X242974084Y-127473887D01*
X242906282Y-127487373D01*
X242878316Y-127494867D01*
X242868315Y-127494925D01*
X242858675Y-127496843D01*
X242001360Y-127499994D01*
X242001324Y-127499992D01*
X242000000Y-127500000D01*
X241995565Y-127499709D01*
X241942670Y-127497111D01*
X241936157Y-127495815D01*
X241921684Y-127494867D01*
X241893722Y-127487374D01*
X241825915Y-127473887D01*
X241793912Y-127460630D01*
X241770390Y-127454328D01*
X241749298Y-127442150D01*
X241717297Y-127428895D01*
X241659818Y-127390489D01*
X241634743Y-127376012D01*
X241627879Y-127369148D01*
X241619550Y-127363583D01*
X241536416Y-127280449D01*
X241530850Y-127272119D01*
X241523988Y-127265257D01*
X241509512Y-127240184D01*
X241471104Y-127182702D01*
X241457847Y-127150698D01*
X241445672Y-127129610D01*
X241439370Y-127106091D01*
X241426112Y-127074084D01*
X241412624Y-127006274D01*
X241405133Y-126978316D01*
X241405133Y-126968610D01*
X241403178Y-126958782D01*
X241403178Y-126841217D01*
X241405133Y-126831388D01*
X241405133Y-126821684D01*
X241412623Y-126793728D01*
X241426112Y-126725915D01*
X241439371Y-126693905D01*
X241445672Y-126670390D01*
X241457845Y-126649304D01*
X241471104Y-126617297D01*
X241509516Y-126559807D01*
X241523988Y-126534743D01*
X241530848Y-126527882D01*
X241536416Y-126519550D01*
X241619550Y-126436416D01*
X241627882Y-126430848D01*
X241634743Y-126423988D01*
X241659807Y-126409516D01*
X241717297Y-126371104D01*
X241749304Y-126357845D01*
X241770390Y-126345672D01*
X241793905Y-126339371D01*
X241825915Y-126326112D01*
X241893734Y-126312622D01*
X241921684Y-126305133D01*
X241931678Y-126305074D01*
X241941324Y-126303156D01*
X242798639Y-126300005D01*
X242798692Y-126300007D01*
X242800000Y-126300000D01*
X242804376Y-126300286D01*
G37*
G36*
X249350000Y-125850000D02*
G01*
X247650000Y-125850000D01*
X247650000Y-124150000D01*
X249350000Y-124150000D01*
X249350000Y-125850000D01*
G37*
G36*
X253841811Y-123604711D02*
G01*
X253883588Y-123604711D01*
X253930718Y-123614728D01*
X253978017Y-123620058D01*
X254012408Y-123632092D01*
X254047110Y-123639468D01*
X254097117Y-123661733D01*
X254147107Y-123679225D01*
X254173128Y-123695575D01*
X254199835Y-123707466D01*
X254249633Y-123743646D01*
X254298792Y-123774535D01*
X254316444Y-123792187D01*
X254335084Y-123805730D01*
X254381165Y-123856908D01*
X254425465Y-123901208D01*
X254435654Y-123917424D01*
X254446946Y-123929965D01*
X254485573Y-123996870D01*
X254520775Y-124052893D01*
X254525170Y-124065453D01*
X254530535Y-124074746D01*
X254558010Y-124159305D01*
X254579942Y-124221983D01*
X254580773Y-124229363D01*
X254582195Y-124233738D01*
X254595076Y-124356306D01*
X254600000Y-124400000D01*
X254595076Y-124443697D01*
X254582195Y-124566261D01*
X254580773Y-124570635D01*
X254579942Y-124578017D01*
X254558005Y-124640707D01*
X254530535Y-124725253D01*
X254525171Y-124734543D01*
X254520775Y-124747107D01*
X254485566Y-124803140D01*
X254446946Y-124870034D01*
X254435656Y-124882572D01*
X254425465Y-124898792D01*
X254381155Y-124943101D01*
X254335084Y-124994269D01*
X254316448Y-125007808D01*
X254298792Y-125025465D01*
X254249623Y-125056359D01*
X254199835Y-125092533D01*
X254173134Y-125104421D01*
X254147107Y-125120775D01*
X254097107Y-125138270D01*
X254047110Y-125160531D01*
X254012414Y-125167905D01*
X253978017Y-125179942D01*
X253930715Y-125185271D01*
X253883588Y-125195289D01*
X253841811Y-125195289D01*
X253800000Y-125200000D01*
X253758189Y-125195289D01*
X253716412Y-125195289D01*
X253669284Y-125185271D01*
X253621983Y-125179942D01*
X253587586Y-125167906D01*
X253552889Y-125160531D01*
X253502887Y-125138268D01*
X253452893Y-125120775D01*
X253426868Y-125104422D01*
X253400164Y-125092533D01*
X253350369Y-125056355D01*
X253301208Y-125025465D01*
X253283554Y-125007811D01*
X253264915Y-124994269D01*
X253218833Y-124943090D01*
X253174535Y-124898792D01*
X253164345Y-124882575D01*
X253153053Y-124870034D01*
X253114420Y-124803120D01*
X253079225Y-124747107D01*
X253074830Y-124734547D01*
X253069464Y-124725253D01*
X253041980Y-124640667D01*
X253020058Y-124578017D01*
X253019226Y-124570639D01*
X253017804Y-124566261D01*
X253004908Y-124443565D01*
X253000000Y-124400000D01*
X253004908Y-124356438D01*
X253017804Y-124233738D01*
X253019226Y-124229358D01*
X253020058Y-124221983D01*
X253041975Y-124159345D01*
X253069464Y-124074746D01*
X253074831Y-124065449D01*
X253079225Y-124052893D01*
X253114413Y-123996890D01*
X253153053Y-123929965D01*
X253164347Y-123917421D01*
X253174535Y-123901208D01*
X253218826Y-123856916D01*
X253264917Y-123805728D01*
X253283559Y-123792183D01*
X253301208Y-123774535D01*
X253350354Y-123743654D01*
X253400162Y-123707467D01*
X253426873Y-123695574D01*
X253452893Y-123679225D01*
X253502877Y-123661734D01*
X253552889Y-123639468D01*
X253587592Y-123632091D01*
X253621983Y-123620058D01*
X253669281Y-123614728D01*
X253716412Y-123604711D01*
X253758189Y-123604711D01*
X253800000Y-123600000D01*
X253841811Y-123604711D01*
G37*
G36*
X208350000Y-124350000D02*
G01*
X206650000Y-124350000D01*
X206650000Y-122650000D01*
X208350000Y-122650000D01*
X208350000Y-124350000D01*
G37*
G36*
X258509561Y-121257105D02*
G01*
X258670619Y-121313462D01*
X258815099Y-121404244D01*
X258935756Y-121524901D01*
X259026538Y-121669381D01*
X259082895Y-121830439D01*
X259102000Y-122000000D01*
X259082895Y-122169561D01*
X259026538Y-122330619D01*
X258935756Y-122475099D01*
X258815099Y-122595756D01*
X258670619Y-122686538D01*
X258509561Y-122742895D01*
X258340000Y-122762000D01*
X258170439Y-122742895D01*
X258009381Y-122686538D01*
X257864901Y-122595756D01*
X257744244Y-122475099D01*
X257653462Y-122330619D01*
X257597105Y-122169561D01*
X257578000Y-122000000D01*
X257597105Y-121830439D01*
X257653462Y-121669381D01*
X257744244Y-121524901D01*
X257864901Y-121404244D01*
X258009381Y-121313462D01*
X258170439Y-121257105D01*
X258340000Y-121238000D01*
X258509561Y-121257105D01*
G37*
G36*
X268669561Y-121257105D02*
G01*
X268830619Y-121313462D01*
X268975099Y-121404244D01*
X269095756Y-121524901D01*
X269186538Y-121669381D01*
X269242895Y-121830439D01*
X269262000Y-122000000D01*
X269242895Y-122169561D01*
X269186538Y-122330619D01*
X269095756Y-122475099D01*
X268975099Y-122595756D01*
X268830619Y-122686538D01*
X268669561Y-122742895D01*
X268500000Y-122762000D01*
X268330439Y-122742895D01*
X268169381Y-122686538D01*
X268024901Y-122595756D01*
X267904244Y-122475099D01*
X267813462Y-122330619D01*
X267757105Y-122169561D01*
X267738000Y-122000000D01*
X267757105Y-121830439D01*
X267813462Y-121669381D01*
X267904244Y-121524901D01*
X268024901Y-121404244D01*
X268169381Y-121313462D01*
X268330439Y-121257105D01*
X268500000Y-121238000D01*
X268669561Y-121257105D01*
G37*
G36*
X213350000Y-122350000D02*
G01*
X211650000Y-122350000D01*
X211650000Y-120650000D01*
X213350000Y-120650000D01*
X213350000Y-122350000D01*
G37*
G36*
X218350000Y-122350000D02*
G01*
X216650000Y-122350000D01*
X216650000Y-120650000D01*
X218350000Y-120650000D01*
X218350000Y-122350000D01*
G37*
G36*
X259102000Y-120222000D02*
G01*
X257578000Y-120222000D01*
X257578000Y-118698000D01*
X259102000Y-118698000D01*
X259102000Y-120222000D01*
G37*
G36*
X268669561Y-118717105D02*
G01*
X268830619Y-118773462D01*
X268975099Y-118864244D01*
X269095756Y-118984901D01*
X269186538Y-119129381D01*
X269242895Y-119290439D01*
X269262000Y-119460000D01*
X269242895Y-119629561D01*
X269186538Y-119790619D01*
X269095756Y-119935099D01*
X268975099Y-120055756D01*
X268830619Y-120146538D01*
X268669561Y-120202895D01*
X268500000Y-120222000D01*
X268330439Y-120202895D01*
X268169381Y-120146538D01*
X268024901Y-120055756D01*
X267904244Y-119935099D01*
X267813462Y-119790619D01*
X267757105Y-119629561D01*
X267738000Y-119460000D01*
X267757105Y-119290439D01*
X267813462Y-119129381D01*
X267904244Y-118984901D01*
X268024901Y-118864244D01*
X268169381Y-118773462D01*
X268330439Y-118717105D01*
X268500000Y-118698000D01*
X268669561Y-118717105D01*
G37*
G36*
X207961811Y-114644711D02*
G01*
X208003588Y-114644711D01*
X208050718Y-114654728D01*
X208098017Y-114660058D01*
X208132408Y-114672092D01*
X208167110Y-114679468D01*
X208217117Y-114701733D01*
X208267107Y-114719225D01*
X208293128Y-114735575D01*
X208319835Y-114747466D01*
X208369633Y-114783646D01*
X208418792Y-114814535D01*
X208436444Y-114832187D01*
X208455084Y-114845730D01*
X208501165Y-114896908D01*
X208545465Y-114941208D01*
X208555654Y-114957424D01*
X208566946Y-114969965D01*
X208605573Y-115036870D01*
X208640775Y-115092893D01*
X208645170Y-115105453D01*
X208650535Y-115114746D01*
X208678010Y-115199305D01*
X208699942Y-115261983D01*
X208700773Y-115269363D01*
X208702195Y-115273738D01*
X208715076Y-115396306D01*
X208720000Y-115440000D01*
X208715076Y-115483697D01*
X208702195Y-115606261D01*
X208700773Y-115610635D01*
X208699942Y-115618017D01*
X208678005Y-115680707D01*
X208650535Y-115765253D01*
X208645171Y-115774543D01*
X208640775Y-115787107D01*
X208605566Y-115843140D01*
X208566946Y-115910034D01*
X208555656Y-115922572D01*
X208545465Y-115938792D01*
X208501155Y-115983101D01*
X208455084Y-116034269D01*
X208436448Y-116047808D01*
X208418792Y-116065465D01*
X208369623Y-116096359D01*
X208319835Y-116132533D01*
X208293134Y-116144421D01*
X208267107Y-116160775D01*
X208217107Y-116178270D01*
X208167110Y-116200531D01*
X208132414Y-116207905D01*
X208098017Y-116219942D01*
X208050715Y-116225271D01*
X208003588Y-116235289D01*
X207961811Y-116235289D01*
X207920000Y-116240000D01*
X207878189Y-116235289D01*
X207836412Y-116235289D01*
X207789284Y-116225271D01*
X207741983Y-116219942D01*
X207707586Y-116207906D01*
X207672889Y-116200531D01*
X207622887Y-116178268D01*
X207572893Y-116160775D01*
X207546868Y-116144422D01*
X207520164Y-116132533D01*
X207470369Y-116096355D01*
X207421208Y-116065465D01*
X207403554Y-116047811D01*
X207384915Y-116034269D01*
X207338833Y-115983090D01*
X207294535Y-115938792D01*
X207284345Y-115922575D01*
X207273053Y-115910034D01*
X207234420Y-115843120D01*
X207199225Y-115787107D01*
X207194830Y-115774547D01*
X207189464Y-115765253D01*
X207161980Y-115680667D01*
X207140058Y-115618017D01*
X207139226Y-115610639D01*
X207137804Y-115606261D01*
X207124908Y-115483565D01*
X207120000Y-115440000D01*
X207124908Y-115396438D01*
X207137804Y-115273738D01*
X207139226Y-115269358D01*
X207140058Y-115261983D01*
X207161975Y-115199345D01*
X207189464Y-115114746D01*
X207194831Y-115105449D01*
X207199225Y-115092893D01*
X207234413Y-115036890D01*
X207273053Y-114969965D01*
X207284347Y-114957421D01*
X207294535Y-114941208D01*
X207338826Y-114896916D01*
X207384917Y-114845728D01*
X207403559Y-114832183D01*
X207421208Y-114814535D01*
X207470354Y-114783654D01*
X207520162Y-114747467D01*
X207546873Y-114735574D01*
X207572893Y-114719225D01*
X207622877Y-114701734D01*
X207672889Y-114679468D01*
X207707592Y-114672091D01*
X207741983Y-114660058D01*
X207789281Y-114654728D01*
X207836412Y-114644711D01*
X207878189Y-114644711D01*
X207920000Y-114640000D01*
X207961811Y-114644711D01*
G37*
G36*
X218121811Y-114644711D02*
G01*
X218163588Y-114644711D01*
X218210718Y-114654728D01*
X218258017Y-114660058D01*
X218292408Y-114672092D01*
X218327110Y-114679468D01*
X218377117Y-114701733D01*
X218427107Y-114719225D01*
X218453128Y-114735575D01*
X218479835Y-114747466D01*
X218529633Y-114783646D01*
X218578792Y-114814535D01*
X218596444Y-114832187D01*
X218615084Y-114845730D01*
X218661165Y-114896908D01*
X218705465Y-114941208D01*
X218715654Y-114957424D01*
X218726946Y-114969965D01*
X218765573Y-115036870D01*
X218800775Y-115092893D01*
X218805170Y-115105453D01*
X218810535Y-115114746D01*
X218838010Y-115199305D01*
X218859942Y-115261983D01*
X218860773Y-115269363D01*
X218862195Y-115273738D01*
X218875076Y-115396306D01*
X218880000Y-115440000D01*
X218875076Y-115483697D01*
X218862195Y-115606261D01*
X218860773Y-115610635D01*
X218859942Y-115618017D01*
X218838005Y-115680707D01*
X218810535Y-115765253D01*
X218805171Y-115774543D01*
X218800775Y-115787107D01*
X218765566Y-115843140D01*
X218726946Y-115910034D01*
X218715656Y-115922572D01*
X218705465Y-115938792D01*
X218661155Y-115983101D01*
X218615084Y-116034269D01*
X218596448Y-116047808D01*
X218578792Y-116065465D01*
X218529623Y-116096359D01*
X218479835Y-116132533D01*
X218453134Y-116144421D01*
X218427107Y-116160775D01*
X218377107Y-116178270D01*
X218327110Y-116200531D01*
X218292414Y-116207905D01*
X218258017Y-116219942D01*
X218210715Y-116225271D01*
X218163588Y-116235289D01*
X218121811Y-116235289D01*
X218080000Y-116240000D01*
X218038189Y-116235289D01*
X217996412Y-116235289D01*
X217949284Y-116225271D01*
X217901983Y-116219942D01*
X217867586Y-116207906D01*
X217832889Y-116200531D01*
X217782887Y-116178268D01*
X217732893Y-116160775D01*
X217706868Y-116144422D01*
X217680164Y-116132533D01*
X217630369Y-116096355D01*
X217581208Y-116065465D01*
X217563554Y-116047811D01*
X217544915Y-116034269D01*
X217498833Y-115983090D01*
X217454535Y-115938792D01*
X217444345Y-115922575D01*
X217433053Y-115910034D01*
X217394420Y-115843120D01*
X217359225Y-115787107D01*
X217354830Y-115774547D01*
X217349464Y-115765253D01*
X217321980Y-115680667D01*
X217300058Y-115618017D01*
X217299226Y-115610639D01*
X217297804Y-115606261D01*
X217284908Y-115483565D01*
X217280000Y-115440000D01*
X217284908Y-115396438D01*
X217297804Y-115273738D01*
X217299226Y-115269358D01*
X217300058Y-115261983D01*
X217321975Y-115199345D01*
X217349464Y-115114746D01*
X217354831Y-115105449D01*
X217359225Y-115092893D01*
X217394413Y-115036890D01*
X217433053Y-114969965D01*
X217444347Y-114957421D01*
X217454535Y-114941208D01*
X217498826Y-114896916D01*
X217544917Y-114845728D01*
X217563559Y-114832183D01*
X217581208Y-114814535D01*
X217630354Y-114783654D01*
X217680162Y-114747467D01*
X217706873Y-114735574D01*
X217732893Y-114719225D01*
X217782877Y-114701734D01*
X217832889Y-114679468D01*
X217867592Y-114672091D01*
X217901983Y-114660058D01*
X217949281Y-114654728D01*
X217996412Y-114644711D01*
X218038189Y-114644711D01*
X218080000Y-114640000D01*
X218121811Y-114644711D01*
G37*
G36*
X257919561Y-113637105D02*
G01*
X258080619Y-113693462D01*
X258225099Y-113784244D01*
X258345756Y-113904901D01*
X258436538Y-114049381D01*
X258492895Y-114210439D01*
X258512000Y-114380000D01*
X258492895Y-114549561D01*
X258436538Y-114710619D01*
X258345756Y-114855099D01*
X258225099Y-114975756D01*
X258080619Y-115066538D01*
X257919561Y-115122895D01*
X257750000Y-115142000D01*
X257580439Y-115122895D01*
X257419381Y-115066538D01*
X257274901Y-114975756D01*
X257154244Y-114855099D01*
X257063462Y-114710619D01*
X257007105Y-114549561D01*
X256988000Y-114380000D01*
X257007105Y-114210439D01*
X257063462Y-114049381D01*
X257154244Y-113904901D01*
X257274901Y-113784244D01*
X257419381Y-113693462D01*
X257580439Y-113637105D01*
X257750000Y-113618000D01*
X257919561Y-113637105D01*
G37*
G36*
X268672000Y-115142000D02*
G01*
X267148000Y-115142000D01*
X267148000Y-113618000D01*
X268672000Y-113618000D01*
X268672000Y-115142000D01*
G37*
G36*
X253841811Y-113444711D02*
G01*
X253883588Y-113444711D01*
X253930718Y-113454728D01*
X253978017Y-113460058D01*
X254012408Y-113472092D01*
X254047110Y-113479468D01*
X254097117Y-113501733D01*
X254147107Y-113519225D01*
X254173128Y-113535575D01*
X254199835Y-113547466D01*
X254249633Y-113583646D01*
X254298792Y-113614535D01*
X254316444Y-113632187D01*
X254335084Y-113645730D01*
X254381165Y-113696908D01*
X254425465Y-113741208D01*
X254435654Y-113757424D01*
X254446946Y-113769965D01*
X254485573Y-113836870D01*
X254520775Y-113892893D01*
X254525170Y-113905453D01*
X254530535Y-113914746D01*
X254558010Y-113999305D01*
X254579942Y-114061983D01*
X254580773Y-114069363D01*
X254582195Y-114073738D01*
X254595076Y-114196306D01*
X254600000Y-114240000D01*
X254595076Y-114283697D01*
X254582195Y-114406261D01*
X254580773Y-114410635D01*
X254579942Y-114418017D01*
X254558005Y-114480707D01*
X254530535Y-114565253D01*
X254525171Y-114574543D01*
X254520775Y-114587107D01*
X254485566Y-114643140D01*
X254446946Y-114710034D01*
X254435656Y-114722572D01*
X254425465Y-114738792D01*
X254381155Y-114783101D01*
X254335084Y-114834269D01*
X254316448Y-114847808D01*
X254298792Y-114865465D01*
X254249623Y-114896359D01*
X254199835Y-114932533D01*
X254173134Y-114944421D01*
X254147107Y-114960775D01*
X254097107Y-114978270D01*
X254047110Y-115000531D01*
X254012414Y-115007905D01*
X253978017Y-115019942D01*
X253930715Y-115025271D01*
X253883588Y-115035289D01*
X253841811Y-115035289D01*
X253800000Y-115040000D01*
X253758189Y-115035289D01*
X253716412Y-115035289D01*
X253669284Y-115025271D01*
X253621983Y-115019942D01*
X253587586Y-115007906D01*
X253552889Y-115000531D01*
X253502887Y-114978268D01*
X253452893Y-114960775D01*
X253426868Y-114944422D01*
X253400164Y-114932533D01*
X253350369Y-114896355D01*
X253301208Y-114865465D01*
X253283554Y-114847811D01*
X253264915Y-114834269D01*
X253218833Y-114783090D01*
X253174535Y-114738792D01*
X253164345Y-114722575D01*
X253153053Y-114710034D01*
X253114420Y-114643120D01*
X253079225Y-114587107D01*
X253074830Y-114574547D01*
X253069464Y-114565253D01*
X253041980Y-114480667D01*
X253020058Y-114418017D01*
X253019226Y-114410639D01*
X253017804Y-114406261D01*
X253004908Y-114283565D01*
X253000000Y-114240000D01*
X253004908Y-114196438D01*
X253017804Y-114073738D01*
X253019226Y-114069358D01*
X253020058Y-114061983D01*
X253041975Y-113999345D01*
X253069464Y-113914746D01*
X253074831Y-113905449D01*
X253079225Y-113892893D01*
X253114413Y-113836890D01*
X253153053Y-113769965D01*
X253164347Y-113757421D01*
X253174535Y-113741208D01*
X253218826Y-113696916D01*
X253264917Y-113645728D01*
X253283559Y-113632183D01*
X253301208Y-113614535D01*
X253350354Y-113583654D01*
X253400162Y-113547467D01*
X253426873Y-113535574D01*
X253452893Y-113519225D01*
X253502877Y-113501734D01*
X253552889Y-113479468D01*
X253587592Y-113472091D01*
X253621983Y-113460058D01*
X253669281Y-113454728D01*
X253716412Y-113444711D01*
X253758189Y-113444711D01*
X253800000Y-113440000D01*
X253841811Y-113444711D01*
G37*
G36*
X200441811Y-111784711D02*
G01*
X200483588Y-111784711D01*
X200530718Y-111794728D01*
X200578017Y-111800058D01*
X200612408Y-111812092D01*
X200647110Y-111819468D01*
X200697117Y-111841733D01*
X200747107Y-111859225D01*
X200773128Y-111875575D01*
X200799835Y-111887466D01*
X200849633Y-111923646D01*
X200898792Y-111954535D01*
X200916444Y-111972187D01*
X200935084Y-111985730D01*
X200981165Y-112036908D01*
X201025465Y-112081208D01*
X201035654Y-112097424D01*
X201046946Y-112109965D01*
X201085573Y-112176870D01*
X201120775Y-112232893D01*
X201125170Y-112245453D01*
X201130535Y-112254746D01*
X201158010Y-112339305D01*
X201179942Y-112401983D01*
X201180773Y-112409363D01*
X201182195Y-112413738D01*
X201195076Y-112536306D01*
X201200000Y-112580000D01*
X201195076Y-112623697D01*
X201182195Y-112746261D01*
X201180773Y-112750635D01*
X201179942Y-112758017D01*
X201158005Y-112820707D01*
X201130535Y-112905253D01*
X201125171Y-112914543D01*
X201120775Y-112927107D01*
X201085566Y-112983140D01*
X201046946Y-113050034D01*
X201035656Y-113062572D01*
X201025465Y-113078792D01*
X200981155Y-113123101D01*
X200935084Y-113174269D01*
X200916448Y-113187808D01*
X200898792Y-113205465D01*
X200849623Y-113236359D01*
X200799835Y-113272533D01*
X200773134Y-113284421D01*
X200747107Y-113300775D01*
X200697107Y-113318270D01*
X200647110Y-113340531D01*
X200612414Y-113347905D01*
X200578017Y-113359942D01*
X200530715Y-113365271D01*
X200483588Y-113375289D01*
X200441811Y-113375289D01*
X200400000Y-113380000D01*
X200358189Y-113375289D01*
X200316412Y-113375289D01*
X200269284Y-113365271D01*
X200221983Y-113359942D01*
X200187586Y-113347906D01*
X200152889Y-113340531D01*
X200102887Y-113318268D01*
X200052893Y-113300775D01*
X200026868Y-113284422D01*
X200000164Y-113272533D01*
X199950369Y-113236355D01*
X199901208Y-113205465D01*
X199883554Y-113187811D01*
X199864915Y-113174269D01*
X199818833Y-113123090D01*
X199774535Y-113078792D01*
X199764345Y-113062575D01*
X199753053Y-113050034D01*
X199714420Y-112983120D01*
X199679225Y-112927107D01*
X199674830Y-112914547D01*
X199669464Y-112905253D01*
X199641980Y-112820667D01*
X199620058Y-112758017D01*
X199619226Y-112750639D01*
X199617804Y-112746261D01*
X199604908Y-112623565D01*
X199600000Y-112580000D01*
X199604908Y-112536438D01*
X199617804Y-112413738D01*
X199619226Y-112409358D01*
X199620058Y-112401983D01*
X199641975Y-112339345D01*
X199669464Y-112254746D01*
X199674831Y-112245449D01*
X199679225Y-112232893D01*
X199714413Y-112176890D01*
X199753053Y-112109965D01*
X199764347Y-112097421D01*
X199774535Y-112081208D01*
X199818826Y-112036916D01*
X199864917Y-111985728D01*
X199883559Y-111972183D01*
X199901208Y-111954535D01*
X199950354Y-111923654D01*
X200000162Y-111887467D01*
X200026873Y-111875574D01*
X200052893Y-111859225D01*
X200102877Y-111841734D01*
X200152889Y-111819468D01*
X200187592Y-111812091D01*
X200221983Y-111800058D01*
X200269281Y-111794728D01*
X200316412Y-111784711D01*
X200358189Y-111784711D01*
X200400000Y-111780000D01*
X200441811Y-111784711D01*
G37*
G36*
X204841811Y-111684711D02*
G01*
X204883588Y-111684711D01*
X204930718Y-111694728D01*
X204978017Y-111700058D01*
X205012408Y-111712092D01*
X205047110Y-111719468D01*
X205097117Y-111741733D01*
X205147107Y-111759225D01*
X205173128Y-111775575D01*
X205199835Y-111787466D01*
X205249633Y-111823646D01*
X205298792Y-111854535D01*
X205316444Y-111872187D01*
X205335084Y-111885730D01*
X205381165Y-111936908D01*
X205425465Y-111981208D01*
X205435654Y-111997424D01*
X205446946Y-112009965D01*
X205485573Y-112076870D01*
X205520775Y-112132893D01*
X205525170Y-112145453D01*
X205530535Y-112154746D01*
X205558010Y-112239305D01*
X205579942Y-112301983D01*
X205580773Y-112309363D01*
X205582195Y-112313738D01*
X205595076Y-112436306D01*
X205600000Y-112480000D01*
X205595076Y-112523697D01*
X205582195Y-112646261D01*
X205580773Y-112650635D01*
X205579942Y-112658017D01*
X205558005Y-112720707D01*
X205530535Y-112805253D01*
X205525171Y-112814543D01*
X205520775Y-112827107D01*
X205485566Y-112883140D01*
X205446946Y-112950034D01*
X205435656Y-112962572D01*
X205425465Y-112978792D01*
X205381155Y-113023101D01*
X205335084Y-113074269D01*
X205316448Y-113087808D01*
X205298792Y-113105465D01*
X205249623Y-113136359D01*
X205199835Y-113172533D01*
X205173134Y-113184421D01*
X205147107Y-113200775D01*
X205097107Y-113218270D01*
X205047110Y-113240531D01*
X205012414Y-113247905D01*
X204978017Y-113259942D01*
X204930715Y-113265271D01*
X204883588Y-113275289D01*
X204841811Y-113275289D01*
X204800000Y-113280000D01*
X204758189Y-113275289D01*
X204716412Y-113275289D01*
X204669284Y-113265271D01*
X204621983Y-113259942D01*
X204587586Y-113247906D01*
X204552889Y-113240531D01*
X204502887Y-113218268D01*
X204452893Y-113200775D01*
X204426868Y-113184422D01*
X204400164Y-113172533D01*
X204350369Y-113136355D01*
X204301208Y-113105465D01*
X204283554Y-113087811D01*
X204264915Y-113074269D01*
X204218833Y-113023090D01*
X204174535Y-112978792D01*
X204164345Y-112962575D01*
X204153053Y-112950034D01*
X204114420Y-112883120D01*
X204079225Y-112827107D01*
X204074830Y-112814547D01*
X204069464Y-112805253D01*
X204041980Y-112720667D01*
X204020058Y-112658017D01*
X204019226Y-112650639D01*
X204017804Y-112646261D01*
X204004908Y-112523565D01*
X204000000Y-112480000D01*
X204004908Y-112436438D01*
X204017804Y-112313738D01*
X204019226Y-112309358D01*
X204020058Y-112301983D01*
X204041975Y-112239345D01*
X204069464Y-112154746D01*
X204074831Y-112145449D01*
X204079225Y-112132893D01*
X204114413Y-112076890D01*
X204153053Y-112009965D01*
X204164347Y-111997421D01*
X204174535Y-111981208D01*
X204218826Y-111936916D01*
X204264917Y-111885728D01*
X204283559Y-111872183D01*
X204301208Y-111854535D01*
X204350354Y-111823654D01*
X204400162Y-111787467D01*
X204426873Y-111775574D01*
X204452893Y-111759225D01*
X204502877Y-111741734D01*
X204552889Y-111719468D01*
X204587592Y-111712091D01*
X204621983Y-111700058D01*
X204669281Y-111694728D01*
X204716412Y-111684711D01*
X204758189Y-111684711D01*
X204800000Y-111680000D01*
X204841811Y-111684711D01*
G37*
G36*
X240404850Y-110825964D02*
G01*
X240455040Y-110831787D01*
X240472189Y-110839359D01*
X240495671Y-110844030D01*
X240520810Y-110860827D01*
X240540696Y-110869608D01*
X240554277Y-110883189D01*
X240576777Y-110898223D01*
X240591810Y-110920722D01*
X240605391Y-110934303D01*
X240614170Y-110954186D01*
X240630970Y-110979329D01*
X240635641Y-111002812D01*
X240643212Y-111019959D01*
X240649033Y-111070139D01*
X240650000Y-111075000D01*
X240650000Y-112525000D01*
X240649032Y-112529863D01*
X240643212Y-112580040D01*
X240635641Y-112597185D01*
X240630970Y-112620671D01*
X240614169Y-112645815D01*
X240605391Y-112665696D01*
X240591812Y-112679274D01*
X240576777Y-112701777D01*
X240554274Y-112716812D01*
X240540696Y-112730391D01*
X240520815Y-112739169D01*
X240495671Y-112755970D01*
X240472185Y-112760641D01*
X240455040Y-112768212D01*
X240404861Y-112774032D01*
X240400000Y-112775000D01*
X239200000Y-112775000D01*
X239195138Y-112774032D01*
X239144959Y-112768212D01*
X239127812Y-112760641D01*
X239104329Y-112755970D01*
X239079186Y-112739170D01*
X239059303Y-112730391D01*
X239045722Y-112716810D01*
X239023223Y-112701777D01*
X239008189Y-112679277D01*
X238994608Y-112665696D01*
X238985827Y-112645810D01*
X238969030Y-112620671D01*
X238964359Y-112597189D01*
X238956787Y-112580040D01*
X238950964Y-112529849D01*
X238950000Y-112525000D01*
X238950000Y-111075000D01*
X238950964Y-111070150D01*
X238956787Y-111019959D01*
X238964359Y-111002808D01*
X238969030Y-110979329D01*
X238985826Y-110954191D01*
X238994608Y-110934303D01*
X239008191Y-110920719D01*
X239023223Y-110898223D01*
X239045719Y-110883191D01*
X239059303Y-110869608D01*
X239079191Y-110860826D01*
X239104329Y-110844030D01*
X239127808Y-110839359D01*
X239144959Y-110831787D01*
X239195151Y-110825964D01*
X239200000Y-110825000D01*
X240400000Y-110825000D01*
X240404850Y-110825964D01*
G37*
G36*
X242546742Y-110861601D02*
G01*
X242700687Y-110925367D01*
X242839234Y-111017941D01*
X242957059Y-111135766D01*
X243049633Y-111274313D01*
X243113399Y-111428258D01*
X243145907Y-111591685D01*
X243150000Y-111925000D01*
X243145907Y-112008315D01*
X243113399Y-112171742D01*
X243049633Y-112325687D01*
X242957059Y-112464234D01*
X242839234Y-112582059D01*
X242700687Y-112674633D01*
X242546742Y-112738399D01*
X242383315Y-112770907D01*
X242216685Y-112770907D01*
X242053258Y-112738399D01*
X241899313Y-112674633D01*
X241760766Y-112582059D01*
X241642941Y-112464234D01*
X241550367Y-112325687D01*
X241486601Y-112171742D01*
X241454093Y-112008315D01*
X241450000Y-111675000D01*
X241454093Y-111591685D01*
X241486601Y-111428258D01*
X241550367Y-111274313D01*
X241642941Y-111135766D01*
X241760766Y-111017941D01*
X241899313Y-110925367D01*
X242053258Y-110861601D01*
X242216685Y-110829093D01*
X242383315Y-110829093D01*
X242546742Y-110861601D01*
G37*
G36*
X245046742Y-110861601D02*
G01*
X245200687Y-110925367D01*
X245339234Y-111017941D01*
X245457059Y-111135766D01*
X245549633Y-111274313D01*
X245613399Y-111428258D01*
X245645907Y-111591685D01*
X245650000Y-111925000D01*
X245645907Y-112008315D01*
X245613399Y-112171742D01*
X245549633Y-112325687D01*
X245457059Y-112464234D01*
X245339234Y-112582059D01*
X245200687Y-112674633D01*
X245046742Y-112738399D01*
X244883315Y-112770907D01*
X244716685Y-112770907D01*
X244553258Y-112738399D01*
X244399313Y-112674633D01*
X244260766Y-112582059D01*
X244142941Y-112464234D01*
X244050367Y-112325687D01*
X243986601Y-112171742D01*
X243954093Y-112008315D01*
X243950000Y-111675000D01*
X243954093Y-111591685D01*
X243986601Y-111428258D01*
X244050367Y-111274313D01*
X244142941Y-111135766D01*
X244260766Y-111017941D01*
X244399313Y-110925367D01*
X244553258Y-110861601D01*
X244716685Y-110829093D01*
X244883315Y-110829093D01*
X245046742Y-110861601D01*
G37*
G36*
X247546742Y-110861601D02*
G01*
X247700687Y-110925367D01*
X247839234Y-111017941D01*
X247957059Y-111135766D01*
X248049633Y-111274313D01*
X248113399Y-111428258D01*
X248145907Y-111591685D01*
X248150000Y-111925000D01*
X248145907Y-112008315D01*
X248113399Y-112171742D01*
X248049633Y-112325687D01*
X247957059Y-112464234D01*
X247839234Y-112582059D01*
X247700687Y-112674633D01*
X247546742Y-112738399D01*
X247383315Y-112770907D01*
X247216685Y-112770907D01*
X247053258Y-112738399D01*
X246899313Y-112674633D01*
X246760766Y-112582059D01*
X246642941Y-112464234D01*
X246550367Y-112325687D01*
X246486601Y-112171742D01*
X246454093Y-112008315D01*
X246450000Y-111675000D01*
X246454093Y-111591685D01*
X246486601Y-111428258D01*
X246550367Y-111274313D01*
X246642941Y-111135766D01*
X246760766Y-111017941D01*
X246899313Y-110925367D01*
X247053258Y-110861601D01*
X247216685Y-110829093D01*
X247383315Y-110829093D01*
X247546742Y-110861601D01*
G37*
G36*
X257919561Y-111097105D02*
G01*
X258080619Y-111153462D01*
X258225099Y-111244244D01*
X258345756Y-111364901D01*
X258436538Y-111509381D01*
X258492895Y-111670439D01*
X258512000Y-111840000D01*
X258492895Y-112009561D01*
X258436538Y-112170619D01*
X258345756Y-112315099D01*
X258225099Y-112435756D01*
X258080619Y-112526538D01*
X257919561Y-112582895D01*
X257750000Y-112602000D01*
X257580439Y-112582895D01*
X257419381Y-112526538D01*
X257274901Y-112435756D01*
X257154244Y-112315099D01*
X257063462Y-112170619D01*
X257007105Y-112009561D01*
X256988000Y-111840000D01*
X257007105Y-111670439D01*
X257063462Y-111509381D01*
X257154244Y-111364901D01*
X257274901Y-111244244D01*
X257419381Y-111153462D01*
X257580439Y-111097105D01*
X257750000Y-111078000D01*
X257919561Y-111097105D01*
G37*
G36*
X268079561Y-111097105D02*
G01*
X268240619Y-111153462D01*
X268385099Y-111244244D01*
X268505756Y-111364901D01*
X268596538Y-111509381D01*
X268652895Y-111670439D01*
X268672000Y-111840000D01*
X268652895Y-112009561D01*
X268596538Y-112170619D01*
X268505756Y-112315099D01*
X268385099Y-112435756D01*
X268240619Y-112526538D01*
X268079561Y-112582895D01*
X267910000Y-112602000D01*
X267740439Y-112582895D01*
X267579381Y-112526538D01*
X267434901Y-112435756D01*
X267314244Y-112315099D01*
X267223462Y-112170619D01*
X267167105Y-112009561D01*
X267148000Y-111840000D01*
X267167105Y-111670439D01*
X267223462Y-111509381D01*
X267314244Y-111364901D01*
X267434901Y-111244244D01*
X267579381Y-111153462D01*
X267740439Y-111097105D01*
X267910000Y-111078000D01*
X268079561Y-111097105D01*
G37*
G36*
X207961811Y-110644711D02*
G01*
X208003588Y-110644711D01*
X208050718Y-110654728D01*
X208098017Y-110660058D01*
X208132408Y-110672092D01*
X208167110Y-110679468D01*
X208217117Y-110701733D01*
X208267107Y-110719225D01*
X208293128Y-110735575D01*
X208319835Y-110747466D01*
X208369633Y-110783646D01*
X208418792Y-110814535D01*
X208436444Y-110832187D01*
X208455084Y-110845730D01*
X208501165Y-110896908D01*
X208545465Y-110941208D01*
X208555654Y-110957424D01*
X208566946Y-110969965D01*
X208605573Y-111036870D01*
X208640775Y-111092893D01*
X208645170Y-111105453D01*
X208650535Y-111114746D01*
X208678010Y-111199305D01*
X208699942Y-111261983D01*
X208700773Y-111269363D01*
X208702195Y-111273738D01*
X208715076Y-111396306D01*
X208720000Y-111440000D01*
X208715076Y-111483697D01*
X208702195Y-111606261D01*
X208700773Y-111610635D01*
X208699942Y-111618017D01*
X208678005Y-111680707D01*
X208650535Y-111765253D01*
X208645171Y-111774543D01*
X208640775Y-111787107D01*
X208605566Y-111843140D01*
X208566946Y-111910034D01*
X208555656Y-111922572D01*
X208545465Y-111938792D01*
X208501155Y-111983101D01*
X208455084Y-112034269D01*
X208436448Y-112047808D01*
X208418792Y-112065465D01*
X208369623Y-112096359D01*
X208319835Y-112132533D01*
X208293134Y-112144421D01*
X208267107Y-112160775D01*
X208217107Y-112178270D01*
X208167110Y-112200531D01*
X208132414Y-112207905D01*
X208098017Y-112219942D01*
X208050715Y-112225271D01*
X208003588Y-112235289D01*
X207961811Y-112235289D01*
X207920000Y-112240000D01*
X207878189Y-112235289D01*
X207836412Y-112235289D01*
X207789284Y-112225271D01*
X207741983Y-112219942D01*
X207707586Y-112207906D01*
X207672889Y-112200531D01*
X207622887Y-112178268D01*
X207572893Y-112160775D01*
X207546868Y-112144422D01*
X207520164Y-112132533D01*
X207470369Y-112096355D01*
X207421208Y-112065465D01*
X207403554Y-112047811D01*
X207384915Y-112034269D01*
X207338833Y-111983090D01*
X207294535Y-111938792D01*
X207284345Y-111922575D01*
X207273053Y-111910034D01*
X207234420Y-111843120D01*
X207199225Y-111787107D01*
X207194830Y-111774547D01*
X207189464Y-111765253D01*
X207161980Y-111680667D01*
X207140058Y-111618017D01*
X207139226Y-111610639D01*
X207137804Y-111606261D01*
X207124908Y-111483565D01*
X207120000Y-111440000D01*
X207124908Y-111396438D01*
X207137804Y-111273738D01*
X207139226Y-111269358D01*
X207140058Y-111261983D01*
X207161975Y-111199345D01*
X207189464Y-111114746D01*
X207194831Y-111105449D01*
X207199225Y-111092893D01*
X207234413Y-111036890D01*
X207273053Y-110969965D01*
X207284347Y-110957421D01*
X207294535Y-110941208D01*
X207338826Y-110896916D01*
X207384917Y-110845728D01*
X207403559Y-110832183D01*
X207421208Y-110814535D01*
X207470354Y-110783654D01*
X207520162Y-110747467D01*
X207546873Y-110735574D01*
X207572893Y-110719225D01*
X207622877Y-110701734D01*
X207672889Y-110679468D01*
X207707592Y-110672091D01*
X207741983Y-110660058D01*
X207789281Y-110654728D01*
X207836412Y-110644711D01*
X207878189Y-110644711D01*
X207920000Y-110640000D01*
X207961811Y-110644711D01*
G37*
G36*
X218121811Y-110644711D02*
G01*
X218163588Y-110644711D01*
X218210718Y-110654728D01*
X218258017Y-110660058D01*
X218292408Y-110672092D01*
X218327110Y-110679468D01*
X218377117Y-110701733D01*
X218427107Y-110719225D01*
X218453128Y-110735575D01*
X218479835Y-110747466D01*
X218529633Y-110783646D01*
X218578792Y-110814535D01*
X218596444Y-110832187D01*
X218615084Y-110845730D01*
X218661165Y-110896908D01*
X218705465Y-110941208D01*
X218715654Y-110957424D01*
X218726946Y-110969965D01*
X218765573Y-111036870D01*
X218800775Y-111092893D01*
X218805170Y-111105453D01*
X218810535Y-111114746D01*
X218838010Y-111199305D01*
X218859942Y-111261983D01*
X218860773Y-111269363D01*
X218862195Y-111273738D01*
X218875076Y-111396306D01*
X218880000Y-111440000D01*
X218875076Y-111483697D01*
X218862195Y-111606261D01*
X218860773Y-111610635D01*
X218859942Y-111618017D01*
X218838005Y-111680707D01*
X218810535Y-111765253D01*
X218805171Y-111774543D01*
X218800775Y-111787107D01*
X218765566Y-111843140D01*
X218726946Y-111910034D01*
X218715656Y-111922572D01*
X218705465Y-111938792D01*
X218661155Y-111983101D01*
X218615084Y-112034269D01*
X218596448Y-112047808D01*
X218578792Y-112065465D01*
X218529623Y-112096359D01*
X218479835Y-112132533D01*
X218453134Y-112144421D01*
X218427107Y-112160775D01*
X218377107Y-112178270D01*
X218327110Y-112200531D01*
X218292414Y-112207905D01*
X218258017Y-112219942D01*
X218210715Y-112225271D01*
X218163588Y-112235289D01*
X218121811Y-112235289D01*
X218080000Y-112240000D01*
X218038189Y-112235289D01*
X217996412Y-112235289D01*
X217949284Y-112225271D01*
X217901983Y-112219942D01*
X217867586Y-112207906D01*
X217832889Y-112200531D01*
X217782887Y-112178268D01*
X217732893Y-112160775D01*
X217706868Y-112144422D01*
X217680164Y-112132533D01*
X217630369Y-112096355D01*
X217581208Y-112065465D01*
X217563554Y-112047811D01*
X217544915Y-112034269D01*
X217498833Y-111983090D01*
X217454535Y-111938792D01*
X217444345Y-111922575D01*
X217433053Y-111910034D01*
X217394420Y-111843120D01*
X217359225Y-111787107D01*
X217354830Y-111774547D01*
X217349464Y-111765253D01*
X217321980Y-111680667D01*
X217300058Y-111618017D01*
X217299226Y-111610639D01*
X217297804Y-111606261D01*
X217284908Y-111483565D01*
X217280000Y-111440000D01*
X217284908Y-111396438D01*
X217297804Y-111273738D01*
X217299226Y-111269358D01*
X217300058Y-111261983D01*
X217321975Y-111199345D01*
X217349464Y-111114746D01*
X217354831Y-111105449D01*
X217359225Y-111092893D01*
X217394413Y-111036890D01*
X217433053Y-110969965D01*
X217444347Y-110957421D01*
X217454535Y-110941208D01*
X217498826Y-110896916D01*
X217544917Y-110845728D01*
X217563559Y-110832183D01*
X217581208Y-110814535D01*
X217630354Y-110783654D01*
X217680162Y-110747467D01*
X217706873Y-110735574D01*
X217732893Y-110719225D01*
X217782877Y-110701734D01*
X217832889Y-110679468D01*
X217867592Y-110672091D01*
X217901983Y-110660058D01*
X217949281Y-110654728D01*
X217996412Y-110644711D01*
X218038189Y-110644711D01*
X218080000Y-110640000D01*
X218121811Y-110644711D01*
G37*
G36*
X216024850Y-104465964D02*
G01*
X216075040Y-104471787D01*
X216092189Y-104479359D01*
X216115671Y-104484030D01*
X216140810Y-104500827D01*
X216160696Y-104509608D01*
X216174277Y-104523189D01*
X216196777Y-104538223D01*
X216211810Y-104560722D01*
X216225391Y-104574303D01*
X216234170Y-104594186D01*
X216250970Y-104619329D01*
X216255641Y-104642812D01*
X216263212Y-104659959D01*
X216269033Y-104710139D01*
X216270000Y-104715000D01*
X216270000Y-106165000D01*
X216269032Y-106169863D01*
X216263212Y-106220040D01*
X216255641Y-106237185D01*
X216250970Y-106260671D01*
X216234169Y-106285815D01*
X216225391Y-106305696D01*
X216211812Y-106319274D01*
X216196777Y-106341777D01*
X216174274Y-106356812D01*
X216160696Y-106370391D01*
X216140815Y-106379169D01*
X216115671Y-106395970D01*
X216092185Y-106400641D01*
X216075040Y-106408212D01*
X216024861Y-106414032D01*
X216020000Y-106415000D01*
X214820000Y-106415000D01*
X214815138Y-106414032D01*
X214764959Y-106408212D01*
X214747812Y-106400641D01*
X214724329Y-106395970D01*
X214699186Y-106379170D01*
X214679303Y-106370391D01*
X214665722Y-106356810D01*
X214643223Y-106341777D01*
X214628189Y-106319277D01*
X214614608Y-106305696D01*
X214605827Y-106285810D01*
X214589030Y-106260671D01*
X214584359Y-106237189D01*
X214576787Y-106220040D01*
X214570964Y-106169849D01*
X214570000Y-106165000D01*
X214570000Y-104715000D01*
X214570964Y-104710150D01*
X214576787Y-104659959D01*
X214584359Y-104642808D01*
X214589030Y-104619329D01*
X214605826Y-104594191D01*
X214614608Y-104574303D01*
X214628191Y-104560719D01*
X214643223Y-104538223D01*
X214665719Y-104523191D01*
X214679303Y-104509608D01*
X214699191Y-104500826D01*
X214724329Y-104484030D01*
X214747808Y-104479359D01*
X214764959Y-104471787D01*
X214815151Y-104465964D01*
X214820000Y-104465000D01*
X216020000Y-104465000D01*
X216024850Y-104465964D01*
G37*
G36*
X210666742Y-104501601D02*
G01*
X210820687Y-104565367D01*
X210959234Y-104657941D01*
X211077059Y-104775766D01*
X211169633Y-104914313D01*
X211233399Y-105068258D01*
X211265907Y-105231685D01*
X211270000Y-105565000D01*
X211265907Y-105648315D01*
X211233399Y-105811742D01*
X211169633Y-105965687D01*
X211077059Y-106104234D01*
X210959234Y-106222059D01*
X210820687Y-106314633D01*
X210666742Y-106378399D01*
X210503315Y-106410907D01*
X210336685Y-106410907D01*
X210173258Y-106378399D01*
X210019313Y-106314633D01*
X209880766Y-106222059D01*
X209762941Y-106104234D01*
X209670367Y-105965687D01*
X209606601Y-105811742D01*
X209574093Y-105648315D01*
X209570000Y-105315000D01*
X209574093Y-105231685D01*
X209606601Y-105068258D01*
X209670367Y-104914313D01*
X209762941Y-104775766D01*
X209880766Y-104657941D01*
X210019313Y-104565367D01*
X210173258Y-104501601D01*
X210336685Y-104469093D01*
X210503315Y-104469093D01*
X210666742Y-104501601D01*
G37*
G36*
X213166742Y-104501601D02*
G01*
X213320687Y-104565367D01*
X213459234Y-104657941D01*
X213577059Y-104775766D01*
X213669633Y-104914313D01*
X213733399Y-105068258D01*
X213765907Y-105231685D01*
X213770000Y-105565000D01*
X213765907Y-105648315D01*
X213733399Y-105811742D01*
X213669633Y-105965687D01*
X213577059Y-106104234D01*
X213459234Y-106222059D01*
X213320687Y-106314633D01*
X213166742Y-106378399D01*
X213003315Y-106410907D01*
X212836685Y-106410907D01*
X212673258Y-106378399D01*
X212519313Y-106314633D01*
X212380766Y-106222059D01*
X212262941Y-106104234D01*
X212170367Y-105965687D01*
X212106601Y-105811742D01*
X212074093Y-105648315D01*
X212070000Y-105315000D01*
X212074093Y-105231685D01*
X212106601Y-105068258D01*
X212170367Y-104914313D01*
X212262941Y-104775766D01*
X212380766Y-104657941D01*
X212519313Y-104565367D01*
X212673258Y-104501601D01*
X212836685Y-104469093D01*
X213003315Y-104469093D01*
X213166742Y-104501601D01*
G37*
G36*
X200441811Y-101624711D02*
G01*
X200483588Y-101624711D01*
X200530718Y-101634728D01*
X200578017Y-101640058D01*
X200612408Y-101652092D01*
X200647110Y-101659468D01*
X200697117Y-101681733D01*
X200747107Y-101699225D01*
X200773128Y-101715575D01*
X200799835Y-101727466D01*
X200849633Y-101763646D01*
X200898792Y-101794535D01*
X200916444Y-101812187D01*
X200935084Y-101825730D01*
X200981165Y-101876908D01*
X201025465Y-101921208D01*
X201035654Y-101937424D01*
X201046946Y-101949965D01*
X201085573Y-102016870D01*
X201120775Y-102072893D01*
X201125170Y-102085453D01*
X201130535Y-102094746D01*
X201158010Y-102179305D01*
X201179942Y-102241983D01*
X201180773Y-102249363D01*
X201182195Y-102253738D01*
X201195076Y-102376306D01*
X201200000Y-102420000D01*
X201195076Y-102463697D01*
X201182195Y-102586261D01*
X201180773Y-102590635D01*
X201179942Y-102598017D01*
X201158005Y-102660707D01*
X201130535Y-102745253D01*
X201125171Y-102754543D01*
X201120775Y-102767107D01*
X201085566Y-102823140D01*
X201046946Y-102890034D01*
X201035656Y-102902572D01*
X201025465Y-102918792D01*
X200981155Y-102963101D01*
X200935084Y-103014269D01*
X200916448Y-103027808D01*
X200898792Y-103045465D01*
X200849623Y-103076359D01*
X200799835Y-103112533D01*
X200773134Y-103124421D01*
X200747107Y-103140775D01*
X200697107Y-103158270D01*
X200647110Y-103180531D01*
X200612414Y-103187905D01*
X200578017Y-103199942D01*
X200530715Y-103205271D01*
X200483588Y-103215289D01*
X200441811Y-103215289D01*
X200400000Y-103220000D01*
X200358189Y-103215289D01*
X200316412Y-103215289D01*
X200269284Y-103205271D01*
X200221983Y-103199942D01*
X200187586Y-103187906D01*
X200152889Y-103180531D01*
X200102887Y-103158268D01*
X200052893Y-103140775D01*
X200026868Y-103124422D01*
X200000164Y-103112533D01*
X199950369Y-103076355D01*
X199901208Y-103045465D01*
X199883554Y-103027811D01*
X199864915Y-103014269D01*
X199818833Y-102963090D01*
X199774535Y-102918792D01*
X199764345Y-102902575D01*
X199753053Y-102890034D01*
X199714420Y-102823120D01*
X199679225Y-102767107D01*
X199674830Y-102754547D01*
X199669464Y-102745253D01*
X199641980Y-102660667D01*
X199620058Y-102598017D01*
X199619226Y-102590639D01*
X199617804Y-102586261D01*
X199604908Y-102463565D01*
X199600000Y-102420000D01*
X199604908Y-102376438D01*
X199617804Y-102253738D01*
X199619226Y-102249358D01*
X199620058Y-102241983D01*
X199641975Y-102179345D01*
X199669464Y-102094746D01*
X199674831Y-102085449D01*
X199679225Y-102072893D01*
X199714413Y-102016890D01*
X199753053Y-101949965D01*
X199764347Y-101937421D01*
X199774535Y-101921208D01*
X199818826Y-101876916D01*
X199864917Y-101825728D01*
X199883559Y-101812183D01*
X199901208Y-101794535D01*
X199950354Y-101763654D01*
X200000162Y-101727467D01*
X200026873Y-101715574D01*
X200052893Y-101699225D01*
X200102877Y-101681734D01*
X200152889Y-101659468D01*
X200187592Y-101652091D01*
X200221983Y-101640058D01*
X200269281Y-101634728D01*
X200316412Y-101624711D01*
X200358189Y-101624711D01*
X200400000Y-101620000D01*
X200441811Y-101624711D01*
G37*
G36*
X204841811Y-101524711D02*
G01*
X204883588Y-101524711D01*
X204930718Y-101534728D01*
X204978017Y-101540058D01*
X205012408Y-101552092D01*
X205047110Y-101559468D01*
X205097117Y-101581733D01*
X205147107Y-101599225D01*
X205173128Y-101615575D01*
X205199835Y-101627466D01*
X205249633Y-101663646D01*
X205298792Y-101694535D01*
X205316444Y-101712187D01*
X205335084Y-101725730D01*
X205381165Y-101776908D01*
X205425465Y-101821208D01*
X205435654Y-101837424D01*
X205446946Y-101849965D01*
X205485573Y-101916870D01*
X205520775Y-101972893D01*
X205525170Y-101985453D01*
X205530535Y-101994746D01*
X205558010Y-102079305D01*
X205579942Y-102141983D01*
X205580773Y-102149363D01*
X205582195Y-102153738D01*
X205595076Y-102276306D01*
X205600000Y-102320000D01*
X205595076Y-102363697D01*
X205582195Y-102486261D01*
X205580773Y-102490635D01*
X205579942Y-102498017D01*
X205558005Y-102560707D01*
X205530535Y-102645253D01*
X205525171Y-102654543D01*
X205520775Y-102667107D01*
X205485566Y-102723140D01*
X205446946Y-102790034D01*
X205435656Y-102802572D01*
X205425465Y-102818792D01*
X205381155Y-102863101D01*
X205335084Y-102914269D01*
X205316448Y-102927808D01*
X205298792Y-102945465D01*
X205249623Y-102976359D01*
X205199835Y-103012533D01*
X205173134Y-103024421D01*
X205147107Y-103040775D01*
X205097107Y-103058270D01*
X205047110Y-103080531D01*
X205012414Y-103087905D01*
X204978017Y-103099942D01*
X204930715Y-103105271D01*
X204883588Y-103115289D01*
X204841811Y-103115289D01*
X204800000Y-103120000D01*
X204758189Y-103115289D01*
X204716412Y-103115289D01*
X204669284Y-103105271D01*
X204621983Y-103099942D01*
X204587586Y-103087906D01*
X204552889Y-103080531D01*
X204502887Y-103058268D01*
X204452893Y-103040775D01*
X204426868Y-103024422D01*
X204400164Y-103012533D01*
X204350369Y-102976355D01*
X204301208Y-102945465D01*
X204283554Y-102927811D01*
X204264915Y-102914269D01*
X204218833Y-102863090D01*
X204174535Y-102818792D01*
X204164345Y-102802575D01*
X204153053Y-102790034D01*
X204114420Y-102723120D01*
X204079225Y-102667107D01*
X204074830Y-102654547D01*
X204069464Y-102645253D01*
X204041980Y-102560667D01*
X204020058Y-102498017D01*
X204019226Y-102490639D01*
X204017804Y-102486261D01*
X204004908Y-102363565D01*
X204000000Y-102320000D01*
X204004908Y-102276438D01*
X204017804Y-102153738D01*
X204019226Y-102149358D01*
X204020058Y-102141983D01*
X204041975Y-102079345D01*
X204069464Y-101994746D01*
X204074831Y-101985449D01*
X204079225Y-101972893D01*
X204114413Y-101916890D01*
X204153053Y-101849965D01*
X204164347Y-101837421D01*
X204174535Y-101821208D01*
X204218826Y-101776916D01*
X204264917Y-101725728D01*
X204283559Y-101712183D01*
X204301208Y-101694535D01*
X204350354Y-101663654D01*
X204400162Y-101627467D01*
X204426873Y-101615574D01*
X204452893Y-101599225D01*
X204502877Y-101581734D01*
X204552889Y-101559468D01*
X204587592Y-101552091D01*
X204621983Y-101540058D01*
X204669281Y-101534728D01*
X204716412Y-101524711D01*
X204758189Y-101524711D01*
X204800000Y-101520000D01*
X204841811Y-101524711D01*
G37*
G36*
X243174850Y-98210964D02*
G01*
X243225040Y-98216787D01*
X243242189Y-98224359D01*
X243265671Y-98229030D01*
X243290810Y-98245827D01*
X243310696Y-98254608D01*
X243324277Y-98268189D01*
X243346777Y-98283223D01*
X243361810Y-98305722D01*
X243375391Y-98319303D01*
X243384170Y-98339186D01*
X243400970Y-98364329D01*
X243405641Y-98387812D01*
X243413212Y-98404959D01*
X243419033Y-98455139D01*
X243420000Y-98460000D01*
X243420000Y-99660000D01*
X243419032Y-99664863D01*
X243413212Y-99715040D01*
X243405641Y-99732185D01*
X243400970Y-99755671D01*
X243384169Y-99780815D01*
X243375391Y-99800696D01*
X243361812Y-99814274D01*
X243346777Y-99836777D01*
X243324274Y-99851812D01*
X243310696Y-99865391D01*
X243290815Y-99874169D01*
X243265671Y-99890970D01*
X243242185Y-99895641D01*
X243225040Y-99903212D01*
X243174861Y-99909032D01*
X243170000Y-99910000D01*
X241970000Y-99910000D01*
X241965138Y-99909032D01*
X241914959Y-99903212D01*
X241897812Y-99895641D01*
X241874329Y-99890970D01*
X241849186Y-99874170D01*
X241829303Y-99865391D01*
X241815722Y-99851810D01*
X241793223Y-99836777D01*
X241778189Y-99814277D01*
X241764608Y-99800696D01*
X241755827Y-99780810D01*
X241739030Y-99755671D01*
X241734359Y-99732189D01*
X241726787Y-99715040D01*
X241720964Y-99664849D01*
X241720000Y-99660000D01*
X241720000Y-98460000D01*
X241720964Y-98455150D01*
X241726787Y-98404959D01*
X241734359Y-98387808D01*
X241739030Y-98364329D01*
X241755826Y-98339191D01*
X241764608Y-98319303D01*
X241778191Y-98305719D01*
X241793223Y-98283223D01*
X241815719Y-98268191D01*
X241829303Y-98254608D01*
X241849191Y-98245826D01*
X241874329Y-98229030D01*
X241897808Y-98224359D01*
X241914959Y-98216787D01*
X241965151Y-98210964D01*
X241970000Y-98210000D01*
X243170000Y-98210000D01*
X243174850Y-98210964D01*
G37*
G36*
X245372664Y-98251602D02*
G01*
X245535000Y-98323878D01*
X245678761Y-98428327D01*
X245797664Y-98560383D01*
X245886514Y-98714274D01*
X245941425Y-98883275D01*
X245960000Y-99060000D01*
X245941425Y-99236725D01*
X245886514Y-99405726D01*
X245797664Y-99559617D01*
X245678761Y-99691673D01*
X245535000Y-99796122D01*
X245372664Y-99868398D01*
X245198849Y-99905344D01*
X245021151Y-99905344D01*
X244847336Y-99868398D01*
X244685000Y-99796122D01*
X244541239Y-99691673D01*
X244422336Y-99559617D01*
X244333486Y-99405726D01*
X244278575Y-99236725D01*
X244260000Y-99060000D01*
X244278575Y-98883275D01*
X244333486Y-98714274D01*
X244422336Y-98560383D01*
X244541239Y-98428327D01*
X244685000Y-98323878D01*
X244847336Y-98251602D01*
X245021151Y-98214656D01*
X245198849Y-98214656D01*
X245372664Y-98251602D01*
G37*
G36*
X247912664Y-98251602D02*
G01*
X248075000Y-98323878D01*
X248218761Y-98428327D01*
X248337664Y-98560383D01*
X248426514Y-98714274D01*
X248481425Y-98883275D01*
X248500000Y-99060000D01*
X248481425Y-99236725D01*
X248426514Y-99405726D01*
X248337664Y-99559617D01*
X248218761Y-99691673D01*
X248075000Y-99796122D01*
X247912664Y-99868398D01*
X247738849Y-99905344D01*
X247561151Y-99905344D01*
X247387336Y-99868398D01*
X247225000Y-99796122D01*
X247081239Y-99691673D01*
X246962336Y-99559617D01*
X246873486Y-99405726D01*
X246818575Y-99236725D01*
X246800000Y-99060000D01*
X246818575Y-98883275D01*
X246873486Y-98714274D01*
X246962336Y-98560383D01*
X247081239Y-98428327D01*
X247225000Y-98323878D01*
X247387336Y-98251602D01*
X247561151Y-98214656D01*
X247738849Y-98214656D01*
X247912664Y-98251602D01*
G37*
G36*
X250452664Y-98251602D02*
G01*
X250615000Y-98323878D01*
X250758761Y-98428327D01*
X250877664Y-98560383D01*
X250966514Y-98714274D01*
X251021425Y-98883275D01*
X251040000Y-99060000D01*
X251021425Y-99236725D01*
X250966514Y-99405726D01*
X250877664Y-99559617D01*
X250758761Y-99691673D01*
X250615000Y-99796122D01*
X250452664Y-99868398D01*
X250278849Y-99905344D01*
X250101151Y-99905344D01*
X249927336Y-99868398D01*
X249765000Y-99796122D01*
X249621239Y-99691673D01*
X249502336Y-99559617D01*
X249413486Y-99405726D01*
X249358575Y-99236725D01*
X249340000Y-99060000D01*
X249358575Y-98883275D01*
X249413486Y-98714274D01*
X249502336Y-98560383D01*
X249621239Y-98428327D01*
X249765000Y-98323878D01*
X249927336Y-98251602D01*
X250101151Y-98214656D01*
X250278849Y-98214656D01*
X250452664Y-98251602D01*
G37*
G36*
X252992664Y-98251602D02*
G01*
X253155000Y-98323878D01*
X253298761Y-98428327D01*
X253417664Y-98560383D01*
X253506514Y-98714274D01*
X253561425Y-98883275D01*
X253580000Y-99060000D01*
X253561425Y-99236725D01*
X253506514Y-99405726D01*
X253417664Y-99559617D01*
X253298761Y-99691673D01*
X253155000Y-99796122D01*
X252992664Y-99868398D01*
X252818849Y-99905344D01*
X252641151Y-99905344D01*
X252467336Y-99868398D01*
X252305000Y-99796122D01*
X252161239Y-99691673D01*
X252042336Y-99559617D01*
X251953486Y-99405726D01*
X251898575Y-99236725D01*
X251880000Y-99060000D01*
X251898575Y-98883275D01*
X251953486Y-98714274D01*
X252042336Y-98560383D01*
X252161239Y-98428327D01*
X252305000Y-98323878D01*
X252467336Y-98251602D01*
X252641151Y-98214656D01*
X252818849Y-98214656D01*
X252992664Y-98251602D01*
G37*
G36*
X205210000Y-97790000D02*
G01*
X203510000Y-97790000D01*
X203510000Y-96090000D01*
X205210000Y-96090000D01*
X205210000Y-97790000D01*
G37*
G36*
X223210000Y-97790000D02*
G01*
X221510000Y-97790000D01*
X221510000Y-96090000D01*
X223210000Y-96090000D01*
X223210000Y-97790000D01*
G37*
G36*
X242832664Y-95711602D02*
G01*
X242995000Y-95783878D01*
X243138761Y-95888327D01*
X243257664Y-96020383D01*
X243346514Y-96174274D01*
X243401425Y-96343275D01*
X243420000Y-96520000D01*
X243401425Y-96696725D01*
X243346514Y-96865726D01*
X243257664Y-97019617D01*
X243138761Y-97151673D01*
X242995000Y-97256122D01*
X242832664Y-97328398D01*
X242658849Y-97365344D01*
X242481151Y-97365344D01*
X242307336Y-97328398D01*
X242145000Y-97256122D01*
X242001239Y-97151673D01*
X241882336Y-97019617D01*
X241793486Y-96865726D01*
X241738575Y-96696725D01*
X241720000Y-96520000D01*
X241738575Y-96343275D01*
X241793486Y-96174274D01*
X241882336Y-96020383D01*
X242001239Y-95888327D01*
X242145000Y-95783878D01*
X242307336Y-95711602D01*
X242481151Y-95674656D01*
X242658849Y-95674656D01*
X242832664Y-95711602D01*
G37*
G36*
X245372664Y-95711602D02*
G01*
X245535000Y-95783878D01*
X245678761Y-95888327D01*
X245797664Y-96020383D01*
X245886514Y-96174274D01*
X245941425Y-96343275D01*
X245960000Y-96520000D01*
X245941425Y-96696725D01*
X245886514Y-96865726D01*
X245797664Y-97019617D01*
X245678761Y-97151673D01*
X245535000Y-97256122D01*
X245372664Y-97328398D01*
X245198849Y-97365344D01*
X245021151Y-97365344D01*
X244847336Y-97328398D01*
X244685000Y-97256122D01*
X244541239Y-97151673D01*
X244422336Y-97019617D01*
X244333486Y-96865726D01*
X244278575Y-96696725D01*
X244260000Y-96520000D01*
X244278575Y-96343275D01*
X244333486Y-96174274D01*
X244422336Y-96020383D01*
X244541239Y-95888327D01*
X244685000Y-95783878D01*
X244847336Y-95711602D01*
X245021151Y-95674656D01*
X245198849Y-95674656D01*
X245372664Y-95711602D01*
G37*
G36*
X247912664Y-95711602D02*
G01*
X248075000Y-95783878D01*
X248218761Y-95888327D01*
X248337664Y-96020383D01*
X248426514Y-96174274D01*
X248481425Y-96343275D01*
X248500000Y-96520000D01*
X248481425Y-96696725D01*
X248426514Y-96865726D01*
X248337664Y-97019617D01*
X248218761Y-97151673D01*
X248075000Y-97256122D01*
X247912664Y-97328398D01*
X247738849Y-97365344D01*
X247561151Y-97365344D01*
X247387336Y-97328398D01*
X247225000Y-97256122D01*
X247081239Y-97151673D01*
X246962336Y-97019617D01*
X246873486Y-96865726D01*
X246818575Y-96696725D01*
X246800000Y-96520000D01*
X246818575Y-96343275D01*
X246873486Y-96174274D01*
X246962336Y-96020383D01*
X247081239Y-95888327D01*
X247225000Y-95783878D01*
X247387336Y-95711602D01*
X247561151Y-95674656D01*
X247738849Y-95674656D01*
X247912664Y-95711602D01*
G37*
G36*
X250452664Y-95711602D02*
G01*
X250615000Y-95783878D01*
X250758761Y-95888327D01*
X250877664Y-96020383D01*
X250966514Y-96174274D01*
X251021425Y-96343275D01*
X251040000Y-96520000D01*
X251021425Y-96696725D01*
X250966514Y-96865726D01*
X250877664Y-97019617D01*
X250758761Y-97151673D01*
X250615000Y-97256122D01*
X250452664Y-97328398D01*
X250278849Y-97365344D01*
X250101151Y-97365344D01*
X249927336Y-97328398D01*
X249765000Y-97256122D01*
X249621239Y-97151673D01*
X249502336Y-97019617D01*
X249413486Y-96865726D01*
X249358575Y-96696725D01*
X249340000Y-96520000D01*
X249358575Y-96343275D01*
X249413486Y-96174274D01*
X249502336Y-96020383D01*
X249621239Y-95888327D01*
X249765000Y-95783878D01*
X249927336Y-95711602D01*
X250101151Y-95674656D01*
X250278849Y-95674656D01*
X250452664Y-95711602D01*
G37*
G36*
X252992664Y-95711602D02*
G01*
X253155000Y-95783878D01*
X253298761Y-95888327D01*
X253417664Y-96020383D01*
X253506514Y-96174274D01*
X253561425Y-96343275D01*
X253580000Y-96520000D01*
X253561425Y-96696725D01*
X253506514Y-96865726D01*
X253417664Y-97019617D01*
X253298761Y-97151673D01*
X253155000Y-97256122D01*
X252992664Y-97328398D01*
X252818849Y-97365344D01*
X252641151Y-97365344D01*
X252467336Y-97328398D01*
X252305000Y-97256122D01*
X252161239Y-97151673D01*
X252042336Y-97019617D01*
X251953486Y-96865726D01*
X251898575Y-96696725D01*
X251880000Y-96520000D01*
X251898575Y-96343275D01*
X251953486Y-96174274D01*
X252042336Y-96020383D01*
X252161239Y-95888327D01*
X252305000Y-95783878D01*
X252467336Y-95711602D01*
X252641151Y-95674656D01*
X252818849Y-95674656D01*
X252992664Y-95711602D01*
G37*
G36*
X209719561Y-95777105D02*
G01*
X209880619Y-95833462D01*
X210025099Y-95924244D01*
X210145756Y-96044901D01*
X210236538Y-96189381D01*
X210292895Y-96350439D01*
X210312000Y-96520000D01*
X210292895Y-96689561D01*
X210236538Y-96850619D01*
X210145756Y-96995099D01*
X210025099Y-97115756D01*
X209880619Y-97206538D01*
X209719561Y-97262895D01*
X209550000Y-97282000D01*
X209380439Y-97262895D01*
X209219381Y-97206538D01*
X209074901Y-97115756D01*
X208954244Y-96995099D01*
X208863462Y-96850619D01*
X208807105Y-96689561D01*
X208788000Y-96520000D01*
X208807105Y-96350439D01*
X208863462Y-96189381D01*
X208954244Y-96044901D01*
X209074901Y-95924244D01*
X209219381Y-95833462D01*
X209380439Y-95777105D01*
X209550000Y-95758000D01*
X209719561Y-95777105D01*
G37*
G36*
X212259561Y-95777105D02*
G01*
X212420619Y-95833462D01*
X212565099Y-95924244D01*
X212685756Y-96044901D01*
X212776538Y-96189381D01*
X212832895Y-96350439D01*
X212852000Y-96520000D01*
X212832895Y-96689561D01*
X212776538Y-96850619D01*
X212685756Y-96995099D01*
X212565099Y-97115756D01*
X212420619Y-97206538D01*
X212259561Y-97262895D01*
X212090000Y-97282000D01*
X211920439Y-97262895D01*
X211759381Y-97206538D01*
X211614901Y-97115756D01*
X211494244Y-96995099D01*
X211403462Y-96850619D01*
X211347105Y-96689561D01*
X211328000Y-96520000D01*
X211347105Y-96350439D01*
X211403462Y-96189381D01*
X211494244Y-96044901D01*
X211614901Y-95924244D01*
X211759381Y-95833462D01*
X211920439Y-95777105D01*
X212090000Y-95758000D01*
X212259561Y-95777105D01*
G37*
G36*
X214799561Y-95777105D02*
G01*
X214960619Y-95833462D01*
X215105099Y-95924244D01*
X215225756Y-96044901D01*
X215316538Y-96189381D01*
X215372895Y-96350439D01*
X215392000Y-96520000D01*
X215372895Y-96689561D01*
X215316538Y-96850619D01*
X215225756Y-96995099D01*
X215105099Y-97115756D01*
X214960619Y-97206538D01*
X214799561Y-97262895D01*
X214630000Y-97282000D01*
X214460439Y-97262895D01*
X214299381Y-97206538D01*
X214154901Y-97115756D01*
X214034244Y-96995099D01*
X213943462Y-96850619D01*
X213887105Y-96689561D01*
X213868000Y-96520000D01*
X213887105Y-96350439D01*
X213943462Y-96189381D01*
X214034244Y-96044901D01*
X214154901Y-95924244D01*
X214299381Y-95833462D01*
X214460439Y-95777105D01*
X214630000Y-95758000D01*
X214799561Y-95777105D01*
G37*
G36*
X217932000Y-97282000D02*
G01*
X216408000Y-97282000D01*
X216408000Y-95758000D01*
X217932000Y-95758000D01*
X217932000Y-97282000D01*
G37*
G36*
X243174850Y-85510964D02*
G01*
X243225040Y-85516787D01*
X243242189Y-85524359D01*
X243265671Y-85529030D01*
X243290810Y-85545827D01*
X243310696Y-85554608D01*
X243324277Y-85568189D01*
X243346777Y-85583223D01*
X243361810Y-85605722D01*
X243375391Y-85619303D01*
X243384170Y-85639186D01*
X243400970Y-85664329D01*
X243405641Y-85687812D01*
X243413212Y-85704959D01*
X243419033Y-85755139D01*
X243420000Y-85760000D01*
X243420000Y-86960000D01*
X243419032Y-86964863D01*
X243413212Y-87015040D01*
X243405641Y-87032185D01*
X243400970Y-87055671D01*
X243384169Y-87080815D01*
X243375391Y-87100696D01*
X243361812Y-87114274D01*
X243346777Y-87136777D01*
X243324274Y-87151812D01*
X243310696Y-87165391D01*
X243290815Y-87174169D01*
X243265671Y-87190970D01*
X243242185Y-87195641D01*
X243225040Y-87203212D01*
X243174861Y-87209032D01*
X243170000Y-87210000D01*
X241970000Y-87210000D01*
X241965138Y-87209032D01*
X241914959Y-87203212D01*
X241897812Y-87195641D01*
X241874329Y-87190970D01*
X241849186Y-87174170D01*
X241829303Y-87165391D01*
X241815722Y-87151810D01*
X241793223Y-87136777D01*
X241778189Y-87114277D01*
X241764608Y-87100696D01*
X241755827Y-87080810D01*
X241739030Y-87055671D01*
X241734359Y-87032189D01*
X241726787Y-87015040D01*
X241720964Y-86964849D01*
X241720000Y-86960000D01*
X241720000Y-85760000D01*
X241720964Y-85755150D01*
X241726787Y-85704959D01*
X241734359Y-85687808D01*
X241739030Y-85664329D01*
X241755826Y-85639191D01*
X241764608Y-85619303D01*
X241778191Y-85605719D01*
X241793223Y-85583223D01*
X241815719Y-85568191D01*
X241829303Y-85554608D01*
X241849191Y-85545826D01*
X241874329Y-85529030D01*
X241897808Y-85524359D01*
X241914959Y-85516787D01*
X241965151Y-85510964D01*
X241970000Y-85510000D01*
X243170000Y-85510000D01*
X243174850Y-85510964D01*
G37*
G36*
X245372664Y-85551602D02*
G01*
X245535000Y-85623878D01*
X245678761Y-85728327D01*
X245797664Y-85860383D01*
X245886514Y-86014274D01*
X245941425Y-86183275D01*
X245960000Y-86360000D01*
X245941425Y-86536725D01*
X245886514Y-86705726D01*
X245797664Y-86859617D01*
X245678761Y-86991673D01*
X245535000Y-87096122D01*
X245372664Y-87168398D01*
X245198849Y-87205344D01*
X245021151Y-87205344D01*
X244847336Y-87168398D01*
X244685000Y-87096122D01*
X244541239Y-86991673D01*
X244422336Y-86859617D01*
X244333486Y-86705726D01*
X244278575Y-86536725D01*
X244260000Y-86360000D01*
X244278575Y-86183275D01*
X244333486Y-86014274D01*
X244422336Y-85860383D01*
X244541239Y-85728327D01*
X244685000Y-85623878D01*
X244847336Y-85551602D01*
X245021151Y-85514656D01*
X245198849Y-85514656D01*
X245372664Y-85551602D01*
G37*
G36*
X247912664Y-85551602D02*
G01*
X248075000Y-85623878D01*
X248218761Y-85728327D01*
X248337664Y-85860383D01*
X248426514Y-86014274D01*
X248481425Y-86183275D01*
X248500000Y-86360000D01*
X248481425Y-86536725D01*
X248426514Y-86705726D01*
X248337664Y-86859617D01*
X248218761Y-86991673D01*
X248075000Y-87096122D01*
X247912664Y-87168398D01*
X247738849Y-87205344D01*
X247561151Y-87205344D01*
X247387336Y-87168398D01*
X247225000Y-87096122D01*
X247081239Y-86991673D01*
X246962336Y-86859617D01*
X246873486Y-86705726D01*
X246818575Y-86536725D01*
X246800000Y-86360000D01*
X246818575Y-86183275D01*
X246873486Y-86014274D01*
X246962336Y-85860383D01*
X247081239Y-85728327D01*
X247225000Y-85623878D01*
X247387336Y-85551602D01*
X247561151Y-85514656D01*
X247738849Y-85514656D01*
X247912664Y-85551602D01*
G37*
G36*
X250452664Y-85551602D02*
G01*
X250615000Y-85623878D01*
X250758761Y-85728327D01*
X250877664Y-85860383D01*
X250966514Y-86014274D01*
X251021425Y-86183275D01*
X251040000Y-86360000D01*
X251021425Y-86536725D01*
X250966514Y-86705726D01*
X250877664Y-86859617D01*
X250758761Y-86991673D01*
X250615000Y-87096122D01*
X250452664Y-87168398D01*
X250278849Y-87205344D01*
X250101151Y-87205344D01*
X249927336Y-87168398D01*
X249765000Y-87096122D01*
X249621239Y-86991673D01*
X249502336Y-86859617D01*
X249413486Y-86705726D01*
X249358575Y-86536725D01*
X249340000Y-86360000D01*
X249358575Y-86183275D01*
X249413486Y-86014274D01*
X249502336Y-85860383D01*
X249621239Y-85728327D01*
X249765000Y-85623878D01*
X249927336Y-85551602D01*
X250101151Y-85514656D01*
X250278849Y-85514656D01*
X250452664Y-85551602D01*
G37*
G36*
X252992664Y-85551602D02*
G01*
X253155000Y-85623878D01*
X253298761Y-85728327D01*
X253417664Y-85860383D01*
X253506514Y-86014274D01*
X253561425Y-86183275D01*
X253580000Y-86360000D01*
X253561425Y-86536725D01*
X253506514Y-86705726D01*
X253417664Y-86859617D01*
X253298761Y-86991673D01*
X253155000Y-87096122D01*
X252992664Y-87168398D01*
X252818849Y-87205344D01*
X252641151Y-87205344D01*
X252467336Y-87168398D01*
X252305000Y-87096122D01*
X252161239Y-86991673D01*
X252042336Y-86859617D01*
X251953486Y-86705726D01*
X251898575Y-86536725D01*
X251880000Y-86360000D01*
X251898575Y-86183275D01*
X251953486Y-86014274D01*
X252042336Y-85860383D01*
X252161239Y-85728327D01*
X252305000Y-85623878D01*
X252467336Y-85551602D01*
X252641151Y-85514656D01*
X252818849Y-85514656D01*
X252992664Y-85551602D01*
G37*
G36*
X242832664Y-83011602D02*
G01*
X242995000Y-83083878D01*
X243138761Y-83188327D01*
X243257664Y-83320383D01*
X243346514Y-83474274D01*
X243401425Y-83643275D01*
X243420000Y-83820000D01*
X243401425Y-83996725D01*
X243346514Y-84165726D01*
X243257664Y-84319617D01*
X243138761Y-84451673D01*
X242995000Y-84556122D01*
X242832664Y-84628398D01*
X242658849Y-84665344D01*
X242481151Y-84665344D01*
X242307336Y-84628398D01*
X242145000Y-84556122D01*
X242001239Y-84451673D01*
X241882336Y-84319617D01*
X241793486Y-84165726D01*
X241738575Y-83996725D01*
X241720000Y-83820000D01*
X241738575Y-83643275D01*
X241793486Y-83474274D01*
X241882336Y-83320383D01*
X242001239Y-83188327D01*
X242145000Y-83083878D01*
X242307336Y-83011602D01*
X242481151Y-82974656D01*
X242658849Y-82974656D01*
X242832664Y-83011602D01*
G37*
G36*
X245372664Y-83011602D02*
G01*
X245535000Y-83083878D01*
X245678761Y-83188327D01*
X245797664Y-83320383D01*
X245886514Y-83474274D01*
X245941425Y-83643275D01*
X245960000Y-83820000D01*
X245941425Y-83996725D01*
X245886514Y-84165726D01*
X245797664Y-84319617D01*
X245678761Y-84451673D01*
X245535000Y-84556122D01*
X245372664Y-84628398D01*
X245198849Y-84665344D01*
X245021151Y-84665344D01*
X244847336Y-84628398D01*
X244685000Y-84556122D01*
X244541239Y-84451673D01*
X244422336Y-84319617D01*
X244333486Y-84165726D01*
X244278575Y-83996725D01*
X244260000Y-83820000D01*
X244278575Y-83643275D01*
X244333486Y-83474274D01*
X244422336Y-83320383D01*
X244541239Y-83188327D01*
X244685000Y-83083878D01*
X244847336Y-83011602D01*
X245021151Y-82974656D01*
X245198849Y-82974656D01*
X245372664Y-83011602D01*
G37*
G36*
X247912664Y-83011602D02*
G01*
X248075000Y-83083878D01*
X248218761Y-83188327D01*
X248337664Y-83320383D01*
X248426514Y-83474274D01*
X248481425Y-83643275D01*
X248500000Y-83820000D01*
X248481425Y-83996725D01*
X248426514Y-84165726D01*
X248337664Y-84319617D01*
X248218761Y-84451673D01*
X248075000Y-84556122D01*
X247912664Y-84628398D01*
X247738849Y-84665344D01*
X247561151Y-84665344D01*
X247387336Y-84628398D01*
X247225000Y-84556122D01*
X247081239Y-84451673D01*
X246962336Y-84319617D01*
X246873486Y-84165726D01*
X246818575Y-83996725D01*
X246800000Y-83820000D01*
X246818575Y-83643275D01*
X246873486Y-83474274D01*
X246962336Y-83320383D01*
X247081239Y-83188327D01*
X247225000Y-83083878D01*
X247387336Y-83011602D01*
X247561151Y-82974656D01*
X247738849Y-82974656D01*
X247912664Y-83011602D01*
G37*
G36*
X250452664Y-83011602D02*
G01*
X250615000Y-83083878D01*
X250758761Y-83188327D01*
X250877664Y-83320383D01*
X250966514Y-83474274D01*
X251021425Y-83643275D01*
X251040000Y-83820000D01*
X251021425Y-83996725D01*
X250966514Y-84165726D01*
X250877664Y-84319617D01*
X250758761Y-84451673D01*
X250615000Y-84556122D01*
X250452664Y-84628398D01*
X250278849Y-84665344D01*
X250101151Y-84665344D01*
X249927336Y-84628398D01*
X249765000Y-84556122D01*
X249621239Y-84451673D01*
X249502336Y-84319617D01*
X249413486Y-84165726D01*
X249358575Y-83996725D01*
X249340000Y-83820000D01*
X249358575Y-83643275D01*
X249413486Y-83474274D01*
X249502336Y-83320383D01*
X249621239Y-83188327D01*
X249765000Y-83083878D01*
X249927336Y-83011602D01*
X250101151Y-82974656D01*
X250278849Y-82974656D01*
X250452664Y-83011602D01*
G37*
G36*
X252992664Y-83011602D02*
G01*
X253155000Y-83083878D01*
X253298761Y-83188327D01*
X253417664Y-83320383D01*
X253506514Y-83474274D01*
X253561425Y-83643275D01*
X253580000Y-83820000D01*
X253561425Y-83996725D01*
X253506514Y-84165726D01*
X253417664Y-84319617D01*
X253298761Y-84451673D01*
X253155000Y-84556122D01*
X252992664Y-84628398D01*
X252818849Y-84665344D01*
X252641151Y-84665344D01*
X252467336Y-84628398D01*
X252305000Y-84556122D01*
X252161239Y-84451673D01*
X252042336Y-84319617D01*
X251953486Y-84165726D01*
X251898575Y-83996725D01*
X251880000Y-83820000D01*
X251898575Y-83643275D01*
X251953486Y-83474274D01*
X252042336Y-83320383D01*
X252161239Y-83188327D01*
X252305000Y-83083878D01*
X252467336Y-83011602D01*
X252641151Y-82974656D01*
X252818849Y-82974656D01*
X252992664Y-83011602D01*
G37*
G36*
X203501029Y-78951992D02*
G01*
X203690312Y-79025320D01*
X203862898Y-79132181D01*
X204012910Y-79268935D01*
X204135239Y-79430925D01*
X204225719Y-79612634D01*
X204281270Y-79807876D01*
X204300000Y-80010000D01*
X204281270Y-80212124D01*
X204225719Y-80407366D01*
X204135239Y-80589075D01*
X204012910Y-80751065D01*
X203862898Y-80887819D01*
X203690312Y-80994680D01*
X203501029Y-81068008D01*
X203301495Y-81105308D01*
X203098505Y-81105308D01*
X202898971Y-81068008D01*
X202709688Y-80994680D01*
X202537102Y-80887819D01*
X202387090Y-80751065D01*
X202264761Y-80589075D01*
X202174281Y-80407366D01*
X202118730Y-80212124D01*
X202100000Y-80010000D01*
X202118730Y-79807876D01*
X202174281Y-79612634D01*
X202264761Y-79430925D01*
X202387090Y-79268935D01*
X202537102Y-79132181D01*
X202709688Y-79025320D01*
X202898971Y-78951992D01*
X203098505Y-78914692D01*
X203301495Y-78914692D01*
X203501029Y-78951992D01*
G37*
G36*
X268271029Y-78951992D02*
G01*
X268460312Y-79025320D01*
X268632898Y-79132181D01*
X268782910Y-79268935D01*
X268905239Y-79430925D01*
X268995719Y-79612634D01*
X269051270Y-79807876D01*
X269070000Y-80010000D01*
X269051270Y-80212124D01*
X268995719Y-80407366D01*
X268905239Y-80589075D01*
X268782910Y-80751065D01*
X268632898Y-80887819D01*
X268460312Y-80994680D01*
X268271029Y-81068008D01*
X268071495Y-81105308D01*
X267868505Y-81105308D01*
X267668971Y-81068008D01*
X267479688Y-80994680D01*
X267307102Y-80887819D01*
X267157090Y-80751065D01*
X267034761Y-80589075D01*
X266944281Y-80407366D01*
X266888730Y-80212124D01*
X266870000Y-80010000D01*
X266888730Y-79807876D01*
X266944281Y-79612634D01*
X267034761Y-79430925D01*
X267157090Y-79268935D01*
X267307102Y-79132181D01*
X267479688Y-79025320D01*
X267668971Y-78951992D01*
X267868505Y-78914692D01*
X268071495Y-78914692D01*
X268271029Y-78951992D01*
G37*
M02*
