G04 #@! TF.GenerationSoftware,KiCad,Pcbnew,8.0.3*
G04 #@! TF.CreationDate,2025-07-28T20:13:40+02:00*
G04 #@! TF.ProjectId,DC_minni,44435f6d-696e-46e6-992e-6b696361645f,rev?*
G04 #@! TF.SameCoordinates,Original*
G04 #@! TF.FileFunction,Copper,L1,Top*
G04 #@! TF.FilePolarity,Positive*
%FSLAX46Y46*%
G04 Gerber Fmt 4.6, Leading zero omitted, Abs format (unit mm)*
G04 Created by KiCad (PCBNEW 8.0.3) date 2025-07-28 20:13:40*
%MOMM*%
%LPD*%
G01*
G04 APERTURE LIST*
G04 Aperture macros list*
%AMRoundRect*
0 Rectangle with rounded corners*
0 $1 Rounding radius*
0 $2 $3 $4 $5 $6 $7 $8 $9 X,Y pos of 4 corners*
0 Add a 4 corners polygon primitive as box body*
4,1,4,$2,$3,$4,$5,$6,$7,$8,$9,$2,$3,0*
0 Add four circle primitives for the rounded corners*
1,1,$1+$1,$2,$3*
1,1,$1+$1,$4,$5*
1,1,$1+$1,$6,$7*
1,1,$1+$1,$8,$9*
0 Add four rect primitives between the rounded corners*
20,1,$1+$1,$2,$3,$4,$5,0*
20,1,$1+$1,$4,$5,$6,$7,0*
20,1,$1+$1,$6,$7,$8,$9,0*
20,1,$1+$1,$8,$9,$2,$3,0*%
G04 Aperture macros list end*
G04 #@! TA.AperFunction,ComponentPad*
%ADD10R,1.524000X1.524000*%
G04 #@! TD*
G04 #@! TA.AperFunction,ComponentPad*
%ADD11C,1.524000*%
G04 #@! TD*
G04 #@! TA.AperFunction,ComponentPad*
%ADD12R,2.000000X1.200000*%
G04 #@! TD*
G04 #@! TA.AperFunction,ComponentPad*
%ADD13O,2.000000X1.200000*%
G04 #@! TD*
G04 #@! TA.AperFunction,ComponentPad*
%ADD14C,1.700000*%
G04 #@! TD*
G04 #@! TA.AperFunction,ComponentPad*
%ADD15RoundRect,0.250000X0.600000X-0.600000X0.600000X0.600000X-0.600000X0.600000X-0.600000X-0.600000X0*%
G04 #@! TD*
G04 #@! TA.AperFunction,ComponentPad*
%ADD16C,1.600000*%
G04 #@! TD*
G04 #@! TA.AperFunction,ComponentPad*
%ADD17O,1.600000X1.600000*%
G04 #@! TD*
G04 #@! TA.AperFunction,ComponentPad*
%ADD18O,1.700000X1.950000*%
G04 #@! TD*
G04 #@! TA.AperFunction,ComponentPad*
%ADD19RoundRect,0.250000X0.600000X0.725000X-0.600000X0.725000X-0.600000X-0.725000X0.600000X-0.725000X0*%
G04 #@! TD*
G04 #@! TA.AperFunction,ComponentPad*
%ADD20R,1.700000X1.700000*%
G04 #@! TD*
G04 #@! TA.AperFunction,ComponentPad*
%ADD21RoundRect,0.250000X-0.600000X-0.725000X0.600000X-0.725000X0.600000X0.725000X-0.600000X0.725000X0*%
G04 #@! TD*
G04 #@! TA.AperFunction,ViaPad*
%ADD22C,0.600000*%
G04 #@! TD*
G04 #@! TA.AperFunction,Conductor*
%ADD23C,0.200000*%
G04 #@! TD*
G04 #@! TA.AperFunction,Conductor*
%ADD24C,0.400000*%
G04 #@! TD*
G04 APERTURE END LIST*
D10*
X217170000Y-96520000D03*
D11*
X214630000Y-96520000D03*
X212090000Y-96520000D03*
X209550000Y-96520000D03*
D12*
X217000000Y-126900000D03*
D13*
X217000000Y-129440000D03*
X217000000Y-131980000D03*
X217000000Y-134520000D03*
X217000000Y-137060000D03*
X217000000Y-139600000D03*
X217000000Y-142140000D03*
X217000000Y-144680000D03*
X217000000Y-147220000D03*
X217000000Y-149760000D03*
X217000000Y-152300000D03*
X217000000Y-154840000D03*
X217000000Y-157380000D03*
X217000000Y-159920000D03*
X217000000Y-162460000D03*
X217000000Y-165000000D03*
X217000000Y-167540000D03*
X217000000Y-170080000D03*
X217000000Y-172620000D03*
X242396320Y-172617280D03*
X242396320Y-170077280D03*
X242400000Y-167540000D03*
X242400000Y-165000000D03*
X242400000Y-162460000D03*
X242400000Y-159920000D03*
X242400000Y-157380000D03*
X242400000Y-154840000D03*
X242400000Y-152300000D03*
X242400000Y-149760000D03*
X242400000Y-147220000D03*
X242400000Y-144680000D03*
X242400000Y-142140000D03*
X242400000Y-139600000D03*
X242400000Y-137060000D03*
X242400000Y-134520000D03*
X242400000Y-131980000D03*
X242400000Y-129440000D03*
X242400000Y-126900000D03*
D14*
X252730000Y-96520000D03*
X252730000Y-99060000D03*
X250190000Y-96520000D03*
X250190000Y-99060000D03*
X247650000Y-96520000D03*
X247650000Y-99060000D03*
X245110000Y-96520000D03*
X245110000Y-99060000D03*
X242570000Y-96520000D03*
D15*
X242570000Y-99060000D03*
D16*
X253800000Y-124400000D03*
D17*
X253800000Y-114240000D03*
D16*
X258500000Y-128500000D03*
D17*
X268660000Y-128500000D03*
X200400000Y-102420000D03*
D16*
X200400000Y-112580000D03*
X204800000Y-102320000D03*
D17*
X204800000Y-112480000D03*
D16*
X218080000Y-111440000D03*
D17*
X207920000Y-111440000D03*
D10*
X258340000Y-119460000D03*
D11*
X258340000Y-122000000D03*
X268500000Y-119460000D03*
X268500000Y-122000000D03*
D18*
X210420000Y-105440000D03*
X212920000Y-105440000D03*
D19*
X215420000Y-105440000D03*
D20*
X207500000Y-127500000D03*
X207500000Y-123500000D03*
X207500000Y-135500000D03*
X207500000Y-131500000D03*
X207500000Y-143500000D03*
X207500000Y-139500000D03*
X207500000Y-155500000D03*
X207500000Y-151500000D03*
X207500000Y-147500000D03*
X248500000Y-125000000D03*
X248500000Y-129000000D03*
X248500000Y-145000000D03*
X248500000Y-149000000D03*
X248500000Y-157000000D03*
X248500000Y-161000000D03*
X248500000Y-177000000D03*
X207500000Y-159500000D03*
X207500000Y-171500000D03*
X207500000Y-163500000D03*
X213500000Y-177000000D03*
X207500000Y-175500000D03*
X237000000Y-177000000D03*
X232000000Y-177000000D03*
X248500000Y-153000000D03*
X248500000Y-165000000D03*
X248500000Y-137000000D03*
X248500000Y-173000000D03*
X248500000Y-133000000D03*
X207500000Y-167500000D03*
D14*
X252730000Y-83820000D03*
X252730000Y-86360000D03*
X250190000Y-83820000D03*
X250190000Y-86360000D03*
X247650000Y-83820000D03*
X247650000Y-86360000D03*
X245110000Y-83820000D03*
X245110000Y-86360000D03*
X242570000Y-83820000D03*
D15*
X242570000Y-86360000D03*
D21*
X239800000Y-111800000D03*
D18*
X242300000Y-111800000D03*
X244800000Y-111800000D03*
X247300000Y-111800000D03*
D10*
X267910000Y-114380000D03*
D11*
X267910000Y-111840000D03*
X257750000Y-114380000D03*
X257750000Y-111840000D03*
D20*
X204360000Y-96940000D03*
X222360000Y-96940000D03*
X218500000Y-177000000D03*
X212500000Y-121500000D03*
X248500000Y-169000000D03*
X223500000Y-177000000D03*
X217500000Y-121500000D03*
X242000000Y-177000000D03*
D16*
X218080000Y-115440000D03*
D17*
X207920000Y-115440000D03*
D20*
X248500000Y-141000000D03*
D22*
X265500000Y-101900000D03*
X242500000Y-102000000D03*
X251100000Y-119500000D03*
X267900000Y-100500000D03*
X225200000Y-162400000D03*
X225200000Y-114400000D03*
X242400000Y-121300000D03*
X223800000Y-104100000D03*
D23*
X208400000Y-123500000D02*
X216880000Y-131980000D01*
X207500000Y-123500000D02*
X208400000Y-123500000D01*
X216880000Y-131980000D02*
X217000000Y-131980000D01*
X258340000Y-128340000D02*
X258500000Y-128500000D01*
X258340000Y-122000000D02*
X258340000Y-128340000D01*
X269489000Y-115959000D02*
X267910000Y-114380000D01*
X269489000Y-121011000D02*
X269489000Y-115959000D01*
X268500000Y-122000000D02*
X269489000Y-121011000D01*
X242570000Y-101430000D02*
X242570000Y-99060000D01*
X242500000Y-101500000D02*
X242570000Y-101430000D01*
X242500000Y-102000000D02*
X242500000Y-101500000D01*
X265500000Y-116460000D02*
X265500000Y-101900000D01*
X268500000Y-119460000D02*
X265500000Y-116460000D01*
X212500000Y-124940000D02*
X217000000Y-129440000D01*
X212500000Y-121500000D02*
X212500000Y-124940000D01*
X209980000Y-127500000D02*
X217000000Y-134520000D01*
X207500000Y-127500000D02*
X209980000Y-127500000D01*
X210880000Y-163500000D02*
X217000000Y-157380000D01*
X207500000Y-163500000D02*
X210880000Y-163500000D01*
X216540000Y-162460000D02*
X217000000Y-162460000D01*
X207500000Y-171500000D02*
X216540000Y-162460000D01*
X207500000Y-174450000D02*
X216950000Y-165000000D01*
X216950000Y-165000000D02*
X217000000Y-165000000D01*
X207500000Y-175500000D02*
X207500000Y-174450000D01*
X213500000Y-171040000D02*
X217000000Y-167540000D01*
X213500000Y-177000000D02*
X213500000Y-171040000D01*
X215773000Y-171307000D02*
X217000000Y-170080000D01*
X215773000Y-174273000D02*
X215773000Y-171307000D01*
X218500000Y-177000000D02*
X215773000Y-174273000D01*
X236382720Y-172617280D02*
X242396320Y-172617280D01*
X232000000Y-177000000D02*
X236382720Y-172617280D01*
X251100000Y-126400000D02*
X248500000Y-129000000D01*
X251100000Y-119500000D02*
X251100000Y-126400000D01*
X267910000Y-100810000D02*
X267910000Y-111840000D01*
X267900000Y-100800000D02*
X267910000Y-100810000D01*
X267900000Y-100500000D02*
X267900000Y-100800000D01*
X266900000Y-113370000D02*
X267910000Y-114380000D01*
X253176109Y-85283000D02*
X266900000Y-99006891D01*
X246187000Y-85283000D02*
X253176109Y-85283000D01*
X266900000Y-99006891D02*
X266900000Y-113370000D01*
X245110000Y-86360000D02*
X246187000Y-85283000D01*
X253807000Y-97983000D02*
X252730000Y-99060000D01*
X253807000Y-87437000D02*
X253807000Y-97983000D01*
X252730000Y-86360000D02*
X253807000Y-87437000D01*
X249113000Y-97983000D02*
X250190000Y-99060000D01*
X249113000Y-87437000D02*
X249113000Y-97983000D01*
X250190000Y-86360000D02*
X249113000Y-87437000D01*
X248727000Y-87437000D02*
X248727000Y-97983000D01*
X247650000Y-86360000D02*
X248727000Y-87437000D01*
X248727000Y-97983000D02*
X247650000Y-99060000D01*
X225200000Y-114400000D02*
X225200000Y-162400000D01*
X245400000Y-114800000D02*
X245400000Y-154380000D01*
X247300000Y-112900000D02*
X245400000Y-114800000D01*
X247300000Y-111800000D02*
X247300000Y-112900000D01*
X245400000Y-154380000D02*
X242400000Y-157380000D01*
X244800000Y-147360000D02*
X242400000Y-149760000D01*
X244800000Y-111800000D02*
X244800000Y-147360000D01*
D24*
X242400000Y-121300000D02*
X242300000Y-121200000D01*
X242300000Y-121200000D02*
X242300000Y-111800000D01*
X217000000Y-122000000D02*
X217500000Y-121500000D01*
X217000000Y-126900000D02*
X217000000Y-122000000D01*
X223500000Y-177000000D02*
X223500000Y-166120000D01*
X223560000Y-166060000D02*
X217000000Y-172620000D01*
X223500000Y-166120000D02*
X223560000Y-166060000D01*
X223800000Y-165820000D02*
X223560000Y-166060000D01*
X223800000Y-104100000D02*
X223800000Y-165820000D01*
X209550000Y-96520000D02*
X209550000Y-104570000D01*
X209550000Y-104570000D02*
X210420000Y-105440000D01*
D23*
X215420000Y-105440000D02*
X215420000Y-108780000D01*
X215420000Y-108780000D02*
X218080000Y-111440000D01*
X218080000Y-111440000D02*
X218080000Y-115440000D01*
X207920000Y-115440000D02*
X207920000Y-111440000D01*
X204800000Y-136800000D02*
X207500000Y-139500000D01*
X204800000Y-112480000D02*
X204800000Y-136800000D01*
X205100000Y-107400000D02*
X205100000Y-107000000D01*
X207920000Y-110220000D02*
X205100000Y-107400000D01*
X207920000Y-111440000D02*
X207920000Y-110220000D01*
X205100000Y-107000000D02*
X204800000Y-106700000D01*
X204800000Y-106700000D02*
X204800000Y-102320000D01*
X242570000Y-86360000D02*
X243647000Y-87437000D01*
X243647000Y-87437000D02*
X243647000Y-97983000D01*
X243647000Y-97983000D02*
X242570000Y-99060000D01*
G04 #@! TA.AperFunction,Conductor*
G36*
X272092539Y-75420185D02*
G01*
X272138294Y-75472989D01*
X272149500Y-75524500D01*
X272149500Y-180175500D01*
X272129815Y-180242539D01*
X272077011Y-180288294D01*
X272025500Y-180299500D01*
X198249500Y-180299500D01*
X198182461Y-180279815D01*
X198136706Y-180227011D01*
X198125500Y-180175500D01*
X198125500Y-176423713D01*
X200579500Y-176423713D01*
X200579500Y-176636286D01*
X200612753Y-176846239D01*
X200678444Y-177048414D01*
X200774951Y-177237820D01*
X200899890Y-177409786D01*
X201050213Y-177560109D01*
X201222179Y-177685048D01*
X201222181Y-177685049D01*
X201222184Y-177685051D01*
X201411588Y-177781557D01*
X201613757Y-177847246D01*
X201823713Y-177880500D01*
X201823714Y-177880500D01*
X202036286Y-177880500D01*
X202036287Y-177880500D01*
X202246243Y-177847246D01*
X202448412Y-177781557D01*
X202637816Y-177685051D01*
X202659789Y-177669086D01*
X202809786Y-177560109D01*
X202809788Y-177560106D01*
X202809792Y-177560104D01*
X202960104Y-177409792D01*
X202960106Y-177409788D01*
X202960109Y-177409786D01*
X203085048Y-177237820D01*
X203085047Y-177237820D01*
X203085051Y-177237816D01*
X203181557Y-177048412D01*
X203247246Y-176846243D01*
X203280500Y-176636287D01*
X203280500Y-176423713D01*
X203247246Y-176213757D01*
X203181557Y-176011588D01*
X203085051Y-175822184D01*
X203085049Y-175822181D01*
X203085048Y-175822179D01*
X202960109Y-175650213D01*
X202809786Y-175499890D01*
X202637820Y-175374951D01*
X202448414Y-175278444D01*
X202448413Y-175278443D01*
X202448412Y-175278443D01*
X202246243Y-175212754D01*
X202246241Y-175212753D01*
X202246240Y-175212753D01*
X202084957Y-175187208D01*
X202036287Y-175179500D01*
X201823713Y-175179500D01*
X201775042Y-175187208D01*
X201613760Y-175212753D01*
X201411585Y-175278444D01*
X201222179Y-175374951D01*
X201050213Y-175499890D01*
X200899890Y-175650213D01*
X200774951Y-175822179D01*
X200678444Y-176011585D01*
X200612753Y-176213760D01*
X200579500Y-176423713D01*
X198125500Y-176423713D01*
X198125500Y-170602135D01*
X206149500Y-170602135D01*
X206149500Y-172397870D01*
X206149501Y-172397876D01*
X206155908Y-172457483D01*
X206206202Y-172592328D01*
X206206206Y-172592335D01*
X206292452Y-172707544D01*
X206292455Y-172707547D01*
X206407664Y-172793793D01*
X206407671Y-172793797D01*
X206542517Y-172844091D01*
X206542516Y-172844091D01*
X206549444Y-172844835D01*
X206602127Y-172850500D01*
X207950902Y-172850499D01*
X208017941Y-172870184D01*
X208063696Y-172922987D01*
X208073640Y-172992146D01*
X208044615Y-173055702D01*
X208038583Y-173062180D01*
X207131286Y-173969478D01*
X207019481Y-174081282D01*
X207019475Y-174081290D01*
X207015887Y-174087505D01*
X206965318Y-174135718D01*
X206908503Y-174149500D01*
X206602130Y-174149500D01*
X206602123Y-174149501D01*
X206542516Y-174155908D01*
X206407671Y-174206202D01*
X206407664Y-174206206D01*
X206292455Y-174292452D01*
X206292452Y-174292455D01*
X206206206Y-174407664D01*
X206206202Y-174407671D01*
X206155908Y-174542517D01*
X206149501Y-174602116D01*
X206149501Y-174602123D01*
X206149500Y-174602135D01*
X206149500Y-176397870D01*
X206149501Y-176397876D01*
X206155908Y-176457483D01*
X206206202Y-176592328D01*
X206206206Y-176592335D01*
X206292452Y-176707544D01*
X206292455Y-176707547D01*
X206407664Y-176793793D01*
X206407671Y-176793797D01*
X206542517Y-176844091D01*
X206542516Y-176844091D01*
X206549444Y-176844835D01*
X206602127Y-176850500D01*
X208397872Y-176850499D01*
X208457483Y-176844091D01*
X208592331Y-176793796D01*
X208707546Y-176707546D01*
X208793796Y-176592331D01*
X208844091Y-176457483D01*
X208850500Y-176397873D01*
X208850499Y-174602128D01*
X208844091Y-174542517D01*
X208844090Y-174542515D01*
X208793797Y-174407671D01*
X208793793Y-174407664D01*
X208708551Y-174293797D01*
X208707546Y-174292454D01*
X208707292Y-174292264D01*
X208707103Y-174292012D01*
X208701272Y-174286180D01*
X208702110Y-174285341D01*
X208665420Y-174236332D01*
X208660433Y-174166641D01*
X208693914Y-174105319D01*
X215287819Y-167511415D01*
X215349142Y-167477930D01*
X215418834Y-167482914D01*
X215474767Y-167524786D01*
X215499184Y-167590250D01*
X215499500Y-167599096D01*
X215499500Y-167626611D01*
X215504140Y-167655908D01*
X215525766Y-167792452D01*
X215526598Y-167797701D01*
X215562329Y-167907669D01*
X215580126Y-167962442D01*
X215580128Y-167962447D01*
X215589248Y-167980346D01*
X215602143Y-168049015D01*
X215575866Y-168113755D01*
X215566443Y-168124320D01*
X213131286Y-170559478D01*
X213019481Y-170671282D01*
X213019479Y-170671285D01*
X212975523Y-170747421D01*
X212975522Y-170747422D01*
X212948509Y-170794210D01*
X212940423Y-170808215D01*
X212899499Y-170960943D01*
X212899499Y-170960945D01*
X212899499Y-171129046D01*
X212899500Y-171129059D01*
X212899500Y-175525500D01*
X212879815Y-175592539D01*
X212827011Y-175638294D01*
X212775501Y-175649500D01*
X212602130Y-175649500D01*
X212602123Y-175649501D01*
X212542516Y-175655908D01*
X212407671Y-175706202D01*
X212407664Y-175706206D01*
X212292455Y-175792452D01*
X212292452Y-175792455D01*
X212206206Y-175907664D01*
X212206202Y-175907671D01*
X212155908Y-176042517D01*
X212149501Y-176102116D01*
X212149501Y-176102123D01*
X212149500Y-176102135D01*
X212149500Y-177897870D01*
X212149501Y-177897876D01*
X212155908Y-177957483D01*
X212206202Y-178092328D01*
X212206206Y-178092335D01*
X212292452Y-178207544D01*
X212292455Y-178207547D01*
X212407664Y-178293793D01*
X212407671Y-178293797D01*
X212542517Y-178344091D01*
X212542516Y-178344091D01*
X212549444Y-178344835D01*
X212602127Y-178350500D01*
X214397872Y-178350499D01*
X214457483Y-178344091D01*
X214592331Y-178293796D01*
X214707546Y-178207546D01*
X214793796Y-178092331D01*
X214844091Y-177957483D01*
X214850500Y-177897873D01*
X214850499Y-176102128D01*
X214844091Y-176042517D01*
X214832555Y-176011588D01*
X214793797Y-175907671D01*
X214793793Y-175907664D01*
X214707547Y-175792455D01*
X214707544Y-175792452D01*
X214592335Y-175706206D01*
X214592328Y-175706202D01*
X214457482Y-175655908D01*
X214457483Y-175655908D01*
X214397883Y-175649501D01*
X214397881Y-175649500D01*
X214397873Y-175649500D01*
X214397865Y-175649500D01*
X214224500Y-175649500D01*
X214157461Y-175629815D01*
X214111706Y-175577011D01*
X214100500Y-175525500D01*
X214100500Y-171340096D01*
X214120185Y-171273057D01*
X214136814Y-171252420D01*
X215289561Y-170099672D01*
X215350882Y-170066189D01*
X215420574Y-170071173D01*
X215476507Y-170113045D01*
X215499713Y-170167957D01*
X215526166Y-170334977D01*
X215526598Y-170337701D01*
X215530757Y-170350500D01*
X215580126Y-170502442D01*
X215580128Y-170502447D01*
X215589248Y-170520346D01*
X215602143Y-170589015D01*
X215575866Y-170653755D01*
X215566444Y-170664320D01*
X215404286Y-170826478D01*
X215292481Y-170938282D01*
X215292479Y-170938284D01*
X215275348Y-170967957D01*
X215268107Y-170980500D01*
X215213423Y-171075215D01*
X215172499Y-171227943D01*
X215172499Y-171227945D01*
X215172499Y-171396046D01*
X215172500Y-171396059D01*
X215172500Y-174186330D01*
X215172499Y-174186348D01*
X215172499Y-174352054D01*
X215172498Y-174352054D01*
X215172499Y-174352057D01*
X215213423Y-174504785D01*
X215235208Y-174542517D01*
X215269617Y-174602116D01*
X215292479Y-174641714D01*
X215292481Y-174641717D01*
X215411349Y-174760585D01*
X215411355Y-174760590D01*
X217113181Y-176462416D01*
X217146666Y-176523739D01*
X217149500Y-176550097D01*
X217149500Y-177897870D01*
X217149501Y-177897876D01*
X217155908Y-177957483D01*
X217206202Y-178092328D01*
X217206206Y-178092335D01*
X217292452Y-178207544D01*
X217292455Y-178207547D01*
X217407664Y-178293793D01*
X217407671Y-178293797D01*
X217542517Y-178344091D01*
X217542516Y-178344091D01*
X217549444Y-178344835D01*
X217602127Y-178350500D01*
X219397872Y-178350499D01*
X219457483Y-178344091D01*
X219592331Y-178293796D01*
X219707546Y-178207546D01*
X219793796Y-178092331D01*
X219844091Y-177957483D01*
X219850500Y-177897873D01*
X219850499Y-176102128D01*
X219844091Y-176042517D01*
X219832555Y-176011588D01*
X219793797Y-175907671D01*
X219793793Y-175907664D01*
X219707547Y-175792455D01*
X219707544Y-175792452D01*
X219592335Y-175706206D01*
X219592328Y-175706202D01*
X219457482Y-175655908D01*
X219457483Y-175655908D01*
X219397883Y-175649501D01*
X219397881Y-175649500D01*
X219397873Y-175649500D01*
X219397865Y-175649500D01*
X218050097Y-175649500D01*
X217983058Y-175629815D01*
X217962416Y-175613181D01*
X216409819Y-174060584D01*
X216376334Y-173999261D01*
X216373500Y-173972903D01*
X216373500Y-173843528D01*
X216393185Y-173776489D01*
X216445989Y-173730734D01*
X216508408Y-173721758D01*
X216508538Y-173720118D01*
X216513389Y-173720500D01*
X217486610Y-173720500D01*
X217486611Y-173720500D01*
X217657701Y-173693402D01*
X217822445Y-173639873D01*
X217976788Y-173561232D01*
X218116928Y-173459414D01*
X218239414Y-173336928D01*
X218341232Y-173196788D01*
X218419873Y-173042445D01*
X218473402Y-172877701D01*
X218500500Y-172706611D01*
X218500500Y-172533389D01*
X218473402Y-172362299D01*
X218441692Y-172264709D01*
X218439698Y-172194870D01*
X218471941Y-172138714D01*
X222587821Y-168022835D01*
X222649142Y-167989352D01*
X222718834Y-167994336D01*
X222774767Y-168036208D01*
X222799184Y-168101672D01*
X222799500Y-168110518D01*
X222799500Y-175525500D01*
X222779815Y-175592539D01*
X222727011Y-175638294D01*
X222675502Y-175649500D01*
X222602130Y-175649500D01*
X222602123Y-175649501D01*
X222542516Y-175655908D01*
X222407671Y-175706202D01*
X222407664Y-175706206D01*
X222292455Y-175792452D01*
X222292452Y-175792455D01*
X222206206Y-175907664D01*
X222206202Y-175907671D01*
X222155908Y-176042517D01*
X222149501Y-176102116D01*
X222149501Y-176102123D01*
X222149500Y-176102135D01*
X222149500Y-177897870D01*
X222149501Y-177897876D01*
X222155908Y-177957483D01*
X222206202Y-178092328D01*
X222206206Y-178092335D01*
X222292452Y-178207544D01*
X222292455Y-178207547D01*
X222407664Y-178293793D01*
X222407671Y-178293797D01*
X222542517Y-178344091D01*
X222542516Y-178344091D01*
X222549444Y-178344835D01*
X222602127Y-178350500D01*
X224397872Y-178350499D01*
X224457483Y-178344091D01*
X224592331Y-178293796D01*
X224707546Y-178207546D01*
X224793796Y-178092331D01*
X224844091Y-177957483D01*
X224850500Y-177897873D01*
X224850499Y-176102135D01*
X230649500Y-176102135D01*
X230649500Y-177897870D01*
X230649501Y-177897876D01*
X230655908Y-177957483D01*
X230706202Y-178092328D01*
X230706206Y-178092335D01*
X230792452Y-178207544D01*
X230792455Y-178207547D01*
X230907664Y-178293793D01*
X230907671Y-178293797D01*
X231042517Y-178344091D01*
X231042516Y-178344091D01*
X231049444Y-178344835D01*
X231102127Y-178350500D01*
X232897872Y-178350499D01*
X232957483Y-178344091D01*
X233092331Y-178293796D01*
X233207546Y-178207546D01*
X233293796Y-178092331D01*
X233344091Y-177957483D01*
X233350500Y-177897873D01*
X233350499Y-176550095D01*
X233370184Y-176483057D01*
X233386813Y-176462420D01*
X233747098Y-176102135D01*
X235649500Y-176102135D01*
X235649500Y-177897870D01*
X235649501Y-177897876D01*
X235655908Y-177957483D01*
X235706202Y-178092328D01*
X235706206Y-178092335D01*
X235792452Y-178207544D01*
X235792455Y-178207547D01*
X235907664Y-178293793D01*
X235907671Y-178293797D01*
X236042517Y-178344091D01*
X236042516Y-178344091D01*
X236049444Y-178344835D01*
X236102127Y-178350500D01*
X237897872Y-178350499D01*
X237957483Y-178344091D01*
X238092331Y-178293796D01*
X238207546Y-178207546D01*
X238293796Y-178092331D01*
X238344091Y-177957483D01*
X238350500Y-177897873D01*
X238350499Y-176102135D01*
X240649500Y-176102135D01*
X240649500Y-177897870D01*
X240649501Y-177897876D01*
X240655908Y-177957483D01*
X240706202Y-178092328D01*
X240706206Y-178092335D01*
X240792452Y-178207544D01*
X240792455Y-178207547D01*
X240907664Y-178293793D01*
X240907671Y-178293797D01*
X241042517Y-178344091D01*
X241042516Y-178344091D01*
X241049444Y-178344835D01*
X241102127Y-178350500D01*
X242897872Y-178350499D01*
X242957483Y-178344091D01*
X243092331Y-178293796D01*
X243207546Y-178207546D01*
X243293796Y-178092331D01*
X243344091Y-177957483D01*
X243350500Y-177897873D01*
X243350499Y-176102135D01*
X247149500Y-176102135D01*
X247149500Y-177897870D01*
X247149501Y-177897876D01*
X247155908Y-177957483D01*
X247206202Y-178092328D01*
X247206206Y-178092335D01*
X247292452Y-178207544D01*
X247292455Y-178207547D01*
X247407664Y-178293793D01*
X247407671Y-178293797D01*
X247542517Y-178344091D01*
X247542516Y-178344091D01*
X247549444Y-178344835D01*
X247602127Y-178350500D01*
X249397872Y-178350499D01*
X249457483Y-178344091D01*
X249592331Y-178293796D01*
X249707546Y-178207546D01*
X249793796Y-178092331D01*
X249844091Y-177957483D01*
X249850500Y-177897873D01*
X249850499Y-176102128D01*
X249844091Y-176042517D01*
X249832555Y-176011588D01*
X249793797Y-175907671D01*
X249793793Y-175907664D01*
X249707547Y-175792455D01*
X249707544Y-175792452D01*
X249592335Y-175706206D01*
X249592328Y-175706202D01*
X249457482Y-175655908D01*
X249457483Y-175655908D01*
X249397883Y-175649501D01*
X249397881Y-175649500D01*
X249397873Y-175649500D01*
X249397864Y-175649500D01*
X247602129Y-175649500D01*
X247602123Y-175649501D01*
X247542516Y-175655908D01*
X247407671Y-175706202D01*
X247407664Y-175706206D01*
X247292455Y-175792452D01*
X247292452Y-175792455D01*
X247206206Y-175907664D01*
X247206202Y-175907671D01*
X247155908Y-176042517D01*
X247149501Y-176102116D01*
X247149501Y-176102123D01*
X247149500Y-176102135D01*
X243350499Y-176102135D01*
X243350499Y-176102128D01*
X243344091Y-176042517D01*
X243332555Y-176011588D01*
X243293797Y-175907671D01*
X243293793Y-175907664D01*
X243207547Y-175792455D01*
X243207544Y-175792452D01*
X243092335Y-175706206D01*
X243092328Y-175706202D01*
X242957482Y-175655908D01*
X242957483Y-175655908D01*
X242897883Y-175649501D01*
X242897881Y-175649500D01*
X242897873Y-175649500D01*
X242897864Y-175649500D01*
X241102129Y-175649500D01*
X241102123Y-175649501D01*
X241042516Y-175655908D01*
X240907671Y-175706202D01*
X240907664Y-175706206D01*
X240792455Y-175792452D01*
X240792452Y-175792455D01*
X240706206Y-175907664D01*
X240706202Y-175907671D01*
X240655908Y-176042517D01*
X240649501Y-176102116D01*
X240649501Y-176102123D01*
X240649500Y-176102135D01*
X238350499Y-176102135D01*
X238350499Y-176102128D01*
X238344091Y-176042517D01*
X238332555Y-176011588D01*
X238293797Y-175907671D01*
X238293793Y-175907664D01*
X238207547Y-175792455D01*
X238207544Y-175792452D01*
X238092335Y-175706206D01*
X238092328Y-175706202D01*
X237957482Y-175655908D01*
X237957483Y-175655908D01*
X237897883Y-175649501D01*
X237897881Y-175649500D01*
X237897873Y-175649500D01*
X237897864Y-175649500D01*
X236102129Y-175649500D01*
X236102123Y-175649501D01*
X236042516Y-175655908D01*
X235907671Y-175706202D01*
X235907664Y-175706206D01*
X235792455Y-175792452D01*
X235792452Y-175792455D01*
X235706206Y-175907664D01*
X235706202Y-175907671D01*
X235655908Y-176042517D01*
X235649501Y-176102116D01*
X235649501Y-176102123D01*
X235649500Y-176102135D01*
X233747098Y-176102135D01*
X234695521Y-175153713D01*
X265349500Y-175153713D01*
X265349500Y-175366287D01*
X265382754Y-175576243D01*
X265424980Y-175706202D01*
X265448444Y-175778414D01*
X265544951Y-175967820D01*
X265669890Y-176139786D01*
X265820213Y-176290109D01*
X265992179Y-176415048D01*
X265992181Y-176415049D01*
X265992184Y-176415051D01*
X266181588Y-176511557D01*
X266383757Y-176577246D01*
X266593713Y-176610500D01*
X266593714Y-176610500D01*
X266806286Y-176610500D01*
X266806287Y-176610500D01*
X267016243Y-176577246D01*
X267218412Y-176511557D01*
X267407816Y-176415051D01*
X267431472Y-176397864D01*
X267579786Y-176290109D01*
X267579788Y-176290106D01*
X267579792Y-176290104D01*
X267730104Y-176139792D01*
X267730106Y-176139788D01*
X267730109Y-176139786D01*
X267855048Y-175967820D01*
X267855047Y-175967820D01*
X267855051Y-175967816D01*
X267951557Y-175778412D01*
X268017246Y-175576243D01*
X268050500Y-175366287D01*
X268050500Y-175153713D01*
X268017246Y-174943757D01*
X267951557Y-174741588D01*
X267855051Y-174552184D01*
X267855049Y-174552181D01*
X267855048Y-174552179D01*
X267730109Y-174380213D01*
X267579786Y-174229890D01*
X267407820Y-174104951D01*
X267218414Y-174008444D01*
X267218413Y-174008443D01*
X267218412Y-174008443D01*
X267016243Y-173942754D01*
X267016241Y-173942753D01*
X267016240Y-173942753D01*
X266854957Y-173917208D01*
X266806287Y-173909500D01*
X266593713Y-173909500D01*
X266545042Y-173917208D01*
X266383760Y-173942753D01*
X266181585Y-174008444D01*
X265992179Y-174104951D01*
X265820213Y-174229890D01*
X265669890Y-174380213D01*
X265544951Y-174552179D01*
X265448444Y-174741585D01*
X265382753Y-174943760D01*
X265349500Y-175153713D01*
X234695521Y-175153713D01*
X236595136Y-173254099D01*
X236656459Y-173220614D01*
X236682817Y-173217780D01*
X241009135Y-173217780D01*
X241076174Y-173237465D01*
X241109451Y-173268892D01*
X241156906Y-173334208D01*
X241279392Y-173456694D01*
X241419532Y-173558512D01*
X241573875Y-173637153D01*
X241738619Y-173690682D01*
X241909709Y-173717780D01*
X241909710Y-173717780D01*
X242882930Y-173717780D01*
X242882931Y-173717780D01*
X243054021Y-173690682D01*
X243218765Y-173637153D01*
X243373108Y-173558512D01*
X243513248Y-173456694D01*
X243635734Y-173334208D01*
X243737552Y-173194068D01*
X243816193Y-173039725D01*
X243869722Y-172874981D01*
X243896820Y-172703891D01*
X243896820Y-172530669D01*
X243869722Y-172359579D01*
X243816193Y-172194835D01*
X243768960Y-172102135D01*
X247149500Y-172102135D01*
X247149500Y-173897870D01*
X247149501Y-173897876D01*
X247155908Y-173957483D01*
X247206202Y-174092328D01*
X247206206Y-174092335D01*
X247292452Y-174207544D01*
X247292455Y-174207547D01*
X247407664Y-174293793D01*
X247407671Y-174293797D01*
X247542517Y-174344091D01*
X247542516Y-174344091D01*
X247549444Y-174344835D01*
X247602127Y-174350500D01*
X249397872Y-174350499D01*
X249457483Y-174344091D01*
X249592331Y-174293796D01*
X249707546Y-174207546D01*
X249793796Y-174092331D01*
X249844091Y-173957483D01*
X249850500Y-173897873D01*
X249850499Y-172102128D01*
X249844091Y-172042517D01*
X249843335Y-172040491D01*
X249793797Y-171907671D01*
X249793793Y-171907664D01*
X249707547Y-171792455D01*
X249707544Y-171792452D01*
X249592335Y-171706206D01*
X249592328Y-171706202D01*
X249457482Y-171655908D01*
X249457483Y-171655908D01*
X249397883Y-171649501D01*
X249397881Y-171649500D01*
X249397873Y-171649500D01*
X249397864Y-171649500D01*
X247602129Y-171649500D01*
X247602123Y-171649501D01*
X247542516Y-171655908D01*
X247407671Y-171706202D01*
X247407664Y-171706206D01*
X247292455Y-171792452D01*
X247292452Y-171792455D01*
X247206206Y-171907664D01*
X247206202Y-171907671D01*
X247155908Y-172042517D01*
X247151165Y-172086639D01*
X247149501Y-172102123D01*
X247149500Y-172102135D01*
X243768960Y-172102135D01*
X243737552Y-172040492D01*
X243635734Y-171900352D01*
X243513248Y-171777866D01*
X243373108Y-171676048D01*
X243218765Y-171597407D01*
X243054021Y-171543878D01*
X243054019Y-171543877D01*
X243054018Y-171543877D01*
X242900104Y-171519500D01*
X242882931Y-171516780D01*
X241909709Y-171516780D01*
X241892536Y-171519500D01*
X241738622Y-171543877D01*
X241573872Y-171597408D01*
X241419531Y-171676048D01*
X241378023Y-171706206D01*
X241279392Y-171777866D01*
X241279390Y-171777868D01*
X241279389Y-171777868D01*
X241156908Y-171900349D01*
X241156908Y-171900350D01*
X241156906Y-171900352D01*
X241109453Y-171965666D01*
X241054123Y-172008331D01*
X241009135Y-172016780D01*
X236461777Y-172016780D01*
X236303663Y-172016780D01*
X236150935Y-172057703D01*
X236150934Y-172057703D01*
X236150932Y-172057704D01*
X236150929Y-172057705D01*
X236100816Y-172086639D01*
X236100815Y-172086640D01*
X236073991Y-172102127D01*
X236014005Y-172136759D01*
X236014002Y-172136761D01*
X235902198Y-172248566D01*
X232537582Y-175613181D01*
X232476259Y-175646666D01*
X232449901Y-175649500D01*
X231102129Y-175649500D01*
X231102123Y-175649501D01*
X231042516Y-175655908D01*
X230907671Y-175706202D01*
X230907664Y-175706206D01*
X230792455Y-175792452D01*
X230792452Y-175792455D01*
X230706206Y-175907664D01*
X230706202Y-175907671D01*
X230655908Y-176042517D01*
X230649501Y-176102116D01*
X230649501Y-176102123D01*
X230649500Y-176102135D01*
X224850499Y-176102135D01*
X224850499Y-176102128D01*
X224844091Y-176042517D01*
X224832555Y-176011588D01*
X224793797Y-175907671D01*
X224793793Y-175907664D01*
X224707547Y-175792455D01*
X224707544Y-175792452D01*
X224592335Y-175706206D01*
X224592328Y-175706202D01*
X224457482Y-175655908D01*
X224457483Y-175655908D01*
X224397883Y-175649501D01*
X224397881Y-175649500D01*
X224397873Y-175649500D01*
X224397865Y-175649500D01*
X224324500Y-175649500D01*
X224257461Y-175629815D01*
X224211706Y-175577011D01*
X224200500Y-175525500D01*
X224200500Y-169990669D01*
X240895820Y-169990669D01*
X240895820Y-170163890D01*
X240916182Y-170292455D01*
X240922918Y-170334981D01*
X240976447Y-170499725D01*
X241055088Y-170654068D01*
X241156906Y-170794208D01*
X241279392Y-170916694D01*
X241419532Y-171018512D01*
X241573875Y-171097153D01*
X241738619Y-171150682D01*
X241909709Y-171177780D01*
X241909710Y-171177780D01*
X242882930Y-171177780D01*
X242882931Y-171177780D01*
X243054021Y-171150682D01*
X243218765Y-171097153D01*
X243373108Y-171018512D01*
X243513248Y-170916694D01*
X243635734Y-170794208D01*
X243737552Y-170654068D01*
X243816193Y-170499725D01*
X243869722Y-170334981D01*
X243896820Y-170163891D01*
X243896820Y-169990669D01*
X243869722Y-169819579D01*
X243816193Y-169654835D01*
X243737552Y-169500492D01*
X243635734Y-169360352D01*
X243513248Y-169237866D01*
X243373108Y-169136048D01*
X243218765Y-169057407D01*
X243054021Y-169003878D01*
X243054019Y-169003877D01*
X243054018Y-169003877D01*
X242900104Y-168979500D01*
X242882931Y-168976780D01*
X241909709Y-168976780D01*
X241892536Y-168979500D01*
X241738622Y-169003877D01*
X241573872Y-169057408D01*
X241419531Y-169136048D01*
X241339576Y-169194139D01*
X241279392Y-169237866D01*
X241279390Y-169237868D01*
X241279389Y-169237868D01*
X241156908Y-169360349D01*
X241156908Y-169360350D01*
X241156906Y-169360352D01*
X241154930Y-169363072D01*
X241055088Y-169500491D01*
X240976448Y-169654832D01*
X240922917Y-169819582D01*
X240895820Y-169990669D01*
X224200500Y-169990669D01*
X224200500Y-167453389D01*
X240899500Y-167453389D01*
X240899500Y-167626611D01*
X240904140Y-167655908D01*
X240925766Y-167792452D01*
X240926598Y-167797701D01*
X240980127Y-167962445D01*
X241058768Y-168116788D01*
X241160586Y-168256928D01*
X241283072Y-168379414D01*
X241423212Y-168481232D01*
X241577555Y-168559873D01*
X241742299Y-168613402D01*
X241913389Y-168640500D01*
X241913390Y-168640500D01*
X242886610Y-168640500D01*
X242886611Y-168640500D01*
X243057701Y-168613402D01*
X243222445Y-168559873D01*
X243376788Y-168481232D01*
X243516928Y-168379414D01*
X243639414Y-168256928D01*
X243741232Y-168116788D01*
X243748698Y-168102135D01*
X247149500Y-168102135D01*
X247149500Y-169897870D01*
X247149501Y-169897876D01*
X247155908Y-169957483D01*
X247206202Y-170092328D01*
X247206206Y-170092335D01*
X247292452Y-170207544D01*
X247292455Y-170207547D01*
X247407664Y-170293793D01*
X247407671Y-170293797D01*
X247542517Y-170344091D01*
X247542516Y-170344091D01*
X247549444Y-170344835D01*
X247602127Y-170350500D01*
X249397872Y-170350499D01*
X249457483Y-170344091D01*
X249592331Y-170293796D01*
X249707546Y-170207546D01*
X249793796Y-170092331D01*
X249844091Y-169957483D01*
X249850500Y-169897873D01*
X249850499Y-168102128D01*
X249844091Y-168042517D01*
X249828233Y-168000000D01*
X249793797Y-167907671D01*
X249793793Y-167907664D01*
X249707547Y-167792455D01*
X249707544Y-167792452D01*
X249592335Y-167706206D01*
X249592328Y-167706202D01*
X249457482Y-167655908D01*
X249457483Y-167655908D01*
X249397883Y-167649501D01*
X249397881Y-167649500D01*
X249397873Y-167649500D01*
X249397864Y-167649500D01*
X247602129Y-167649500D01*
X247602123Y-167649501D01*
X247542516Y-167655908D01*
X247407671Y-167706202D01*
X247407664Y-167706206D01*
X247292455Y-167792452D01*
X247292452Y-167792455D01*
X247206206Y-167907664D01*
X247206202Y-167907671D01*
X247155908Y-168042517D01*
X247149549Y-168101672D01*
X247149501Y-168102123D01*
X247149500Y-168102135D01*
X243748698Y-168102135D01*
X243819873Y-167962445D01*
X243873402Y-167797701D01*
X243900500Y-167626611D01*
X243900500Y-167453389D01*
X243873402Y-167282299D01*
X243819873Y-167117555D01*
X243741232Y-166963212D01*
X243639414Y-166823072D01*
X243516928Y-166700586D01*
X243376788Y-166598768D01*
X243222445Y-166520127D01*
X243057701Y-166466598D01*
X243057699Y-166466597D01*
X243057698Y-166466597D01*
X242926271Y-166445781D01*
X242886611Y-166439500D01*
X241913389Y-166439500D01*
X241873728Y-166445781D01*
X241742302Y-166466597D01*
X241577552Y-166520128D01*
X241423211Y-166598768D01*
X241343256Y-166656859D01*
X241283072Y-166700586D01*
X241283070Y-166700588D01*
X241283069Y-166700588D01*
X241160588Y-166823069D01*
X241160588Y-166823070D01*
X241160586Y-166823072D01*
X241116859Y-166883256D01*
X241058768Y-166963211D01*
X240980128Y-167117552D01*
X240926597Y-167282302D01*
X240902543Y-167434174D01*
X240899500Y-167453389D01*
X224200500Y-167453389D01*
X224200500Y-166461519D01*
X224220185Y-166394480D01*
X224236814Y-166373842D01*
X224344114Y-166266543D01*
X224420775Y-166151811D01*
X224473580Y-166024329D01*
X224480208Y-165991006D01*
X224498734Y-165897870D01*
X224500500Y-165888994D01*
X224500500Y-164913389D01*
X240899500Y-164913389D01*
X240899500Y-165086610D01*
X240926597Y-165257697D01*
X240926597Y-165257699D01*
X240926598Y-165257701D01*
X240980127Y-165422445D01*
X241058768Y-165576788D01*
X241160586Y-165716928D01*
X241283072Y-165839414D01*
X241423212Y-165941232D01*
X241577555Y-166019873D01*
X241742299Y-166073402D01*
X241913389Y-166100500D01*
X241913390Y-166100500D01*
X242886610Y-166100500D01*
X242886611Y-166100500D01*
X243057701Y-166073402D01*
X243222445Y-166019873D01*
X243376788Y-165941232D01*
X243516928Y-165839414D01*
X243639414Y-165716928D01*
X243741232Y-165576788D01*
X243819873Y-165422445D01*
X243873402Y-165257701D01*
X243900500Y-165086611D01*
X243900500Y-164913389D01*
X243873402Y-164742299D01*
X243819873Y-164577555D01*
X243741232Y-164423212D01*
X243639414Y-164283072D01*
X243516928Y-164160586D01*
X243436477Y-164102135D01*
X247149500Y-164102135D01*
X247149500Y-165897870D01*
X247149501Y-165897876D01*
X247155908Y-165957483D01*
X247206202Y-166092328D01*
X247206206Y-166092335D01*
X247292452Y-166207544D01*
X247292455Y-166207547D01*
X247407664Y-166293793D01*
X247407671Y-166293797D01*
X247542517Y-166344091D01*
X247542516Y-166344091D01*
X247549444Y-166344835D01*
X247602127Y-166350500D01*
X249397872Y-166350499D01*
X249457483Y-166344091D01*
X249592331Y-166293796D01*
X249707546Y-166207546D01*
X249793796Y-166092331D01*
X249844091Y-165957483D01*
X249850500Y-165897873D01*
X249850499Y-164102128D01*
X249844091Y-164042517D01*
X249820967Y-163980519D01*
X249793797Y-163907671D01*
X249793793Y-163907664D01*
X249707547Y-163792455D01*
X249707544Y-163792452D01*
X249592335Y-163706206D01*
X249592328Y-163706202D01*
X249457482Y-163655908D01*
X249457483Y-163655908D01*
X249397883Y-163649501D01*
X249397881Y-163649500D01*
X249397873Y-163649500D01*
X249397864Y-163649500D01*
X247602129Y-163649500D01*
X247602123Y-163649501D01*
X247542516Y-163655908D01*
X247407671Y-163706202D01*
X247407664Y-163706206D01*
X247292455Y-163792452D01*
X247292452Y-163792455D01*
X247206206Y-163907664D01*
X247206202Y-163907671D01*
X247155908Y-164042517D01*
X247149675Y-164100500D01*
X247149501Y-164102123D01*
X247149500Y-164102135D01*
X243436477Y-164102135D01*
X243376788Y-164058768D01*
X243222445Y-163980127D01*
X243057701Y-163926598D01*
X243057699Y-163926597D01*
X243057698Y-163926597D01*
X242926271Y-163905781D01*
X242886611Y-163899500D01*
X241913389Y-163899500D01*
X241873728Y-163905781D01*
X241742302Y-163926597D01*
X241577552Y-163980128D01*
X241423211Y-164058768D01*
X241350349Y-164111706D01*
X241283072Y-164160586D01*
X241283070Y-164160588D01*
X241283069Y-164160588D01*
X241160588Y-164283069D01*
X241160588Y-164283070D01*
X241160586Y-164283072D01*
X241116859Y-164343256D01*
X241058768Y-164423211D01*
X240980128Y-164577552D01*
X240926597Y-164742302D01*
X240899500Y-164913389D01*
X224500500Y-164913389D01*
X224500500Y-163130012D01*
X224520185Y-163062973D01*
X224572989Y-163017218D01*
X224642147Y-163007274D01*
X224690532Y-163028194D01*
X224691842Y-163026111D01*
X224697737Y-163029815D01*
X224697738Y-163029816D01*
X224850478Y-163125789D01*
X224862547Y-163130012D01*
X225020745Y-163185368D01*
X225020750Y-163185369D01*
X225199996Y-163205565D01*
X225200000Y-163205565D01*
X225200004Y-163205565D01*
X225379249Y-163185369D01*
X225379252Y-163185368D01*
X225379255Y-163185368D01*
X225549522Y-163125789D01*
X225702262Y-163029816D01*
X225829816Y-162902262D01*
X225925789Y-162749522D01*
X225985368Y-162579255D01*
X225989046Y-162546611D01*
X226005565Y-162400003D01*
X226005565Y-162399996D01*
X226002567Y-162373389D01*
X240899500Y-162373389D01*
X240899500Y-162546610D01*
X240920884Y-162681629D01*
X240926598Y-162717701D01*
X240980127Y-162882445D01*
X241058768Y-163036788D01*
X241160586Y-163176928D01*
X241283072Y-163299414D01*
X241423212Y-163401232D01*
X241577555Y-163479873D01*
X241742299Y-163533402D01*
X241913389Y-163560500D01*
X241913390Y-163560500D01*
X242886610Y-163560500D01*
X242886611Y-163560500D01*
X243057701Y-163533402D01*
X243222445Y-163479873D01*
X243376788Y-163401232D01*
X243516928Y-163299414D01*
X243639414Y-163176928D01*
X243741232Y-163036788D01*
X243819873Y-162882445D01*
X243873402Y-162717701D01*
X243900500Y-162546611D01*
X243900500Y-162373389D01*
X243873402Y-162202299D01*
X243819873Y-162037555D01*
X243741232Y-161883212D01*
X243639414Y-161743072D01*
X243516928Y-161620586D01*
X243376788Y-161518768D01*
X243222445Y-161440127D01*
X243057701Y-161386598D01*
X243057699Y-161386597D01*
X243057698Y-161386597D01*
X242926271Y-161365781D01*
X242886611Y-161359500D01*
X241913389Y-161359500D01*
X241873728Y-161365781D01*
X241742302Y-161386597D01*
X241577552Y-161440128D01*
X241423211Y-161518768D01*
X241343256Y-161576859D01*
X241283072Y-161620586D01*
X241283070Y-161620588D01*
X241283069Y-161620588D01*
X241160588Y-161743069D01*
X241160588Y-161743070D01*
X241160586Y-161743072D01*
X241116859Y-161803256D01*
X241058768Y-161883211D01*
X240980128Y-162037552D01*
X240926597Y-162202302D01*
X240899500Y-162373389D01*
X226002567Y-162373389D01*
X225985369Y-162220750D01*
X225985368Y-162220745D01*
X225980279Y-162206202D01*
X225925789Y-162050478D01*
X225829816Y-161897738D01*
X225829814Y-161897736D01*
X225829813Y-161897734D01*
X225827550Y-161894896D01*
X225826659Y-161892715D01*
X225826111Y-161891842D01*
X225826264Y-161891745D01*
X225801144Y-161830209D01*
X225800500Y-161817587D01*
X225800500Y-159833389D01*
X240899500Y-159833389D01*
X240899500Y-160006610D01*
X240914629Y-160102135D01*
X240926598Y-160177701D01*
X240980127Y-160342445D01*
X241058768Y-160496788D01*
X241160586Y-160636928D01*
X241283072Y-160759414D01*
X241423212Y-160861232D01*
X241577555Y-160939873D01*
X241742299Y-160993402D01*
X241913389Y-161020500D01*
X241913390Y-161020500D01*
X242886610Y-161020500D01*
X242886611Y-161020500D01*
X243057701Y-160993402D01*
X243222445Y-160939873D01*
X243376788Y-160861232D01*
X243516928Y-160759414D01*
X243639414Y-160636928D01*
X243741232Y-160496788D01*
X243819873Y-160342445D01*
X243873402Y-160177701D01*
X243885370Y-160102135D01*
X247149500Y-160102135D01*
X247149500Y-161897870D01*
X247149501Y-161897876D01*
X247155908Y-161957483D01*
X247206202Y-162092328D01*
X247206206Y-162092335D01*
X247292452Y-162207544D01*
X247292455Y-162207547D01*
X247407664Y-162293793D01*
X247407671Y-162293797D01*
X247542517Y-162344091D01*
X247542516Y-162344091D01*
X247549444Y-162344835D01*
X247602127Y-162350500D01*
X249397872Y-162350499D01*
X249457483Y-162344091D01*
X249592331Y-162293796D01*
X249707546Y-162207546D01*
X249793796Y-162092331D01*
X249844091Y-161957483D01*
X249850500Y-161897873D01*
X249850499Y-160102128D01*
X249844091Y-160042517D01*
X249818036Y-159972661D01*
X249793797Y-159907671D01*
X249793793Y-159907664D01*
X249707547Y-159792455D01*
X249707544Y-159792452D01*
X249592335Y-159706206D01*
X249592328Y-159706202D01*
X249457482Y-159655908D01*
X249457483Y-159655908D01*
X249397883Y-159649501D01*
X249397881Y-159649500D01*
X249397873Y-159649500D01*
X249397864Y-159649500D01*
X247602129Y-159649500D01*
X247602123Y-159649501D01*
X247542516Y-159655908D01*
X247407671Y-159706202D01*
X247407664Y-159706206D01*
X247292455Y-159792452D01*
X247292452Y-159792455D01*
X247206206Y-159907664D01*
X247206202Y-159907671D01*
X247155908Y-160042517D01*
X247149501Y-160102116D01*
X247149501Y-160102123D01*
X247149500Y-160102135D01*
X243885370Y-160102135D01*
X243900500Y-160006611D01*
X243900500Y-159833389D01*
X243873402Y-159662299D01*
X243819873Y-159497555D01*
X243741232Y-159343212D01*
X243639414Y-159203072D01*
X243516928Y-159080586D01*
X243376788Y-158978768D01*
X243222445Y-158900127D01*
X243057701Y-158846598D01*
X243057699Y-158846597D01*
X243057698Y-158846597D01*
X242926271Y-158825781D01*
X242886611Y-158819500D01*
X241913389Y-158819500D01*
X241873728Y-158825781D01*
X241742302Y-158846597D01*
X241577552Y-158900128D01*
X241423211Y-158978768D01*
X241343256Y-159036859D01*
X241283072Y-159080586D01*
X241283070Y-159080588D01*
X241283069Y-159080588D01*
X241160588Y-159203069D01*
X241160588Y-159203070D01*
X241160586Y-159203072D01*
X241160350Y-159203397D01*
X241058768Y-159343211D01*
X240980128Y-159497552D01*
X240926597Y-159662302D01*
X240899500Y-159833389D01*
X225800500Y-159833389D01*
X225800500Y-152213389D01*
X240899500Y-152213389D01*
X240899500Y-152386611D01*
X240926598Y-152557701D01*
X240980127Y-152722445D01*
X241058768Y-152876788D01*
X241160586Y-153016928D01*
X241283072Y-153139414D01*
X241423212Y-153241232D01*
X241577555Y-153319873D01*
X241742299Y-153373402D01*
X241913389Y-153400500D01*
X241913390Y-153400500D01*
X242886610Y-153400500D01*
X242886611Y-153400500D01*
X243057701Y-153373402D01*
X243222445Y-153319873D01*
X243376788Y-153241232D01*
X243516928Y-153139414D01*
X243639414Y-153016928D01*
X243741232Y-152876788D01*
X243819873Y-152722445D01*
X243873402Y-152557701D01*
X243900500Y-152386611D01*
X243900500Y-152213389D01*
X243873402Y-152042299D01*
X243819873Y-151877555D01*
X243741232Y-151723212D01*
X243639414Y-151583072D01*
X243516928Y-151460586D01*
X243376788Y-151358768D01*
X243222445Y-151280127D01*
X243057701Y-151226598D01*
X243057699Y-151226597D01*
X243057698Y-151226597D01*
X242926271Y-151205781D01*
X242886611Y-151199500D01*
X241913389Y-151199500D01*
X241873728Y-151205781D01*
X241742302Y-151226597D01*
X241577552Y-151280128D01*
X241423211Y-151358768D01*
X241343256Y-151416859D01*
X241283072Y-151460586D01*
X241283070Y-151460588D01*
X241283069Y-151460588D01*
X241160588Y-151583069D01*
X241160588Y-151583070D01*
X241160586Y-151583072D01*
X241116859Y-151643256D01*
X241058768Y-151723211D01*
X240980128Y-151877552D01*
X240926597Y-152042302D01*
X240917122Y-152102127D01*
X240899500Y-152213389D01*
X225800500Y-152213389D01*
X225800500Y-144593389D01*
X240899500Y-144593389D01*
X240899500Y-144766610D01*
X240912786Y-144850499D01*
X240926598Y-144937701D01*
X240980127Y-145102445D01*
X241058768Y-145256788D01*
X241160586Y-145396928D01*
X241283072Y-145519414D01*
X241423212Y-145621232D01*
X241577555Y-145699873D01*
X241742299Y-145753402D01*
X241913389Y-145780500D01*
X241913390Y-145780500D01*
X242886610Y-145780500D01*
X242886611Y-145780500D01*
X243057701Y-145753402D01*
X243222445Y-145699873D01*
X243376788Y-145621232D01*
X243516928Y-145519414D01*
X243639414Y-145396928D01*
X243741232Y-145256788D01*
X243819873Y-145102445D01*
X243873402Y-144937701D01*
X243900500Y-144766611D01*
X243900500Y-144593389D01*
X243873402Y-144422299D01*
X243819873Y-144257555D01*
X243741232Y-144103212D01*
X243639414Y-143963072D01*
X243516928Y-143840586D01*
X243376788Y-143738768D01*
X243222445Y-143660127D01*
X243057701Y-143606598D01*
X243057699Y-143606597D01*
X243057698Y-143606597D01*
X242926271Y-143585781D01*
X242886611Y-143579500D01*
X241913389Y-143579500D01*
X241873728Y-143585781D01*
X241742302Y-143606597D01*
X241577552Y-143660128D01*
X241423211Y-143738768D01*
X241349320Y-143792454D01*
X241283072Y-143840586D01*
X241283070Y-143840588D01*
X241283069Y-143840588D01*
X241160588Y-143963069D01*
X241160588Y-143963070D01*
X241160586Y-143963072D01*
X241116859Y-144023256D01*
X241058768Y-144103211D01*
X240980128Y-144257552D01*
X240926597Y-144422302D01*
X240899500Y-144593389D01*
X225800500Y-144593389D01*
X225800500Y-141889999D01*
X240925884Y-141889999D01*
X240925885Y-141890000D01*
X242084314Y-141890000D01*
X242079920Y-141894394D01*
X242027259Y-141985606D01*
X242000000Y-142087339D01*
X242000000Y-142192661D01*
X242027259Y-142294394D01*
X242079920Y-142385606D01*
X242084314Y-142390000D01*
X240925885Y-142390000D01*
X240927085Y-142397584D01*
X240980591Y-142562255D01*
X241059195Y-142716524D01*
X241160967Y-142856602D01*
X241283397Y-142979032D01*
X241423475Y-143080804D01*
X241577742Y-143159408D01*
X241742415Y-143212914D01*
X241913429Y-143240000D01*
X242150000Y-143240000D01*
X242150000Y-142455686D01*
X242154394Y-142460080D01*
X242245606Y-142512741D01*
X242347339Y-142540000D01*
X242452661Y-142540000D01*
X242554394Y-142512741D01*
X242645606Y-142460080D01*
X242650000Y-142455686D01*
X242650000Y-143240000D01*
X242886571Y-143240000D01*
X243057584Y-143212914D01*
X243222257Y-143159408D01*
X243376524Y-143080804D01*
X243516602Y-142979032D01*
X243639032Y-142856602D01*
X243740804Y-142716524D01*
X243819408Y-142562255D01*
X243872914Y-142397584D01*
X243874115Y-142390000D01*
X242715686Y-142390000D01*
X242720080Y-142385606D01*
X242772741Y-142294394D01*
X242800000Y-142192661D01*
X242800000Y-142087339D01*
X242772741Y-141985606D01*
X242720080Y-141894394D01*
X242715686Y-141890000D01*
X243874115Y-141890000D01*
X243874115Y-141889999D01*
X243872914Y-141882415D01*
X243819408Y-141717744D01*
X243740804Y-141563475D01*
X243639032Y-141423397D01*
X243516602Y-141300967D01*
X243376524Y-141199195D01*
X243222257Y-141120591D01*
X243057584Y-141067085D01*
X242886571Y-141040000D01*
X242650000Y-141040000D01*
X242650000Y-141824314D01*
X242645606Y-141819920D01*
X242554394Y-141767259D01*
X242452661Y-141740000D01*
X242347339Y-141740000D01*
X242245606Y-141767259D01*
X242154394Y-141819920D01*
X242150000Y-141824314D01*
X242150000Y-141040000D01*
X241913429Y-141040000D01*
X241742415Y-141067085D01*
X241577742Y-141120591D01*
X241423475Y-141199195D01*
X241283397Y-141300967D01*
X241160967Y-141423397D01*
X241059195Y-141563475D01*
X240980591Y-141717744D01*
X240927085Y-141882415D01*
X240925884Y-141889999D01*
X225800500Y-141889999D01*
X225800500Y-139513389D01*
X240899500Y-139513389D01*
X240899500Y-139686610D01*
X240916263Y-139792452D01*
X240926598Y-139857701D01*
X240980127Y-140022445D01*
X241058768Y-140176788D01*
X241160586Y-140316928D01*
X241283072Y-140439414D01*
X241423212Y-140541232D01*
X241577555Y-140619873D01*
X241742299Y-140673402D01*
X241913389Y-140700500D01*
X241913390Y-140700500D01*
X242886610Y-140700500D01*
X242886611Y-140700500D01*
X243057701Y-140673402D01*
X243222445Y-140619873D01*
X243376788Y-140541232D01*
X243516928Y-140439414D01*
X243639414Y-140316928D01*
X243741232Y-140176788D01*
X243819873Y-140022445D01*
X243873402Y-139857701D01*
X243900500Y-139686611D01*
X243900500Y-139513389D01*
X243873402Y-139342299D01*
X243819873Y-139177555D01*
X243741232Y-139023212D01*
X243639414Y-138883072D01*
X243516928Y-138760586D01*
X243376788Y-138658768D01*
X243222445Y-138580127D01*
X243057701Y-138526598D01*
X243057699Y-138526597D01*
X243057698Y-138526597D01*
X242926271Y-138505781D01*
X242886611Y-138499500D01*
X241913389Y-138499500D01*
X241873728Y-138505781D01*
X241742302Y-138526597D01*
X241577552Y-138580128D01*
X241423211Y-138658768D01*
X241343256Y-138716859D01*
X241283072Y-138760586D01*
X241283070Y-138760588D01*
X241283069Y-138760588D01*
X241160588Y-138883069D01*
X241160588Y-138883070D01*
X241160586Y-138883072D01*
X241116859Y-138943256D01*
X241058768Y-139023211D01*
X240980128Y-139177552D01*
X240926597Y-139342302D01*
X240899500Y-139513389D01*
X225800500Y-139513389D01*
X225800500Y-136973389D01*
X240899500Y-136973389D01*
X240899500Y-137146611D01*
X240926598Y-137317701D01*
X240980127Y-137482445D01*
X241058768Y-137636788D01*
X241160586Y-137776928D01*
X241283072Y-137899414D01*
X241423212Y-138001232D01*
X241577555Y-138079873D01*
X241742299Y-138133402D01*
X241913389Y-138160500D01*
X241913390Y-138160500D01*
X242886610Y-138160500D01*
X242886611Y-138160500D01*
X243057701Y-138133402D01*
X243222445Y-138079873D01*
X243376788Y-138001232D01*
X243516928Y-137899414D01*
X243639414Y-137776928D01*
X243741232Y-137636788D01*
X243819873Y-137482445D01*
X243873402Y-137317701D01*
X243900500Y-137146611D01*
X243900500Y-136973389D01*
X243873402Y-136802299D01*
X243819873Y-136637555D01*
X243741232Y-136483212D01*
X243639414Y-136343072D01*
X243516928Y-136220586D01*
X243376788Y-136118768D01*
X243222445Y-136040127D01*
X243057701Y-135986598D01*
X243057699Y-135986597D01*
X243057698Y-135986597D01*
X242926271Y-135965781D01*
X242886611Y-135959500D01*
X241913389Y-135959500D01*
X241873728Y-135965781D01*
X241742302Y-135986597D01*
X241577552Y-136040128D01*
X241423211Y-136118768D01*
X241343256Y-136176859D01*
X241283072Y-136220586D01*
X241283070Y-136220588D01*
X241283069Y-136220588D01*
X241160588Y-136343069D01*
X241160588Y-136343070D01*
X241160586Y-136343072D01*
X241120777Y-136397864D01*
X241058768Y-136483211D01*
X240980128Y-136637552D01*
X240926597Y-136802302D01*
X240899500Y-136973389D01*
X225800500Y-136973389D01*
X225800500Y-134433389D01*
X240899500Y-134433389D01*
X240899500Y-134606611D01*
X240926598Y-134777701D01*
X240980127Y-134942445D01*
X241058768Y-135096788D01*
X241160586Y-135236928D01*
X241283072Y-135359414D01*
X241423212Y-135461232D01*
X241577555Y-135539873D01*
X241742299Y-135593402D01*
X241913389Y-135620500D01*
X241913390Y-135620500D01*
X242886610Y-135620500D01*
X242886611Y-135620500D01*
X243057701Y-135593402D01*
X243222445Y-135539873D01*
X243376788Y-135461232D01*
X243516928Y-135359414D01*
X243639414Y-135236928D01*
X243741232Y-135096788D01*
X243819873Y-134942445D01*
X243873402Y-134777701D01*
X243900500Y-134606611D01*
X243900500Y-134433389D01*
X243873402Y-134262299D01*
X243819873Y-134097555D01*
X243741232Y-133943212D01*
X243639414Y-133803072D01*
X243516928Y-133680586D01*
X243376788Y-133578768D01*
X243222445Y-133500127D01*
X243057701Y-133446598D01*
X243057699Y-133446597D01*
X243057698Y-133446597D01*
X242926271Y-133425781D01*
X242886611Y-133419500D01*
X241913389Y-133419500D01*
X241873728Y-133425781D01*
X241742302Y-133446597D01*
X241577552Y-133500128D01*
X241423211Y-133578768D01*
X241343256Y-133636859D01*
X241283072Y-133680586D01*
X241283070Y-133680588D01*
X241283069Y-133680588D01*
X241160588Y-133803069D01*
X241160588Y-133803070D01*
X241160586Y-133803072D01*
X241116859Y-133863256D01*
X241058768Y-133943211D01*
X240980128Y-134097552D01*
X240926597Y-134262302D01*
X240912628Y-134350499D01*
X240899500Y-134433389D01*
X225800500Y-134433389D01*
X225800500Y-131893389D01*
X240899500Y-131893389D01*
X240899500Y-132066611D01*
X240905126Y-132102135D01*
X240919006Y-132189771D01*
X240926598Y-132237701D01*
X240978642Y-132397876D01*
X240980128Y-132402447D01*
X241008170Y-132457483D01*
X241058768Y-132556788D01*
X241160586Y-132696928D01*
X241283072Y-132819414D01*
X241423212Y-132921232D01*
X241577555Y-132999873D01*
X241742299Y-133053402D01*
X241913389Y-133080500D01*
X241913390Y-133080500D01*
X242886610Y-133080500D01*
X242886611Y-133080500D01*
X243057701Y-133053402D01*
X243222445Y-132999873D01*
X243376788Y-132921232D01*
X243516928Y-132819414D01*
X243639414Y-132696928D01*
X243741232Y-132556788D01*
X243819873Y-132402445D01*
X243873402Y-132237701D01*
X243900500Y-132066611D01*
X243900500Y-131893389D01*
X243873402Y-131722299D01*
X243819873Y-131557555D01*
X243741232Y-131403212D01*
X243639414Y-131263072D01*
X243516928Y-131140586D01*
X243376788Y-131038768D01*
X243222445Y-130960127D01*
X243057701Y-130906598D01*
X243057699Y-130906597D01*
X243057698Y-130906597D01*
X242926271Y-130885781D01*
X242886611Y-130879500D01*
X241913389Y-130879500D01*
X241873728Y-130885781D01*
X241742302Y-130906597D01*
X241577552Y-130960128D01*
X241423211Y-131038768D01*
X241343256Y-131096859D01*
X241283072Y-131140586D01*
X241283070Y-131140588D01*
X241283069Y-131140588D01*
X241160588Y-131263069D01*
X241160588Y-131263070D01*
X241160586Y-131263072D01*
X241116859Y-131323256D01*
X241058768Y-131403211D01*
X240980128Y-131557552D01*
X240926597Y-131722302D01*
X240899500Y-131893389D01*
X225800500Y-131893389D01*
X225800500Y-129353389D01*
X240899500Y-129353389D01*
X240899500Y-129526611D01*
X240926598Y-129697701D01*
X240980127Y-129862445D01*
X241058768Y-130016788D01*
X241160586Y-130156928D01*
X241283072Y-130279414D01*
X241423212Y-130381232D01*
X241577555Y-130459873D01*
X241742299Y-130513402D01*
X241913389Y-130540500D01*
X241913390Y-130540500D01*
X242886610Y-130540500D01*
X242886611Y-130540500D01*
X243057701Y-130513402D01*
X243222445Y-130459873D01*
X243376788Y-130381232D01*
X243516928Y-130279414D01*
X243639414Y-130156928D01*
X243741232Y-130016788D01*
X243819873Y-129862445D01*
X243873402Y-129697701D01*
X243900500Y-129526611D01*
X243900500Y-129353389D01*
X243873402Y-129182299D01*
X243819873Y-129017555D01*
X243741232Y-128863212D01*
X243639414Y-128723072D01*
X243516928Y-128600586D01*
X243376788Y-128498768D01*
X243222445Y-128420127D01*
X243057701Y-128366598D01*
X243057699Y-128366597D01*
X243057698Y-128366597D01*
X242925163Y-128345606D01*
X242886611Y-128339500D01*
X241913389Y-128339500D01*
X241874837Y-128345606D01*
X241742302Y-128366597D01*
X241577552Y-128420128D01*
X241423211Y-128498768D01*
X241352565Y-128550096D01*
X241283072Y-128600586D01*
X241283070Y-128600588D01*
X241283069Y-128600588D01*
X241160588Y-128723069D01*
X241160588Y-128723070D01*
X241160586Y-128723072D01*
X241144214Y-128745606D01*
X241058768Y-128863211D01*
X240980128Y-129017552D01*
X240926597Y-129182302D01*
X240901757Y-129339139D01*
X240899500Y-129353389D01*
X225800500Y-129353389D01*
X225800500Y-126649999D01*
X240925884Y-126649999D01*
X240925885Y-126650000D01*
X242084314Y-126650000D01*
X242079920Y-126654394D01*
X242027259Y-126745606D01*
X242000000Y-126847339D01*
X242000000Y-126952661D01*
X242027259Y-127054394D01*
X242079920Y-127145606D01*
X242084314Y-127150000D01*
X240925885Y-127150000D01*
X240927085Y-127157584D01*
X240980591Y-127322255D01*
X241059195Y-127476524D01*
X241160967Y-127616602D01*
X241283397Y-127739032D01*
X241423475Y-127840804D01*
X241577742Y-127919408D01*
X241742415Y-127972914D01*
X241913429Y-128000000D01*
X242150000Y-128000000D01*
X242150000Y-127215686D01*
X242154394Y-127220080D01*
X242245606Y-127272741D01*
X242347339Y-127300000D01*
X242452661Y-127300000D01*
X242554394Y-127272741D01*
X242645606Y-127220080D01*
X242650000Y-127215686D01*
X242650000Y-128000000D01*
X242886571Y-128000000D01*
X243057584Y-127972914D01*
X243222257Y-127919408D01*
X243376524Y-127840804D01*
X243516602Y-127739032D01*
X243639032Y-127616602D01*
X243740804Y-127476524D01*
X243819408Y-127322255D01*
X243872914Y-127157584D01*
X243874115Y-127150000D01*
X242715686Y-127150000D01*
X242720080Y-127145606D01*
X242772741Y-127054394D01*
X242800000Y-126952661D01*
X242800000Y-126847339D01*
X242772741Y-126745606D01*
X242720080Y-126654394D01*
X242715686Y-126650000D01*
X243874115Y-126650000D01*
X243874115Y-126649999D01*
X243872914Y-126642415D01*
X243819408Y-126477744D01*
X243740804Y-126323475D01*
X243639032Y-126183397D01*
X243516602Y-126060967D01*
X243376524Y-125959195D01*
X243222257Y-125880591D01*
X243057584Y-125827085D01*
X242886571Y-125800000D01*
X242650000Y-125800000D01*
X242650000Y-126584314D01*
X242645606Y-126579920D01*
X242554394Y-126527259D01*
X242452661Y-126500000D01*
X242347339Y-126500000D01*
X242245606Y-126527259D01*
X242154394Y-126579920D01*
X242150000Y-126584314D01*
X242150000Y-125800000D01*
X241913429Y-125800000D01*
X241742415Y-125827085D01*
X241577742Y-125880591D01*
X241423475Y-125959195D01*
X241283397Y-126060967D01*
X241160967Y-126183397D01*
X241059195Y-126323475D01*
X240980591Y-126477744D01*
X240927085Y-126642415D01*
X240925884Y-126649999D01*
X225800500Y-126649999D01*
X225800500Y-114982412D01*
X225820185Y-114915373D01*
X225827555Y-114905097D01*
X225829810Y-114902267D01*
X225829816Y-114902262D01*
X225925789Y-114749522D01*
X225985368Y-114579255D01*
X225998051Y-114466692D01*
X226005565Y-114400003D01*
X226005565Y-114399996D01*
X225985369Y-114220750D01*
X225985368Y-114220745D01*
X225964089Y-114159932D01*
X225925789Y-114050478D01*
X225829816Y-113897738D01*
X225702262Y-113770184D01*
X225664313Y-113746339D01*
X225549523Y-113674211D01*
X225379254Y-113614631D01*
X225379249Y-113614630D01*
X225200004Y-113594435D01*
X225199996Y-113594435D01*
X225020750Y-113614630D01*
X225020745Y-113614631D01*
X224850476Y-113674211D01*
X224691842Y-113773889D01*
X224690402Y-113771598D01*
X224637096Y-113793346D01*
X224568404Y-113780573D01*
X224517522Y-113732690D01*
X224500500Y-113669987D01*
X224500500Y-111025013D01*
X238450000Y-111025013D01*
X238450000Y-111550000D01*
X239395854Y-111550000D01*
X239357370Y-111616657D01*
X239325000Y-111737465D01*
X239325000Y-111862535D01*
X239357370Y-111983343D01*
X239395854Y-112050000D01*
X238450001Y-112050000D01*
X238450001Y-112574986D01*
X238460494Y-112677697D01*
X238515641Y-112844119D01*
X238515643Y-112844124D01*
X238607684Y-112993345D01*
X238731654Y-113117315D01*
X238880875Y-113209356D01*
X238880880Y-113209358D01*
X239047302Y-113264505D01*
X239047309Y-113264506D01*
X239150019Y-113274999D01*
X239549999Y-113274999D01*
X239550000Y-113274998D01*
X239550000Y-112204145D01*
X239616657Y-112242630D01*
X239737465Y-112275000D01*
X239862535Y-112275000D01*
X239983343Y-112242630D01*
X240050000Y-112204145D01*
X240050000Y-113274999D01*
X240449972Y-113274999D01*
X240449986Y-113274998D01*
X240552697Y-113264505D01*
X240719119Y-113209358D01*
X240719124Y-113209356D01*
X240868345Y-113117315D01*
X240992317Y-112993343D01*
X241087815Y-112838516D01*
X241139763Y-112791791D01*
X241208725Y-112780568D01*
X241272808Y-112808412D01*
X241281035Y-112815931D01*
X241420211Y-112955107D01*
X241478724Y-112997618D01*
X241548385Y-113048229D01*
X241591051Y-113103558D01*
X241599500Y-113148547D01*
X241599500Y-121248085D01*
X241598720Y-121261969D01*
X241594435Y-121299998D01*
X241594435Y-121300003D01*
X241614630Y-121479249D01*
X241614631Y-121479254D01*
X241674211Y-121649523D01*
X241711015Y-121708095D01*
X241770184Y-121802262D01*
X241897738Y-121929816D01*
X242050478Y-122025789D01*
X242220745Y-122085368D01*
X242220750Y-122085369D01*
X242399996Y-122105565D01*
X242400000Y-122105565D01*
X242400004Y-122105565D01*
X242579249Y-122085369D01*
X242579252Y-122085368D01*
X242579255Y-122085368D01*
X242749522Y-122025789D01*
X242902262Y-121929816D01*
X243029816Y-121802262D01*
X243125789Y-121649522D01*
X243185368Y-121479255D01*
X243185369Y-121479249D01*
X243205565Y-121300003D01*
X243205565Y-121299996D01*
X243185369Y-121120750D01*
X243185368Y-121120745D01*
X243153326Y-121029174D01*
X243125789Y-120950478D01*
X243124278Y-120948074D01*
X243071541Y-120864143D01*
X243029816Y-120797738D01*
X243029814Y-120797736D01*
X243029813Y-120797734D01*
X243027550Y-120794896D01*
X243026659Y-120792715D01*
X243026111Y-120791842D01*
X243026264Y-120791745D01*
X243001144Y-120730209D01*
X243000500Y-120717587D01*
X243000500Y-113148547D01*
X243020185Y-113081508D01*
X243051614Y-113048230D01*
X243179792Y-112955104D01*
X243330104Y-112804792D01*
X243449683Y-112640204D01*
X243505011Y-112597540D01*
X243574624Y-112591561D01*
X243636420Y-112624166D01*
X243650313Y-112640199D01*
X243752296Y-112780568D01*
X243769896Y-112804792D01*
X243920213Y-112955109D01*
X244092184Y-113080051D01*
X244092184Y-113080052D01*
X244131793Y-113100233D01*
X244182590Y-113148206D01*
X244199500Y-113210718D01*
X244199500Y-147059901D01*
X244179815Y-147126940D01*
X244163181Y-147147582D01*
X244110440Y-147200323D01*
X244049117Y-147233808D01*
X243979425Y-147228824D01*
X243923492Y-147186952D01*
X243900286Y-147132040D01*
X243899478Y-147126940D01*
X243873402Y-146962299D01*
X243819873Y-146797555D01*
X243741232Y-146643212D01*
X243639414Y-146503072D01*
X243516928Y-146380586D01*
X243376788Y-146278768D01*
X243222445Y-146200127D01*
X243057701Y-146146598D01*
X243057699Y-146146597D01*
X243057698Y-146146597D01*
X242926271Y-146125781D01*
X242886611Y-146119500D01*
X241913389Y-146119500D01*
X241873728Y-146125781D01*
X241742302Y-146146597D01*
X241577552Y-146200128D01*
X241423211Y-146278768D01*
X241402526Y-146293797D01*
X241283072Y-146380586D01*
X241283070Y-146380588D01*
X241283069Y-146380588D01*
X241160588Y-146503069D01*
X241160588Y-146503070D01*
X241160586Y-146503072D01*
X241116859Y-146563256D01*
X241058768Y-146643211D01*
X240980128Y-146797552D01*
X240926597Y-146962302D01*
X240911139Y-147059901D01*
X240899500Y-147133389D01*
X240899500Y-147306611D01*
X240926598Y-147477701D01*
X240980127Y-147642445D01*
X241058768Y-147796788D01*
X241160586Y-147936928D01*
X241283072Y-148059414D01*
X241423212Y-148161232D01*
X241577555Y-148239873D01*
X241742299Y-148293402D01*
X241913389Y-148320500D01*
X241913390Y-148320500D01*
X242690903Y-148320500D01*
X242757942Y-148340185D01*
X242803697Y-148392989D01*
X242813641Y-148462147D01*
X242784616Y-148525703D01*
X242778584Y-148532181D01*
X242687584Y-148623181D01*
X242626261Y-148656666D01*
X242599903Y-148659500D01*
X241913389Y-148659500D01*
X241873728Y-148665781D01*
X241742302Y-148686597D01*
X241577552Y-148740128D01*
X241423211Y-148818768D01*
X241343256Y-148876859D01*
X241283072Y-148920586D01*
X241283070Y-148920588D01*
X241283069Y-148920588D01*
X241160588Y-149043069D01*
X241160588Y-149043070D01*
X241160586Y-149043072D01*
X241116859Y-149103256D01*
X241058768Y-149183211D01*
X240980128Y-149337552D01*
X240926597Y-149502302D01*
X240899500Y-149673389D01*
X240899500Y-149846611D01*
X240926598Y-150017701D01*
X240980127Y-150182445D01*
X241058768Y-150336788D01*
X241160586Y-150476928D01*
X241283072Y-150599414D01*
X241423212Y-150701232D01*
X241577555Y-150779873D01*
X241742299Y-150833402D01*
X241913389Y-150860500D01*
X241913390Y-150860500D01*
X242886610Y-150860500D01*
X242886611Y-150860500D01*
X243057701Y-150833402D01*
X243222445Y-150779873D01*
X243376788Y-150701232D01*
X243516928Y-150599414D01*
X243639414Y-150476928D01*
X243741232Y-150336788D01*
X243819873Y-150182445D01*
X243873402Y-150017701D01*
X243900500Y-149846611D01*
X243900500Y-149673389D01*
X243873402Y-149502299D01*
X243819873Y-149337555D01*
X243810751Y-149319653D01*
X243797856Y-149250985D01*
X243824132Y-149186245D01*
X243833547Y-149175687D01*
X244587819Y-148421416D01*
X244649142Y-148387931D01*
X244718834Y-148392915D01*
X244774767Y-148434787D01*
X244799184Y-148500251D01*
X244799500Y-148509097D01*
X244799500Y-154079902D01*
X244779815Y-154146941D01*
X244763181Y-154167583D01*
X244110440Y-154820323D01*
X244049117Y-154853808D01*
X243979425Y-154848824D01*
X243923492Y-154806952D01*
X243900286Y-154752040D01*
X243899758Y-154748709D01*
X243873402Y-154582299D01*
X243819873Y-154417555D01*
X243741232Y-154263212D01*
X243639414Y-154123072D01*
X243516928Y-154000586D01*
X243376788Y-153898768D01*
X243222445Y-153820127D01*
X243057701Y-153766598D01*
X243057699Y-153766597D01*
X243057698Y-153766597D01*
X242926271Y-153745781D01*
X242886611Y-153739500D01*
X241913389Y-153739500D01*
X241873728Y-153745781D01*
X241742302Y-153766597D01*
X241577552Y-153820128D01*
X241423211Y-153898768D01*
X241343256Y-153956859D01*
X241283072Y-154000586D01*
X241283070Y-154000588D01*
X241283069Y-154000588D01*
X241160588Y-154123069D01*
X241160588Y-154123070D01*
X241160586Y-154123072D01*
X241128247Y-154167583D01*
X241058768Y-154263211D01*
X240980128Y-154417552D01*
X240926597Y-154582302D01*
X240899500Y-154753389D01*
X240899500Y-154926610D01*
X240919006Y-155049771D01*
X240926598Y-155097701D01*
X240980127Y-155262445D01*
X241058768Y-155416788D01*
X241160586Y-155556928D01*
X241283072Y-155679414D01*
X241423212Y-155781232D01*
X241577555Y-155859873D01*
X241742299Y-155913402D01*
X241913389Y-155940500D01*
X241913390Y-155940500D01*
X242690903Y-155940500D01*
X242757942Y-155960185D01*
X242803697Y-156012989D01*
X242813641Y-156082147D01*
X242784616Y-156145703D01*
X242778584Y-156152181D01*
X242687584Y-156243181D01*
X242626261Y-156276666D01*
X242599903Y-156279500D01*
X241913389Y-156279500D01*
X241873728Y-156285781D01*
X241742302Y-156306597D01*
X241577552Y-156360128D01*
X241423211Y-156438768D01*
X241343256Y-156496859D01*
X241283072Y-156540586D01*
X241283070Y-156540588D01*
X241283069Y-156540588D01*
X241160588Y-156663069D01*
X241160588Y-156663070D01*
X241160586Y-156663072D01*
X241128275Y-156707544D01*
X241058768Y-156803211D01*
X240980128Y-156957552D01*
X240926597Y-157122302D01*
X240899500Y-157293389D01*
X240899500Y-157466611D01*
X240926598Y-157637701D01*
X240980127Y-157802445D01*
X241058768Y-157956788D01*
X241160586Y-158096928D01*
X241283072Y-158219414D01*
X241423212Y-158321232D01*
X241577555Y-158399873D01*
X241742299Y-158453402D01*
X241913389Y-158480500D01*
X241913390Y-158480500D01*
X242886610Y-158480500D01*
X242886611Y-158480500D01*
X243057701Y-158453402D01*
X243222445Y-158399873D01*
X243376788Y-158321232D01*
X243516928Y-158219414D01*
X243639414Y-158096928D01*
X243741232Y-157956788D01*
X243819873Y-157802445D01*
X243873402Y-157637701D01*
X243900500Y-157466611D01*
X243900500Y-157293389D01*
X243873402Y-157122299D01*
X243819873Y-156957555D01*
X243810751Y-156939653D01*
X243797856Y-156870985D01*
X243824132Y-156806245D01*
X243833547Y-156795687D01*
X244527100Y-156102135D01*
X247149500Y-156102135D01*
X247149500Y-157897870D01*
X247149501Y-157897876D01*
X247155908Y-157957483D01*
X247206202Y-158092328D01*
X247206206Y-158092335D01*
X247292452Y-158207544D01*
X247292455Y-158207547D01*
X247407664Y-158293793D01*
X247407671Y-158293797D01*
X247542517Y-158344091D01*
X247542516Y-158344091D01*
X247549444Y-158344835D01*
X247602127Y-158350500D01*
X249397872Y-158350499D01*
X249457483Y-158344091D01*
X249592331Y-158293796D01*
X249707546Y-158207546D01*
X249793796Y-158092331D01*
X249844091Y-157957483D01*
X249850500Y-157897873D01*
X249850499Y-156102128D01*
X249844091Y-156042517D01*
X249795934Y-155913402D01*
X249793797Y-155907671D01*
X249793793Y-155907664D01*
X249707547Y-155792455D01*
X249707544Y-155792452D01*
X249592335Y-155706206D01*
X249592328Y-155706202D01*
X249457482Y-155655908D01*
X249457483Y-155655908D01*
X249397883Y-155649501D01*
X249397881Y-155649500D01*
X249397873Y-155649500D01*
X249397864Y-155649500D01*
X247602129Y-155649500D01*
X247602123Y-155649501D01*
X247542516Y-155655908D01*
X247407671Y-155706202D01*
X247407664Y-155706206D01*
X247292455Y-155792452D01*
X247292452Y-155792455D01*
X247206206Y-155907664D01*
X247206202Y-155907671D01*
X247155908Y-156042517D01*
X247151648Y-156082147D01*
X247149501Y-156102123D01*
X247149500Y-156102135D01*
X244527100Y-156102135D01*
X245880520Y-154748716D01*
X245959577Y-154611784D01*
X246000501Y-154459057D01*
X246000501Y-154300942D01*
X246000501Y-154293347D01*
X246000500Y-154293329D01*
X246000500Y-152102135D01*
X247149500Y-152102135D01*
X247149500Y-153897870D01*
X247149501Y-153897876D01*
X247155908Y-153957483D01*
X247206202Y-154092328D01*
X247206206Y-154092335D01*
X247292452Y-154207544D01*
X247292455Y-154207547D01*
X247407664Y-154293793D01*
X247407671Y-154293797D01*
X247542517Y-154344091D01*
X247542516Y-154344091D01*
X247549444Y-154344835D01*
X247602127Y-154350500D01*
X249397872Y-154350499D01*
X249457483Y-154344091D01*
X249592331Y-154293796D01*
X249707546Y-154207546D01*
X249793796Y-154092331D01*
X249844091Y-153957483D01*
X249850500Y-153897873D01*
X249850499Y-152102128D01*
X249844091Y-152042517D01*
X249793796Y-151907669D01*
X249793795Y-151907668D01*
X249793793Y-151907664D01*
X249707547Y-151792455D01*
X249707544Y-151792452D01*
X249592335Y-151706206D01*
X249592328Y-151706202D01*
X249457482Y-151655908D01*
X249457483Y-151655908D01*
X249397883Y-151649501D01*
X249397881Y-151649500D01*
X249397873Y-151649500D01*
X249397864Y-151649500D01*
X247602129Y-151649500D01*
X247602123Y-151649501D01*
X247542516Y-151655908D01*
X247407671Y-151706202D01*
X247407664Y-151706206D01*
X247292455Y-151792452D01*
X247292452Y-151792455D01*
X247206206Y-151907664D01*
X247206202Y-151907671D01*
X247155908Y-152042517D01*
X247149501Y-152102116D01*
X247149501Y-152102123D01*
X247149500Y-152102135D01*
X246000500Y-152102135D01*
X246000500Y-148102135D01*
X247149500Y-148102135D01*
X247149500Y-149897870D01*
X247149501Y-149897876D01*
X247155908Y-149957483D01*
X247206202Y-150092328D01*
X247206206Y-150092335D01*
X247292452Y-150207544D01*
X247292455Y-150207547D01*
X247407664Y-150293793D01*
X247407671Y-150293797D01*
X247542517Y-150344091D01*
X247542516Y-150344091D01*
X247549444Y-150344835D01*
X247602127Y-150350500D01*
X249397872Y-150350499D01*
X249457483Y-150344091D01*
X249592331Y-150293796D01*
X249707546Y-150207546D01*
X249793796Y-150092331D01*
X249844091Y-149957483D01*
X249850500Y-149897873D01*
X249850499Y-148102128D01*
X249844091Y-148042517D01*
X249804709Y-147936929D01*
X249793797Y-147907671D01*
X249793793Y-147907664D01*
X249707547Y-147792455D01*
X249707544Y-147792452D01*
X249592335Y-147706206D01*
X249592328Y-147706202D01*
X249457482Y-147655908D01*
X249457483Y-147655908D01*
X249397883Y-147649501D01*
X249397881Y-147649500D01*
X249397873Y-147649500D01*
X249397864Y-147649500D01*
X247602129Y-147649500D01*
X247602123Y-147649501D01*
X247542516Y-147655908D01*
X247407671Y-147706202D01*
X247407664Y-147706206D01*
X247292455Y-147792452D01*
X247292452Y-147792455D01*
X247206206Y-147907664D01*
X247206202Y-147907671D01*
X247155908Y-148042517D01*
X247154092Y-148059414D01*
X247149501Y-148102123D01*
X247149500Y-148102135D01*
X246000500Y-148102135D01*
X246000500Y-144102135D01*
X247149500Y-144102135D01*
X247149500Y-145897870D01*
X247149501Y-145897876D01*
X247155908Y-145957483D01*
X247206202Y-146092328D01*
X247206206Y-146092335D01*
X247292452Y-146207544D01*
X247292455Y-146207547D01*
X247407664Y-146293793D01*
X247407671Y-146293797D01*
X247542517Y-146344091D01*
X247542516Y-146344091D01*
X247549444Y-146344835D01*
X247602127Y-146350500D01*
X249397872Y-146350499D01*
X249457483Y-146344091D01*
X249592331Y-146293796D01*
X249707546Y-146207546D01*
X249793796Y-146092331D01*
X249844091Y-145957483D01*
X249850500Y-145897873D01*
X249850499Y-144102128D01*
X249844091Y-144042517D01*
X249814459Y-143963070D01*
X249793797Y-143907671D01*
X249793793Y-143907664D01*
X249707547Y-143792455D01*
X249707544Y-143792452D01*
X249592335Y-143706206D01*
X249592328Y-143706202D01*
X249457482Y-143655908D01*
X249457483Y-143655908D01*
X249397883Y-143649501D01*
X249397881Y-143649500D01*
X249397873Y-143649500D01*
X249397864Y-143649500D01*
X247602129Y-143649500D01*
X247602123Y-143649501D01*
X247542516Y-143655908D01*
X247407671Y-143706202D01*
X247407664Y-143706206D01*
X247292455Y-143792452D01*
X247292452Y-143792455D01*
X247206206Y-143907664D01*
X247206202Y-143907671D01*
X247155908Y-144042517D01*
X247149501Y-144102116D01*
X247149501Y-144102123D01*
X247149500Y-144102135D01*
X246000500Y-144102135D01*
X246000500Y-140102135D01*
X247149500Y-140102135D01*
X247149500Y-141897870D01*
X247149501Y-141897876D01*
X247155908Y-141957483D01*
X247206202Y-142092328D01*
X247206206Y-142092335D01*
X247292452Y-142207544D01*
X247292455Y-142207547D01*
X247407664Y-142293793D01*
X247407671Y-142293797D01*
X247542517Y-142344091D01*
X247542516Y-142344091D01*
X247549444Y-142344835D01*
X247602127Y-142350500D01*
X249397872Y-142350499D01*
X249457483Y-142344091D01*
X249592331Y-142293796D01*
X249707546Y-142207546D01*
X249793796Y-142092331D01*
X249844091Y-141957483D01*
X249850500Y-141897873D01*
X249850499Y-140102128D01*
X249844091Y-140042517D01*
X249836605Y-140022447D01*
X249793797Y-139907671D01*
X249793793Y-139907664D01*
X249707547Y-139792455D01*
X249707544Y-139792452D01*
X249592335Y-139706206D01*
X249592328Y-139706202D01*
X249457482Y-139655908D01*
X249457483Y-139655908D01*
X249397883Y-139649501D01*
X249397881Y-139649500D01*
X249397873Y-139649500D01*
X249397864Y-139649500D01*
X247602129Y-139649500D01*
X247602123Y-139649501D01*
X247542516Y-139655908D01*
X247407671Y-139706202D01*
X247407664Y-139706206D01*
X247292455Y-139792452D01*
X247292452Y-139792455D01*
X247206206Y-139907664D01*
X247206202Y-139907671D01*
X247155908Y-140042517D01*
X247149501Y-140102116D01*
X247149501Y-140102123D01*
X247149500Y-140102135D01*
X246000500Y-140102135D01*
X246000500Y-136102135D01*
X247149500Y-136102135D01*
X247149500Y-137897870D01*
X247149501Y-137897876D01*
X247155908Y-137957483D01*
X247206202Y-138092328D01*
X247206206Y-138092335D01*
X247292452Y-138207544D01*
X247292455Y-138207547D01*
X247407664Y-138293793D01*
X247407671Y-138293797D01*
X247542517Y-138344091D01*
X247542516Y-138344091D01*
X247549444Y-138344835D01*
X247602127Y-138350500D01*
X249397872Y-138350499D01*
X249457483Y-138344091D01*
X249592331Y-138293796D01*
X249707546Y-138207546D01*
X249793796Y-138092331D01*
X249844091Y-137957483D01*
X249850500Y-137897873D01*
X249850499Y-136102128D01*
X249844091Y-136042517D01*
X249823234Y-135986597D01*
X249793797Y-135907671D01*
X249793793Y-135907664D01*
X249707547Y-135792455D01*
X249707544Y-135792452D01*
X249592335Y-135706206D01*
X249592328Y-135706202D01*
X249457482Y-135655908D01*
X249457483Y-135655908D01*
X249397883Y-135649501D01*
X249397881Y-135649500D01*
X249397873Y-135649500D01*
X249397864Y-135649500D01*
X247602129Y-135649500D01*
X247602123Y-135649501D01*
X247542516Y-135655908D01*
X247407671Y-135706202D01*
X247407664Y-135706206D01*
X247292455Y-135792452D01*
X247292452Y-135792455D01*
X247206206Y-135907664D01*
X247206202Y-135907671D01*
X247155908Y-136042517D01*
X247149501Y-136102116D01*
X247149501Y-136102123D01*
X247149500Y-136102135D01*
X246000500Y-136102135D01*
X246000500Y-132102135D01*
X247149500Y-132102135D01*
X247149500Y-133897870D01*
X247149501Y-133897876D01*
X247155908Y-133957483D01*
X247206202Y-134092328D01*
X247206206Y-134092335D01*
X247292452Y-134207544D01*
X247292455Y-134207547D01*
X247407664Y-134293793D01*
X247407671Y-134293797D01*
X247542517Y-134344091D01*
X247542516Y-134344091D01*
X247549444Y-134344835D01*
X247602127Y-134350500D01*
X249397872Y-134350499D01*
X249457483Y-134344091D01*
X249592331Y-134293796D01*
X249707546Y-134207546D01*
X249793796Y-134092331D01*
X249844091Y-133957483D01*
X249850500Y-133897873D01*
X249850499Y-132102128D01*
X249844091Y-132042517D01*
X249825289Y-131992107D01*
X249793797Y-131907671D01*
X249793793Y-131907664D01*
X249707547Y-131792455D01*
X249707544Y-131792452D01*
X249592335Y-131706206D01*
X249592328Y-131706202D01*
X249457482Y-131655908D01*
X249457483Y-131655908D01*
X249397883Y-131649501D01*
X249397881Y-131649500D01*
X249397873Y-131649500D01*
X249397864Y-131649500D01*
X247602129Y-131649500D01*
X247602123Y-131649501D01*
X247542516Y-131655908D01*
X247407671Y-131706202D01*
X247407664Y-131706206D01*
X247292455Y-131792452D01*
X247292452Y-131792455D01*
X247206206Y-131907664D01*
X247206202Y-131907671D01*
X247155908Y-132042517D01*
X247149501Y-132102116D01*
X247149501Y-132102123D01*
X247149500Y-132102135D01*
X246000500Y-132102135D01*
X246000500Y-128102135D01*
X247149500Y-128102135D01*
X247149500Y-129897870D01*
X247149501Y-129897876D01*
X247155908Y-129957483D01*
X247206202Y-130092328D01*
X247206206Y-130092335D01*
X247292452Y-130207544D01*
X247292455Y-130207547D01*
X247407664Y-130293793D01*
X247407671Y-130293797D01*
X247542517Y-130344091D01*
X247542516Y-130344091D01*
X247549444Y-130344835D01*
X247602127Y-130350500D01*
X249397872Y-130350499D01*
X249457483Y-130344091D01*
X249592331Y-130293796D01*
X249707546Y-130207546D01*
X249793796Y-130092331D01*
X249844091Y-129957483D01*
X249850500Y-129897873D01*
X249850499Y-128550095D01*
X249870184Y-128483057D01*
X249886813Y-128462420D01*
X251458506Y-126890728D01*
X251458511Y-126890724D01*
X251468714Y-126880520D01*
X251468716Y-126880520D01*
X251580520Y-126768716D01*
X251618446Y-126703025D01*
X251656371Y-126637338D01*
X251656372Y-126637336D01*
X251656867Y-126636477D01*
X251659577Y-126631785D01*
X251700500Y-126479058D01*
X251700500Y-126320943D01*
X251700500Y-124399997D01*
X252495034Y-124399997D01*
X252495034Y-124400002D01*
X252514858Y-124626599D01*
X252514860Y-124626610D01*
X252573730Y-124846317D01*
X252573735Y-124846331D01*
X252669863Y-125052478D01*
X252720974Y-125125472D01*
X253400000Y-124446446D01*
X253400000Y-124452661D01*
X253427259Y-124554394D01*
X253479920Y-124645606D01*
X253554394Y-124720080D01*
X253645606Y-124772741D01*
X253747339Y-124800000D01*
X253753553Y-124800000D01*
X253074526Y-125479025D01*
X253147513Y-125530132D01*
X253147521Y-125530136D01*
X253353668Y-125626264D01*
X253353682Y-125626269D01*
X253573389Y-125685139D01*
X253573400Y-125685141D01*
X253799998Y-125704966D01*
X253800002Y-125704966D01*
X254026599Y-125685141D01*
X254026610Y-125685139D01*
X254246317Y-125626269D01*
X254246331Y-125626264D01*
X254452478Y-125530136D01*
X254525471Y-125479024D01*
X253846447Y-124800000D01*
X253852661Y-124800000D01*
X253954394Y-124772741D01*
X254045606Y-124720080D01*
X254120080Y-124645606D01*
X254172741Y-124554394D01*
X254200000Y-124452661D01*
X254200000Y-124446447D01*
X254879024Y-125125471D01*
X254930136Y-125052478D01*
X255026264Y-124846331D01*
X255026269Y-124846317D01*
X255085139Y-124626610D01*
X255085141Y-124626599D01*
X255104966Y-124400002D01*
X255104966Y-124399997D01*
X255085141Y-124173400D01*
X255085139Y-124173389D01*
X255026269Y-123953682D01*
X255026264Y-123953668D01*
X254930136Y-123747521D01*
X254930132Y-123747513D01*
X254879025Y-123674526D01*
X254200000Y-124353551D01*
X254200000Y-124347339D01*
X254172741Y-124245606D01*
X254120080Y-124154394D01*
X254045606Y-124079920D01*
X253954394Y-124027259D01*
X253852661Y-124000000D01*
X253846448Y-124000000D01*
X254525472Y-123320974D01*
X254452478Y-123269863D01*
X254246331Y-123173735D01*
X254246317Y-123173730D01*
X254026610Y-123114860D01*
X254026599Y-123114858D01*
X253800002Y-123095034D01*
X253799998Y-123095034D01*
X253573400Y-123114858D01*
X253573389Y-123114860D01*
X253353682Y-123173730D01*
X253353673Y-123173734D01*
X253147516Y-123269866D01*
X253147512Y-123269868D01*
X253074526Y-123320973D01*
X253074526Y-123320974D01*
X253753553Y-124000000D01*
X253747339Y-124000000D01*
X253645606Y-124027259D01*
X253554394Y-124079920D01*
X253479920Y-124154394D01*
X253427259Y-124245606D01*
X253400000Y-124347339D01*
X253400000Y-124353552D01*
X252720974Y-123674526D01*
X252720973Y-123674526D01*
X252669868Y-123747512D01*
X252669866Y-123747516D01*
X252573734Y-123953673D01*
X252573730Y-123953682D01*
X252514860Y-124173389D01*
X252514858Y-124173400D01*
X252495034Y-124399997D01*
X251700500Y-124399997D01*
X251700500Y-121999997D01*
X257072677Y-121999997D01*
X257072677Y-122000002D01*
X257091929Y-122220062D01*
X257091930Y-122220070D01*
X257149104Y-122433445D01*
X257149105Y-122433447D01*
X257149106Y-122433450D01*
X257160313Y-122457483D01*
X257242466Y-122633662D01*
X257242468Y-122633666D01*
X257369170Y-122814615D01*
X257369175Y-122814621D01*
X257525378Y-122970824D01*
X257525384Y-122970829D01*
X257576806Y-123006835D01*
X257686623Y-123083729D01*
X257730248Y-123138306D01*
X257739500Y-123185304D01*
X257739500Y-127380338D01*
X257719815Y-127447377D01*
X257686626Y-127481911D01*
X257660866Y-127499949D01*
X257660863Y-127499951D01*
X257499951Y-127660862D01*
X257369432Y-127847265D01*
X257369431Y-127847267D01*
X257273261Y-128053502D01*
X257273258Y-128053511D01*
X257214366Y-128273302D01*
X257214364Y-128273313D01*
X257194532Y-128499998D01*
X257194532Y-128500001D01*
X257214364Y-128726686D01*
X257214366Y-128726697D01*
X257273258Y-128946488D01*
X257273261Y-128946497D01*
X257369431Y-129152732D01*
X257369432Y-129152734D01*
X257499954Y-129339141D01*
X257660858Y-129500045D01*
X257660861Y-129500047D01*
X257847266Y-129630568D01*
X258053504Y-129726739D01*
X258273308Y-129785635D01*
X258435230Y-129799801D01*
X258499998Y-129805468D01*
X258500000Y-129805468D01*
X258500002Y-129805468D01*
X258556673Y-129800509D01*
X258726692Y-129785635D01*
X258946496Y-129726739D01*
X259152734Y-129630568D01*
X259339139Y-129500047D01*
X259500047Y-129339139D01*
X259630568Y-129152734D01*
X259726739Y-128946496D01*
X259785635Y-128726692D01*
X259805468Y-128500000D01*
X259785635Y-128273308D01*
X259779389Y-128249999D01*
X267381127Y-128249999D01*
X267381128Y-128250000D01*
X268344314Y-128250000D01*
X268339920Y-128254394D01*
X268287259Y-128345606D01*
X268260000Y-128447339D01*
X268260000Y-128552661D01*
X268287259Y-128654394D01*
X268339920Y-128745606D01*
X268344314Y-128750000D01*
X267381128Y-128750000D01*
X267433730Y-128946317D01*
X267433734Y-128946326D01*
X267529865Y-129152482D01*
X267660342Y-129338820D01*
X267821179Y-129499657D01*
X268007517Y-129630134D01*
X268213673Y-129726265D01*
X268213682Y-129726269D01*
X268409999Y-129778872D01*
X268410000Y-129778871D01*
X268410000Y-128815686D01*
X268414394Y-128820080D01*
X268505606Y-128872741D01*
X268607339Y-128900000D01*
X268712661Y-128900000D01*
X268814394Y-128872741D01*
X268905606Y-128820080D01*
X268910000Y-128815686D01*
X268910000Y-129778872D01*
X269106317Y-129726269D01*
X269106326Y-129726265D01*
X269312482Y-129630134D01*
X269498820Y-129499657D01*
X269659657Y-129338820D01*
X269790134Y-129152482D01*
X269886265Y-128946326D01*
X269886269Y-128946317D01*
X269938872Y-128750000D01*
X268975686Y-128750000D01*
X268980080Y-128745606D01*
X269032741Y-128654394D01*
X269060000Y-128552661D01*
X269060000Y-128447339D01*
X269032741Y-128345606D01*
X268980080Y-128254394D01*
X268975686Y-128250000D01*
X269938872Y-128250000D01*
X269938872Y-128249999D01*
X269886269Y-128053682D01*
X269886265Y-128053673D01*
X269790134Y-127847517D01*
X269659657Y-127661179D01*
X269498820Y-127500342D01*
X269312482Y-127369865D01*
X269106328Y-127273734D01*
X268910000Y-127221127D01*
X268910000Y-128184314D01*
X268905606Y-128179920D01*
X268814394Y-128127259D01*
X268712661Y-128100000D01*
X268607339Y-128100000D01*
X268505606Y-128127259D01*
X268414394Y-128179920D01*
X268410000Y-128184314D01*
X268410000Y-127221127D01*
X268213671Y-127273734D01*
X268007517Y-127369865D01*
X267821179Y-127500342D01*
X267660342Y-127661179D01*
X267529865Y-127847517D01*
X267433734Y-128053673D01*
X267433730Y-128053682D01*
X267381127Y-128249999D01*
X259779389Y-128249999D01*
X259726739Y-128053504D01*
X259630568Y-127847266D01*
X259500047Y-127660861D01*
X259500045Y-127660858D01*
X259339141Y-127499954D01*
X259152734Y-127369432D01*
X259152732Y-127369431D01*
X259012095Y-127303850D01*
X258959656Y-127257677D01*
X258940500Y-127191468D01*
X258940500Y-123185304D01*
X258960185Y-123118265D01*
X258993375Y-123083730D01*
X259154620Y-122970826D01*
X259310826Y-122814620D01*
X259437534Y-122633662D01*
X259530894Y-122433450D01*
X259588070Y-122220068D01*
X259607323Y-122000000D01*
X259588070Y-121779932D01*
X259530894Y-121566550D01*
X259437534Y-121366339D01*
X259310826Y-121185380D01*
X259154620Y-121029174D01*
X259154616Y-121029171D01*
X259154615Y-121029170D01*
X259038797Y-120948074D01*
X258995172Y-120893497D01*
X258987978Y-120823999D01*
X259019501Y-120761644D01*
X259079730Y-120726230D01*
X259109919Y-120722499D01*
X259149872Y-120722499D01*
X259209483Y-120716091D01*
X259344331Y-120665796D01*
X259459546Y-120579546D01*
X259545796Y-120464331D01*
X259596091Y-120329483D01*
X259602500Y-120269873D01*
X259602499Y-118650128D01*
X259596091Y-118590517D01*
X259545796Y-118455669D01*
X259545795Y-118455668D01*
X259545793Y-118455664D01*
X259459547Y-118340455D01*
X259459544Y-118340452D01*
X259344335Y-118254206D01*
X259344328Y-118254202D01*
X259209482Y-118203908D01*
X259209483Y-118203908D01*
X259149883Y-118197501D01*
X259149881Y-118197500D01*
X259149873Y-118197500D01*
X259149864Y-118197500D01*
X257530129Y-118197500D01*
X257530123Y-118197501D01*
X257470516Y-118203908D01*
X257335671Y-118254202D01*
X257335664Y-118254206D01*
X257220455Y-118340452D01*
X257220452Y-118340455D01*
X257134206Y-118455664D01*
X257134202Y-118455671D01*
X257083908Y-118590517D01*
X257077501Y-118650116D01*
X257077501Y-118650123D01*
X257077500Y-118650135D01*
X257077500Y-120269870D01*
X257077501Y-120269876D01*
X257083908Y-120329483D01*
X257134202Y-120464328D01*
X257134206Y-120464335D01*
X257220452Y-120579544D01*
X257220455Y-120579547D01*
X257335664Y-120665793D01*
X257335671Y-120665797D01*
X257470517Y-120716091D01*
X257470516Y-120716091D01*
X257477444Y-120716835D01*
X257530127Y-120722500D01*
X257570079Y-120722499D01*
X257637116Y-120742182D01*
X257682872Y-120794985D01*
X257692817Y-120864143D01*
X257663794Y-120927700D01*
X257641203Y-120948074D01*
X257525375Y-121029177D01*
X257369175Y-121185377D01*
X257242466Y-121366338D01*
X257242465Y-121366340D01*
X257149107Y-121566548D01*
X257149104Y-121566554D01*
X257091930Y-121779929D01*
X257091929Y-121779937D01*
X257072677Y-121999997D01*
X251700500Y-121999997D01*
X251700500Y-120082412D01*
X251720185Y-120015373D01*
X251727555Y-120005097D01*
X251729810Y-120002267D01*
X251729816Y-120002262D01*
X251825789Y-119849522D01*
X251885368Y-119679255D01*
X251905565Y-119500000D01*
X251901058Y-119460002D01*
X251885369Y-119320750D01*
X251885368Y-119320745D01*
X251825788Y-119150476D01*
X251729815Y-118997737D01*
X251602262Y-118870184D01*
X251449523Y-118774211D01*
X251279254Y-118714631D01*
X251279249Y-118714630D01*
X251100004Y-118694435D01*
X251099996Y-118694435D01*
X250920750Y-118714630D01*
X250920745Y-118714631D01*
X250750476Y-118774211D01*
X250597737Y-118870184D01*
X250470184Y-118997737D01*
X250374211Y-119150476D01*
X250314631Y-119320745D01*
X250314630Y-119320750D01*
X250294435Y-119499996D01*
X250294435Y-119500003D01*
X250314630Y-119679249D01*
X250314631Y-119679254D01*
X250374211Y-119849523D01*
X250470185Y-120002263D01*
X250472445Y-120005097D01*
X250473334Y-120007275D01*
X250473889Y-120008158D01*
X250473734Y-120008255D01*
X250498855Y-120069783D01*
X250499500Y-120082412D01*
X250499500Y-126099902D01*
X250479815Y-126166941D01*
X250463181Y-126187583D01*
X249037582Y-127613181D01*
X248976259Y-127646666D01*
X248949901Y-127649500D01*
X247602129Y-127649500D01*
X247602123Y-127649501D01*
X247542516Y-127655908D01*
X247407671Y-127706202D01*
X247407664Y-127706206D01*
X247292455Y-127792452D01*
X247292452Y-127792455D01*
X247206206Y-127907664D01*
X247206202Y-127907671D01*
X247155908Y-128042517D01*
X247149501Y-128102116D01*
X247149500Y-128102135D01*
X246000500Y-128102135D01*
X246000500Y-124102135D01*
X247149500Y-124102135D01*
X247149500Y-125897870D01*
X247149501Y-125897876D01*
X247155908Y-125957483D01*
X247206202Y-126092328D01*
X247206206Y-126092335D01*
X247292452Y-126207544D01*
X247292455Y-126207547D01*
X247407664Y-126293793D01*
X247407671Y-126293797D01*
X247542517Y-126344091D01*
X247542516Y-126344091D01*
X247549444Y-126344835D01*
X247602127Y-126350500D01*
X249397872Y-126350499D01*
X249457483Y-126344091D01*
X249592331Y-126293796D01*
X249707546Y-126207546D01*
X249793796Y-126092331D01*
X249844091Y-125957483D01*
X249850500Y-125897873D01*
X249850499Y-124102128D01*
X249845299Y-124053757D01*
X249844091Y-124042516D01*
X249793797Y-123907671D01*
X249793793Y-123907664D01*
X249707547Y-123792455D01*
X249707544Y-123792452D01*
X249592335Y-123706206D01*
X249592328Y-123706202D01*
X249457482Y-123655908D01*
X249457483Y-123655908D01*
X249397883Y-123649501D01*
X249397881Y-123649500D01*
X249397873Y-123649500D01*
X249397864Y-123649500D01*
X247602129Y-123649500D01*
X247602123Y-123649501D01*
X247542516Y-123655908D01*
X247407671Y-123706202D01*
X247407664Y-123706206D01*
X247292455Y-123792452D01*
X247292452Y-123792455D01*
X247206206Y-123907664D01*
X247206202Y-123907671D01*
X247155908Y-124042517D01*
X247149501Y-124102116D01*
X247149501Y-124102123D01*
X247149500Y-124102135D01*
X246000500Y-124102135D01*
X246000500Y-115100097D01*
X246020185Y-115033058D01*
X246036819Y-115012416D01*
X246809237Y-114239998D01*
X252494532Y-114239998D01*
X252494532Y-114240001D01*
X252514364Y-114466686D01*
X252514366Y-114466697D01*
X252573258Y-114686488D01*
X252573261Y-114686497D01*
X252669431Y-114892732D01*
X252669432Y-114892734D01*
X252799954Y-115079141D01*
X252960858Y-115240045D01*
X252960861Y-115240047D01*
X253147266Y-115370568D01*
X253353504Y-115466739D01*
X253353509Y-115466740D01*
X253353511Y-115466741D01*
X253393788Y-115477533D01*
X253573308Y-115525635D01*
X253735230Y-115539801D01*
X253799998Y-115545468D01*
X253800000Y-115545468D01*
X253800002Y-115545468D01*
X253856673Y-115540509D01*
X254026692Y-115525635D01*
X254246496Y-115466739D01*
X254452734Y-115370568D01*
X254639139Y-115240047D01*
X254800047Y-115079139D01*
X254930568Y-114892734D01*
X255026739Y-114686496D01*
X255085635Y-114466692D01*
X255105468Y-114240000D01*
X255103783Y-114220745D01*
X255088887Y-114050478D01*
X255085635Y-114013308D01*
X255026739Y-113793504D01*
X254930568Y-113587266D01*
X254812845Y-113419139D01*
X254800045Y-113400858D01*
X254639141Y-113239954D01*
X254452734Y-113109432D01*
X254452732Y-113109431D01*
X254246497Y-113013261D01*
X254246488Y-113013258D01*
X254026697Y-112954366D01*
X254026693Y-112954365D01*
X254026692Y-112954365D01*
X254026691Y-112954364D01*
X254026686Y-112954364D01*
X253800002Y-112934532D01*
X253799998Y-112934532D01*
X253573313Y-112954364D01*
X253573302Y-112954366D01*
X253353511Y-113013258D01*
X253353502Y-113013261D01*
X253147267Y-113109431D01*
X253147265Y-113109432D01*
X252960858Y-113239954D01*
X252799954Y-113400858D01*
X252669432Y-113587265D01*
X252669431Y-113587267D01*
X252573261Y-113793502D01*
X252573258Y-113793511D01*
X252514366Y-114013302D01*
X252514364Y-114013313D01*
X252494532Y-114239998D01*
X246809237Y-114239998D01*
X246889306Y-114159929D01*
X247780520Y-113268716D01*
X247821746Y-113197307D01*
X247872309Y-113149094D01*
X248007816Y-113080051D01*
X248179792Y-112955104D01*
X248330104Y-112804792D01*
X248330106Y-112804788D01*
X248330109Y-112804786D01*
X248455048Y-112632820D01*
X248455047Y-112632820D01*
X248455051Y-112632816D01*
X248551557Y-112443412D01*
X248617246Y-112241243D01*
X248650500Y-112031287D01*
X248650500Y-111839997D01*
X256482677Y-111839997D01*
X256482677Y-111840002D01*
X256501929Y-112060062D01*
X256501930Y-112060070D01*
X256559104Y-112273445D01*
X256559105Y-112273447D01*
X256559106Y-112273450D01*
X256596347Y-112353313D01*
X256652466Y-112473662D01*
X256652468Y-112473666D01*
X256779170Y-112654615D01*
X256779175Y-112654621D01*
X256935378Y-112810824D01*
X256935384Y-112810829D01*
X257116333Y-112937531D01*
X257116335Y-112937532D01*
X257116338Y-112937534D01*
X257198514Y-112975853D01*
X257245189Y-112997618D01*
X257297628Y-113043790D01*
X257316780Y-113110984D01*
X257296564Y-113177865D01*
X257245189Y-113222382D01*
X257116340Y-113282465D01*
X257116338Y-113282466D01*
X256935377Y-113409175D01*
X256779175Y-113565377D01*
X256652466Y-113746338D01*
X256652465Y-113746340D01*
X256559107Y-113946548D01*
X256559104Y-113946554D01*
X256501930Y-114159929D01*
X256501929Y-114159937D01*
X256482677Y-114379997D01*
X256482677Y-114380002D01*
X256501929Y-114600058D01*
X256501930Y-114600070D01*
X256559104Y-114813445D01*
X256559105Y-114813447D01*
X256559106Y-114813450D01*
X256651885Y-115012416D01*
X256652466Y-115013662D01*
X256652468Y-115013666D01*
X256779170Y-115194615D01*
X256779175Y-115194621D01*
X256935378Y-115350824D01*
X256935384Y-115350829D01*
X257116333Y-115477531D01*
X257116335Y-115477532D01*
X257116338Y-115477534D01*
X257316550Y-115570894D01*
X257529932Y-115628070D01*
X257687123Y-115641822D01*
X257749998Y-115647323D01*
X257750000Y-115647323D01*
X257750002Y-115647323D01*
X257805151Y-115642498D01*
X257970068Y-115628070D01*
X258183450Y-115570894D01*
X258383662Y-115477534D01*
X258564620Y-115350826D01*
X258720826Y-115194620D01*
X258847534Y-115013662D01*
X258940894Y-114813450D01*
X258998070Y-114600068D01*
X258999891Y-114579254D01*
X259017323Y-114380002D01*
X259017323Y-114379997D01*
X258998070Y-114159937D01*
X258998070Y-114159932D01*
X258940894Y-113946550D01*
X258847534Y-113746339D01*
X258769522Y-113634925D01*
X258720827Y-113565381D01*
X258665962Y-113510516D01*
X258564620Y-113409174D01*
X258564616Y-113409171D01*
X258564615Y-113409170D01*
X258383666Y-113282468D01*
X258383658Y-113282464D01*
X258254811Y-113222382D01*
X258202371Y-113176210D01*
X258183219Y-113109017D01*
X258203435Y-113042135D01*
X258254811Y-112997618D01*
X258301486Y-112975853D01*
X258383662Y-112937534D01*
X258564620Y-112810826D01*
X258720826Y-112654620D01*
X258847534Y-112473662D01*
X258940894Y-112273450D01*
X258998070Y-112060068D01*
X259013256Y-111886488D01*
X259017323Y-111840002D01*
X259017323Y-111839997D01*
X259008649Y-111740858D01*
X258998070Y-111619932D01*
X258940894Y-111406550D01*
X258847534Y-111206339D01*
X258720826Y-111025380D01*
X258564620Y-110869174D01*
X258564616Y-110869171D01*
X258564615Y-110869170D01*
X258383666Y-110742468D01*
X258383662Y-110742466D01*
X258350499Y-110727002D01*
X258183450Y-110649106D01*
X258183447Y-110649105D01*
X258183445Y-110649104D01*
X257970070Y-110591930D01*
X257970062Y-110591929D01*
X257750002Y-110572677D01*
X257749998Y-110572677D01*
X257529937Y-110591929D01*
X257529929Y-110591930D01*
X257316554Y-110649104D01*
X257316548Y-110649107D01*
X257116340Y-110742465D01*
X257116338Y-110742466D01*
X256935377Y-110869175D01*
X256779175Y-111025377D01*
X256652466Y-111206338D01*
X256652465Y-111206340D01*
X256559107Y-111406548D01*
X256559104Y-111406554D01*
X256501930Y-111619929D01*
X256501929Y-111619937D01*
X256482677Y-111839997D01*
X248650500Y-111839997D01*
X248650500Y-111568713D01*
X248617246Y-111358757D01*
X248551557Y-111156588D01*
X248455051Y-110967184D01*
X248455049Y-110967181D01*
X248455048Y-110967179D01*
X248330109Y-110795213D01*
X248179786Y-110644890D01*
X248007820Y-110519951D01*
X247818414Y-110423444D01*
X247818413Y-110423443D01*
X247818412Y-110423443D01*
X247616243Y-110357754D01*
X247616241Y-110357753D01*
X247616240Y-110357753D01*
X247454957Y-110332208D01*
X247406287Y-110324500D01*
X247193713Y-110324500D01*
X247145042Y-110332208D01*
X246983760Y-110357753D01*
X246781585Y-110423444D01*
X246592179Y-110519951D01*
X246420213Y-110644890D01*
X246269894Y-110795209D01*
X246269890Y-110795214D01*
X246150318Y-110959793D01*
X246094989Y-111002459D01*
X246025375Y-111008438D01*
X245963580Y-110975833D01*
X245949682Y-110959793D01*
X245830109Y-110795214D01*
X245830105Y-110795209D01*
X245679786Y-110644890D01*
X245507820Y-110519951D01*
X245318414Y-110423444D01*
X245318413Y-110423443D01*
X245318412Y-110423443D01*
X245116243Y-110357754D01*
X245116241Y-110357753D01*
X245116240Y-110357753D01*
X244954957Y-110332208D01*
X244906287Y-110324500D01*
X244693713Y-110324500D01*
X244645042Y-110332208D01*
X244483760Y-110357753D01*
X244281585Y-110423444D01*
X244092179Y-110519951D01*
X243920213Y-110644890D01*
X243769894Y-110795209D01*
X243769890Y-110795214D01*
X243650318Y-110959793D01*
X243594989Y-111002459D01*
X243525375Y-111008438D01*
X243463580Y-110975833D01*
X243449682Y-110959793D01*
X243330109Y-110795214D01*
X243330105Y-110795209D01*
X243179786Y-110644890D01*
X243007820Y-110519951D01*
X242818414Y-110423444D01*
X242818413Y-110423443D01*
X242818412Y-110423443D01*
X242616243Y-110357754D01*
X242616241Y-110357753D01*
X242616240Y-110357753D01*
X242454957Y-110332208D01*
X242406287Y-110324500D01*
X242193713Y-110324500D01*
X242145042Y-110332208D01*
X241983760Y-110357753D01*
X241781585Y-110423444D01*
X241592179Y-110519951D01*
X241420215Y-110644889D01*
X241281035Y-110784069D01*
X241219712Y-110817553D01*
X241150020Y-110812569D01*
X241094087Y-110770697D01*
X241087815Y-110761484D01*
X240992315Y-110606654D01*
X240868345Y-110482684D01*
X240719124Y-110390643D01*
X240719119Y-110390641D01*
X240552697Y-110335494D01*
X240552690Y-110335493D01*
X240449986Y-110325000D01*
X240050000Y-110325000D01*
X240050000Y-111395854D01*
X239983343Y-111357370D01*
X239862535Y-111325000D01*
X239737465Y-111325000D01*
X239616657Y-111357370D01*
X239550000Y-111395854D01*
X239550000Y-110325000D01*
X239150028Y-110325000D01*
X239150012Y-110325001D01*
X239047302Y-110335494D01*
X238880880Y-110390641D01*
X238880875Y-110390643D01*
X238731654Y-110482684D01*
X238607684Y-110606654D01*
X238515643Y-110755875D01*
X238515641Y-110755880D01*
X238460494Y-110922302D01*
X238460493Y-110922309D01*
X238450000Y-111025013D01*
X224500500Y-111025013D01*
X224500500Y-104525493D01*
X224519508Y-104459519D01*
X224525787Y-104449525D01*
X224525786Y-104449525D01*
X224525789Y-104449522D01*
X224585368Y-104279255D01*
X224589076Y-104246344D01*
X224605565Y-104100003D01*
X224605565Y-104099996D01*
X224585369Y-103920750D01*
X224585368Y-103920745D01*
X224525789Y-103750478D01*
X224429816Y-103597738D01*
X224302262Y-103470184D01*
X224149523Y-103374211D01*
X223979254Y-103314631D01*
X223979249Y-103314630D01*
X223800004Y-103294435D01*
X223799996Y-103294435D01*
X223620750Y-103314630D01*
X223620745Y-103314631D01*
X223450476Y-103374211D01*
X223297737Y-103470184D01*
X223170184Y-103597737D01*
X223074211Y-103750476D01*
X223014631Y-103920745D01*
X223014630Y-103920750D01*
X222994435Y-104099996D01*
X222994435Y-104100003D01*
X223014630Y-104279249D01*
X223014631Y-104279254D01*
X223074212Y-104449525D01*
X223080492Y-104459519D01*
X223099500Y-104525493D01*
X223099500Y-165478481D01*
X223079815Y-165545520D01*
X223063181Y-165566162D01*
X218691104Y-169938238D01*
X218629781Y-169971723D01*
X218560089Y-169966739D01*
X218504156Y-169924867D01*
X218480950Y-169869955D01*
X218473402Y-169822301D01*
X218473402Y-169822299D01*
X218419873Y-169657555D01*
X218341232Y-169503212D01*
X218239414Y-169363072D01*
X218116928Y-169240586D01*
X217976788Y-169138768D01*
X217822445Y-169060127D01*
X217657701Y-169006598D01*
X217657699Y-169006597D01*
X217657698Y-169006597D01*
X217526271Y-168985781D01*
X217486611Y-168979500D01*
X216709097Y-168979500D01*
X216642058Y-168959815D01*
X216596303Y-168907011D01*
X216586359Y-168837853D01*
X216615384Y-168774297D01*
X216621416Y-168767819D01*
X216712416Y-168676819D01*
X216773739Y-168643334D01*
X216800097Y-168640500D01*
X217486610Y-168640500D01*
X217486611Y-168640500D01*
X217657701Y-168613402D01*
X217822445Y-168559873D01*
X217976788Y-168481232D01*
X218116928Y-168379414D01*
X218239414Y-168256928D01*
X218341232Y-168116788D01*
X218419873Y-167962445D01*
X218473402Y-167797701D01*
X218500500Y-167626611D01*
X218500500Y-167453389D01*
X218473402Y-167282299D01*
X218419873Y-167117555D01*
X218341232Y-166963212D01*
X218239414Y-166823072D01*
X218116928Y-166700586D01*
X217976788Y-166598768D01*
X217822445Y-166520127D01*
X217657701Y-166466598D01*
X217657699Y-166466597D01*
X217657698Y-166466597D01*
X217526271Y-166445781D01*
X217486611Y-166439500D01*
X216659097Y-166439500D01*
X216592058Y-166419815D01*
X216546303Y-166367011D01*
X216536359Y-166297853D01*
X216565384Y-166234297D01*
X216571416Y-166227819D01*
X216662416Y-166136819D01*
X216723739Y-166103334D01*
X216750097Y-166100500D01*
X217486610Y-166100500D01*
X217486611Y-166100500D01*
X217657701Y-166073402D01*
X217822445Y-166019873D01*
X217976788Y-165941232D01*
X218116928Y-165839414D01*
X218239414Y-165716928D01*
X218341232Y-165576788D01*
X218419873Y-165422445D01*
X218473402Y-165257701D01*
X218500500Y-165086611D01*
X218500500Y-164913389D01*
X218473402Y-164742299D01*
X218419873Y-164577555D01*
X218341232Y-164423212D01*
X218239414Y-164283072D01*
X218116928Y-164160586D01*
X217976788Y-164058768D01*
X217822445Y-163980127D01*
X217657701Y-163926598D01*
X217657699Y-163926597D01*
X217657698Y-163926597D01*
X217526271Y-163905781D01*
X217486611Y-163899500D01*
X216513389Y-163899500D01*
X216481192Y-163904599D01*
X216342301Y-163926597D01*
X216211867Y-163968978D01*
X216142026Y-163970973D01*
X216082193Y-163934893D01*
X216051365Y-163872192D01*
X216059330Y-163802777D01*
X216085866Y-163763368D01*
X216274777Y-163574457D01*
X216336098Y-163540974D01*
X216381854Y-163539667D01*
X216433396Y-163547830D01*
X216513389Y-163560500D01*
X216513390Y-163560500D01*
X217486610Y-163560500D01*
X217486611Y-163560500D01*
X217657701Y-163533402D01*
X217822445Y-163479873D01*
X217976788Y-163401232D01*
X218116928Y-163299414D01*
X218239414Y-163176928D01*
X218341232Y-163036788D01*
X218419873Y-162882445D01*
X218473402Y-162717701D01*
X218500500Y-162546611D01*
X218500500Y-162373389D01*
X218473402Y-162202299D01*
X218419873Y-162037555D01*
X218341232Y-161883212D01*
X218239414Y-161743072D01*
X218116928Y-161620586D01*
X217976788Y-161518768D01*
X217822445Y-161440127D01*
X217657701Y-161386598D01*
X217657699Y-161386597D01*
X217657698Y-161386597D01*
X217526271Y-161365781D01*
X217486611Y-161359500D01*
X216513389Y-161359500D01*
X216473728Y-161365781D01*
X216342302Y-161386597D01*
X216177552Y-161440128D01*
X216023211Y-161518768D01*
X215943256Y-161576859D01*
X215883072Y-161620586D01*
X215883070Y-161620588D01*
X215883069Y-161620588D01*
X215760588Y-161743069D01*
X215760588Y-161743070D01*
X215760586Y-161743072D01*
X215716859Y-161803256D01*
X215658768Y-161883211D01*
X215580128Y-162037552D01*
X215526597Y-162202302D01*
X215499500Y-162373389D01*
X215499500Y-162546611D01*
X215499499Y-162546611D01*
X215503925Y-162574551D01*
X215494970Y-162643844D01*
X215469133Y-162681629D01*
X208037582Y-170113181D01*
X207976259Y-170146666D01*
X207949901Y-170149500D01*
X206602129Y-170149500D01*
X206602123Y-170149501D01*
X206542516Y-170155908D01*
X206407671Y-170206202D01*
X206407664Y-170206206D01*
X206292455Y-170292452D01*
X206292452Y-170292455D01*
X206206206Y-170407664D01*
X206206202Y-170407671D01*
X206155908Y-170542517D01*
X206149501Y-170602116D01*
X206149500Y-170602135D01*
X198125500Y-170602135D01*
X198125500Y-166602155D01*
X206150000Y-166602155D01*
X206150000Y-167250000D01*
X207066988Y-167250000D01*
X207034075Y-167307007D01*
X207000000Y-167434174D01*
X207000000Y-167565826D01*
X207034075Y-167692993D01*
X207066988Y-167750000D01*
X206150000Y-167750000D01*
X206150000Y-168397844D01*
X206156401Y-168457372D01*
X206156403Y-168457379D01*
X206206645Y-168592086D01*
X206206649Y-168592093D01*
X206292809Y-168707187D01*
X206292812Y-168707190D01*
X206407906Y-168793350D01*
X206407913Y-168793354D01*
X206542620Y-168843596D01*
X206542627Y-168843598D01*
X206602155Y-168849999D01*
X206602172Y-168850000D01*
X207250000Y-168850000D01*
X207250000Y-167933012D01*
X207307007Y-167965925D01*
X207434174Y-168000000D01*
X207565826Y-168000000D01*
X207692993Y-167965925D01*
X207750000Y-167933012D01*
X207750000Y-168850000D01*
X208397828Y-168850000D01*
X208397844Y-168849999D01*
X208457372Y-168843598D01*
X208457379Y-168843596D01*
X208592086Y-168793354D01*
X208592093Y-168793350D01*
X208707187Y-168707190D01*
X208707190Y-168707187D01*
X208793350Y-168592093D01*
X208793354Y-168592086D01*
X208843596Y-168457379D01*
X208843598Y-168457372D01*
X208849999Y-168397844D01*
X208850000Y-168397827D01*
X208850000Y-167750000D01*
X207933012Y-167750000D01*
X207965925Y-167692993D01*
X208000000Y-167565826D01*
X208000000Y-167434174D01*
X207965925Y-167307007D01*
X207933012Y-167250000D01*
X208850000Y-167250000D01*
X208850000Y-166602172D01*
X208849999Y-166602155D01*
X208843598Y-166542627D01*
X208843596Y-166542620D01*
X208793354Y-166407913D01*
X208793350Y-166407906D01*
X208707190Y-166292812D01*
X208707187Y-166292809D01*
X208592093Y-166206649D01*
X208592086Y-166206645D01*
X208457379Y-166156403D01*
X208457372Y-166156401D01*
X208397844Y-166150000D01*
X207750000Y-166150000D01*
X207750000Y-167066988D01*
X207692993Y-167034075D01*
X207565826Y-167000000D01*
X207434174Y-167000000D01*
X207307007Y-167034075D01*
X207250000Y-167066988D01*
X207250000Y-166150000D01*
X206602155Y-166150000D01*
X206542627Y-166156401D01*
X206542620Y-166156403D01*
X206407913Y-166206645D01*
X206407906Y-166206649D01*
X206292812Y-166292809D01*
X206292809Y-166292812D01*
X206206649Y-166407906D01*
X206206645Y-166407913D01*
X206156403Y-166542620D01*
X206156401Y-166542627D01*
X206150000Y-166602155D01*
X198125500Y-166602155D01*
X198125500Y-162602135D01*
X206149500Y-162602135D01*
X206149500Y-164397870D01*
X206149501Y-164397876D01*
X206155908Y-164457483D01*
X206206202Y-164592328D01*
X206206206Y-164592335D01*
X206292452Y-164707544D01*
X206292455Y-164707547D01*
X206407664Y-164793793D01*
X206407671Y-164793797D01*
X206542517Y-164844091D01*
X206542516Y-164844091D01*
X206549444Y-164844835D01*
X206602127Y-164850500D01*
X208397872Y-164850499D01*
X208457483Y-164844091D01*
X208592331Y-164793796D01*
X208707546Y-164707546D01*
X208793796Y-164592331D01*
X208844091Y-164457483D01*
X208850500Y-164397873D01*
X208850500Y-164224500D01*
X208870185Y-164157461D01*
X208922989Y-164111706D01*
X208974500Y-164100500D01*
X210793331Y-164100500D01*
X210793347Y-164100501D01*
X210800943Y-164100501D01*
X210959054Y-164100501D01*
X210959057Y-164100501D01*
X211111785Y-164059577D01*
X211161904Y-164030639D01*
X211248716Y-163980520D01*
X211360520Y-163868716D01*
X211360520Y-163868714D01*
X211370728Y-163858507D01*
X211370729Y-163858504D01*
X215289999Y-159939234D01*
X215351319Y-159905752D01*
X215421011Y-159910736D01*
X215476944Y-159952608D01*
X215500150Y-160007520D01*
X215527085Y-160177584D01*
X215580591Y-160342257D01*
X215659195Y-160496524D01*
X215760967Y-160636602D01*
X215883397Y-160759032D01*
X216023475Y-160860804D01*
X216177742Y-160939408D01*
X216342415Y-160992914D01*
X216513429Y-161020000D01*
X216750000Y-161020000D01*
X216750000Y-160235686D01*
X216754394Y-160240080D01*
X216845606Y-160292741D01*
X216947339Y-160320000D01*
X217052661Y-160320000D01*
X217154394Y-160292741D01*
X217245606Y-160240080D01*
X217250000Y-160235686D01*
X217250000Y-161020000D01*
X217486571Y-161020000D01*
X217657584Y-160992914D01*
X217822257Y-160939408D01*
X217976524Y-160860804D01*
X218116602Y-160759032D01*
X218239032Y-160636602D01*
X218340804Y-160496524D01*
X218419408Y-160342255D01*
X218472914Y-160177584D01*
X218474115Y-160170000D01*
X217315686Y-160170000D01*
X217320080Y-160165606D01*
X217372741Y-160074394D01*
X217400000Y-159972661D01*
X217400000Y-159867339D01*
X217372741Y-159765606D01*
X217320080Y-159674394D01*
X217315686Y-159670000D01*
X218474115Y-159670000D01*
X218474115Y-159669999D01*
X218472914Y-159662415D01*
X218419408Y-159497744D01*
X218340804Y-159343475D01*
X218239032Y-159203397D01*
X218116602Y-159080967D01*
X217976524Y-158979195D01*
X217822257Y-158900591D01*
X217657584Y-158847085D01*
X217486571Y-158820000D01*
X217250000Y-158820000D01*
X217250000Y-159604314D01*
X217245606Y-159599920D01*
X217154394Y-159547259D01*
X217052661Y-159520000D01*
X216947339Y-159520000D01*
X216845606Y-159547259D01*
X216754394Y-159599920D01*
X216750000Y-159604314D01*
X216750000Y-158820000D01*
X216708597Y-158820000D01*
X216641558Y-158800315D01*
X216595803Y-158747511D01*
X216585859Y-158678353D01*
X216614884Y-158614797D01*
X216620916Y-158608319D01*
X216712416Y-158516819D01*
X216773739Y-158483334D01*
X216800097Y-158480500D01*
X217486610Y-158480500D01*
X217486611Y-158480500D01*
X217657701Y-158453402D01*
X217822445Y-158399873D01*
X217976788Y-158321232D01*
X218116928Y-158219414D01*
X218239414Y-158096928D01*
X218341232Y-157956788D01*
X218419873Y-157802445D01*
X218473402Y-157637701D01*
X218500500Y-157466611D01*
X218500500Y-157293389D01*
X218473402Y-157122299D01*
X218419873Y-156957555D01*
X218341232Y-156803212D01*
X218239414Y-156663072D01*
X218116928Y-156540586D01*
X217976788Y-156438768D01*
X217822445Y-156360127D01*
X217657701Y-156306598D01*
X217657699Y-156306597D01*
X217657698Y-156306597D01*
X217526271Y-156285781D01*
X217486611Y-156279500D01*
X216513389Y-156279500D01*
X216473728Y-156285781D01*
X216342302Y-156306597D01*
X216177552Y-156360128D01*
X216023211Y-156438768D01*
X215943256Y-156496859D01*
X215883072Y-156540586D01*
X215883070Y-156540588D01*
X215883069Y-156540588D01*
X215760588Y-156663069D01*
X215760588Y-156663070D01*
X215760586Y-156663072D01*
X215728275Y-156707544D01*
X215658768Y-156803211D01*
X215580128Y-156957552D01*
X215526597Y-157122302D01*
X215499500Y-157293389D01*
X215499500Y-157466610D01*
X215526597Y-157637697D01*
X215580126Y-157802442D01*
X215580128Y-157802447D01*
X215589248Y-157820346D01*
X215602143Y-157889015D01*
X215575866Y-157953755D01*
X215566443Y-157964320D01*
X210667584Y-162863181D01*
X210606261Y-162896666D01*
X210579903Y-162899500D01*
X208974499Y-162899500D01*
X208907460Y-162879815D01*
X208861705Y-162827011D01*
X208850499Y-162775500D01*
X208850499Y-162602129D01*
X208850498Y-162602123D01*
X208850497Y-162602116D01*
X208844091Y-162542517D01*
X208793796Y-162407669D01*
X208793795Y-162407668D01*
X208793793Y-162407664D01*
X208707547Y-162292455D01*
X208707544Y-162292452D01*
X208592335Y-162206206D01*
X208592328Y-162206202D01*
X208457482Y-162155908D01*
X208457483Y-162155908D01*
X208397883Y-162149501D01*
X208397881Y-162149500D01*
X208397873Y-162149500D01*
X208397864Y-162149500D01*
X206602129Y-162149500D01*
X206602123Y-162149501D01*
X206542516Y-162155908D01*
X206407671Y-162206202D01*
X206407664Y-162206206D01*
X206292455Y-162292452D01*
X206292452Y-162292455D01*
X206206206Y-162407664D01*
X206206202Y-162407671D01*
X206155908Y-162542517D01*
X206151959Y-162579254D01*
X206149501Y-162602123D01*
X206149500Y-162602135D01*
X198125500Y-162602135D01*
X198125500Y-158602135D01*
X206149500Y-158602135D01*
X206149500Y-160397870D01*
X206149501Y-160397876D01*
X206155908Y-160457483D01*
X206206202Y-160592328D01*
X206206206Y-160592335D01*
X206292452Y-160707544D01*
X206292455Y-160707547D01*
X206407664Y-160793793D01*
X206407671Y-160793797D01*
X206542517Y-160844091D01*
X206542516Y-160844091D01*
X206549444Y-160844835D01*
X206602127Y-160850500D01*
X208397872Y-160850499D01*
X208457483Y-160844091D01*
X208592331Y-160793796D01*
X208707546Y-160707546D01*
X208793796Y-160592331D01*
X208844091Y-160457483D01*
X208850500Y-160397873D01*
X208850499Y-158602128D01*
X208844091Y-158542517D01*
X208834506Y-158516819D01*
X208793797Y-158407671D01*
X208793793Y-158407664D01*
X208707547Y-158292455D01*
X208707544Y-158292452D01*
X208592335Y-158206206D01*
X208592328Y-158206202D01*
X208457482Y-158155908D01*
X208457483Y-158155908D01*
X208397883Y-158149501D01*
X208397881Y-158149500D01*
X208397873Y-158149500D01*
X208397864Y-158149500D01*
X206602129Y-158149500D01*
X206602123Y-158149501D01*
X206542516Y-158155908D01*
X206407671Y-158206202D01*
X206407664Y-158206206D01*
X206292455Y-158292452D01*
X206292452Y-158292455D01*
X206206206Y-158407664D01*
X206206202Y-158407671D01*
X206155908Y-158542517D01*
X206149501Y-158602116D01*
X206149501Y-158602123D01*
X206149500Y-158602135D01*
X198125500Y-158602135D01*
X198125500Y-154602135D01*
X206149500Y-154602135D01*
X206149500Y-156397870D01*
X206149501Y-156397876D01*
X206155908Y-156457483D01*
X206206202Y-156592328D01*
X206206206Y-156592335D01*
X206292452Y-156707544D01*
X206292455Y-156707547D01*
X206407664Y-156793793D01*
X206407671Y-156793797D01*
X206542517Y-156844091D01*
X206542516Y-156844091D01*
X206549444Y-156844835D01*
X206602127Y-156850500D01*
X208397872Y-156850499D01*
X208457483Y-156844091D01*
X208592331Y-156793796D01*
X208707546Y-156707546D01*
X208793796Y-156592331D01*
X208844091Y-156457483D01*
X208850500Y-156397873D01*
X208850499Y-154753389D01*
X215499500Y-154753389D01*
X215499500Y-154926610D01*
X215519006Y-155049771D01*
X215526598Y-155097701D01*
X215580127Y-155262445D01*
X215658768Y-155416788D01*
X215760586Y-155556928D01*
X215883072Y-155679414D01*
X216023212Y-155781232D01*
X216177555Y-155859873D01*
X216342299Y-155913402D01*
X216513389Y-155940500D01*
X216513390Y-155940500D01*
X217486610Y-155940500D01*
X217486611Y-155940500D01*
X217657701Y-155913402D01*
X217822445Y-155859873D01*
X217976788Y-155781232D01*
X218116928Y-155679414D01*
X218239414Y-155556928D01*
X218341232Y-155416788D01*
X218419873Y-155262445D01*
X218473402Y-155097701D01*
X218500500Y-154926611D01*
X218500500Y-154753389D01*
X218473402Y-154582299D01*
X218419873Y-154417555D01*
X218341232Y-154263212D01*
X218239414Y-154123072D01*
X218116928Y-154000586D01*
X217976788Y-153898768D01*
X217822445Y-153820127D01*
X217657701Y-153766598D01*
X217657699Y-153766597D01*
X217657698Y-153766597D01*
X217526271Y-153745781D01*
X217486611Y-153739500D01*
X216513389Y-153739500D01*
X216473728Y-153745781D01*
X216342302Y-153766597D01*
X216177552Y-153820128D01*
X216023211Y-153898768D01*
X215943256Y-153956859D01*
X215883072Y-154000586D01*
X215883070Y-154000588D01*
X215883069Y-154000588D01*
X215760588Y-154123069D01*
X215760588Y-154123070D01*
X215760586Y-154123072D01*
X215728247Y-154167583D01*
X215658768Y-154263211D01*
X215580128Y-154417552D01*
X215526597Y-154582302D01*
X215499500Y-154753389D01*
X208850499Y-154753389D01*
X208850499Y-154602128D01*
X208844091Y-154542517D01*
X208812962Y-154459057D01*
X208793797Y-154407671D01*
X208793793Y-154407664D01*
X208707547Y-154292455D01*
X208707544Y-154292452D01*
X208592335Y-154206206D01*
X208592328Y-154206202D01*
X208457482Y-154155908D01*
X208457483Y-154155908D01*
X208397883Y-154149501D01*
X208397881Y-154149500D01*
X208397873Y-154149500D01*
X208397864Y-154149500D01*
X206602129Y-154149500D01*
X206602123Y-154149501D01*
X206542516Y-154155908D01*
X206407671Y-154206202D01*
X206407664Y-154206206D01*
X206292455Y-154292452D01*
X206292452Y-154292455D01*
X206206206Y-154407664D01*
X206206202Y-154407671D01*
X206155908Y-154542517D01*
X206151631Y-154582302D01*
X206149501Y-154602123D01*
X206149500Y-154602135D01*
X198125500Y-154602135D01*
X198125500Y-150602135D01*
X206149500Y-150602135D01*
X206149500Y-152397870D01*
X206149501Y-152397876D01*
X206155908Y-152457483D01*
X206206202Y-152592328D01*
X206206206Y-152592335D01*
X206292452Y-152707544D01*
X206292455Y-152707547D01*
X206407664Y-152793793D01*
X206407671Y-152793797D01*
X206542517Y-152844091D01*
X206542516Y-152844091D01*
X206549444Y-152844835D01*
X206602127Y-152850500D01*
X208397872Y-152850499D01*
X208457483Y-152844091D01*
X208592331Y-152793796D01*
X208707546Y-152707546D01*
X208793796Y-152592331D01*
X208844091Y-152457483D01*
X208850500Y-152397873D01*
X208850500Y-152213389D01*
X215499500Y-152213389D01*
X215499500Y-152386611D01*
X215526598Y-152557701D01*
X215580127Y-152722445D01*
X215658768Y-152876788D01*
X215760586Y-153016928D01*
X215883072Y-153139414D01*
X216023212Y-153241232D01*
X216177555Y-153319873D01*
X216342299Y-153373402D01*
X216513389Y-153400500D01*
X216513390Y-153400500D01*
X217486610Y-153400500D01*
X217486611Y-153400500D01*
X217657701Y-153373402D01*
X217822445Y-153319873D01*
X217976788Y-153241232D01*
X218116928Y-153139414D01*
X218239414Y-153016928D01*
X218341232Y-152876788D01*
X218419873Y-152722445D01*
X218473402Y-152557701D01*
X218500500Y-152386611D01*
X218500500Y-152213389D01*
X218473402Y-152042299D01*
X218419873Y-151877555D01*
X218341232Y-151723212D01*
X218239414Y-151583072D01*
X218116928Y-151460586D01*
X217976788Y-151358768D01*
X217822445Y-151280127D01*
X217657701Y-151226598D01*
X217657699Y-151226597D01*
X217657698Y-151226597D01*
X217526271Y-151205781D01*
X217486611Y-151199500D01*
X216513389Y-151199500D01*
X216473728Y-151205781D01*
X216342302Y-151226597D01*
X216177552Y-151280128D01*
X216023211Y-151358768D01*
X215943256Y-151416859D01*
X215883072Y-151460586D01*
X215883070Y-151460588D01*
X215883069Y-151460588D01*
X215760588Y-151583069D01*
X215760588Y-151583070D01*
X215760586Y-151583072D01*
X215716859Y-151643256D01*
X215658768Y-151723211D01*
X215580128Y-151877552D01*
X215526597Y-152042302D01*
X215517122Y-152102127D01*
X215499500Y-152213389D01*
X208850500Y-152213389D01*
X208850499Y-150602128D01*
X208844091Y-150542517D01*
X208819628Y-150476929D01*
X208793797Y-150407671D01*
X208793793Y-150407664D01*
X208707547Y-150292455D01*
X208707544Y-150292452D01*
X208592335Y-150206206D01*
X208592328Y-150206202D01*
X208457482Y-150155908D01*
X208457483Y-150155908D01*
X208397883Y-150149501D01*
X208397881Y-150149500D01*
X208397873Y-150149500D01*
X208397864Y-150149500D01*
X206602129Y-150149500D01*
X206602123Y-150149501D01*
X206542516Y-150155908D01*
X206407671Y-150206202D01*
X206407664Y-150206206D01*
X206292455Y-150292452D01*
X206292452Y-150292455D01*
X206206206Y-150407664D01*
X206206202Y-150407671D01*
X206155908Y-150542517D01*
X206149501Y-150602116D01*
X206149501Y-150602123D01*
X206149500Y-150602135D01*
X198125500Y-150602135D01*
X198125500Y-149673389D01*
X215499500Y-149673389D01*
X215499500Y-149846611D01*
X215526598Y-150017701D01*
X215580127Y-150182445D01*
X215658768Y-150336788D01*
X215760586Y-150476928D01*
X215883072Y-150599414D01*
X216023212Y-150701232D01*
X216177555Y-150779873D01*
X216342299Y-150833402D01*
X216513389Y-150860500D01*
X216513390Y-150860500D01*
X217486610Y-150860500D01*
X217486611Y-150860500D01*
X217657701Y-150833402D01*
X217822445Y-150779873D01*
X217976788Y-150701232D01*
X218116928Y-150599414D01*
X218239414Y-150476928D01*
X218341232Y-150336788D01*
X218419873Y-150182445D01*
X218473402Y-150017701D01*
X218500500Y-149846611D01*
X218500500Y-149673389D01*
X218473402Y-149502299D01*
X218419873Y-149337555D01*
X218341232Y-149183212D01*
X218239414Y-149043072D01*
X218116928Y-148920586D01*
X217976788Y-148818768D01*
X217822445Y-148740127D01*
X217657701Y-148686598D01*
X217657699Y-148686597D01*
X217657698Y-148686597D01*
X217526271Y-148665781D01*
X217486611Y-148659500D01*
X216513389Y-148659500D01*
X216473728Y-148665781D01*
X216342302Y-148686597D01*
X216177552Y-148740128D01*
X216023211Y-148818768D01*
X215943256Y-148876859D01*
X215883072Y-148920586D01*
X215883070Y-148920588D01*
X215883069Y-148920588D01*
X215760588Y-149043069D01*
X215760588Y-149043070D01*
X215760586Y-149043072D01*
X215716859Y-149103256D01*
X215658768Y-149183211D01*
X215580128Y-149337552D01*
X215526597Y-149502302D01*
X215499500Y-149673389D01*
X198125500Y-149673389D01*
X198125500Y-146602135D01*
X206149500Y-146602135D01*
X206149500Y-148397870D01*
X206149501Y-148397876D01*
X206155908Y-148457483D01*
X206206202Y-148592328D01*
X206206206Y-148592335D01*
X206292452Y-148707544D01*
X206292455Y-148707547D01*
X206407664Y-148793793D01*
X206407671Y-148793797D01*
X206542517Y-148844091D01*
X206542516Y-148844091D01*
X206549444Y-148844835D01*
X206602127Y-148850500D01*
X208397872Y-148850499D01*
X208457483Y-148844091D01*
X208592331Y-148793796D01*
X208707546Y-148707546D01*
X208793796Y-148592331D01*
X208844091Y-148457483D01*
X208850500Y-148397873D01*
X208850499Y-147133389D01*
X215499500Y-147133389D01*
X215499500Y-147306611D01*
X215526598Y-147477701D01*
X215580127Y-147642445D01*
X215658768Y-147796788D01*
X215760586Y-147936928D01*
X215883072Y-148059414D01*
X216023212Y-148161232D01*
X216177555Y-148239873D01*
X216342299Y-148293402D01*
X216513389Y-148320500D01*
X216513390Y-148320500D01*
X217486610Y-148320500D01*
X217486611Y-148320500D01*
X217657701Y-148293402D01*
X217822445Y-148239873D01*
X217976788Y-148161232D01*
X218116928Y-148059414D01*
X218239414Y-147936928D01*
X218341232Y-147796788D01*
X218419873Y-147642445D01*
X218473402Y-147477701D01*
X218500500Y-147306611D01*
X218500500Y-147133389D01*
X218473402Y-146962299D01*
X218419873Y-146797555D01*
X218341232Y-146643212D01*
X218239414Y-146503072D01*
X218116928Y-146380586D01*
X217976788Y-146278768D01*
X217822445Y-146200127D01*
X217657701Y-146146598D01*
X217657699Y-146146597D01*
X217657698Y-146146597D01*
X217526271Y-146125781D01*
X217486611Y-146119500D01*
X216513389Y-146119500D01*
X216473728Y-146125781D01*
X216342302Y-146146597D01*
X216177552Y-146200128D01*
X216023211Y-146278768D01*
X216002526Y-146293797D01*
X215883072Y-146380586D01*
X215883070Y-146380588D01*
X215883069Y-146380588D01*
X215760588Y-146503069D01*
X215760588Y-146503070D01*
X215760586Y-146503072D01*
X215716859Y-146563256D01*
X215658768Y-146643211D01*
X215580128Y-146797552D01*
X215526597Y-146962302D01*
X215511139Y-147059901D01*
X215499500Y-147133389D01*
X208850499Y-147133389D01*
X208850499Y-146602128D01*
X208844091Y-146542517D01*
X208829378Y-146503070D01*
X208793797Y-146407671D01*
X208793793Y-146407664D01*
X208707547Y-146292455D01*
X208707544Y-146292452D01*
X208592335Y-146206206D01*
X208592328Y-146206202D01*
X208457482Y-146155908D01*
X208457483Y-146155908D01*
X208397883Y-146149501D01*
X208397881Y-146149500D01*
X208397873Y-146149500D01*
X208397864Y-146149500D01*
X206602129Y-146149500D01*
X206602123Y-146149501D01*
X206542516Y-146155908D01*
X206407671Y-146206202D01*
X206407664Y-146206206D01*
X206292455Y-146292452D01*
X206292452Y-146292455D01*
X206206206Y-146407664D01*
X206206202Y-146407671D01*
X206155908Y-146542517D01*
X206149501Y-146602116D01*
X206149501Y-146602123D01*
X206149500Y-146602135D01*
X198125500Y-146602135D01*
X198125500Y-142602135D01*
X206149500Y-142602135D01*
X206149500Y-144397870D01*
X206149501Y-144397876D01*
X206155908Y-144457483D01*
X206206202Y-144592328D01*
X206206206Y-144592335D01*
X206292452Y-144707544D01*
X206292455Y-144707547D01*
X206407664Y-144793793D01*
X206407671Y-144793797D01*
X206542517Y-144844091D01*
X206542516Y-144844091D01*
X206549444Y-144844835D01*
X206602127Y-144850500D01*
X208397872Y-144850499D01*
X208457483Y-144844091D01*
X208592331Y-144793796D01*
X208707546Y-144707546D01*
X208793004Y-144593389D01*
X215499500Y-144593389D01*
X215499500Y-144766610D01*
X215512786Y-144850499D01*
X215526598Y-144937701D01*
X215580127Y-145102445D01*
X215658768Y-145256788D01*
X215760586Y-145396928D01*
X215883072Y-145519414D01*
X216023212Y-145621232D01*
X216177555Y-145699873D01*
X216342299Y-145753402D01*
X216513389Y-145780500D01*
X216513390Y-145780500D01*
X217486610Y-145780500D01*
X217486611Y-145780500D01*
X217657701Y-145753402D01*
X217822445Y-145699873D01*
X217976788Y-145621232D01*
X218116928Y-145519414D01*
X218239414Y-145396928D01*
X218341232Y-145256788D01*
X218419873Y-145102445D01*
X218473402Y-144937701D01*
X218500500Y-144766611D01*
X218500500Y-144593389D01*
X218473402Y-144422299D01*
X218419873Y-144257555D01*
X218341232Y-144103212D01*
X218239414Y-143963072D01*
X218116928Y-143840586D01*
X217976788Y-143738768D01*
X217822445Y-143660127D01*
X217657701Y-143606598D01*
X217657699Y-143606597D01*
X217657698Y-143606597D01*
X217526271Y-143585781D01*
X217486611Y-143579500D01*
X216513389Y-143579500D01*
X216473728Y-143585781D01*
X216342302Y-143606597D01*
X216177552Y-143660128D01*
X216023211Y-143738768D01*
X215949320Y-143792454D01*
X215883072Y-143840586D01*
X215883070Y-143840588D01*
X215883069Y-143840588D01*
X215760588Y-143963069D01*
X215760588Y-143963070D01*
X215760586Y-143963072D01*
X215716859Y-144023256D01*
X215658768Y-144103211D01*
X215580128Y-144257552D01*
X215526597Y-144422302D01*
X215499500Y-144593389D01*
X208793004Y-144593389D01*
X208793796Y-144592331D01*
X208844091Y-144457483D01*
X208850500Y-144397873D01*
X208850499Y-142602128D01*
X208844091Y-142542517D01*
X208843152Y-142540000D01*
X208793797Y-142407671D01*
X208793793Y-142407664D01*
X208707547Y-142292455D01*
X208707544Y-142292452D01*
X208592335Y-142206206D01*
X208592328Y-142206202D01*
X208457482Y-142155908D01*
X208457483Y-142155908D01*
X208397883Y-142149501D01*
X208397881Y-142149500D01*
X208397873Y-142149500D01*
X208397864Y-142149500D01*
X206602129Y-142149500D01*
X206602123Y-142149501D01*
X206542516Y-142155908D01*
X206407671Y-142206202D01*
X206407664Y-142206206D01*
X206292455Y-142292452D01*
X206292452Y-142292455D01*
X206206206Y-142407664D01*
X206206202Y-142407671D01*
X206155908Y-142542517D01*
X206149501Y-142602116D01*
X206149501Y-142602123D01*
X206149500Y-142602135D01*
X198125500Y-142602135D01*
X198125500Y-142053389D01*
X215499500Y-142053389D01*
X215499500Y-142226610D01*
X215509928Y-142292454D01*
X215526598Y-142397701D01*
X215580127Y-142562445D01*
X215658768Y-142716788D01*
X215760586Y-142856928D01*
X215883072Y-142979414D01*
X216023212Y-143081232D01*
X216177555Y-143159873D01*
X216342299Y-143213402D01*
X216513389Y-143240500D01*
X216513390Y-143240500D01*
X217486610Y-143240500D01*
X217486611Y-143240500D01*
X217657701Y-143213402D01*
X217822445Y-143159873D01*
X217976788Y-143081232D01*
X218116928Y-142979414D01*
X218239414Y-142856928D01*
X218341232Y-142716788D01*
X218419873Y-142562445D01*
X218473402Y-142397701D01*
X218500500Y-142226611D01*
X218500500Y-142053389D01*
X218473402Y-141882299D01*
X218419873Y-141717555D01*
X218341232Y-141563212D01*
X218239414Y-141423072D01*
X218116928Y-141300586D01*
X217976788Y-141198768D01*
X217822445Y-141120127D01*
X217657701Y-141066598D01*
X217657699Y-141066597D01*
X217657698Y-141066597D01*
X217526271Y-141045781D01*
X217486611Y-141039500D01*
X216513389Y-141039500D01*
X216473728Y-141045781D01*
X216342302Y-141066597D01*
X216177552Y-141120128D01*
X216023211Y-141198768D01*
X215943256Y-141256859D01*
X215883072Y-141300586D01*
X215883070Y-141300588D01*
X215883069Y-141300588D01*
X215760588Y-141423069D01*
X215760588Y-141423070D01*
X215760586Y-141423072D01*
X215760350Y-141423397D01*
X215658768Y-141563211D01*
X215580128Y-141717552D01*
X215526597Y-141882302D01*
X215499500Y-142053389D01*
X198125500Y-142053389D01*
X198125500Y-112579998D01*
X199094532Y-112579998D01*
X199094532Y-112580001D01*
X199114364Y-112806686D01*
X199114366Y-112806697D01*
X199173258Y-113026488D01*
X199173261Y-113026497D01*
X199269431Y-113232732D01*
X199269432Y-113232734D01*
X199399954Y-113419141D01*
X199560858Y-113580045D01*
X199591906Y-113601785D01*
X199747266Y-113710568D01*
X199953504Y-113806739D01*
X200173308Y-113865635D01*
X200335230Y-113879801D01*
X200399998Y-113885468D01*
X200400000Y-113885468D01*
X200400002Y-113885468D01*
X200456673Y-113880509D01*
X200626692Y-113865635D01*
X200846496Y-113806739D01*
X201052734Y-113710568D01*
X201239139Y-113580047D01*
X201400047Y-113419139D01*
X201530568Y-113232734D01*
X201626739Y-113026496D01*
X201685635Y-112806692D01*
X201705468Y-112580000D01*
X201696719Y-112479998D01*
X203494532Y-112479998D01*
X203494532Y-112480001D01*
X203514364Y-112706686D01*
X203514366Y-112706697D01*
X203573258Y-112926488D01*
X203573261Y-112926497D01*
X203669431Y-113132732D01*
X203669432Y-113132734D01*
X203799954Y-113319141D01*
X203960858Y-113480045D01*
X203960861Y-113480047D01*
X204146624Y-113610118D01*
X204190248Y-113664693D01*
X204199500Y-113711692D01*
X204199500Y-136713330D01*
X204199499Y-136713348D01*
X204199499Y-136879054D01*
X204199498Y-136879054D01*
X204240423Y-137031785D01*
X204269358Y-137081900D01*
X204269359Y-137081904D01*
X204269360Y-137081904D01*
X204319479Y-137168714D01*
X204319481Y-137168717D01*
X204438349Y-137287585D01*
X204438355Y-137287590D01*
X206113181Y-138962416D01*
X206146666Y-139023739D01*
X206149500Y-139050097D01*
X206149500Y-140397870D01*
X206149501Y-140397876D01*
X206155908Y-140457483D01*
X206206202Y-140592328D01*
X206206206Y-140592335D01*
X206292452Y-140707544D01*
X206292455Y-140707547D01*
X206407664Y-140793793D01*
X206407671Y-140793797D01*
X206542517Y-140844091D01*
X206542516Y-140844091D01*
X206549444Y-140844835D01*
X206602127Y-140850500D01*
X208397872Y-140850499D01*
X208457483Y-140844091D01*
X208592331Y-140793796D01*
X208707546Y-140707546D01*
X208793796Y-140592331D01*
X208844091Y-140457483D01*
X208850500Y-140397873D01*
X208850500Y-139513389D01*
X215499500Y-139513389D01*
X215499500Y-139686610D01*
X215516263Y-139792452D01*
X215526598Y-139857701D01*
X215580127Y-140022445D01*
X215658768Y-140176788D01*
X215760586Y-140316928D01*
X215883072Y-140439414D01*
X216023212Y-140541232D01*
X216177555Y-140619873D01*
X216342299Y-140673402D01*
X216513389Y-140700500D01*
X216513390Y-140700500D01*
X217486610Y-140700500D01*
X217486611Y-140700500D01*
X217657701Y-140673402D01*
X217822445Y-140619873D01*
X217976788Y-140541232D01*
X218116928Y-140439414D01*
X218239414Y-140316928D01*
X218341232Y-140176788D01*
X218419873Y-140022445D01*
X218473402Y-139857701D01*
X218500500Y-139686611D01*
X218500500Y-139513389D01*
X218473402Y-139342299D01*
X218419873Y-139177555D01*
X218341232Y-139023212D01*
X218239414Y-138883072D01*
X218116928Y-138760586D01*
X217976788Y-138658768D01*
X217822445Y-138580127D01*
X217657701Y-138526598D01*
X217657699Y-138526597D01*
X217657698Y-138526597D01*
X217526271Y-138505781D01*
X217486611Y-138499500D01*
X216513389Y-138499500D01*
X216473728Y-138505781D01*
X216342302Y-138526597D01*
X216177552Y-138580128D01*
X216023211Y-138658768D01*
X215943256Y-138716859D01*
X215883072Y-138760586D01*
X215883070Y-138760588D01*
X215883069Y-138760588D01*
X215760588Y-138883069D01*
X215760588Y-138883070D01*
X215760586Y-138883072D01*
X215716859Y-138943256D01*
X215658768Y-139023211D01*
X215580128Y-139177552D01*
X215526597Y-139342302D01*
X215499500Y-139513389D01*
X208850500Y-139513389D01*
X208850499Y-138602128D01*
X208844091Y-138542517D01*
X208838153Y-138526597D01*
X208793797Y-138407671D01*
X208793793Y-138407664D01*
X208707547Y-138292455D01*
X208707544Y-138292452D01*
X208592335Y-138206206D01*
X208592328Y-138206202D01*
X208457482Y-138155908D01*
X208457483Y-138155908D01*
X208397883Y-138149501D01*
X208397881Y-138149500D01*
X208397873Y-138149500D01*
X208397865Y-138149500D01*
X207050098Y-138149500D01*
X206983059Y-138129815D01*
X206962417Y-138113181D01*
X205822625Y-136973389D01*
X215499500Y-136973389D01*
X215499500Y-137146611D01*
X215526598Y-137317701D01*
X215580127Y-137482445D01*
X215658768Y-137636788D01*
X215760586Y-137776928D01*
X215883072Y-137899414D01*
X216023212Y-138001232D01*
X216177555Y-138079873D01*
X216342299Y-138133402D01*
X216513389Y-138160500D01*
X216513390Y-138160500D01*
X217486610Y-138160500D01*
X217486611Y-138160500D01*
X217657701Y-138133402D01*
X217822445Y-138079873D01*
X217976788Y-138001232D01*
X218116928Y-137899414D01*
X218239414Y-137776928D01*
X218341232Y-137636788D01*
X218419873Y-137482445D01*
X218473402Y-137317701D01*
X218500500Y-137146611D01*
X218500500Y-136973389D01*
X218473402Y-136802299D01*
X218419873Y-136637555D01*
X218341232Y-136483212D01*
X218239414Y-136343072D01*
X218116928Y-136220586D01*
X217976788Y-136118768D01*
X217822445Y-136040127D01*
X217657701Y-135986598D01*
X217657699Y-135986597D01*
X217657698Y-135986597D01*
X217526271Y-135965781D01*
X217486611Y-135959500D01*
X216513389Y-135959500D01*
X216473728Y-135965781D01*
X216342302Y-135986597D01*
X216177552Y-136040128D01*
X216023211Y-136118768D01*
X215943256Y-136176859D01*
X215883072Y-136220586D01*
X215883070Y-136220588D01*
X215883069Y-136220588D01*
X215760588Y-136343069D01*
X215760588Y-136343070D01*
X215760586Y-136343072D01*
X215720777Y-136397864D01*
X215658768Y-136483211D01*
X215580128Y-136637552D01*
X215526597Y-136802302D01*
X215499500Y-136973389D01*
X205822625Y-136973389D01*
X205436819Y-136587583D01*
X205403334Y-136526260D01*
X205400500Y-136499902D01*
X205400500Y-134602135D01*
X206149500Y-134602135D01*
X206149500Y-136397870D01*
X206149501Y-136397876D01*
X206155908Y-136457483D01*
X206206202Y-136592328D01*
X206206206Y-136592335D01*
X206292452Y-136707544D01*
X206292455Y-136707547D01*
X206407664Y-136793793D01*
X206407671Y-136793797D01*
X206542517Y-136844091D01*
X206542516Y-136844091D01*
X206549444Y-136844835D01*
X206602127Y-136850500D01*
X208397872Y-136850499D01*
X208457483Y-136844091D01*
X208592331Y-136793796D01*
X208707546Y-136707546D01*
X208793796Y-136592331D01*
X208844091Y-136457483D01*
X208850500Y-136397873D01*
X208850499Y-134602128D01*
X208844091Y-134542517D01*
X208793796Y-134407669D01*
X208793795Y-134407668D01*
X208793793Y-134407664D01*
X208707547Y-134292455D01*
X208707544Y-134292452D01*
X208592335Y-134206206D01*
X208592328Y-134206202D01*
X208457482Y-134155908D01*
X208457483Y-134155908D01*
X208397883Y-134149501D01*
X208397881Y-134149500D01*
X208397873Y-134149500D01*
X208397864Y-134149500D01*
X206602129Y-134149500D01*
X206602123Y-134149501D01*
X206542516Y-134155908D01*
X206407671Y-134206202D01*
X206407664Y-134206206D01*
X206292455Y-134292452D01*
X206292452Y-134292455D01*
X206206206Y-134407664D01*
X206206202Y-134407671D01*
X206155908Y-134542517D01*
X206149501Y-134602116D01*
X206149501Y-134602123D01*
X206149500Y-134602135D01*
X205400500Y-134602135D01*
X205400500Y-130602135D01*
X206149500Y-130602135D01*
X206149500Y-132397870D01*
X206149501Y-132397876D01*
X206155908Y-132457483D01*
X206206202Y-132592328D01*
X206206206Y-132592335D01*
X206292452Y-132707544D01*
X206292455Y-132707547D01*
X206407664Y-132793793D01*
X206407671Y-132793797D01*
X206542517Y-132844091D01*
X206542516Y-132844091D01*
X206549444Y-132844835D01*
X206602127Y-132850500D01*
X208397872Y-132850499D01*
X208457483Y-132844091D01*
X208592331Y-132793796D01*
X208707546Y-132707546D01*
X208793796Y-132592331D01*
X208844091Y-132457483D01*
X208850500Y-132397873D01*
X208850499Y-130602128D01*
X208844091Y-130542517D01*
X208793796Y-130407669D01*
X208793795Y-130407668D01*
X208793793Y-130407664D01*
X208707547Y-130292455D01*
X208707544Y-130292452D01*
X208592335Y-130206206D01*
X208592328Y-130206202D01*
X208457482Y-130155908D01*
X208457483Y-130155908D01*
X208397883Y-130149501D01*
X208397881Y-130149500D01*
X208397873Y-130149500D01*
X208397864Y-130149500D01*
X206602129Y-130149500D01*
X206602123Y-130149501D01*
X206542516Y-130155908D01*
X206407671Y-130206202D01*
X206407664Y-130206206D01*
X206292455Y-130292452D01*
X206292452Y-130292455D01*
X206206206Y-130407664D01*
X206206202Y-130407671D01*
X206155908Y-130542517D01*
X206149501Y-130602116D01*
X206149501Y-130602123D01*
X206149500Y-130602135D01*
X205400500Y-130602135D01*
X205400500Y-122602135D01*
X206149500Y-122602135D01*
X206149500Y-124397870D01*
X206149501Y-124397876D01*
X206155908Y-124457483D01*
X206206202Y-124592328D01*
X206206206Y-124592335D01*
X206292452Y-124707544D01*
X206292455Y-124707547D01*
X206407664Y-124793793D01*
X206407671Y-124793797D01*
X206542517Y-124844091D01*
X206542516Y-124844091D01*
X206549444Y-124844835D01*
X206602127Y-124850500D01*
X208397872Y-124850499D01*
X208457483Y-124844091D01*
X208592331Y-124793796D01*
X208650563Y-124750203D01*
X208716025Y-124725786D01*
X208784298Y-124740637D01*
X208812554Y-124761789D01*
X215533309Y-131482544D01*
X215566794Y-131543867D01*
X215563559Y-131608542D01*
X215526598Y-131722297D01*
X215526597Y-131722302D01*
X215499713Y-131892041D01*
X215469784Y-131955176D01*
X215410472Y-131992107D01*
X215340610Y-131991109D01*
X215289559Y-131960324D01*
X210467590Y-127138355D01*
X210467588Y-127138352D01*
X210348717Y-127019481D01*
X210348716Y-127019480D01*
X210244960Y-126959577D01*
X210244959Y-126959576D01*
X210211783Y-126940422D01*
X210155881Y-126925443D01*
X210059057Y-126899499D01*
X209900943Y-126899499D01*
X209893347Y-126899499D01*
X209893331Y-126899500D01*
X208974499Y-126899500D01*
X208907460Y-126879815D01*
X208861705Y-126827011D01*
X208850499Y-126775500D01*
X208850499Y-126602129D01*
X208850498Y-126602123D01*
X208850497Y-126602116D01*
X208844091Y-126542517D01*
X208828233Y-126500000D01*
X208793797Y-126407671D01*
X208793793Y-126407664D01*
X208707547Y-126292455D01*
X208707544Y-126292452D01*
X208592335Y-126206206D01*
X208592328Y-126206202D01*
X208457482Y-126155908D01*
X208457483Y-126155908D01*
X208397883Y-126149501D01*
X208397881Y-126149500D01*
X208397873Y-126149500D01*
X208397864Y-126149500D01*
X206602129Y-126149500D01*
X206602123Y-126149501D01*
X206542516Y-126155908D01*
X206407671Y-126206202D01*
X206407664Y-126206206D01*
X206292455Y-126292452D01*
X206292452Y-126292455D01*
X206206206Y-126407664D01*
X206206202Y-126407671D01*
X206155908Y-126542517D01*
X206149501Y-126602116D01*
X206149501Y-126602123D01*
X206149500Y-126602135D01*
X206149500Y-128397870D01*
X206149501Y-128397876D01*
X206155908Y-128457483D01*
X206206202Y-128592328D01*
X206206206Y-128592335D01*
X206292452Y-128707544D01*
X206292455Y-128707547D01*
X206407664Y-128793793D01*
X206407671Y-128793797D01*
X206542517Y-128844091D01*
X206542516Y-128844091D01*
X206549444Y-128844835D01*
X206602127Y-128850500D01*
X208397872Y-128850499D01*
X208457483Y-128844091D01*
X208592331Y-128793796D01*
X208707546Y-128707546D01*
X208793796Y-128592331D01*
X208844091Y-128457483D01*
X208850500Y-128397873D01*
X208850500Y-128224500D01*
X208870185Y-128157461D01*
X208922989Y-128111706D01*
X208974500Y-128100500D01*
X209679903Y-128100500D01*
X209746942Y-128120185D01*
X209767584Y-128136819D01*
X215566443Y-133935678D01*
X215599928Y-133997001D01*
X215594944Y-134066693D01*
X215589250Y-134079648D01*
X215580125Y-134097557D01*
X215526597Y-134262301D01*
X215512628Y-134350499D01*
X215499500Y-134433389D01*
X215499500Y-134606611D01*
X215526598Y-134777701D01*
X215580127Y-134942445D01*
X215658768Y-135096788D01*
X215760586Y-135236928D01*
X215883072Y-135359414D01*
X216023212Y-135461232D01*
X216177555Y-135539873D01*
X216342299Y-135593402D01*
X216513389Y-135620500D01*
X216513390Y-135620500D01*
X217486610Y-135620500D01*
X217486611Y-135620500D01*
X217657701Y-135593402D01*
X217822445Y-135539873D01*
X217976788Y-135461232D01*
X218116928Y-135359414D01*
X218239414Y-135236928D01*
X218341232Y-135096788D01*
X218419873Y-134942445D01*
X218473402Y-134777701D01*
X218500500Y-134606611D01*
X218500500Y-134433389D01*
X218473402Y-134262299D01*
X218419873Y-134097555D01*
X218341232Y-133943212D01*
X218239414Y-133803072D01*
X218116928Y-133680586D01*
X217976788Y-133578768D01*
X217822445Y-133500127D01*
X217657701Y-133446598D01*
X217657699Y-133446597D01*
X217657698Y-133446597D01*
X217526271Y-133425781D01*
X217486611Y-133419500D01*
X217486610Y-133419500D01*
X216800097Y-133419500D01*
X216733058Y-133399815D01*
X216712416Y-133383181D01*
X216621416Y-133292181D01*
X216587931Y-133230858D01*
X216592915Y-133161166D01*
X216634787Y-133105233D01*
X216700251Y-133080816D01*
X216709097Y-133080500D01*
X217486610Y-133080500D01*
X217486611Y-133080500D01*
X217657701Y-133053402D01*
X217822445Y-132999873D01*
X217976788Y-132921232D01*
X218116928Y-132819414D01*
X218239414Y-132696928D01*
X218341232Y-132556788D01*
X218419873Y-132402445D01*
X218473402Y-132237701D01*
X218500500Y-132066611D01*
X218500500Y-131893389D01*
X218473402Y-131722299D01*
X218419873Y-131557555D01*
X218341232Y-131403212D01*
X218239414Y-131263072D01*
X218116928Y-131140586D01*
X217976788Y-131038768D01*
X217822445Y-130960127D01*
X217657701Y-130906598D01*
X217657699Y-130906597D01*
X217657698Y-130906597D01*
X217526271Y-130885781D01*
X217486611Y-130879500D01*
X217486610Y-130879500D01*
X216680097Y-130879500D01*
X216613058Y-130859815D01*
X216592416Y-130843181D01*
X216501416Y-130752181D01*
X216467931Y-130690858D01*
X216472915Y-130621166D01*
X216514787Y-130565233D01*
X216580251Y-130540816D01*
X216589097Y-130540500D01*
X217486610Y-130540500D01*
X217486611Y-130540500D01*
X217657701Y-130513402D01*
X217822445Y-130459873D01*
X217976788Y-130381232D01*
X218116928Y-130279414D01*
X218239414Y-130156928D01*
X218341232Y-130016788D01*
X218419873Y-129862445D01*
X218473402Y-129697701D01*
X218500500Y-129526611D01*
X218500500Y-129353389D01*
X218473402Y-129182299D01*
X218419873Y-129017555D01*
X218341232Y-128863212D01*
X218239414Y-128723072D01*
X218116928Y-128600586D01*
X217976788Y-128498768D01*
X217822445Y-128420127D01*
X217657701Y-128366598D01*
X217657699Y-128366597D01*
X217657698Y-128366597D01*
X217525163Y-128345606D01*
X217486611Y-128339500D01*
X217486610Y-128339500D01*
X216800097Y-128339500D01*
X216733058Y-128319815D01*
X216712416Y-128303181D01*
X216621415Y-128212180D01*
X216587930Y-128150857D01*
X216592914Y-128081165D01*
X216634786Y-128025232D01*
X216700250Y-128000815D01*
X216709096Y-128000499D01*
X218047871Y-128000499D01*
X218047872Y-128000499D01*
X218107483Y-127994091D01*
X218242331Y-127943796D01*
X218357546Y-127857546D01*
X218443796Y-127742331D01*
X218494091Y-127607483D01*
X218500500Y-127547873D01*
X218500499Y-126252128D01*
X218494091Y-126192517D01*
X218490689Y-126183397D01*
X218443797Y-126057671D01*
X218443793Y-126057664D01*
X218357547Y-125942455D01*
X218357544Y-125942452D01*
X218242335Y-125856206D01*
X218242328Y-125856202D01*
X218107482Y-125805908D01*
X218107483Y-125805908D01*
X218047883Y-125799501D01*
X218047881Y-125799500D01*
X218047873Y-125799500D01*
X218047865Y-125799500D01*
X217824500Y-125799500D01*
X217757461Y-125779815D01*
X217711706Y-125727011D01*
X217700500Y-125675500D01*
X217700500Y-122974499D01*
X217720185Y-122907460D01*
X217772989Y-122861705D01*
X217824500Y-122850499D01*
X218397871Y-122850499D01*
X218397872Y-122850499D01*
X218457483Y-122844091D01*
X218592331Y-122793796D01*
X218707546Y-122707546D01*
X218793796Y-122592331D01*
X218844091Y-122457483D01*
X218850500Y-122397873D01*
X218850499Y-120602128D01*
X218844091Y-120542517D01*
X218814928Y-120464328D01*
X218793797Y-120407671D01*
X218793793Y-120407664D01*
X218707547Y-120292455D01*
X218707544Y-120292452D01*
X218592335Y-120206206D01*
X218592328Y-120206202D01*
X218457482Y-120155908D01*
X218457483Y-120155908D01*
X218397883Y-120149501D01*
X218397881Y-120149500D01*
X218397873Y-120149500D01*
X218397864Y-120149500D01*
X216602129Y-120149500D01*
X216602123Y-120149501D01*
X216542516Y-120155908D01*
X216407671Y-120206202D01*
X216407664Y-120206206D01*
X216292455Y-120292452D01*
X216292452Y-120292455D01*
X216206206Y-120407664D01*
X216206202Y-120407671D01*
X216155908Y-120542517D01*
X216149501Y-120602116D01*
X216149501Y-120602123D01*
X216149500Y-120602135D01*
X216149500Y-122397870D01*
X216149501Y-122397876D01*
X216155908Y-122457483D01*
X216206202Y-122592328D01*
X216206203Y-122592330D01*
X216274767Y-122683919D01*
X216299184Y-122749383D01*
X216299500Y-122758230D01*
X216299500Y-125675500D01*
X216279815Y-125742539D01*
X216227011Y-125788294D01*
X216175501Y-125799500D01*
X215952130Y-125799500D01*
X215952123Y-125799501D01*
X215892516Y-125805908D01*
X215757671Y-125856202D01*
X215757664Y-125856206D01*
X215642455Y-125942452D01*
X215642452Y-125942455D01*
X215556206Y-126057664D01*
X215556202Y-126057671D01*
X215505908Y-126192517D01*
X215499501Y-126252116D01*
X215499501Y-126252123D01*
X215499500Y-126252135D01*
X215499500Y-126790903D01*
X215479815Y-126857942D01*
X215427011Y-126903697D01*
X215357853Y-126913641D01*
X215294297Y-126884616D01*
X215287819Y-126878584D01*
X213136819Y-124727584D01*
X213103334Y-124666261D01*
X213100500Y-124639903D01*
X213100500Y-122974499D01*
X213120185Y-122907460D01*
X213172989Y-122861705D01*
X213224500Y-122850499D01*
X213397871Y-122850499D01*
X213397872Y-122850499D01*
X213457483Y-122844091D01*
X213592331Y-122793796D01*
X213707546Y-122707546D01*
X213793796Y-122592331D01*
X213844091Y-122457483D01*
X213850500Y-122397873D01*
X213850499Y-120602128D01*
X213844091Y-120542517D01*
X213814928Y-120464328D01*
X213793797Y-120407671D01*
X213793793Y-120407664D01*
X213707547Y-120292455D01*
X213707544Y-120292452D01*
X213592335Y-120206206D01*
X213592328Y-120206202D01*
X213457482Y-120155908D01*
X213457483Y-120155908D01*
X213397883Y-120149501D01*
X213397881Y-120149500D01*
X213397873Y-120149500D01*
X213397864Y-120149500D01*
X211602129Y-120149500D01*
X211602123Y-120149501D01*
X211542516Y-120155908D01*
X211407671Y-120206202D01*
X211407664Y-120206206D01*
X211292455Y-120292452D01*
X211292452Y-120292455D01*
X211206206Y-120407664D01*
X211206202Y-120407671D01*
X211155908Y-120542517D01*
X211149501Y-120602116D01*
X211149501Y-120602123D01*
X211149500Y-120602135D01*
X211149500Y-122397870D01*
X211149501Y-122397876D01*
X211155908Y-122457483D01*
X211206202Y-122592328D01*
X211206206Y-122592335D01*
X211292452Y-122707544D01*
X211292455Y-122707547D01*
X211407664Y-122793793D01*
X211407671Y-122793797D01*
X211452618Y-122810561D01*
X211542517Y-122844091D01*
X211602127Y-122850500D01*
X211775500Y-122850499D01*
X211842539Y-122870183D01*
X211888294Y-122922987D01*
X211899500Y-122974499D01*
X211899500Y-124853330D01*
X211899499Y-124853348D01*
X211899499Y-125019054D01*
X211899498Y-125019054D01*
X211940423Y-125171785D01*
X211969358Y-125221900D01*
X211969359Y-125221904D01*
X211969360Y-125221904D01*
X212019479Y-125308714D01*
X212019481Y-125308717D01*
X212138349Y-125427585D01*
X212138355Y-125427590D01*
X215566443Y-128855678D01*
X215599928Y-128917001D01*
X215594944Y-128986693D01*
X215589250Y-128999648D01*
X215580125Y-129017557D01*
X215526597Y-129182301D01*
X215499500Y-129353389D01*
X215499500Y-129450903D01*
X215479815Y-129517942D01*
X215427011Y-129563697D01*
X215357853Y-129573641D01*
X215294297Y-129544616D01*
X215287819Y-129538584D01*
X208887590Y-123138355D01*
X208887588Y-123138352D01*
X208886818Y-123137582D01*
X208886542Y-123137076D01*
X208872097Y-123119457D01*
X208872095Y-123119454D01*
X208875631Y-123117096D01*
X208853333Y-123076259D01*
X208850499Y-123049901D01*
X208850499Y-122602129D01*
X208850498Y-122602123D01*
X208850497Y-122602116D01*
X208844091Y-122542517D01*
X208812375Y-122457483D01*
X208793797Y-122407671D01*
X208793793Y-122407664D01*
X208707547Y-122292455D01*
X208707544Y-122292452D01*
X208592335Y-122206206D01*
X208592328Y-122206202D01*
X208457482Y-122155908D01*
X208457483Y-122155908D01*
X208397883Y-122149501D01*
X208397881Y-122149500D01*
X208397873Y-122149500D01*
X208397864Y-122149500D01*
X206602129Y-122149500D01*
X206602123Y-122149501D01*
X206542516Y-122155908D01*
X206407671Y-122206202D01*
X206407664Y-122206206D01*
X206292455Y-122292452D01*
X206292452Y-122292455D01*
X206206206Y-122407664D01*
X206206202Y-122407671D01*
X206155908Y-122542517D01*
X206149501Y-122602116D01*
X206149501Y-122602123D01*
X206149500Y-122602135D01*
X205400500Y-122602135D01*
X205400500Y-113711692D01*
X205420185Y-113644653D01*
X205453374Y-113610119D01*
X205639139Y-113480047D01*
X205800047Y-113319139D01*
X205930568Y-113132734D01*
X206026739Y-112926496D01*
X206085635Y-112706692D01*
X206105468Y-112480000D01*
X206104913Y-112473662D01*
X206087895Y-112279139D01*
X206085635Y-112253308D01*
X206026739Y-112033504D01*
X205930568Y-111827266D01*
X205800047Y-111640861D01*
X205800045Y-111640858D01*
X205639141Y-111479954D01*
X205452734Y-111349432D01*
X205452732Y-111349431D01*
X205246497Y-111253261D01*
X205246488Y-111253258D01*
X205026697Y-111194366D01*
X205026693Y-111194365D01*
X205026692Y-111194365D01*
X205026691Y-111194364D01*
X205026686Y-111194364D01*
X204800002Y-111174532D01*
X204799998Y-111174532D01*
X204573313Y-111194364D01*
X204573302Y-111194366D01*
X204353511Y-111253258D01*
X204353502Y-111253261D01*
X204147267Y-111349431D01*
X204147265Y-111349432D01*
X203960858Y-111479954D01*
X203799954Y-111640858D01*
X203669432Y-111827265D01*
X203669431Y-111827267D01*
X203573261Y-112033502D01*
X203573258Y-112033511D01*
X203514366Y-112253302D01*
X203514364Y-112253313D01*
X203494532Y-112479998D01*
X201696719Y-112479998D01*
X201685635Y-112353308D01*
X201626739Y-112133504D01*
X201530568Y-111927266D01*
X201400047Y-111740861D01*
X201400045Y-111740858D01*
X201239141Y-111579954D01*
X201052734Y-111449432D01*
X201052732Y-111449431D01*
X200846497Y-111353261D01*
X200846488Y-111353258D01*
X200626697Y-111294366D01*
X200626693Y-111294365D01*
X200626692Y-111294365D01*
X200626691Y-111294364D01*
X200626686Y-111294364D01*
X200400002Y-111274532D01*
X200399998Y-111274532D01*
X200173313Y-111294364D01*
X200173302Y-111294366D01*
X199953511Y-111353258D01*
X199953502Y-111353261D01*
X199747267Y-111449431D01*
X199747265Y-111449432D01*
X199560858Y-111579954D01*
X199399954Y-111740858D01*
X199269432Y-111927265D01*
X199269431Y-111927267D01*
X199173261Y-112133502D01*
X199173258Y-112133511D01*
X199114366Y-112353302D01*
X199114364Y-112353313D01*
X199094532Y-112579998D01*
X198125500Y-112579998D01*
X198125500Y-102169999D01*
X199121127Y-102169999D01*
X199121128Y-102170000D01*
X200084314Y-102170000D01*
X200079920Y-102174394D01*
X200027259Y-102265606D01*
X200000000Y-102367339D01*
X200000000Y-102472661D01*
X200027259Y-102574394D01*
X200079920Y-102665606D01*
X200084314Y-102670000D01*
X199121128Y-102670000D01*
X199173730Y-102866317D01*
X199173734Y-102866326D01*
X199269865Y-103072482D01*
X199400342Y-103258820D01*
X199561179Y-103419657D01*
X199747517Y-103550134D01*
X199953673Y-103646265D01*
X199953682Y-103646269D01*
X200149999Y-103698872D01*
X200150000Y-103698871D01*
X200150000Y-102735686D01*
X200154394Y-102740080D01*
X200245606Y-102792741D01*
X200347339Y-102820000D01*
X200452661Y-102820000D01*
X200554394Y-102792741D01*
X200645606Y-102740080D01*
X200650000Y-102735686D01*
X200650000Y-103698872D01*
X200846317Y-103646269D01*
X200846326Y-103646265D01*
X201052482Y-103550134D01*
X201238820Y-103419657D01*
X201399657Y-103258820D01*
X201530134Y-103072482D01*
X201626265Y-102866326D01*
X201626269Y-102866317D01*
X201678872Y-102670000D01*
X200715686Y-102670000D01*
X200720080Y-102665606D01*
X200772741Y-102574394D01*
X200800000Y-102472661D01*
X200800000Y-102367339D01*
X200787315Y-102319998D01*
X203494532Y-102319998D01*
X203494532Y-102320001D01*
X203514364Y-102546686D01*
X203514366Y-102546697D01*
X203573258Y-102766488D01*
X203573261Y-102766497D01*
X203669431Y-102972732D01*
X203669432Y-102972734D01*
X203799954Y-103159141D01*
X203960858Y-103320045D01*
X203960861Y-103320047D01*
X204146624Y-103450118D01*
X204190248Y-103504693D01*
X204199500Y-103551692D01*
X204199500Y-106613330D01*
X204199499Y-106613348D01*
X204199499Y-106779054D01*
X204199498Y-106779054D01*
X204240423Y-106931785D01*
X204269358Y-106981900D01*
X204269359Y-106981904D01*
X204269360Y-106981904D01*
X204319479Y-107068714D01*
X204319481Y-107068717D01*
X204438348Y-107187584D01*
X204438355Y-107187590D01*
X204463181Y-107212416D01*
X204496666Y-107273739D01*
X204499500Y-107300097D01*
X204499500Y-107313330D01*
X204499499Y-107313348D01*
X204499499Y-107479054D01*
X204499498Y-107479054D01*
X204540423Y-107631785D01*
X204569358Y-107681900D01*
X204569359Y-107681904D01*
X204569360Y-107681904D01*
X204619479Y-107768714D01*
X204619481Y-107768717D01*
X204738349Y-107887585D01*
X204738355Y-107887590D01*
X207099797Y-110249032D01*
X207133282Y-110310355D01*
X207128298Y-110380047D01*
X207086426Y-110435980D01*
X207083244Y-110438284D01*
X207080865Y-110439949D01*
X206919951Y-110600862D01*
X206789432Y-110787265D01*
X206789431Y-110787267D01*
X206693261Y-110993502D01*
X206693258Y-110993511D01*
X206634366Y-111213302D01*
X206634364Y-111213313D01*
X206614532Y-111439998D01*
X206614532Y-111440001D01*
X206634364Y-111666686D01*
X206634366Y-111666697D01*
X206693258Y-111886488D01*
X206693261Y-111886497D01*
X206789431Y-112092732D01*
X206789432Y-112092734D01*
X206919954Y-112279141D01*
X207080858Y-112440045D01*
X207080861Y-112440047D01*
X207266624Y-112570118D01*
X207310248Y-112624693D01*
X207319500Y-112671692D01*
X207319500Y-114208306D01*
X207299815Y-114275345D01*
X207266623Y-114309881D01*
X207080859Y-114439953D01*
X206919954Y-114600858D01*
X206789432Y-114787265D01*
X206789431Y-114787267D01*
X206693261Y-114993502D01*
X206693258Y-114993511D01*
X206634366Y-115213302D01*
X206634364Y-115213313D01*
X206614532Y-115439998D01*
X206614532Y-115440001D01*
X206634364Y-115666686D01*
X206634366Y-115666697D01*
X206693258Y-115886488D01*
X206693261Y-115886497D01*
X206789431Y-116092732D01*
X206789432Y-116092734D01*
X206919954Y-116279141D01*
X207080858Y-116440045D01*
X207080861Y-116440047D01*
X207267266Y-116570568D01*
X207473504Y-116666739D01*
X207693308Y-116725635D01*
X207855230Y-116739801D01*
X207919998Y-116745468D01*
X207920000Y-116745468D01*
X207920002Y-116745468D01*
X207976673Y-116740509D01*
X208146692Y-116725635D01*
X208366496Y-116666739D01*
X208572734Y-116570568D01*
X208759139Y-116440047D01*
X208920047Y-116279139D01*
X209050568Y-116092734D01*
X209146739Y-115886496D01*
X209205635Y-115666692D01*
X209225468Y-115440000D01*
X209205635Y-115213308D01*
X209152140Y-115013662D01*
X209146741Y-114993511D01*
X209146738Y-114993502D01*
X209117862Y-114931578D01*
X209050568Y-114787266D01*
X208920047Y-114600861D01*
X208920045Y-114600858D01*
X208759140Y-114439953D01*
X208573377Y-114309881D01*
X208529752Y-114255304D01*
X208520500Y-114208306D01*
X208520500Y-112671692D01*
X208540185Y-112604653D01*
X208573374Y-112570119D01*
X208759139Y-112440047D01*
X208920047Y-112279139D01*
X209050568Y-112092734D01*
X209146739Y-111886496D01*
X209205635Y-111666692D01*
X209225468Y-111440000D01*
X209205635Y-111213308D01*
X209150741Y-111008438D01*
X209146741Y-110993511D01*
X209146738Y-110993502D01*
X209088763Y-110869175D01*
X209050568Y-110787266D01*
X208920047Y-110600861D01*
X208920045Y-110600858D01*
X208759140Y-110439953D01*
X208573377Y-110309881D01*
X208529752Y-110255304D01*
X208520500Y-110208306D01*
X208520500Y-110140945D01*
X208520500Y-110140943D01*
X208479577Y-109988216D01*
X208479577Y-109988215D01*
X208479577Y-109988214D01*
X208450639Y-109938095D01*
X208450637Y-109938092D01*
X208400520Y-109851284D01*
X208288716Y-109739480D01*
X208288715Y-109739479D01*
X208284385Y-109735149D01*
X208284374Y-109735139D01*
X205736819Y-107187584D01*
X205703334Y-107126261D01*
X205700500Y-107099903D01*
X205700500Y-106920945D01*
X205700500Y-106920943D01*
X205659577Y-106768216D01*
X205659577Y-106768215D01*
X205659577Y-106768214D01*
X205630639Y-106718095D01*
X205630637Y-106718092D01*
X205580520Y-106631284D01*
X205468716Y-106519480D01*
X205468715Y-106519479D01*
X205464385Y-106515149D01*
X205464374Y-106515139D01*
X205436819Y-106487584D01*
X205403334Y-106426261D01*
X205400500Y-106399903D01*
X205400500Y-103551692D01*
X205420185Y-103484653D01*
X205453374Y-103450119D01*
X205639139Y-103320047D01*
X205800047Y-103159139D01*
X205930568Y-102972734D01*
X206026739Y-102766496D01*
X206085635Y-102546692D01*
X206105468Y-102320000D01*
X206085635Y-102093308D01*
X206033839Y-101900000D01*
X206026741Y-101873511D01*
X206026738Y-101873502D01*
X205955508Y-101720750D01*
X205930568Y-101667266D01*
X205800047Y-101480861D01*
X205800045Y-101480858D01*
X205639141Y-101319954D01*
X205452734Y-101189432D01*
X205452732Y-101189431D01*
X205246497Y-101093261D01*
X205246488Y-101093258D01*
X205026697Y-101034366D01*
X205026693Y-101034365D01*
X205026692Y-101034365D01*
X205026691Y-101034364D01*
X205026686Y-101034364D01*
X204800002Y-101014532D01*
X204799998Y-101014532D01*
X204573313Y-101034364D01*
X204573302Y-101034366D01*
X204353511Y-101093258D01*
X204353502Y-101093261D01*
X204147267Y-101189431D01*
X204147265Y-101189432D01*
X203960858Y-101319954D01*
X203799954Y-101480858D01*
X203669432Y-101667265D01*
X203669431Y-101667267D01*
X203573261Y-101873502D01*
X203573258Y-101873511D01*
X203514366Y-102093302D01*
X203514364Y-102093313D01*
X203494532Y-102319998D01*
X200787315Y-102319998D01*
X200772741Y-102265606D01*
X200720080Y-102174394D01*
X200715686Y-102170000D01*
X201678872Y-102170000D01*
X201678872Y-102169999D01*
X201626269Y-101973682D01*
X201626265Y-101973673D01*
X201530134Y-101767517D01*
X201399657Y-101581179D01*
X201238820Y-101420342D01*
X201052482Y-101289865D01*
X200846328Y-101193734D01*
X200650000Y-101141127D01*
X200650000Y-102104314D01*
X200645606Y-102099920D01*
X200554394Y-102047259D01*
X200452661Y-102020000D01*
X200347339Y-102020000D01*
X200245606Y-102047259D01*
X200154394Y-102099920D01*
X200150000Y-102104314D01*
X200150000Y-101141127D01*
X199953671Y-101193734D01*
X199747517Y-101289865D01*
X199561179Y-101420342D01*
X199400342Y-101581179D01*
X199269865Y-101767517D01*
X199173734Y-101973673D01*
X199173730Y-101973682D01*
X199121127Y-102169999D01*
X198125500Y-102169999D01*
X198125500Y-96042135D01*
X203009500Y-96042135D01*
X203009500Y-97837870D01*
X203009501Y-97837876D01*
X203015908Y-97897483D01*
X203066202Y-98032328D01*
X203066206Y-98032335D01*
X203152452Y-98147544D01*
X203152455Y-98147547D01*
X203267664Y-98233793D01*
X203267671Y-98233797D01*
X203402517Y-98284091D01*
X203402516Y-98284091D01*
X203409444Y-98284835D01*
X203462127Y-98290500D01*
X205257872Y-98290499D01*
X205317483Y-98284091D01*
X205452331Y-98233796D01*
X205567546Y-98147546D01*
X205653796Y-98032331D01*
X205704091Y-97897483D01*
X205710500Y-97837873D01*
X205710499Y-96519997D01*
X208282677Y-96519997D01*
X208282677Y-96520002D01*
X208301929Y-96740062D01*
X208301930Y-96740070D01*
X208359104Y-96953445D01*
X208359105Y-96953447D01*
X208359106Y-96953450D01*
X208373195Y-96983664D01*
X208452466Y-97153662D01*
X208452468Y-97153666D01*
X208579170Y-97334615D01*
X208579174Y-97334620D01*
X208735380Y-97490826D01*
X208796623Y-97533708D01*
X208840248Y-97588284D01*
X208849500Y-97635283D01*
X208849500Y-104501006D01*
X208849500Y-104638994D01*
X208849500Y-104638996D01*
X208849499Y-104638996D01*
X208876418Y-104774322D01*
X208876421Y-104774332D01*
X208929222Y-104901807D01*
X209005887Y-105016545D01*
X209042400Y-105053058D01*
X209075885Y-105114381D01*
X209077193Y-105160135D01*
X209069500Y-105208711D01*
X209069500Y-105208713D01*
X209069500Y-105671287D01*
X209102754Y-105881243D01*
X209113722Y-105915000D01*
X209168444Y-106083414D01*
X209264951Y-106272820D01*
X209389890Y-106444786D01*
X209540213Y-106595109D01*
X209712179Y-106720048D01*
X209712181Y-106720049D01*
X209712184Y-106720051D01*
X209901588Y-106816557D01*
X210103757Y-106882246D01*
X210313713Y-106915500D01*
X210313714Y-106915500D01*
X210526286Y-106915500D01*
X210526287Y-106915500D01*
X210736243Y-106882246D01*
X210938412Y-106816557D01*
X211127816Y-106720051D01*
X211149789Y-106704086D01*
X211299786Y-106595109D01*
X211299788Y-106595106D01*
X211299792Y-106595104D01*
X211450104Y-106444792D01*
X211569991Y-106279779D01*
X211625320Y-106237115D01*
X211694933Y-106231136D01*
X211756729Y-106263741D01*
X211770627Y-106279781D01*
X211890272Y-106444459D01*
X211890276Y-106444464D01*
X212040535Y-106594723D01*
X212040540Y-106594727D01*
X212212442Y-106719620D01*
X212401782Y-106816095D01*
X212603871Y-106881757D01*
X212670000Y-106892231D01*
X212670000Y-105844145D01*
X212736657Y-105882630D01*
X212857465Y-105915000D01*
X212982535Y-105915000D01*
X213103343Y-105882630D01*
X213170000Y-105844145D01*
X213170000Y-106892230D01*
X213236126Y-106881757D01*
X213236129Y-106881757D01*
X213438217Y-106816095D01*
X213627557Y-106719620D01*
X213799458Y-106594728D01*
X213938330Y-106455856D01*
X213999653Y-106422371D01*
X214069345Y-106427355D01*
X214125279Y-106469226D01*
X214131551Y-106478440D01*
X214135185Y-106484331D01*
X214135186Y-106484334D01*
X214227288Y-106633656D01*
X214351344Y-106757712D01*
X214500666Y-106849814D01*
X214667203Y-106904999D01*
X214708103Y-106909177D01*
X214772793Y-106935573D01*
X214812945Y-106992753D01*
X214819500Y-107032535D01*
X214819500Y-108693330D01*
X214819499Y-108693348D01*
X214819499Y-108859054D01*
X214819498Y-108859054D01*
X214860423Y-109011785D01*
X214889358Y-109061900D01*
X214889359Y-109061904D01*
X214889360Y-109061904D01*
X214939479Y-109148714D01*
X214939481Y-109148717D01*
X215058349Y-109267585D01*
X215058355Y-109267590D01*
X216788058Y-110997293D01*
X216821543Y-111058616D01*
X216820152Y-111117067D01*
X216794366Y-111213302D01*
X216794364Y-111213313D01*
X216774532Y-111439998D01*
X216774532Y-111440001D01*
X216794364Y-111666686D01*
X216794366Y-111666697D01*
X216853258Y-111886488D01*
X216853261Y-111886497D01*
X216949431Y-112092732D01*
X216949432Y-112092734D01*
X217079954Y-112279141D01*
X217240858Y-112440045D01*
X217240861Y-112440047D01*
X217426624Y-112570118D01*
X217470248Y-112624693D01*
X217479500Y-112671692D01*
X217479500Y-114208306D01*
X217459815Y-114275345D01*
X217426623Y-114309881D01*
X217240859Y-114439953D01*
X217079954Y-114600858D01*
X216949432Y-114787265D01*
X216949431Y-114787267D01*
X216853261Y-114993502D01*
X216853258Y-114993511D01*
X216794366Y-115213302D01*
X216794364Y-115213313D01*
X216774532Y-115439998D01*
X216774532Y-115440001D01*
X216794364Y-115666686D01*
X216794366Y-115666697D01*
X216853258Y-115886488D01*
X216853261Y-115886497D01*
X216949431Y-116092732D01*
X216949432Y-116092734D01*
X217079954Y-116279141D01*
X217240858Y-116440045D01*
X217240861Y-116440047D01*
X217427266Y-116570568D01*
X217633504Y-116666739D01*
X217853308Y-116725635D01*
X218015230Y-116739801D01*
X218079998Y-116745468D01*
X218080000Y-116745468D01*
X218080002Y-116745468D01*
X218136673Y-116740509D01*
X218306692Y-116725635D01*
X218526496Y-116666739D01*
X218732734Y-116570568D01*
X218919139Y-116440047D01*
X219080047Y-116279139D01*
X219210568Y-116092734D01*
X219306739Y-115886496D01*
X219365635Y-115666692D01*
X219385468Y-115440000D01*
X219365635Y-115213308D01*
X219312140Y-115013662D01*
X219306741Y-114993511D01*
X219306738Y-114993502D01*
X219277862Y-114931578D01*
X219210568Y-114787266D01*
X219080047Y-114600861D01*
X219080045Y-114600858D01*
X218919140Y-114439953D01*
X218733377Y-114309881D01*
X218689752Y-114255304D01*
X218680500Y-114208306D01*
X218680500Y-112671692D01*
X218700185Y-112604653D01*
X218733374Y-112570119D01*
X218919139Y-112440047D01*
X219080047Y-112279139D01*
X219210568Y-112092734D01*
X219306739Y-111886496D01*
X219365635Y-111666692D01*
X219385468Y-111440000D01*
X219365635Y-111213308D01*
X219310741Y-111008438D01*
X219306741Y-110993511D01*
X219306738Y-110993502D01*
X219248763Y-110869175D01*
X219210568Y-110787266D01*
X219080047Y-110600861D01*
X219080045Y-110600858D01*
X218919141Y-110439954D01*
X218732734Y-110309432D01*
X218732732Y-110309431D01*
X218526497Y-110213261D01*
X218526488Y-110213258D01*
X218306697Y-110154366D01*
X218306693Y-110154365D01*
X218306692Y-110154365D01*
X218306691Y-110154364D01*
X218306686Y-110154364D01*
X218080002Y-110134532D01*
X218079998Y-110134532D01*
X217853313Y-110154364D01*
X217853302Y-110154366D01*
X217757067Y-110180152D01*
X217687217Y-110178489D01*
X217637293Y-110148058D01*
X216056819Y-108567584D01*
X216023334Y-108506261D01*
X216020500Y-108479903D01*
X216020500Y-107032534D01*
X216040185Y-106965495D01*
X216092989Y-106919740D01*
X216131897Y-106909176D01*
X216172797Y-106904999D01*
X216339334Y-106849814D01*
X216488656Y-106757712D01*
X216612712Y-106633656D01*
X216704814Y-106484334D01*
X216759999Y-106317797D01*
X216770500Y-106215009D01*
X216770499Y-104664992D01*
X216768851Y-104648863D01*
X216759999Y-104562203D01*
X216759998Y-104562200D01*
X216739720Y-104501006D01*
X216704814Y-104395666D01*
X216612712Y-104246344D01*
X216488656Y-104122288D01*
X216339334Y-104030186D01*
X216172797Y-103975001D01*
X216172795Y-103975000D01*
X216070010Y-103964500D01*
X214769998Y-103964500D01*
X214769981Y-103964501D01*
X214667203Y-103975000D01*
X214667200Y-103975001D01*
X214500668Y-104030185D01*
X214500663Y-104030187D01*
X214351342Y-104122289D01*
X214227289Y-104246342D01*
X214131551Y-104401559D01*
X214079603Y-104448283D01*
X214010640Y-104459506D01*
X213946558Y-104431662D01*
X213938331Y-104424143D01*
X213799464Y-104285276D01*
X213799459Y-104285272D01*
X213627557Y-104160379D01*
X213438215Y-104063903D01*
X213236124Y-103998241D01*
X213170000Y-103987768D01*
X213170000Y-105035854D01*
X213103343Y-104997370D01*
X212982535Y-104965000D01*
X212857465Y-104965000D01*
X212736657Y-104997370D01*
X212670000Y-105035854D01*
X212670000Y-103987768D01*
X212669999Y-103987768D01*
X212603875Y-103998241D01*
X212401784Y-104063903D01*
X212212442Y-104160379D01*
X212040540Y-104285272D01*
X212040535Y-104285276D01*
X211890276Y-104435535D01*
X211890272Y-104435540D01*
X211770627Y-104600218D01*
X211715297Y-104642884D01*
X211645684Y-104648863D01*
X211583889Y-104616257D01*
X211569991Y-104600218D01*
X211450109Y-104435214D01*
X211450105Y-104435209D01*
X211299786Y-104284890D01*
X211127820Y-104159951D01*
X210938414Y-104063444D01*
X210938413Y-104063443D01*
X210938412Y-104063443D01*
X210736243Y-103997754D01*
X210736241Y-103997753D01*
X210736240Y-103997753D01*
X210574957Y-103972208D01*
X210526287Y-103964500D01*
X210374500Y-103964500D01*
X210307461Y-103944815D01*
X210261706Y-103892011D01*
X210250500Y-103840500D01*
X210250500Y-97635283D01*
X210270185Y-97568244D01*
X210303375Y-97533709D01*
X210364620Y-97490826D01*
X210520826Y-97334620D01*
X210647534Y-97153662D01*
X210707618Y-97024811D01*
X210753790Y-96972371D01*
X210820983Y-96953219D01*
X210887865Y-96973435D01*
X210932382Y-97024811D01*
X210992464Y-97153658D01*
X210992468Y-97153666D01*
X211119170Y-97334615D01*
X211119175Y-97334621D01*
X211275378Y-97490824D01*
X211275384Y-97490829D01*
X211456333Y-97617531D01*
X211456335Y-97617532D01*
X211456338Y-97617534D01*
X211656550Y-97710894D01*
X211869932Y-97768070D01*
X212027123Y-97781822D01*
X212089998Y-97787323D01*
X212090000Y-97787323D01*
X212090002Y-97787323D01*
X212145017Y-97782509D01*
X212310068Y-97768070D01*
X212523450Y-97710894D01*
X212723662Y-97617534D01*
X212904620Y-97490826D01*
X213060826Y-97334620D01*
X213187534Y-97153662D01*
X213247618Y-97024811D01*
X213293790Y-96972371D01*
X213360983Y-96953219D01*
X213427865Y-96973435D01*
X213472382Y-97024811D01*
X213532464Y-97153658D01*
X213532468Y-97153666D01*
X213659170Y-97334615D01*
X213659175Y-97334621D01*
X213815378Y-97490824D01*
X213815384Y-97490829D01*
X213996333Y-97617531D01*
X213996335Y-97617532D01*
X213996338Y-97617534D01*
X214196550Y-97710894D01*
X214409932Y-97768070D01*
X214567123Y-97781822D01*
X214629998Y-97787323D01*
X214630000Y-97787323D01*
X214630002Y-97787323D01*
X214685017Y-97782509D01*
X214850068Y-97768070D01*
X215063450Y-97710894D01*
X215263662Y-97617534D01*
X215444620Y-97490826D01*
X215600826Y-97334620D01*
X215682425Y-97218083D01*
X215737002Y-97174459D01*
X215806500Y-97167265D01*
X215868855Y-97198788D01*
X215904269Y-97259017D01*
X215908000Y-97289207D01*
X215908000Y-97329844D01*
X215914401Y-97389372D01*
X215914403Y-97389379D01*
X215964645Y-97524086D01*
X215964649Y-97524093D01*
X216050809Y-97639187D01*
X216050812Y-97639190D01*
X216165906Y-97725350D01*
X216165913Y-97725354D01*
X216300620Y-97775596D01*
X216300627Y-97775598D01*
X216360155Y-97781999D01*
X216360172Y-97782000D01*
X216920000Y-97782000D01*
X216920000Y-96808816D01*
X216936060Y-96824876D01*
X217022939Y-96875036D01*
X217119840Y-96901000D01*
X217220160Y-96901000D01*
X217317061Y-96875036D01*
X217403940Y-96824876D01*
X217420000Y-96808816D01*
X217420000Y-97782000D01*
X217979828Y-97782000D01*
X217979844Y-97781999D01*
X218039372Y-97775598D01*
X218039379Y-97775596D01*
X218174086Y-97725354D01*
X218174093Y-97725350D01*
X218289187Y-97639190D01*
X218289190Y-97639187D01*
X218375350Y-97524093D01*
X218375354Y-97524086D01*
X218425596Y-97389379D01*
X218425598Y-97389372D01*
X218431999Y-97329844D01*
X218432000Y-97329827D01*
X218432000Y-96770000D01*
X217458816Y-96770000D01*
X217474876Y-96753940D01*
X217525036Y-96667061D01*
X217551000Y-96570160D01*
X217551000Y-96469840D01*
X217525036Y-96372939D01*
X217474876Y-96286060D01*
X217458816Y-96270000D01*
X218432000Y-96270000D01*
X218432000Y-96042135D01*
X221009500Y-96042135D01*
X221009500Y-97837870D01*
X221009501Y-97837876D01*
X221015908Y-97897483D01*
X221066202Y-98032328D01*
X221066206Y-98032335D01*
X221152452Y-98147544D01*
X221152455Y-98147547D01*
X221267664Y-98233793D01*
X221267671Y-98233797D01*
X221402517Y-98284091D01*
X221402516Y-98284091D01*
X221409444Y-98284835D01*
X221462127Y-98290500D01*
X223257872Y-98290499D01*
X223317483Y-98284091D01*
X223452331Y-98233796D01*
X223567546Y-98147546D01*
X223653796Y-98032331D01*
X223704091Y-97897483D01*
X223710500Y-97837873D01*
X223710499Y-96042128D01*
X223704091Y-95982517D01*
X223668219Y-95886340D01*
X223653797Y-95847671D01*
X223653793Y-95847664D01*
X223567547Y-95732455D01*
X223567544Y-95732452D01*
X223452335Y-95646206D01*
X223452328Y-95646202D01*
X223317482Y-95595908D01*
X223317483Y-95595908D01*
X223257883Y-95589501D01*
X223257881Y-95589500D01*
X223257873Y-95589500D01*
X223257864Y-95589500D01*
X221462129Y-95589500D01*
X221462123Y-95589501D01*
X221402516Y-95595908D01*
X221267671Y-95646202D01*
X221267664Y-95646206D01*
X221152455Y-95732452D01*
X221152452Y-95732455D01*
X221066206Y-95847664D01*
X221066202Y-95847671D01*
X221015908Y-95982517D01*
X221012396Y-96015189D01*
X221009501Y-96042123D01*
X221009500Y-96042135D01*
X218432000Y-96042135D01*
X218432000Y-95710172D01*
X218431999Y-95710155D01*
X218425598Y-95650627D01*
X218425596Y-95650620D01*
X218375354Y-95515913D01*
X218375350Y-95515906D01*
X218289190Y-95400812D01*
X218289187Y-95400809D01*
X218174093Y-95314649D01*
X218174086Y-95314645D01*
X218039379Y-95264403D01*
X218039372Y-95264401D01*
X217979844Y-95258000D01*
X217420000Y-95258000D01*
X217420000Y-96231184D01*
X217403940Y-96215124D01*
X217317061Y-96164964D01*
X217220160Y-96139000D01*
X217119840Y-96139000D01*
X217022939Y-96164964D01*
X216936060Y-96215124D01*
X216920000Y-96231184D01*
X216920000Y-95258000D01*
X216360155Y-95258000D01*
X216300627Y-95264401D01*
X216300620Y-95264403D01*
X216165913Y-95314645D01*
X216165906Y-95314649D01*
X216050812Y-95400809D01*
X216050809Y-95400812D01*
X215964649Y-95515906D01*
X215964645Y-95515913D01*
X215914403Y-95650620D01*
X215914401Y-95650627D01*
X215908000Y-95710155D01*
X215908000Y-95750793D01*
X215888315Y-95817832D01*
X215835511Y-95863587D01*
X215766353Y-95873531D01*
X215702797Y-95844506D01*
X215682425Y-95821916D01*
X215600827Y-95705381D01*
X215541648Y-95646202D01*
X215444620Y-95549174D01*
X215444616Y-95549171D01*
X215444615Y-95549170D01*
X215263666Y-95422468D01*
X215263662Y-95422466D01*
X215263660Y-95422465D01*
X215063450Y-95329106D01*
X215063447Y-95329105D01*
X215063445Y-95329104D01*
X214850070Y-95271930D01*
X214850062Y-95271929D01*
X214630002Y-95252677D01*
X214629998Y-95252677D01*
X214409937Y-95271929D01*
X214409929Y-95271930D01*
X214196554Y-95329104D01*
X214196548Y-95329107D01*
X213996340Y-95422465D01*
X213996338Y-95422466D01*
X213815377Y-95549175D01*
X213659175Y-95705377D01*
X213532466Y-95886338D01*
X213532465Y-95886340D01*
X213472382Y-96015189D01*
X213426209Y-96067628D01*
X213359016Y-96086780D01*
X213292135Y-96066564D01*
X213247618Y-96015189D01*
X213187534Y-95886340D01*
X213187533Y-95886338D01*
X213160458Y-95847671D01*
X213079784Y-95732455D01*
X213060827Y-95705381D01*
X213001648Y-95646202D01*
X212904620Y-95549174D01*
X212904616Y-95549171D01*
X212904615Y-95549170D01*
X212723666Y-95422468D01*
X212723662Y-95422466D01*
X212723660Y-95422465D01*
X212523450Y-95329106D01*
X212523447Y-95329105D01*
X212523445Y-95329104D01*
X212310070Y-95271930D01*
X212310062Y-95271929D01*
X212090002Y-95252677D01*
X212089998Y-95252677D01*
X211869937Y-95271929D01*
X211869929Y-95271930D01*
X211656554Y-95329104D01*
X211656548Y-95329107D01*
X211456340Y-95422465D01*
X211456338Y-95422466D01*
X211275377Y-95549175D01*
X211119175Y-95705377D01*
X210992466Y-95886338D01*
X210992465Y-95886340D01*
X210932382Y-96015189D01*
X210886209Y-96067628D01*
X210819016Y-96086780D01*
X210752135Y-96066564D01*
X210707618Y-96015189D01*
X210647534Y-95886340D01*
X210647533Y-95886338D01*
X210620458Y-95847671D01*
X210539784Y-95732455D01*
X210520827Y-95705381D01*
X210461648Y-95646202D01*
X210364620Y-95549174D01*
X210364616Y-95549171D01*
X210364615Y-95549170D01*
X210183666Y-95422468D01*
X210183662Y-95422466D01*
X210183660Y-95422465D01*
X209983450Y-95329106D01*
X209983447Y-95329105D01*
X209983445Y-95329104D01*
X209770070Y-95271930D01*
X209770062Y-95271929D01*
X209550002Y-95252677D01*
X209549998Y-95252677D01*
X209329937Y-95271929D01*
X209329929Y-95271930D01*
X209116554Y-95329104D01*
X209116548Y-95329107D01*
X208916340Y-95422465D01*
X208916338Y-95422466D01*
X208735377Y-95549175D01*
X208579175Y-95705377D01*
X208452466Y-95886338D01*
X208452465Y-95886340D01*
X208359107Y-96086548D01*
X208359104Y-96086554D01*
X208301930Y-96299929D01*
X208301929Y-96299937D01*
X208282677Y-96519997D01*
X205710499Y-96519997D01*
X205710499Y-96042128D01*
X205704091Y-95982517D01*
X205668219Y-95886340D01*
X205653797Y-95847671D01*
X205653793Y-95847664D01*
X205567547Y-95732455D01*
X205567544Y-95732452D01*
X205452335Y-95646206D01*
X205452328Y-95646202D01*
X205317482Y-95595908D01*
X205317483Y-95595908D01*
X205257883Y-95589501D01*
X205257881Y-95589500D01*
X205257873Y-95589500D01*
X205257864Y-95589500D01*
X203462129Y-95589500D01*
X203462123Y-95589501D01*
X203402516Y-95595908D01*
X203267671Y-95646202D01*
X203267664Y-95646206D01*
X203152455Y-95732452D01*
X203152452Y-95732455D01*
X203066206Y-95847664D01*
X203066202Y-95847671D01*
X203015908Y-95982517D01*
X203012396Y-96015189D01*
X203009501Y-96042123D01*
X203009500Y-96042135D01*
X198125500Y-96042135D01*
X198125500Y-83819999D01*
X241214341Y-83819999D01*
X241214341Y-83820000D01*
X241234936Y-84055403D01*
X241234938Y-84055413D01*
X241296094Y-84283655D01*
X241296096Y-84283659D01*
X241296097Y-84283663D01*
X241300000Y-84292032D01*
X241395965Y-84497830D01*
X241395967Y-84497834D01*
X241504281Y-84652521D01*
X241531505Y-84691401D01*
X241698599Y-84858495D01*
X241698604Y-84858499D01*
X241699968Y-84859643D01*
X241700407Y-84860303D01*
X241702427Y-84862323D01*
X241702021Y-84862728D01*
X241738669Y-84917815D01*
X241739776Y-84987676D01*
X241702937Y-85047046D01*
X241659267Y-85072336D01*
X241650669Y-85075184D01*
X241650663Y-85075187D01*
X241501342Y-85167289D01*
X241377289Y-85291342D01*
X241285187Y-85440663D01*
X241285185Y-85440668D01*
X241268701Y-85490414D01*
X241230001Y-85607203D01*
X241230001Y-85607204D01*
X241230000Y-85607204D01*
X241219500Y-85709983D01*
X241219500Y-87010001D01*
X241219501Y-87010018D01*
X241230000Y-87112796D01*
X241230001Y-87112799D01*
X241269303Y-87231402D01*
X241285186Y-87279334D01*
X241377288Y-87428656D01*
X241501344Y-87552712D01*
X241650666Y-87644814D01*
X241817203Y-87699999D01*
X241919991Y-87710500D01*
X242922500Y-87710499D01*
X242989539Y-87730183D01*
X243035294Y-87782987D01*
X243046500Y-87834499D01*
X243046500Y-95087937D01*
X243026815Y-95154976D01*
X242974011Y-95200731D01*
X242904853Y-95210675D01*
X242890407Y-95207712D01*
X242805413Y-95184938D01*
X242805403Y-95184936D01*
X242570001Y-95164341D01*
X242569999Y-95164341D01*
X242334596Y-95184936D01*
X242334586Y-95184938D01*
X242106344Y-95246094D01*
X242106335Y-95246098D01*
X241892171Y-95345964D01*
X241892169Y-95345965D01*
X241698597Y-95481505D01*
X241531505Y-95648597D01*
X241395965Y-95842169D01*
X241395964Y-95842171D01*
X241296098Y-96056335D01*
X241296094Y-96056344D01*
X241234938Y-96284586D01*
X241234936Y-96284596D01*
X241214341Y-96519999D01*
X241214341Y-96520000D01*
X241234936Y-96755403D01*
X241234938Y-96755413D01*
X241296094Y-96983655D01*
X241296096Y-96983659D01*
X241296097Y-96983663D01*
X241300000Y-96992032D01*
X241395965Y-97197830D01*
X241395967Y-97197834D01*
X241459948Y-97289207D01*
X241531505Y-97391401D01*
X241698599Y-97558495D01*
X241698604Y-97558499D01*
X241699968Y-97559643D01*
X241700407Y-97560303D01*
X241702427Y-97562323D01*
X241702021Y-97562728D01*
X241738669Y-97617815D01*
X241739776Y-97687676D01*
X241702937Y-97747046D01*
X241659267Y-97772336D01*
X241650669Y-97775184D01*
X241650663Y-97775187D01*
X241501342Y-97867289D01*
X241377289Y-97991342D01*
X241285187Y-98140663D01*
X241285185Y-98140668D01*
X241260625Y-98214785D01*
X241230001Y-98307203D01*
X241230001Y-98307204D01*
X241230000Y-98307204D01*
X241219500Y-98409983D01*
X241219500Y-99710001D01*
X241219501Y-99710018D01*
X241230000Y-99812796D01*
X241230001Y-99812799D01*
X241285185Y-99979331D01*
X241285187Y-99979336D01*
X241320069Y-100035888D01*
X241377288Y-100128656D01*
X241501344Y-100252712D01*
X241650666Y-100344814D01*
X241817203Y-100399999D01*
X241858103Y-100404177D01*
X241922793Y-100430573D01*
X241962945Y-100487753D01*
X241969500Y-100527535D01*
X241969500Y-101184626D01*
X241952888Y-101246625D01*
X241940423Y-101268214D01*
X241899498Y-101420945D01*
X241898438Y-101429003D01*
X241896232Y-101428712D01*
X241879814Y-101484628D01*
X241872445Y-101494903D01*
X241870184Y-101497737D01*
X241774211Y-101650476D01*
X241714631Y-101820745D01*
X241714630Y-101820750D01*
X241694435Y-101999996D01*
X241694435Y-102000003D01*
X241714630Y-102179249D01*
X241714631Y-102179254D01*
X241774211Y-102349523D01*
X241811054Y-102408158D01*
X241870184Y-102502262D01*
X241997738Y-102629816D01*
X242150478Y-102725789D01*
X242266789Y-102766488D01*
X242320745Y-102785368D01*
X242320750Y-102785369D01*
X242499996Y-102805565D01*
X242500000Y-102805565D01*
X242500004Y-102805565D01*
X242679249Y-102785369D01*
X242679252Y-102785368D01*
X242679255Y-102785368D01*
X242849522Y-102725789D01*
X243002262Y-102629816D01*
X243129816Y-102502262D01*
X243225789Y-102349522D01*
X243285368Y-102179255D01*
X243294307Y-102099920D01*
X243305565Y-102000003D01*
X243305565Y-101999996D01*
X243285369Y-101820750D01*
X243285368Y-101820745D01*
X243250376Y-101720745D01*
X243225789Y-101650478D01*
X243188464Y-101591075D01*
X243169464Y-101523838D01*
X243170501Y-101509177D01*
X243170501Y-101343348D01*
X243170500Y-101343330D01*
X243170500Y-100527534D01*
X243190185Y-100460495D01*
X243242989Y-100414740D01*
X243281897Y-100404176D01*
X243322797Y-100399999D01*
X243489334Y-100344814D01*
X243638656Y-100252712D01*
X243762712Y-100128656D01*
X243854814Y-99979334D01*
X243857662Y-99970738D01*
X243897429Y-99913294D01*
X243961944Y-99886468D01*
X244030720Y-99898779D01*
X244067483Y-99927766D01*
X244067677Y-99927573D01*
X244069313Y-99929209D01*
X244070354Y-99930030D01*
X244071501Y-99931397D01*
X244071505Y-99931401D01*
X244238599Y-100098495D01*
X244335384Y-100166265D01*
X244432165Y-100234032D01*
X244432167Y-100234033D01*
X244432170Y-100234035D01*
X244646337Y-100333903D01*
X244874592Y-100395063D01*
X245051034Y-100410500D01*
X245109999Y-100415659D01*
X245110000Y-100415659D01*
X245110001Y-100415659D01*
X245168966Y-100410500D01*
X245345408Y-100395063D01*
X245573663Y-100333903D01*
X245787830Y-100234035D01*
X245981401Y-100098495D01*
X246148495Y-99931401D01*
X246278425Y-99745842D01*
X246333002Y-99702217D01*
X246402500Y-99695023D01*
X246464855Y-99726546D01*
X246481575Y-99745842D01*
X246611500Y-99931395D01*
X246611505Y-99931401D01*
X246778599Y-100098495D01*
X246875384Y-100166265D01*
X246972165Y-100234032D01*
X246972167Y-100234033D01*
X246972170Y-100234035D01*
X247186337Y-100333903D01*
X247414592Y-100395063D01*
X247591034Y-100410500D01*
X247649999Y-100415659D01*
X247650000Y-100415659D01*
X247650001Y-100415659D01*
X247708966Y-100410500D01*
X247885408Y-100395063D01*
X248113663Y-100333903D01*
X248327830Y-100234035D01*
X248521401Y-100098495D01*
X248688495Y-99931401D01*
X248818425Y-99745842D01*
X248873002Y-99702217D01*
X248942500Y-99695023D01*
X249004855Y-99726546D01*
X249021575Y-99745842D01*
X249151500Y-99931395D01*
X249151505Y-99931401D01*
X249318599Y-100098495D01*
X249415384Y-100166265D01*
X249512165Y-100234032D01*
X249512167Y-100234033D01*
X249512170Y-100234035D01*
X249726337Y-100333903D01*
X249954592Y-100395063D01*
X250131034Y-100410500D01*
X250189999Y-100415659D01*
X250190000Y-100415659D01*
X250190001Y-100415659D01*
X250248966Y-100410500D01*
X250425408Y-100395063D01*
X250653663Y-100333903D01*
X250867830Y-100234035D01*
X251061401Y-100098495D01*
X251228495Y-99931401D01*
X251358425Y-99745842D01*
X251413002Y-99702217D01*
X251482500Y-99695023D01*
X251544855Y-99726546D01*
X251561575Y-99745842D01*
X251691500Y-99931395D01*
X251691505Y-99931401D01*
X251858599Y-100098495D01*
X251955384Y-100166265D01*
X252052165Y-100234032D01*
X252052167Y-100234033D01*
X252052170Y-100234035D01*
X252266337Y-100333903D01*
X252494592Y-100395063D01*
X252671034Y-100410500D01*
X252729999Y-100415659D01*
X252730000Y-100415659D01*
X252730001Y-100415659D01*
X252788966Y-100410500D01*
X252965408Y-100395063D01*
X253193663Y-100333903D01*
X253407830Y-100234035D01*
X253601401Y-100098495D01*
X253768495Y-99931401D01*
X253904035Y-99737830D01*
X254003903Y-99523663D01*
X254065063Y-99295408D01*
X254085659Y-99060000D01*
X254065063Y-98824592D01*
X254030671Y-98696239D01*
X254032334Y-98626393D01*
X254062763Y-98576470D01*
X254165506Y-98473728D01*
X254165511Y-98473724D01*
X254175714Y-98463520D01*
X254175716Y-98463520D01*
X254287520Y-98351716D01*
X254355601Y-98233796D01*
X254366577Y-98214785D01*
X254407501Y-98062057D01*
X254407501Y-97903943D01*
X254407501Y-97896348D01*
X254407500Y-97896330D01*
X254407500Y-87662988D01*
X254427185Y-87595949D01*
X254479989Y-87550194D01*
X254549147Y-87540250D01*
X254612703Y-87569275D01*
X254619181Y-87575307D01*
X266263181Y-99219307D01*
X266296666Y-99280630D01*
X266299500Y-99306988D01*
X266299500Y-101268060D01*
X266279815Y-101335099D01*
X266227011Y-101380854D01*
X266157853Y-101390798D01*
X266094297Y-101361773D01*
X266087819Y-101355741D01*
X266002262Y-101270184D01*
X265849523Y-101174211D01*
X265679254Y-101114631D01*
X265679249Y-101114630D01*
X265500004Y-101094435D01*
X265499996Y-101094435D01*
X265320750Y-101114630D01*
X265320745Y-101114631D01*
X265150476Y-101174211D01*
X264997737Y-101270184D01*
X264870184Y-101397737D01*
X264774211Y-101550476D01*
X264714631Y-101720745D01*
X264714630Y-101720750D01*
X264694435Y-101899996D01*
X264694435Y-101900003D01*
X264714630Y-102079249D01*
X264714631Y-102079254D01*
X264774211Y-102249523D01*
X264784317Y-102265606D01*
X264848240Y-102367339D01*
X264870185Y-102402263D01*
X264872445Y-102405097D01*
X264873334Y-102407275D01*
X264873889Y-102408158D01*
X264873734Y-102408255D01*
X264898855Y-102469783D01*
X264899500Y-102482412D01*
X264899500Y-116373330D01*
X264899499Y-116373348D01*
X264899499Y-116539054D01*
X264899498Y-116539054D01*
X264940423Y-116691785D01*
X264959965Y-116725631D01*
X264959966Y-116725635D01*
X265019475Y-116828709D01*
X265019481Y-116828717D01*
X265138349Y-116947585D01*
X265138355Y-116947590D01*
X267239084Y-119048319D01*
X267272569Y-119109642D01*
X267271178Y-119168092D01*
X267251932Y-119239923D01*
X267251929Y-119239937D01*
X267232677Y-119459997D01*
X267232677Y-119460002D01*
X267251929Y-119680062D01*
X267251930Y-119680070D01*
X267309104Y-119893445D01*
X267309105Y-119893447D01*
X267309106Y-119893450D01*
X267373516Y-120031578D01*
X267402466Y-120093662D01*
X267402468Y-120093666D01*
X267529170Y-120274615D01*
X267529175Y-120274621D01*
X267685378Y-120430824D01*
X267685384Y-120430829D01*
X267866333Y-120557531D01*
X267866335Y-120557532D01*
X267866338Y-120557534D01*
X267961971Y-120602128D01*
X267995189Y-120617618D01*
X268047628Y-120663790D01*
X268066780Y-120730984D01*
X268046564Y-120797865D01*
X267995189Y-120842382D01*
X267866340Y-120902465D01*
X267866338Y-120902466D01*
X267685377Y-121029175D01*
X267529175Y-121185377D01*
X267402466Y-121366338D01*
X267402465Y-121366340D01*
X267309107Y-121566548D01*
X267309104Y-121566554D01*
X267251930Y-121779929D01*
X267251929Y-121779937D01*
X267232677Y-121999997D01*
X267232677Y-122000002D01*
X267251929Y-122220062D01*
X267251930Y-122220070D01*
X267309104Y-122433445D01*
X267309105Y-122433447D01*
X267309106Y-122433450D01*
X267320313Y-122457483D01*
X267402466Y-122633662D01*
X267402468Y-122633666D01*
X267529170Y-122814615D01*
X267529175Y-122814621D01*
X267685378Y-122970824D01*
X267685384Y-122970829D01*
X267866333Y-123097531D01*
X267866335Y-123097532D01*
X267866338Y-123097534D01*
X268066550Y-123190894D01*
X268279932Y-123248070D01*
X268437123Y-123261822D01*
X268499998Y-123267323D01*
X268500000Y-123267323D01*
X268500002Y-123267323D01*
X268555017Y-123262509D01*
X268720068Y-123248070D01*
X268933450Y-123190894D01*
X269133662Y-123097534D01*
X269314620Y-122970826D01*
X269470826Y-122814620D01*
X269597534Y-122633662D01*
X269690894Y-122433450D01*
X269748070Y-122220068D01*
X269767323Y-122000000D01*
X269748070Y-121779932D01*
X269728821Y-121708095D01*
X269730482Y-121638245D01*
X269760912Y-121588321D01*
X269847506Y-121501728D01*
X269847511Y-121501724D01*
X269857714Y-121491520D01*
X269857716Y-121491520D01*
X269969520Y-121379716D01*
X270033445Y-121268994D01*
X270048577Y-121242785D01*
X270089500Y-121090058D01*
X270089500Y-120931943D01*
X270089500Y-115879943D01*
X270048577Y-115727216D01*
X270048577Y-115727215D01*
X270002451Y-115647323D01*
X269969520Y-115590284D01*
X269857716Y-115478480D01*
X269853385Y-115474149D01*
X269853374Y-115474139D01*
X269208818Y-114829583D01*
X269175333Y-114768260D01*
X269172499Y-114741902D01*
X269172499Y-113570129D01*
X269172498Y-113570123D01*
X269171988Y-113565381D01*
X269166091Y-113510517D01*
X269154726Y-113480047D01*
X269115797Y-113375671D01*
X269115793Y-113375664D01*
X269029547Y-113260455D01*
X269029544Y-113260452D01*
X268914335Y-113174206D01*
X268914328Y-113174202D01*
X268779482Y-113123908D01*
X268779483Y-113123908D01*
X268719883Y-113117501D01*
X268719881Y-113117500D01*
X268719873Y-113117500D01*
X268719865Y-113117500D01*
X268679922Y-113117500D01*
X268612883Y-113097815D01*
X268567128Y-113045011D01*
X268557184Y-112975853D01*
X268586209Y-112912297D01*
X268608799Y-112891925D01*
X268677065Y-112844124D01*
X268724620Y-112810826D01*
X268880826Y-112654620D01*
X269007534Y-112473662D01*
X269100894Y-112273450D01*
X269158070Y-112060068D01*
X269173256Y-111886488D01*
X269177323Y-111840002D01*
X269177323Y-111839997D01*
X269168649Y-111740858D01*
X269158070Y-111619932D01*
X269100894Y-111406550D01*
X269007534Y-111206339D01*
X268880826Y-111025380D01*
X268724620Y-110869174D01*
X268724616Y-110869171D01*
X268724615Y-110869170D01*
X268563377Y-110756270D01*
X268519752Y-110701693D01*
X268510500Y-110654695D01*
X268510500Y-101068726D01*
X268529507Y-101002753D01*
X268625788Y-100849524D01*
X268685368Y-100679254D01*
X268685369Y-100679249D01*
X268705565Y-100500003D01*
X268705565Y-100499996D01*
X268685369Y-100320750D01*
X268685368Y-100320745D01*
X268661562Y-100252712D01*
X268625789Y-100150478D01*
X268529816Y-99997738D01*
X268402262Y-99870184D01*
X268249523Y-99774211D01*
X268079254Y-99714631D01*
X268079249Y-99714630D01*
X267900004Y-99694435D01*
X267899996Y-99694435D01*
X267720750Y-99714630D01*
X267720739Y-99714633D01*
X267665453Y-99733978D01*
X267595674Y-99737539D01*
X267535047Y-99702809D01*
X267502821Y-99640816D01*
X267500500Y-99616936D01*
X267500500Y-99095951D01*
X267500501Y-99095938D01*
X267500501Y-98927835D01*
X267500501Y-98927834D01*
X267459577Y-98775107D01*
X267459573Y-98775100D01*
X267380524Y-98638181D01*
X267380518Y-98638173D01*
X253688801Y-84946457D01*
X253655316Y-84885134D01*
X253660300Y-84815442D01*
X253688801Y-84771095D01*
X253768495Y-84691401D01*
X253904035Y-84497830D01*
X254003903Y-84283663D01*
X254065063Y-84055408D01*
X254085659Y-83820000D01*
X254065063Y-83584592D01*
X254003903Y-83356337D01*
X253904035Y-83142171D01*
X253898425Y-83134158D01*
X253768494Y-82948597D01*
X253601402Y-82781506D01*
X253601395Y-82781501D01*
X253407834Y-82645967D01*
X253407830Y-82645965D01*
X253407828Y-82645964D01*
X253193663Y-82546097D01*
X253193659Y-82546096D01*
X253193655Y-82546094D01*
X252965413Y-82484938D01*
X252965403Y-82484936D01*
X252730001Y-82464341D01*
X252729999Y-82464341D01*
X252494596Y-82484936D01*
X252494586Y-82484938D01*
X252266344Y-82546094D01*
X252266335Y-82546098D01*
X252052171Y-82645964D01*
X252052169Y-82645965D01*
X251858597Y-82781505D01*
X251691505Y-82948597D01*
X251561575Y-83134158D01*
X251506998Y-83177783D01*
X251437500Y-83184977D01*
X251375145Y-83153454D01*
X251358425Y-83134158D01*
X251228494Y-82948597D01*
X251061402Y-82781506D01*
X251061395Y-82781501D01*
X250867834Y-82645967D01*
X250867830Y-82645965D01*
X250867828Y-82645964D01*
X250653663Y-82546097D01*
X250653659Y-82546096D01*
X250653655Y-82546094D01*
X250425413Y-82484938D01*
X250425403Y-82484936D01*
X250190001Y-82464341D01*
X250189999Y-82464341D01*
X249954596Y-82484936D01*
X249954586Y-82484938D01*
X249726344Y-82546094D01*
X249726335Y-82546098D01*
X249512171Y-82645964D01*
X249512169Y-82645965D01*
X249318597Y-82781505D01*
X249151505Y-82948597D01*
X249021575Y-83134158D01*
X248966998Y-83177783D01*
X248897500Y-83184977D01*
X248835145Y-83153454D01*
X248818425Y-83134158D01*
X248688494Y-82948597D01*
X248521402Y-82781506D01*
X248521395Y-82781501D01*
X248327834Y-82645967D01*
X248327830Y-82645965D01*
X248327828Y-82645964D01*
X248113663Y-82546097D01*
X248113659Y-82546096D01*
X248113655Y-82546094D01*
X247885413Y-82484938D01*
X247885403Y-82484936D01*
X247650001Y-82464341D01*
X247649999Y-82464341D01*
X247414596Y-82484936D01*
X247414586Y-82484938D01*
X247186344Y-82546094D01*
X247186335Y-82546098D01*
X246972171Y-82645964D01*
X246972169Y-82645965D01*
X246778597Y-82781505D01*
X246611505Y-82948597D01*
X246481575Y-83134158D01*
X246426998Y-83177783D01*
X246357500Y-83184977D01*
X246295145Y-83153454D01*
X246278425Y-83134158D01*
X246148494Y-82948597D01*
X245981402Y-82781506D01*
X245981395Y-82781501D01*
X245787834Y-82645967D01*
X245787830Y-82645965D01*
X245787828Y-82645964D01*
X245573663Y-82546097D01*
X245573659Y-82546096D01*
X245573655Y-82546094D01*
X245345413Y-82484938D01*
X245345403Y-82484936D01*
X245110001Y-82464341D01*
X245109999Y-82464341D01*
X244874596Y-82484936D01*
X244874586Y-82484938D01*
X244646344Y-82546094D01*
X244646335Y-82546098D01*
X244432171Y-82645964D01*
X244432169Y-82645965D01*
X244238597Y-82781505D01*
X244071505Y-82948597D01*
X243941575Y-83134158D01*
X243886998Y-83177783D01*
X243817500Y-83184977D01*
X243755145Y-83153454D01*
X243738425Y-83134158D01*
X243608494Y-82948597D01*
X243441402Y-82781506D01*
X243441395Y-82781501D01*
X243247834Y-82645967D01*
X243247830Y-82645965D01*
X243247828Y-82645964D01*
X243033663Y-82546097D01*
X243033659Y-82546096D01*
X243033655Y-82546094D01*
X242805413Y-82484938D01*
X242805403Y-82484936D01*
X242570001Y-82464341D01*
X242569999Y-82464341D01*
X242334596Y-82484936D01*
X242334586Y-82484938D01*
X242106344Y-82546094D01*
X242106335Y-82546098D01*
X241892171Y-82645964D01*
X241892169Y-82645965D01*
X241698597Y-82781505D01*
X241531505Y-82948597D01*
X241395965Y-83142169D01*
X241395964Y-83142171D01*
X241296098Y-83356335D01*
X241296094Y-83356344D01*
X241234938Y-83584586D01*
X241234936Y-83584596D01*
X241214341Y-83819999D01*
X198125500Y-83819999D01*
X198125500Y-79903713D01*
X201849500Y-79903713D01*
X201849500Y-80116286D01*
X201882753Y-80326239D01*
X201948444Y-80528414D01*
X202044951Y-80717820D01*
X202169890Y-80889786D01*
X202320213Y-81040109D01*
X202492179Y-81165048D01*
X202492181Y-81165049D01*
X202492184Y-81165051D01*
X202681588Y-81261557D01*
X202883757Y-81327246D01*
X203093713Y-81360500D01*
X203093714Y-81360500D01*
X203306286Y-81360500D01*
X203306287Y-81360500D01*
X203516243Y-81327246D01*
X203718412Y-81261557D01*
X203907816Y-81165051D01*
X203929789Y-81149086D01*
X204079786Y-81040109D01*
X204079788Y-81040106D01*
X204079792Y-81040104D01*
X204230104Y-80889792D01*
X204230106Y-80889788D01*
X204230109Y-80889786D01*
X204355048Y-80717820D01*
X204355047Y-80717820D01*
X204355051Y-80717816D01*
X204451557Y-80528412D01*
X204517246Y-80326243D01*
X204550500Y-80116287D01*
X204550500Y-79903713D01*
X266619500Y-79903713D01*
X266619500Y-80116286D01*
X266652753Y-80326239D01*
X266718444Y-80528414D01*
X266814951Y-80717820D01*
X266939890Y-80889786D01*
X267090213Y-81040109D01*
X267262179Y-81165048D01*
X267262181Y-81165049D01*
X267262184Y-81165051D01*
X267451588Y-81261557D01*
X267653757Y-81327246D01*
X267863713Y-81360500D01*
X267863714Y-81360500D01*
X268076286Y-81360500D01*
X268076287Y-81360500D01*
X268286243Y-81327246D01*
X268488412Y-81261557D01*
X268677816Y-81165051D01*
X268699789Y-81149086D01*
X268849786Y-81040109D01*
X268849788Y-81040106D01*
X268849792Y-81040104D01*
X269000104Y-80889792D01*
X269000106Y-80889788D01*
X269000109Y-80889786D01*
X269125048Y-80717820D01*
X269125047Y-80717820D01*
X269125051Y-80717816D01*
X269221557Y-80528412D01*
X269287246Y-80326243D01*
X269320500Y-80116287D01*
X269320500Y-79903713D01*
X269287246Y-79693757D01*
X269221557Y-79491588D01*
X269125051Y-79302184D01*
X269125049Y-79302181D01*
X269125048Y-79302179D01*
X269000109Y-79130213D01*
X268849786Y-78979890D01*
X268677820Y-78854951D01*
X268488414Y-78758444D01*
X268488413Y-78758443D01*
X268488412Y-78758443D01*
X268286243Y-78692754D01*
X268286241Y-78692753D01*
X268286240Y-78692753D01*
X268124957Y-78667208D01*
X268076287Y-78659500D01*
X267863713Y-78659500D01*
X267815042Y-78667208D01*
X267653760Y-78692753D01*
X267451585Y-78758444D01*
X267262179Y-78854951D01*
X267090213Y-78979890D01*
X266939890Y-79130213D01*
X266814951Y-79302179D01*
X266718444Y-79491585D01*
X266652753Y-79693760D01*
X266619500Y-79903713D01*
X204550500Y-79903713D01*
X204517246Y-79693757D01*
X204451557Y-79491588D01*
X204355051Y-79302184D01*
X204355049Y-79302181D01*
X204355048Y-79302179D01*
X204230109Y-79130213D01*
X204079786Y-78979890D01*
X203907820Y-78854951D01*
X203718414Y-78758444D01*
X203718413Y-78758443D01*
X203718412Y-78758443D01*
X203516243Y-78692754D01*
X203516241Y-78692753D01*
X203516240Y-78692753D01*
X203354957Y-78667208D01*
X203306287Y-78659500D01*
X203093713Y-78659500D01*
X203045042Y-78667208D01*
X202883760Y-78692753D01*
X202681585Y-78758444D01*
X202492179Y-78854951D01*
X202320213Y-78979890D01*
X202169890Y-79130213D01*
X202044951Y-79302179D01*
X201948444Y-79491585D01*
X201882753Y-79693760D01*
X201849500Y-79903713D01*
X198125500Y-79903713D01*
X198125500Y-75524500D01*
X198145185Y-75457461D01*
X198197989Y-75411706D01*
X198249500Y-75400500D01*
X272025500Y-75400500D01*
X272092539Y-75420185D01*
G37*
G04 #@! TD.AperFunction*
M02*
