%TF.GenerationSoftware,KiCad,Pcbnew,8.0.3*%
%TF.CreationDate,2025-07-28T20:13:37+02:00*%
%TF.ProjectId,DC_minni,44435f6d-696e-46e6-992e-6b696361645f,rev?*%
%TF.SameCoordinates,Original*%
%TF.FileFunction,Drillmap*%
%TF.FilePolarity,Positive*%
%FSLAX45Y45*%
G04 Gerber Fmt 4.5, Leading zero omitted, Abs format (unit mm)*
G04 Created by KiCad (PCBNEW 8.0.3) date 2025-07-28 20:13:37*
%MOMM*%
%LPD*%
G01*
G04 APERTURE LIST*
%ADD10C,0.038100*%
%ADD11C,0.200000*%
%ADD12C,0.100000*%
G04 APERTURE END LIST*
D10*
X27265000Y-7490000D02*
X19762500Y-7490000D01*
X27265000Y-18080000D02*
X27265000Y-7490000D01*
X19762500Y-18080000D02*
X27265000Y-18080000D01*
X19762500Y-7490000D02*
X19762500Y-18080000D01*
D11*
D12*
X22365000Y-10395000D02*
X22395000Y-10425000D01*
X22395000Y-10395000D02*
X22365000Y-10425000D01*
X22505000Y-11425000D02*
X22535000Y-11455000D01*
X22535000Y-11425000D02*
X22505000Y-11455000D01*
X22505000Y-16225000D02*
X22535000Y-16255000D01*
X22535000Y-16225000D02*
X22505000Y-16255000D01*
X24225000Y-12115000D02*
X24255000Y-12145000D01*
X24255000Y-12115000D02*
X24225000Y-12145000D01*
X24235000Y-10185000D02*
X24265000Y-10215000D01*
X24265000Y-10185000D02*
X24235000Y-10215000D01*
X25095000Y-11935000D02*
X25125000Y-11965000D01*
X25125000Y-11935000D02*
X25095000Y-11965000D01*
X26535000Y-10175000D02*
X26565000Y-10205000D01*
X26565000Y-10175000D02*
X26535000Y-10205000D01*
X26775000Y-10035000D02*
X26805000Y-10065000D01*
X26805000Y-10035000D02*
X26775000Y-10065000D01*
X20993100Y-9652000D02*
G75*
G02*
X20916900Y-9652000I-38100J0D01*
G01*
X20916900Y-9652000D02*
G75*
G02*
X20993100Y-9652000I38100J0D01*
G01*
X21247100Y-9652000D02*
G75*
G02*
X21170900Y-9652000I-38100J0D01*
G01*
X21170900Y-9652000D02*
G75*
G02*
X21247100Y-9652000I38100J0D01*
G01*
X21501100Y-9652000D02*
G75*
G02*
X21424900Y-9652000I-38100J0D01*
G01*
X21424900Y-9652000D02*
G75*
G02*
X21501100Y-9652000I38100J0D01*
G01*
X21755100Y-9652000D02*
G75*
G02*
X21678900Y-9652000I-38100J0D01*
G01*
X21678900Y-9652000D02*
G75*
G02*
X21755100Y-9652000I38100J0D01*
G01*
X25813100Y-11184000D02*
G75*
G02*
X25736900Y-11184000I-38100J0D01*
G01*
X25736900Y-11184000D02*
G75*
G02*
X25813100Y-11184000I38100J0D01*
G01*
X25813100Y-11438000D02*
G75*
G02*
X25736900Y-11438000I-38100J0D01*
G01*
X25736900Y-11438000D02*
G75*
G02*
X25813100Y-11438000I38100J0D01*
G01*
X25872100Y-11946000D02*
G75*
G02*
X25795900Y-11946000I-38100J0D01*
G01*
X25795900Y-11946000D02*
G75*
G02*
X25872100Y-11946000I38100J0D01*
G01*
X25872100Y-12200000D02*
G75*
G02*
X25795900Y-12200000I-38100J0D01*
G01*
X25795900Y-12200000D02*
G75*
G02*
X25872100Y-12200000I38100J0D01*
G01*
X26829100Y-11184000D02*
G75*
G02*
X26752900Y-11184000I-38100J0D01*
G01*
X26752900Y-11184000D02*
G75*
G02*
X26829100Y-11184000I38100J0D01*
G01*
X26829100Y-11438000D02*
G75*
G02*
X26752900Y-11438000I-38100J0D01*
G01*
X26752900Y-11438000D02*
G75*
G02*
X26829100Y-11438000I38100J0D01*
G01*
X26888100Y-11946000D02*
G75*
G02*
X26811900Y-11946000I-38100J0D01*
G01*
X26811900Y-11946000D02*
G75*
G02*
X26888100Y-11946000I38100J0D01*
G01*
X26888100Y-12200000D02*
G75*
G02*
X26811900Y-12200000I-38100J0D01*
G01*
X26811900Y-12200000D02*
G75*
G02*
X26888100Y-12200000I38100J0D01*
G01*
X20040000Y-10202000D02*
X20040000Y-10282000D01*
X20000000Y-10242000D02*
X20080000Y-10242000D01*
X20040000Y-11218000D02*
X20040000Y-11298000D01*
X20000000Y-11258000D02*
X20080000Y-11258000D01*
X20480000Y-10192000D02*
X20480000Y-10272000D01*
X20440000Y-10232000D02*
X20520000Y-10232000D01*
X20480000Y-11208000D02*
X20480000Y-11288000D01*
X20440000Y-11248000D02*
X20520000Y-11248000D01*
X20792000Y-11104000D02*
X20792000Y-11184000D01*
X20752000Y-11144000D02*
X20832000Y-11144000D01*
X20792000Y-11504000D02*
X20792000Y-11584000D01*
X20752000Y-11544000D02*
X20832000Y-11544000D01*
X21700000Y-12650000D02*
X21700000Y-12730000D01*
X21660000Y-12690000D02*
X21740000Y-12690000D01*
X21700000Y-12904000D02*
X21700000Y-12984000D01*
X21660000Y-12944000D02*
X21740000Y-12944000D01*
X21700000Y-13158000D02*
X21700000Y-13238000D01*
X21660000Y-13198000D02*
X21740000Y-13198000D01*
X21700000Y-13412000D02*
X21700000Y-13492000D01*
X21660000Y-13452000D02*
X21740000Y-13452000D01*
X21700000Y-13666000D02*
X21700000Y-13746000D01*
X21660000Y-13706000D02*
X21740000Y-13706000D01*
X21700000Y-13920000D02*
X21700000Y-14000000D01*
X21660000Y-13960000D02*
X21740000Y-13960000D01*
X21700000Y-14174000D02*
X21700000Y-14254000D01*
X21660000Y-14214000D02*
X21740000Y-14214000D01*
X21700000Y-14428000D02*
X21700000Y-14508000D01*
X21660000Y-14468000D02*
X21740000Y-14468000D01*
X21700000Y-14682000D02*
X21700000Y-14762000D01*
X21660000Y-14722000D02*
X21740000Y-14722000D01*
X21700000Y-14936000D02*
X21700000Y-15016000D01*
X21660000Y-14976000D02*
X21740000Y-14976000D01*
X21700000Y-15190000D02*
X21700000Y-15270000D01*
X21660000Y-15230000D02*
X21740000Y-15230000D01*
X21700000Y-15444000D02*
X21700000Y-15524000D01*
X21660000Y-15484000D02*
X21740000Y-15484000D01*
X21700000Y-15698000D02*
X21700000Y-15778000D01*
X21660000Y-15738000D02*
X21740000Y-15738000D01*
X21700000Y-15952000D02*
X21700000Y-16032000D01*
X21660000Y-15992000D02*
X21740000Y-15992000D01*
X21700000Y-16206000D02*
X21700000Y-16286000D01*
X21660000Y-16246000D02*
X21740000Y-16246000D01*
X21700000Y-16460000D02*
X21700000Y-16540000D01*
X21660000Y-16500000D02*
X21740000Y-16500000D01*
X21700000Y-16714000D02*
X21700000Y-16794000D01*
X21660000Y-16754000D02*
X21740000Y-16754000D01*
X21700000Y-16968000D02*
X21700000Y-17048000D01*
X21660000Y-17008000D02*
X21740000Y-17008000D01*
X21700000Y-17222000D02*
X21700000Y-17302000D01*
X21660000Y-17262000D02*
X21740000Y-17262000D01*
X21808000Y-11104000D02*
X21808000Y-11184000D01*
X21768000Y-11144000D02*
X21848000Y-11144000D01*
X21808000Y-11504000D02*
X21808000Y-11584000D01*
X21768000Y-11544000D02*
X21848000Y-11544000D01*
X24239632Y-16967728D02*
X24239632Y-17047728D01*
X24199632Y-17007728D02*
X24279632Y-17007728D01*
X24239632Y-17221728D02*
X24239632Y-17301728D01*
X24199632Y-17261728D02*
X24279632Y-17261728D01*
X24240000Y-12650000D02*
X24240000Y-12730000D01*
X24200000Y-12690000D02*
X24280000Y-12690000D01*
X24240000Y-12904000D02*
X24240000Y-12984000D01*
X24200000Y-12944000D02*
X24280000Y-12944000D01*
X24240000Y-13158000D02*
X24240000Y-13238000D01*
X24200000Y-13198000D02*
X24280000Y-13198000D01*
X24240000Y-13412000D02*
X24240000Y-13492000D01*
X24200000Y-13452000D02*
X24280000Y-13452000D01*
X24240000Y-13666000D02*
X24240000Y-13746000D01*
X24200000Y-13706000D02*
X24280000Y-13706000D01*
X24240000Y-13920000D02*
X24240000Y-14000000D01*
X24200000Y-13960000D02*
X24280000Y-13960000D01*
X24240000Y-14174000D02*
X24240000Y-14254000D01*
X24200000Y-14214000D02*
X24280000Y-14214000D01*
X24240000Y-14428000D02*
X24240000Y-14508000D01*
X24200000Y-14468000D02*
X24280000Y-14468000D01*
X24240000Y-14682000D02*
X24240000Y-14762000D01*
X24200000Y-14722000D02*
X24280000Y-14722000D01*
X24240000Y-14936000D02*
X24240000Y-15016000D01*
X24200000Y-14976000D02*
X24280000Y-14976000D01*
X24240000Y-15190000D02*
X24240000Y-15270000D01*
X24200000Y-15230000D02*
X24280000Y-15230000D01*
X24240000Y-15444000D02*
X24240000Y-15524000D01*
X24200000Y-15484000D02*
X24280000Y-15484000D01*
X24240000Y-15698000D02*
X24240000Y-15778000D01*
X24200000Y-15738000D02*
X24280000Y-15738000D01*
X24240000Y-15952000D02*
X24240000Y-16032000D01*
X24200000Y-15992000D02*
X24280000Y-15992000D01*
X24240000Y-16206000D02*
X24240000Y-16286000D01*
X24200000Y-16246000D02*
X24280000Y-16246000D01*
X24240000Y-16460000D02*
X24240000Y-16540000D01*
X24200000Y-16500000D02*
X24280000Y-16500000D01*
X24240000Y-16714000D02*
X24240000Y-16794000D01*
X24200000Y-16754000D02*
X24280000Y-16754000D01*
X25380000Y-11384000D02*
X25380000Y-11464000D01*
X25340000Y-11424000D02*
X25420000Y-11424000D01*
X25380000Y-12400000D02*
X25380000Y-12480000D01*
X25340000Y-12440000D02*
X25420000Y-12440000D01*
X25850000Y-12810000D02*
X25850000Y-12890000D01*
X25810000Y-12850000D02*
X25890000Y-12850000D01*
X26866000Y-12810000D02*
X26866000Y-12890000D01*
X26826000Y-12850000D02*
X26906000Y-12850000D01*
X21075588Y-10577588D02*
X21075588Y-10510412D01*
X21008412Y-10510412D01*
X21008412Y-10577588D01*
X21075588Y-10577588D01*
X21325588Y-10577588D02*
X21325588Y-10510412D01*
X21258412Y-10510412D01*
X21258412Y-10577588D01*
X21325588Y-10577588D01*
X21575588Y-10577588D02*
X21575588Y-10510412D01*
X21508412Y-10510412D01*
X21508412Y-10577588D01*
X21575588Y-10577588D01*
X24013588Y-11213588D02*
X24013588Y-11146412D01*
X23946412Y-11146412D01*
X23946412Y-11213588D01*
X24013588Y-11213588D01*
X24263588Y-11213588D02*
X24263588Y-11146412D01*
X24196412Y-11146412D01*
X24196412Y-11213588D01*
X24263588Y-11213588D01*
X24513588Y-11213588D02*
X24513588Y-11146412D01*
X24446412Y-11146412D01*
X24446412Y-11213588D01*
X24513588Y-11213588D01*
X24763588Y-11213588D02*
X24763588Y-11146412D01*
X24696412Y-11146412D01*
X24696412Y-11213588D01*
X24763588Y-11213588D01*
X20436000Y-9744000D02*
X20486000Y-9694000D01*
X20436000Y-9644000D01*
X20386000Y-9694000D01*
X20436000Y-9744000D01*
X20750000Y-12400000D02*
X20800000Y-12350000D01*
X20750000Y-12300000D01*
X20700000Y-12350000D01*
X20750000Y-12400000D01*
X20750000Y-12800000D02*
X20800000Y-12750000D01*
X20750000Y-12700000D01*
X20700000Y-12750000D01*
X20750000Y-12800000D01*
X20750000Y-13200000D02*
X20800000Y-13150000D01*
X20750000Y-13100000D01*
X20700000Y-13150000D01*
X20750000Y-13200000D01*
X20750000Y-13600000D02*
X20800000Y-13550000D01*
X20750000Y-13500000D01*
X20700000Y-13550000D01*
X20750000Y-13600000D01*
X20750000Y-14000000D02*
X20800000Y-13950000D01*
X20750000Y-13900000D01*
X20700000Y-13950000D01*
X20750000Y-14000000D01*
X20750000Y-14400000D02*
X20800000Y-14350000D01*
X20750000Y-14300000D01*
X20700000Y-14350000D01*
X20750000Y-14400000D01*
X20750000Y-14800000D02*
X20800000Y-14750000D01*
X20750000Y-14700000D01*
X20700000Y-14750000D01*
X20750000Y-14800000D01*
X20750000Y-15200000D02*
X20800000Y-15150000D01*
X20750000Y-15100000D01*
X20700000Y-15150000D01*
X20750000Y-15200000D01*
X20750000Y-15600000D02*
X20800000Y-15550000D01*
X20750000Y-15500000D01*
X20700000Y-15550000D01*
X20750000Y-15600000D01*
X20750000Y-16000000D02*
X20800000Y-15950000D01*
X20750000Y-15900000D01*
X20700000Y-15950000D01*
X20750000Y-16000000D01*
X20750000Y-16400000D02*
X20800000Y-16350000D01*
X20750000Y-16300000D01*
X20700000Y-16350000D01*
X20750000Y-16400000D01*
X20750000Y-16800000D02*
X20800000Y-16750000D01*
X20750000Y-16700000D01*
X20700000Y-16750000D01*
X20750000Y-16800000D01*
X20750000Y-17200000D02*
X20800000Y-17150000D01*
X20750000Y-17100000D01*
X20700000Y-17150000D01*
X20750000Y-17200000D01*
X20750000Y-17600000D02*
X20800000Y-17550000D01*
X20750000Y-17500000D01*
X20700000Y-17550000D01*
X20750000Y-17600000D01*
X21250000Y-12200000D02*
X21300000Y-12150000D01*
X21250000Y-12100000D01*
X21200000Y-12150000D01*
X21250000Y-12200000D01*
X21350000Y-17750000D02*
X21400000Y-17700000D01*
X21350000Y-17650000D01*
X21300000Y-17700000D01*
X21350000Y-17750000D01*
X21750000Y-12200000D02*
X21800000Y-12150000D01*
X21750000Y-12100000D01*
X21700000Y-12150000D01*
X21750000Y-12200000D01*
X21850000Y-17750000D02*
X21900000Y-17700000D01*
X21850000Y-17650000D01*
X21800000Y-17700000D01*
X21850000Y-17750000D01*
X22236000Y-9744000D02*
X22286000Y-9694000D01*
X22236000Y-9644000D01*
X22186000Y-9694000D01*
X22236000Y-9744000D01*
X22350000Y-17750000D02*
X22400000Y-17700000D01*
X22350000Y-17650000D01*
X22300000Y-17700000D01*
X22350000Y-17750000D01*
X23200000Y-17750000D02*
X23250000Y-17700000D01*
X23200000Y-17650000D01*
X23150000Y-17700000D01*
X23200000Y-17750000D01*
X23700000Y-17750000D02*
X23750000Y-17700000D01*
X23700000Y-17650000D01*
X23650000Y-17700000D01*
X23700000Y-17750000D01*
X24200000Y-17750000D02*
X24250000Y-17700000D01*
X24200000Y-17650000D01*
X24150000Y-17700000D01*
X24200000Y-17750000D01*
X24257000Y-8432000D02*
X24307000Y-8382000D01*
X24257000Y-8332000D01*
X24207000Y-8382000D01*
X24257000Y-8432000D01*
X24257000Y-8686000D02*
X24307000Y-8636000D01*
X24257000Y-8586000D01*
X24207000Y-8636000D01*
X24257000Y-8686000D01*
X24257000Y-9702000D02*
X24307000Y-9652000D01*
X24257000Y-9602000D01*
X24207000Y-9652000D01*
X24257000Y-9702000D01*
X24257000Y-9956000D02*
X24307000Y-9906000D01*
X24257000Y-9856000D01*
X24207000Y-9906000D01*
X24257000Y-9956000D01*
X24511000Y-8432000D02*
X24561000Y-8382000D01*
X24511000Y-8332000D01*
X24461000Y-8382000D01*
X24511000Y-8432000D01*
X24511000Y-8686000D02*
X24561000Y-8636000D01*
X24511000Y-8586000D01*
X24461000Y-8636000D01*
X24511000Y-8686000D01*
X24511000Y-9702000D02*
X24561000Y-9652000D01*
X24511000Y-9602000D01*
X24461000Y-9652000D01*
X24511000Y-9702000D01*
X24511000Y-9956000D02*
X24561000Y-9906000D01*
X24511000Y-9856000D01*
X24461000Y-9906000D01*
X24511000Y-9956000D01*
X24765000Y-8432000D02*
X24815000Y-8382000D01*
X24765000Y-8332000D01*
X24715000Y-8382000D01*
X24765000Y-8432000D01*
X24765000Y-8686000D02*
X24815000Y-8636000D01*
X24765000Y-8586000D01*
X24715000Y-8636000D01*
X24765000Y-8686000D01*
X24765000Y-9702000D02*
X24815000Y-9652000D01*
X24765000Y-9602000D01*
X24715000Y-9652000D01*
X24765000Y-9702000D01*
X24765000Y-9956000D02*
X24815000Y-9906000D01*
X24765000Y-9856000D01*
X24715000Y-9906000D01*
X24765000Y-9956000D01*
X24850000Y-12550000D02*
X24900000Y-12500000D01*
X24850000Y-12450000D01*
X24800000Y-12500000D01*
X24850000Y-12550000D01*
X24850000Y-12950000D02*
X24900000Y-12900000D01*
X24850000Y-12850000D01*
X24800000Y-12900000D01*
X24850000Y-12950000D01*
X24850000Y-13350000D02*
X24900000Y-13300000D01*
X24850000Y-13250000D01*
X24800000Y-13300000D01*
X24850000Y-13350000D01*
X24850000Y-13750000D02*
X24900000Y-13700000D01*
X24850000Y-13650000D01*
X24800000Y-13700000D01*
X24850000Y-13750000D01*
X24850000Y-14150000D02*
X24900000Y-14100000D01*
X24850000Y-14050000D01*
X24800000Y-14100000D01*
X24850000Y-14150000D01*
X24850000Y-14550000D02*
X24900000Y-14500000D01*
X24850000Y-14450000D01*
X24800000Y-14500000D01*
X24850000Y-14550000D01*
X24850000Y-14950000D02*
X24900000Y-14900000D01*
X24850000Y-14850000D01*
X24800000Y-14900000D01*
X24850000Y-14950000D01*
X24850000Y-15350000D02*
X24900000Y-15300000D01*
X24850000Y-15250000D01*
X24800000Y-15300000D01*
X24850000Y-15350000D01*
X24850000Y-15750000D02*
X24900000Y-15700000D01*
X24850000Y-15650000D01*
X24800000Y-15700000D01*
X24850000Y-15750000D01*
X24850000Y-16150000D02*
X24900000Y-16100000D01*
X24850000Y-16050000D01*
X24800000Y-16100000D01*
X24850000Y-16150000D01*
X24850000Y-16550000D02*
X24900000Y-16500000D01*
X24850000Y-16450000D01*
X24800000Y-16500000D01*
X24850000Y-16550000D01*
X24850000Y-16950000D02*
X24900000Y-16900000D01*
X24850000Y-16850000D01*
X24800000Y-16900000D01*
X24850000Y-16950000D01*
X24850000Y-17350000D02*
X24900000Y-17300000D01*
X24850000Y-17250000D01*
X24800000Y-17300000D01*
X24850000Y-17350000D01*
X24850000Y-17750000D02*
X24900000Y-17700000D01*
X24850000Y-17650000D01*
X24800000Y-17700000D01*
X24850000Y-17750000D01*
X25019000Y-8432000D02*
X25069000Y-8382000D01*
X25019000Y-8332000D01*
X24969000Y-8382000D01*
X25019000Y-8432000D01*
X25019000Y-8686000D02*
X25069000Y-8636000D01*
X25019000Y-8586000D01*
X24969000Y-8636000D01*
X25019000Y-8686000D01*
X25019000Y-9702000D02*
X25069000Y-9652000D01*
X25019000Y-9602000D01*
X24969000Y-9652000D01*
X25019000Y-9702000D01*
X25019000Y-9956000D02*
X25069000Y-9906000D01*
X25019000Y-9856000D01*
X24969000Y-9906000D01*
X25019000Y-9956000D01*
X25273000Y-8432000D02*
X25323000Y-8382000D01*
X25273000Y-8332000D01*
X25223000Y-8382000D01*
X25273000Y-8432000D01*
X25273000Y-8686000D02*
X25323000Y-8636000D01*
X25273000Y-8586000D01*
X25223000Y-8636000D01*
X25273000Y-8686000D01*
X25273000Y-9702000D02*
X25323000Y-9652000D01*
X25273000Y-9602000D01*
X25223000Y-9652000D01*
X25273000Y-9702000D01*
X25273000Y-9956000D02*
X25323000Y-9906000D01*
X25273000Y-9856000D01*
X25223000Y-9906000D01*
X25273000Y-9956000D01*
D11*
X20021372Y-18393389D02*
X20021372Y-18193389D01*
X20021372Y-18193389D02*
X20068991Y-18193389D01*
X20068991Y-18193389D02*
X20097562Y-18202913D01*
X20097562Y-18202913D02*
X20116610Y-18221960D01*
X20116610Y-18221960D02*
X20126134Y-18241008D01*
X20126134Y-18241008D02*
X20135658Y-18279103D01*
X20135658Y-18279103D02*
X20135658Y-18307675D01*
X20135658Y-18307675D02*
X20126134Y-18345770D01*
X20126134Y-18345770D02*
X20116610Y-18364817D01*
X20116610Y-18364817D02*
X20097562Y-18383865D01*
X20097562Y-18383865D02*
X20068991Y-18393389D01*
X20068991Y-18393389D02*
X20021372Y-18393389D01*
X20221372Y-18393389D02*
X20221372Y-18260055D01*
X20221372Y-18298151D02*
X20230896Y-18279103D01*
X20230896Y-18279103D02*
X20240419Y-18269579D01*
X20240419Y-18269579D02*
X20259467Y-18260055D01*
X20259467Y-18260055D02*
X20278515Y-18260055D01*
X20345181Y-18393389D02*
X20345181Y-18260055D01*
X20345181Y-18193389D02*
X20335658Y-18202913D01*
X20335658Y-18202913D02*
X20345181Y-18212436D01*
X20345181Y-18212436D02*
X20354705Y-18202913D01*
X20354705Y-18202913D02*
X20345181Y-18193389D01*
X20345181Y-18193389D02*
X20345181Y-18212436D01*
X20468991Y-18393389D02*
X20449943Y-18383865D01*
X20449943Y-18383865D02*
X20440419Y-18364817D01*
X20440419Y-18364817D02*
X20440419Y-18193389D01*
X20573753Y-18393389D02*
X20554705Y-18383865D01*
X20554705Y-18383865D02*
X20545181Y-18364817D01*
X20545181Y-18364817D02*
X20545181Y-18193389D01*
X20802324Y-18393389D02*
X20802324Y-18193389D01*
X20802324Y-18193389D02*
X20868991Y-18336246D01*
X20868991Y-18336246D02*
X20935658Y-18193389D01*
X20935658Y-18193389D02*
X20935658Y-18393389D01*
X21116610Y-18393389D02*
X21116610Y-18288627D01*
X21116610Y-18288627D02*
X21107086Y-18269579D01*
X21107086Y-18269579D02*
X21088039Y-18260055D01*
X21088039Y-18260055D02*
X21049943Y-18260055D01*
X21049943Y-18260055D02*
X21030896Y-18269579D01*
X21116610Y-18383865D02*
X21097562Y-18393389D01*
X21097562Y-18393389D02*
X21049943Y-18393389D01*
X21049943Y-18393389D02*
X21030896Y-18383865D01*
X21030896Y-18383865D02*
X21021372Y-18364817D01*
X21021372Y-18364817D02*
X21021372Y-18345770D01*
X21021372Y-18345770D02*
X21030896Y-18326722D01*
X21030896Y-18326722D02*
X21049943Y-18317198D01*
X21049943Y-18317198D02*
X21097562Y-18317198D01*
X21097562Y-18317198D02*
X21116610Y-18307675D01*
X21211848Y-18260055D02*
X21211848Y-18460055D01*
X21211848Y-18269579D02*
X21230896Y-18260055D01*
X21230896Y-18260055D02*
X21268991Y-18260055D01*
X21268991Y-18260055D02*
X21288039Y-18269579D01*
X21288039Y-18269579D02*
X21297562Y-18279103D01*
X21297562Y-18279103D02*
X21307086Y-18298151D01*
X21307086Y-18298151D02*
X21307086Y-18355294D01*
X21307086Y-18355294D02*
X21297562Y-18374341D01*
X21297562Y-18374341D02*
X21288039Y-18383865D01*
X21288039Y-18383865D02*
X21268991Y-18393389D01*
X21268991Y-18393389D02*
X21230896Y-18393389D01*
X21230896Y-18393389D02*
X21211848Y-18383865D01*
X21392800Y-18374341D02*
X21402324Y-18383865D01*
X21402324Y-18383865D02*
X21392800Y-18393389D01*
X21392800Y-18393389D02*
X21383277Y-18383865D01*
X21383277Y-18383865D02*
X21392800Y-18374341D01*
X21392800Y-18374341D02*
X21392800Y-18393389D01*
X21392800Y-18269579D02*
X21402324Y-18279103D01*
X21402324Y-18279103D02*
X21392800Y-18288627D01*
X21392800Y-18288627D02*
X21383277Y-18279103D01*
X21383277Y-18279103D02*
X21392800Y-18269579D01*
X21392800Y-18269579D02*
X21392800Y-18288627D01*
D12*
X19730595Y-18706905D02*
X19760595Y-18736905D01*
X19760595Y-18706905D02*
X19730595Y-18736905D01*
D11*
X20059467Y-18613389D02*
X20078515Y-18613389D01*
X20078515Y-18613389D02*
X20097562Y-18622913D01*
X20097562Y-18622913D02*
X20107086Y-18632436D01*
X20107086Y-18632436D02*
X20116610Y-18651484D01*
X20116610Y-18651484D02*
X20126134Y-18689579D01*
X20126134Y-18689579D02*
X20126134Y-18737198D01*
X20126134Y-18737198D02*
X20116610Y-18775294D01*
X20116610Y-18775294D02*
X20107086Y-18794341D01*
X20107086Y-18794341D02*
X20097562Y-18803865D01*
X20097562Y-18803865D02*
X20078515Y-18813389D01*
X20078515Y-18813389D02*
X20059467Y-18813389D01*
X20059467Y-18813389D02*
X20040419Y-18803865D01*
X20040419Y-18803865D02*
X20030896Y-18794341D01*
X20030896Y-18794341D02*
X20021372Y-18775294D01*
X20021372Y-18775294D02*
X20011848Y-18737198D01*
X20011848Y-18737198D02*
X20011848Y-18689579D01*
X20011848Y-18689579D02*
X20021372Y-18651484D01*
X20021372Y-18651484D02*
X20030896Y-18632436D01*
X20030896Y-18632436D02*
X20040419Y-18622913D01*
X20040419Y-18622913D02*
X20059467Y-18613389D01*
X20211848Y-18794341D02*
X20221372Y-18803865D01*
X20221372Y-18803865D02*
X20211848Y-18813389D01*
X20211848Y-18813389D02*
X20202324Y-18803865D01*
X20202324Y-18803865D02*
X20211848Y-18794341D01*
X20211848Y-18794341D02*
X20211848Y-18813389D01*
X20288039Y-18613389D02*
X20411848Y-18613389D01*
X20411848Y-18613389D02*
X20345181Y-18689579D01*
X20345181Y-18689579D02*
X20373753Y-18689579D01*
X20373753Y-18689579D02*
X20392800Y-18699103D01*
X20392800Y-18699103D02*
X20402324Y-18708627D01*
X20402324Y-18708627D02*
X20411848Y-18727675D01*
X20411848Y-18727675D02*
X20411848Y-18775294D01*
X20411848Y-18775294D02*
X20402324Y-18794341D01*
X20402324Y-18794341D02*
X20392800Y-18803865D01*
X20392800Y-18803865D02*
X20373753Y-18813389D01*
X20373753Y-18813389D02*
X20316610Y-18813389D01*
X20316610Y-18813389D02*
X20297562Y-18803865D01*
X20297562Y-18803865D02*
X20288039Y-18794341D01*
X20535658Y-18613389D02*
X20554705Y-18613389D01*
X20554705Y-18613389D02*
X20573753Y-18622913D01*
X20573753Y-18622913D02*
X20583277Y-18632436D01*
X20583277Y-18632436D02*
X20592800Y-18651484D01*
X20592800Y-18651484D02*
X20602324Y-18689579D01*
X20602324Y-18689579D02*
X20602324Y-18737198D01*
X20602324Y-18737198D02*
X20592800Y-18775294D01*
X20592800Y-18775294D02*
X20583277Y-18794341D01*
X20583277Y-18794341D02*
X20573753Y-18803865D01*
X20573753Y-18803865D02*
X20554705Y-18813389D01*
X20554705Y-18813389D02*
X20535658Y-18813389D01*
X20535658Y-18813389D02*
X20516610Y-18803865D01*
X20516610Y-18803865D02*
X20507086Y-18794341D01*
X20507086Y-18794341D02*
X20497562Y-18775294D01*
X20497562Y-18775294D02*
X20488039Y-18737198D01*
X20488039Y-18737198D02*
X20488039Y-18689579D01*
X20488039Y-18689579D02*
X20497562Y-18651484D01*
X20497562Y-18651484D02*
X20507086Y-18632436D01*
X20507086Y-18632436D02*
X20516610Y-18622913D01*
X20516610Y-18622913D02*
X20535658Y-18613389D01*
X20726134Y-18613389D02*
X20745181Y-18613389D01*
X20745181Y-18613389D02*
X20764229Y-18622913D01*
X20764229Y-18622913D02*
X20773753Y-18632436D01*
X20773753Y-18632436D02*
X20783277Y-18651484D01*
X20783277Y-18651484D02*
X20792800Y-18689579D01*
X20792800Y-18689579D02*
X20792800Y-18737198D01*
X20792800Y-18737198D02*
X20783277Y-18775294D01*
X20783277Y-18775294D02*
X20773753Y-18794341D01*
X20773753Y-18794341D02*
X20764229Y-18803865D01*
X20764229Y-18803865D02*
X20745181Y-18813389D01*
X20745181Y-18813389D02*
X20726134Y-18813389D01*
X20726134Y-18813389D02*
X20707086Y-18803865D01*
X20707086Y-18803865D02*
X20697562Y-18794341D01*
X20697562Y-18794341D02*
X20688039Y-18775294D01*
X20688039Y-18775294D02*
X20678515Y-18737198D01*
X20678515Y-18737198D02*
X20678515Y-18689579D01*
X20678515Y-18689579D02*
X20688039Y-18651484D01*
X20688039Y-18651484D02*
X20697562Y-18632436D01*
X20697562Y-18632436D02*
X20707086Y-18622913D01*
X20707086Y-18622913D02*
X20726134Y-18613389D01*
X20878515Y-18813389D02*
X20878515Y-18680055D01*
X20878515Y-18699103D02*
X20888039Y-18689579D01*
X20888039Y-18689579D02*
X20907086Y-18680055D01*
X20907086Y-18680055D02*
X20935658Y-18680055D01*
X20935658Y-18680055D02*
X20954705Y-18689579D01*
X20954705Y-18689579D02*
X20964229Y-18708627D01*
X20964229Y-18708627D02*
X20964229Y-18813389D01*
X20964229Y-18708627D02*
X20973753Y-18689579D01*
X20973753Y-18689579D02*
X20992800Y-18680055D01*
X20992800Y-18680055D02*
X21021372Y-18680055D01*
X21021372Y-18680055D02*
X21040420Y-18689579D01*
X21040420Y-18689579D02*
X21049943Y-18708627D01*
X21049943Y-18708627D02*
X21049943Y-18813389D01*
X21145181Y-18813389D02*
X21145181Y-18680055D01*
X21145181Y-18699103D02*
X21154705Y-18689579D01*
X21154705Y-18689579D02*
X21173753Y-18680055D01*
X21173753Y-18680055D02*
X21202324Y-18680055D01*
X21202324Y-18680055D02*
X21221372Y-18689579D01*
X21221372Y-18689579D02*
X21230896Y-18708627D01*
X21230896Y-18708627D02*
X21230896Y-18813389D01*
X21230896Y-18708627D02*
X21240420Y-18689579D01*
X21240420Y-18689579D02*
X21259467Y-18680055D01*
X21259467Y-18680055D02*
X21288039Y-18680055D01*
X21288039Y-18680055D02*
X21307086Y-18689579D01*
X21307086Y-18689579D02*
X21316610Y-18708627D01*
X21316610Y-18708627D02*
X21316610Y-18813389D01*
X21707086Y-18603865D02*
X21535658Y-18861008D01*
X21964229Y-18613389D02*
X21983277Y-18613389D01*
X21983277Y-18613389D02*
X22002324Y-18622913D01*
X22002324Y-18622913D02*
X22011848Y-18632436D01*
X22011848Y-18632436D02*
X22021372Y-18651484D01*
X22021372Y-18651484D02*
X22030896Y-18689579D01*
X22030896Y-18689579D02*
X22030896Y-18737198D01*
X22030896Y-18737198D02*
X22021372Y-18775294D01*
X22021372Y-18775294D02*
X22011848Y-18794341D01*
X22011848Y-18794341D02*
X22002324Y-18803865D01*
X22002324Y-18803865D02*
X21983277Y-18813389D01*
X21983277Y-18813389D02*
X21964229Y-18813389D01*
X21964229Y-18813389D02*
X21945182Y-18803865D01*
X21945182Y-18803865D02*
X21935658Y-18794341D01*
X21935658Y-18794341D02*
X21926134Y-18775294D01*
X21926134Y-18775294D02*
X21916610Y-18737198D01*
X21916610Y-18737198D02*
X21916610Y-18689579D01*
X21916610Y-18689579D02*
X21926134Y-18651484D01*
X21926134Y-18651484D02*
X21935658Y-18632436D01*
X21935658Y-18632436D02*
X21945182Y-18622913D01*
X21945182Y-18622913D02*
X21964229Y-18613389D01*
X22116610Y-18794341D02*
X22126134Y-18803865D01*
X22126134Y-18803865D02*
X22116610Y-18813389D01*
X22116610Y-18813389D02*
X22107086Y-18803865D01*
X22107086Y-18803865D02*
X22116610Y-18794341D01*
X22116610Y-18794341D02*
X22116610Y-18813389D01*
X22249943Y-18613389D02*
X22268991Y-18613389D01*
X22268991Y-18613389D02*
X22288039Y-18622913D01*
X22288039Y-18622913D02*
X22297563Y-18632436D01*
X22297563Y-18632436D02*
X22307086Y-18651484D01*
X22307086Y-18651484D02*
X22316610Y-18689579D01*
X22316610Y-18689579D02*
X22316610Y-18737198D01*
X22316610Y-18737198D02*
X22307086Y-18775294D01*
X22307086Y-18775294D02*
X22297563Y-18794341D01*
X22297563Y-18794341D02*
X22288039Y-18803865D01*
X22288039Y-18803865D02*
X22268991Y-18813389D01*
X22268991Y-18813389D02*
X22249943Y-18813389D01*
X22249943Y-18813389D02*
X22230896Y-18803865D01*
X22230896Y-18803865D02*
X22221372Y-18794341D01*
X22221372Y-18794341D02*
X22211848Y-18775294D01*
X22211848Y-18775294D02*
X22202324Y-18737198D01*
X22202324Y-18737198D02*
X22202324Y-18689579D01*
X22202324Y-18689579D02*
X22211848Y-18651484D01*
X22211848Y-18651484D02*
X22221372Y-18632436D01*
X22221372Y-18632436D02*
X22230896Y-18622913D01*
X22230896Y-18622913D02*
X22249943Y-18613389D01*
X22507086Y-18813389D02*
X22392801Y-18813389D01*
X22449943Y-18813389D02*
X22449943Y-18613389D01*
X22449943Y-18613389D02*
X22430896Y-18641960D01*
X22430896Y-18641960D02*
X22411848Y-18661008D01*
X22411848Y-18661008D02*
X22392801Y-18670532D01*
X22697562Y-18813389D02*
X22583277Y-18813389D01*
X22640420Y-18813389D02*
X22640420Y-18613389D01*
X22640420Y-18613389D02*
X22621372Y-18641960D01*
X22621372Y-18641960D02*
X22602324Y-18661008D01*
X22602324Y-18661008D02*
X22583277Y-18670532D01*
X22811848Y-18699103D02*
X22792801Y-18689579D01*
X22792801Y-18689579D02*
X22783277Y-18680055D01*
X22783277Y-18680055D02*
X22773753Y-18661008D01*
X22773753Y-18661008D02*
X22773753Y-18651484D01*
X22773753Y-18651484D02*
X22783277Y-18632436D01*
X22783277Y-18632436D02*
X22792801Y-18622913D01*
X22792801Y-18622913D02*
X22811848Y-18613389D01*
X22811848Y-18613389D02*
X22849943Y-18613389D01*
X22849943Y-18613389D02*
X22868991Y-18622913D01*
X22868991Y-18622913D02*
X22878515Y-18632436D01*
X22878515Y-18632436D02*
X22888039Y-18651484D01*
X22888039Y-18651484D02*
X22888039Y-18661008D01*
X22888039Y-18661008D02*
X22878515Y-18680055D01*
X22878515Y-18680055D02*
X22868991Y-18689579D01*
X22868991Y-18689579D02*
X22849943Y-18699103D01*
X22849943Y-18699103D02*
X22811848Y-18699103D01*
X22811848Y-18699103D02*
X22792801Y-18708627D01*
X22792801Y-18708627D02*
X22783277Y-18718151D01*
X22783277Y-18718151D02*
X22773753Y-18737198D01*
X22773753Y-18737198D02*
X22773753Y-18775294D01*
X22773753Y-18775294D02*
X22783277Y-18794341D01*
X22783277Y-18794341D02*
X22792801Y-18803865D01*
X22792801Y-18803865D02*
X22811848Y-18813389D01*
X22811848Y-18813389D02*
X22849943Y-18813389D01*
X22849943Y-18813389D02*
X22868991Y-18803865D01*
X22868991Y-18803865D02*
X22878515Y-18794341D01*
X22878515Y-18794341D02*
X22888039Y-18775294D01*
X22888039Y-18775294D02*
X22888039Y-18737198D01*
X22888039Y-18737198D02*
X22878515Y-18718151D01*
X22878515Y-18718151D02*
X22868991Y-18708627D01*
X22868991Y-18708627D02*
X22849943Y-18699103D01*
X22964229Y-18613389D02*
X22964229Y-18651484D01*
X23040420Y-18613389D02*
X23040420Y-18651484D01*
X23335658Y-18889579D02*
X23326134Y-18880055D01*
X23326134Y-18880055D02*
X23307086Y-18851484D01*
X23307086Y-18851484D02*
X23297563Y-18832436D01*
X23297563Y-18832436D02*
X23288039Y-18803865D01*
X23288039Y-18803865D02*
X23278515Y-18756246D01*
X23278515Y-18756246D02*
X23278515Y-18718151D01*
X23278515Y-18718151D02*
X23288039Y-18670532D01*
X23288039Y-18670532D02*
X23297563Y-18641960D01*
X23297563Y-18641960D02*
X23307086Y-18622913D01*
X23307086Y-18622913D02*
X23326134Y-18594341D01*
X23326134Y-18594341D02*
X23335658Y-18584817D01*
X23440420Y-18699103D02*
X23421372Y-18689579D01*
X23421372Y-18689579D02*
X23411848Y-18680055D01*
X23411848Y-18680055D02*
X23402324Y-18661008D01*
X23402324Y-18661008D02*
X23402324Y-18651484D01*
X23402324Y-18651484D02*
X23411848Y-18632436D01*
X23411848Y-18632436D02*
X23421372Y-18622913D01*
X23421372Y-18622913D02*
X23440420Y-18613389D01*
X23440420Y-18613389D02*
X23478515Y-18613389D01*
X23478515Y-18613389D02*
X23497563Y-18622913D01*
X23497563Y-18622913D02*
X23507086Y-18632436D01*
X23507086Y-18632436D02*
X23516610Y-18651484D01*
X23516610Y-18651484D02*
X23516610Y-18661008D01*
X23516610Y-18661008D02*
X23507086Y-18680055D01*
X23507086Y-18680055D02*
X23497563Y-18689579D01*
X23497563Y-18689579D02*
X23478515Y-18699103D01*
X23478515Y-18699103D02*
X23440420Y-18699103D01*
X23440420Y-18699103D02*
X23421372Y-18708627D01*
X23421372Y-18708627D02*
X23411848Y-18718151D01*
X23411848Y-18718151D02*
X23402324Y-18737198D01*
X23402324Y-18737198D02*
X23402324Y-18775294D01*
X23402324Y-18775294D02*
X23411848Y-18794341D01*
X23411848Y-18794341D02*
X23421372Y-18803865D01*
X23421372Y-18803865D02*
X23440420Y-18813389D01*
X23440420Y-18813389D02*
X23478515Y-18813389D01*
X23478515Y-18813389D02*
X23497563Y-18803865D01*
X23497563Y-18803865D02*
X23507086Y-18794341D01*
X23507086Y-18794341D02*
X23516610Y-18775294D01*
X23516610Y-18775294D02*
X23516610Y-18737198D01*
X23516610Y-18737198D02*
X23507086Y-18718151D01*
X23507086Y-18718151D02*
X23497563Y-18708627D01*
X23497563Y-18708627D02*
X23478515Y-18699103D01*
X23754705Y-18813389D02*
X23754705Y-18613389D01*
X23840420Y-18813389D02*
X23840420Y-18708627D01*
X23840420Y-18708627D02*
X23830896Y-18689579D01*
X23830896Y-18689579D02*
X23811848Y-18680055D01*
X23811848Y-18680055D02*
X23783277Y-18680055D01*
X23783277Y-18680055D02*
X23764229Y-18689579D01*
X23764229Y-18689579D02*
X23754705Y-18699103D01*
X23964229Y-18813389D02*
X23945182Y-18803865D01*
X23945182Y-18803865D02*
X23935658Y-18794341D01*
X23935658Y-18794341D02*
X23926134Y-18775294D01*
X23926134Y-18775294D02*
X23926134Y-18718151D01*
X23926134Y-18718151D02*
X23935658Y-18699103D01*
X23935658Y-18699103D02*
X23945182Y-18689579D01*
X23945182Y-18689579D02*
X23964229Y-18680055D01*
X23964229Y-18680055D02*
X23992801Y-18680055D01*
X23992801Y-18680055D02*
X24011848Y-18689579D01*
X24011848Y-18689579D02*
X24021372Y-18699103D01*
X24021372Y-18699103D02*
X24030896Y-18718151D01*
X24030896Y-18718151D02*
X24030896Y-18775294D01*
X24030896Y-18775294D02*
X24021372Y-18794341D01*
X24021372Y-18794341D02*
X24011848Y-18803865D01*
X24011848Y-18803865D02*
X23992801Y-18813389D01*
X23992801Y-18813389D02*
X23964229Y-18813389D01*
X24145182Y-18813389D02*
X24126134Y-18803865D01*
X24126134Y-18803865D02*
X24116610Y-18784817D01*
X24116610Y-18784817D02*
X24116610Y-18613389D01*
X24297563Y-18803865D02*
X24278515Y-18813389D01*
X24278515Y-18813389D02*
X24240420Y-18813389D01*
X24240420Y-18813389D02*
X24221372Y-18803865D01*
X24221372Y-18803865D02*
X24211848Y-18784817D01*
X24211848Y-18784817D02*
X24211848Y-18708627D01*
X24211848Y-18708627D02*
X24221372Y-18689579D01*
X24221372Y-18689579D02*
X24240420Y-18680055D01*
X24240420Y-18680055D02*
X24278515Y-18680055D01*
X24278515Y-18680055D02*
X24297563Y-18689579D01*
X24297563Y-18689579D02*
X24307086Y-18708627D01*
X24307086Y-18708627D02*
X24307086Y-18727675D01*
X24307086Y-18727675D02*
X24211848Y-18746722D01*
X24383277Y-18803865D02*
X24402325Y-18813389D01*
X24402325Y-18813389D02*
X24440420Y-18813389D01*
X24440420Y-18813389D02*
X24459467Y-18803865D01*
X24459467Y-18803865D02*
X24468991Y-18784817D01*
X24468991Y-18784817D02*
X24468991Y-18775294D01*
X24468991Y-18775294D02*
X24459467Y-18756246D01*
X24459467Y-18756246D02*
X24440420Y-18746722D01*
X24440420Y-18746722D02*
X24411848Y-18746722D01*
X24411848Y-18746722D02*
X24392801Y-18737198D01*
X24392801Y-18737198D02*
X24383277Y-18718151D01*
X24383277Y-18718151D02*
X24383277Y-18708627D01*
X24383277Y-18708627D02*
X24392801Y-18689579D01*
X24392801Y-18689579D02*
X24411848Y-18680055D01*
X24411848Y-18680055D02*
X24440420Y-18680055D01*
X24440420Y-18680055D02*
X24459467Y-18689579D01*
X24535658Y-18889579D02*
X24545182Y-18880055D01*
X24545182Y-18880055D02*
X24564229Y-18851484D01*
X24564229Y-18851484D02*
X24573753Y-18832436D01*
X24573753Y-18832436D02*
X24583277Y-18803865D01*
X24583277Y-18803865D02*
X24592801Y-18756246D01*
X24592801Y-18756246D02*
X24592801Y-18718151D01*
X24592801Y-18718151D02*
X24583277Y-18670532D01*
X24583277Y-18670532D02*
X24573753Y-18641960D01*
X24573753Y-18641960D02*
X24564229Y-18622913D01*
X24564229Y-18622913D02*
X24545182Y-18594341D01*
X24545182Y-18594341D02*
X24535658Y-18584817D01*
D12*
X19760595Y-18985905D02*
G75*
G02*
X19684395Y-18985905I-38100J0D01*
G01*
X19684395Y-18985905D02*
G75*
G02*
X19760595Y-18985905I38100J0D01*
G01*
D11*
X20059467Y-18877389D02*
X20078515Y-18877389D01*
X20078515Y-18877389D02*
X20097562Y-18886913D01*
X20097562Y-18886913D02*
X20107086Y-18896436D01*
X20107086Y-18896436D02*
X20116610Y-18915484D01*
X20116610Y-18915484D02*
X20126134Y-18953579D01*
X20126134Y-18953579D02*
X20126134Y-19001198D01*
X20126134Y-19001198D02*
X20116610Y-19039294D01*
X20116610Y-19039294D02*
X20107086Y-19058341D01*
X20107086Y-19058341D02*
X20097562Y-19067865D01*
X20097562Y-19067865D02*
X20078515Y-19077389D01*
X20078515Y-19077389D02*
X20059467Y-19077389D01*
X20059467Y-19077389D02*
X20040419Y-19067865D01*
X20040419Y-19067865D02*
X20030896Y-19058341D01*
X20030896Y-19058341D02*
X20021372Y-19039294D01*
X20021372Y-19039294D02*
X20011848Y-19001198D01*
X20011848Y-19001198D02*
X20011848Y-18953579D01*
X20011848Y-18953579D02*
X20021372Y-18915484D01*
X20021372Y-18915484D02*
X20030896Y-18896436D01*
X20030896Y-18896436D02*
X20040419Y-18886913D01*
X20040419Y-18886913D02*
X20059467Y-18877389D01*
X20211848Y-19058341D02*
X20221372Y-19067865D01*
X20221372Y-19067865D02*
X20211848Y-19077389D01*
X20211848Y-19077389D02*
X20202324Y-19067865D01*
X20202324Y-19067865D02*
X20211848Y-19058341D01*
X20211848Y-19058341D02*
X20211848Y-19077389D01*
X20288039Y-18877389D02*
X20421372Y-18877389D01*
X20421372Y-18877389D02*
X20335658Y-19077389D01*
X20583277Y-18877389D02*
X20545181Y-18877389D01*
X20545181Y-18877389D02*
X20526134Y-18886913D01*
X20526134Y-18886913D02*
X20516610Y-18896436D01*
X20516610Y-18896436D02*
X20497562Y-18925008D01*
X20497562Y-18925008D02*
X20488039Y-18963103D01*
X20488039Y-18963103D02*
X20488039Y-19039294D01*
X20488039Y-19039294D02*
X20497562Y-19058341D01*
X20497562Y-19058341D02*
X20507086Y-19067865D01*
X20507086Y-19067865D02*
X20526134Y-19077389D01*
X20526134Y-19077389D02*
X20564229Y-19077389D01*
X20564229Y-19077389D02*
X20583277Y-19067865D01*
X20583277Y-19067865D02*
X20592800Y-19058341D01*
X20592800Y-19058341D02*
X20602324Y-19039294D01*
X20602324Y-19039294D02*
X20602324Y-18991675D01*
X20602324Y-18991675D02*
X20592800Y-18972627D01*
X20592800Y-18972627D02*
X20583277Y-18963103D01*
X20583277Y-18963103D02*
X20564229Y-18953579D01*
X20564229Y-18953579D02*
X20526134Y-18953579D01*
X20526134Y-18953579D02*
X20507086Y-18963103D01*
X20507086Y-18963103D02*
X20497562Y-18972627D01*
X20497562Y-18972627D02*
X20488039Y-18991675D01*
X20678515Y-18896436D02*
X20688039Y-18886913D01*
X20688039Y-18886913D02*
X20707086Y-18877389D01*
X20707086Y-18877389D02*
X20754705Y-18877389D01*
X20754705Y-18877389D02*
X20773753Y-18886913D01*
X20773753Y-18886913D02*
X20783277Y-18896436D01*
X20783277Y-18896436D02*
X20792800Y-18915484D01*
X20792800Y-18915484D02*
X20792800Y-18934532D01*
X20792800Y-18934532D02*
X20783277Y-18963103D01*
X20783277Y-18963103D02*
X20668991Y-19077389D01*
X20668991Y-19077389D02*
X20792800Y-19077389D01*
X20878515Y-19077389D02*
X20878515Y-18944055D01*
X20878515Y-18963103D02*
X20888039Y-18953579D01*
X20888039Y-18953579D02*
X20907086Y-18944055D01*
X20907086Y-18944055D02*
X20935658Y-18944055D01*
X20935658Y-18944055D02*
X20954705Y-18953579D01*
X20954705Y-18953579D02*
X20964229Y-18972627D01*
X20964229Y-18972627D02*
X20964229Y-19077389D01*
X20964229Y-18972627D02*
X20973753Y-18953579D01*
X20973753Y-18953579D02*
X20992800Y-18944055D01*
X20992800Y-18944055D02*
X21021372Y-18944055D01*
X21021372Y-18944055D02*
X21040420Y-18953579D01*
X21040420Y-18953579D02*
X21049943Y-18972627D01*
X21049943Y-18972627D02*
X21049943Y-19077389D01*
X21145181Y-19077389D02*
X21145181Y-18944055D01*
X21145181Y-18963103D02*
X21154705Y-18953579D01*
X21154705Y-18953579D02*
X21173753Y-18944055D01*
X21173753Y-18944055D02*
X21202324Y-18944055D01*
X21202324Y-18944055D02*
X21221372Y-18953579D01*
X21221372Y-18953579D02*
X21230896Y-18972627D01*
X21230896Y-18972627D02*
X21230896Y-19077389D01*
X21230896Y-18972627D02*
X21240420Y-18953579D01*
X21240420Y-18953579D02*
X21259467Y-18944055D01*
X21259467Y-18944055D02*
X21288039Y-18944055D01*
X21288039Y-18944055D02*
X21307086Y-18953579D01*
X21307086Y-18953579D02*
X21316610Y-18972627D01*
X21316610Y-18972627D02*
X21316610Y-19077389D01*
X21707086Y-18867865D02*
X21535658Y-19125008D01*
X21964229Y-18877389D02*
X21983277Y-18877389D01*
X21983277Y-18877389D02*
X22002324Y-18886913D01*
X22002324Y-18886913D02*
X22011848Y-18896436D01*
X22011848Y-18896436D02*
X22021372Y-18915484D01*
X22021372Y-18915484D02*
X22030896Y-18953579D01*
X22030896Y-18953579D02*
X22030896Y-19001198D01*
X22030896Y-19001198D02*
X22021372Y-19039294D01*
X22021372Y-19039294D02*
X22011848Y-19058341D01*
X22011848Y-19058341D02*
X22002324Y-19067865D01*
X22002324Y-19067865D02*
X21983277Y-19077389D01*
X21983277Y-19077389D02*
X21964229Y-19077389D01*
X21964229Y-19077389D02*
X21945182Y-19067865D01*
X21945182Y-19067865D02*
X21935658Y-19058341D01*
X21935658Y-19058341D02*
X21926134Y-19039294D01*
X21926134Y-19039294D02*
X21916610Y-19001198D01*
X21916610Y-19001198D02*
X21916610Y-18953579D01*
X21916610Y-18953579D02*
X21926134Y-18915484D01*
X21926134Y-18915484D02*
X21935658Y-18896436D01*
X21935658Y-18896436D02*
X21945182Y-18886913D01*
X21945182Y-18886913D02*
X21964229Y-18877389D01*
X22116610Y-19058341D02*
X22126134Y-19067865D01*
X22126134Y-19067865D02*
X22116610Y-19077389D01*
X22116610Y-19077389D02*
X22107086Y-19067865D01*
X22107086Y-19067865D02*
X22116610Y-19058341D01*
X22116610Y-19058341D02*
X22116610Y-19077389D01*
X22249943Y-18877389D02*
X22268991Y-18877389D01*
X22268991Y-18877389D02*
X22288039Y-18886913D01*
X22288039Y-18886913D02*
X22297563Y-18896436D01*
X22297563Y-18896436D02*
X22307086Y-18915484D01*
X22307086Y-18915484D02*
X22316610Y-18953579D01*
X22316610Y-18953579D02*
X22316610Y-19001198D01*
X22316610Y-19001198D02*
X22307086Y-19039294D01*
X22307086Y-19039294D02*
X22297563Y-19058341D01*
X22297563Y-19058341D02*
X22288039Y-19067865D01*
X22288039Y-19067865D02*
X22268991Y-19077389D01*
X22268991Y-19077389D02*
X22249943Y-19077389D01*
X22249943Y-19077389D02*
X22230896Y-19067865D01*
X22230896Y-19067865D02*
X22221372Y-19058341D01*
X22221372Y-19058341D02*
X22211848Y-19039294D01*
X22211848Y-19039294D02*
X22202324Y-19001198D01*
X22202324Y-19001198D02*
X22202324Y-18953579D01*
X22202324Y-18953579D02*
X22211848Y-18915484D01*
X22211848Y-18915484D02*
X22221372Y-18896436D01*
X22221372Y-18896436D02*
X22230896Y-18886913D01*
X22230896Y-18886913D02*
X22249943Y-18877389D01*
X22383277Y-18877389D02*
X22507086Y-18877389D01*
X22507086Y-18877389D02*
X22440420Y-18953579D01*
X22440420Y-18953579D02*
X22468991Y-18953579D01*
X22468991Y-18953579D02*
X22488039Y-18963103D01*
X22488039Y-18963103D02*
X22497562Y-18972627D01*
X22497562Y-18972627D02*
X22507086Y-18991675D01*
X22507086Y-18991675D02*
X22507086Y-19039294D01*
X22507086Y-19039294D02*
X22497562Y-19058341D01*
X22497562Y-19058341D02*
X22488039Y-19067865D01*
X22488039Y-19067865D02*
X22468991Y-19077389D01*
X22468991Y-19077389D02*
X22411848Y-19077389D01*
X22411848Y-19077389D02*
X22392801Y-19067865D01*
X22392801Y-19067865D02*
X22383277Y-19058341D01*
X22630896Y-18877389D02*
X22649943Y-18877389D01*
X22649943Y-18877389D02*
X22668991Y-18886913D01*
X22668991Y-18886913D02*
X22678515Y-18896436D01*
X22678515Y-18896436D02*
X22688039Y-18915484D01*
X22688039Y-18915484D02*
X22697562Y-18953579D01*
X22697562Y-18953579D02*
X22697562Y-19001198D01*
X22697562Y-19001198D02*
X22688039Y-19039294D01*
X22688039Y-19039294D02*
X22678515Y-19058341D01*
X22678515Y-19058341D02*
X22668991Y-19067865D01*
X22668991Y-19067865D02*
X22649943Y-19077389D01*
X22649943Y-19077389D02*
X22630896Y-19077389D01*
X22630896Y-19077389D02*
X22611848Y-19067865D01*
X22611848Y-19067865D02*
X22602324Y-19058341D01*
X22602324Y-19058341D02*
X22592801Y-19039294D01*
X22592801Y-19039294D02*
X22583277Y-19001198D01*
X22583277Y-19001198D02*
X22583277Y-18953579D01*
X22583277Y-18953579D02*
X22592801Y-18915484D01*
X22592801Y-18915484D02*
X22602324Y-18896436D01*
X22602324Y-18896436D02*
X22611848Y-18886913D01*
X22611848Y-18886913D02*
X22630896Y-18877389D01*
X22821372Y-18877389D02*
X22840420Y-18877389D01*
X22840420Y-18877389D02*
X22859467Y-18886913D01*
X22859467Y-18886913D02*
X22868991Y-18896436D01*
X22868991Y-18896436D02*
X22878515Y-18915484D01*
X22878515Y-18915484D02*
X22888039Y-18953579D01*
X22888039Y-18953579D02*
X22888039Y-19001198D01*
X22888039Y-19001198D02*
X22878515Y-19039294D01*
X22878515Y-19039294D02*
X22868991Y-19058341D01*
X22868991Y-19058341D02*
X22859467Y-19067865D01*
X22859467Y-19067865D02*
X22840420Y-19077389D01*
X22840420Y-19077389D02*
X22821372Y-19077389D01*
X22821372Y-19077389D02*
X22802324Y-19067865D01*
X22802324Y-19067865D02*
X22792801Y-19058341D01*
X22792801Y-19058341D02*
X22783277Y-19039294D01*
X22783277Y-19039294D02*
X22773753Y-19001198D01*
X22773753Y-19001198D02*
X22773753Y-18953579D01*
X22773753Y-18953579D02*
X22783277Y-18915484D01*
X22783277Y-18915484D02*
X22792801Y-18896436D01*
X22792801Y-18896436D02*
X22802324Y-18886913D01*
X22802324Y-18886913D02*
X22821372Y-18877389D01*
X22964229Y-18877389D02*
X22964229Y-18915484D01*
X23040420Y-18877389D02*
X23040420Y-18915484D01*
X23335658Y-19153579D02*
X23326134Y-19144055D01*
X23326134Y-19144055D02*
X23307086Y-19115484D01*
X23307086Y-19115484D02*
X23297563Y-19096436D01*
X23297563Y-19096436D02*
X23288039Y-19067865D01*
X23288039Y-19067865D02*
X23278515Y-19020246D01*
X23278515Y-19020246D02*
X23278515Y-18982151D01*
X23278515Y-18982151D02*
X23288039Y-18934532D01*
X23288039Y-18934532D02*
X23297563Y-18905960D01*
X23297563Y-18905960D02*
X23307086Y-18886913D01*
X23307086Y-18886913D02*
X23326134Y-18858341D01*
X23326134Y-18858341D02*
X23335658Y-18848817D01*
X23516610Y-19077389D02*
X23402324Y-19077389D01*
X23459467Y-19077389D02*
X23459467Y-18877389D01*
X23459467Y-18877389D02*
X23440420Y-18905960D01*
X23440420Y-18905960D02*
X23421372Y-18925008D01*
X23421372Y-18925008D02*
X23402324Y-18934532D01*
X23592801Y-18896436D02*
X23602324Y-18886913D01*
X23602324Y-18886913D02*
X23621372Y-18877389D01*
X23621372Y-18877389D02*
X23668991Y-18877389D01*
X23668991Y-18877389D02*
X23688039Y-18886913D01*
X23688039Y-18886913D02*
X23697563Y-18896436D01*
X23697563Y-18896436D02*
X23707086Y-18915484D01*
X23707086Y-18915484D02*
X23707086Y-18934532D01*
X23707086Y-18934532D02*
X23697563Y-18963103D01*
X23697563Y-18963103D02*
X23583277Y-19077389D01*
X23583277Y-19077389D02*
X23707086Y-19077389D01*
X23945182Y-19077389D02*
X23945182Y-18877389D01*
X24030896Y-19077389D02*
X24030896Y-18972627D01*
X24030896Y-18972627D02*
X24021372Y-18953579D01*
X24021372Y-18953579D02*
X24002325Y-18944055D01*
X24002325Y-18944055D02*
X23973753Y-18944055D01*
X23973753Y-18944055D02*
X23954705Y-18953579D01*
X23954705Y-18953579D02*
X23945182Y-18963103D01*
X24154705Y-19077389D02*
X24135658Y-19067865D01*
X24135658Y-19067865D02*
X24126134Y-19058341D01*
X24126134Y-19058341D02*
X24116610Y-19039294D01*
X24116610Y-19039294D02*
X24116610Y-18982151D01*
X24116610Y-18982151D02*
X24126134Y-18963103D01*
X24126134Y-18963103D02*
X24135658Y-18953579D01*
X24135658Y-18953579D02*
X24154705Y-18944055D01*
X24154705Y-18944055D02*
X24183277Y-18944055D01*
X24183277Y-18944055D02*
X24202325Y-18953579D01*
X24202325Y-18953579D02*
X24211848Y-18963103D01*
X24211848Y-18963103D02*
X24221372Y-18982151D01*
X24221372Y-18982151D02*
X24221372Y-19039294D01*
X24221372Y-19039294D02*
X24211848Y-19058341D01*
X24211848Y-19058341D02*
X24202325Y-19067865D01*
X24202325Y-19067865D02*
X24183277Y-19077389D01*
X24183277Y-19077389D02*
X24154705Y-19077389D01*
X24335658Y-19077389D02*
X24316610Y-19067865D01*
X24316610Y-19067865D02*
X24307086Y-19048817D01*
X24307086Y-19048817D02*
X24307086Y-18877389D01*
X24488039Y-19067865D02*
X24468991Y-19077389D01*
X24468991Y-19077389D02*
X24430896Y-19077389D01*
X24430896Y-19077389D02*
X24411848Y-19067865D01*
X24411848Y-19067865D02*
X24402325Y-19048817D01*
X24402325Y-19048817D02*
X24402325Y-18972627D01*
X24402325Y-18972627D02*
X24411848Y-18953579D01*
X24411848Y-18953579D02*
X24430896Y-18944055D01*
X24430896Y-18944055D02*
X24468991Y-18944055D01*
X24468991Y-18944055D02*
X24488039Y-18953579D01*
X24488039Y-18953579D02*
X24497563Y-18972627D01*
X24497563Y-18972627D02*
X24497563Y-18991675D01*
X24497563Y-18991675D02*
X24402325Y-19010722D01*
X24573753Y-19067865D02*
X24592801Y-19077389D01*
X24592801Y-19077389D02*
X24630896Y-19077389D01*
X24630896Y-19077389D02*
X24649944Y-19067865D01*
X24649944Y-19067865D02*
X24659467Y-19048817D01*
X24659467Y-19048817D02*
X24659467Y-19039294D01*
X24659467Y-19039294D02*
X24649944Y-19020246D01*
X24649944Y-19020246D02*
X24630896Y-19010722D01*
X24630896Y-19010722D02*
X24602325Y-19010722D01*
X24602325Y-19010722D02*
X24583277Y-19001198D01*
X24583277Y-19001198D02*
X24573753Y-18982151D01*
X24573753Y-18982151D02*
X24573753Y-18972627D01*
X24573753Y-18972627D02*
X24583277Y-18953579D01*
X24583277Y-18953579D02*
X24602325Y-18944055D01*
X24602325Y-18944055D02*
X24630896Y-18944055D01*
X24630896Y-18944055D02*
X24649944Y-18953579D01*
X24726134Y-19153579D02*
X24735658Y-19144055D01*
X24735658Y-19144055D02*
X24754706Y-19115484D01*
X24754706Y-19115484D02*
X24764229Y-19096436D01*
X24764229Y-19096436D02*
X24773753Y-19067865D01*
X24773753Y-19067865D02*
X24783277Y-19020246D01*
X24783277Y-19020246D02*
X24783277Y-18982151D01*
X24783277Y-18982151D02*
X24773753Y-18934532D01*
X24773753Y-18934532D02*
X24764229Y-18905960D01*
X24764229Y-18905960D02*
X24754706Y-18886913D01*
X24754706Y-18886913D02*
X24735658Y-18858341D01*
X24735658Y-18858341D02*
X24726134Y-18848817D01*
D12*
X19720595Y-19209905D02*
X19720595Y-19289905D01*
X19680595Y-19249905D02*
X19760595Y-19249905D01*
D11*
X20059467Y-19141389D02*
X20078515Y-19141389D01*
X20078515Y-19141389D02*
X20097562Y-19150913D01*
X20097562Y-19150913D02*
X20107086Y-19160436D01*
X20107086Y-19160436D02*
X20116610Y-19179484D01*
X20116610Y-19179484D02*
X20126134Y-19217579D01*
X20126134Y-19217579D02*
X20126134Y-19265198D01*
X20126134Y-19265198D02*
X20116610Y-19303294D01*
X20116610Y-19303294D02*
X20107086Y-19322341D01*
X20107086Y-19322341D02*
X20097562Y-19331865D01*
X20097562Y-19331865D02*
X20078515Y-19341389D01*
X20078515Y-19341389D02*
X20059467Y-19341389D01*
X20059467Y-19341389D02*
X20040419Y-19331865D01*
X20040419Y-19331865D02*
X20030896Y-19322341D01*
X20030896Y-19322341D02*
X20021372Y-19303294D01*
X20021372Y-19303294D02*
X20011848Y-19265198D01*
X20011848Y-19265198D02*
X20011848Y-19217579D01*
X20011848Y-19217579D02*
X20021372Y-19179484D01*
X20021372Y-19179484D02*
X20030896Y-19160436D01*
X20030896Y-19160436D02*
X20040419Y-19150913D01*
X20040419Y-19150913D02*
X20059467Y-19141389D01*
X20211848Y-19322341D02*
X20221372Y-19331865D01*
X20221372Y-19331865D02*
X20211848Y-19341389D01*
X20211848Y-19341389D02*
X20202324Y-19331865D01*
X20202324Y-19331865D02*
X20211848Y-19322341D01*
X20211848Y-19322341D02*
X20211848Y-19341389D01*
X20335658Y-19227103D02*
X20316610Y-19217579D01*
X20316610Y-19217579D02*
X20307086Y-19208055D01*
X20307086Y-19208055D02*
X20297562Y-19189008D01*
X20297562Y-19189008D02*
X20297562Y-19179484D01*
X20297562Y-19179484D02*
X20307086Y-19160436D01*
X20307086Y-19160436D02*
X20316610Y-19150913D01*
X20316610Y-19150913D02*
X20335658Y-19141389D01*
X20335658Y-19141389D02*
X20373753Y-19141389D01*
X20373753Y-19141389D02*
X20392800Y-19150913D01*
X20392800Y-19150913D02*
X20402324Y-19160436D01*
X20402324Y-19160436D02*
X20411848Y-19179484D01*
X20411848Y-19179484D02*
X20411848Y-19189008D01*
X20411848Y-19189008D02*
X20402324Y-19208055D01*
X20402324Y-19208055D02*
X20392800Y-19217579D01*
X20392800Y-19217579D02*
X20373753Y-19227103D01*
X20373753Y-19227103D02*
X20335658Y-19227103D01*
X20335658Y-19227103D02*
X20316610Y-19236627D01*
X20316610Y-19236627D02*
X20307086Y-19246151D01*
X20307086Y-19246151D02*
X20297562Y-19265198D01*
X20297562Y-19265198D02*
X20297562Y-19303294D01*
X20297562Y-19303294D02*
X20307086Y-19322341D01*
X20307086Y-19322341D02*
X20316610Y-19331865D01*
X20316610Y-19331865D02*
X20335658Y-19341389D01*
X20335658Y-19341389D02*
X20373753Y-19341389D01*
X20373753Y-19341389D02*
X20392800Y-19331865D01*
X20392800Y-19331865D02*
X20402324Y-19322341D01*
X20402324Y-19322341D02*
X20411848Y-19303294D01*
X20411848Y-19303294D02*
X20411848Y-19265198D01*
X20411848Y-19265198D02*
X20402324Y-19246151D01*
X20402324Y-19246151D02*
X20392800Y-19236627D01*
X20392800Y-19236627D02*
X20373753Y-19227103D01*
X20535658Y-19141389D02*
X20554705Y-19141389D01*
X20554705Y-19141389D02*
X20573753Y-19150913D01*
X20573753Y-19150913D02*
X20583277Y-19160436D01*
X20583277Y-19160436D02*
X20592800Y-19179484D01*
X20592800Y-19179484D02*
X20602324Y-19217579D01*
X20602324Y-19217579D02*
X20602324Y-19265198D01*
X20602324Y-19265198D02*
X20592800Y-19303294D01*
X20592800Y-19303294D02*
X20583277Y-19322341D01*
X20583277Y-19322341D02*
X20573753Y-19331865D01*
X20573753Y-19331865D02*
X20554705Y-19341389D01*
X20554705Y-19341389D02*
X20535658Y-19341389D01*
X20535658Y-19341389D02*
X20516610Y-19331865D01*
X20516610Y-19331865D02*
X20507086Y-19322341D01*
X20507086Y-19322341D02*
X20497562Y-19303294D01*
X20497562Y-19303294D02*
X20488039Y-19265198D01*
X20488039Y-19265198D02*
X20488039Y-19217579D01*
X20488039Y-19217579D02*
X20497562Y-19179484D01*
X20497562Y-19179484D02*
X20507086Y-19160436D01*
X20507086Y-19160436D02*
X20516610Y-19150913D01*
X20516610Y-19150913D02*
X20535658Y-19141389D01*
X20726134Y-19141389D02*
X20745181Y-19141389D01*
X20745181Y-19141389D02*
X20764229Y-19150913D01*
X20764229Y-19150913D02*
X20773753Y-19160436D01*
X20773753Y-19160436D02*
X20783277Y-19179484D01*
X20783277Y-19179484D02*
X20792800Y-19217579D01*
X20792800Y-19217579D02*
X20792800Y-19265198D01*
X20792800Y-19265198D02*
X20783277Y-19303294D01*
X20783277Y-19303294D02*
X20773753Y-19322341D01*
X20773753Y-19322341D02*
X20764229Y-19331865D01*
X20764229Y-19331865D02*
X20745181Y-19341389D01*
X20745181Y-19341389D02*
X20726134Y-19341389D01*
X20726134Y-19341389D02*
X20707086Y-19331865D01*
X20707086Y-19331865D02*
X20697562Y-19322341D01*
X20697562Y-19322341D02*
X20688039Y-19303294D01*
X20688039Y-19303294D02*
X20678515Y-19265198D01*
X20678515Y-19265198D02*
X20678515Y-19217579D01*
X20678515Y-19217579D02*
X20688039Y-19179484D01*
X20688039Y-19179484D02*
X20697562Y-19160436D01*
X20697562Y-19160436D02*
X20707086Y-19150913D01*
X20707086Y-19150913D02*
X20726134Y-19141389D01*
X20878515Y-19341389D02*
X20878515Y-19208055D01*
X20878515Y-19227103D02*
X20888039Y-19217579D01*
X20888039Y-19217579D02*
X20907086Y-19208055D01*
X20907086Y-19208055D02*
X20935658Y-19208055D01*
X20935658Y-19208055D02*
X20954705Y-19217579D01*
X20954705Y-19217579D02*
X20964229Y-19236627D01*
X20964229Y-19236627D02*
X20964229Y-19341389D01*
X20964229Y-19236627D02*
X20973753Y-19217579D01*
X20973753Y-19217579D02*
X20992800Y-19208055D01*
X20992800Y-19208055D02*
X21021372Y-19208055D01*
X21021372Y-19208055D02*
X21040420Y-19217579D01*
X21040420Y-19217579D02*
X21049943Y-19236627D01*
X21049943Y-19236627D02*
X21049943Y-19341389D01*
X21145181Y-19341389D02*
X21145181Y-19208055D01*
X21145181Y-19227103D02*
X21154705Y-19217579D01*
X21154705Y-19217579D02*
X21173753Y-19208055D01*
X21173753Y-19208055D02*
X21202324Y-19208055D01*
X21202324Y-19208055D02*
X21221372Y-19217579D01*
X21221372Y-19217579D02*
X21230896Y-19236627D01*
X21230896Y-19236627D02*
X21230896Y-19341389D01*
X21230896Y-19236627D02*
X21240420Y-19217579D01*
X21240420Y-19217579D02*
X21259467Y-19208055D01*
X21259467Y-19208055D02*
X21288039Y-19208055D01*
X21288039Y-19208055D02*
X21307086Y-19217579D01*
X21307086Y-19217579D02*
X21316610Y-19236627D01*
X21316610Y-19236627D02*
X21316610Y-19341389D01*
X21707086Y-19131865D02*
X21535658Y-19389008D01*
X21964229Y-19141389D02*
X21983277Y-19141389D01*
X21983277Y-19141389D02*
X22002324Y-19150913D01*
X22002324Y-19150913D02*
X22011848Y-19160436D01*
X22011848Y-19160436D02*
X22021372Y-19179484D01*
X22021372Y-19179484D02*
X22030896Y-19217579D01*
X22030896Y-19217579D02*
X22030896Y-19265198D01*
X22030896Y-19265198D02*
X22021372Y-19303294D01*
X22021372Y-19303294D02*
X22011848Y-19322341D01*
X22011848Y-19322341D02*
X22002324Y-19331865D01*
X22002324Y-19331865D02*
X21983277Y-19341389D01*
X21983277Y-19341389D02*
X21964229Y-19341389D01*
X21964229Y-19341389D02*
X21945182Y-19331865D01*
X21945182Y-19331865D02*
X21935658Y-19322341D01*
X21935658Y-19322341D02*
X21926134Y-19303294D01*
X21926134Y-19303294D02*
X21916610Y-19265198D01*
X21916610Y-19265198D02*
X21916610Y-19217579D01*
X21916610Y-19217579D02*
X21926134Y-19179484D01*
X21926134Y-19179484D02*
X21935658Y-19160436D01*
X21935658Y-19160436D02*
X21945182Y-19150913D01*
X21945182Y-19150913D02*
X21964229Y-19141389D01*
X22116610Y-19322341D02*
X22126134Y-19331865D01*
X22126134Y-19331865D02*
X22116610Y-19341389D01*
X22116610Y-19341389D02*
X22107086Y-19331865D01*
X22107086Y-19331865D02*
X22116610Y-19322341D01*
X22116610Y-19322341D02*
X22116610Y-19341389D01*
X22249943Y-19141389D02*
X22268991Y-19141389D01*
X22268991Y-19141389D02*
X22288039Y-19150913D01*
X22288039Y-19150913D02*
X22297563Y-19160436D01*
X22297563Y-19160436D02*
X22307086Y-19179484D01*
X22307086Y-19179484D02*
X22316610Y-19217579D01*
X22316610Y-19217579D02*
X22316610Y-19265198D01*
X22316610Y-19265198D02*
X22307086Y-19303294D01*
X22307086Y-19303294D02*
X22297563Y-19322341D01*
X22297563Y-19322341D02*
X22288039Y-19331865D01*
X22288039Y-19331865D02*
X22268991Y-19341389D01*
X22268991Y-19341389D02*
X22249943Y-19341389D01*
X22249943Y-19341389D02*
X22230896Y-19331865D01*
X22230896Y-19331865D02*
X22221372Y-19322341D01*
X22221372Y-19322341D02*
X22211848Y-19303294D01*
X22211848Y-19303294D02*
X22202324Y-19265198D01*
X22202324Y-19265198D02*
X22202324Y-19217579D01*
X22202324Y-19217579D02*
X22211848Y-19179484D01*
X22211848Y-19179484D02*
X22221372Y-19160436D01*
X22221372Y-19160436D02*
X22230896Y-19150913D01*
X22230896Y-19150913D02*
X22249943Y-19141389D01*
X22383277Y-19141389D02*
X22507086Y-19141389D01*
X22507086Y-19141389D02*
X22440420Y-19217579D01*
X22440420Y-19217579D02*
X22468991Y-19217579D01*
X22468991Y-19217579D02*
X22488039Y-19227103D01*
X22488039Y-19227103D02*
X22497562Y-19236627D01*
X22497562Y-19236627D02*
X22507086Y-19255675D01*
X22507086Y-19255675D02*
X22507086Y-19303294D01*
X22507086Y-19303294D02*
X22497562Y-19322341D01*
X22497562Y-19322341D02*
X22488039Y-19331865D01*
X22488039Y-19331865D02*
X22468991Y-19341389D01*
X22468991Y-19341389D02*
X22411848Y-19341389D01*
X22411848Y-19341389D02*
X22392801Y-19331865D01*
X22392801Y-19331865D02*
X22383277Y-19322341D01*
X22697562Y-19341389D02*
X22583277Y-19341389D01*
X22640420Y-19341389D02*
X22640420Y-19141389D01*
X22640420Y-19141389D02*
X22621372Y-19169960D01*
X22621372Y-19169960D02*
X22602324Y-19189008D01*
X22602324Y-19189008D02*
X22583277Y-19198532D01*
X22878515Y-19141389D02*
X22783277Y-19141389D01*
X22783277Y-19141389D02*
X22773753Y-19236627D01*
X22773753Y-19236627D02*
X22783277Y-19227103D01*
X22783277Y-19227103D02*
X22802324Y-19217579D01*
X22802324Y-19217579D02*
X22849943Y-19217579D01*
X22849943Y-19217579D02*
X22868991Y-19227103D01*
X22868991Y-19227103D02*
X22878515Y-19236627D01*
X22878515Y-19236627D02*
X22888039Y-19255675D01*
X22888039Y-19255675D02*
X22888039Y-19303294D01*
X22888039Y-19303294D02*
X22878515Y-19322341D01*
X22878515Y-19322341D02*
X22868991Y-19331865D01*
X22868991Y-19331865D02*
X22849943Y-19341389D01*
X22849943Y-19341389D02*
X22802324Y-19341389D01*
X22802324Y-19341389D02*
X22783277Y-19331865D01*
X22783277Y-19331865D02*
X22773753Y-19322341D01*
X22964229Y-19141389D02*
X22964229Y-19179484D01*
X23040420Y-19141389D02*
X23040420Y-19179484D01*
X23335658Y-19417579D02*
X23326134Y-19408055D01*
X23326134Y-19408055D02*
X23307086Y-19379484D01*
X23307086Y-19379484D02*
X23297563Y-19360436D01*
X23297563Y-19360436D02*
X23288039Y-19331865D01*
X23288039Y-19331865D02*
X23278515Y-19284246D01*
X23278515Y-19284246D02*
X23278515Y-19246151D01*
X23278515Y-19246151D02*
X23288039Y-19198532D01*
X23288039Y-19198532D02*
X23297563Y-19169960D01*
X23297563Y-19169960D02*
X23307086Y-19150913D01*
X23307086Y-19150913D02*
X23326134Y-19122341D01*
X23326134Y-19122341D02*
X23335658Y-19112817D01*
X23507086Y-19141389D02*
X23411848Y-19141389D01*
X23411848Y-19141389D02*
X23402324Y-19236627D01*
X23402324Y-19236627D02*
X23411848Y-19227103D01*
X23411848Y-19227103D02*
X23430896Y-19217579D01*
X23430896Y-19217579D02*
X23478515Y-19217579D01*
X23478515Y-19217579D02*
X23497563Y-19227103D01*
X23497563Y-19227103D02*
X23507086Y-19236627D01*
X23507086Y-19236627D02*
X23516610Y-19255675D01*
X23516610Y-19255675D02*
X23516610Y-19303294D01*
X23516610Y-19303294D02*
X23507086Y-19322341D01*
X23507086Y-19322341D02*
X23497563Y-19331865D01*
X23497563Y-19331865D02*
X23478515Y-19341389D01*
X23478515Y-19341389D02*
X23430896Y-19341389D01*
X23430896Y-19341389D02*
X23411848Y-19331865D01*
X23411848Y-19331865D02*
X23402324Y-19322341D01*
X23640420Y-19141389D02*
X23659467Y-19141389D01*
X23659467Y-19141389D02*
X23678515Y-19150913D01*
X23678515Y-19150913D02*
X23688039Y-19160436D01*
X23688039Y-19160436D02*
X23697563Y-19179484D01*
X23697563Y-19179484D02*
X23707086Y-19217579D01*
X23707086Y-19217579D02*
X23707086Y-19265198D01*
X23707086Y-19265198D02*
X23697563Y-19303294D01*
X23697563Y-19303294D02*
X23688039Y-19322341D01*
X23688039Y-19322341D02*
X23678515Y-19331865D01*
X23678515Y-19331865D02*
X23659467Y-19341389D01*
X23659467Y-19341389D02*
X23640420Y-19341389D01*
X23640420Y-19341389D02*
X23621372Y-19331865D01*
X23621372Y-19331865D02*
X23611848Y-19322341D01*
X23611848Y-19322341D02*
X23602324Y-19303294D01*
X23602324Y-19303294D02*
X23592801Y-19265198D01*
X23592801Y-19265198D02*
X23592801Y-19217579D01*
X23592801Y-19217579D02*
X23602324Y-19179484D01*
X23602324Y-19179484D02*
X23611848Y-19160436D01*
X23611848Y-19160436D02*
X23621372Y-19150913D01*
X23621372Y-19150913D02*
X23640420Y-19141389D01*
X23945182Y-19341389D02*
X23945182Y-19141389D01*
X24030896Y-19341389D02*
X24030896Y-19236627D01*
X24030896Y-19236627D02*
X24021372Y-19217579D01*
X24021372Y-19217579D02*
X24002325Y-19208055D01*
X24002325Y-19208055D02*
X23973753Y-19208055D01*
X23973753Y-19208055D02*
X23954705Y-19217579D01*
X23954705Y-19217579D02*
X23945182Y-19227103D01*
X24154705Y-19341389D02*
X24135658Y-19331865D01*
X24135658Y-19331865D02*
X24126134Y-19322341D01*
X24126134Y-19322341D02*
X24116610Y-19303294D01*
X24116610Y-19303294D02*
X24116610Y-19246151D01*
X24116610Y-19246151D02*
X24126134Y-19227103D01*
X24126134Y-19227103D02*
X24135658Y-19217579D01*
X24135658Y-19217579D02*
X24154705Y-19208055D01*
X24154705Y-19208055D02*
X24183277Y-19208055D01*
X24183277Y-19208055D02*
X24202325Y-19217579D01*
X24202325Y-19217579D02*
X24211848Y-19227103D01*
X24211848Y-19227103D02*
X24221372Y-19246151D01*
X24221372Y-19246151D02*
X24221372Y-19303294D01*
X24221372Y-19303294D02*
X24211848Y-19322341D01*
X24211848Y-19322341D02*
X24202325Y-19331865D01*
X24202325Y-19331865D02*
X24183277Y-19341389D01*
X24183277Y-19341389D02*
X24154705Y-19341389D01*
X24335658Y-19341389D02*
X24316610Y-19331865D01*
X24316610Y-19331865D02*
X24307086Y-19312817D01*
X24307086Y-19312817D02*
X24307086Y-19141389D01*
X24488039Y-19331865D02*
X24468991Y-19341389D01*
X24468991Y-19341389D02*
X24430896Y-19341389D01*
X24430896Y-19341389D02*
X24411848Y-19331865D01*
X24411848Y-19331865D02*
X24402325Y-19312817D01*
X24402325Y-19312817D02*
X24402325Y-19236627D01*
X24402325Y-19236627D02*
X24411848Y-19217579D01*
X24411848Y-19217579D02*
X24430896Y-19208055D01*
X24430896Y-19208055D02*
X24468991Y-19208055D01*
X24468991Y-19208055D02*
X24488039Y-19217579D01*
X24488039Y-19217579D02*
X24497563Y-19236627D01*
X24497563Y-19236627D02*
X24497563Y-19255675D01*
X24497563Y-19255675D02*
X24402325Y-19274722D01*
X24573753Y-19331865D02*
X24592801Y-19341389D01*
X24592801Y-19341389D02*
X24630896Y-19341389D01*
X24630896Y-19341389D02*
X24649944Y-19331865D01*
X24649944Y-19331865D02*
X24659467Y-19312817D01*
X24659467Y-19312817D02*
X24659467Y-19303294D01*
X24659467Y-19303294D02*
X24649944Y-19284246D01*
X24649944Y-19284246D02*
X24630896Y-19274722D01*
X24630896Y-19274722D02*
X24602325Y-19274722D01*
X24602325Y-19274722D02*
X24583277Y-19265198D01*
X24583277Y-19265198D02*
X24573753Y-19246151D01*
X24573753Y-19246151D02*
X24573753Y-19236627D01*
X24573753Y-19236627D02*
X24583277Y-19217579D01*
X24583277Y-19217579D02*
X24602325Y-19208055D01*
X24602325Y-19208055D02*
X24630896Y-19208055D01*
X24630896Y-19208055D02*
X24649944Y-19217579D01*
X24726134Y-19417579D02*
X24735658Y-19408055D01*
X24735658Y-19408055D02*
X24754706Y-19379484D01*
X24754706Y-19379484D02*
X24764229Y-19360436D01*
X24764229Y-19360436D02*
X24773753Y-19331865D01*
X24773753Y-19331865D02*
X24783277Y-19284246D01*
X24783277Y-19284246D02*
X24783277Y-19246151D01*
X24783277Y-19246151D02*
X24773753Y-19198532D01*
X24773753Y-19198532D02*
X24764229Y-19169960D01*
X24764229Y-19169960D02*
X24754706Y-19150913D01*
X24754706Y-19150913D02*
X24735658Y-19122341D01*
X24735658Y-19122341D02*
X24726134Y-19112817D01*
D12*
X19746683Y-19547493D02*
X19746683Y-19480317D01*
X19679507Y-19480317D01*
X19679507Y-19547493D01*
X19746683Y-19547493D01*
D11*
X20059467Y-19405389D02*
X20078515Y-19405389D01*
X20078515Y-19405389D02*
X20097562Y-19414913D01*
X20097562Y-19414913D02*
X20107086Y-19424436D01*
X20107086Y-19424436D02*
X20116610Y-19443484D01*
X20116610Y-19443484D02*
X20126134Y-19481579D01*
X20126134Y-19481579D02*
X20126134Y-19529198D01*
X20126134Y-19529198D02*
X20116610Y-19567294D01*
X20116610Y-19567294D02*
X20107086Y-19586341D01*
X20107086Y-19586341D02*
X20097562Y-19595865D01*
X20097562Y-19595865D02*
X20078515Y-19605389D01*
X20078515Y-19605389D02*
X20059467Y-19605389D01*
X20059467Y-19605389D02*
X20040419Y-19595865D01*
X20040419Y-19595865D02*
X20030896Y-19586341D01*
X20030896Y-19586341D02*
X20021372Y-19567294D01*
X20021372Y-19567294D02*
X20011848Y-19529198D01*
X20011848Y-19529198D02*
X20011848Y-19481579D01*
X20011848Y-19481579D02*
X20021372Y-19443484D01*
X20021372Y-19443484D02*
X20030896Y-19424436D01*
X20030896Y-19424436D02*
X20040419Y-19414913D01*
X20040419Y-19414913D02*
X20059467Y-19405389D01*
X20211848Y-19586341D02*
X20221372Y-19595865D01*
X20221372Y-19595865D02*
X20211848Y-19605389D01*
X20211848Y-19605389D02*
X20202324Y-19595865D01*
X20202324Y-19595865D02*
X20211848Y-19586341D01*
X20211848Y-19586341D02*
X20211848Y-19605389D01*
X20316610Y-19605389D02*
X20354705Y-19605389D01*
X20354705Y-19605389D02*
X20373753Y-19595865D01*
X20373753Y-19595865D02*
X20383277Y-19586341D01*
X20383277Y-19586341D02*
X20402324Y-19557770D01*
X20402324Y-19557770D02*
X20411848Y-19519675D01*
X20411848Y-19519675D02*
X20411848Y-19443484D01*
X20411848Y-19443484D02*
X20402324Y-19424436D01*
X20402324Y-19424436D02*
X20392800Y-19414913D01*
X20392800Y-19414913D02*
X20373753Y-19405389D01*
X20373753Y-19405389D02*
X20335658Y-19405389D01*
X20335658Y-19405389D02*
X20316610Y-19414913D01*
X20316610Y-19414913D02*
X20307086Y-19424436D01*
X20307086Y-19424436D02*
X20297562Y-19443484D01*
X20297562Y-19443484D02*
X20297562Y-19491103D01*
X20297562Y-19491103D02*
X20307086Y-19510151D01*
X20307086Y-19510151D02*
X20316610Y-19519675D01*
X20316610Y-19519675D02*
X20335658Y-19529198D01*
X20335658Y-19529198D02*
X20373753Y-19529198D01*
X20373753Y-19529198D02*
X20392800Y-19519675D01*
X20392800Y-19519675D02*
X20402324Y-19510151D01*
X20402324Y-19510151D02*
X20411848Y-19491103D01*
X20592800Y-19405389D02*
X20497562Y-19405389D01*
X20497562Y-19405389D02*
X20488039Y-19500627D01*
X20488039Y-19500627D02*
X20497562Y-19491103D01*
X20497562Y-19491103D02*
X20516610Y-19481579D01*
X20516610Y-19481579D02*
X20564229Y-19481579D01*
X20564229Y-19481579D02*
X20583277Y-19491103D01*
X20583277Y-19491103D02*
X20592800Y-19500627D01*
X20592800Y-19500627D02*
X20602324Y-19519675D01*
X20602324Y-19519675D02*
X20602324Y-19567294D01*
X20602324Y-19567294D02*
X20592800Y-19586341D01*
X20592800Y-19586341D02*
X20583277Y-19595865D01*
X20583277Y-19595865D02*
X20564229Y-19605389D01*
X20564229Y-19605389D02*
X20516610Y-19605389D01*
X20516610Y-19605389D02*
X20497562Y-19595865D01*
X20497562Y-19595865D02*
X20488039Y-19586341D01*
X20726134Y-19405389D02*
X20745181Y-19405389D01*
X20745181Y-19405389D02*
X20764229Y-19414913D01*
X20764229Y-19414913D02*
X20773753Y-19424436D01*
X20773753Y-19424436D02*
X20783277Y-19443484D01*
X20783277Y-19443484D02*
X20792800Y-19481579D01*
X20792800Y-19481579D02*
X20792800Y-19529198D01*
X20792800Y-19529198D02*
X20783277Y-19567294D01*
X20783277Y-19567294D02*
X20773753Y-19586341D01*
X20773753Y-19586341D02*
X20764229Y-19595865D01*
X20764229Y-19595865D02*
X20745181Y-19605389D01*
X20745181Y-19605389D02*
X20726134Y-19605389D01*
X20726134Y-19605389D02*
X20707086Y-19595865D01*
X20707086Y-19595865D02*
X20697562Y-19586341D01*
X20697562Y-19586341D02*
X20688039Y-19567294D01*
X20688039Y-19567294D02*
X20678515Y-19529198D01*
X20678515Y-19529198D02*
X20678515Y-19481579D01*
X20678515Y-19481579D02*
X20688039Y-19443484D01*
X20688039Y-19443484D02*
X20697562Y-19424436D01*
X20697562Y-19424436D02*
X20707086Y-19414913D01*
X20707086Y-19414913D02*
X20726134Y-19405389D01*
X20878515Y-19605389D02*
X20878515Y-19472055D01*
X20878515Y-19491103D02*
X20888039Y-19481579D01*
X20888039Y-19481579D02*
X20907086Y-19472055D01*
X20907086Y-19472055D02*
X20935658Y-19472055D01*
X20935658Y-19472055D02*
X20954705Y-19481579D01*
X20954705Y-19481579D02*
X20964229Y-19500627D01*
X20964229Y-19500627D02*
X20964229Y-19605389D01*
X20964229Y-19500627D02*
X20973753Y-19481579D01*
X20973753Y-19481579D02*
X20992800Y-19472055D01*
X20992800Y-19472055D02*
X21021372Y-19472055D01*
X21021372Y-19472055D02*
X21040420Y-19481579D01*
X21040420Y-19481579D02*
X21049943Y-19500627D01*
X21049943Y-19500627D02*
X21049943Y-19605389D01*
X21145181Y-19605389D02*
X21145181Y-19472055D01*
X21145181Y-19491103D02*
X21154705Y-19481579D01*
X21154705Y-19481579D02*
X21173753Y-19472055D01*
X21173753Y-19472055D02*
X21202324Y-19472055D01*
X21202324Y-19472055D02*
X21221372Y-19481579D01*
X21221372Y-19481579D02*
X21230896Y-19500627D01*
X21230896Y-19500627D02*
X21230896Y-19605389D01*
X21230896Y-19500627D02*
X21240420Y-19481579D01*
X21240420Y-19481579D02*
X21259467Y-19472055D01*
X21259467Y-19472055D02*
X21288039Y-19472055D01*
X21288039Y-19472055D02*
X21307086Y-19481579D01*
X21307086Y-19481579D02*
X21316610Y-19500627D01*
X21316610Y-19500627D02*
X21316610Y-19605389D01*
X21707086Y-19395865D02*
X21535658Y-19653008D01*
X21964229Y-19405389D02*
X21983277Y-19405389D01*
X21983277Y-19405389D02*
X22002324Y-19414913D01*
X22002324Y-19414913D02*
X22011848Y-19424436D01*
X22011848Y-19424436D02*
X22021372Y-19443484D01*
X22021372Y-19443484D02*
X22030896Y-19481579D01*
X22030896Y-19481579D02*
X22030896Y-19529198D01*
X22030896Y-19529198D02*
X22021372Y-19567294D01*
X22021372Y-19567294D02*
X22011848Y-19586341D01*
X22011848Y-19586341D02*
X22002324Y-19595865D01*
X22002324Y-19595865D02*
X21983277Y-19605389D01*
X21983277Y-19605389D02*
X21964229Y-19605389D01*
X21964229Y-19605389D02*
X21945182Y-19595865D01*
X21945182Y-19595865D02*
X21935658Y-19586341D01*
X21935658Y-19586341D02*
X21926134Y-19567294D01*
X21926134Y-19567294D02*
X21916610Y-19529198D01*
X21916610Y-19529198D02*
X21916610Y-19481579D01*
X21916610Y-19481579D02*
X21926134Y-19443484D01*
X21926134Y-19443484D02*
X21935658Y-19424436D01*
X21935658Y-19424436D02*
X21945182Y-19414913D01*
X21945182Y-19414913D02*
X21964229Y-19405389D01*
X22116610Y-19586341D02*
X22126134Y-19595865D01*
X22126134Y-19595865D02*
X22116610Y-19605389D01*
X22116610Y-19605389D02*
X22107086Y-19595865D01*
X22107086Y-19595865D02*
X22116610Y-19586341D01*
X22116610Y-19586341D02*
X22116610Y-19605389D01*
X22249943Y-19405389D02*
X22268991Y-19405389D01*
X22268991Y-19405389D02*
X22288039Y-19414913D01*
X22288039Y-19414913D02*
X22297563Y-19424436D01*
X22297563Y-19424436D02*
X22307086Y-19443484D01*
X22307086Y-19443484D02*
X22316610Y-19481579D01*
X22316610Y-19481579D02*
X22316610Y-19529198D01*
X22316610Y-19529198D02*
X22307086Y-19567294D01*
X22307086Y-19567294D02*
X22297563Y-19586341D01*
X22297563Y-19586341D02*
X22288039Y-19595865D01*
X22288039Y-19595865D02*
X22268991Y-19605389D01*
X22268991Y-19605389D02*
X22249943Y-19605389D01*
X22249943Y-19605389D02*
X22230896Y-19595865D01*
X22230896Y-19595865D02*
X22221372Y-19586341D01*
X22221372Y-19586341D02*
X22211848Y-19567294D01*
X22211848Y-19567294D02*
X22202324Y-19529198D01*
X22202324Y-19529198D02*
X22202324Y-19481579D01*
X22202324Y-19481579D02*
X22211848Y-19443484D01*
X22211848Y-19443484D02*
X22221372Y-19424436D01*
X22221372Y-19424436D02*
X22230896Y-19414913D01*
X22230896Y-19414913D02*
X22249943Y-19405389D01*
X22383277Y-19405389D02*
X22507086Y-19405389D01*
X22507086Y-19405389D02*
X22440420Y-19481579D01*
X22440420Y-19481579D02*
X22468991Y-19481579D01*
X22468991Y-19481579D02*
X22488039Y-19491103D01*
X22488039Y-19491103D02*
X22497562Y-19500627D01*
X22497562Y-19500627D02*
X22507086Y-19519675D01*
X22507086Y-19519675D02*
X22507086Y-19567294D01*
X22507086Y-19567294D02*
X22497562Y-19586341D01*
X22497562Y-19586341D02*
X22488039Y-19595865D01*
X22488039Y-19595865D02*
X22468991Y-19605389D01*
X22468991Y-19605389D02*
X22411848Y-19605389D01*
X22411848Y-19605389D02*
X22392801Y-19595865D01*
X22392801Y-19595865D02*
X22383277Y-19586341D01*
X22573753Y-19405389D02*
X22707086Y-19405389D01*
X22707086Y-19405389D02*
X22621372Y-19605389D01*
X22868991Y-19472055D02*
X22868991Y-19605389D01*
X22821372Y-19395865D02*
X22773753Y-19538722D01*
X22773753Y-19538722D02*
X22897562Y-19538722D01*
X22964229Y-19405389D02*
X22964229Y-19443484D01*
X23040420Y-19405389D02*
X23040420Y-19443484D01*
X23335658Y-19681579D02*
X23326134Y-19672055D01*
X23326134Y-19672055D02*
X23307086Y-19643484D01*
X23307086Y-19643484D02*
X23297563Y-19624436D01*
X23297563Y-19624436D02*
X23288039Y-19595865D01*
X23288039Y-19595865D02*
X23278515Y-19548246D01*
X23278515Y-19548246D02*
X23278515Y-19510151D01*
X23278515Y-19510151D02*
X23288039Y-19462532D01*
X23288039Y-19462532D02*
X23297563Y-19433960D01*
X23297563Y-19433960D02*
X23307086Y-19414913D01*
X23307086Y-19414913D02*
X23326134Y-19386341D01*
X23326134Y-19386341D02*
X23335658Y-19376817D01*
X23392801Y-19405389D02*
X23526134Y-19405389D01*
X23526134Y-19405389D02*
X23440420Y-19605389D01*
X23754705Y-19605389D02*
X23754705Y-19405389D01*
X23840420Y-19605389D02*
X23840420Y-19500627D01*
X23840420Y-19500627D02*
X23830896Y-19481579D01*
X23830896Y-19481579D02*
X23811848Y-19472055D01*
X23811848Y-19472055D02*
X23783277Y-19472055D01*
X23783277Y-19472055D02*
X23764229Y-19481579D01*
X23764229Y-19481579D02*
X23754705Y-19491103D01*
X23964229Y-19605389D02*
X23945182Y-19595865D01*
X23945182Y-19595865D02*
X23935658Y-19586341D01*
X23935658Y-19586341D02*
X23926134Y-19567294D01*
X23926134Y-19567294D02*
X23926134Y-19510151D01*
X23926134Y-19510151D02*
X23935658Y-19491103D01*
X23935658Y-19491103D02*
X23945182Y-19481579D01*
X23945182Y-19481579D02*
X23964229Y-19472055D01*
X23964229Y-19472055D02*
X23992801Y-19472055D01*
X23992801Y-19472055D02*
X24011848Y-19481579D01*
X24011848Y-19481579D02*
X24021372Y-19491103D01*
X24021372Y-19491103D02*
X24030896Y-19510151D01*
X24030896Y-19510151D02*
X24030896Y-19567294D01*
X24030896Y-19567294D02*
X24021372Y-19586341D01*
X24021372Y-19586341D02*
X24011848Y-19595865D01*
X24011848Y-19595865D02*
X23992801Y-19605389D01*
X23992801Y-19605389D02*
X23964229Y-19605389D01*
X24145182Y-19605389D02*
X24126134Y-19595865D01*
X24126134Y-19595865D02*
X24116610Y-19576817D01*
X24116610Y-19576817D02*
X24116610Y-19405389D01*
X24297563Y-19595865D02*
X24278515Y-19605389D01*
X24278515Y-19605389D02*
X24240420Y-19605389D01*
X24240420Y-19605389D02*
X24221372Y-19595865D01*
X24221372Y-19595865D02*
X24211848Y-19576817D01*
X24211848Y-19576817D02*
X24211848Y-19500627D01*
X24211848Y-19500627D02*
X24221372Y-19481579D01*
X24221372Y-19481579D02*
X24240420Y-19472055D01*
X24240420Y-19472055D02*
X24278515Y-19472055D01*
X24278515Y-19472055D02*
X24297563Y-19481579D01*
X24297563Y-19481579D02*
X24307086Y-19500627D01*
X24307086Y-19500627D02*
X24307086Y-19519675D01*
X24307086Y-19519675D02*
X24211848Y-19538722D01*
X24383277Y-19595865D02*
X24402325Y-19605389D01*
X24402325Y-19605389D02*
X24440420Y-19605389D01*
X24440420Y-19605389D02*
X24459467Y-19595865D01*
X24459467Y-19595865D02*
X24468991Y-19576817D01*
X24468991Y-19576817D02*
X24468991Y-19567294D01*
X24468991Y-19567294D02*
X24459467Y-19548246D01*
X24459467Y-19548246D02*
X24440420Y-19538722D01*
X24440420Y-19538722D02*
X24411848Y-19538722D01*
X24411848Y-19538722D02*
X24392801Y-19529198D01*
X24392801Y-19529198D02*
X24383277Y-19510151D01*
X24383277Y-19510151D02*
X24383277Y-19500627D01*
X24383277Y-19500627D02*
X24392801Y-19481579D01*
X24392801Y-19481579D02*
X24411848Y-19472055D01*
X24411848Y-19472055D02*
X24440420Y-19472055D01*
X24440420Y-19472055D02*
X24459467Y-19481579D01*
X24535658Y-19681579D02*
X24545182Y-19672055D01*
X24545182Y-19672055D02*
X24564229Y-19643484D01*
X24564229Y-19643484D02*
X24573753Y-19624436D01*
X24573753Y-19624436D02*
X24583277Y-19595865D01*
X24583277Y-19595865D02*
X24592801Y-19548246D01*
X24592801Y-19548246D02*
X24592801Y-19510151D01*
X24592801Y-19510151D02*
X24583277Y-19462532D01*
X24583277Y-19462532D02*
X24573753Y-19433960D01*
X24573753Y-19433960D02*
X24564229Y-19414913D01*
X24564229Y-19414913D02*
X24545182Y-19386341D01*
X24545182Y-19386341D02*
X24535658Y-19376817D01*
D12*
X19710595Y-19827905D02*
X19760595Y-19777905D01*
X19710595Y-19727905D01*
X19660595Y-19777905D01*
X19710595Y-19827905D01*
D11*
X20126134Y-19869389D02*
X20011848Y-19869389D01*
X20068991Y-19869389D02*
X20068991Y-19669389D01*
X20068991Y-19669389D02*
X20049943Y-19697960D01*
X20049943Y-19697960D02*
X20030896Y-19717008D01*
X20030896Y-19717008D02*
X20011848Y-19726532D01*
X20211848Y-19850341D02*
X20221372Y-19859865D01*
X20221372Y-19859865D02*
X20211848Y-19869389D01*
X20211848Y-19869389D02*
X20202324Y-19859865D01*
X20202324Y-19859865D02*
X20211848Y-19850341D01*
X20211848Y-19850341D02*
X20211848Y-19869389D01*
X20345181Y-19669389D02*
X20364229Y-19669389D01*
X20364229Y-19669389D02*
X20383277Y-19678913D01*
X20383277Y-19678913D02*
X20392800Y-19688436D01*
X20392800Y-19688436D02*
X20402324Y-19707484D01*
X20402324Y-19707484D02*
X20411848Y-19745579D01*
X20411848Y-19745579D02*
X20411848Y-19793198D01*
X20411848Y-19793198D02*
X20402324Y-19831294D01*
X20402324Y-19831294D02*
X20392800Y-19850341D01*
X20392800Y-19850341D02*
X20383277Y-19859865D01*
X20383277Y-19859865D02*
X20364229Y-19869389D01*
X20364229Y-19869389D02*
X20345181Y-19869389D01*
X20345181Y-19869389D02*
X20326134Y-19859865D01*
X20326134Y-19859865D02*
X20316610Y-19850341D01*
X20316610Y-19850341D02*
X20307086Y-19831294D01*
X20307086Y-19831294D02*
X20297562Y-19793198D01*
X20297562Y-19793198D02*
X20297562Y-19745579D01*
X20297562Y-19745579D02*
X20307086Y-19707484D01*
X20307086Y-19707484D02*
X20316610Y-19688436D01*
X20316610Y-19688436D02*
X20326134Y-19678913D01*
X20326134Y-19678913D02*
X20345181Y-19669389D01*
X20535658Y-19669389D02*
X20554705Y-19669389D01*
X20554705Y-19669389D02*
X20573753Y-19678913D01*
X20573753Y-19678913D02*
X20583277Y-19688436D01*
X20583277Y-19688436D02*
X20592800Y-19707484D01*
X20592800Y-19707484D02*
X20602324Y-19745579D01*
X20602324Y-19745579D02*
X20602324Y-19793198D01*
X20602324Y-19793198D02*
X20592800Y-19831294D01*
X20592800Y-19831294D02*
X20583277Y-19850341D01*
X20583277Y-19850341D02*
X20573753Y-19859865D01*
X20573753Y-19859865D02*
X20554705Y-19869389D01*
X20554705Y-19869389D02*
X20535658Y-19869389D01*
X20535658Y-19869389D02*
X20516610Y-19859865D01*
X20516610Y-19859865D02*
X20507086Y-19850341D01*
X20507086Y-19850341D02*
X20497562Y-19831294D01*
X20497562Y-19831294D02*
X20488039Y-19793198D01*
X20488039Y-19793198D02*
X20488039Y-19745579D01*
X20488039Y-19745579D02*
X20497562Y-19707484D01*
X20497562Y-19707484D02*
X20507086Y-19688436D01*
X20507086Y-19688436D02*
X20516610Y-19678913D01*
X20516610Y-19678913D02*
X20535658Y-19669389D01*
X20726134Y-19669389D02*
X20745181Y-19669389D01*
X20745181Y-19669389D02*
X20764229Y-19678913D01*
X20764229Y-19678913D02*
X20773753Y-19688436D01*
X20773753Y-19688436D02*
X20783277Y-19707484D01*
X20783277Y-19707484D02*
X20792800Y-19745579D01*
X20792800Y-19745579D02*
X20792800Y-19793198D01*
X20792800Y-19793198D02*
X20783277Y-19831294D01*
X20783277Y-19831294D02*
X20773753Y-19850341D01*
X20773753Y-19850341D02*
X20764229Y-19859865D01*
X20764229Y-19859865D02*
X20745181Y-19869389D01*
X20745181Y-19869389D02*
X20726134Y-19869389D01*
X20726134Y-19869389D02*
X20707086Y-19859865D01*
X20707086Y-19859865D02*
X20697562Y-19850341D01*
X20697562Y-19850341D02*
X20688039Y-19831294D01*
X20688039Y-19831294D02*
X20678515Y-19793198D01*
X20678515Y-19793198D02*
X20678515Y-19745579D01*
X20678515Y-19745579D02*
X20688039Y-19707484D01*
X20688039Y-19707484D02*
X20697562Y-19688436D01*
X20697562Y-19688436D02*
X20707086Y-19678913D01*
X20707086Y-19678913D02*
X20726134Y-19669389D01*
X20878515Y-19869389D02*
X20878515Y-19736055D01*
X20878515Y-19755103D02*
X20888039Y-19745579D01*
X20888039Y-19745579D02*
X20907086Y-19736055D01*
X20907086Y-19736055D02*
X20935658Y-19736055D01*
X20935658Y-19736055D02*
X20954705Y-19745579D01*
X20954705Y-19745579D02*
X20964229Y-19764627D01*
X20964229Y-19764627D02*
X20964229Y-19869389D01*
X20964229Y-19764627D02*
X20973753Y-19745579D01*
X20973753Y-19745579D02*
X20992800Y-19736055D01*
X20992800Y-19736055D02*
X21021372Y-19736055D01*
X21021372Y-19736055D02*
X21040420Y-19745579D01*
X21040420Y-19745579D02*
X21049943Y-19764627D01*
X21049943Y-19764627D02*
X21049943Y-19869389D01*
X21145181Y-19869389D02*
X21145181Y-19736055D01*
X21145181Y-19755103D02*
X21154705Y-19745579D01*
X21154705Y-19745579D02*
X21173753Y-19736055D01*
X21173753Y-19736055D02*
X21202324Y-19736055D01*
X21202324Y-19736055D02*
X21221372Y-19745579D01*
X21221372Y-19745579D02*
X21230896Y-19764627D01*
X21230896Y-19764627D02*
X21230896Y-19869389D01*
X21230896Y-19764627D02*
X21240420Y-19745579D01*
X21240420Y-19745579D02*
X21259467Y-19736055D01*
X21259467Y-19736055D02*
X21288039Y-19736055D01*
X21288039Y-19736055D02*
X21307086Y-19745579D01*
X21307086Y-19745579D02*
X21316610Y-19764627D01*
X21316610Y-19764627D02*
X21316610Y-19869389D01*
X21707086Y-19659865D02*
X21535658Y-19917008D01*
X21964229Y-19669389D02*
X21983277Y-19669389D01*
X21983277Y-19669389D02*
X22002324Y-19678913D01*
X22002324Y-19678913D02*
X22011848Y-19688436D01*
X22011848Y-19688436D02*
X22021372Y-19707484D01*
X22021372Y-19707484D02*
X22030896Y-19745579D01*
X22030896Y-19745579D02*
X22030896Y-19793198D01*
X22030896Y-19793198D02*
X22021372Y-19831294D01*
X22021372Y-19831294D02*
X22011848Y-19850341D01*
X22011848Y-19850341D02*
X22002324Y-19859865D01*
X22002324Y-19859865D02*
X21983277Y-19869389D01*
X21983277Y-19869389D02*
X21964229Y-19869389D01*
X21964229Y-19869389D02*
X21945182Y-19859865D01*
X21945182Y-19859865D02*
X21935658Y-19850341D01*
X21935658Y-19850341D02*
X21926134Y-19831294D01*
X21926134Y-19831294D02*
X21916610Y-19793198D01*
X21916610Y-19793198D02*
X21916610Y-19745579D01*
X21916610Y-19745579D02*
X21926134Y-19707484D01*
X21926134Y-19707484D02*
X21935658Y-19688436D01*
X21935658Y-19688436D02*
X21945182Y-19678913D01*
X21945182Y-19678913D02*
X21964229Y-19669389D01*
X22116610Y-19850341D02*
X22126134Y-19859865D01*
X22126134Y-19859865D02*
X22116610Y-19869389D01*
X22116610Y-19869389D02*
X22107086Y-19859865D01*
X22107086Y-19859865D02*
X22116610Y-19850341D01*
X22116610Y-19850341D02*
X22116610Y-19869389D01*
X22249943Y-19669389D02*
X22268991Y-19669389D01*
X22268991Y-19669389D02*
X22288039Y-19678913D01*
X22288039Y-19678913D02*
X22297563Y-19688436D01*
X22297563Y-19688436D02*
X22307086Y-19707484D01*
X22307086Y-19707484D02*
X22316610Y-19745579D01*
X22316610Y-19745579D02*
X22316610Y-19793198D01*
X22316610Y-19793198D02*
X22307086Y-19831294D01*
X22307086Y-19831294D02*
X22297563Y-19850341D01*
X22297563Y-19850341D02*
X22288039Y-19859865D01*
X22288039Y-19859865D02*
X22268991Y-19869389D01*
X22268991Y-19869389D02*
X22249943Y-19869389D01*
X22249943Y-19869389D02*
X22230896Y-19859865D01*
X22230896Y-19859865D02*
X22221372Y-19850341D01*
X22221372Y-19850341D02*
X22211848Y-19831294D01*
X22211848Y-19831294D02*
X22202324Y-19793198D01*
X22202324Y-19793198D02*
X22202324Y-19745579D01*
X22202324Y-19745579D02*
X22211848Y-19707484D01*
X22211848Y-19707484D02*
X22221372Y-19688436D01*
X22221372Y-19688436D02*
X22230896Y-19678913D01*
X22230896Y-19678913D02*
X22249943Y-19669389D01*
X22383277Y-19669389D02*
X22507086Y-19669389D01*
X22507086Y-19669389D02*
X22440420Y-19745579D01*
X22440420Y-19745579D02*
X22468991Y-19745579D01*
X22468991Y-19745579D02*
X22488039Y-19755103D01*
X22488039Y-19755103D02*
X22497562Y-19764627D01*
X22497562Y-19764627D02*
X22507086Y-19783675D01*
X22507086Y-19783675D02*
X22507086Y-19831294D01*
X22507086Y-19831294D02*
X22497562Y-19850341D01*
X22497562Y-19850341D02*
X22488039Y-19859865D01*
X22488039Y-19859865D02*
X22468991Y-19869389D01*
X22468991Y-19869389D02*
X22411848Y-19869389D01*
X22411848Y-19869389D02*
X22392801Y-19859865D01*
X22392801Y-19859865D02*
X22383277Y-19850341D01*
X22602324Y-19869389D02*
X22640420Y-19869389D01*
X22640420Y-19869389D02*
X22659467Y-19859865D01*
X22659467Y-19859865D02*
X22668991Y-19850341D01*
X22668991Y-19850341D02*
X22688039Y-19821770D01*
X22688039Y-19821770D02*
X22697562Y-19783675D01*
X22697562Y-19783675D02*
X22697562Y-19707484D01*
X22697562Y-19707484D02*
X22688039Y-19688436D01*
X22688039Y-19688436D02*
X22678515Y-19678913D01*
X22678515Y-19678913D02*
X22659467Y-19669389D01*
X22659467Y-19669389D02*
X22621372Y-19669389D01*
X22621372Y-19669389D02*
X22602324Y-19678913D01*
X22602324Y-19678913D02*
X22592801Y-19688436D01*
X22592801Y-19688436D02*
X22583277Y-19707484D01*
X22583277Y-19707484D02*
X22583277Y-19755103D01*
X22583277Y-19755103D02*
X22592801Y-19774151D01*
X22592801Y-19774151D02*
X22602324Y-19783675D01*
X22602324Y-19783675D02*
X22621372Y-19793198D01*
X22621372Y-19793198D02*
X22659467Y-19793198D01*
X22659467Y-19793198D02*
X22678515Y-19783675D01*
X22678515Y-19783675D02*
X22688039Y-19774151D01*
X22688039Y-19774151D02*
X22697562Y-19755103D01*
X22868991Y-19736055D02*
X22868991Y-19869389D01*
X22821372Y-19659865D02*
X22773753Y-19802722D01*
X22773753Y-19802722D02*
X22897562Y-19802722D01*
X22964229Y-19669389D02*
X22964229Y-19707484D01*
X23040420Y-19669389D02*
X23040420Y-19707484D01*
X23335658Y-19945579D02*
X23326134Y-19936055D01*
X23326134Y-19936055D02*
X23307086Y-19907484D01*
X23307086Y-19907484D02*
X23297563Y-19888436D01*
X23297563Y-19888436D02*
X23288039Y-19859865D01*
X23288039Y-19859865D02*
X23278515Y-19812246D01*
X23278515Y-19812246D02*
X23278515Y-19774151D01*
X23278515Y-19774151D02*
X23288039Y-19726532D01*
X23288039Y-19726532D02*
X23297563Y-19697960D01*
X23297563Y-19697960D02*
X23307086Y-19678913D01*
X23307086Y-19678913D02*
X23326134Y-19650341D01*
X23326134Y-19650341D02*
X23335658Y-19640817D01*
X23507086Y-19669389D02*
X23411848Y-19669389D01*
X23411848Y-19669389D02*
X23402324Y-19764627D01*
X23402324Y-19764627D02*
X23411848Y-19755103D01*
X23411848Y-19755103D02*
X23430896Y-19745579D01*
X23430896Y-19745579D02*
X23478515Y-19745579D01*
X23478515Y-19745579D02*
X23497563Y-19755103D01*
X23497563Y-19755103D02*
X23507086Y-19764627D01*
X23507086Y-19764627D02*
X23516610Y-19783675D01*
X23516610Y-19783675D02*
X23516610Y-19831294D01*
X23516610Y-19831294D02*
X23507086Y-19850341D01*
X23507086Y-19850341D02*
X23497563Y-19859865D01*
X23497563Y-19859865D02*
X23478515Y-19869389D01*
X23478515Y-19869389D02*
X23430896Y-19869389D01*
X23430896Y-19869389D02*
X23411848Y-19859865D01*
X23411848Y-19859865D02*
X23402324Y-19850341D01*
X23630896Y-19755103D02*
X23611848Y-19745579D01*
X23611848Y-19745579D02*
X23602324Y-19736055D01*
X23602324Y-19736055D02*
X23592801Y-19717008D01*
X23592801Y-19717008D02*
X23592801Y-19707484D01*
X23592801Y-19707484D02*
X23602324Y-19688436D01*
X23602324Y-19688436D02*
X23611848Y-19678913D01*
X23611848Y-19678913D02*
X23630896Y-19669389D01*
X23630896Y-19669389D02*
X23668991Y-19669389D01*
X23668991Y-19669389D02*
X23688039Y-19678913D01*
X23688039Y-19678913D02*
X23697563Y-19688436D01*
X23697563Y-19688436D02*
X23707086Y-19707484D01*
X23707086Y-19707484D02*
X23707086Y-19717008D01*
X23707086Y-19717008D02*
X23697563Y-19736055D01*
X23697563Y-19736055D02*
X23688039Y-19745579D01*
X23688039Y-19745579D02*
X23668991Y-19755103D01*
X23668991Y-19755103D02*
X23630896Y-19755103D01*
X23630896Y-19755103D02*
X23611848Y-19764627D01*
X23611848Y-19764627D02*
X23602324Y-19774151D01*
X23602324Y-19774151D02*
X23592801Y-19793198D01*
X23592801Y-19793198D02*
X23592801Y-19831294D01*
X23592801Y-19831294D02*
X23602324Y-19850341D01*
X23602324Y-19850341D02*
X23611848Y-19859865D01*
X23611848Y-19859865D02*
X23630896Y-19869389D01*
X23630896Y-19869389D02*
X23668991Y-19869389D01*
X23668991Y-19869389D02*
X23688039Y-19859865D01*
X23688039Y-19859865D02*
X23697563Y-19850341D01*
X23697563Y-19850341D02*
X23707086Y-19831294D01*
X23707086Y-19831294D02*
X23707086Y-19793198D01*
X23707086Y-19793198D02*
X23697563Y-19774151D01*
X23697563Y-19774151D02*
X23688039Y-19764627D01*
X23688039Y-19764627D02*
X23668991Y-19755103D01*
X23945182Y-19869389D02*
X23945182Y-19669389D01*
X24030896Y-19869389D02*
X24030896Y-19764627D01*
X24030896Y-19764627D02*
X24021372Y-19745579D01*
X24021372Y-19745579D02*
X24002325Y-19736055D01*
X24002325Y-19736055D02*
X23973753Y-19736055D01*
X23973753Y-19736055D02*
X23954705Y-19745579D01*
X23954705Y-19745579D02*
X23945182Y-19755103D01*
X24154705Y-19869389D02*
X24135658Y-19859865D01*
X24135658Y-19859865D02*
X24126134Y-19850341D01*
X24126134Y-19850341D02*
X24116610Y-19831294D01*
X24116610Y-19831294D02*
X24116610Y-19774151D01*
X24116610Y-19774151D02*
X24126134Y-19755103D01*
X24126134Y-19755103D02*
X24135658Y-19745579D01*
X24135658Y-19745579D02*
X24154705Y-19736055D01*
X24154705Y-19736055D02*
X24183277Y-19736055D01*
X24183277Y-19736055D02*
X24202325Y-19745579D01*
X24202325Y-19745579D02*
X24211848Y-19755103D01*
X24211848Y-19755103D02*
X24221372Y-19774151D01*
X24221372Y-19774151D02*
X24221372Y-19831294D01*
X24221372Y-19831294D02*
X24211848Y-19850341D01*
X24211848Y-19850341D02*
X24202325Y-19859865D01*
X24202325Y-19859865D02*
X24183277Y-19869389D01*
X24183277Y-19869389D02*
X24154705Y-19869389D01*
X24335658Y-19869389D02*
X24316610Y-19859865D01*
X24316610Y-19859865D02*
X24307086Y-19840817D01*
X24307086Y-19840817D02*
X24307086Y-19669389D01*
X24488039Y-19859865D02*
X24468991Y-19869389D01*
X24468991Y-19869389D02*
X24430896Y-19869389D01*
X24430896Y-19869389D02*
X24411848Y-19859865D01*
X24411848Y-19859865D02*
X24402325Y-19840817D01*
X24402325Y-19840817D02*
X24402325Y-19764627D01*
X24402325Y-19764627D02*
X24411848Y-19745579D01*
X24411848Y-19745579D02*
X24430896Y-19736055D01*
X24430896Y-19736055D02*
X24468991Y-19736055D01*
X24468991Y-19736055D02*
X24488039Y-19745579D01*
X24488039Y-19745579D02*
X24497563Y-19764627D01*
X24497563Y-19764627D02*
X24497563Y-19783675D01*
X24497563Y-19783675D02*
X24402325Y-19802722D01*
X24573753Y-19859865D02*
X24592801Y-19869389D01*
X24592801Y-19869389D02*
X24630896Y-19869389D01*
X24630896Y-19869389D02*
X24649944Y-19859865D01*
X24649944Y-19859865D02*
X24659467Y-19840817D01*
X24659467Y-19840817D02*
X24659467Y-19831294D01*
X24659467Y-19831294D02*
X24649944Y-19812246D01*
X24649944Y-19812246D02*
X24630896Y-19802722D01*
X24630896Y-19802722D02*
X24602325Y-19802722D01*
X24602325Y-19802722D02*
X24583277Y-19793198D01*
X24583277Y-19793198D02*
X24573753Y-19774151D01*
X24573753Y-19774151D02*
X24573753Y-19764627D01*
X24573753Y-19764627D02*
X24583277Y-19745579D01*
X24583277Y-19745579D02*
X24602325Y-19736055D01*
X24602325Y-19736055D02*
X24630896Y-19736055D01*
X24630896Y-19736055D02*
X24649944Y-19745579D01*
X24726134Y-19945579D02*
X24735658Y-19936055D01*
X24735658Y-19936055D02*
X24754706Y-19907484D01*
X24754706Y-19907484D02*
X24764229Y-19888436D01*
X24764229Y-19888436D02*
X24773753Y-19859865D01*
X24773753Y-19859865D02*
X24783277Y-19812246D01*
X24783277Y-19812246D02*
X24783277Y-19774151D01*
X24783277Y-19774151D02*
X24773753Y-19726532D01*
X24773753Y-19726532D02*
X24764229Y-19697960D01*
X24764229Y-19697960D02*
X24754706Y-19678913D01*
X24754706Y-19678913D02*
X24735658Y-19650341D01*
X24735658Y-19650341D02*
X24726134Y-19640817D01*
M02*
