M48
; DRILL file {KiCad 8.0.3} date 2025-07-28T20:13:36+0200
; FORMAT={-:-/ absolute / metric / decimal}
; #@! TF.CreationDate,2025-07-28T20:13:36+02:00
; #@! TF.GenerationSoftware,Kicad,Pcbnew,8.0.3
; #@! TF.FileFunction,Plated,1,4,PTH
FMAT,2
METRIC
; #@! TA.AperFunction,Plated,PTH,ViaDrill
T1C0.300
; #@! TA.AperFunction,Plated,PTH,ComponentDrill
T2C0.762
; #@! TA.AperFunction,Plated,PTH,ComponentDrill
T3C0.800
; #@! TA.AperFunction,Plated,PTH,ComponentDrill
T4C0.950
; #@! TA.AperFunction,Plated,PTH,ComponentDrill
T5C1.000
%
G90
G05
T1
X223.8Y-104.1
X225.2Y-114.4
X225.2Y-162.4
X242.4Y-121.3
X242.5Y-102.0
X251.1Y-119.5
X265.5Y-101.9
X267.9Y-100.5
T2
X209.55Y-96.52
X212.09Y-96.52
X214.63Y-96.52
X217.17Y-96.52
X257.75Y-111.84
X257.75Y-114.38
X258.34Y-119.46
X258.34Y-122.0
X267.91Y-111.84
X267.91Y-114.38
X268.5Y-119.46
X268.5Y-122.0
T3
X200.4Y-102.42
X200.4Y-112.58
X204.8Y-102.32
X204.8Y-112.48
X207.92Y-111.44
X207.92Y-115.44
X217.0Y-126.9
X217.0Y-129.44
X217.0Y-131.98
X217.0Y-134.52
X217.0Y-137.06
X217.0Y-139.6
X217.0Y-142.14
X217.0Y-144.68
X217.0Y-147.22
X217.0Y-149.76
X217.0Y-152.3
X217.0Y-154.84
X217.0Y-157.38
X217.0Y-159.92
X217.0Y-162.46
X217.0Y-165.0
X217.0Y-167.54
X217.0Y-170.08
X217.0Y-172.62
X218.08Y-111.44
X218.08Y-115.44
X242.396Y-170.077
X242.396Y-172.617
X242.4Y-126.9
X242.4Y-129.44
X242.4Y-131.98
X242.4Y-134.52
X242.4Y-137.06
X242.4Y-139.6
X242.4Y-142.14
X242.4Y-144.68
X242.4Y-147.22
X242.4Y-149.76
X242.4Y-152.3
X242.4Y-154.84
X242.4Y-157.38
X242.4Y-159.92
X242.4Y-162.46
X242.4Y-165.0
X242.4Y-167.54
X253.8Y-114.24
X253.8Y-124.4
X258.5Y-128.5
X268.66Y-128.5
T4
X210.42Y-105.44
X212.92Y-105.44
X215.42Y-105.44
X239.8Y-111.8
X242.3Y-111.8
X244.8Y-111.8
X247.3Y-111.8
T5
X204.36Y-96.94
X207.5Y-123.5
X207.5Y-127.5
X207.5Y-131.5
X207.5Y-135.5
X207.5Y-139.5
X207.5Y-143.5
X207.5Y-147.5
X207.5Y-151.5
X207.5Y-155.5
X207.5Y-159.5
X207.5Y-163.5
X207.5Y-167.5
X207.5Y-171.5
X207.5Y-175.5
X212.5Y-121.5
X213.5Y-177.0
X217.5Y-121.5
X218.5Y-177.0
X222.36Y-96.94
X223.5Y-177.0
X232.0Y-177.0
X237.0Y-177.0
X242.0Y-177.0
X242.57Y-83.82
X242.57Y-86.36
X242.57Y-96.52
X242.57Y-99.06
X245.11Y-83.82
X245.11Y-86.36
X245.11Y-96.52
X245.11Y-99.06
X247.65Y-83.82
X247.65Y-86.36
X247.65Y-96.52
X247.65Y-99.06
X248.5Y-125.0
X248.5Y-129.0
X248.5Y-133.0
X248.5Y-137.0
X248.5Y-141.0
X248.5Y-145.0
X248.5Y-149.0
X248.5Y-153.0
X248.5Y-157.0
X248.5Y-161.0
X248.5Y-165.0
X248.5Y-169.0
X248.5Y-173.0
X248.5Y-177.0
X250.19Y-83.82
X250.19Y-86.36
X250.19Y-96.52
X250.19Y-99.06
X252.73Y-83.82
X252.73Y-86.36
X252.73Y-96.52
X252.73Y-99.06
M30
