%TF.GenerationSoftware,KiCad,Pcbnew,8.0.3*%
%TF.CreationDate,2025-07-28T20:13:37+02:00*%
%TF.ProjectId,DC_minni,44435f6d-696e-46e6-992e-6b696361645f,rev?*%
%TF.SameCoordinates,Original*%
%TF.FileFunction,Drillmap*%
%TF.FilePolarity,Positive*%
%FSLAX45Y45*%
G04 Gerber Fmt 4.5, Leading zero omitted, Abs format (unit mm)*
G04 Created by KiCad (PCBNEW 8.0.3) date 2025-07-28 20:13:37*
%MOMM*%
%LPD*%
G01*
G04 APERTURE LIST*
%ADD10C,0.038100*%
%ADD11C,0.200000*%
%ADD12C,0.220000*%
G04 APERTURE END LIST*
D10*
X27265000Y-7490000D02*
X19762500Y-7490000D01*
X27265000Y-18080000D02*
X27265000Y-7490000D01*
X19762500Y-18080000D02*
X27265000Y-18080000D01*
X19762500Y-7490000D02*
X19762500Y-18080000D01*
D11*
D12*
X20083000Y-17543000D02*
X20303000Y-17763000D01*
X20303000Y-17543000D02*
X20083000Y-17763000D01*
X20210000Y-7891000D02*
X20430000Y-8111000D01*
X20430000Y-7891000D02*
X20210000Y-8111000D01*
X26560000Y-17416000D02*
X26780000Y-17636000D01*
X26780000Y-17416000D02*
X26560000Y-17636000D01*
X26687000Y-7891000D02*
X26907000Y-8111000D01*
X26907000Y-7891000D02*
X26687000Y-8111000D01*
D11*
X20021372Y-18393389D02*
X20021372Y-18193389D01*
X20021372Y-18193389D02*
X20068991Y-18193389D01*
X20068991Y-18193389D02*
X20097562Y-18202913D01*
X20097562Y-18202913D02*
X20116610Y-18221960D01*
X20116610Y-18221960D02*
X20126134Y-18241008D01*
X20126134Y-18241008D02*
X20135658Y-18279103D01*
X20135658Y-18279103D02*
X20135658Y-18307675D01*
X20135658Y-18307675D02*
X20126134Y-18345770D01*
X20126134Y-18345770D02*
X20116610Y-18364817D01*
X20116610Y-18364817D02*
X20097562Y-18383865D01*
X20097562Y-18383865D02*
X20068991Y-18393389D01*
X20068991Y-18393389D02*
X20021372Y-18393389D01*
X20221372Y-18393389D02*
X20221372Y-18260055D01*
X20221372Y-18298151D02*
X20230896Y-18279103D01*
X20230896Y-18279103D02*
X20240419Y-18269579D01*
X20240419Y-18269579D02*
X20259467Y-18260055D01*
X20259467Y-18260055D02*
X20278515Y-18260055D01*
X20345181Y-18393389D02*
X20345181Y-18260055D01*
X20345181Y-18193389D02*
X20335658Y-18202913D01*
X20335658Y-18202913D02*
X20345181Y-18212436D01*
X20345181Y-18212436D02*
X20354705Y-18202913D01*
X20354705Y-18202913D02*
X20345181Y-18193389D01*
X20345181Y-18193389D02*
X20345181Y-18212436D01*
X20468991Y-18393389D02*
X20449943Y-18383865D01*
X20449943Y-18383865D02*
X20440419Y-18364817D01*
X20440419Y-18364817D02*
X20440419Y-18193389D01*
X20573753Y-18393389D02*
X20554705Y-18383865D01*
X20554705Y-18383865D02*
X20545181Y-18364817D01*
X20545181Y-18364817D02*
X20545181Y-18193389D01*
X20802324Y-18393389D02*
X20802324Y-18193389D01*
X20802324Y-18193389D02*
X20868991Y-18336246D01*
X20868991Y-18336246D02*
X20935658Y-18193389D01*
X20935658Y-18193389D02*
X20935658Y-18393389D01*
X21116610Y-18393389D02*
X21116610Y-18288627D01*
X21116610Y-18288627D02*
X21107086Y-18269579D01*
X21107086Y-18269579D02*
X21088039Y-18260055D01*
X21088039Y-18260055D02*
X21049943Y-18260055D01*
X21049943Y-18260055D02*
X21030896Y-18269579D01*
X21116610Y-18383865D02*
X21097562Y-18393389D01*
X21097562Y-18393389D02*
X21049943Y-18393389D01*
X21049943Y-18393389D02*
X21030896Y-18383865D01*
X21030896Y-18383865D02*
X21021372Y-18364817D01*
X21021372Y-18364817D02*
X21021372Y-18345770D01*
X21021372Y-18345770D02*
X21030896Y-18326722D01*
X21030896Y-18326722D02*
X21049943Y-18317198D01*
X21049943Y-18317198D02*
X21097562Y-18317198D01*
X21097562Y-18317198D02*
X21116610Y-18307675D01*
X21211848Y-18260055D02*
X21211848Y-18460055D01*
X21211848Y-18269579D02*
X21230896Y-18260055D01*
X21230896Y-18260055D02*
X21268991Y-18260055D01*
X21268991Y-18260055D02*
X21288039Y-18269579D01*
X21288039Y-18269579D02*
X21297562Y-18279103D01*
X21297562Y-18279103D02*
X21307086Y-18298151D01*
X21307086Y-18298151D02*
X21307086Y-18355294D01*
X21307086Y-18355294D02*
X21297562Y-18374341D01*
X21297562Y-18374341D02*
X21288039Y-18383865D01*
X21288039Y-18383865D02*
X21268991Y-18393389D01*
X21268991Y-18393389D02*
X21230896Y-18393389D01*
X21230896Y-18393389D02*
X21211848Y-18383865D01*
X21392800Y-18374341D02*
X21402324Y-18383865D01*
X21402324Y-18383865D02*
X21392800Y-18393389D01*
X21392800Y-18393389D02*
X21383277Y-18383865D01*
X21383277Y-18383865D02*
X21392800Y-18374341D01*
X21392800Y-18374341D02*
X21392800Y-18393389D01*
X21392800Y-18269579D02*
X21402324Y-18279103D01*
X21402324Y-18279103D02*
X21392800Y-18288627D01*
X21392800Y-18288627D02*
X21383277Y-18279103D01*
X21383277Y-18279103D02*
X21392800Y-18269579D01*
X21392800Y-18269579D02*
X21392800Y-18288627D01*
X19560595Y-18621905D02*
X19760595Y-18821905D01*
X19760595Y-18621905D02*
X19560595Y-18821905D01*
X20011848Y-18632436D02*
X20021372Y-18622913D01*
X20021372Y-18622913D02*
X20040419Y-18613389D01*
X20040419Y-18613389D02*
X20088039Y-18613389D01*
X20088039Y-18613389D02*
X20107086Y-18622913D01*
X20107086Y-18622913D02*
X20116610Y-18632436D01*
X20116610Y-18632436D02*
X20126134Y-18651484D01*
X20126134Y-18651484D02*
X20126134Y-18670532D01*
X20126134Y-18670532D02*
X20116610Y-18699103D01*
X20116610Y-18699103D02*
X20002324Y-18813389D01*
X20002324Y-18813389D02*
X20126134Y-18813389D01*
X20211848Y-18794341D02*
X20221372Y-18803865D01*
X20221372Y-18803865D02*
X20211848Y-18813389D01*
X20211848Y-18813389D02*
X20202324Y-18803865D01*
X20202324Y-18803865D02*
X20211848Y-18794341D01*
X20211848Y-18794341D02*
X20211848Y-18813389D01*
X20297562Y-18632436D02*
X20307086Y-18622913D01*
X20307086Y-18622913D02*
X20326134Y-18613389D01*
X20326134Y-18613389D02*
X20373753Y-18613389D01*
X20373753Y-18613389D02*
X20392800Y-18622913D01*
X20392800Y-18622913D02*
X20402324Y-18632436D01*
X20402324Y-18632436D02*
X20411848Y-18651484D01*
X20411848Y-18651484D02*
X20411848Y-18670532D01*
X20411848Y-18670532D02*
X20402324Y-18699103D01*
X20402324Y-18699103D02*
X20288039Y-18813389D01*
X20288039Y-18813389D02*
X20411848Y-18813389D01*
X20535658Y-18613389D02*
X20554705Y-18613389D01*
X20554705Y-18613389D02*
X20573753Y-18622913D01*
X20573753Y-18622913D02*
X20583277Y-18632436D01*
X20583277Y-18632436D02*
X20592800Y-18651484D01*
X20592800Y-18651484D02*
X20602324Y-18689579D01*
X20602324Y-18689579D02*
X20602324Y-18737198D01*
X20602324Y-18737198D02*
X20592800Y-18775294D01*
X20592800Y-18775294D02*
X20583277Y-18794341D01*
X20583277Y-18794341D02*
X20573753Y-18803865D01*
X20573753Y-18803865D02*
X20554705Y-18813389D01*
X20554705Y-18813389D02*
X20535658Y-18813389D01*
X20535658Y-18813389D02*
X20516610Y-18803865D01*
X20516610Y-18803865D02*
X20507086Y-18794341D01*
X20507086Y-18794341D02*
X20497562Y-18775294D01*
X20497562Y-18775294D02*
X20488039Y-18737198D01*
X20488039Y-18737198D02*
X20488039Y-18689579D01*
X20488039Y-18689579D02*
X20497562Y-18651484D01*
X20497562Y-18651484D02*
X20507086Y-18632436D01*
X20507086Y-18632436D02*
X20516610Y-18622913D01*
X20516610Y-18622913D02*
X20535658Y-18613389D01*
X20726134Y-18613389D02*
X20745181Y-18613389D01*
X20745181Y-18613389D02*
X20764229Y-18622913D01*
X20764229Y-18622913D02*
X20773753Y-18632436D01*
X20773753Y-18632436D02*
X20783277Y-18651484D01*
X20783277Y-18651484D02*
X20792800Y-18689579D01*
X20792800Y-18689579D02*
X20792800Y-18737198D01*
X20792800Y-18737198D02*
X20783277Y-18775294D01*
X20783277Y-18775294D02*
X20773753Y-18794341D01*
X20773753Y-18794341D02*
X20764229Y-18803865D01*
X20764229Y-18803865D02*
X20745181Y-18813389D01*
X20745181Y-18813389D02*
X20726134Y-18813389D01*
X20726134Y-18813389D02*
X20707086Y-18803865D01*
X20707086Y-18803865D02*
X20697562Y-18794341D01*
X20697562Y-18794341D02*
X20688039Y-18775294D01*
X20688039Y-18775294D02*
X20678515Y-18737198D01*
X20678515Y-18737198D02*
X20678515Y-18689579D01*
X20678515Y-18689579D02*
X20688039Y-18651484D01*
X20688039Y-18651484D02*
X20697562Y-18632436D01*
X20697562Y-18632436D02*
X20707086Y-18622913D01*
X20707086Y-18622913D02*
X20726134Y-18613389D01*
X20878515Y-18813389D02*
X20878515Y-18680055D01*
X20878515Y-18699103D02*
X20888039Y-18689579D01*
X20888039Y-18689579D02*
X20907086Y-18680055D01*
X20907086Y-18680055D02*
X20935658Y-18680055D01*
X20935658Y-18680055D02*
X20954705Y-18689579D01*
X20954705Y-18689579D02*
X20964229Y-18708627D01*
X20964229Y-18708627D02*
X20964229Y-18813389D01*
X20964229Y-18708627D02*
X20973753Y-18689579D01*
X20973753Y-18689579D02*
X20992800Y-18680055D01*
X20992800Y-18680055D02*
X21021372Y-18680055D01*
X21021372Y-18680055D02*
X21040420Y-18689579D01*
X21040420Y-18689579D02*
X21049943Y-18708627D01*
X21049943Y-18708627D02*
X21049943Y-18813389D01*
X21145181Y-18813389D02*
X21145181Y-18680055D01*
X21145181Y-18699103D02*
X21154705Y-18689579D01*
X21154705Y-18689579D02*
X21173753Y-18680055D01*
X21173753Y-18680055D02*
X21202324Y-18680055D01*
X21202324Y-18680055D02*
X21221372Y-18689579D01*
X21221372Y-18689579D02*
X21230896Y-18708627D01*
X21230896Y-18708627D02*
X21230896Y-18813389D01*
X21230896Y-18708627D02*
X21240420Y-18689579D01*
X21240420Y-18689579D02*
X21259467Y-18680055D01*
X21259467Y-18680055D02*
X21288039Y-18680055D01*
X21288039Y-18680055D02*
X21307086Y-18689579D01*
X21307086Y-18689579D02*
X21316610Y-18708627D01*
X21316610Y-18708627D02*
X21316610Y-18813389D01*
X21707086Y-18603865D02*
X21535658Y-18861008D01*
X21964229Y-18613389D02*
X21983277Y-18613389D01*
X21983277Y-18613389D02*
X22002324Y-18622913D01*
X22002324Y-18622913D02*
X22011848Y-18632436D01*
X22011848Y-18632436D02*
X22021372Y-18651484D01*
X22021372Y-18651484D02*
X22030896Y-18689579D01*
X22030896Y-18689579D02*
X22030896Y-18737198D01*
X22030896Y-18737198D02*
X22021372Y-18775294D01*
X22021372Y-18775294D02*
X22011848Y-18794341D01*
X22011848Y-18794341D02*
X22002324Y-18803865D01*
X22002324Y-18803865D02*
X21983277Y-18813389D01*
X21983277Y-18813389D02*
X21964229Y-18813389D01*
X21964229Y-18813389D02*
X21945182Y-18803865D01*
X21945182Y-18803865D02*
X21935658Y-18794341D01*
X21935658Y-18794341D02*
X21926134Y-18775294D01*
X21926134Y-18775294D02*
X21916610Y-18737198D01*
X21916610Y-18737198D02*
X21916610Y-18689579D01*
X21916610Y-18689579D02*
X21926134Y-18651484D01*
X21926134Y-18651484D02*
X21935658Y-18632436D01*
X21935658Y-18632436D02*
X21945182Y-18622913D01*
X21945182Y-18622913D02*
X21964229Y-18613389D01*
X22116610Y-18794341D02*
X22126134Y-18803865D01*
X22126134Y-18803865D02*
X22116610Y-18813389D01*
X22116610Y-18813389D02*
X22107086Y-18803865D01*
X22107086Y-18803865D02*
X22116610Y-18794341D01*
X22116610Y-18794341D02*
X22116610Y-18813389D01*
X22249943Y-18613389D02*
X22268991Y-18613389D01*
X22268991Y-18613389D02*
X22288039Y-18622913D01*
X22288039Y-18622913D02*
X22297563Y-18632436D01*
X22297563Y-18632436D02*
X22307086Y-18651484D01*
X22307086Y-18651484D02*
X22316610Y-18689579D01*
X22316610Y-18689579D02*
X22316610Y-18737198D01*
X22316610Y-18737198D02*
X22307086Y-18775294D01*
X22307086Y-18775294D02*
X22297563Y-18794341D01*
X22297563Y-18794341D02*
X22288039Y-18803865D01*
X22288039Y-18803865D02*
X22268991Y-18813389D01*
X22268991Y-18813389D02*
X22249943Y-18813389D01*
X22249943Y-18813389D02*
X22230896Y-18803865D01*
X22230896Y-18803865D02*
X22221372Y-18794341D01*
X22221372Y-18794341D02*
X22211848Y-18775294D01*
X22211848Y-18775294D02*
X22202324Y-18737198D01*
X22202324Y-18737198D02*
X22202324Y-18689579D01*
X22202324Y-18689579D02*
X22211848Y-18651484D01*
X22211848Y-18651484D02*
X22221372Y-18632436D01*
X22221372Y-18632436D02*
X22230896Y-18622913D01*
X22230896Y-18622913D02*
X22249943Y-18613389D01*
X22430896Y-18699103D02*
X22411848Y-18689579D01*
X22411848Y-18689579D02*
X22402324Y-18680055D01*
X22402324Y-18680055D02*
X22392801Y-18661008D01*
X22392801Y-18661008D02*
X22392801Y-18651484D01*
X22392801Y-18651484D02*
X22402324Y-18632436D01*
X22402324Y-18632436D02*
X22411848Y-18622913D01*
X22411848Y-18622913D02*
X22430896Y-18613389D01*
X22430896Y-18613389D02*
X22468991Y-18613389D01*
X22468991Y-18613389D02*
X22488039Y-18622913D01*
X22488039Y-18622913D02*
X22497562Y-18632436D01*
X22497562Y-18632436D02*
X22507086Y-18651484D01*
X22507086Y-18651484D02*
X22507086Y-18661008D01*
X22507086Y-18661008D02*
X22497562Y-18680055D01*
X22497562Y-18680055D02*
X22488039Y-18689579D01*
X22488039Y-18689579D02*
X22468991Y-18699103D01*
X22468991Y-18699103D02*
X22430896Y-18699103D01*
X22430896Y-18699103D02*
X22411848Y-18708627D01*
X22411848Y-18708627D02*
X22402324Y-18718151D01*
X22402324Y-18718151D02*
X22392801Y-18737198D01*
X22392801Y-18737198D02*
X22392801Y-18775294D01*
X22392801Y-18775294D02*
X22402324Y-18794341D01*
X22402324Y-18794341D02*
X22411848Y-18803865D01*
X22411848Y-18803865D02*
X22430896Y-18813389D01*
X22430896Y-18813389D02*
X22468991Y-18813389D01*
X22468991Y-18813389D02*
X22488039Y-18803865D01*
X22488039Y-18803865D02*
X22497562Y-18794341D01*
X22497562Y-18794341D02*
X22507086Y-18775294D01*
X22507086Y-18775294D02*
X22507086Y-18737198D01*
X22507086Y-18737198D02*
X22497562Y-18718151D01*
X22497562Y-18718151D02*
X22488039Y-18708627D01*
X22488039Y-18708627D02*
X22468991Y-18699103D01*
X22678515Y-18613389D02*
X22640420Y-18613389D01*
X22640420Y-18613389D02*
X22621372Y-18622913D01*
X22621372Y-18622913D02*
X22611848Y-18632436D01*
X22611848Y-18632436D02*
X22592801Y-18661008D01*
X22592801Y-18661008D02*
X22583277Y-18699103D01*
X22583277Y-18699103D02*
X22583277Y-18775294D01*
X22583277Y-18775294D02*
X22592801Y-18794341D01*
X22592801Y-18794341D02*
X22602324Y-18803865D01*
X22602324Y-18803865D02*
X22621372Y-18813389D01*
X22621372Y-18813389D02*
X22659467Y-18813389D01*
X22659467Y-18813389D02*
X22678515Y-18803865D01*
X22678515Y-18803865D02*
X22688039Y-18794341D01*
X22688039Y-18794341D02*
X22697562Y-18775294D01*
X22697562Y-18775294D02*
X22697562Y-18727675D01*
X22697562Y-18727675D02*
X22688039Y-18708627D01*
X22688039Y-18708627D02*
X22678515Y-18699103D01*
X22678515Y-18699103D02*
X22659467Y-18689579D01*
X22659467Y-18689579D02*
X22621372Y-18689579D01*
X22621372Y-18689579D02*
X22602324Y-18699103D01*
X22602324Y-18699103D02*
X22592801Y-18708627D01*
X22592801Y-18708627D02*
X22583277Y-18727675D01*
X22868991Y-18613389D02*
X22830896Y-18613389D01*
X22830896Y-18613389D02*
X22811848Y-18622913D01*
X22811848Y-18622913D02*
X22802324Y-18632436D01*
X22802324Y-18632436D02*
X22783277Y-18661008D01*
X22783277Y-18661008D02*
X22773753Y-18699103D01*
X22773753Y-18699103D02*
X22773753Y-18775294D01*
X22773753Y-18775294D02*
X22783277Y-18794341D01*
X22783277Y-18794341D02*
X22792801Y-18803865D01*
X22792801Y-18803865D02*
X22811848Y-18813389D01*
X22811848Y-18813389D02*
X22849943Y-18813389D01*
X22849943Y-18813389D02*
X22868991Y-18803865D01*
X22868991Y-18803865D02*
X22878515Y-18794341D01*
X22878515Y-18794341D02*
X22888039Y-18775294D01*
X22888039Y-18775294D02*
X22888039Y-18727675D01*
X22888039Y-18727675D02*
X22878515Y-18708627D01*
X22878515Y-18708627D02*
X22868991Y-18699103D01*
X22868991Y-18699103D02*
X22849943Y-18689579D01*
X22849943Y-18689579D02*
X22811848Y-18689579D01*
X22811848Y-18689579D02*
X22792801Y-18699103D01*
X22792801Y-18699103D02*
X22783277Y-18708627D01*
X22783277Y-18708627D02*
X22773753Y-18727675D01*
X22964229Y-18613389D02*
X22964229Y-18651484D01*
X23040420Y-18613389D02*
X23040420Y-18651484D01*
X23335658Y-18889579D02*
X23326134Y-18880055D01*
X23326134Y-18880055D02*
X23307086Y-18851484D01*
X23307086Y-18851484D02*
X23297563Y-18832436D01*
X23297563Y-18832436D02*
X23288039Y-18803865D01*
X23288039Y-18803865D02*
X23278515Y-18756246D01*
X23278515Y-18756246D02*
X23278515Y-18718151D01*
X23278515Y-18718151D02*
X23288039Y-18670532D01*
X23288039Y-18670532D02*
X23297563Y-18641960D01*
X23297563Y-18641960D02*
X23307086Y-18622913D01*
X23307086Y-18622913D02*
X23326134Y-18594341D01*
X23326134Y-18594341D02*
X23335658Y-18584817D01*
X23497563Y-18680055D02*
X23497563Y-18813389D01*
X23449943Y-18603865D02*
X23402324Y-18746722D01*
X23402324Y-18746722D02*
X23526134Y-18746722D01*
X23754705Y-18813389D02*
X23754705Y-18613389D01*
X23840420Y-18813389D02*
X23840420Y-18708627D01*
X23840420Y-18708627D02*
X23830896Y-18689579D01*
X23830896Y-18689579D02*
X23811848Y-18680055D01*
X23811848Y-18680055D02*
X23783277Y-18680055D01*
X23783277Y-18680055D02*
X23764229Y-18689579D01*
X23764229Y-18689579D02*
X23754705Y-18699103D01*
X23964229Y-18813389D02*
X23945182Y-18803865D01*
X23945182Y-18803865D02*
X23935658Y-18794341D01*
X23935658Y-18794341D02*
X23926134Y-18775294D01*
X23926134Y-18775294D02*
X23926134Y-18718151D01*
X23926134Y-18718151D02*
X23935658Y-18699103D01*
X23935658Y-18699103D02*
X23945182Y-18689579D01*
X23945182Y-18689579D02*
X23964229Y-18680055D01*
X23964229Y-18680055D02*
X23992801Y-18680055D01*
X23992801Y-18680055D02*
X24011848Y-18689579D01*
X24011848Y-18689579D02*
X24021372Y-18699103D01*
X24021372Y-18699103D02*
X24030896Y-18718151D01*
X24030896Y-18718151D02*
X24030896Y-18775294D01*
X24030896Y-18775294D02*
X24021372Y-18794341D01*
X24021372Y-18794341D02*
X24011848Y-18803865D01*
X24011848Y-18803865D02*
X23992801Y-18813389D01*
X23992801Y-18813389D02*
X23964229Y-18813389D01*
X24145182Y-18813389D02*
X24126134Y-18803865D01*
X24126134Y-18803865D02*
X24116610Y-18784817D01*
X24116610Y-18784817D02*
X24116610Y-18613389D01*
X24297563Y-18803865D02*
X24278515Y-18813389D01*
X24278515Y-18813389D02*
X24240420Y-18813389D01*
X24240420Y-18813389D02*
X24221372Y-18803865D01*
X24221372Y-18803865D02*
X24211848Y-18784817D01*
X24211848Y-18784817D02*
X24211848Y-18708627D01*
X24211848Y-18708627D02*
X24221372Y-18689579D01*
X24221372Y-18689579D02*
X24240420Y-18680055D01*
X24240420Y-18680055D02*
X24278515Y-18680055D01*
X24278515Y-18680055D02*
X24297563Y-18689579D01*
X24297563Y-18689579D02*
X24307086Y-18708627D01*
X24307086Y-18708627D02*
X24307086Y-18727675D01*
X24307086Y-18727675D02*
X24211848Y-18746722D01*
X24383277Y-18803865D02*
X24402325Y-18813389D01*
X24402325Y-18813389D02*
X24440420Y-18813389D01*
X24440420Y-18813389D02*
X24459467Y-18803865D01*
X24459467Y-18803865D02*
X24468991Y-18784817D01*
X24468991Y-18784817D02*
X24468991Y-18775294D01*
X24468991Y-18775294D02*
X24459467Y-18756246D01*
X24459467Y-18756246D02*
X24440420Y-18746722D01*
X24440420Y-18746722D02*
X24411848Y-18746722D01*
X24411848Y-18746722D02*
X24392801Y-18737198D01*
X24392801Y-18737198D02*
X24383277Y-18718151D01*
X24383277Y-18718151D02*
X24383277Y-18708627D01*
X24383277Y-18708627D02*
X24392801Y-18689579D01*
X24392801Y-18689579D02*
X24411848Y-18680055D01*
X24411848Y-18680055D02*
X24440420Y-18680055D01*
X24440420Y-18680055D02*
X24459467Y-18689579D01*
X24535658Y-18889579D02*
X24545182Y-18880055D01*
X24545182Y-18880055D02*
X24564229Y-18851484D01*
X24564229Y-18851484D02*
X24573753Y-18832436D01*
X24573753Y-18832436D02*
X24583277Y-18803865D01*
X24583277Y-18803865D02*
X24592801Y-18756246D01*
X24592801Y-18756246D02*
X24592801Y-18718151D01*
X24592801Y-18718151D02*
X24583277Y-18670532D01*
X24583277Y-18670532D02*
X24573753Y-18641960D01*
X24573753Y-18641960D02*
X24564229Y-18622913D01*
X24564229Y-18622913D02*
X24545182Y-18594341D01*
X24545182Y-18594341D02*
X24535658Y-18584817D01*
X24897563Y-18889579D02*
X24888039Y-18880055D01*
X24888039Y-18880055D02*
X24868991Y-18851484D01*
X24868991Y-18851484D02*
X24859467Y-18832436D01*
X24859467Y-18832436D02*
X24849944Y-18803865D01*
X24849944Y-18803865D02*
X24840420Y-18756246D01*
X24840420Y-18756246D02*
X24840420Y-18718151D01*
X24840420Y-18718151D02*
X24849944Y-18670532D01*
X24849944Y-18670532D02*
X24859467Y-18641960D01*
X24859467Y-18641960D02*
X24868991Y-18622913D01*
X24868991Y-18622913D02*
X24888039Y-18594341D01*
X24888039Y-18594341D02*
X24897563Y-18584817D01*
X24973753Y-18680055D02*
X24973753Y-18813389D01*
X24973753Y-18699103D02*
X24983277Y-18689579D01*
X24983277Y-18689579D02*
X25002325Y-18680055D01*
X25002325Y-18680055D02*
X25030896Y-18680055D01*
X25030896Y-18680055D02*
X25049944Y-18689579D01*
X25049944Y-18689579D02*
X25059467Y-18708627D01*
X25059467Y-18708627D02*
X25059467Y-18813389D01*
X25183277Y-18813389D02*
X25164229Y-18803865D01*
X25164229Y-18803865D02*
X25154706Y-18794341D01*
X25154706Y-18794341D02*
X25145182Y-18775294D01*
X25145182Y-18775294D02*
X25145182Y-18718151D01*
X25145182Y-18718151D02*
X25154706Y-18699103D01*
X25154706Y-18699103D02*
X25164229Y-18689579D01*
X25164229Y-18689579D02*
X25183277Y-18680055D01*
X25183277Y-18680055D02*
X25211848Y-18680055D01*
X25211848Y-18680055D02*
X25230896Y-18689579D01*
X25230896Y-18689579D02*
X25240420Y-18699103D01*
X25240420Y-18699103D02*
X25249944Y-18718151D01*
X25249944Y-18718151D02*
X25249944Y-18775294D01*
X25249944Y-18775294D02*
X25240420Y-18794341D01*
X25240420Y-18794341D02*
X25230896Y-18803865D01*
X25230896Y-18803865D02*
X25211848Y-18813389D01*
X25211848Y-18813389D02*
X25183277Y-18813389D01*
X25307087Y-18680055D02*
X25383277Y-18680055D01*
X25335658Y-18613389D02*
X25335658Y-18784817D01*
X25335658Y-18784817D02*
X25345182Y-18803865D01*
X25345182Y-18803865D02*
X25364229Y-18813389D01*
X25364229Y-18813389D02*
X25383277Y-18813389D01*
X25602325Y-18680055D02*
X25602325Y-18880055D01*
X25602325Y-18689579D02*
X25621372Y-18680055D01*
X25621372Y-18680055D02*
X25659468Y-18680055D01*
X25659468Y-18680055D02*
X25678515Y-18689579D01*
X25678515Y-18689579D02*
X25688039Y-18699103D01*
X25688039Y-18699103D02*
X25697563Y-18718151D01*
X25697563Y-18718151D02*
X25697563Y-18775294D01*
X25697563Y-18775294D02*
X25688039Y-18794341D01*
X25688039Y-18794341D02*
X25678515Y-18803865D01*
X25678515Y-18803865D02*
X25659468Y-18813389D01*
X25659468Y-18813389D02*
X25621372Y-18813389D01*
X25621372Y-18813389D02*
X25602325Y-18803865D01*
X25811848Y-18813389D02*
X25792801Y-18803865D01*
X25792801Y-18803865D02*
X25783277Y-18784817D01*
X25783277Y-18784817D02*
X25783277Y-18613389D01*
X25973753Y-18813389D02*
X25973753Y-18708627D01*
X25973753Y-18708627D02*
X25964229Y-18689579D01*
X25964229Y-18689579D02*
X25945182Y-18680055D01*
X25945182Y-18680055D02*
X25907087Y-18680055D01*
X25907087Y-18680055D02*
X25888039Y-18689579D01*
X25973753Y-18803865D02*
X25954706Y-18813389D01*
X25954706Y-18813389D02*
X25907087Y-18813389D01*
X25907087Y-18813389D02*
X25888039Y-18803865D01*
X25888039Y-18803865D02*
X25878515Y-18784817D01*
X25878515Y-18784817D02*
X25878515Y-18765770D01*
X25878515Y-18765770D02*
X25888039Y-18746722D01*
X25888039Y-18746722D02*
X25907087Y-18737198D01*
X25907087Y-18737198D02*
X25954706Y-18737198D01*
X25954706Y-18737198D02*
X25973753Y-18727675D01*
X26040420Y-18680055D02*
X26116610Y-18680055D01*
X26068991Y-18613389D02*
X26068991Y-18784817D01*
X26068991Y-18784817D02*
X26078515Y-18803865D01*
X26078515Y-18803865D02*
X26097563Y-18813389D01*
X26097563Y-18813389D02*
X26116610Y-18813389D01*
X26259468Y-18803865D02*
X26240420Y-18813389D01*
X26240420Y-18813389D02*
X26202325Y-18813389D01*
X26202325Y-18813389D02*
X26183277Y-18803865D01*
X26183277Y-18803865D02*
X26173753Y-18784817D01*
X26173753Y-18784817D02*
X26173753Y-18708627D01*
X26173753Y-18708627D02*
X26183277Y-18689579D01*
X26183277Y-18689579D02*
X26202325Y-18680055D01*
X26202325Y-18680055D02*
X26240420Y-18680055D01*
X26240420Y-18680055D02*
X26259468Y-18689579D01*
X26259468Y-18689579D02*
X26268991Y-18708627D01*
X26268991Y-18708627D02*
X26268991Y-18727675D01*
X26268991Y-18727675D02*
X26173753Y-18746722D01*
X26440420Y-18813389D02*
X26440420Y-18613389D01*
X26440420Y-18803865D02*
X26421372Y-18813389D01*
X26421372Y-18813389D02*
X26383277Y-18813389D01*
X26383277Y-18813389D02*
X26364229Y-18803865D01*
X26364229Y-18803865D02*
X26354706Y-18794341D01*
X26354706Y-18794341D02*
X26345182Y-18775294D01*
X26345182Y-18775294D02*
X26345182Y-18718151D01*
X26345182Y-18718151D02*
X26354706Y-18699103D01*
X26354706Y-18699103D02*
X26364229Y-18689579D01*
X26364229Y-18689579D02*
X26383277Y-18680055D01*
X26383277Y-18680055D02*
X26421372Y-18680055D01*
X26421372Y-18680055D02*
X26440420Y-18689579D01*
X26516610Y-18889579D02*
X26526134Y-18880055D01*
X26526134Y-18880055D02*
X26545182Y-18851484D01*
X26545182Y-18851484D02*
X26554706Y-18832436D01*
X26554706Y-18832436D02*
X26564229Y-18803865D01*
X26564229Y-18803865D02*
X26573753Y-18756246D01*
X26573753Y-18756246D02*
X26573753Y-18718151D01*
X26573753Y-18718151D02*
X26564229Y-18670532D01*
X26564229Y-18670532D02*
X26554706Y-18641960D01*
X26554706Y-18641960D02*
X26545182Y-18622913D01*
X26545182Y-18622913D02*
X26526134Y-18594341D01*
X26526134Y-18594341D02*
X26516610Y-18584817D01*
M02*
